<svg width="390" height="577" viewBox="0 0 390 577" fill="none" xmlns="http://www.w3.org/2000/svg">
<g opacity="0.75">
<path d="M387.31 11.7208C386.966 12.3953 387.654 13.0697 388.342 12.7325C388.457 12.6201 388.572 12.5077 388.687 12.3953C389.031 11.7208 388.342 11.0464 387.654 11.3836C387.539 11.496 387.31 11.6084 387.31 11.7208Z" fill="white"/>
<path d="M307.793 15.2057C307.449 15.8801 308.137 16.5545 308.825 16.2173C308.94 16.1049 309.055 15.9925 309.17 15.8801C309.514 15.2057 308.825 14.5313 308.137 14.8685C308.022 14.9809 307.907 15.0933 307.793 15.2057Z" fill="white"/>
<path d="M294.023 81.5226C293.679 82.197 294.368 82.8714 295.056 82.5342C295.171 82.4218 295.286 82.3094 295.4 82.197C295.745 81.5226 295.056 80.8482 294.368 81.1854C294.253 81.2978 294.023 81.4102 294.023 81.5226Z" fill="white"/>
<path d="M363.902 112.995C363.558 113.669 364.247 114.344 364.935 114.006C365.05 113.894 365.165 113.782 365.279 113.669C365.624 112.995 364.935 112.32 364.247 112.658C364.132 112.77 364.017 112.882 363.902 112.995Z" fill="white"/>
<path d="M158.512 59.6046C158.167 60.279 158.856 60.9535 159.544 60.6163C159.659 60.5038 159.774 60.3914 159.889 60.279C160.233 59.6046 159.544 58.9302 158.856 59.2674C158.741 59.2674 158.626 59.3798 158.512 59.6046Z" fill="white"/>
<path d="M25.8681 50.1627C25.5239 50.8372 26.2123 51.5116 26.9008 51.1744C27.0155 51.062 27.1303 50.9496 27.245 50.8371C27.5893 50.1627 26.9008 49.4883 26.2123 49.8255C25.9828 49.9379 25.8681 50.0503 25.8681 50.1627Z" fill="white"/>
<path d="M22.8852 67.1354C22.541 67.8098 23.2294 68.4842 23.9179 68.147C24.0326 68.0346 24.1474 67.9222 24.2621 67.8098C24.6064 67.1354 23.9179 66.461 23.2294 66.7982C23.1147 66.7982 22.9999 66.9106 22.8852 67.1354Z" fill="white"/>
<path d="M116.974 45.442C116.63 46.1164 117.319 46.7909 118.007 46.4537C118.122 46.3412 118.237 46.2288 118.351 46.1164C118.696 45.442 118.007 44.7676 117.319 45.1048C117.089 45.2172 116.974 45.3296 116.974 45.442Z" fill="white"/>
<path d="M182.149 31.6159C181.805 32.2903 182.493 32.9647 183.181 32.6275C183.296 32.5151 183.411 32.4027 183.526 32.2903C183.87 31.6159 183.181 30.9415 182.493 31.2787C182.263 31.3911 182.149 31.5035 182.149 31.6159Z" fill="white"/>
<path d="M214.85 30.7164C214.506 31.3909 215.195 32.0653 215.883 31.7281C215.998 31.6157 216.113 31.5033 216.227 31.3909C216.572 30.7164 215.883 30.042 215.195 30.3792C214.965 30.3792 214.85 30.4916 214.85 30.7164Z" fill="white"/>
<path d="M267.059 57.0187C266.715 57.6931 267.403 58.3675 268.092 58.0303C268.206 57.9179 268.321 57.8055 268.436 57.6931C268.78 57.0187 268.092 56.3443 267.403 56.6815C267.288 56.6815 267.174 56.7939 267.059 57.0187Z" fill="white"/>
<path d="M229.193 103.328C228.849 104.002 229.537 104.677 230.226 104.339C230.341 104.227 230.455 104.115 230.57 104.002C230.914 103.328 230.226 102.653 229.537 102.991C229.423 103.103 229.308 103.215 229.193 103.328Z" fill="white"/>
<path d="M234.931 108.948C234.586 109.623 235.275 110.297 235.963 109.96C236.078 109.848 236.193 109.735 236.308 109.623C236.652 108.948 235.963 108.274 235.275 108.611C235.16 108.724 235.045 108.836 234.931 108.948Z" fill="white"/>
<path d="M342.789 104.902C342.445 105.576 343.134 106.25 343.822 105.913C343.937 105.801 344.052 105.688 344.166 105.576C344.511 104.902 343.822 104.227 343.134 104.564C343.019 104.564 342.904 104.677 342.789 104.902Z" fill="white"/>
<path d="M368.607 116.929C368.262 117.603 368.951 118.278 369.639 117.94C369.754 117.828 369.869 117.716 369.984 117.603C370.328 116.929 369.639 116.254 368.951 116.592C368.721 116.592 368.607 116.704 368.607 116.929Z" fill="white"/>
<path d="M314.563 213.594C314.219 214.269 314.907 214.943 315.595 214.606C315.71 214.494 315.825 214.381 315.94 214.269C316.284 213.594 315.595 212.92 314.907 213.257C314.792 213.37 314.563 213.482 314.563 213.594Z" fill="white"/>
<path d="M238.602 218.09C238.258 218.765 238.947 219.439 239.635 219.102C239.75 218.99 239.865 218.877 239.979 218.765C240.324 218.09 239.635 217.416 238.947 217.753C238.832 217.866 238.717 217.978 238.602 218.09Z" fill="white"/>
<path d="M155.299 222.474C154.954 223.148 155.643 223.823 156.331 223.485C156.446 223.373 156.561 223.261 156.676 223.148C157.02 222.474 156.331 221.799 155.643 222.137C155.413 222.137 155.299 222.249 155.299 222.474Z" fill="white"/>
<path d="M72.2244 214.606C71.8802 215.281 72.5686 215.955 73.2571 215.618C73.3718 215.505 73.4866 215.393 73.6013 215.281C73.9456 214.606 73.2571 213.932 72.5687 214.269C72.4539 214.381 72.3391 214.494 72.2244 214.606Z" fill="white"/>
<path d="M44.9341 241.828C45.203 241.564 45.1667 241.102 44.853 240.794C44.5393 240.487 44.0671 240.452 43.7982 240.715C43.5294 240.978 43.5657 241.441 43.8794 241.748C44.193 242.056 44.6653 242.091 44.9341 241.828Z" fill="white"/>
<path d="M18.8688 294.299C18.5245 294.973 19.213 295.648 19.9015 295.311C20.0162 295.198 20.131 295.086 20.2457 294.973C20.59 294.299 19.9015 293.625 19.213 293.962C19.0983 294.074 18.9835 294.187 18.8688 294.299Z" fill="white"/>
<path d="M22.885 311.047C22.5407 311.721 23.2292 312.396 23.9176 312.059C24.0324 311.946 24.1471 311.834 24.2619 311.721C24.6061 311.047 23.9177 310.373 23.2292 310.71C23.1145 310.822 22.9997 310.935 22.885 311.047Z" fill="white"/>
<path d="M257.879 320.376C257.535 321.051 258.224 321.725 258.912 321.388C259.027 321.275 259.142 321.163 259.256 321.051C259.6 320.376 258.912 319.702 258.224 320.039C258.109 320.151 257.994 320.264 257.879 320.376Z" fill="white"/>
<path d="M330.168 322.624C329.824 323.298 330.512 323.972 331.2 323.635C331.315 323.523 331.43 323.41 331.545 323.298C331.889 322.624 331.2 321.949 330.512 322.286C330.282 322.286 330.168 322.399 330.168 322.624Z" fill="white"/>
<path d="M364.476 324.422C364.132 325.097 364.82 325.771 365.509 325.434C365.623 325.322 365.738 325.209 365.853 325.097C366.197 324.422 365.509 323.748 364.82 324.085C364.591 324.198 364.476 324.31 364.476 324.422Z" fill="white"/>
<path d="M362.525 302.392C362.181 303.067 362.869 303.741 363.558 303.404C363.673 303.291 363.787 303.179 363.902 303.067C364.246 302.392 363.558 301.718 362.869 302.055C362.755 302.055 362.64 302.167 362.525 302.392Z" fill="white"/>
<path d="M321.792 316.779C321.448 317.453 322.136 318.128 322.824 317.791C322.939 317.678 323.054 317.566 323.169 317.453C323.513 316.779 322.824 316.105 322.136 316.442C321.906 316.554 321.792 316.667 321.792 316.779Z" fill="white"/>
<path d="M311.235 363.651C310.891 364.325 311.579 365 312.268 364.663C312.382 364.55 312.497 364.438 312.612 364.325C312.956 363.651 312.268 362.977 311.579 363.314C311.464 363.426 311.35 363.539 311.235 363.651Z" fill="white"/>
<path d="M281.746 389.728C281.402 390.402 282.09 391.077 282.779 390.739C282.893 390.627 283.008 390.515 283.123 390.402C283.467 389.728 282.779 389.053 282.09 389.39C281.975 389.503 281.861 389.615 281.746 389.728Z" fill="white"/>
<path d="M217.375 407.15C217.031 407.824 217.719 408.499 218.408 408.162C218.522 408.049 218.637 407.937 218.752 407.824C219.096 407.15 218.408 406.476 217.719 406.813C217.605 406.925 217.49 407.038 217.375 407.15Z" fill="white"/>
<path d="M192.935 419.065C192.591 419.739 193.279 420.413 193.968 420.076C194.082 419.964 194.197 419.851 194.312 419.739C194.656 419.065 193.967 418.39 193.279 418.727C193.164 418.84 193.05 418.952 192.935 419.065Z" fill="white"/>
<path d="M145.546 379.387C145.201 380.062 145.89 380.736 146.578 380.399C146.693 380.287 146.808 380.174 146.923 380.062C147.267 379.387 146.578 378.713 145.89 379.05C145.775 379.163 145.66 379.275 145.546 379.387Z" fill="white"/>
<path d="M155.873 350.837C155.528 351.511 156.217 352.186 156.905 351.849C157.02 351.736 157.135 351.624 157.249 351.511C157.594 350.837 156.905 350.163 156.217 350.5C156.102 350.612 155.987 350.725 155.873 350.837Z" fill="white"/>
<path d="M151.398 328.582C151.053 329.256 151.742 329.931 152.43 329.593C152.545 329.481 152.66 329.368 152.774 329.256C153.119 328.582 152.43 327.907 151.742 328.244C151.627 328.357 151.512 328.469 151.398 328.582Z" fill="white"/>
<path d="M143.251 292.612C142.906 293.287 143.595 293.961 144.283 293.624C144.398 293.512 144.513 293.399 144.628 293.287C144.972 292.612 144.283 291.938 143.595 292.275C143.48 292.388 143.365 292.5 143.251 292.612Z" fill="white"/>
<path d="M275.435 287.667C275.091 288.342 275.779 289.016 276.468 288.679C276.582 288.566 276.697 288.454 276.812 288.342C277.156 287.667 276.468 286.993 275.779 287.33C275.664 287.33 275.55 287.442 275.435 287.667Z" fill="white"/>
<path d="M235.39 383.658C235.046 384.333 235.734 385.007 236.422 384.67C236.537 384.558 236.652 384.445 236.767 384.333C237.111 383.658 236.422 382.984 235.734 383.321C235.619 383.321 235.505 383.434 235.39 383.658Z" fill="white"/>
<path d="M376.524 414.569C376.18 415.243 376.868 415.917 377.557 415.58C377.672 415.468 377.786 415.355 377.901 415.243C378.245 414.568 377.557 413.894 376.868 414.231C376.754 414.231 376.639 414.344 376.524 414.569Z" fill="white"/>
<path d="M383.523 477.626C383.179 478.3 383.867 478.974 384.556 478.637C384.671 478.525 384.785 478.412 384.9 478.3C385.244 477.626 384.556 476.951 383.868 477.288C383.638 477.288 383.523 477.401 383.523 477.626Z" fill="white"/>
<path d="M263.272 513.032C262.928 513.707 263.616 514.381 264.305 514.044C264.42 513.932 264.534 513.819 264.649 513.707C264.993 513.032 264.305 512.358 263.616 512.695C263.387 512.808 263.272 512.92 263.272 513.032Z" fill="white"/>
<path d="M211.638 465.599C211.294 466.273 211.982 466.948 212.67 466.61C212.785 466.498 212.9 466.386 213.015 466.273C213.359 465.599 212.67 464.924 211.982 465.262C211.867 465.374 211.753 465.486 211.638 465.599Z" fill="white"/>
<path d="M303.318 513.145C302.973 513.819 303.662 514.493 304.35 514.156C304.465 514.044 304.58 513.931 304.695 513.819C305.039 513.145 304.35 512.47 303.662 512.807C303.432 512.92 303.318 513.032 303.318 513.145Z" fill="white"/>
<path d="M269.468 431.317C269.124 431.991 269.813 432.665 270.501 432.328C270.616 432.216 270.731 432.103 270.845 431.991C271.19 431.317 270.501 430.642 269.813 430.979C269.698 430.979 269.583 431.092 269.468 431.317Z" fill="white"/>
<path d="M193.738 491.789C193.394 492.463 194.082 493.138 194.771 492.8C194.885 492.688 195 492.576 195.115 492.463C195.459 491.789 194.771 491.114 194.082 491.452C193.967 491.564 193.738 491.676 193.738 491.789Z" fill="white"/>
<path d="M285.877 445.591C285.532 446.266 286.221 446.94 286.909 446.603C287.024 446.491 287.139 446.378 287.254 446.266C287.598 445.591 286.909 444.917 286.221 445.254C285.991 445.254 285.877 445.479 285.877 445.591Z" fill="white"/>
<path d="M24.2622 485.045C23.9179 485.719 24.6064 486.393 25.2948 486.056C25.4096 485.944 25.5243 485.831 25.639 485.719C25.9833 485.045 25.2948 484.37 24.6064 484.707C24.4916 484.707 24.3769 484.82 24.2622 485.045Z" fill="white"/>
<path d="M24.3767 562.039C24.0324 562.714 24.7209 563.388 25.4094 563.051C25.5241 562.938 25.6388 562.826 25.7536 562.714C26.0978 562.039 25.4094 561.365 24.7209 561.702C24.4914 561.814 24.3767 561.927 24.3767 562.039Z" fill="white"/>
<path d="M115.598 485.494C115.253 486.168 115.942 486.843 116.63 486.505C116.745 486.393 116.86 486.281 116.975 486.168C117.319 485.494 116.63 484.819 115.942 485.157C115.827 485.269 115.712 485.381 115.598 485.494Z" fill="white"/>
<path d="M21.6227 130.755C21.2784 131.429 21.9669 132.103 22.6554 131.766C22.7701 131.654 22.8849 131.541 22.9996 131.429C23.3438 130.755 22.6554 130.08 21.9669 130.417C21.7374 130.53 21.6227 130.642 21.6227 130.755Z" fill="white"/>
<path d="M81.7484 148.739C81.4041 149.413 82.0926 150.088 82.781 149.751C82.8958 149.638 83.0105 149.526 83.1253 149.413C83.4695 148.739 82.781 148.064 82.0926 148.402C81.9778 148.514 81.8631 148.627 81.7484 148.739Z" fill="white"/>
<path d="M44.6862 191.564C44.342 192.238 45.0305 192.912 45.7189 192.575C45.8337 192.463 45.9484 192.35 46.0632 192.238C46.4074 191.564 45.719 190.889 45.0305 191.226C44.801 191.339 44.6862 191.451 44.6862 191.564Z" fill="white"/>
<path d="M275.665 106.251C275.32 106.926 276.009 107.6 276.697 107.263C276.812 107.15 276.927 107.038 277.042 106.926C277.386 106.251 276.697 105.577 276.009 105.914C275.894 105.914 275.779 106.139 275.665 106.251Z" fill="white"/>
<path d="M372.049 190.327C371.705 191.002 372.393 191.676 373.081 191.339C373.196 191.227 373.311 191.114 373.426 191.002C373.77 190.327 373.082 189.653 372.393 189.99C372.278 190.102 372.164 190.215 372.049 190.327Z" fill="white"/>
<path d="M347.838 239.56C347.494 240.234 348.183 240.909 348.871 240.571C348.986 240.459 349.1 240.347 349.215 240.234C349.559 239.56 348.871 238.885 348.183 239.223C348.068 239.335 347.953 239.447 347.838 239.56Z" fill="white"/>
<path d="M195.115 102.092C194.771 102.766 195.459 103.441 196.147 103.104C196.262 102.991 196.377 102.879 196.492 102.766C196.836 102.092 196.147 101.418 195.459 101.755C195.344 101.867 195.23 101.98 195.115 102.092Z" fill="white"/>
<path d="M225.981 187.18C225.636 187.854 226.325 188.529 227.013 188.191C227.128 188.079 227.243 187.967 227.358 187.854C227.702 187.18 227.013 186.505 226.325 186.843C226.21 186.955 226.095 187.067 225.981 187.18Z" fill="white"/>
<path d="M356.214 141.208C355.87 141.883 356.559 142.557 357.247 142.22C357.362 142.107 357.477 141.995 357.591 141.883C357.936 141.208 357.247 140.534 356.559 140.871C356.444 140.871 356.329 141.096 356.214 141.208Z" fill="white"/>
<path d="M347.494 29.9303C347.15 30.6047 347.838 31.2791 348.527 30.9419C348.641 30.8295 348.756 30.7171 348.871 30.6047C349.215 29.9303 348.527 29.2559 347.838 29.5931C347.609 29.5931 347.494 29.7055 347.494 29.9303Z" fill="white"/>
<path d="M355.985 48.3639C355.641 49.0383 356.329 49.7127 357.018 49.3755C357.132 49.2631 357.247 49.1507 357.362 49.0383C357.706 48.3639 357.018 47.6895 356.329 48.0267C356.214 48.0267 355.985 48.1391 355.985 48.3639Z" fill="white"/>
<path d="M332.348 104.228C332.004 104.902 332.692 105.576 333.381 105.239C333.495 105.127 333.61 105.014 333.725 104.902C334.069 104.228 333.381 103.553 332.692 103.89C332.577 104.003 332.463 104.115 332.348 104.228Z" fill="white"/>
<path d="M356.1 81.9723C355.755 82.6467 356.444 83.3211 357.132 82.9839C357.247 82.8715 357.362 82.7591 357.477 82.6467C357.821 81.9723 357.132 81.2979 356.444 81.6351C356.214 81.6351 356.1 81.7475 356.1 81.9723Z" fill="white"/>
<path d="M331.2 60.0539C330.856 60.7283 331.545 61.4027 332.233 61.0655C332.348 60.9531 332.463 60.8407 332.577 60.7283C332.921 60.0539 332.233 59.3794 331.545 59.7166C331.43 59.829 331.2 59.9415 331.2 60.0539Z" fill="white"/>
<path d="M210.261 33.527C209.917 34.2014 210.605 34.8758 211.294 34.5386C211.408 34.4262 211.523 34.3138 211.638 34.2014C211.982 33.527 211.294 32.8526 210.605 33.1898C210.49 33.3022 210.376 33.4146 210.261 33.527Z" fill="white"/>
<path d="M271.649 66.5734C271.304 67.2478 271.993 67.9222 272.681 67.585C272.796 67.4726 272.911 67.3602 273.026 67.2478C273.37 66.5734 272.681 65.899 271.993 66.2362C271.763 66.3486 271.649 66.461 271.649 66.5734Z" fill="white"/>
<path d="M153.578 86.5807C153.233 87.2551 153.922 87.9295 154.61 87.5923C154.725 87.4799 154.84 87.3675 154.955 87.2551C155.299 86.5807 154.61 85.9063 153.922 86.2435C153.807 86.3559 153.692 86.4683 153.578 86.5807Z" fill="white"/>
<path d="M159.544 129.967C159.2 130.642 159.888 131.316 160.577 130.979C160.692 130.867 160.806 130.754 160.921 130.642C161.265 129.967 160.577 129.293 159.888 129.63C159.774 129.743 159.544 129.855 159.544 129.967Z" fill="white"/>
<path d="M55.3573 114.681C55.0131 115.355 55.7016 116.03 56.39 115.692C56.5048 115.58 56.6195 115.468 56.7342 115.355C57.0785 114.681 56.39 114.006 55.7016 114.344C55.5868 114.456 55.4721 114.568 55.3573 114.681Z" fill="white"/>
<path d="M119.843 31.9533C119.499 32.6277 120.187 33.3021 120.876 32.9649C120.99 32.8525 121.105 32.7401 121.22 32.6277C121.564 31.9533 120.876 31.2789 120.187 31.6161C120.073 31.7285 119.958 31.8409 119.843 31.9533Z" fill="white"/>
<path d="M70.716 86.9351C70.9849 86.6718 70.9486 86.2092 70.6349 85.9019C70.3212 85.5946 69.849 85.5591 69.5801 85.8224C69.3113 86.0858 69.3476 86.5484 69.6613 86.8557C69.9749 87.1629 70.4472 87.1985 70.716 86.9351Z" fill="white"/>
<path d="M81.8632 100.518C81.519 101.193 82.2075 101.867 82.8959 101.53C83.0107 101.417 83.1254 101.305 83.2402 101.193C83.5844 100.518 82.8959 99.8438 82.2075 100.181C82.0927 100.293 81.978 100.406 81.8632 100.518Z" fill="white"/>
<path d="M99.9925 118.615C99.6483 119.29 100.337 119.964 101.025 119.627C101.14 119.515 101.255 119.402 101.369 119.29C101.714 118.615 101.025 117.941 100.337 118.278C100.107 118.391 99.9925 118.503 99.9925 118.615Z" fill="white"/>
<path d="M115.598 72.755C115.253 73.4294 115.942 74.1038 116.63 73.7666C116.745 73.6542 116.86 73.5418 116.975 73.4294C117.319 72.755 116.63 72.0806 115.942 72.4178C115.827 72.4178 115.712 72.5302 115.598 72.755Z" fill="white"/>
<path d="M71.8806 13.1823C71.5364 13.8567 72.2248 14.5311 72.9133 14.1939C73.028 14.0815 73.1427 13.9691 73.2575 13.8567C73.6017 13.1823 72.9133 12.5079 72.2248 12.8451C72.1101 12.9575 71.9953 13.0699 71.8806 13.1823Z" fill="white"/>
<path d="M3.49326 174.479C3.14903 175.153 3.83749 175.827 4.52595 175.49C4.6407 175.378 4.75544 175.265 4.87019 175.153C5.21442 174.479 4.52596 173.804 3.8375 174.141C3.60801 174.254 3.49326 174.366 3.49326 174.479Z" fill="white"/>
<path d="M50.4233 197.184C50.0791 197.858 50.7675 198.533 51.456 198.195C51.5707 198.083 51.6855 197.971 51.8002 197.858C52.1444 197.184 51.456 196.509 50.7675 196.847C50.5381 196.847 50.4233 196.959 50.4233 197.184Z" fill="white"/>
<path d="M1.65742 282.61C1.31319 283.284 2.00166 283.958 2.69011 283.621C2.80486 283.509 2.9196 283.396 3.03434 283.284C3.37857 282.61 2.69011 281.935 2.00165 282.272C1.77216 282.272 1.65742 282.385 1.65742 282.61Z" fill="white"/>
<path d="M56.1606 231.017C55.8164 231.691 56.5048 232.366 57.1933 232.028C57.308 231.916 57.4228 231.804 57.5375 231.691C57.8817 231.017 57.1933 230.342 56.5048 230.68C56.3901 230.792 56.2753 230.904 56.1606 231.017Z" fill="white"/>
<path d="M23.2048 229.218C23.4736 228.954 23.4373 228.492 23.1236 228.185C22.81 227.877 22.3378 227.842 22.0689 228.105C21.8 228.369 21.8364 228.831 22.15 229.138C22.4637 229.446 22.9359 229.481 23.2048 229.218Z" fill="white"/>
<path d="M265.911 151.211C265.567 151.885 266.256 152.56 266.944 152.223C267.059 152.11 267.174 151.998 267.288 151.885C267.633 151.211 266.944 150.537 266.256 150.874C266.141 150.874 266.026 150.986 265.911 151.211Z" fill="white"/>
<path d="M192.705 184.595C192.361 185.269 193.049 185.944 193.738 185.606C193.852 185.494 193.967 185.382 194.082 185.269C194.426 184.595 193.738 183.92 193.049 184.258C192.935 184.37 192.82 184.482 192.705 184.595Z" fill="white"/>
<path d="M318.349 176.052C318.005 176.727 318.693 177.401 319.382 177.064C319.497 176.952 319.611 176.839 319.726 176.727C320.07 176.052 319.382 175.378 318.693 175.715C318.579 175.828 318.464 175.94 318.349 176.052Z" fill="white"/>
<path d="M229.423 180.886C229.079 181.56 229.767 182.235 230.456 181.897C230.57 181.785 230.685 181.673 230.8 181.56C231.144 180.886 230.456 180.211 229.767 180.549C229.652 180.661 229.538 180.773 229.423 180.886Z" fill="white"/>
<path d="M352.198 457.281C351.854 457.955 352.543 458.63 353.231 458.293C353.346 458.18 353.46 458.068 353.575 457.955C353.919 457.281 353.231 456.606 352.543 456.944C352.428 457.056 352.313 457.169 352.198 457.281Z" fill="white"/>
<path d="M323.627 502.467C323.283 503.141 323.971 503.816 324.66 503.479C324.774 503.366 324.889 503.254 325.004 503.141C325.348 502.467 324.66 501.793 323.971 502.13C323.742 502.242 323.627 502.355 323.627 502.467Z" fill="white"/>
<path d="M379.852 408.836C379.507 409.51 380.196 410.184 380.884 409.847C380.999 409.735 381.114 409.622 381.228 409.51C381.573 408.836 380.884 408.161 380.196 408.498C380.081 408.498 379.966 408.723 379.852 408.836Z" fill="white"/>
<path d="M329.938 410.41C329.594 411.085 330.282 411.759 330.971 411.422C331.086 411.309 331.2 411.197 331.315 411.085C331.659 410.41 330.971 409.736 330.282 410.073C330.168 410.073 330.053 410.185 329.938 410.41Z" fill="white"/>
<path d="M265.108 357.694C264.764 358.368 265.452 359.042 266.141 358.705C266.255 358.593 266.37 358.48 266.485 358.368C266.829 357.694 266.141 357.019 265.452 357.356C265.223 357.356 265.108 357.469 265.108 357.694Z" fill="white"/>
<path d="M220.703 335.55C220.358 336.224 221.047 336.899 221.735 336.562C221.85 336.449 221.965 336.337 222.08 336.224C222.424 335.55 221.735 334.876 221.047 335.213C220.817 335.325 220.703 335.438 220.703 335.55Z" fill="white"/>
<path d="M203.147 292.838C202.803 293.512 203.491 294.186 204.179 293.849C204.294 293.737 204.409 293.624 204.524 293.512C204.868 292.838 204.179 292.163 203.491 292.5C203.376 292.5 203.261 292.613 203.147 292.838Z" fill="white"/>
<path d="M201.655 259.567C201.311 260.241 201.999 260.916 202.688 260.579C202.803 260.466 202.917 260.354 203.032 260.241C203.376 259.567 202.688 258.893 201.999 259.23C201.885 259.23 201.77 259.342 201.655 259.567Z" fill="white"/>
<path d="M179.739 282.946C179.395 283.62 180.084 284.295 180.772 283.958C180.887 283.845 181.002 283.733 181.116 283.62C181.461 282.946 180.772 282.272 180.084 282.609C179.969 282.721 179.854 282.834 179.739 282.946Z" fill="white"/>
<path d="M265.223 269.234C264.879 269.908 265.567 270.582 266.256 270.245C266.37 270.133 266.485 270.02 266.6 269.908C266.944 269.234 266.256 268.559 265.567 268.896C265.452 268.896 265.223 269.121 265.223 269.234Z" fill="white"/>
<path d="M351.051 259.004C350.707 259.678 351.395 260.353 352.084 260.016C352.198 259.903 352.313 259.791 352.428 259.678C352.772 259.004 352.084 258.33 351.395 258.667C351.281 258.779 351.166 258.892 351.051 259.004Z" fill="white"/>
<path d="M370.787 246.64C370.443 247.315 371.131 247.989 371.82 247.652C371.934 247.539 372.049 247.427 372.164 247.315C372.508 246.64 371.82 245.966 371.131 246.303C371.016 246.415 370.902 246.528 370.787 246.64Z" fill="white"/>
<path d="M360.001 249.788C359.657 250.462 360.345 251.137 361.033 250.799C361.148 250.687 361.263 250.575 361.378 250.462C361.722 249.788 361.033 249.113 360.345 249.451C360.23 249.563 360.115 249.675 360.001 249.788Z" fill="white"/>
<path d="M330.971 303.741C330.627 304.415 331.315 305.09 332.004 304.752C332.118 304.64 332.233 304.528 332.348 304.415C332.692 303.741 332.004 303.066 331.315 303.404C331.2 303.404 331.086 303.516 330.971 303.741Z" fill="white"/>
<path d="M244.225 275.416C243.881 276.09 244.569 276.764 245.258 276.427C245.372 276.315 245.487 276.202 245.602 276.09C245.946 275.416 245.258 274.741 244.569 275.078C244.454 275.191 244.34 275.303 244.225 275.416Z" fill="white"/>
<path d="M165.281 238.21C164.937 238.885 165.626 239.559 166.314 239.222C166.429 239.109 166.544 238.997 166.658 238.885C167.003 238.21 166.314 237.536 165.626 237.873C165.396 237.985 165.281 238.098 165.281 238.21Z" fill="white"/>
<path d="M106.992 262.377C106.648 263.051 107.336 263.726 108.024 263.389C108.139 263.276 108.254 263.164 108.369 263.051C108.713 262.377 108.024 261.703 107.336 262.04C107.221 262.152 107.107 262.265 106.992 262.377Z" fill="white"/>
<path d="M105.156 254.734C104.812 255.408 105.5 256.083 106.189 255.746C106.304 255.633 106.418 255.521 106.533 255.408C106.877 254.734 106.189 254.06 105.5 254.397C105.386 254.397 105.271 254.509 105.156 254.734Z" fill="white"/>
<path d="M146.234 171.219C145.89 171.894 146.578 172.568 147.267 172.231C147.381 172.119 147.496 172.006 147.611 171.894C147.955 171.219 147.267 170.545 146.578 170.882C146.349 170.995 146.234 171.107 146.234 171.219Z" fill="white"/>
<path d="M126.957 148.964C126.613 149.638 127.301 150.312 127.99 149.975C128.105 149.863 128.219 149.75 128.334 149.638C128.678 148.964 127.99 148.289 127.301 148.626C127.187 148.626 127.072 148.739 126.957 148.964Z" fill="white"/>
<path d="M13.1317 232.815C12.7875 233.489 13.4759 234.164 14.1644 233.827C14.2791 233.714 14.3939 233.602 14.5086 233.49C14.8529 232.815 14.1644 232.141 13.476 232.478C13.2465 232.59 13.1317 232.703 13.1317 232.815Z" fill="white"/>
<path d="M60.8649 315.318C60.5207 315.992 61.2092 316.666 61.8976 316.329C62.0124 316.217 62.1271 316.104 62.2419 315.992C62.5861 315.318 61.8976 314.643 61.2092 314.98C61.0944 315.093 60.9797 315.205 60.8649 315.318Z" fill="white"/>
<path d="M140.267 359.267C139.923 359.942 140.612 360.616 141.3 360.279C141.415 360.166 141.53 360.054 141.644 359.942C141.989 359.267 141.3 358.593 140.612 358.93C140.497 359.042 140.267 359.155 140.267 359.267Z" fill="white"/>
<path d="M125.351 314.194C125.006 314.869 125.695 315.543 126.383 315.206C126.498 315.094 126.613 314.981 126.728 314.869C127.072 314.194 126.383 313.52 125.695 313.857C125.465 313.97 125.351 314.082 125.351 314.194Z" fill="white"/>
<path d="M75.7815 338.697C75.4373 339.372 76.1257 340.046 76.8142 339.709C76.9289 339.597 77.0437 339.484 77.1584 339.372C77.5027 338.697 76.8142 338.023 76.1257 338.36C76.011 338.36 75.8962 338.473 75.7815 338.697Z" fill="white"/>
<path d="M74.4046 382.647C74.0604 383.321 74.7489 383.995 75.4373 383.658C75.5521 383.546 75.6668 383.433 75.7816 383.321C76.1258 382.647 75.4373 381.972 74.7489 382.309C74.6341 382.422 74.4046 382.534 74.4046 382.647Z" fill="white"/>
<path d="M98.1566 402.429C97.8123 403.104 98.5008 403.778 99.1892 403.441C99.304 403.329 99.4187 403.216 99.5335 403.104C99.8777 402.429 99.1892 401.755 98.5008 402.092C98.2713 402.205 98.1566 402.317 98.1566 402.429Z" fill="white"/>
<path d="M109.172 431.654C108.828 432.328 109.516 433.003 110.205 432.666C110.319 432.553 110.434 432.441 110.549 432.328C110.893 431.654 110.205 430.98 109.516 431.317C109.401 431.429 109.287 431.542 109.172 431.654Z" fill="white"/>
<path d="M65.34 451.549C64.9958 452.223 65.6843 452.898 66.3727 452.561C66.4875 452.448 66.6022 452.336 66.717 452.223C67.0612 451.549 66.3727 450.875 65.6843 451.212C65.4548 451.324 65.34 451.437 65.34 451.549Z" fill="white"/>
<path d="M23.2292 361.74C22.885 362.414 23.5734 363.089 24.2619 362.752C24.3766 362.639 24.4913 362.527 24.6061 362.414C24.9503 361.74 24.2619 361.065 23.5734 361.403C23.3439 361.515 23.2292 361.628 23.2292 361.74Z" fill="white"/>
<path d="M6.01783 366.011C5.6736 366.686 6.36207 367.36 7.05054 367.023C7.16528 366.911 7.28001 366.798 7.39475 366.686C7.73899 366.011 7.05053 365.337 6.36207 365.674C6.13258 365.787 6.01783 365.899 6.01783 366.011Z" fill="white"/>
<path d="M95.0584 440.421C94.7142 441.095 95.4027 441.769 96.0911 441.432C96.2059 441.32 96.3206 441.207 96.4353 441.095C96.7796 440.421 96.0911 439.746 95.4027 440.083C95.2879 440.083 95.1732 440.308 95.0584 440.421Z" fill="white"/>
<path d="M77.3881 448.738C77.0439 449.413 77.7323 450.087 78.4208 449.75C78.5355 449.638 78.6503 449.525 78.7651 449.413C79.1093 448.738 78.4208 448.064 77.7324 448.401C77.6176 448.401 77.5028 448.626 77.3881 448.738Z" fill="white"/>
<path d="M0.969003 394.674C0.624771 395.348 1.31323 396.023 2.00169 395.686C2.11644 395.573 2.23118 395.461 2.34593 395.348C2.69016 394.674 2.0017 394 1.31324 394.337C1.19849 394.449 1.08375 394.562 0.969003 394.674Z" fill="white"/>
<path d="M7.85334 526.184C7.5091 526.858 8.1976 527.533 8.88607 527.195C9.00082 527.083 9.11555 526.971 9.23029 526.858C9.57453 526.184 8.88607 525.509 8.1976 525.847C8.08285 525.959 7.96808 526.071 7.85334 526.184Z" fill="white"/>
<path d="M23.4586 539.672C23.1143 540.346 23.8028 541.021 24.4912 540.684C24.606 540.571 24.7207 540.459 24.8355 540.346C25.1797 539.672 24.4913 538.998 23.8028 539.335C23.5733 539.447 23.4586 539.56 23.4586 539.672Z" fill="white"/>
<path d="M103.205 535.962C102.861 536.636 103.55 537.311 104.238 536.974C104.353 536.861 104.468 536.749 104.582 536.636C104.927 535.962 104.238 535.288 103.55 535.625C103.32 535.737 103.205 535.85 103.205 535.962Z" fill="white"/>
<path d="M181.805 537.536C181.46 538.21 182.149 538.885 182.837 538.547C182.952 538.435 183.067 538.323 183.182 538.21C183.526 537.536 182.837 536.861 182.149 537.199C182.034 537.311 181.805 537.423 181.805 537.536Z" fill="white"/>
<path d="M238.832 548.214C238.488 548.888 239.176 549.563 239.865 549.226C239.979 549.113 240.094 549.001 240.209 548.888C240.553 548.214 239.865 547.54 239.176 547.877C238.947 547.989 238.832 548.102 238.832 548.214Z" fill="white"/>
<path d="M282.664 553.722C282.32 554.396 283.008 555.071 283.696 554.733C283.811 554.621 283.926 554.509 284.041 554.396C284.385 553.722 283.696 553.047 283.008 553.385C282.779 553.497 282.664 553.609 282.664 553.722Z" fill="white"/>
<path d="M337.282 556.42C336.938 557.094 337.626 557.768 338.314 557.431C338.429 557.319 338.544 557.206 338.659 557.094C339.003 556.42 338.314 555.745 337.626 556.082C337.396 556.195 337.282 556.307 337.282 556.42Z" fill="white"/>
<path d="M344.396 465.149C344.052 465.823 344.74 466.498 345.429 466.161C345.543 466.048 345.658 465.936 345.773 465.823C346.117 465.149 345.429 464.475 344.74 464.812C344.511 464.924 344.396 465.037 344.396 465.149Z" fill="white"/>
<path d="M274.402 484.819C274.058 485.494 274.747 486.168 275.435 485.831C275.55 485.719 275.665 485.606 275.779 485.494C276.124 484.819 275.435 484.145 274.747 484.482C274.517 484.595 274.402 484.707 274.402 484.819Z" fill="white"/>
<path d="M235.275 449.862C234.931 450.537 235.619 451.211 236.308 450.874C236.422 450.762 236.537 450.649 236.652 450.537C236.996 449.862 236.308 449.188 235.619 449.525C235.504 449.638 235.39 449.75 235.275 449.862Z" fill="white"/>
<path d="M358.968 516.404C358.624 517.079 359.312 517.753 360.001 517.416C360.116 517.304 360.23 517.191 360.345 517.079C360.689 516.404 360.001 515.73 359.312 516.067C359.198 516.067 359.083 516.292 358.968 516.404Z" fill="white"/>
<path d="M387.425 448.401C387.08 449.075 387.769 449.75 388.457 449.413C388.572 449.3 388.687 449.188 388.802 449.075C389.146 448.401 388.457 447.727 387.769 448.064C387.654 448.176 387.539 448.289 387.425 448.401Z" fill="white"/>
<path d="M260.748 372.305C260.404 372.98 261.092 373.654 261.781 373.317C261.895 373.205 262.01 373.092 262.125 372.98C262.469 372.305 261.781 371.631 261.092 371.968C260.977 372.081 260.863 372.193 260.748 372.305Z" fill="white"/>
<path d="M215.769 434.688C215.424 435.363 216.113 436.037 216.801 435.7C216.916 435.587 217.031 435.475 217.145 435.363C217.49 434.688 216.801 434.014 216.113 434.351C215.998 434.351 215.883 434.576 215.769 434.688Z" fill="white"/>
<path d="M333.381 347.915C333.036 348.589 333.725 349.263 334.413 348.926C334.528 348.814 334.643 348.701 334.758 348.589C335.102 347.915 334.413 347.24 333.725 347.577C333.495 347.577 333.381 347.69 333.381 347.915Z" fill="white"/>
<path d="M349.33 382.872C348.986 383.546 349.674 384.221 350.362 383.883C350.477 383.771 350.592 383.659 350.707 383.546C351.051 382.872 350.363 382.197 349.674 382.535C349.445 382.535 349.33 382.647 349.33 382.872Z" fill="white"/>
<path d="M387.31 364.662C386.966 365.336 387.654 366.011 388.342 365.673C388.457 365.561 388.572 365.449 388.687 365.336C389.031 364.662 388.342 363.987 387.654 364.325C387.539 364.437 387.425 364.549 387.31 364.662Z" fill="white"/>
<path d="M314.448 317.341C314.104 318.016 314.792 318.69 315.481 318.353C315.595 318.241 315.71 318.128 315.825 318.016C316.169 317.341 315.481 316.667 314.792 317.004C314.677 317.117 314.563 317.229 314.448 317.341Z" fill="white"/>
<path d="M253.06 267.322C252.716 267.997 253.404 268.671 254.093 268.334C254.207 268.222 254.322 268.109 254.437 267.997C254.781 267.322 254.093 266.648 253.404 266.985C253.29 267.098 253.175 267.21 253.06 267.322Z" fill="white"/>
<path d="M234.127 203.703C233.783 204.377 234.472 205.052 235.16 204.714C235.275 204.602 235.39 204.49 235.504 204.377C235.849 203.703 235.16 203.028 234.472 203.366C234.357 203.366 234.242 203.59 234.127 203.703Z" fill="white"/>
<path d="M253.06 216.18C252.716 216.854 253.404 217.529 254.093 217.191C254.207 217.079 254.322 216.967 254.437 216.854C254.781 216.18 254.093 215.505 253.404 215.843C253.175 215.955 253.06 216.067 253.06 216.18Z" fill="white"/>
<path d="M294.597 234.951C294.253 235.625 294.941 236.3 295.63 235.962C295.745 235.85 295.859 235.738 295.974 235.625C296.318 234.951 295.63 234.276 294.941 234.614C294.827 234.726 294.712 234.838 294.597 234.951Z" fill="white"/>
<path d="M299.072 252.823C298.728 253.497 299.416 254.172 300.105 253.835C300.22 253.722 300.334 253.61 300.449 253.497C300.793 252.823 300.105 252.148 299.416 252.486C299.302 252.598 299.187 252.71 299.072 252.823Z" fill="white"/>
<path d="M306.301 268.334C305.957 269.008 306.645 269.682 307.334 269.345C307.449 269.233 307.563 269.12 307.678 269.008C308.022 268.334 307.334 267.659 306.645 267.996C306.416 268.109 306.301 268.221 306.301 268.334Z" fill="white"/>
<path d="M305.842 220.001C305.498 220.676 306.186 221.35 306.875 221.013C306.989 220.9 307.104 220.788 307.219 220.676C307.563 220.001 306.874 219.327 306.186 219.664C306.071 219.776 305.957 219.889 305.842 220.001Z" fill="white"/>
<path d="M296.662 196.284C296.318 196.959 297.007 197.633 297.695 197.296C297.81 197.184 297.925 197.071 298.039 196.959C298.384 196.284 297.695 195.61 297.007 195.947C296.777 195.947 296.662 196.06 296.662 196.284Z" fill="white"/>
<path d="M278.648 182.797C278.304 183.471 278.992 184.145 279.681 183.808C279.795 183.696 279.91 183.583 280.025 183.471C280.369 182.797 279.681 182.122 278.992 182.459C278.877 182.459 278.763 182.572 278.648 182.797Z" fill="white"/>
<path d="M264.993 161.552C264.649 162.227 265.338 162.901 266.026 162.564C266.141 162.452 266.256 162.339 266.37 162.227C266.715 161.552 266.026 160.878 265.338 161.215C265.223 161.215 265.108 161.328 264.993 161.552Z" fill="white"/>
<path d="M330.282 139.634C329.938 140.309 330.627 140.983 331.315 140.646C331.43 140.534 331.545 140.421 331.659 140.309C332.004 139.634 331.315 138.96 330.627 139.297C330.512 139.41 330.397 139.522 330.282 139.634Z" fill="white"/>
<path d="M239.176 136.6C238.832 137.274 239.52 137.949 240.209 137.611C240.324 137.499 240.438 137.387 240.553 137.274C240.897 136.6 240.209 135.925 239.52 136.263C239.406 136.375 239.291 136.487 239.176 136.6Z" fill="white"/>
<path d="M225.637 132.441C225.292 133.115 225.981 133.789 226.669 133.452C226.784 133.34 226.899 133.227 227.014 133.115C227.358 132.441 226.669 131.766 225.981 132.103C225.751 132.216 225.637 132.328 225.637 132.441Z" fill="white"/>
<path d="M157.364 151.774C157.02 152.448 157.708 153.123 158.397 152.786C158.512 152.673 158.626 152.561 158.741 152.448C159.085 151.774 158.397 151.1 157.708 151.437C157.594 151.437 157.479 151.549 157.364 151.774Z" fill="white"/>
<path d="M122.138 206.963C121.794 207.637 122.482 208.312 123.171 207.975C123.285 207.862 123.4 207.75 123.515 207.637C123.859 206.963 123.171 206.289 122.482 206.626C122.367 206.626 122.253 206.738 122.138 206.963Z" fill="white"/>
<path d="M111.811 197.858C111.467 198.532 112.155 199.207 112.844 198.87C112.958 198.757 113.073 198.645 113.188 198.532C113.532 197.858 112.844 197.184 112.155 197.521C112.041 197.633 111.811 197.746 111.811 197.858Z" fill="white"/>
<path d="M54.8984 154.584C54.5541 155.258 55.2426 155.932 55.9311 155.595C56.0458 155.483 56.1606 155.37 56.2753 155.258C56.6195 154.584 55.9311 153.909 55.2426 154.246C55.1279 154.359 55.0131 154.471 54.8984 154.584Z" fill="white"/>
<path d="M14.6237 451.998C14.2794 452.673 14.9679 453.347 15.6563 453.01C15.7711 452.897 15.8858 452.785 16.0006 452.673C16.3448 451.998 15.6563 451.324 14.9679 451.661C14.8531 451.773 14.7384 451.886 14.6237 451.998Z" fill="white"/>
<path d="M55.5868 418.277C55.2426 418.952 55.931 419.626 56.6195 419.289C56.7342 419.177 56.849 419.064 56.9637 418.952C57.308 418.277 56.6195 417.603 55.931 417.94C55.8163 418.053 55.7015 418.165 55.5868 418.277Z" fill="white"/>
<path d="M72.1097 410.185C71.7655 410.859 72.454 411.534 73.1424 411.196C73.2572 411.084 73.3719 410.972 73.4866 410.859C73.8309 410.185 73.1424 409.51 72.454 409.848C72.2245 409.96 72.1097 410.072 72.1097 410.185Z" fill="white"/>
<path d="M68.0481 402.639C68.317 402.376 68.2807 401.913 67.967 401.606C67.6534 401.299 67.1811 401.263 66.9123 401.527C66.6434 401.79 66.6798 402.253 66.9934 402.56C67.3071 402.867 67.7793 402.903 68.0481 402.639Z" fill="white"/>
<path d="M146.578 419.402C146.234 420.077 146.922 420.751 147.611 420.414C147.726 420.302 147.84 420.189 147.955 420.077C148.299 419.402 147.611 418.728 146.922 419.065C146.808 419.065 146.578 419.178 146.578 419.402Z" fill="white"/>
<path d="M153.119 457.506C152.774 458.18 153.463 458.855 154.151 458.518C154.266 458.405 154.381 458.293 154.496 458.18C154.84 457.506 154.151 456.832 153.463 457.169C153.233 457.281 153.119 457.394 153.119 457.506Z" fill="white"/>
<path d="M154.381 482.796C154.036 483.47 154.725 484.145 155.413 483.808C155.528 483.695 155.643 483.583 155.758 483.47C156.102 482.796 155.413 482.122 154.725 482.459C154.61 482.459 154.381 482.571 154.381 482.796Z" fill="white"/>
<path d="M180.428 469.983C180.083 470.657 180.772 471.332 181.46 470.995C181.575 470.882 181.69 470.77 181.805 470.657C182.149 469.983 181.46 469.309 180.772 469.646C180.657 469.758 180.542 469.871 180.428 469.983Z" fill="white"/>
<path d="M217.719 370.62C217.375 371.294 218.063 371.969 218.752 371.631C218.867 371.519 218.981 371.407 219.096 371.294C219.44 370.62 218.752 369.945 218.063 370.283C217.834 370.395 217.719 370.507 217.719 370.62Z" fill="white"/>
<path d="M222.194 352.523C221.85 353.197 222.538 353.871 223.227 353.534C223.341 353.422 223.456 353.309 223.571 353.197C223.915 352.523 223.227 351.848 222.538 352.185C222.309 352.185 222.194 352.41 222.194 352.523Z" fill="white"/>
<g opacity="0.28">
<g opacity="0.28">
<path opacity="0.28" d="M23.9176 11.7208C24.2618 12.3953 23.5734 13.0697 22.8849 12.7325C22.7702 12.6201 22.6554 12.5077 22.5407 12.3953C22.1965 11.7208 22.8849 11.0464 23.5734 11.3836C23.6881 11.496 23.8029 11.6084 23.9176 11.7208Z" fill="white"/>
</g>
<g opacity="0.28">
<path opacity="0.28" d="M103.32 15.2057C103.664 15.8801 102.976 16.5545 102.287 16.2173C102.173 16.1049 102.058 15.9925 101.943 15.8801C101.599 15.2057 102.287 14.5313 102.976 14.8685C103.205 14.9809 103.32 15.0933 103.32 15.2057Z" fill="white"/>
</g>
<g opacity="0.28">
<path opacity="0.28" d="M117.204 81.5226C117.548 82.197 116.86 82.8714 116.171 82.5342C116.057 82.4218 115.942 82.3094 115.827 82.197C115.483 81.5226 116.171 80.8482 116.86 81.1854C116.974 81.2978 117.089 81.4102 117.204 81.5226Z" fill="white"/>
</g>
<g opacity="0.28">
<path opacity="0.28" d="M47.3254 112.995C47.6696 113.669 46.9811 114.344 46.2927 114.006C46.1779 113.894 46.0632 113.782 45.9484 113.669C45.6042 112.995 46.2927 112.32 46.9811 112.658C47.0959 112.77 47.2106 112.882 47.3254 112.995Z" fill="white"/>
</g>
<g opacity="0.28">
<path opacity="0.28" d="M252.716 59.6046C253.06 60.279 252.371 60.9535 251.683 60.6163C251.568 60.5038 251.453 60.3914 251.339 60.279C250.995 59.6046 251.683 58.9302 252.371 59.2674C252.486 59.2674 252.601 59.3798 252.716 59.6046Z" fill="white"/>
</g>
<g opacity="0.28">
<path opacity="0.28" d="M385.359 50.1627C385.703 50.8372 385.015 51.5116 384.327 51.1744C384.212 51.062 384.097 50.9496 383.982 50.8371C383.638 50.1627 384.327 49.4883 385.015 49.8255C385.245 49.9379 385.359 50.0503 385.359 50.1627Z" fill="white"/>
</g>
<g opacity="0.28">
<path opacity="0.28" d="M388.228 67.1354C388.572 67.8098 387.884 68.4842 387.195 68.147C387.08 68.0346 386.966 67.9222 386.851 67.8098C386.507 67.1354 387.195 66.461 387.884 66.7982C388.113 66.7982 388.228 66.9106 388.228 67.1354Z" fill="white"/>
</g>
<g opacity="0.28">
<path opacity="0.28" d="M294.253 45.442C294.597 46.1164 293.909 46.7909 293.22 46.4537C293.105 46.3412 292.991 46.2288 292.876 46.1164C292.532 45.442 293.22 44.7676 293.909 45.1048C294.023 45.2172 294.253 45.3296 294.253 45.442Z" fill="white"/>
</g>
<g opacity="0.28">
<path opacity="0.28" d="M229.079 31.6159C229.423 32.2903 228.735 32.9647 228.046 32.6275C227.931 32.5151 227.817 32.4027 227.702 32.2903C227.358 31.6159 228.046 30.9415 228.735 31.2787C228.849 31.3911 229.079 31.5035 229.079 31.6159Z" fill="white"/>
</g>
<g opacity="0.28">
<path opacity="0.28" d="M196.377 30.7164C196.721 31.3909 196.033 32.0653 195.344 31.7281C195.23 31.6157 195.115 31.5033 195 31.3909C194.656 30.7164 195.344 30.042 196.033 30.3792C196.262 30.3792 196.377 30.4916 196.377 30.7164Z" fill="white"/>
</g>
<g opacity="0.28">
<path opacity="0.28" d="M144.169 57.0187C144.513 57.6931 143.825 58.3675 143.136 58.0303C143.021 57.9179 142.907 57.8055 142.792 57.6931C142.448 57.0187 143.136 56.3443 143.825 56.6815C143.939 56.6815 144.054 56.7939 144.169 57.0187Z" fill="white"/>
</g>
<g opacity="0.28">
<path opacity="0.28" d="M182.034 103.328C182.378 104.002 181.69 104.677 181.001 104.339C180.887 104.227 180.772 104.115 180.657 104.002C180.313 103.328 181.001 102.653 181.69 102.991C181.805 103.103 181.919 103.215 182.034 103.328Z" fill="white"/>
</g>
<g opacity="0.28">
<path opacity="0.28" d="M176.297 108.948C176.641 109.623 175.953 110.297 175.264 109.96C175.149 109.848 175.035 109.735 174.92 109.623C174.576 108.948 175.264 108.274 175.953 108.611C176.067 108.724 176.182 108.836 176.297 108.948Z" fill="white"/>
</g>
<g opacity="0.28">
<path opacity="0.28" d="M68.3235 104.902C68.6677 105.576 67.9793 106.25 67.2908 105.913C67.1761 105.801 67.0613 105.688 66.9465 105.576C66.6023 104.902 67.2908 104.227 67.9793 104.564C68.2088 104.564 68.3235 104.677 68.3235 104.902Z" fill="white"/>
</g>
<g opacity="0.28">
<path opacity="0.28" d="M42.6207 116.929C42.9649 117.603 42.2765 118.278 41.588 117.94C41.4733 117.828 41.3585 117.716 41.2438 117.603C40.8996 116.929 41.588 116.254 42.2765 116.592C42.5059 116.592 42.6207 116.704 42.6207 116.929Z" fill="white"/>
</g>
<g opacity="0.28">
<path opacity="0.28" d="M96.6649 213.594C97.0092 214.269 96.3207 214.943 95.6322 214.606C95.5174 214.494 95.4027 214.381 95.288 214.269C94.9437 213.594 95.6322 212.92 96.3207 213.257C96.4354 213.37 96.5502 213.482 96.6649 213.594Z" fill="white"/>
</g>
<g opacity="0.28">
<path opacity="0.28" d="M172.625 218.09C172.969 218.765 172.281 219.439 171.592 219.102C171.478 218.99 171.363 218.877 171.248 218.765C170.904 218.09 171.592 217.416 172.281 217.753C172.396 217.866 172.51 217.978 172.625 218.09Z" fill="white"/>
</g>
<g opacity="0.28">
<path opacity="0.28" d="M255.929 222.474C256.273 223.148 255.584 223.823 254.896 223.485C254.781 223.373 254.667 223.261 254.552 223.148C254.208 222.474 254.896 221.799 255.584 222.137C255.699 222.137 255.929 222.249 255.929 222.474Z" fill="white"/>
</g>
<g opacity="0.28">
<path opacity="0.28" d="M338.888 214.606C339.232 215.281 338.544 215.955 337.855 215.618C337.741 215.505 337.626 215.393 337.511 215.281C337.167 214.606 337.855 213.932 338.544 214.269C338.773 214.381 338.888 214.494 338.888 214.606Z" fill="white"/>
</g>
<g opacity="0.28">
<path opacity="0.28" d="M367.459 240.908C367.804 241.582 367.115 242.257 366.427 241.919C366.312 241.807 366.197 241.695 366.082 241.582C365.738 240.908 366.427 240.233 367.115 240.571C367.345 240.571 367.459 240.683 367.459 240.908Z" fill="white"/>
</g>
<g opacity="0.28">
<path opacity="0.28" d="M388.342 311.047C388.687 311.721 387.998 312.396 387.31 312.059C387.195 311.946 387.08 311.834 386.965 311.721C386.621 311.047 387.31 310.373 387.998 310.71C388.113 310.822 388.228 310.935 388.342 311.047Z" fill="white"/>
</g>
<g opacity="0.28">
<path opacity="0.28" d="M153.234 320.376C153.578 321.051 152.889 321.725 152.201 321.388C152.086 321.275 151.971 321.163 151.857 321.051C151.512 320.376 152.201 319.702 152.889 320.039C153.119 320.151 153.234 320.264 153.234 320.376Z" fill="white"/>
</g>
<g opacity="0.28">
<path opacity="0.28" d="M81.0599 322.624C81.4041 323.298 80.7156 323.972 80.0272 323.635C79.9124 323.523 79.7977 323.41 79.6829 323.298C79.3387 322.624 80.0272 321.949 80.7156 322.286C80.8303 322.286 80.9451 322.399 81.0599 322.624Z" fill="white"/>
</g>
<g opacity="0.28">
<path opacity="0.28" d="M46.7515 324.422C47.0958 325.097 46.4073 325.771 45.7188 325.434C45.6041 325.322 45.4893 325.209 45.3746 325.097C45.0303 324.422 45.7188 323.748 46.4073 324.085C46.522 324.198 46.6368 324.31 46.7515 324.422Z" fill="white"/>
</g>
<g opacity="0.28">
<path opacity="0.28" d="M48.7023 302.392C49.0465 303.067 48.3581 303.741 47.6696 303.404C47.5549 303.291 47.4401 303.179 47.3254 303.067C46.9812 302.392 47.6696 301.718 48.3581 302.055C48.4728 302.055 48.5875 302.167 48.7023 302.392Z" fill="white"/>
</g>
<g opacity="0.28">
<path opacity="0.28" d="M89.4362 316.779C89.7804 317.453 89.0919 318.128 88.4035 317.791C88.2887 317.678 88.174 317.566 88.0593 317.453C87.715 316.779 88.4035 316.105 89.092 316.442C89.3214 316.554 89.4362 316.667 89.4362 316.779Z" fill="white"/>
</g>
<g opacity="0.28">
<path opacity="0.28" d="M99.8777 363.651C100.222 364.325 99.5335 365 98.845 364.663C98.7303 364.55 98.6155 364.438 98.5008 364.325C98.1566 363.651 98.8451 362.977 99.5335 363.314C99.763 363.426 99.8777 363.539 99.8777 363.651Z" fill="white"/>
</g>
<g opacity="0.28">
<path opacity="0.28" d="M129.482 389.728C129.826 390.402 129.137 391.077 128.449 390.739C128.334 390.627 128.219 390.515 128.105 390.402C127.761 389.728 128.449 389.053 129.137 389.39C129.252 389.503 129.367 389.615 129.482 389.728Z" fill="white"/>
</g>
<g opacity="0.28">
<path opacity="0.28" d="M193.853 407.15C194.197 407.824 193.508 408.499 192.82 408.162C192.705 408.049 192.59 407.937 192.476 407.824C192.131 407.15 192.82 406.476 193.508 406.813C193.623 406.925 193.738 407.038 193.853 407.15Z" fill="white"/>
</g>
<g opacity="0.28">
<path opacity="0.28" d="M218.293 419.065C218.637 419.739 217.949 420.413 217.26 420.076C217.145 419.964 217.031 419.851 216.916 419.739C216.572 419.065 217.26 418.39 217.949 418.727C218.063 418.84 218.178 418.952 218.293 419.065Z" fill="white"/>
</g>
<g opacity="0.28">
<path opacity="0.28" d="M265.682 379.387C266.026 380.062 265.338 380.736 264.649 380.399C264.534 380.287 264.42 380.174 264.305 380.062C263.961 379.387 264.649 378.713 265.338 379.05C265.452 379.163 265.567 379.275 265.682 379.387Z" fill="white"/>
</g>
<g opacity="0.28">
<path opacity="0.28" d="M255.355 350.837C255.699 351.511 255.011 352.186 254.322 351.849C254.208 351.736 254.093 351.624 253.978 351.511C253.634 350.837 254.322 350.163 255.011 350.5C255.125 350.612 255.24 350.725 255.355 350.837Z" fill="white"/>
</g>
<g opacity="0.28">
<path opacity="0.28" d="M259.715 328.582C260.059 329.256 259.371 329.931 258.682 329.593C258.568 329.481 258.453 329.368 258.338 329.256C257.994 328.582 258.682 327.907 259.371 328.244C259.6 328.357 259.715 328.469 259.715 328.582Z" fill="white"/>
</g>
<g opacity="0.28">
<path opacity="0.28" d="M267.977 292.612C268.321 293.287 267.633 293.961 266.944 293.624C266.829 293.512 266.715 293.399 266.6 293.287C266.256 292.612 266.944 291.938 267.633 292.275C267.747 292.388 267.862 292.5 267.977 292.612Z" fill="white"/>
</g>
<g opacity="0.28">
<path opacity="0.28" d="M135.678 287.667C136.022 288.342 135.333 289.016 134.645 288.679C134.53 288.566 134.415 288.454 134.301 288.342C133.956 287.667 134.645 286.993 135.333 287.33C135.563 287.33 135.678 287.442 135.678 287.667Z" fill="white"/>
</g>
<g opacity="0.28">
<path opacity="0.28" d="M175.723 383.658C176.067 384.333 175.379 385.007 174.691 384.67C174.576 384.558 174.461 384.445 174.346 384.333C174.002 383.658 174.691 382.984 175.379 383.321C175.608 383.321 175.723 383.434 175.723 383.658Z" fill="white"/>
</g>
<g opacity="0.28">
<path opacity="0.28" d="M34.7035 414.569C35.0478 415.243 34.3593 415.917 33.6708 415.58C33.5561 415.468 33.4413 415.355 33.3266 415.243C32.9824 414.568 33.6708 413.894 34.3593 414.231C34.474 414.231 34.5888 414.344 34.7035 414.569Z" fill="white"/>
</g>
<g opacity="0.28">
<path opacity="0.28" d="M27.7041 477.626C28.0483 478.3 27.3599 478.974 26.6714 478.637C26.5567 478.525 26.4419 478.412 26.3272 478.3C25.9829 477.626 26.6714 476.951 27.3599 477.288C27.4746 477.288 27.7041 477.401 27.7041 477.626Z" fill="white"/>
</g>
<g opacity="0.28">
<path opacity="0.28" d="M17.492 503.591C17.8362 504.265 17.1477 504.94 16.4593 504.603C16.3445 504.49 16.2298 504.378 16.1151 504.265C15.7708 503.591 16.4593 502.917 17.1477 503.254C17.3772 503.366 17.492 503.479 17.492 503.591Z" fill="white"/>
</g>
<g opacity="0.28">
<path opacity="0.28" d="M1.54262 318.465C1.88684 319.14 1.19838 319.814 0.509929 319.477C0.395187 319.365 0.280459 319.252 0.165718 319.14C-0.178508 318.465 0.509936 317.791 1.19839 318.128C1.31313 318.241 1.42787 318.353 1.54262 318.465Z" fill="white"/>
</g>
<g opacity="0.28">
<path opacity="0.28" d="M147.955 513.032C148.299 513.707 147.611 514.381 146.923 514.044C146.808 513.932 146.693 513.819 146.578 513.707C146.234 513.032 146.923 512.358 147.611 512.695C147.84 512.808 147.955 512.92 147.955 513.032Z" fill="white"/>
</g>
<g opacity="0.28">
<path opacity="0.28" d="M199.475 465.599C199.819 466.273 199.131 466.948 198.442 466.61C198.328 466.498 198.213 466.386 198.098 466.273C197.754 465.599 198.442 464.924 199.131 465.262C199.36 465.374 199.475 465.486 199.475 465.599Z" fill="white"/>
</g>
<g opacity="0.28">
<path opacity="0.28" d="M107.91 513.145C108.254 513.819 107.566 514.493 106.877 514.156C106.762 514.044 106.648 513.931 106.533 513.819C106.189 513.145 106.877 512.47 107.566 512.807C107.68 512.92 107.795 513.032 107.91 513.145Z" fill="white"/>
</g>
<g opacity="0.28">
<path opacity="0.28" d="M141.759 431.317C142.103 431.991 141.415 432.665 140.726 432.328C140.612 432.216 140.497 432.103 140.382 431.991C140.038 431.317 140.726 430.642 141.415 430.979C141.53 430.979 141.644 431.092 141.759 431.317Z" fill="white"/>
</g>
<g opacity="0.28">
<path opacity="0.28" d="M217.49 491.789C217.834 492.463 217.146 493.138 216.457 492.8C216.342 492.688 216.228 492.576 216.113 492.463C215.769 491.789 216.457 491.114 217.146 491.452C217.26 491.564 217.375 491.676 217.49 491.789Z" fill="white"/>
</g>
<g opacity="0.28">
<path opacity="0.28" d="M125.351 445.591C125.695 446.266 125.006 446.94 124.318 446.603C124.203 446.491 124.089 446.378 123.974 446.266C123.63 445.591 124.318 444.917 125.007 445.254C125.236 445.254 125.351 445.479 125.351 445.591Z" fill="white"/>
</g>
<g opacity="0.28">
<path opacity="0.28" d="M386.965 485.045C387.31 485.719 386.621 486.393 385.933 486.056C385.818 485.944 385.703 485.831 385.589 485.719C385.244 485.045 385.933 484.37 386.621 484.707C386.736 484.707 386.851 484.82 386.965 485.045Z" fill="white"/>
</g>
<g opacity="0.28">
<path opacity="0.28" d="M386.851 562.039C387.195 562.714 386.507 563.388 385.818 563.051C385.704 562.938 385.589 562.826 385.474 562.714C385.13 562.039 385.818 561.365 386.507 561.702C386.622 561.814 386.736 561.927 386.851 562.039Z" fill="white"/>
</g>
<g opacity="0.28">
<path opacity="0.28" d="M295.63 485.494C295.974 486.168 295.286 486.843 294.597 486.505C294.483 486.393 294.368 486.281 294.253 486.168C293.909 485.494 294.597 484.819 295.286 485.157C295.4 485.269 295.515 485.381 295.63 485.494Z" fill="white"/>
</g>
<g opacity="0.28">
<path opacity="0.28" d="M389.605 130.755C389.949 131.429 389.26 132.103 388.572 131.766C388.457 131.654 388.343 131.541 388.228 131.429C387.884 130.755 388.572 130.08 389.261 130.417C389.49 130.53 389.605 130.642 389.605 130.755Z" fill="white"/>
</g>
<g opacity="0.28">
<path opacity="0.28" d="M329.479 148.739C329.823 149.413 329.135 150.088 328.446 149.751C328.332 149.638 328.217 149.526 328.102 149.413C327.758 148.739 328.446 148.064 329.135 148.402C329.25 148.514 329.364 148.627 329.479 148.739Z" fill="white"/>
</g>
<g opacity="0.28">
<path opacity="0.28" d="M366.541 191.564C366.886 192.238 366.197 192.912 365.509 192.575C365.394 192.463 365.279 192.35 365.164 192.238C364.82 191.564 365.509 190.889 366.197 191.226C366.312 191.339 366.427 191.451 366.541 191.564Z" fill="white"/>
</g>
<g opacity="0.28">
<path opacity="0.28" d="M135.563 106.251C135.907 106.926 135.219 107.6 134.53 107.263C134.415 107.15 134.301 107.038 134.186 106.926C133.842 106.251 134.53 105.577 135.219 105.914C135.333 105.914 135.448 106.139 135.563 106.251Z" fill="white"/>
</g>
<g opacity="0.28">
<path opacity="0.28" d="M38.869 191.184C39.1827 190.876 39.219 190.414 38.9502 190.15C38.6813 189.887 38.2091 189.923 37.8954 190.23C37.5817 190.537 37.5454 191 37.8143 191.263C38.0831 191.526 38.5554 191.491 38.869 191.184Z" fill="white"/>
</g>
<g opacity="0.28">
<path opacity="0.28" d="M63.3894 239.56C63.7336 240.234 63.0451 240.909 62.3566 240.571C62.2419 240.459 62.1271 240.347 62.0124 240.234C61.6682 239.56 62.3566 238.885 63.0451 239.223C63.1598 239.335 63.2746 239.447 63.3894 239.56Z" fill="white"/>
</g>
<g opacity="0.28">
<path opacity="0.28" d="M216.113 102.092C216.457 102.766 215.769 103.441 215.08 103.104C214.965 102.991 214.851 102.879 214.736 102.766C214.392 102.092 215.08 101.418 215.769 101.755C215.883 101.867 215.998 101.98 216.113 102.092Z" fill="white"/>
</g>
<g opacity="0.28">
<path opacity="0.28" d="M185.132 187.18C185.476 187.854 184.788 188.529 184.099 188.191C183.985 188.079 183.87 187.967 183.755 187.854C183.411 187.18 184.099 186.505 184.788 186.843C185.017 186.955 185.132 187.067 185.132 187.18Z" fill="white"/>
</g>
<g opacity="0.28">
<path opacity="0.28" d="M55.0132 141.208C55.3574 141.883 54.669 142.557 53.9805 142.22C53.8658 142.107 53.751 141.995 53.6363 141.883C53.2921 141.208 53.9805 140.534 54.669 140.871C54.7837 140.871 54.8985 141.096 55.0132 141.208Z" fill="white"/>
</g>
<g opacity="0.28">
<path opacity="0.28" d="M10.837 160.766C11.1812 161.44 10.4928 162.115 9.80431 161.777C9.68957 161.665 9.57484 161.553 9.46009 161.44C9.11586 160.766 9.80432 160.091 10.4928 160.429C10.7223 160.429 10.837 160.541 10.837 160.766Z" fill="white"/>
</g>
<g opacity="0.28">
<path opacity="0.28" d="M63.7337 29.9303C64.0779 30.6047 63.3895 31.2791 62.701 30.9419C62.5863 30.8295 62.4715 30.7171 62.3568 30.6047C62.0125 29.9303 62.701 29.2559 63.3895 29.5931C63.619 29.5931 63.7337 29.7055 63.7337 29.9303Z" fill="white"/>
</g>
<g opacity="0.28">
<path opacity="0.28" d="M55.2427 48.3639C55.5869 49.0383 54.8984 49.7127 54.21 49.3755C54.0952 49.2631 53.9804 49.1507 53.8657 49.0383C53.5215 48.3639 54.2099 47.6895 54.8984 48.0267C55.0131 48.0267 55.1279 48.1391 55.2427 48.3639Z" fill="white"/>
</g>
<g opacity="0.28">
<path opacity="0.28" d="M78.7651 104.228C79.1093 104.902 78.4208 105.576 77.7324 105.239C77.6176 105.127 77.5028 105.014 77.3881 104.902C77.0439 104.228 77.7323 103.553 78.4208 103.89C78.6503 104.003 78.7651 104.115 78.7651 104.228Z" fill="white"/>
</g>
<g opacity="0.28">
<path opacity="0.28" d="M55.128 81.9723C55.4722 82.6467 54.7837 83.3211 54.0953 82.9839C53.9805 82.8715 53.8658 82.7591 53.751 82.6467C53.4068 81.9723 54.0953 81.2979 54.7838 81.6351C55.0132 81.6351 55.128 81.7475 55.128 81.9723Z" fill="white"/>
</g>
<g opacity="0.28">
<path opacity="0.28" d="M80.0271 60.0539C80.3713 60.7283 79.6828 61.4027 78.9944 61.0655C78.8796 60.9531 78.7649 60.8407 78.6502 60.7283C78.3059 60.0539 78.9944 59.3794 79.6829 59.7166C79.7976 59.829 79.9124 59.9415 80.0271 60.0539Z" fill="white"/>
</g>
<g opacity="0.28">
<path opacity="0.28" d="M200.852 33.527C201.196 34.2014 200.508 34.8758 199.819 34.5386C199.704 34.4262 199.59 34.3138 199.475 34.2014C199.131 33.527 199.819 32.8526 200.508 33.1898C200.737 33.3022 200.852 33.4146 200.852 33.527Z" fill="white"/>
</g>
<g opacity="0.28">
<path opacity="0.28" d="M139.579 66.5734C139.923 67.2478 139.235 67.9222 138.546 67.585C138.432 67.4726 138.317 67.3602 138.202 67.2478C137.858 66.5734 138.546 65.899 139.235 66.2362C139.35 66.3486 139.464 66.461 139.579 66.5734Z" fill="white"/>
</g>
<g opacity="0.28">
<path opacity="0.28" d="M257.65 86.5807C257.994 87.2551 257.306 87.9295 256.617 87.5923C256.502 87.4799 256.388 87.3675 256.273 87.2551C255.929 86.5807 256.617 85.9063 257.306 86.2435C257.42 86.3559 257.535 86.4683 257.65 86.5807Z" fill="white"/>
</g>
<g opacity="0.28">
<path opacity="0.28" d="M251.683 129.967C252.028 130.642 251.339 131.316 250.651 130.979C250.536 130.867 250.421 130.754 250.306 130.642C249.962 129.967 250.651 129.293 251.339 129.63C251.454 129.743 251.569 129.855 251.683 129.967Z" fill="white"/>
</g>
<g opacity="0.28">
<path opacity="0.28" d="M355.755 114.681C356.099 115.355 355.411 116.03 354.723 115.692C354.608 115.58 354.493 115.468 354.378 115.355C354.034 114.681 354.723 114.006 355.411 114.344C355.641 114.456 355.755 114.568 355.755 114.681Z" fill="white"/>
</g>
<g opacity="0.28">
<path opacity="0.28" d="M291.384 31.9533C291.729 32.6277 291.04 33.3021 290.352 32.9649C290.237 32.8525 290.122 32.7401 290.008 32.6277C289.663 31.9533 290.352 31.2789 291.04 31.6161C291.155 31.7285 291.27 31.8409 291.384 31.9533Z" fill="white"/>
</g>
<g opacity="0.28">
<path opacity="0.28" d="M341.757 86.0187C342.101 86.6931 341.412 87.3675 340.724 87.0303C340.609 86.9179 340.494 86.8055 340.38 86.6931C340.035 86.0187 340.724 85.3443 341.412 85.6815C341.527 85.7939 341.642 85.9063 341.757 86.0187Z" fill="white"/>
</g>
<g opacity="0.28">
<path opacity="0.28" d="M329.25 100.518C329.594 101.193 328.905 101.867 328.217 101.53C328.102 101.417 327.988 101.305 327.873 101.193C327.529 100.518 328.217 99.8438 328.905 100.181C329.135 100.293 329.25 100.406 329.25 100.518Z" fill="white"/>
</g>
<g opacity="0.28">
<path opacity="0.28" d="M311.235 118.615C311.579 119.29 310.891 119.964 310.202 119.627C310.087 119.515 309.973 119.402 309.858 119.29C309.514 118.615 310.202 117.941 310.891 118.278C311.12 118.391 311.235 118.503 311.235 118.615Z" fill="white"/>
</g>
<g opacity="0.28">
<path opacity="0.28" d="M295.515 72.755C295.859 73.4294 295.171 74.1038 294.482 73.7666C294.368 73.6542 294.253 73.5418 294.138 73.4294C293.794 72.755 294.482 72.0806 295.171 72.4178C295.4 72.4178 295.515 72.5302 295.515 72.755Z" fill="white"/>
</g>
<g opacity="0.28">
<path opacity="0.28" d="M339.347 13.1823C339.691 13.8567 339.003 14.5311 338.314 14.1939C338.2 14.0815 338.085 13.9691 337.97 13.8567C337.626 13.1823 338.314 12.5079 339.003 12.8451C339.118 12.9575 339.232 13.0699 339.347 13.1823Z" fill="white"/>
</g>
<g opacity="0.28">
<path opacity="0.28" d="M360.804 197.184C361.149 197.858 360.46 198.533 359.772 198.195C359.657 198.083 359.542 197.971 359.427 197.858C359.083 197.184 359.772 196.509 360.46 196.847C360.69 196.847 360.804 196.959 360.804 197.184Z" fill="white"/>
</g>
<g opacity="0.28">
<path opacity="0.28" d="M355.067 231.017C355.411 231.691 354.723 232.366 354.034 232.028C353.92 231.916 353.805 231.804 353.69 231.691C353.346 231.017 354.034 230.342 354.723 230.68C354.838 230.792 354.952 230.904 355.067 231.017Z" fill="white"/>
</g>
<g opacity="0.28">
<path opacity="0.28" d="M389.26 228.319C389.605 228.993 388.916 229.668 388.228 229.331C388.113 229.218 387.998 229.106 387.884 228.993C387.539 228.319 388.228 227.645 388.916 227.982C389.031 228.094 389.146 228.207 389.26 228.319Z" fill="white"/>
</g>
<g opacity="0.28">
<path opacity="0.28" d="M145.316 151.211C145.66 151.885 144.972 152.56 144.283 152.223C144.169 152.11 144.054 151.998 143.939 151.885C143.595 151.211 144.283 150.537 144.972 150.874C145.087 150.874 145.201 150.986 145.316 151.211Z" fill="white"/>
</g>
<g opacity="0.28">
<path opacity="0.28" d="M218.522 184.595C218.867 185.269 218.178 185.944 217.49 185.606C217.375 185.494 217.26 185.382 217.145 185.269C216.801 184.595 217.49 183.92 218.178 184.258C218.293 184.37 218.408 184.482 218.522 184.595Z" fill="white"/>
</g>
<g opacity="0.28">
<path opacity="0.28" d="M92.8784 176.052C93.2226 176.727 92.5341 177.401 91.8457 177.064C91.7309 176.952 91.6162 176.839 91.5014 176.727C91.1572 176.052 91.8457 175.378 92.5341 175.715C92.6489 175.828 92.7636 175.94 92.8784 176.052Z" fill="white"/>
</g>
<g opacity="0.28">
<path opacity="0.28" d="M181.805 180.886C182.149 181.56 181.46 182.235 180.772 181.897C180.657 181.785 180.542 181.673 180.428 181.56C180.084 180.886 180.772 180.211 181.46 180.549C181.575 180.661 181.69 180.773 181.805 180.886Z" fill="white"/>
</g>
<g opacity="0.28">
<path opacity="0.28" d="M59.0292 457.281C59.3734 457.955 58.685 458.63 57.9965 458.293C57.8818 458.18 57.767 458.068 57.6523 457.955C57.3081 457.281 57.9965 456.606 58.685 456.944C58.7997 457.056 58.9145 457.169 59.0292 457.281Z" fill="white"/>
</g>
<g opacity="0.28">
<path opacity="0.28" d="M87.6003 502.467C87.9445 503.141 87.256 503.816 86.5676 503.479C86.4528 503.366 86.3381 503.254 86.2234 503.141C85.8791 502.467 86.5676 501.793 87.256 502.13C87.4855 502.242 87.6003 502.355 87.6003 502.467Z" fill="white"/>
</g>
<g opacity="0.28">
<path opacity="0.28" d="M31.3759 408.836C31.7201 409.51 31.0317 410.184 30.3432 409.847C30.2284 409.735 30.1137 409.622 29.999 409.51C29.6547 408.836 30.3432 408.161 31.0317 408.498C31.1464 408.498 31.2611 408.723 31.3759 408.836Z" fill="white"/>
</g>
<g opacity="0.28">
<path opacity="0.28" d="M81.2893 410.41C81.6336 411.085 80.9451 411.759 80.2566 411.422C80.1419 411.309 80.0272 411.197 79.9124 411.085C79.5682 410.41 80.2567 409.736 80.9451 410.073C81.0599 410.073 81.1746 410.185 81.2893 410.41Z" fill="white"/>
</g>
<g opacity="0.28">
<path opacity="0.28" d="M146.119 357.694C146.464 358.368 145.775 359.042 145.087 358.705C144.972 358.593 144.857 358.48 144.742 358.368C144.398 357.694 145.087 357.019 145.775 357.356C146.005 357.356 146.119 357.469 146.119 357.694Z" fill="white"/>
</g>
<g opacity="0.28">
<path opacity="0.28" d="M190.525 335.55C190.869 336.224 190.181 336.899 189.492 336.562C189.378 336.449 189.263 336.337 189.148 336.224C188.804 335.55 189.492 334.876 190.181 335.213C190.41 335.325 190.525 335.438 190.525 335.55Z" fill="white"/>
</g>
<g opacity="0.28">
<path opacity="0.28" d="M207.966 292.838C208.31 293.512 207.622 294.186 206.933 293.849C206.818 293.737 206.704 293.624 206.589 293.512C206.245 292.838 206.933 292.163 207.622 292.5C207.851 292.5 207.966 292.613 207.966 292.838Z" fill="white"/>
</g>
<g opacity="0.28">
<path opacity="0.28" d="M209.572 259.567C209.917 260.241 209.228 260.916 208.54 260.579C208.425 260.466 208.31 260.354 208.196 260.241C207.851 259.567 208.54 258.893 209.228 259.23C209.343 259.23 209.458 259.342 209.572 259.567Z" fill="white"/>
</g>
<g opacity="0.28">
<path opacity="0.28" d="M231.488 282.946C231.833 283.62 231.144 284.295 230.456 283.958C230.341 283.845 230.226 283.733 230.111 283.62C229.767 282.946 230.456 282.272 231.144 282.609C231.259 282.721 231.374 282.834 231.488 282.946Z" fill="white"/>
</g>
<g opacity="0.28">
<path opacity="0.28" d="M146.005 269.234C146.349 269.908 145.66 270.582 144.972 270.245C144.857 270.133 144.742 270.02 144.628 269.908C144.283 269.234 144.972 268.559 145.66 268.896C145.775 268.896 145.89 269.121 146.005 269.234Z" fill="white"/>
</g>
<g opacity="0.28">
<path opacity="0.28" d="M60.1766 259.004C60.5208 259.678 59.8323 260.353 59.1439 260.016C59.0291 259.903 58.9144 259.791 58.7996 259.678C58.4554 259.004 59.1439 258.33 59.8323 258.667C59.9471 258.779 60.0618 258.892 60.1766 259.004Z" fill="white"/>
</g>
<g opacity="0.28">
<path opacity="0.28" d="M40.3259 246.64C40.6701 247.315 39.9817 247.989 39.2932 247.652C39.1785 247.539 39.0637 247.427 38.949 247.315C38.6048 246.64 39.2932 245.966 39.9817 246.303C40.2111 246.415 40.3259 246.528 40.3259 246.64Z" fill="white"/>
</g>
<g opacity="0.28">
<path opacity="0.28" d="M19.6722 199.545C20.0164 200.219 19.328 200.893 18.6395 200.556C18.5247 200.444 18.41 200.331 18.2952 200.219C17.951 199.545 18.6395 198.87 19.3279 199.207C19.5574 199.32 19.6722 199.432 19.6722 199.545Z" fill="white"/>
</g>
<g opacity="0.28">
<path opacity="0.28" d="M51.1119 249.788C51.4562 250.462 50.7677 251.137 50.0793 250.799C49.9645 250.687 49.8498 250.575 49.735 250.462C49.3908 249.788 50.0793 249.113 50.7677 249.451C50.9972 249.563 51.1119 249.675 51.1119 249.788Z" fill="white"/>
</g>
<g opacity="0.28">
<path opacity="0.28" d="M80.1419 303.741C80.4861 304.415 79.7976 305.09 79.1092 304.752C78.9944 304.64 78.8797 304.528 78.765 304.415C78.4207 303.741 79.1092 303.066 79.7976 303.404C80.0271 303.404 80.1419 303.516 80.1419 303.741Z" fill="white"/>
</g>
<g opacity="0.28">
<path opacity="0.28" d="M166.888 275.416C167.232 276.09 166.544 276.764 165.855 276.427C165.74 276.315 165.626 276.202 165.511 276.09C165.167 275.416 165.855 274.741 166.544 275.078C166.773 275.191 166.888 275.303 166.888 275.416Z" fill="white"/>
</g>
<g opacity="0.28">
<path opacity="0.28" d="M245.946 238.21C246.29 238.885 245.602 239.559 244.913 239.222C244.799 239.109 244.684 238.997 244.569 238.885C244.225 238.21 244.913 237.536 245.602 237.873C245.716 237.985 245.831 238.098 245.946 238.21Z" fill="white"/>
</g>
<g opacity="0.28">
<path opacity="0.28" d="M304.236 262.377C304.58 263.051 303.891 263.726 303.203 263.389C303.088 263.276 302.973 263.164 302.859 263.051C302.514 262.377 303.203 261.703 303.891 262.04C304.006 262.152 304.121 262.265 304.236 262.377Z" fill="white"/>
</g>
<g opacity="0.28">
<path opacity="0.28" d="M306.071 254.734C306.416 255.408 305.727 256.083 305.039 255.746C304.924 255.633 304.809 255.521 304.694 255.408C304.35 254.734 305.039 254.06 305.727 254.397C305.842 254.397 305.957 254.509 306.071 254.734Z" fill="white"/>
</g>
<g opacity="0.28">
<path opacity="0.28" d="M264.994 171.219C265.338 171.894 264.649 172.568 263.961 172.231C263.846 172.119 263.731 172.006 263.617 171.894C263.272 171.219 263.961 170.545 264.649 170.882C264.764 170.995 264.879 171.107 264.994 171.219Z" fill="white"/>
</g>
<g opacity="0.28">
<path opacity="0.28" d="M284.27 148.964C284.614 149.638 283.926 150.312 283.238 149.975C283.123 149.863 283.008 149.75 282.893 149.638C282.549 148.964 283.238 148.289 283.926 148.626C284.041 148.626 284.156 148.739 284.27 148.964Z" fill="white"/>
</g>
<g opacity="0.28">
<path opacity="0.28" d="M350.362 315.318C350.707 315.992 350.018 316.666 349.33 316.329C349.215 316.217 349.1 316.104 348.985 315.992C348.641 315.318 349.33 314.643 350.018 314.98C350.133 315.093 350.248 315.205 350.362 315.318Z" fill="white"/>
</g>
<g opacity="0.28">
<path opacity="0.28" d="M270.96 359.267C271.304 359.942 270.616 360.616 269.927 360.279C269.813 360.166 269.698 360.054 269.583 359.942C269.239 359.267 269.927 358.593 270.616 358.93C270.73 359.042 270.845 359.155 270.96 359.267Z" fill="white"/>
</g>
<g opacity="0.28">
<path opacity="0.28" d="M285.876 314.194C286.221 314.869 285.532 315.543 284.844 315.206C284.729 315.094 284.614 314.981 284.5 314.869C284.155 314.194 284.844 313.52 285.532 313.857C285.647 313.97 285.762 314.082 285.876 314.194Z" fill="white"/>
</g>
<g opacity="0.28">
<path opacity="0.28" d="M335.331 338.697C335.675 339.372 334.987 340.046 334.298 339.709C334.184 339.597 334.069 339.484 333.954 339.372C333.61 338.697 334.298 338.023 334.987 338.36C335.216 338.36 335.331 338.473 335.331 338.697Z" fill="white"/>
</g>
<g opacity="0.28">
<path opacity="0.28" d="M336.823 382.647C337.167 383.321 336.478 383.995 335.79 383.658C335.675 383.546 335.561 383.433 335.446 383.321C335.102 382.647 335.79 381.972 336.478 382.309C336.593 382.422 336.708 382.534 336.823 382.647Z" fill="white"/>
</g>
<g opacity="0.28">
<path opacity="0.28" d="M313.071 402.429C313.415 403.104 312.727 403.778 312.039 403.441C311.924 403.329 311.809 403.216 311.694 403.104C311.35 402.429 312.038 401.755 312.727 402.092C312.842 402.205 313.071 402.317 313.071 402.429Z" fill="white"/>
</g>
<g opacity="0.28">
<path opacity="0.28" d="M301.941 431.654C302.285 432.328 301.596 433.003 300.908 432.666C300.793 432.553 300.678 432.441 300.564 432.328C300.219 431.654 300.908 430.98 301.596 431.317C301.826 431.429 301.941 431.542 301.941 431.654Z" fill="white"/>
</g>
<g opacity="0.28">
<path opacity="0.28" d="M345.887 451.549C346.232 452.223 345.543 452.898 344.855 452.561C344.74 452.448 344.625 452.336 344.511 452.223C344.166 451.549 344.855 450.875 345.543 451.212C345.773 451.324 345.887 451.437 345.887 451.549Z" fill="white"/>
</g>
<g opacity="0.28">
<path opacity="0.28" d="M387.998 361.74C388.343 362.414 387.654 363.089 386.966 362.752C386.851 362.639 386.736 362.527 386.621 362.414C386.277 361.74 386.966 361.065 387.654 361.403C387.769 361.515 387.884 361.628 387.998 361.74Z" fill="white"/>
</g>
<g opacity="0.28">
<path opacity="0.28" d="M316.169 440.421C316.513 441.095 315.825 441.769 315.136 441.432C315.021 441.32 314.907 441.207 314.792 441.095C314.448 440.421 315.136 439.746 315.825 440.083C315.939 440.083 316.054 440.308 316.169 440.421Z" fill="white"/>
</g>
<g opacity="0.28">
<path opacity="0.28" d="M333.84 448.738C334.184 449.413 333.495 450.087 332.807 449.75C332.692 449.638 332.577 449.525 332.463 449.413C332.118 448.738 332.807 448.064 333.495 448.401C333.61 448.401 333.725 448.626 333.84 448.738Z" fill="white"/>
</g>
<g opacity="0.28">
<path opacity="0.28" d="M387.769 539.672C388.113 540.346 387.424 541.021 386.736 540.684C386.621 540.571 386.507 540.459 386.392 540.346C386.048 539.672 386.736 538.998 387.424 539.335C387.539 539.447 387.769 539.56 387.769 539.672Z" fill="white"/>
</g>
<g opacity="0.28">
<path opacity="0.28" d="M308.022 535.962C308.366 536.636 307.678 537.311 306.989 536.974C306.875 536.861 306.76 536.749 306.645 536.636C306.301 535.962 306.989 535.288 307.678 535.625C307.907 535.737 308.022 535.85 308.022 535.962Z" fill="white"/>
</g>
<g opacity="0.28">
<path opacity="0.28" d="M229.423 537.536C229.767 538.21 229.079 538.885 228.39 538.547C228.276 538.435 228.161 538.323 228.046 538.21C227.702 537.536 228.39 536.861 229.079 537.199C229.194 537.311 229.308 537.423 229.423 537.536Z" fill="white"/>
</g>
<g opacity="0.28">
<path opacity="0.28" d="M172.396 548.214C172.74 548.888 172.051 549.563 171.363 549.226C171.248 549.113 171.133 549.001 171.019 548.888C170.674 548.214 171.363 547.54 172.051 547.877C172.166 547.989 172.281 548.102 172.396 548.214Z" fill="white"/>
</g>
<g opacity="0.28">
<path opacity="0.28" d="M128.564 553.722C128.908 554.396 128.219 555.071 127.531 554.733C127.416 554.621 127.301 554.509 127.187 554.396C126.842 553.722 127.531 553.047 128.219 553.385C128.449 553.497 128.564 553.609 128.564 553.722Z" fill="white"/>
</g>
<g opacity="0.28">
<path opacity="0.28" d="M73.9458 556.42C74.29 557.094 73.6016 557.768 72.9131 557.431C72.7984 557.319 72.6836 557.206 72.5689 557.094C72.2247 556.42 72.9131 555.745 73.6016 556.082C73.8311 556.195 73.9458 556.307 73.9458 556.42Z" fill="white"/>
</g>
<g opacity="0.28">
<path opacity="0.28" d="M5.78819 556.42C6.13241 557.094 5.44397 557.768 4.75552 557.431C4.64078 557.319 4.52603 557.206 4.41129 557.094C4.06707 556.42 4.75551 555.745 5.44396 556.082C5.5587 556.195 5.67345 556.307 5.78819 556.42Z" fill="white"/>
</g>
<g opacity="0.28">
<path opacity="0.28" d="M66.8317 465.149C67.1759 465.823 66.4875 466.498 65.799 466.161C65.6843 466.048 65.5695 465.936 65.4548 465.823C65.1106 465.149 65.799 464.475 66.4875 464.812C66.7169 464.924 66.8317 465.037 66.8317 465.149Z" fill="white"/>
</g>
<g opacity="0.28">
<path opacity="0.28" d="M136.825 484.819C137.169 485.494 136.481 486.168 135.792 485.831C135.678 485.719 135.563 485.606 135.448 485.494C135.104 484.819 135.792 484.145 136.481 484.482C136.71 484.595 136.825 484.707 136.825 484.819Z" fill="white"/>
</g>
<g opacity="0.28">
<path opacity="0.28" d="M175.838 449.862C176.182 450.537 175.494 451.211 174.805 450.874C174.69 450.762 174.576 450.649 174.461 450.537C174.117 449.862 174.805 449.188 175.494 449.525C175.723 449.638 175.838 449.75 175.838 449.862Z" fill="white"/>
</g>
<g opacity="0.28">
<path opacity="0.28" d="M52.2593 516.404C52.6036 517.079 51.9151 517.753 51.2266 517.416C51.1119 517.304 50.9971 517.191 50.8824 517.079C50.5381 516.404 51.2266 515.73 51.9151 516.067C52.0298 516.067 52.1446 516.292 52.2593 516.404Z" fill="white"/>
</g>
<g opacity="0.28">
<path opacity="0.28" d="M23.5939 449.195C23.9076 448.888 23.9439 448.425 23.675 448.162C23.4061 447.899 22.9339 447.934 22.6203 448.241C22.3066 448.549 22.2703 449.011 22.5391 449.275C22.808 449.538 23.2802 449.503 23.5939 449.195Z" fill="white"/>
</g>
<g opacity="0.28">
<path opacity="0.28" d="M150.48 372.305C150.824 372.98 150.135 373.654 149.447 373.317C149.332 373.205 149.217 373.092 149.103 372.98C148.758 372.305 149.447 371.631 150.135 371.968C150.25 372.081 150.365 372.193 150.48 372.305Z" fill="white"/>
</g>
<g opacity="0.28">
<path opacity="0.28" d="M195.459 434.688C195.803 435.363 195.115 436.037 194.426 435.7C194.312 435.587 194.197 435.475 194.082 435.363C193.738 434.688 194.426 434.014 195.115 434.351C195.23 434.351 195.344 434.576 195.459 434.688Z" fill="white"/>
</g>
<g opacity="0.28">
<path opacity="0.28" d="M77.8471 347.915C78.1913 348.589 77.5029 349.263 76.8144 348.926C76.6997 348.814 76.585 348.701 76.4702 348.589C76.126 347.915 76.8144 347.24 77.5029 347.577C77.7324 347.577 77.8471 347.69 77.8471 347.915Z" fill="white"/>
</g>
<g opacity="0.28">
<path opacity="0.28" d="M61.8977 382.872C62.2419 383.546 61.5535 384.221 60.865 383.883C60.7503 383.771 60.6356 383.659 60.5208 383.546C60.1766 382.872 60.865 382.197 61.5535 382.535C61.783 382.535 61.8977 382.647 61.8977 382.872Z" fill="white"/>
</g>
<g opacity="0.28">
<path opacity="0.28" d="M23.9176 364.662C24.2618 365.336 23.5734 366.011 22.8849 365.673C22.7701 365.561 22.6554 365.449 22.5407 365.336C22.1964 364.662 22.8849 363.987 23.5734 364.325C23.6881 364.437 23.8028 364.549 23.9176 364.662Z" fill="white"/>
</g>
<g opacity="0.28">
<path opacity="0.28" d="M96.6649 317.341C97.0092 318.016 96.3207 318.69 95.6322 318.353C95.5174 318.241 95.4027 318.128 95.288 318.016C94.9437 317.341 95.6322 316.667 96.3207 317.004C96.5502 317.117 96.6649 317.229 96.6649 317.341Z" fill="white"/>
</g>
<g opacity="0.28">
<path opacity="0.28" d="M158.053 267.322C158.397 267.997 157.708 268.671 157.02 268.334C156.905 268.222 156.79 268.109 156.676 267.997C156.331 267.322 157.02 266.648 157.708 266.985C157.938 267.098 158.053 267.21 158.053 267.322Z" fill="white"/>
</g>
<g opacity="0.28">
<path opacity="0.28" d="M177.1 203.703C177.444 204.377 176.756 205.052 176.067 204.714C175.953 204.602 175.838 204.49 175.723 204.377C175.379 203.703 176.067 203.028 176.756 203.366C176.871 203.366 176.985 203.59 177.1 203.703Z" fill="white"/>
</g>
<g opacity="0.28">
<path opacity="0.28" d="M158.167 216.18C158.512 216.854 157.823 217.529 157.135 217.191C157.02 217.079 156.905 216.967 156.79 216.854C156.446 216.18 157.135 215.505 157.823 215.843C157.938 215.955 158.053 216.067 158.167 216.18Z" fill="white"/>
</g>
<g opacity="0.28">
<path opacity="0.28" d="M116.63 234.951C116.975 235.625 116.286 236.3 115.598 235.962C115.483 235.85 115.368 235.738 115.253 235.625C114.909 234.951 115.598 234.276 116.286 234.614C116.401 234.726 116.516 234.838 116.63 234.951Z" fill="white"/>
</g>
<g opacity="0.28">
<path opacity="0.28" d="M112.155 252.823C112.5 253.497 111.811 254.172 111.123 253.835C111.008 253.722 110.893 253.61 110.778 253.497C110.434 252.823 111.123 252.148 111.811 252.486C111.926 252.598 112.041 252.71 112.155 252.823Z" fill="white"/>
</g>
<g opacity="0.28">
<path opacity="0.28" d="M104.926 268.334C105.271 269.008 104.582 269.682 103.894 269.345C103.779 269.233 103.664 269.12 103.55 269.008C103.205 268.334 103.894 267.659 104.582 267.996C104.697 268.109 104.926 268.221 104.926 268.334Z" fill="white"/>
</g>
<g opacity="0.28">
<path opacity="0.28" d="M105.271 220.001C105.615 220.676 104.926 221.35 104.238 221.013C104.123 220.9 104.008 220.788 103.894 220.676C103.549 220.001 104.238 219.327 104.926 219.664C105.156 219.776 105.271 219.889 105.271 220.001Z" fill="white"/>
</g>
<g opacity="0.28">
<path opacity="0.28" d="M114.565 196.284C114.909 196.959 114.221 197.633 113.532 197.296C113.417 197.184 113.303 197.071 113.188 196.959C112.844 196.284 113.532 195.61 114.221 195.947C114.45 195.947 114.565 196.06 114.565 196.284Z" fill="white"/>
</g>
<g opacity="0.28">
<path opacity="0.28" d="M132.465 182.797C132.809 183.471 132.121 184.145 131.432 183.808C131.317 183.696 131.203 183.583 131.088 183.471C130.744 182.797 131.432 182.122 132.121 182.459C132.35 182.459 132.465 182.572 132.465 182.797Z" fill="white"/>
</g>
<g opacity="0.28">
<path opacity="0.28" d="M146.234 161.552C146.578 162.227 145.89 162.901 145.201 162.564C145.087 162.452 144.972 162.339 144.857 162.227C144.513 161.552 145.201 160.878 145.89 161.215C146.005 161.215 146.119 161.328 146.234 161.552Z" fill="white"/>
</g>
<g opacity="0.28">
<path opacity="0.28" d="M80.9451 139.634C81.2893 140.309 80.6009 140.983 79.9124 140.646C79.7977 140.534 79.6829 140.421 79.5682 140.309C79.224 139.634 79.9124 138.96 80.6009 139.297C80.7156 139.41 80.8304 139.522 80.9451 139.634Z" fill="white"/>
</g>
<g opacity="0.28">
<path opacity="0.28" d="M172.051 136.6C172.396 137.274 171.707 137.949 171.019 137.611C170.904 137.499 170.789 137.387 170.674 137.274C170.33 136.6 171.019 135.925 171.707 136.263C171.822 136.375 171.937 136.487 172.051 136.6Z" fill="white"/>
</g>
<g opacity="0.28">
<path opacity="0.28" d="M185.591 132.441C185.935 133.115 185.247 133.789 184.558 133.452C184.444 133.34 184.329 133.227 184.214 133.115C183.87 132.441 184.558 131.766 185.247 132.103C185.361 132.216 185.591 132.328 185.591 132.441Z" fill="white"/>
</g>
<g opacity="0.28">
<path opacity="0.28" d="M253.863 151.774C254.207 152.448 253.519 153.123 252.831 152.786C252.716 152.673 252.601 152.561 252.486 152.448C252.142 151.774 252.831 151.1 253.519 151.437C253.634 151.437 253.749 151.549 253.863 151.774Z" fill="white"/>
</g>
<g opacity="0.28">
<path opacity="0.28" d="M289.09 206.963C289.434 207.637 288.745 208.312 288.057 207.975C287.942 207.862 287.827 207.75 287.713 207.637C287.368 206.963 288.057 206.289 288.745 206.626C288.86 206.626 288.975 206.738 289.09 206.963Z" fill="white"/>
</g>
<g opacity="0.28">
<path opacity="0.28" d="M299.416 197.858C299.761 198.532 299.072 199.207 298.384 198.87C298.269 198.757 298.154 198.645 298.04 198.532C297.695 197.858 298.384 197.184 299.072 197.521C299.187 197.633 299.302 197.746 299.416 197.858Z" fill="white"/>
</g>
<g opacity="0.28">
<path opacity="0.28" d="M356.214 154.584C356.559 155.258 355.87 155.932 355.182 155.595C355.067 155.483 354.952 155.37 354.838 155.258C354.493 154.584 355.182 153.909 355.87 154.246C356.1 154.359 356.214 154.471 356.214 154.584Z" fill="white"/>
</g>
<g opacity="0.28">
<path opacity="0.28" d="M355.641 418.277C355.985 418.952 355.296 419.626 354.608 419.289C354.493 419.177 354.378 419.064 354.264 418.952C353.919 418.277 354.608 417.603 355.296 417.94C355.411 418.053 355.526 418.165 355.641 418.277Z" fill="white"/>
</g>
<g opacity="0.28">
<path opacity="0.28" d="M339.118 410.185C339.462 410.859 338.773 411.534 338.085 411.196C337.97 411.084 337.855 410.972 337.741 410.859C337.396 410.185 338.085 409.51 338.773 409.848C338.888 409.96 339.003 410.072 339.118 410.185Z" fill="white"/>
</g>
<g opacity="0.28">
<path opacity="0.28" d="M344.396 401.755C344.74 402.429 344.052 403.103 343.363 402.766C343.249 402.654 343.134 402.541 343.019 402.429C342.675 401.755 343.363 401.08 344.052 401.417C344.166 401.53 344.281 401.642 344.396 401.755Z" fill="white"/>
</g>
<g opacity="0.28">
<path opacity="0.28" d="M264.649 419.402C264.993 420.077 264.305 420.751 263.616 420.414C263.502 420.302 263.387 420.189 263.272 420.077C262.928 419.402 263.616 418.728 264.305 419.065C264.42 419.065 264.534 419.178 264.649 419.402Z" fill="white"/>
</g>
<g opacity="0.28">
<path opacity="0.28" d="M258.109 457.506C258.453 458.18 257.765 458.855 257.076 458.518C256.961 458.405 256.847 458.293 256.732 458.18C256.388 457.506 257.076 456.832 257.765 457.169C257.994 457.281 258.109 457.394 258.109 457.506Z" fill="white"/>
</g>
<g opacity="0.28">
<path opacity="0.28" d="M256.847 482.796C257.191 483.47 256.502 484.145 255.814 483.808C255.699 483.695 255.584 483.583 255.47 483.47C255.126 482.796 255.814 482.122 256.502 482.459C256.617 482.459 256.732 482.571 256.847 482.796Z" fill="white"/>
</g>
<g opacity="0.28">
<path opacity="0.28" d="M230.8 469.983C231.144 470.657 230.456 471.332 229.767 470.995C229.653 470.882 229.538 470.77 229.423 470.657C229.079 469.983 229.767 469.309 230.456 469.646C230.57 469.758 230.685 469.871 230.8 469.983Z" fill="white"/>
</g>
<g opacity="0.28">
<path opacity="0.28" d="M193.508 370.62C193.852 371.294 193.164 371.969 192.476 371.631C192.361 371.519 192.246 371.407 192.131 371.294C191.787 370.62 192.476 369.945 193.164 370.283C193.393 370.395 193.508 370.507 193.508 370.62Z" fill="white"/>
</g>
<g opacity="0.28">
<path opacity="0.28" d="M189.033 352.523C189.378 353.197 188.689 353.871 188.001 353.534C187.886 353.422 187.771 353.309 187.656 353.197C187.312 352.523 188.001 351.848 188.689 352.185C188.804 352.185 189.033 352.41 189.033 352.523Z" fill="white"/>
</g>
</g>
<g style="mix-blend-mode:color-dodge">
<path d="M328.332 394.899C328.775 394.899 329.135 388.76 329.135 381.186C329.135 373.613 328.775 367.473 328.332 367.473C327.888 367.473 327.529 373.613 327.529 381.186C327.529 388.76 327.888 394.899 328.332 394.899Z" fill="url(#paint0_radial_489_6927)"/>
<path d="M314.448 381.186C314.448 380.737 320.644 380.399 328.447 380.399C336.134 380.399 342.445 380.737 342.445 381.186C342.445 381.636 336.249 381.973 328.447 381.973C320.644 381.973 314.448 381.523 314.448 381.186Z" fill="url(#paint1_radial_489_6927)"/>
<path d="M221.047 107.151C221.491 107.151 221.85 101.011 221.85 93.4376C221.85 85.8641 221.491 79.7246 221.047 79.7246C220.603 79.7246 220.244 85.8641 220.244 93.4376C220.244 101.011 220.603 107.151 221.047 107.151Z" fill="url(#paint2_radial_489_6927)"/>
<path d="M207.163 93.4372C207.163 92.9876 213.359 92.6504 221.162 92.6504C228.849 92.6504 235.16 92.9876 235.16 93.4372C235.16 93.8868 228.964 94.224 221.162 94.224C213.359 94.224 207.163 93.7744 207.163 93.4372Z" fill="url(#paint3_radial_489_6927)"/>
</g>
</g>
<defs>
<radialGradient id="paint0_radial_489_6927" cx="0" cy="0" r="1" gradientUnits="userSpaceOnUse" gradientTransform="translate(328.388 380.91) rotate(-90) scale(12.7532 0.71028)">
<stop stop-color="white"/>
<stop offset="1"/>
</radialGradient>
<radialGradient id="paint1_radial_489_6927" cx="0" cy="0" r="1" gradientUnits="userSpaceOnUse" gradientTransform="translate(328.136 381.128) rotate(180) scale(13.0193 0.695837)">
<stop stop-color="white"/>
<stop offset="1"/>
</radialGradient>
<radialGradient id="paint2_radial_489_6927" cx="0" cy="0" r="1" gradientUnits="userSpaceOnUse" gradientTransform="translate(221.103 93.1619) rotate(-90) scale(12.7532 0.710307)">
<stop stop-color="white"/>
<stop offset="1"/>
</radialGradient>
<radialGradient id="paint3_radial_489_6927" cx="0" cy="0" r="1" gradientUnits="userSpaceOnUse" gradientTransform="translate(220.851 93.3794) rotate(180) scale(13.0193 0.695824)">
<stop stop-color="white"/>
<stop offset="1"/>
</radialGradient>
</defs>
</svg>
