<svg width="314" height="314" viewBox="0 0 314 314" fill="none" xmlns="http://www.w3.org/2000/svg">
<mask id="mask0_1720_479" style="mask-type:alpha" maskUnits="userSpaceOnUse" x="0" y="0" width="314" height="314">
<circle cx="157" cy="157" r="157" fill="#C4C4C4"/>
</mask>
<g mask="url(#mask0_1720_479)">
<path d="M277 202.729C274.136 211.752 270.264 220.478 265.424 228.735C251.993 251.644 231.77 269.809 207.556 280.712C183.342 291.616 156.336 294.718 130.28 289.589C104.224 284.461 80.4085 271.355 62.1329 252.088C43.8574 232.821 32.0268 208.347 28.2803 182.057C24.5339 155.767 29.0571 128.962 41.2233 105.358C53.3895 81.7527 72.5962 62.5161 96.1823 50.3134C114.289 40.9455 134.288 36.079 154.5 36" stroke="white" stroke-width="2" stroke-linecap="round"/>
<path d="M277 202.729C274.136 211.752 270.264 220.478 265.424 228.735C251.993 251.644 231.77 269.809 207.556 280.712C183.342 291.616 156.336 294.718 130.28 289.589C104.224 284.461 80.4085 271.355 62.1329 252.088C43.8574 232.821 32.0268 208.347 28.2803 182.057C24.5339 155.767 29.0571 128.962 41.2233 105.358C53.3895 81.7527 72.5962 62.5161 96.1823 50.3134C114.289 40.9455 134.288 36.079 154.5 36" stroke="white" stroke-width="2" stroke-linecap="round"/>
<path d="M172.517 44.8986C170.996 45.9507 169.163 46.3284 167.018 46.0316C164.873 45.7348 163.202 44.8723 162.005 43.4441C160.829 42 160.386 40.2333 160.675 38.1438L162.46 25.2467L165.039 25.6036L163.27 38.3898C163.081 39.7581 163.337 40.9053 164.038 41.8315C164.741 42.7391 165.851 43.2979 167.367 43.5076C168.883 43.7174 170.103 43.4811 171.027 42.7986C171.953 42.0975 172.511 41.0629 172.7 39.6946L174.469 26.9084L177.021 27.2615L175.236 40.1586C174.947 42.248 174.041 43.828 172.517 44.8986Z" fill="white"/>
<path d="M183.865 28.859L186.386 29.51L181.486 48.4876L178.965 47.8366L183.865 28.859Z" fill="white"/>
<path d="M186.26 52.607L184.895 52.1004L204.163 32.3715L205.528 32.878L186.26 52.607Z" fill="white"/>
<path d="M212.951 59.9114C211.156 60.3595 209.308 60.0664 207.405 59.0323C205.503 57.9982 204.243 56.6019 203.627 54.8434C203.036 53.0774 203.244 51.2678 204.252 49.4145L210.47 37.9753L212.757 39.2189L206.593 50.5597C205.933 51.7734 205.768 52.9371 206.097 54.051C206.436 55.1484 207.277 56.0627 208.622 56.7937C209.967 57.5247 211.192 57.7337 212.297 57.4207C213.411 57.0914 214.297 56.3199 214.957 55.1062L221.122 43.7654L223.385 44.9956L217.167 56.4349C216.159 58.2881 214.754 59.447 212.951 59.9114Z" fill="white"/>
<path d="M228.682 72.8724L226.311 71.0868L227.113 62.0164L218.617 65.292L216.269 63.5232L227.365 59.2617L228.351 48.0861L230.7 49.8548L229.96 58.2366L237.812 55.2117L240.16 56.9804L229.731 61.0081L228.682 72.8724Z" fill="white"/>
<path d="M256.748 73.6009C258.466 75.6435 259.162 77.9491 258.834 80.5175C258.533 83.0882 257.333 85.2568 255.233 87.0233C253.133 88.7897 250.784 89.6073 248.185 89.476C245.613 89.347 243.468 88.2612 241.749 86.2185L236.828 80.3691L251.827 67.7514L256.748 73.6009ZM243.635 84.6323C244.921 86.1607 246.508 86.96 248.396 87.03C250.285 87.1001 252.029 86.4622 253.629 85.1163C255.229 83.7704 256.156 82.1612 256.41 80.2886C256.664 78.416 256.148 76.7155 254.862 75.1871L251.618 71.3303L240.39 80.7755L243.635 84.6323Z" fill="white"/>
<path d="M255.569 94.5806C254.623 95.4343 254.086 96.4232 253.957 97.5471C253.838 98.6871 254.121 99.8245 254.806 100.959C255.76 102.542 257.038 103.341 258.638 103.356L258.702 105.738C256.192 105.66 254.228 104.447 252.811 102.097C251.663 100.195 251.32 98.288 251.779 96.3758C252.265 94.4698 253.418 92.9673 255.241 91.8682C257.047 90.7787 258.901 90.4559 260.804 90.8996C262.706 91.3433 264.217 92.4922 265.335 94.3464C266.396 96.1046 266.635 97.9112 266.054 99.7661C265.498 101.627 264.349 103.083 262.607 104.134C262.303 104.318 261.977 104.482 261.628 104.626L255.569 94.5806ZM263.369 95.5323C262.694 94.4134 261.816 93.6792 260.733 93.3295C259.666 92.9703 258.552 93.0209 257.391 93.4814L262.221 101.489C263.25 100.629 263.843 99.6609 264.001 98.5849C264.158 97.5088 263.948 96.4913 263.369 95.5323Z" fill="white"/>
<path d="M268.27 108.427C267.775 108.646 267.484 109.072 267.396 109.703C267.326 110.326 267.352 111.029 267.475 111.812C267.615 112.587 267.72 113.378 267.792 114.183C267.881 114.981 267.753 115.753 267.41 116.497C267.084 117.235 266.485 117.796 265.615 118.182C264.455 118.697 263.324 118.658 262.224 118.064C261.13 117.487 260.273 116.499 259.652 115.1C259.099 113.855 258.899 112.667 259.051 111.538C259.203 110.408 259.648 109.455 260.386 108.679L262.338 110.11C261.815 110.587 261.499 111.187 261.391 111.909C261.282 112.631 261.402 113.384 261.751 114.169C262.076 114.903 262.482 115.448 262.967 115.804C263.469 116.153 264.018 116.195 264.616 115.93C265.11 115.711 265.393 115.289 265.463 114.666C265.551 114.034 265.525 113.331 265.385 112.556C265.262 111.773 265.165 110.979 265.093 110.173C265.022 109.368 265.149 108.597 265.475 107.859C265.802 107.122 266.391 106.565 267.245 106.186C268.354 105.694 269.456 105.715 270.551 106.25C271.654 106.802 272.493 107.727 273.068 109.023C273.53 110.064 273.7 111.091 273.579 112.105C273.481 113.129 273.106 114.031 272.451 114.811L270.573 113.409C271.46 112.463 271.601 111.308 270.995 109.943C270.715 109.312 270.323 108.843 269.819 108.535C269.332 108.221 268.816 108.184 268.27 108.427Z" fill="white"/>
<path d="M279.607 119.609C279.458 119.166 279.484 118.744 279.683 118.342C279.883 117.94 280.195 117.668 280.619 117.525C281.044 117.382 281.457 117.41 281.859 117.61C282.279 117.803 282.563 118.121 282.712 118.563C282.855 118.988 282.818 119.404 282.601 119.812C282.401 120.214 282.089 120.487 281.664 120.63C281.24 120.772 280.827 120.744 280.425 120.545C280.023 120.345 279.75 120.033 279.607 119.609ZM263.531 123.721L276.799 119.254L277.577 121.563L264.308 126.029L263.531 123.721Z" fill="white"/>
<path d="M282.083 138.642L282.598 140.994L269.497 143.863C267.473 144.307 265.755 143.966 264.343 142.842C262.913 141.722 261.988 140.205 261.569 138.29C261.233 136.759 261.236 135.373 261.575 134.133C261.897 132.897 262.534 131.878 263.486 131.077L265.117 132.898C263.749 133.981 263.309 135.635 263.796 137.86C264.108 139.282 264.725 140.313 265.648 140.951C266.576 141.608 267.687 141.795 268.981 141.511L270.923 141.086C268.836 140.282 267.549 138.767 267.062 136.543C266.635 134.592 266.966 132.79 268.057 131.137C269.147 129.484 270.686 128.44 272.673 128.005C274.661 127.569 276.486 127.877 278.149 128.926C279.831 129.972 280.885 131.471 281.312 133.422C281.804 135.665 281.276 137.576 279.731 139.157L282.083 138.642ZM270.026 132.54C269.3 133.673 269.089 134.933 269.392 136.319C269.696 137.705 270.414 138.761 271.548 139.487C272.681 140.214 273.941 140.425 275.327 140.121C276.695 139.822 277.742 139.105 278.468 137.972C279.194 136.838 279.406 135.578 279.102 134.193C278.799 132.807 278.08 131.751 276.946 131.024C275.813 130.298 274.562 130.085 273.195 130.384C271.809 130.688 270.753 131.406 270.026 132.54Z" fill="white"/>
<path d="M284.437 154.514C284.547 156.153 284.113 157.501 283.136 158.557C282.178 159.613 280.814 160.2 279.045 160.318L270.468 160.892L270.305 158.462L278.742 157.897C279.878 157.821 280.733 157.455 281.307 156.8C281.899 156.143 282.159 155.274 282.087 154.194C282.006 152.983 281.558 152.031 280.745 151.337C279.95 150.642 278.77 150.347 277.206 150.451L269.802 150.946L269.64 148.516L283.609 147.581L283.771 150.012L281.76 150.147C283.409 151.028 284.301 152.483 284.437 154.514Z" fill="white"/>
<path d="M276.294 167.807C275.029 167.955 274.018 168.449 273.261 169.29C272.503 170.15 272.074 171.24 271.974 172.562C271.834 174.405 272.411 175.796 273.707 176.737L272.377 178.714C270.377 177.196 269.481 175.068 269.688 172.332C269.857 170.117 270.682 168.364 272.166 167.073C273.666 165.801 275.478 165.246 277.599 165.407C279.703 165.567 281.401 166.379 282.694 167.844C283.986 169.309 284.551 171.121 284.387 173.28C284.231 175.327 283.379 176.938 281.83 178.112C280.298 179.306 278.517 179.826 276.488 179.672C276.135 179.645 275.774 179.59 275.406 179.506L276.294 167.807ZM282.098 173.106C282.196 171.803 281.906 170.695 281.227 169.782C280.566 168.871 279.629 168.266 278.416 167.968L277.708 177.294C279.045 177.189 280.09 176.744 280.842 175.959C281.594 175.174 282.013 174.223 282.098 173.106Z" fill="white"/>
<path d="M279.916 187.08C281.472 188.193 282.053 189.785 281.66 191.857L279.157 191.382C279.434 190.219 279.314 189.151 278.796 188.179C278.277 187.206 277.266 186.577 275.762 186.292L268.472 184.909L268.926 182.516L282.681 185.125L282.227 187.519L279.916 187.08Z" fill="white"/>
</g>
</svg>
