<svg width="2521" height="3243" viewBox="0 0 2521 3243" fill="none" xmlns="http://www.w3.org/2000/svg">
<path d="M2521 3242H0V816H2521V3242Z" fill="url(#paint0_linear_310_3853)"/>
<path d="M0.5 3241.5H0V3061.6H0.5V3241.5Z" fill="#2084FA"/>
<path d="M0.800171 3241.8H-0.399902V3061.4H0.800171V3241.8Z" fill="#2084FA"/>
<path d="M87.7002 3241.5H87.2002V3061.6H87.7002V3241.5Z" fill="#2084FA"/>
<path d="M88.0002 3241.8H86.8003V3061.4H88.0002V3241.8Z" fill="#2084FA"/>
<path d="M175 3241.5H174.5V3061.6H175V3241.5Z" fill="#2084FA"/>
<path d="M175.3 3241.8H174.1V3061.4H175.3V3241.8Z" fill="#2084FA"/>
<path d="M262.2 3241.5H261.7V3061.6H262.2V3241.5Z" fill="#2084FA"/>
<path d="M262.5 3241.8H261.3V3061.4H262.5V3241.8Z" fill="#2084FA"/>
<path d="M349.5 3241.5H349V3061.6H349.5V3241.5Z" fill="#2084FA"/>
<path d="M349.8 3241.8H348.6V3061.4H349.8V3241.8Z" fill="#2084FA"/>
<path d="M436.7 3241.5H436.2V3061.6H436.7V3241.5Z" fill="#2084FA"/>
<path d="M437 3241.8H435.8V3061.4H437V3241.8Z" fill="#2084FA"/>
<path d="M524 3241.5H523.5V3061.6H524V3241.5Z" fill="#2084FA"/>
<path d="M524.3 3241.8H523.1V3061.4H524.3V3241.8Z" fill="#2084FA"/>
<path d="M611.2 3241.5H610.7V3061.6H611.2V3241.5Z" fill="#2084FA"/>
<path d="M611.5 3241.8H610.3V3061.4H611.5V3241.8Z" fill="#2084FA"/>
<path d="M698.5 3241.5H698V3061.6H698.5V3241.5Z" fill="#2084FA"/>
<path d="M698.8 3241.8H697.6V3061.4H698.8V3241.8Z" fill="#2084FA"/>
<path d="M785.7 3241.5H785.2V3061.6H785.7V3241.5Z" fill="#2084FA"/>
<path d="M786 3241.8H784.8V3061.4H786V3241.8Z" fill="#2084FA"/>
<path d="M873 3241.5H872.5V3061.6H873V3241.5Z" fill="#2084FA"/>
<path d="M873.3 3241.8H872.1V3061.4H873.3V3241.8Z" fill="#2084FA"/>
<path d="M960.2 3241.5H959.7V3061.6H960.2V3241.5Z" fill="#2084FA"/>
<path d="M960.5 3241.8H959.3V3061.4H960.5V3241.8Z" fill="#2084FA"/>
<path d="M1047.5 3241.5H1047V3061.6H1047.5V3241.5Z" fill="#2084FA"/>
<path d="M1047.8 3241.8H1046.6V3061.4H1047.8V3241.8Z" fill="#2084FA"/>
<path d="M1134.7 3241.5H1134.2V3061.6H1134.7V3241.5Z" fill="#2084FA"/>
<path d="M1135 3241.8H1133.8V3061.4H1135V3241.8Z" fill="#2084FA"/>
<path d="M1222 3241.5H1221.5V3061.6H1222V3241.5Z" fill="#2084FA"/>
<path d="M1222.3 3241.8H1221.1V3061.4H1222.3V3241.8Z" fill="#2084FA"/>
<path d="M1309.2 3241.5H1308.7V3061.6H1309.2V3241.5Z" fill="#2084FA"/>
<path d="M1309.5 3241.8H1308.3V3061.4H1309.5V3241.8Z" fill="#2084FA"/>
<path d="M1396.5 3241.5H1396V3061.6H1396.5V3241.5Z" fill="#2084FA"/>
<path d="M1396.8 3241.8H1395.6V3061.4H1396.8V3241.8Z" fill="#2084FA"/>
<path d="M1483.7 3241.5H1483.2V3061.6H1483.7V3241.5Z" fill="#2084FA"/>
<path d="M1484 3241.8H1482.8V3061.4H1484V3241.8Z" fill="#2084FA"/>
<path d="M1571 3241.5H1570.5V3061.6H1571V3241.5Z" fill="#2084FA"/>
<path d="M1571.3 3241.8H1570.1V3061.4H1571.3V3241.8Z" fill="#2084FA"/>
<path d="M1658.2 3241.5H1657.7V3061.6H1658.2V3241.5Z" fill="#2084FA"/>
<path d="M1658.5 3241.8H1657.3V3061.4H1658.5V3241.8Z" fill="#2084FA"/>
<path d="M1745.5 3241.5H1745V3061.6H1745.5V3241.5Z" fill="#2084FA"/>
<path d="M1745.8 3241.8H1744.6V3061.4H1745.8V3241.8Z" fill="#2084FA"/>
<path d="M1832.7 3241.5H1832.2V3061.6H1832.7V3241.5Z" fill="#2084FA"/>
<path d="M1833 3241.8H1831.8V3061.4H1833V3241.8Z" fill="#2084FA"/>
<path d="M1920 3241.5H1919.5V3061.6H1920V3241.5Z" fill="#2084FA"/>
<path d="M1920.3 3241.8H1919.1V3061.4H1920.3V3241.8Z" fill="#2084FA"/>
<path d="M1920 3240H0V3239.5H1920V3240Z" fill="#2084FA"/>
<path d="M1923 3243H-3V3236.5H1923V3243Z" fill="#2084FA"/>
<path d="M1920 3237.4H0V3236.9H1920V3237.4Z" fill="#2084FA"/>
<path d="M1920.4 3237.8H-0.399902V3236.6H1920.4V3237.8Z" fill="#2084FA"/>
<path d="M1920 3149.7H0V3149.2H1920V3149.7Z" fill="#2084FA"/>
<path d="M1920.4 3150.1H-0.399902V3148.9H1920.4V3150.1Z" fill="#2084FA"/>
<path d="M1920 3062H0V3061.5H1920V3062Z" fill="#2084FA"/>
<path d="M1920.4 3062.4H-0.399902V3061.2H1920.4V3062.4Z" fill="#2084FA"/>
<g opacity="0.2" filter="url(#filter0_f_310_3853)">
<path d="M18.9999 1762.4H17.8999V1004.5H18.9999V1762.4Z" fill="#2084FA"/>
<path d="M20.4999 1763.9H16.3999V1003H20.4999V1763.9Z" fill="#2084FA"/>
<path d="M207.4 1762.4H206.3V1004.5H207.4V1762.4Z" fill="#2084FA"/>
<path d="M208.9 1763.9H204.8V1003H208.9V1763.9Z" fill="#2084FA"/>
<path d="M395.8 1762.4H394.7V1004.5H395.8V1762.4Z" fill="#2084FA"/>
<path d="M397.3 1763.9H393.2V1003H397.3V1763.9Z" fill="#2084FA"/>
<path d="M584.2 1762.4H583.1V1004.5H584.2V1762.4Z" fill="#2084FA"/>
<path d="M585.7 1763.9H581.6V1003H585.7V1763.9Z" fill="#2084FA"/>
<path d="M772.6 1762.4H771.5V1004.5H772.6V1762.4Z" fill="#2084FA"/>
<path d="M774.1 1763.9H770V1003H774.1V1763.9Z" fill="#2084FA"/>
<path d="M961 1762.4H959.9V1004.5H961V1762.4Z" fill="#2084FA"/>
<path d="M962.5 1763.9H958.4V1003H962.5V1763.9Z" fill="#2084FA"/>
<path d="M1149.4 1762.4H1148.3V1004.5H1149.4V1762.4Z" fill="#2084FA"/>
<path d="M1150.9 1763.9H1146.8V1003H1150.9V1763.9Z" fill="#2084FA"/>
<path d="M1337.8 1762.4H1336.7V1004.5H1337.8V1762.4Z" fill="#2084FA"/>
<path d="M1339.3 1763.9H1335.2V1003H1339.3V1763.9Z" fill="#2084FA"/>
<path d="M1526.2 1762.4H1525.1V1004.5H1526.2V1762.4Z" fill="#2084FA"/>
<path d="M1527.7 1763.9H1523.6V1003H1527.7V1763.9Z" fill="#2084FA"/>
<path d="M1714.7 1762.4H1713.6V1004.5H1714.7V1762.4Z" fill="#2084FA"/>
<path d="M1716.2 1763.9H1712.1V1003H1716.2V1763.9Z" fill="#2084FA"/>
<path d="M1903.1 1762.4H1902V1004.5H1903.1V1762.4Z" fill="#2084FA"/>
<path d="M1904.6 1763.9H1900.5V1003H1904.6V1763.9Z" fill="#2084FA"/>
<path d="M2091.5 1762.4H2090.4V1004.5H2091.5V1762.4Z" fill="#2084FA"/>
<path d="M2093 1763.9H2088.9V1003H2093V1763.9Z" fill="#2084FA"/>
<path d="M2279.9 1762.4H2278.8V1004.5H2279.9V1762.4Z" fill="#2084FA"/>
<path d="M2281.4 1763.9H2277.3V1003H2281.4V1763.9Z" fill="#2084FA"/>
<path d="M2468.3 1762.4H2467.2V1004.5H2468.3V1762.4Z" fill="#2084FA"/>
<path d="M2469.8 1763.9H2465.7V1003H2469.8V1763.9Z" fill="#2084FA"/>
<path d="M3033.5 1762.4H-1112.5V1761.4H3033.5V1762.4Z" fill="#2084FA"/>
<path d="M3035 1763.9H-1114V1759.9H3035V1763.9Z" fill="#2084FA"/>
<path d="M3033.5 1573.1H-1112.5V1572.1H3033.5V1573.1Z" fill="#2084FA"/>
<path d="M3035 1574.6H-1114V1570.6H3035V1574.6Z" fill="#2084FA"/>
<path d="M3033.5 1383.7H-1112.5V1382.7H3033.5V1383.7Z" fill="#2084FA"/>
<path d="M3035 1385.2H-1114V1381.2H3035V1385.2Z" fill="#2084FA"/>
<path d="M3033.5 1194.3H-1112.5V1193.3H3033.5V1194.3Z" fill="#2084FA"/>
<path d="M3035 1195.8H-1114V1191.8H3035V1195.8Z" fill="#2084FA"/>
<path d="M3033.5 1005H-1112.5V1004H3033.5V1005Z" fill="#2084FA"/>
<path d="M3035 1006.5H-1114V1002.5H3035V1006.5Z" fill="#2084FA"/>
</g>
<g opacity="0.2" filter="url(#filter1_f_310_3853)">
<path d="M18.9999 2523.9H17.8999V1766H18.9999V2523.9Z" fill="#2084FA"/>
<path d="M20.4999 2525.4H16.3999V1764.5H20.4999V2525.4Z" fill="#2084FA"/>
<path d="M207.4 2523.9H206.3V1766H207.4V2523.9Z" fill="#2084FA"/>
<path d="M208.9 2525.4H204.8V1764.5H208.9V2525.4Z" fill="#2084FA"/>
<path d="M395.8 2523.9H394.7V1766H395.8V2523.9Z" fill="#2084FA"/>
<path d="M397.3 2525.4H393.2V1764.5H397.3V2525.4Z" fill="#2084FA"/>
<path d="M584.2 2523.9H583.1V1766H584.2V2523.9Z" fill="#2084FA"/>
<path d="M585.7 2525.4H581.6V1764.5H585.7V2525.4Z" fill="#2084FA"/>
<path d="M772.6 2523.9H771.5V1766H772.6V2523.9Z" fill="#2084FA"/>
<path d="M774.1 2525.4H770V1764.5H774.1V2525.4Z" fill="#2084FA"/>
<path d="M961 2523.9H959.9V1766H961V2523.9Z" fill="#2084FA"/>
<path d="M962.5 2525.4H958.4V1764.5H962.5V2525.4Z" fill="#2084FA"/>
<path d="M1149.4 2523.9H1148.3V1766H1149.4V2523.9Z" fill="#2084FA"/>
<path d="M1150.9 2525.4H1146.8V1764.5H1150.9V2525.4Z" fill="#2084FA"/>
<path d="M1337.8 2523.9H1336.7V1766H1337.8V2523.9Z" fill="#2084FA"/>
<path d="M1339.3 2525.4H1335.2V1764.5H1339.3V2525.4Z" fill="#2084FA"/>
<path d="M1526.2 2523.9H1525.1V1766H1526.2V2523.9Z" fill="#2084FA"/>
<path d="M1527.7 2525.4H1523.6V1764.5H1527.7V2525.4Z" fill="#2084FA"/>
<path d="M1714.7 2523.9H1713.6V1766H1714.7V2523.9Z" fill="#2084FA"/>
<path d="M1716.2 2525.4H1712.1V1764.5H1716.2V2525.4Z" fill="#2084FA"/>
<path d="M1903.1 2523.9H1902V1766H1903.1V2523.9Z" fill="#2084FA"/>
<path d="M1904.6 2525.4H1900.5V1764.5H1904.6V2525.4Z" fill="#2084FA"/>
<path d="M2091.5 2523.9H2090.4V1766H2091.5V2523.9Z" fill="#2084FA"/>
<path d="M2093 2525.4H2088.9V1764.5H2093V2525.4Z" fill="#2084FA"/>
<path d="M2279.9 2523.9H2278.8V1766H2279.9V2523.9Z" fill="#2084FA"/>
<path d="M2281.4 2525.4H2277.3V1764.5H2281.4V2525.4Z" fill="#2084FA"/>
<path d="M2468.3 2523.9H2467.2V1766H2468.3V2523.9Z" fill="#2084FA"/>
<path d="M2469.8 2525.4H2465.7V1764.5H2469.8V2525.4Z" fill="#2084FA"/>
<path d="M3033.5 2523.9H-1112.5V2522.9H3033.5V2523.9Z" fill="#2084FA"/>
<path d="M3035 2525.4H-1114V2521.4H3035V2525.4Z" fill="#2084FA"/>
<path d="M3033.5 2334.6H-1112.5V2333.6H3033.5V2334.6Z" fill="#2084FA"/>
<path d="M3035 2336.1H-1114V2332.1H3035V2336.1Z" fill="#2084FA"/>
<path d="M3033.5 2145.2H-1112.5V2144.2H3033.5V2145.2Z" fill="#2084FA"/>
<path d="M3035 2146.7H-1114V2142.7H3035V2146.7Z" fill="#2084FA"/>
<path d="M3033.5 1955.8H-1112.5V1954.8H3033.5V1955.8Z" fill="#2084FA"/>
<path d="M3035 1957.3H-1114V1953.3H3035V1957.3Z" fill="#2084FA"/>
<path d="M3033.5 1766.5H-1112.5V1765.5H3033.5V1766.5Z" fill="#2084FA"/>
<path d="M3035 1768H-1114V1764H3035V1768Z" fill="#2084FA"/>
</g>
<g opacity="0.2" filter="url(#filter2_f_310_3853)">
<path d="M18.9999 2898.9H17.8999V2141H18.9999V2898.9Z" fill="#2084FA"/>
<path d="M20.4999 2900.4H16.3999V2139.5H20.4999V2900.4Z" fill="#2084FA"/>
<path d="M207.4 2898.9H206.3V2141H207.4V2898.9Z" fill="#2084FA"/>
<path d="M208.9 2900.4H204.8V2139.5H208.9V2900.4Z" fill="#2084FA"/>
<path d="M395.8 2898.9H394.7V2141H395.8V2898.9Z" fill="#2084FA"/>
<path d="M397.3 2900.4H393.2V2139.5H397.3V2900.4Z" fill="#2084FA"/>
<path d="M584.2 2898.9H583.1V2141H584.2V2898.9Z" fill="#2084FA"/>
<path d="M585.7 2900.4H581.6V2139.5H585.7V2900.4Z" fill="#2084FA"/>
<path d="M772.6 2898.9H771.5V2141H772.6V2898.9Z" fill="#2084FA"/>
<path d="M774.1 2900.4H770V2139.5H774.1V2900.4Z" fill="#2084FA"/>
<path d="M961 2898.9H959.9V2141H961V2898.9Z" fill="#2084FA"/>
<path d="M962.5 2900.4H958.4V2139.5H962.5V2900.4Z" fill="#2084FA"/>
<path d="M1149.4 2898.9H1148.3V2141H1149.4V2898.9Z" fill="#2084FA"/>
<path d="M1150.9 2900.4H1146.8V2139.5H1150.9V2900.4Z" fill="#2084FA"/>
<path d="M1337.8 2898.9H1336.7V2141H1337.8V2898.9Z" fill="#2084FA"/>
<path d="M1339.3 2900.4H1335.2V2139.5H1339.3V2900.4Z" fill="#2084FA"/>
<path d="M1526.2 2898.9H1525.1V2141H1526.2V2898.9Z" fill="#2084FA"/>
<path d="M1527.7 2900.4H1523.6V2139.5H1527.7V2900.4Z" fill="#2084FA"/>
<path d="M1714.7 2898.9H1713.6V2141H1714.7V2898.9Z" fill="#2084FA"/>
<path d="M1716.2 2900.4H1712.1V2139.5H1716.2V2900.4Z" fill="#2084FA"/>
<path d="M1903.1 2898.9H1902V2141H1903.1V2898.9Z" fill="#2084FA"/>
<path d="M1904.6 2900.4H1900.5V2139.5H1904.6V2900.4Z" fill="#2084FA"/>
<path d="M2091.5 2898.9H2090.4V2141H2091.5V2898.9Z" fill="#2084FA"/>
<path d="M2093 2900.4H2088.9V2139.5H2093V2900.4Z" fill="#2084FA"/>
<path d="M2279.9 2898.9H2278.8V2141H2279.9V2898.9Z" fill="#2084FA"/>
<path d="M2281.4 2900.4H2277.3V2139.5H2281.4V2900.4Z" fill="#2084FA"/>
<path d="M2468.3 2898.9H2467.2V2141H2468.3V2898.9Z" fill="#2084FA"/>
<path d="M2469.8 2900.4H2465.7V2139.5H2469.8V2900.4Z" fill="#2084FA"/>
<path d="M3033.5 2898.9H-1112.5V2897.9H3033.5V2898.9Z" fill="#2084FA"/>
<path d="M3035 2900.4H-1114V2896.4H3035V2900.4Z" fill="#2084FA"/>
<path d="M3033.5 2709.6H-1112.5V2708.6H3033.5V2709.6Z" fill="#2084FA"/>
<path d="M3035 2711.1H-1114V2707.1H3035V2711.1Z" fill="#2084FA"/>
<path d="M3033.5 2520.2H-1112.5V2519.2H3033.5V2520.2Z" fill="#2084FA"/>
<path d="M3035 2521.7H-1114V2517.7H3035V2521.7Z" fill="#2084FA"/>
<path d="M3033.5 2330.8H-1112.5V2329.8H3033.5V2330.8Z" fill="#2084FA"/>
<path d="M3035 2332.3H-1114V2328.3H3035V2332.3Z" fill="#2084FA"/>
<path d="M3033.5 2141.5H-1112.5V2140.5H3033.5V2141.5Z" fill="#2084FA"/>
<path d="M3035 2143H-1114V2139H3035V2143Z" fill="#2084FA"/>
</g>
<path d="M1920.1 3060.7H-1.7998L-0.799805 3060.8H1919.2L1920.1 3060.7Z" fill="#2084FA"/>
<path d="M1920.1 3060.2H-1.7998V3061.2L-0.89978 3061.3H1919.2L1920.2 3061.2L1920.1 3060.2Z" fill="#2084FA"/>
<path d="M2128.1 3029.9H-209.8L-208.4 3030.1H2126.7L2128.1 3029.9Z" fill="#2084FA"/>
<path d="M2128.1 3029.4H-209.8V3030.4L-208.4 3030.6H2126.7L2128.2 3030.4L2128.1 3029.4Z" fill="#2084FA"/>
<path d="M2451 2982.1H-532.6L-530.3 2982.4H2448.7L2451 2982.1Z" fill="#2084FA"/>
<path d="M2451 2981.6H-532.6L-532.7 2982.6L-530.4 2982.9H2448.7L2451 2982.6V2981.6Z" fill="#2084FA"/>
<path d="M0.699829 3060.8H0.199829L-1096.6 2898.5H-1095.5L0.699829 3060.8Z" fill="#2084FA"/>
<path d="M-1096.6 2898V2899L0.0998535 3061.3H0.699829V3060.3L-1095.4 2898H-1096.6Z" fill="#2084FA"/>
<path d="M87.9 3060.8H87.4L-909.6 2898.5H-908.6L87.9 3060.8Z" fill="#2084FA"/>
<path d="M-909.6 2898L-909.7 2899L87.2997 3061.3H87.8998L87.9998 3060.3L-908.5 2898H-909.6Z" fill="#2084FA"/>
<path d="M175.2 3060.8H174.7L-722.7 2898.5H-721.6L175.2 3060.8Z" fill="#2084FA"/>
<path d="M-722.7 2898L-722.8 2899L174.6 3061.3H175.2L175.3 3060.3L-721.5 2898H-722.7Z" fill="#2084FA"/>
<path d="M262.4 3060.8H261.9L-535.8 2898.5H-534.7L262.4 3060.8Z" fill="#2084FA"/>
<path d="M-534.7 2898H-540.7L261.9 3061.3H267.4L-534.7 2898Z" fill="#2084FA"/>
<path d="M349.7 3060.8H349.2L-348.9 2898.5H-347.8L349.7 3060.8Z" fill="#2084FA"/>
<path d="M-347.7 2898H-353.2L349.2 3061.3H354L349.8 3060.3L-347.7 2898Z" fill="#2084FA"/>
<path d="M436.9 3060.8H436.4L-161.9 2898.5H-160.9L436.9 3060.8Z" fill="#2084FA"/>
<path d="M-160.8 2898H-165.7L436.4 3061.3H440.7L-160.8 2898Z" fill="#2084FA"/>
<path d="M524.2 3060.8H523.7L25 2898.5H26.1L524.2 3060.8Z" fill="#2084FA"/>
<path d="M26.1998 2898H21.7998L523.7 3061.3H527.3L26.1998 2898Z" fill="#2084FA"/>
<path d="M611.4 3060.8H610.9L211.9 2898.5H213L611.4 3060.8Z" fill="#2084FA"/>
<path d="M213.1 2898H209.4L610.9 3061.3H614L213.1 2898Z" fill="#2084FA"/>
<path d="M698.7 3060.8H698.2L398.9 2898.5H399.9L698.7 3060.8Z" fill="#2084FA"/>
<path d="M400.1 2898H396.9L698 3061.3H700.6L400.1 2898Z" fill="#2084FA"/>
<path d="M785.9 3060.8H785.4L585.8 2898.5H586.9L785.9 3060.8Z" fill="#2084FA"/>
<path d="M587 2898H584.4L785.2 3061.3H787.3L587 2898Z" fill="#2084FA"/>
<path d="M873.2 3060.8H872.7L772.7 2898.5H773.8L873.2 3060.8Z" fill="#2084FA"/>
<path d="M774.1 2898H771.8L872.4 3061.3H874.1L873.6 3060.5L774.1 2898Z" fill="#2084FA"/>
<path d="M960.4 3060.8H959.9L959.6 2898.5H960.7L960.4 3060.8Z" fill="#2084FA"/>
<path d="M961.2 2898H959.1L959.4 3061.3H960.9L961.2 2898ZM960.1 2899V2918.8V2899Z" fill="#2084FA"/>
<path d="M1047.7 3060.8H1047.2L1146.6 2898.5H1147.6L1047.7 3060.8Z" fill="#2084FA"/>
<path d="M1148.5 2898H1146.3L1046.3 3061.3H1047.9L1048.1 3061.1L1148.5 2898Z" fill="#2084FA"/>
<path d="M1134.9 3060.8H1134.4L1333.5 2898.5H1334.6L1134.9 3060.8Z" fill="#2084FA"/>
<path d="M1336 2898H1333.3L1333.2 2898.1L1133 3061.3H1135.1L1135.2 3061.2L1336 2898Z" fill="#2084FA"/>
<path d="M1222.2 3060.8H1221.7L1520.4 2898.5H1521.5L1222.2 3060.8Z" fill="#2084FA"/>
<path d="M1523.5 2898H1520.3H1520.2L1219.7 3061.3H1222.3L1222.4 3061.2L1523.5 2898Z" fill="#2084FA"/>
<path d="M1309.4 3060.8H1308.9L1707.3 2898.5H1708.4L1309.4 3060.8Z" fill="#2084FA"/>
<path d="M1711 2898H1707.2L1306.4 3061.3H1309.6L1711 2898Z" fill="#2084FA"/>
<path d="M1396.7 3060.8H1396.2L1894.3 2898.5H1895.3L1396.7 3060.8Z" fill="#2084FA"/>
<path d="M1898.5 2898H1894.1L1393 3061.3H1396.8L1898.5 2898Z" fill="#2084FA"/>
<path d="M1483.9 3060.8H1483.4L2081.2 2898.5H2082.3L1483.9 3060.8Z" fill="#2084FA"/>
<path d="M2086 2898H2081.1L1479.7 3061.3H1484.1L2086 2898Z" fill="#2084FA"/>
<path d="M1571.2 3060.8H1570.7L2268.1 2898.5H2269.2L1571.2 3060.8Z" fill="#2084FA"/>
<path d="M2273.6 2898H2268L1566.3 3061.3H1571.3L2273.6 2898Z" fill="#2084FA"/>
<path d="M1658.4 3060.8H1657.9L2455 2898.5H2456.1L1658.4 3060.8Z" fill="#2084FA"/>
<path d="M2461.1 2898H2454.9L1653 3061.3H1658.5L2461.1 2898Z" fill="#2084FA"/>
<path d="M1745.7 3060.8H1745.2L2642 2898.5H2643L1745.7 3060.8Z" fill="#2084FA"/>
<path d="M2643 2898H2642L1745.1 3060.3L1745.2 3061.3H1745.8L2643.1 2899L2643 2898Z" fill="#2084FA"/>
<path d="M1832.9 3060.8H1832.4L2828.9 2898.5H2830L1832.9 3060.8Z" fill="#2084FA"/>
<path d="M2830 2898H2828.9L1832.3 3060.3L1832.4 3061.3H1833L2830.1 2899L2830 2898Z" fill="#2084FA"/>
<path d="M1920.2 3060.8H1919.7L3015.8 2898.5H3016.9L1920.2 3060.8Z" fill="#2084FA"/>
<path d="M3016.9 2898H3015.8L1919.6 3060.3L1919.7 3061.3H1920.2L3017 2899L3016.9 2898Z" fill="#2084FA"/>
<path d="M-160.9 2898.5L-163.2 2897.8H22.9998L24.9998 2898.5H-160.9Z" fill="#2084FA"/>
<path d="M23.1 2897.3H-167L-160.9 2899H28.1L23.1 2897.3Z" fill="#2084FA"/>
<path d="M1521.5 2898.5L1522.7 2897.8H1708.9L1707.3 2898.5H1521.5Z" fill="#2084FA"/>
<path d="M1711.5 2897.3H1522.5L1519.5 2899L1707.5 2898.9L1711.5 2897.3Z" fill="#2084FA"/>
<path d="M1334.6 2898.5L1335.4 2897.8H1521.6L1520.4 2898.5H1334.6Z" fill="#2084FA"/>
<path d="M1523.6 2897.3H1335.2L1333.2 2899H1520.5L1523.6 2897.3Z" fill="#2084FA"/>
<path d="M1708.4 2898.5L1710 2897.8H1896.2L1894.3 2898.5H1708.4Z" fill="#2084FA"/>
<path d="M1899.4 2897.3L1709.8 2897.4L1705.9 2899L1894.4 2898.9L1899.4 2897.3Z" fill="#2084FA"/>
<path d="M1895.3 2898.5L1897.3 2897.8H2083.6L2081.2 2898.5H1895.3Z" fill="#2084FA"/>
<path d="M2087.3 2897.3H1897.2L1892.2 2899L2081.3 2898.9L2087.3 2897.3Z" fill="#2084FA"/>
<path d="M960.7 2898.5V2897.8H1147L1146.6 2898.5H960.7Z" fill="#2084FA"/>
<path d="M1147.8 2897.3H960.2V2899H1146.8L1147.8 2897.3Z" fill="#2084FA"/>
<path d="M1147.6 2898.5L1148 2897.8H1334.3L1333.5 2898.5H1147.6Z" fill="#2084FA"/>
<path d="M1335.7 2897.3H1147.8L1146.7 2899H1333.7L1335.7 2897.3Z" fill="#2084FA"/>
<path d="M2456.1 2898.5L2459.3 2897.8H2645.5L2642 2898.5H2456.1Z" fill="#2084FA"/>
<path d="M2645.5 2897.3H2459.2L2451.2 2899H2642L2645.6 2898.3L2645.5 2897.3Z" fill="#2084FA"/>
<path d="M2082.3 2898.5L2084.6 2897.8H2270.9L2268.1 2898.5H2082.3Z" fill="#2084FA"/>
<path d="M2275.2 2897.3H2084.5L2078.5 2899H2268.2L2275.2 2897.3Z" fill="#2084FA"/>
<path d="M2269.2 2898.5L2272 2897.8H2458.2L2455 2898.5H2269.2Z" fill="#2084FA"/>
<path d="M2463.2 2897.3H2271.8L2264.8 2899H2455.1L2463.2 2897.3Z" fill="#2084FA"/>
<path d="M773.8 2898.5L773.4 2897.8H959.6V2898.5H773.8Z" fill="#2084FA"/>
<path d="M960.1 2897.3H772.5L773.5 2899H960.1V2897.3Z" fill="#2084FA"/>
<path d="M26.1001 2898.5L24.1001 2897.8H210.3L211.9 2898.5H26.1001Z" fill="#2084FA"/>
<path d="M210.4 2897.3H21L26.1 2899H214.5L210.4 2897.3Z" fill="#2084FA"/>
<path d="M213 2898.5L211.4 2897.8H397.7L398.9 2898.5H213Z" fill="#2084FA"/>
<path d="M397.8 2897.3H208.9L213 2899H400.8L397.8 2897.3Z" fill="#2084FA"/>
<path d="M399.9 2898.5L398.7 2897.8H585L585.8 2898.5H399.9Z" fill="#2084FA"/>
<path d="M585.2 2897.3H396.8L399.8 2899H587.2L585.2 2897.3Z" fill="#2084FA"/>
<path d="M586.9 2898.5L586.1 2897.8H772.3L772.7 2898.5H586.9Z" fill="#2084FA"/>
<path d="M772.6 2897.3H584.7L586.7 2899H773.6L772.6 2897.3Z" fill="#2084FA"/>
<path d="M25 2898.5L23 2897.8H24.1L26.1 2898.5H25Z" fill="#2084FA"/>
<path d="M24.1998 2897.3H19.8999L24.9999 2899H29.1998L24.1998 2897.3Z" fill="#2084FA"/>
<path d="M211.9 2898.5L210.3 2897.8H211.4L213 2898.5H211.9Z" fill="#2084FA"/>
<path d="M211.5 2897.3H207.8L211.9 2899H215.5L211.5 2897.3Z" fill="#2084FA"/>
<path d="M398.9 2898.5L397.7 2897.8H398.7L399.9 2898.5H398.9Z" fill="#2084FA"/>
<path d="M398.9 2897.3H395.7L398.7 2899H401.9L398.9 2897.3Z" fill="#2084FA"/>
<path d="M585.8 2898.5L585 2897.8H586.1L586.9 2898.5H585.8Z" fill="#2084FA"/>
<path d="M586.2 2897.3H583.6L585.6 2899H588.3L586.2 2897.3Z" fill="#2084FA"/>
<path d="M772.7 2898.5L772.3 2897.8H773.4L773.8 2898.5H772.7Z" fill="#2084FA"/>
<path d="M773.7 2897.3H771.4L772.4 2899H774.7L773.7 2897.3Z" fill="#2084FA"/>
<path d="M959.6 2898.5V2897.8H960.7V2898.5H959.6Z" fill="#2084FA"/>
<path d="M961.2 2897.3H959.1V2899H961.2V2897.3Z" fill="#2084FA"/>
<path d="M1146.6 2898.5L1147 2897.8H1148L1147.6 2898.5H1146.6Z" fill="#2084FA"/>
<path d="M1148.9 2897.3H1146.7L1145.7 2899H1147.9L1148.9 2897.3Z" fill="#2084FA"/>
<path d="M1333.5 2898.5L1334.3 2897.8H1335.4L1334.6 2898.5H1333.5Z" fill="#2084FA"/>
<path d="M1336.8 2897.3H1334.1L1332.1 2899H1334.7L1336.8 2897.3Z" fill="#2084FA"/>
<path d="M1520.4 2898.5L1521.6 2897.8H1522.7L1521.5 2898.5H1520.4Z" fill="#2084FA"/>
<path d="M1524.6 2897.3H1521.5L1518.5 2899H1521.6L1524.6 2897.3Z" fill="#2084FA"/>
<path d="M1707.3 2898.5L1708.9 2897.8H1710L1708.4 2898.5H1707.3Z" fill="#2084FA"/>
<path d="M1712.5 2897.3L1708.7 2897.4L1704.8 2899L1708.6 2898.9L1712.5 2897.3Z" fill="#2084FA"/>
<path d="M1894.3 2898.5L1896.2 2897.8H1897.3L1895.3 2898.5H1894.3Z" fill="#2084FA"/>
<path d="M1900.5 2897.3H1896.1L1891.1 2899L1895.5 2898.9L1900.5 2897.3Z" fill="#2084FA"/>
<path d="M2081.2 2898.5L2083.6 2897.8H2084.6L2082.3 2898.5H2081.2Z" fill="#2084FA"/>
<path d="M2088.4 2897.3H2083.4L2077.5 2899L2082.4 2898.9L2088.4 2897.3Z" fill="#2084FA"/>
<path d="M2268.1 2898.5L2270.9 2897.8H2272L2269.2 2898.5H2268.1Z" fill="#2084FA"/>
<path d="M2276.3 2897.3H2270.8L2263.8 2899H2269.3L2276.3 2897.3Z" fill="#2084FA"/>
<path d="M2455 2898.5L2458.2 2897.8H2459.3L2456.1 2898.5H2455Z" fill="#2084FA"/>
<path d="M2464.2 2897.3H2458.1L2450.1 2899H2456.2L2464.2 2897.3Z" fill="#2084FA"/>
<g style="mix-blend-mode:color-dodge" opacity="0.4">
<path fill-rule="evenodd" clip-rule="evenodd" d="M0 3061.3V2901.3H1918V3061.3H0Z" fill="url(#paint1_radial_310_3853)"/>
</g>
<path d="M0.699829 873.3H-1.90015L-553.1 1001.6H-549L0.699829 873.3Z" fill="#2084FA"/>
<path d="M119.2 873.5H118.5L-361.2 1001.2H-360.1L119.2 873.5Z" fill="#2084FA"/>
<path d="M120.7 873.3H118.1L-364.2 1001.6H-360.1L120.7 873.3Z" fill="#2084FA"/>
<path d="M239.299 873.5H238.599L-172.601 1001.2H-171.501L239.299 873.5Z" fill="#2084FA"/>
<path d="M240.8 873.3H238.2L-175.4 1001.6H-171.3L240.8 873.3Z" fill="#2084FA"/>
<path d="M359.4 873.5H358.7L16 1001.2H17.1L359.4 873.5Z" fill="#2084FA"/>
<path d="M360.8 873.3H358.2L13.5 1001.6H17.6L360.8 873.3Z" fill="#2084FA"/>
<path d="M479.5 873.5H478.8L204.7 1001.2H205.7L479.5 873.5Z" fill="#2084FA"/>
<path d="M480.8 873.3H478.2L202.3 1001.6H206.4L480.8 873.3Z" fill="#2084FA"/>
<path d="M599.6 873.5H598.9L393.3 1001.2H394.4L599.6 873.5Z" fill="#2084FA"/>
<path d="M600.8 873.3H598.2L391.1 1001.6H395.2L600.8 873.3Z" fill="#2084FA"/>
<path d="M719.7 873.5H719L581.9 1001.2H583L719.7 873.5Z" fill="#2084FA"/>
<path d="M720.8 873.3H718.2L580 1001.6H584.1L720.8 873.3Z" fill="#2084FA"/>
<path d="M839.8 873.5H839.1L770.5 1001.2H771.6L839.8 873.5Z" fill="#2084FA"/>
<path d="M840.8 873.3H838.2L768.8 1001.6H772.9L840.8 873.3Z" fill="#2084FA"/>
<path d="M959.9 873.5H959.2V1001.2H960.3L959.9 873.5Z" fill="#2084FA"/>
<path d="M960.8 873.3H958.2L957.7 1001.6H961.8L960.8 873.3Z" fill="#2084FA"/>
<path d="M1080 873.5H1079.3L1147.8 1001.2H1148.9L1080 873.5Z" fill="#2084FA"/>
<path d="M1080.8 873.3H1078.2L1146.5 1001.6H1150.6L1080.8 873.3Z" fill="#2084FA"/>
<path d="M1200.1 873.5H1199.4L1336.4 1001.2H1337.5L1200.1 873.5Z" fill="#2084FA"/>
<path d="M1200.8 873.3H1198.2L1335.4 1001.6H1339.4L1200.8 873.3Z" fill="#2084FA"/>
<path d="M1320.2 873.5H1319.5L1525.1 1001.2H1526.1L1320.2 873.5Z" fill="#2084FA"/>
<path d="M1320.8 873.3H1318.2L1524.2 1001.6H1528.3L1320.8 873.3Z" fill="#2084FA"/>
<path d="M1440.2 873.5H1439.6L1713.7 1001.2H1714.8L1440.2 873.5Z" fill="#2084FA"/>
<path d="M1440.9 873.3H1438.3L1713 1001.6H1717.1L1440.9 873.3Z" fill="#2084FA"/>
<path d="M1560.3 873.5H1559.7L1902.3 1001.2H1903.4L1560.3 873.5Z" fill="#2084FA"/>
<path d="M1560.9 873.3H1558.3L1901.9 1001.6H1906L1560.9 873.3Z" fill="#2084FA"/>
<path d="M1680.4 873.5H1679.8L2090.9 1001.2H2092L1680.4 873.5Z" fill="#2084FA"/>
<path d="M1680.9 873.3H1678.3L2090.7 1001.6H2094.8L1680.9 873.3Z" fill="#2084FA"/>
<path d="M1800.5 873.5H1799.8L2279.6 1001.2H2280.6L1800.5 873.5Z" fill="#2084FA"/>
<path d="M1800.9 873.3H1798.3L2279.6 1001.6H2283.6L1800.9 873.3Z" fill="#2084FA"/>
<path d="M1920.6 873.5H1919.9L2468.2 1001.2H2469.3L1920.6 873.5Z" fill="#2084FA"/>
<path d="M1920.9 873.3H1918.3L2468.4 1001.6H2472.5L1920.9 873.3Z" fill="#2084FA"/>
<path d="M2040.7 873.5H2040L2656.8 1001.2H2657.9L2040.7 873.5Z" fill="#2084FA"/>
<path d="M2040.9 873.3H2038.3L2657.2 1001.6H2661.3L2040.9 873.3Z" fill="#2084FA"/>
<path d="M2160.8 873.5H2160.1L2845.5 1001.2H2846.5L2160.8 873.5Z" fill="#2084FA"/>
<path d="M2160.9 873.3H2158.3L2846.1 1001.6H2850.2L2160.9 873.3Z" fill="#2084FA"/>
<path d="M2280.9 873.5H2280.2L3034.1 1001.2H3035.2L2280.9 873.5Z" fill="#2084FA"/>
<path d="M2280.9 873.3H2278.3L3034.9 1001.6H3039L2280.9 873.3Z" fill="#2084FA"/>
<path d="M3033.5 1000.9H-1114.1L-1115.7 1001.2H3035.2L3033.5 1000.9Z" fill="#2084FA"/>
<path d="M3032.96 999.022L3032.83 999H3032.7H-1113.3H-1113.43L-1113.56 999.022L-1119.86 1000.12L-1119.6 1003.1H3039L3039.26 1000.12L3032.96 999.022Z" fill="#2084FA" stroke="#2084FA" stroke-width="3" stroke-miterlimit="10"/>
<path d="M2774.9 957.1H-855.6L-856.8 957.3H2776.1L2774.9 957.1Z" fill="#2084FA"/>
<path d="M2774.4 956.8H-855.1L-859.9 957.6H2779.2L2774.4 956.8Z" fill="#2084FA"/>
<path d="M2573.6 923H-654.4L-655.4 923.201H2574.6L2573.6 923Z" fill="#2084FA"/>
<path d="M2573.3 922.8H-654.1L-658 923.4H2577.2L2573.3 922.8Z" fill="#2084FA"/>
<path d="M2412.5 895.7H-493.4L-494.2 895.9H2413.3L2412.5 895.7Z" fill="#2084FA"/>
<path d="M2412.4 895.5H-493.3L-496.4 896.1H2415.5L2412.4 895.5Z" fill="#2084FA"/>
<path d="M2280.6 873.4H-361.5L-362.2 873.5H2281.2L2280.6 873.4Z" fill="#2084FA"/>
<path d="M2280.6 873.2H-361.6L-364.1 873.7H2283.2L2280.6 873.2Z" fill="#2084FA"/>
<path d="M1560.3 873.5H1559.7L1902.3 1001.2H1903.4L1560.3 873.5Z" fill="#2084FA"/>
<path d="M1560.9 873.3H1558.3L1901.9 1001.6H1906L1560.9 873.3Z" fill="#2084FA"/>
<path d="M1680.4 873.5H1679.8L2090.9 1001.2H2092L1680.4 873.5Z" fill="#2084FA"/>
<path d="M1680.9 873.3H1678.3L2090.7 1001.6H2094.8L1680.9 873.3Z" fill="#2084FA"/>
<path d="M1800.5 873.5H1799.8L2279.6 1001.2H2280.6L1800.5 873.5Z" fill="#2084FA"/>
<path d="M1800.9 873.3H1798.3L2279.6 1001.6H2283.6L1800.9 873.3Z" fill="#2084FA"/>
<path d="M1920.6 873.5H1919.9L2468.2 1001.2H2469.3L1920.6 873.5Z" fill="#2084FA"/>
<path d="M1920.9 873.3H1918.3L2468.4 1001.6H2472.5L1920.9 873.3Z" fill="#2084FA"/>
<path d="M2040.7 873.5H2040L2656.8 1001.2H2657.9L2040.7 873.5Z" fill="#2084FA"/>
<path d="M2040.9 873.3H2038.3L2657.2 1001.6H2661.3L2040.9 873.3Z" fill="#2084FA"/>
<path d="M2160.8 873.5H2160.1L2845.5 1001.2H2846.5L2160.8 873.5Z" fill="#2084FA"/>
<path d="M2160.9 873.3H2158.3L2846.1 1001.6H2850.2L2160.9 873.3Z" fill="#2084FA"/>
<path d="M2280.9 873.5H2280.2L3034.1 1001.2H3035.2L2280.9 873.5Z" fill="#2084FA"/>
<path d="M2280.9 873.3H2278.3L3034.9 1001.6H3039L2280.9 873.3Z" fill="#2084FA"/>
<path d="M2401 873.5H2400.3L3222.7 1001.2H3223.8L2401 873.5Z" fill="#2084FA"/>
<path d="M2400.9 873.3H2398.3L3223.8 1001.6H3227.9L2400.9 873.3Z" fill="#2084FA"/>
<path d="M2521.1 873.5H2520.4L3411.3 1001.2H3412.4L2521.1 873.5Z" fill="#2084FA"/>
<path d="M2520.9 873.3H2518.3L3412.6 1001.6H3416.7L2520.9 873.3Z" fill="#2084FA"/>
<path d="M1757.9 1001.2L1757.5 1000.9H4161.8L4158.2 1000.5H1756L1757.6 1001.6H4168L4164.3 1001.2H1757.9Z" fill="#2084FA"/>
<path d="M1757.9 1001.2H4164.3L4161.8 1000.9H1757.5L1757.9 1001.2Z" fill="#2084FA"/>
<path d="M1689.6 957.3L1689.3 957.1H3762.5L3759.7 956.8H1688L1689.3 957.6H3767.2L3764.4 957.3H1689.6Z" fill="#2084FA"/>
<path d="M1689.3 957.1L1689.6 957.3H3764.4L3762.5 957.1H1689.3Z" fill="#2084FA"/>
<path d="M1636.4 923.2L1636.2 923H3451.7L3449.5 922.8H1635.1L1636.1 923.4H3455.4L3453.2 923.2H1636.4Z" fill="#2084FA"/>
<path d="M1636.2 923L1636.4 923.2H3453.2L3451.7 923H1636.2Z" fill="#2084FA"/>
<path d="M1593.9 895.9L1593.7 895.7H3202.9L3201.2 895.5H1592.8L1593.6 896.1H3206L3204.2 895.9H1593.9Z" fill="#2084FA"/>
<path d="M1593.7 895.7L1593.9 895.9H3204.2L3202.9 895.7H1593.7Z" fill="#2084FA"/>
<path d="M1559.1 873.5L1558.9 873.4H2999.3L2998.4 873.3H3001L3001.9 873.4H3092.4L3093.3 873.5H3003L3004.4 873.7H3095.3L3091.6 873.2H1558.1L1558.8 873.7H3001.8L3000.4 873.5H1559.1Z" fill="#2084FA"/>
<path d="M1558.9 873.4L1559.1 873.5H3000.4L2999.3 873.4H1558.9Z" fill="#2084FA"/>
<path d="M79.8997 813.6H79.3997L-239.8 873.1H-239.1L79.8997 813.6Z" fill="#2084FA"/>
<path d="M80.9999 813.5H79.0999L-241.6 873.2H-239L80.9999 813.5Z" fill="#2084FA"/>
<path d="M167.8 813.6H167.3L-119.9 873.1H-119.2L167.8 813.6Z" fill="#2084FA"/>
<path d="M169 813.5H167.1L-121.6 873.2H-119L169 813.5Z" fill="#2084FA"/>
<path d="M255.8 813.6H255.3L0 873.1H0.699951L255.8 813.6Z" fill="#2084FA"/>
<path d="M256.9 813.5H255L-1.6001 873.2H0.999878L256.9 813.5Z" fill="#2084FA"/>
<path d="M343.8 813.6H343.3L119.9 873.1H120.6L343.8 813.6Z" fill="#2084FA"/>
<path d="M344.8 813.5H342.9L118.4 873.2H121L344.8 813.5Z" fill="#2084FA"/>
<path d="M431.8 813.6H431.3L239.8 873.1H240.5L431.8 813.6Z" fill="#2084FA"/>
<path d="M432.8 813.5H430.9L238.3 873.2H240.9L432.8 813.5Z" fill="#2084FA"/>
<path d="M519.8 813.6H519.3L359.7 873.1H360.4L519.8 813.6Z" fill="#2084FA"/>
<path d="M520.7 813.5H518.8L358.3 873.2H360.9L520.7 813.5Z" fill="#2084FA"/>
<path d="M607.8 813.6H607.2L479.6 873.1H480.3L607.8 813.6Z" fill="#2084FA"/>
<path d="M608.6 813.5H606.7L478.3 873.2H480.9L608.6 813.5Z" fill="#2084FA"/>
<path d="M695.7 813.6H695.2L599.5 873.1H600.2L695.7 813.6Z" fill="#2084FA"/>
<path d="M696.6 813.5H694.7L598.3 873.2H600.9L696.6 813.5Z" fill="#2084FA"/>
<path d="M783.7 813.6H783.2L719.4 873.1H720.1L783.7 813.6Z" fill="#2084FA"/>
<path d="M784.5 813.5H782.6L718.3 873.2H720.9L784.5 813.5Z" fill="#2084FA"/>
<path d="M871.7 813.6H871.2L839.3 873.1H840L871.7 813.6Z" fill="#2084FA"/>
<path d="M872.4 813.5H870.5L838.2 873.2H840.8L872.4 813.5Z" fill="#2084FA"/>
<path d="M959.7 813.6H959.2V873.1H959.9L959.7 813.6Z" fill="#2084FA"/>
<path d="M960.4 813.5H958.5L958.2 873.2H960.8L960.4 813.5Z" fill="#2084FA"/>
<path d="M1047.7 813.6H1047.2L1079.1 873.1H1079.8L1047.7 813.6Z" fill="#2084FA"/>
<path d="M1048.3 813.5H1046.4L1078.2 873.2H1080.8L1048.3 813.5Z" fill="#2084FA"/>
<path d="M1135.6 813.6H1135.1L1199 873.1H1199.6L1135.6 813.6Z" fill="#2084FA"/>
<path d="M1136.2 813.5H1134.3L1198.2 873.2H1200.8L1136.2 813.5Z" fill="#2084FA"/>
<path d="M1223.6 813.6H1223.1L1318.9 873.1H1319.5L1223.6 813.6Z" fill="#2084FA"/>
<path d="M1224.2 813.5H1222.3L1318.2 873.2H1320.8L1224.2 813.5Z" fill="#2084FA"/>
<path d="M1311.6 813.6H1311.1L1438.7 873.1H1439.4L1311.6 813.6Z" fill="#2084FA"/>
<path d="M1312.1 813.5H1310.2L1438.1 873.2H1440.7L1312.1 813.5Z" fill="#2084FA"/>
<path d="M1399.6 813.6H1399.1L1558.6 873.1H1559.3L1399.6 813.6Z" fill="#2084FA"/>
<path d="M1400.1 813.5H1398.2L1558.1 873.2H1560.7L1400.1 813.5Z" fill="#2084FA"/>
<path d="M1487.6 813.6H1487.1L1678.5 873.1H1679.2L1487.6 813.6Z" fill="#2084FA"/>
<path d="M1488 813.5H1486.1L1678.1 873.2H1680.7L1488 813.5Z" fill="#2084FA"/>
<path d="M1575.6 813.6H1575L1798.4 873.1H1799.1L1575.6 813.6Z" fill="#2084FA"/>
<path d="M1575.9 813.5H1574L1798.1 873.2H1800.7L1575.9 813.5Z" fill="#2084FA"/>
<path d="M1663.5 813.6H1663L1918.3 873.1H1919L1663.5 813.6Z" fill="#2084FA"/>
<path d="M1663.9 813.5H1662L1918.1 873.2H1920.6L1663.9 813.5Z" fill="#2084FA"/>
<path d="M1751.5 813.6H1751L2038.2 873.1H2038.9L1751.5 813.6Z" fill="#2084FA"/>
<path d="M1751.8 813.5H1749.9L2038 873.2H2040.6L1751.8 813.5Z" fill="#2084FA"/>
<path d="M1839.5 813.6H1839L2158.1 873.1H2158.8L1839.5 813.6Z" fill="#2084FA"/>
<path d="M1839.7 813.5H1837.8L2158 873.2H2160.6L1839.7 813.5Z" fill="#2084FA"/>
<path d="M1927.5 813.6H1927L2278 873.1H2278.7L1927.5 813.6Z" fill="#2084FA"/>
<path d="M1927.7 813.5H1925.8L2278 873.2H2280.6L1927.7 813.5Z" fill="#2084FA"/>
<path d="M2278 873H-359L-359.6 873.1H2278.7L2278 873Z" fill="#2084FA"/>
<path d="M2278 872.8H-359L-361.6 873.2H2280.6L2278 872.8Z" fill="#2084FA"/>
<path d="M2168.5 854.4H-249.5L-250.1 854.5H2169.1L2168.5 854.4Z" fill="#2084FA"/>
<path d="M2168.6 854.3H-249.6L-251.7 854.7H2170.7L2168.6 854.3Z" fill="#2084FA"/>
<path d="M2075.8 838.7H-156.8L-157.3 838.8H2076.2L2075.8 838.7Z" fill="#2084FA"/>
<path d="M2075.9 838.6H-157L-158.8 838.9H2077.7L2075.9 838.6Z" fill="#2084FA"/>
<path d="M1996.4 825.2H-77.5001L-79.1001 825.4H1998L1996.4 825.2Z" fill="#2084FA"/>
<path d="M1927.64 812.51L1927.57 812.5H1927.5H-8.59998H-8.67104L-8.74139 812.51L-10.1414 812.71L-10 814.7H1928.9L1929.04 812.71L1927.64 812.51Z" fill="#2084FA" stroke="#2084FA" stroke-width="2" stroke-miterlimit="10"/>
<path d="M1399.6 813.6H1399.1L1558.6 873.1H1559.3L1399.6 813.6Z" fill="#2084FA"/>
<path d="M1400.1 813.5H1398.2L1558.1 873.2H1560.7L1400.1 813.5Z" fill="#2084FA"/>
<path d="M1487.6 813.6H1487.1L1678.5 873.1H1679.2L1487.6 813.6Z" fill="#2084FA"/>
<path d="M1488 813.5H1486.1L1678.1 873.2H1680.7L1488 813.5Z" fill="#2084FA"/>
<path d="M1575.6 813.6H1575L1798.4 873.1H1799.1L1575.6 813.6Z" fill="#2084FA"/>
<path d="M1575.9 813.5H1574L1798.1 873.2H1800.7L1575.9 813.5Z" fill="#2084FA"/>
<path d="M1663.5 813.6H1663L1918.3 873.1H1919L1663.5 813.6Z" fill="#2084FA"/>
<path d="M1663.9 813.5H1662L1918.1 873.2H1920.6L1663.9 813.5Z" fill="#2084FA"/>
<path d="M1751.5 813.6H1751L2038.2 873.1H2038.9L1751.5 813.6Z" fill="#2084FA"/>
<path d="M1751.8 813.5H1749.9L2038 873.2H2040.6L1751.8 813.5Z" fill="#2084FA"/>
<path d="M1839.5 813.6H1839L2158.1 873.1H2158.8L1839.5 813.6Z" fill="#2084FA"/>
<path d="M1839.7 813.5H1837.8L2158 873.2H2160.6L1839.7 813.5Z" fill="#2084FA"/>
<path d="M1927.5 813.6H1927L2278 873.1H2278.7L1927.5 813.6Z" fill="#2084FA"/>
<path d="M1927.7 813.5H1925.8L2278 873.2H2280.6L1927.7 813.5Z" fill="#2084FA"/>
<path d="M2015.5 813.6H2015L2397.9 873.1H2398.6L2015.5 813.6Z" fill="#2084FA"/>
<path d="M2015.6 813.5H2013.7L2398 873.2H2400.6L2015.6 813.5Z" fill="#2084FA"/>
<path d="M2103.4 813.6H2102.9L2517.8 873.1H2518.5L2103.4 813.6Z" fill="#2084FA"/>
<path d="M2103.5 813.5H2101.6L2517.9 873.2H2520.5L2103.5 813.5Z" fill="#2084FA"/>
<path d="M2191.4 813.6H2190.9L2637.7 873.1H2638.4L2191.4 813.6Z" fill="#2084FA"/>
<path d="M2191.5 813.5H2189.6L2637.9 873.2H2640.5L2191.5 813.5Z" fill="#2084FA"/>
<path d="M2279.4 813.6H2278.9L2757.6 873.1H2758.3L2279.4 813.6Z" fill="#2084FA"/>
<path d="M2279.4 813.5H2277.5L2757.9 873.2H2760.5L2279.4 813.5Z" fill="#2084FA"/>
<path d="M2367.4 813.6H2366.9L2877.5 873.1H2878.1L2367.4 813.6Z" fill="#2084FA"/>
<path d="M2367.3 813.5H2365.4L2877.9 873.2H2880.5L2367.3 813.5Z" fill="#2084FA"/>
<path d="M2455.4 813.6H2454.9L2997.4 873.1H2998L2455.4 813.6Z" fill="#2084FA"/>
<path d="M2455.3 813.5H2453.4L2997.9 873.2H3000.5L2455.3 813.5Z" fill="#2084FA"/>
<path d="M3815.7 873H1536.6L1536.8 873.1H3817.1L3815.7 873Z" fill="#2084FA"/>
<path d="M3814.5 872.8H1535.4L1536.4 873.2H3819.9L3814.5 872.8Z" fill="#2084FA"/>
<path d="M3583.4 854.4H1493.6L1493.8 854.5H3584.6L3583.4 854.4Z" fill="#2084FA"/>
<path d="M3582.5 854.3H1492.5L1493.4 854.7H3587.1L3582.5 854.3Z" fill="#2084FA"/>
<path d="M3386.8 838.7H1457.2L1457.4 838.8H3387.8L3386.8 838.7Z" fill="#2084FA"/>
<path d="M3386 838.6H1456.2L1456.9 838.9H3389.9L3386 838.6Z" fill="#2084FA"/>
<path d="M3217.5 825.2H1425.1L1425.7 825.4H3220.9L3217.5 825.2Z" fill="#2084FA"/>
<path d="M3071.47 812.502L3071.43 812.5H3071.4H1398.1H1392.91L1397.73 814.428L1398.23 814.628L1398.41 814.7H1398.6H3074.3L3074.37 812.702L3071.47 812.502Z" fill="#2084FA" stroke="#2084FA" stroke-width="2" stroke-miterlimit="10"/>
<g opacity="0.05" filter="url(#filter3_b_310_3853)">
<rect y="999" width="2543" height="1711" fill="black"/>
</g>
<path style="mix-blend-mode:overlay" opacity="0.5" d="M2520 0H0V997H2520V0Z" fill="url(#paint2_radial_310_3853)"/>
<defs>
<filter id="filter0_f_310_3853" x="-1119" y="997.5" width="4159" height="771.4" filterUnits="userSpaceOnUse" color-interpolation-filters="sRGB">
<feFlood flood-opacity="0" result="BackgroundImageFix"/>
<feBlend mode="normal" in="SourceGraphic" in2="BackgroundImageFix" result="shape"/>
<feGaussianBlur stdDeviation="2.5" result="effect1_foregroundBlur_310_3853"/>
</filter>
<filter id="filter1_f_310_3853" x="-1119" y="1759" width="4159" height="771.4" filterUnits="userSpaceOnUse" color-interpolation-filters="sRGB">
<feFlood flood-opacity="0" result="BackgroundImageFix"/>
<feBlend mode="normal" in="SourceGraphic" in2="BackgroundImageFix" result="shape"/>
<feGaussianBlur stdDeviation="2.5" result="effect1_foregroundBlur_310_3853"/>
</filter>
<filter id="filter2_f_310_3853" x="-1119" y="2134" width="4159" height="771.4" filterUnits="userSpaceOnUse" color-interpolation-filters="sRGB">
<feFlood flood-opacity="0" result="BackgroundImageFix"/>
<feBlend mode="normal" in="SourceGraphic" in2="BackgroundImageFix" result="shape"/>
<feGaussianBlur stdDeviation="2.5" result="effect1_foregroundBlur_310_3853"/>
</filter>
<filter id="filter3_b_310_3853" x="-300" y="699" width="3143" height="2311" filterUnits="userSpaceOnUse" color-interpolation-filters="sRGB">
<feFlood flood-opacity="0" result="BackgroundImageFix"/>
<feGaussianBlur in="BackgroundImage" stdDeviation="150"/>
<feComposite in2="SourceAlpha" operator="in" result="effect1_backgroundBlur_310_3853"/>
<feBlend mode="normal" in="SourceGraphic" in2="effect1_backgroundBlur_310_3853" result="shape"/>
</filter>
<linearGradient id="paint0_linear_310_3853" x1="1260.5" y1="3242" x2="1260.5" y2="816" gradientUnits="userSpaceOnUse">
<stop stop-color="#000022"/>
<stop offset="0.503125" stop-color="#00003E"/>
<stop offset="1" stop-color="#000025"/>
</linearGradient>
<radialGradient id="paint1_radial_310_3853" cx="0" cy="0" r="1" gradientUnits="userSpaceOnUse" gradientTransform="translate(959 3082.3) rotate(-90.0739) scale(381.682 2022.28)">
<stop stop-color="white"/>
<stop offset="1" stop-color="#791D1D" stop-opacity="0.41"/>
</radialGradient>
<radialGradient id="paint2_radial_310_3853" cx="0" cy="0" r="1" gradientUnits="userSpaceOnUse" gradientTransform="translate(932 498.5) rotate(0.758338) scale(1958.58 1162.36)">
<stop stop-color="#0055AD"/>
<stop offset="1" stop-color="#002766"/>
</radialGradient>
</defs>
</svg>
