<svg width="2521" height="2432" viewBox="0 0 2521 2432" fill="none" xmlns="http://www.w3.org/2000/svg">
<path d="M2521.6 2431H0.600098V5H2521.6V2431Z" fill="url(#paint0_linear_310_3854)"/>
<path d="M1.1001 2430.5H0.600098V2250.6H1.1001V2430.5Z" fill="#2084FA"/>
<path d="M1.40027 2430.8H0.200195V2250.4H1.40027V2430.8Z" fill="#2084FA"/>
<path d="M88.3003 2430.5H87.8003V2250.6H88.3003V2430.5Z" fill="#2084FA"/>
<path d="M88.6003 2430.8H87.4004V2250.4H88.6003V2430.8Z" fill="#2084FA"/>
<path d="M175.6 2430.5H175.1V2250.6H175.6V2430.5Z" fill="#2084FA"/>
<path d="M175.9 2430.8H174.7V2250.4H175.9V2430.8Z" fill="#2084FA"/>
<path d="M262.8 2430.5H262.3V2250.6H262.8V2430.5Z" fill="#2084FA"/>
<path d="M263.1 2430.8H261.9V2250.4H263.1V2430.8Z" fill="#2084FA"/>
<path d="M350.1 2430.5H349.6V2250.6H350.1V2430.5Z" fill="#2084FA"/>
<path d="M350.4 2430.8H349.2V2250.4H350.4V2430.8Z" fill="#2084FA"/>
<path d="M437.3 2430.5H436.8V2250.6H437.3V2430.5Z" fill="#2084FA"/>
<path d="M437.6 2430.8H436.4V2250.4H437.6V2430.8Z" fill="#2084FA"/>
<path d="M524.6 2430.5H524.1V2250.6H524.6V2430.5Z" fill="#2084FA"/>
<path d="M524.9 2430.8H523.7V2250.4H524.9V2430.8Z" fill="#2084FA"/>
<path d="M611.8 2430.5H611.3V2250.6H611.8V2430.5Z" fill="#2084FA"/>
<path d="M612.1 2430.8H610.9V2250.4H612.1V2430.8Z" fill="#2084FA"/>
<path d="M699.1 2430.5H698.6V2250.6H699.1V2430.5Z" fill="#2084FA"/>
<path d="M699.4 2430.8H698.2V2250.4H699.4V2430.8Z" fill="#2084FA"/>
<path d="M786.3 2430.5H785.8V2250.6H786.3V2430.5Z" fill="#2084FA"/>
<path d="M786.6 2430.8H785.4V2250.4H786.6V2430.8Z" fill="#2084FA"/>
<path d="M873.6 2430.5H873.1V2250.6H873.6V2430.5Z" fill="#2084FA"/>
<path d="M873.9 2430.8H872.7V2250.4H873.9V2430.8Z" fill="#2084FA"/>
<path d="M960.8 2430.5H960.3V2250.6H960.8V2430.5Z" fill="#2084FA"/>
<path d="M961.1 2430.8H959.9V2250.4H961.1V2430.8Z" fill="#2084FA"/>
<path d="M1048.1 2430.5H1047.6V2250.6H1048.1V2430.5Z" fill="#2084FA"/>
<path d="M1048.4 2430.8H1047.2V2250.4H1048.4V2430.8Z" fill="#2084FA"/>
<path d="M1135.3 2430.5H1134.8V2250.6H1135.3V2430.5Z" fill="#2084FA"/>
<path d="M1135.6 2430.8H1134.4V2250.4H1135.6V2430.8Z" fill="#2084FA"/>
<path d="M1222.6 2430.5H1222.1V2250.6H1222.6V2430.5Z" fill="#2084FA"/>
<path d="M1222.9 2430.8H1221.7V2250.4H1222.9V2430.8Z" fill="#2084FA"/>
<path d="M1309.8 2430.5H1309.3V2250.6H1309.8V2430.5Z" fill="#2084FA"/>
<path d="M1310.1 2430.8H1308.9V2250.4H1310.1V2430.8Z" fill="#2084FA"/>
<path d="M1397.1 2430.5H1396.6V2250.6H1397.1V2430.5Z" fill="#2084FA"/>
<path d="M1397.4 2430.8H1396.2V2250.4H1397.4V2430.8Z" fill="#2084FA"/>
<path d="M1484.3 2430.5H1483.8V2250.6H1484.3V2430.5Z" fill="#2084FA"/>
<path d="M1484.6 2430.8H1483.4V2250.4H1484.6V2430.8Z" fill="#2084FA"/>
<path d="M1571.6 2430.5H1571.1V2250.6H1571.6V2430.5Z" fill="#2084FA"/>
<path d="M1571.9 2430.8H1570.7V2250.4H1571.9V2430.8Z" fill="#2084FA"/>
<path d="M1658.8 2430.5H1658.3V2250.6H1658.8V2430.5Z" fill="#2084FA"/>
<path d="M1659.1 2430.8H1657.9V2250.4H1659.1V2430.8Z" fill="#2084FA"/>
<path d="M1746.1 2430.5H1745.6V2250.6H1746.1V2430.5Z" fill="#2084FA"/>
<path d="M1746.4 2430.8H1745.2V2250.4H1746.4V2430.8Z" fill="#2084FA"/>
<path d="M1833.3 2430.5H1832.8V2250.6H1833.3V2430.5Z" fill="#2084FA"/>
<path d="M1833.6 2430.8H1832.4V2250.4H1833.6V2430.8Z" fill="#2084FA"/>
<path d="M1920.6 2430.5H1920.1V2250.6H1920.6V2430.5Z" fill="#2084FA"/>
<path d="M1920.9 2430.8H1919.7V2250.4H1920.9V2430.8Z" fill="#2084FA"/>
<path d="M1920.6 2429H0.600098V2428.5H1920.6V2429Z" fill="#2084FA"/>
<path d="M1923.6 2432H-2.3999V2425.5H1923.6V2432Z" fill="#2084FA"/>
<path d="M1920.6 2426.4H0.600098V2425.9H1920.6V2426.4Z" fill="#2084FA"/>
<path d="M1921 2426.8H0.200195V2425.6H1921V2426.8Z" fill="#2084FA"/>
<path d="M1920.6 2338.7H0.600098V2338.2H1920.6V2338.7Z" fill="#2084FA"/>
<path d="M1921 2339.1H0.200195V2337.9H1921V2339.1Z" fill="#2084FA"/>
<path d="M1920.6 2251H0.600098V2250.5H1920.6V2251Z" fill="#2084FA"/>
<path d="M1921 2251.4H0.200195V2250.2H1921V2251.4Z" fill="#2084FA"/>
<g opacity="0.2" filter="url(#filter0_f_310_3854)">
<path d="M19.6 951.4H18.5V193.5H19.6V951.4Z" fill="#2084FA"/>
<path d="M21.1 952.9H17V192H21.1V952.9Z" fill="#2084FA"/>
<path d="M208 951.4H206.9V193.5H208V951.4Z" fill="#2084FA"/>
<path d="M209.5 952.9H205.4V192H209.5V952.9Z" fill="#2084FA"/>
<path d="M396.4 951.4H395.3V193.5H396.4V951.4Z" fill="#2084FA"/>
<path d="M397.9 952.9H393.8V192H397.9V952.9Z" fill="#2084FA"/>
<path d="M584.8 951.4H583.7V193.5H584.8V951.4Z" fill="#2084FA"/>
<path d="M586.3 952.9H582.2V192H586.3V952.9Z" fill="#2084FA"/>
<path d="M773.2 951.4H772.1V193.5H773.2V951.4Z" fill="#2084FA"/>
<path d="M774.7 952.9H770.6V192H774.7V952.9Z" fill="#2084FA"/>
<path d="M961.6 951.4H960.5V193.5H961.6V951.4Z" fill="#2084FA"/>
<path d="M963.1 952.9H959V192H963.1V952.9Z" fill="#2084FA"/>
<path d="M1150 951.4H1148.9V193.5H1150V951.4Z" fill="#2084FA"/>
<path d="M1151.5 952.9H1147.4V192H1151.5V952.9Z" fill="#2084FA"/>
<path d="M1338.4 951.4H1337.3V193.5H1338.4V951.4Z" fill="#2084FA"/>
<path d="M1339.9 952.9H1335.8V192H1339.9V952.9Z" fill="#2084FA"/>
<path d="M1526.8 951.4H1525.7V193.5H1526.8V951.4Z" fill="#2084FA"/>
<path d="M1528.3 952.9H1524.2V192H1528.3V952.9Z" fill="#2084FA"/>
<path d="M1715.3 951.4H1714.2V193.5H1715.3V951.4Z" fill="#2084FA"/>
<path d="M1716.8 952.9H1712.7V192H1716.8V952.9Z" fill="#2084FA"/>
<path d="M1903.7 951.4H1902.6V193.5H1903.7V951.4Z" fill="#2084FA"/>
<path d="M1905.2 952.9H1901.1V192H1905.2V952.9Z" fill="#2084FA"/>
<path d="M2092.1 951.4H2091V193.5H2092.1V951.4Z" fill="#2084FA"/>
<path d="M2093.6 952.9H2089.5V192H2093.6V952.9Z" fill="#2084FA"/>
<path d="M2280.5 951.4H2279.4V193.5H2280.5V951.4Z" fill="#2084FA"/>
<path d="M2282 952.9H2277.9V192H2282V952.9Z" fill="#2084FA"/>
<path d="M2468.9 951.4H2467.8V193.5H2468.9V951.4Z" fill="#2084FA"/>
<path d="M2470.4 952.9H2466.3V192H2470.4V952.9Z" fill="#2084FA"/>
<path d="M3034.1 951.4H-1111.9V950.4H3034.1V951.4Z" fill="#2084FA"/>
<path d="M3035.6 952.9H-1113.4V948.9H3035.6V952.9Z" fill="#2084FA"/>
<path d="M3034.1 762.1H-1111.9V761.1H3034.1V762.1Z" fill="#2084FA"/>
<path d="M3035.6 763.6H-1113.4V759.6H3035.6V763.6Z" fill="#2084FA"/>
<path d="M3034.1 572.7H-1111.9V571.7H3034.1V572.7Z" fill="#2084FA"/>
<path d="M3035.6 574.2H-1113.4V570.2H3035.6V574.2Z" fill="#2084FA"/>
<path d="M3034.1 383.3H-1111.9V382.3H3034.1V383.3Z" fill="#2084FA"/>
<path d="M3035.6 384.8H-1113.4V380.8H3035.6V384.8Z" fill="#2084FA"/>
<path d="M3034.1 194H-1111.9V193H3034.1V194Z" fill="#2084FA"/>
<path d="M3035.6 195.5H-1113.4V191.5H3035.6V195.5Z" fill="#2084FA"/>
</g>
<g opacity="0.2" filter="url(#filter1_f_310_3854)">
<path d="M19.6 1712.9H18.5V955H19.6V1712.9Z" fill="#2084FA"/>
<path d="M21.1 1714.4H17V953.5H21.1V1714.4Z" fill="#2084FA"/>
<path d="M208 1712.9H206.9V955H208V1712.9Z" fill="#2084FA"/>
<path d="M209.5 1714.4H205.4V953.5H209.5V1714.4Z" fill="#2084FA"/>
<path d="M396.4 1712.9H395.3V955H396.4V1712.9Z" fill="#2084FA"/>
<path d="M397.9 1714.4H393.8V953.5H397.9V1714.4Z" fill="#2084FA"/>
<path d="M584.8 1712.9H583.7V955H584.8V1712.9Z" fill="#2084FA"/>
<path d="M586.3 1714.4H582.2V953.5H586.3V1714.4Z" fill="#2084FA"/>
<path d="M773.2 1712.9H772.1V955H773.2V1712.9Z" fill="#2084FA"/>
<path d="M774.7 1714.4H770.6V953.5H774.7V1714.4Z" fill="#2084FA"/>
<path d="M961.6 1712.9H960.5V955H961.6V1712.9Z" fill="#2084FA"/>
<path d="M963.1 1714.4H959V953.5H963.1V1714.4Z" fill="#2084FA"/>
<path d="M1150 1712.9H1148.9V955H1150V1712.9Z" fill="#2084FA"/>
<path d="M1151.5 1714.4H1147.4V953.5H1151.5V1714.4Z" fill="#2084FA"/>
<path d="M1338.4 1712.9H1337.3V955H1338.4V1712.9Z" fill="#2084FA"/>
<path d="M1339.9 1714.4H1335.8V953.5H1339.9V1714.4Z" fill="#2084FA"/>
<path d="M1526.8 1712.9H1525.7V955H1526.8V1712.9Z" fill="#2084FA"/>
<path d="M1528.3 1714.4H1524.2V953.5H1528.3V1714.4Z" fill="#2084FA"/>
<path d="M1715.3 1712.9H1714.2V955H1715.3V1712.9Z" fill="#2084FA"/>
<path d="M1716.8 1714.4H1712.7V953.5H1716.8V1714.4Z" fill="#2084FA"/>
<path d="M1903.7 1712.9H1902.6V955H1903.7V1712.9Z" fill="#2084FA"/>
<path d="M1905.2 1714.4H1901.1V953.5H1905.2V1714.4Z" fill="#2084FA"/>
<path d="M2092.1 1712.9H2091V955H2092.1V1712.9Z" fill="#2084FA"/>
<path d="M2093.6 1714.4H2089.5V953.5H2093.6V1714.4Z" fill="#2084FA"/>
<path d="M2280.5 1712.9H2279.4V955H2280.5V1712.9Z" fill="#2084FA"/>
<path d="M2282 1714.4H2277.9V953.5H2282V1714.4Z" fill="#2084FA"/>
<path d="M2468.9 1712.9H2467.8V955H2468.9V1712.9Z" fill="#2084FA"/>
<path d="M2470.4 1714.4H2466.3V953.5H2470.4V1714.4Z" fill="#2084FA"/>
<path d="M3034.1 1712.9H-1111.9V1711.9H3034.1V1712.9Z" fill="#2084FA"/>
<path d="M3035.6 1714.4H-1113.4V1710.4H3035.6V1714.4Z" fill="#2084FA"/>
<path d="M3034.1 1523.6H-1111.9V1522.6H3034.1V1523.6Z" fill="#2084FA"/>
<path d="M3035.6 1525.1H-1113.4V1521.1H3035.6V1525.1Z" fill="#2084FA"/>
<path d="M3034.1 1334.2H-1111.9V1333.2H3034.1V1334.2Z" fill="#2084FA"/>
<path d="M3035.6 1335.7H-1113.4V1331.7H3035.6V1335.7Z" fill="#2084FA"/>
<path d="M3034.1 1144.8H-1111.9V1143.8H3034.1V1144.8Z" fill="#2084FA"/>
<path d="M3035.6 1146.3H-1113.4V1142.3H3035.6V1146.3Z" fill="#2084FA"/>
<path d="M3034.1 955.5H-1111.9V954.5H3034.1V955.5Z" fill="#2084FA"/>
<path d="M3035.6 957H-1113.4V953H3035.6V957Z" fill="#2084FA"/>
</g>
<g opacity="0.2" filter="url(#filter2_f_310_3854)">
<path d="M19.6 2087.9H18.5V1330H19.6V2087.9Z" fill="#2084FA"/>
<path d="M21.1 2089.4H17V1328.5H21.1V2089.4Z" fill="#2084FA"/>
<path d="M208 2087.9H206.9V1330H208V2087.9Z" fill="#2084FA"/>
<path d="M209.5 2089.4H205.4V1328.5H209.5V2089.4Z" fill="#2084FA"/>
<path d="M396.4 2087.9H395.3V1330H396.4V2087.9Z" fill="#2084FA"/>
<path d="M397.9 2089.4H393.8V1328.5H397.9V2089.4Z" fill="#2084FA"/>
<path d="M584.8 2087.9H583.7V1330H584.8V2087.9Z" fill="#2084FA"/>
<path d="M586.3 2089.4H582.2V1328.5H586.3V2089.4Z" fill="#2084FA"/>
<path d="M773.2 2087.9H772.1V1330H773.2V2087.9Z" fill="#2084FA"/>
<path d="M774.7 2089.4H770.6V1328.5H774.7V2089.4Z" fill="#2084FA"/>
<path d="M961.6 2087.9H960.5V1330H961.6V2087.9Z" fill="#2084FA"/>
<path d="M963.1 2089.4H959V1328.5H963.1V2089.4Z" fill="#2084FA"/>
<path d="M1150 2087.9H1148.9V1330H1150V2087.9Z" fill="#2084FA"/>
<path d="M1151.5 2089.4H1147.4V1328.5H1151.5V2089.4Z" fill="#2084FA"/>
<path d="M1338.4 2087.9H1337.3V1330H1338.4V2087.9Z" fill="#2084FA"/>
<path d="M1339.9 2089.4H1335.8V1328.5H1339.9V2089.4Z" fill="#2084FA"/>
<path d="M1526.8 2087.9H1525.7V1330H1526.8V2087.9Z" fill="#2084FA"/>
<path d="M1528.3 2089.4H1524.2V1328.5H1528.3V2089.4Z" fill="#2084FA"/>
<path d="M1715.3 2087.9H1714.2V1330H1715.3V2087.9Z" fill="#2084FA"/>
<path d="M1716.8 2089.4H1712.7V1328.5H1716.8V2089.4Z" fill="#2084FA"/>
<path d="M1903.7 2087.9H1902.6V1330H1903.7V2087.9Z" fill="#2084FA"/>
<path d="M1905.2 2089.4H1901.1V1328.5H1905.2V2089.4Z" fill="#2084FA"/>
<path d="M2092.1 2087.9H2091V1330H2092.1V2087.9Z" fill="#2084FA"/>
<path d="M2093.6 2089.4H2089.5V1328.5H2093.6V2089.4Z" fill="#2084FA"/>
<path d="M2280.5 2087.9H2279.4V1330H2280.5V2087.9Z" fill="#2084FA"/>
<path d="M2282 2089.4H2277.9V1328.5H2282V2089.4Z" fill="#2084FA"/>
<path d="M2468.9 2087.9H2467.8V1330H2468.9V2087.9Z" fill="#2084FA"/>
<path d="M2470.4 2089.4H2466.3V1328.5H2470.4V2089.4Z" fill="#2084FA"/>
<path d="M3034.1 2087.9H-1111.9V2086.9H3034.1V2087.9Z" fill="#2084FA"/>
<path d="M3035.6 2089.4H-1113.4V2085.4H3035.6V2089.4Z" fill="#2084FA"/>
<path d="M3034.1 1898.6H-1111.9V1897.6H3034.1V1898.6Z" fill="#2084FA"/>
<path d="M3035.6 1900.1H-1113.4V1896.1H3035.6V1900.1Z" fill="#2084FA"/>
<path d="M3034.1 1709.2H-1111.9V1708.2H3034.1V1709.2Z" fill="#2084FA"/>
<path d="M3035.6 1710.7H-1113.4V1706.7H3035.6V1710.7Z" fill="#2084FA"/>
<path d="M3034.1 1519.8H-1111.9V1518.8H3034.1V1519.8Z" fill="#2084FA"/>
<path d="M3035.6 1521.3H-1113.4V1517.3H3035.6V1521.3Z" fill="#2084FA"/>
<path d="M3034.1 1330.5H-1111.9V1329.5H3034.1V1330.5Z" fill="#2084FA"/>
<path d="M3035.6 1332H-1113.4V1328H3035.6V1332Z" fill="#2084FA"/>
</g>
<path d="M1920.7 2249.7H-1.2002L-0.200195 2249.8H1919.8L1920.7 2249.7Z" fill="#2084FA"/>
<path d="M1920.7 2249.2H-1.2002V2250.2L-0.300171 2250.3H1919.8L1920.8 2250.2L1920.7 2249.2Z" fill="#2084FA"/>
<path d="M2128.7 2218.9H-209.2L-207.8 2219.1H2127.3L2128.7 2218.9Z" fill="#2084FA"/>
<path d="M2128.7 2218.4H-209.2V2219.4L-207.8 2219.6H2127.3L2128.8 2219.4L2128.7 2218.4Z" fill="#2084FA"/>
<path d="M2451.6 2171.1H-532L-529.7 2171.4H2449.3L2451.6 2171.1Z" fill="#2084FA"/>
<path d="M2451.6 2170.6H-532L-532.1 2171.6L-529.8 2171.9H2449.3L2451.6 2171.6V2170.6Z" fill="#2084FA"/>
<path d="M1.29993 2249.8H0.799927L-1096 2087.5H-1094.9L1.29993 2249.8Z" fill="#2084FA"/>
<path d="M-1096 2087V2088L0.699951 2250.3H1.29993V2249.3L-1094.8 2087H-1096Z" fill="#2084FA"/>
<path d="M88.5001 2249.8H88.0001L-909 2087.5H-908L88.5001 2249.8Z" fill="#2084FA"/>
<path d="M-909 2087L-909.1 2088L87.8998 2250.3H88.4999L88.5999 2249.3L-907.9 2087H-909Z" fill="#2084FA"/>
<path d="M175.8 2249.8H175.3L-722.1 2087.5H-721L175.8 2249.8Z" fill="#2084FA"/>
<path d="M-722.1 2087L-722.2 2088L175.2 2250.3H175.8L175.9 2249.3L-720.9 2087H-722.1Z" fill="#2084FA"/>
<path d="M263 2249.8H262.5L-535.2 2087.5H-534.1L263 2249.8Z" fill="#2084FA"/>
<path d="M-534.1 2087H-540.1L262.5 2250.3H268L-534.1 2087Z" fill="#2084FA"/>
<path d="M350.3 2249.8H349.8L-348.3 2087.5H-347.2L350.3 2249.8Z" fill="#2084FA"/>
<path d="M-347.1 2087H-352.6L349.8 2250.3H354.6L350.4 2249.3L-347.1 2087Z" fill="#2084FA"/>
<path d="M437.5 2249.8H437L-161.3 2087.5H-160.3L437.5 2249.8Z" fill="#2084FA"/>
<path d="M-160.2 2087H-165.1L437 2250.3H441.3L-160.2 2087Z" fill="#2084FA"/>
<path d="M524.8 2249.8H524.3L25.6001 2087.5H26.7001L524.8 2249.8Z" fill="#2084FA"/>
<path d="M26.7999 2087H22.3999L524.3 2250.3H527.9L26.7999 2087Z" fill="#2084FA"/>
<path d="M612 2249.8H611.5L212.5 2087.5H213.6L612 2249.8Z" fill="#2084FA"/>
<path d="M213.7 2087H210L611.5 2250.3H614.6L213.7 2087Z" fill="#2084FA"/>
<path d="M699.3 2249.8H698.8L399.5 2087.5H400.5L699.3 2249.8Z" fill="#2084FA"/>
<path d="M400.7 2087H397.5L698.6 2250.3H701.2L400.7 2087Z" fill="#2084FA"/>
<path d="M786.5 2249.8H786L586.4 2087.5H587.5L786.5 2249.8Z" fill="#2084FA"/>
<path d="M587.6 2087H585L785.8 2250.3H787.9L587.6 2087Z" fill="#2084FA"/>
<path d="M873.8 2249.8H873.3L773.3 2087.5H774.4L873.8 2249.8Z" fill="#2084FA"/>
<path d="M774.7 2087H772.4L873 2250.3H874.7L874.2 2249.5L774.7 2087Z" fill="#2084FA"/>
<path d="M961 2249.8H960.5L960.2 2087.5H961.3L961 2249.8Z" fill="#2084FA"/>
<path d="M961.8 2087H959.7L960 2250.3H961.5L961.8 2087ZM960.7 2088V2107.8V2088Z" fill="#2084FA"/>
<path d="M1048.3 2249.8H1047.8L1147.2 2087.5H1148.2L1048.3 2249.8Z" fill="#2084FA"/>
<path d="M1149.1 2087H1146.9L1046.9 2250.3H1048.5L1048.7 2250.1L1149.1 2087Z" fill="#2084FA"/>
<path d="M1135.5 2249.8H1135L1334.1 2087.5H1335.2L1135.5 2249.8Z" fill="#2084FA"/>
<path d="M1336.6 2087H1333.9L1333.8 2087.1L1133.6 2250.3H1135.7L1135.8 2250.2L1336.6 2087Z" fill="#2084FA"/>
<path d="M1222.8 2249.8H1222.3L1521 2087.5H1522.1L1222.8 2249.8Z" fill="#2084FA"/>
<path d="M1524.1 2087H1520.9H1520.8L1220.3 2250.3H1222.9L1223 2250.2L1524.1 2087Z" fill="#2084FA"/>
<path d="M1310 2249.8H1309.5L1707.9 2087.5H1709L1310 2249.8Z" fill="#2084FA"/>
<path d="M1711.6 2087H1707.8L1307 2250.3H1310.2L1711.6 2087Z" fill="#2084FA"/>
<path d="M1397.3 2249.8H1396.8L1894.9 2087.5H1895.9L1397.3 2249.8Z" fill="#2084FA"/>
<path d="M1899.1 2087H1894.7L1393.6 2250.3H1397.4L1899.1 2087Z" fill="#2084FA"/>
<path d="M1484.5 2249.8H1484L2081.8 2087.5H2082.9L1484.5 2249.8Z" fill="#2084FA"/>
<path d="M2086.6 2087H2081.7L1480.3 2250.3H1484.7L2086.6 2087Z" fill="#2084FA"/>
<path d="M1571.8 2249.8H1571.3L2268.7 2087.5H2269.8L1571.8 2249.8Z" fill="#2084FA"/>
<path d="M2274.2 2087H2268.6L1566.9 2250.3H1571.9L2274.2 2087Z" fill="#2084FA"/>
<path d="M1659 2249.8H1658.5L2455.6 2087.5H2456.7L1659 2249.8Z" fill="#2084FA"/>
<path d="M2461.7 2087H2455.5L1653.6 2250.3H1659.1L2461.7 2087Z" fill="#2084FA"/>
<path d="M1746.3 2249.8H1745.8L2642.6 2087.5H2643.6L1746.3 2249.8Z" fill="#2084FA"/>
<path d="M2643.6 2087H2642.6L1745.7 2249.3L1745.8 2250.3H1746.4L2643.7 2088L2643.6 2087Z" fill="#2084FA"/>
<path d="M1833.5 2249.8H1833L2829.5 2087.5H2830.6L1833.5 2249.8Z" fill="#2084FA"/>
<path d="M2830.6 2087H2829.5L1832.9 2249.3L1833 2250.3H1833.6L2830.7 2088L2830.6 2087Z" fill="#2084FA"/>
<path d="M1920.8 2249.8H1920.3L3016.4 2087.5H3017.5L1920.8 2249.8Z" fill="#2084FA"/>
<path d="M3017.5 2087H3016.4L1920.2 2249.3L1920.3 2250.3H1920.8L3017.6 2088L3017.5 2087Z" fill="#2084FA"/>
<path d="M-160.3 2087.5L-162.6 2086.8H23.5999L25.5999 2087.5H-160.3Z" fill="#2084FA"/>
<path d="M23.7001 2086.3H-166.4L-160.3 2088H28.7001L23.7001 2086.3Z" fill="#2084FA"/>
<path d="M1522.1 2087.5L1523.3 2086.8H1709.5L1707.9 2087.5H1522.1Z" fill="#2084FA"/>
<path d="M1712.1 2086.3H1523.1L1520.1 2088L1708.1 2087.9L1712.1 2086.3Z" fill="#2084FA"/>
<path d="M1335.2 2087.5L1336 2086.8H1522.2L1521 2087.5H1335.2Z" fill="#2084FA"/>
<path d="M1524.2 2086.3H1335.8L1333.8 2088H1521.1L1524.2 2086.3Z" fill="#2084FA"/>
<path d="M1709 2087.5L1710.6 2086.8H1896.8L1894.9 2087.5H1709Z" fill="#2084FA"/>
<path d="M1900 2086.3L1710.4 2086.4L1706.5 2088L1895 2087.9L1900 2086.3Z" fill="#2084FA"/>
<path d="M1895.9 2087.5L1897.9 2086.8H2084.2L2081.8 2087.5H1895.9Z" fill="#2084FA"/>
<path d="M2087.9 2086.3H1897.8L1892.8 2088L2081.9 2087.9L2087.9 2086.3Z" fill="#2084FA"/>
<path d="M961.3 2087.5V2086.8H1147.6L1147.2 2087.5H961.3Z" fill="#2084FA"/>
<path d="M1148.4 2086.3H960.8V2088H1147.4L1148.4 2086.3Z" fill="#2084FA"/>
<path d="M1148.2 2087.5L1148.6 2086.8H1334.9L1334.1 2087.5H1148.2Z" fill="#2084FA"/>
<path d="M1336.3 2086.3H1148.4L1147.3 2088H1334.3L1336.3 2086.3Z" fill="#2084FA"/>
<path d="M2456.7 2087.5L2459.9 2086.8H2646.1L2642.6 2087.5H2456.7Z" fill="#2084FA"/>
<path d="M2646.1 2086.3H2459.8L2451.8 2088H2642.6L2646.2 2087.3L2646.1 2086.3Z" fill="#2084FA"/>
<path d="M2082.9 2087.5L2085.2 2086.8H2271.5L2268.7 2087.5H2082.9Z" fill="#2084FA"/>
<path d="M2275.8 2086.3H2085.1L2079.1 2088H2268.8L2275.8 2086.3Z" fill="#2084FA"/>
<path d="M2269.8 2087.5L2272.6 2086.8H2458.8L2455.6 2087.5H2269.8Z" fill="#2084FA"/>
<path d="M2463.8 2086.3H2272.4L2265.4 2088H2455.7L2463.8 2086.3Z" fill="#2084FA"/>
<path d="M774.4 2087.5L774 2086.8H960.2V2087.5H774.4Z" fill="#2084FA"/>
<path d="M960.7 2086.3H773.1L774.1 2088H960.7V2086.3Z" fill="#2084FA"/>
<path d="M26.7002 2087.5L24.7002 2086.8H210.9L212.5 2087.5H26.7002Z" fill="#2084FA"/>
<path d="M211 2086.3H21.6001L26.7001 2088H215.1L211 2086.3Z" fill="#2084FA"/>
<path d="M213.6 2087.5L212 2086.8H398.3L399.5 2087.5H213.6Z" fill="#2084FA"/>
<path d="M398.4 2086.3H209.5L213.6 2088H401.4L398.4 2086.3Z" fill="#2084FA"/>
<path d="M400.5 2087.5L399.3 2086.8H585.6L586.4 2087.5H400.5Z" fill="#2084FA"/>
<path d="M585.8 2086.3H397.4L400.4 2088H587.8L585.8 2086.3Z" fill="#2084FA"/>
<path d="M587.5 2087.5L586.7 2086.8H772.9L773.3 2087.5H587.5Z" fill="#2084FA"/>
<path d="M773.2 2086.3H585.3L587.3 2088H774.2L773.2 2086.3Z" fill="#2084FA"/>
<path d="M25.6001 2087.5L23.6001 2086.8H24.7001L26.7001 2087.5H25.6001Z" fill="#2084FA"/>
<path d="M24.7999 2086.3H20.5L25.6 2088H29.7999L24.7999 2086.3Z" fill="#2084FA"/>
<path d="M212.5 2087.5L210.9 2086.8H212L213.6 2087.5H212.5Z" fill="#2084FA"/>
<path d="M212.1 2086.3H208.4L212.5 2088H216.1L212.1 2086.3Z" fill="#2084FA"/>
<path d="M399.5 2087.5L398.3 2086.8H399.3L400.5 2087.5H399.5Z" fill="#2084FA"/>
<path d="M399.5 2086.3H396.3L399.3 2088H402.5L399.5 2086.3Z" fill="#2084FA"/>
<path d="M586.4 2087.5L585.6 2086.8H586.7L587.5 2087.5H586.4Z" fill="#2084FA"/>
<path d="M586.8 2086.3H584.2L586.2 2088H588.9L586.8 2086.3Z" fill="#2084FA"/>
<path d="M773.3 2087.5L772.9 2086.8H774L774.4 2087.5H773.3Z" fill="#2084FA"/>
<path d="M774.3 2086.3H772L773 2088H775.3L774.3 2086.3Z" fill="#2084FA"/>
<path d="M960.2 2087.5V2086.8H961.3V2087.5H960.2Z" fill="#2084FA"/>
<path d="M961.8 2086.3H959.7V2088H961.8V2086.3Z" fill="#2084FA"/>
<path d="M1147.2 2087.5L1147.6 2086.8H1148.6L1148.2 2087.5H1147.2Z" fill="#2084FA"/>
<path d="M1149.5 2086.3H1147.3L1146.3 2088H1148.5L1149.5 2086.3Z" fill="#2084FA"/>
<path d="M1334.1 2087.5L1334.9 2086.8H1336L1335.2 2087.5H1334.1Z" fill="#2084FA"/>
<path d="M1337.4 2086.3H1334.7L1332.7 2088H1335.3L1337.4 2086.3Z" fill="#2084FA"/>
<path d="M1521 2087.5L1522.2 2086.8H1523.3L1522.1 2087.5H1521Z" fill="#2084FA"/>
<path d="M1525.2 2086.3H1522.1L1519.1 2088H1522.2L1525.2 2086.3Z" fill="#2084FA"/>
<path d="M1707.9 2087.5L1709.5 2086.8H1710.6L1709 2087.5H1707.9Z" fill="#2084FA"/>
<path d="M1713.1 2086.3L1709.3 2086.4L1705.4 2088L1709.2 2087.9L1713.1 2086.3Z" fill="#2084FA"/>
<path d="M1894.9 2087.5L1896.8 2086.8H1897.9L1895.9 2087.5H1894.9Z" fill="#2084FA"/>
<path d="M1901.1 2086.3H1896.7L1891.7 2088L1896.1 2087.9L1901.1 2086.3Z" fill="#2084FA"/>
<path d="M2081.8 2087.5L2084.2 2086.8H2085.2L2082.9 2087.5H2081.8Z" fill="#2084FA"/>
<path d="M2089 2086.3H2084L2078.1 2088L2083 2087.9L2089 2086.3Z" fill="#2084FA"/>
<path d="M2268.7 2087.5L2271.5 2086.8H2272.6L2269.8 2087.5H2268.7Z" fill="#2084FA"/>
<path d="M2276.9 2086.3H2271.4L2264.4 2088H2269.9L2276.9 2086.3Z" fill="#2084FA"/>
<path d="M2455.6 2087.5L2458.8 2086.8H2459.9L2456.7 2087.5H2455.6Z" fill="#2084FA"/>
<path d="M2464.8 2086.3H2458.7L2450.7 2088H2456.8L2464.8 2086.3Z" fill="#2084FA"/>
<g style="mix-blend-mode:color-dodge" opacity="0.4">
<path fill-rule="evenodd" clip-rule="evenodd" d="M0.600098 2250.3V2090.3H1918.6V2250.3H0.600098Z" fill="url(#paint1_radial_310_3854)"/>
</g>
<path d="M1.29993 62.3003H-1.30005L-552.5 190.6H-548.4L1.29993 62.3003Z" fill="#2084FA"/>
<path d="M119.8 62.5005H119.1L-360.6 190.201H-359.5L119.8 62.5005Z" fill="#2084FA"/>
<path d="M121.3 62.3003H118.7L-363.6 190.6H-359.5L121.3 62.3003Z" fill="#2084FA"/>
<path d="M239.9 62.5005H239.199L-172 190.201H-170.901L239.9 62.5005Z" fill="#2084FA"/>
<path d="M241.4 62.3003H238.8L-174.8 190.6H-170.7L241.4 62.3003Z" fill="#2084FA"/>
<path d="M360 62.5005H359.3L16.6001 190.201H17.7001L360 62.5005Z" fill="#2084FA"/>
<path d="M361.4 62.3003H358.8L14.1001 190.6H18.2001L361.4 62.3003Z" fill="#2084FA"/>
<path d="M480.1 62.5005H479.4L205.3 190.201H206.3L480.1 62.5005Z" fill="#2084FA"/>
<path d="M481.4 62.3003H478.8L202.9 190.6H207L481.4 62.3003Z" fill="#2084FA"/>
<path d="M600.2 62.5005H599.5L393.9 190.201H395L600.2 62.5005Z" fill="#2084FA"/>
<path d="M601.4 62.3003H598.8L391.7 190.6H395.8L601.4 62.3003Z" fill="#2084FA"/>
<path d="M720.3 62.5005H719.6L582.5 190.201H583.6L720.3 62.5005Z" fill="#2084FA"/>
<path d="M721.4 62.3003H718.8L580.6 190.6H584.7L721.4 62.3003Z" fill="#2084FA"/>
<path d="M840.4 62.5005H839.7L771.1 190.201H772.2L840.4 62.5005Z" fill="#2084FA"/>
<path d="M841.4 62.3003H838.8L769.4 190.6H773.5L841.4 62.3003Z" fill="#2084FA"/>
<path d="M960.5 62.5005H959.8V190.201H960.9L960.5 62.5005Z" fill="#2084FA"/>
<path d="M961.4 62.3003H958.8L958.3 190.6H962.4L961.4 62.3003Z" fill="#2084FA"/>
<path d="M1080.6 62.5005H1079.9L1148.4 190.201H1149.5L1080.6 62.5005Z" fill="#2084FA"/>
<path d="M1081.4 62.3003H1078.8L1147.1 190.6H1151.2L1081.4 62.3003Z" fill="#2084FA"/>
<path d="M1200.7 62.5005H1200L1337 190.201H1338.1L1200.7 62.5005Z" fill="#2084FA"/>
<path d="M1201.4 62.3003H1198.8L1336 190.6H1340L1201.4 62.3003Z" fill="#2084FA"/>
<path d="M1320.8 62.5005H1320.1L1525.7 190.201H1526.7L1320.8 62.5005Z" fill="#2084FA"/>
<path d="M1321.4 62.3003H1318.8L1524.8 190.6H1528.9L1321.4 62.3003Z" fill="#2084FA"/>
<path d="M1440.8 62.5005H1440.2L1714.3 190.201H1715.4L1440.8 62.5005Z" fill="#2084FA"/>
<path d="M1441.5 62.3003H1438.9L1713.6 190.6H1717.7L1441.5 62.3003Z" fill="#2084FA"/>
<path d="M1560.9 62.5005H1560.3L1902.9 190.201H1904L1560.9 62.5005Z" fill="#2084FA"/>
<path d="M1561.5 62.3003H1558.9L1902.5 190.6H1906.6L1561.5 62.3003Z" fill="#2084FA"/>
<path d="M1681 62.5005H1680.4L2091.5 190.201H2092.6L1681 62.5005Z" fill="#2084FA"/>
<path d="M1681.5 62.3003H1678.9L2091.3 190.6H2095.4L1681.5 62.3003Z" fill="#2084FA"/>
<path d="M1801.1 62.5005H1800.4L2280.2 190.201H2281.2L1801.1 62.5005Z" fill="#2084FA"/>
<path d="M1801.5 62.3003H1798.9L2280.2 190.6H2284.2L1801.5 62.3003Z" fill="#2084FA"/>
<path d="M1921.2 62.5005H1920.5L2468.8 190.201H2469.9L1921.2 62.5005Z" fill="#2084FA"/>
<path d="M1921.5 62.3003H1918.9L2469 190.6H2473.1L1921.5 62.3003Z" fill="#2084FA"/>
<path d="M2041.3 62.5005H2040.6L2657.4 190.201H2658.5L2041.3 62.5005Z" fill="#2084FA"/>
<path d="M2041.5 62.3003H2038.9L2657.8 190.6H2661.9L2041.5 62.3003Z" fill="#2084FA"/>
<path d="M2161.4 62.5005H2160.7L2846.1 190.201H2847.1L2161.4 62.5005Z" fill="#2084FA"/>
<path d="M2161.5 62.3003H2158.9L2846.7 190.6H2850.8L2161.5 62.3003Z" fill="#2084FA"/>
<path d="M2281.5 62.5005H2280.8L3034.7 190.201H3035.8L2281.5 62.5005Z" fill="#2084FA"/>
<path d="M2281.5 62.3003H2278.9L3035.5 190.6H3039.6L2281.5 62.3003Z" fill="#2084FA"/>
<path d="M3034.1 189.9H-1113.5L-1115.1 190.2H3035.8L3034.1 189.9Z" fill="#2084FA"/>
<path d="M3033.56 188.022L3033.43 188H3033.3H-1112.7H-1112.83L-1112.96 188.022L-1119.26 189.122L-1119 192.1H3039.6L3039.86 189.122L3033.56 188.022Z" fill="#2084FA" stroke="#2084FA" stroke-width="3" stroke-miterlimit="10"/>
<path d="M2775.5 146.1H-855L-856.2 146.3H2776.7L2775.5 146.1Z" fill="#2084FA"/>
<path d="M2775 145.8H-854.5L-859.3 146.6H2779.8L2775 145.8Z" fill="#2084FA"/>
<path d="M2574.2 112H-653.8L-654.8 112.201H2575.2L2574.2 112Z" fill="#2084FA"/>
<path d="M2573.9 111.8H-653.5L-657.4 112.4H2577.8L2573.9 111.8Z" fill="#2084FA"/>
<path d="M2413.1 84.7002H-492.8L-493.6 84.9002H2413.9L2413.1 84.7002Z" fill="#2084FA"/>
<path d="M2413 84.5H-492.7L-495.8 85.1H2416.1L2413 84.5Z" fill="#2084FA"/>
<path d="M2281.2 62.4004H-360.9L-361.6 62.5004H2281.8L2281.2 62.4004Z" fill="#2084FA"/>
<path d="M2281.2 62.2002H-361L-363.5 62.7002H2283.8L2281.2 62.2002Z" fill="#2084FA"/>
<path d="M1560.9 62.5005H1560.3L1902.9 190.201H1904L1560.9 62.5005Z" fill="#2084FA"/>
<path d="M1561.5 62.3003H1558.9L1902.5 190.6H1906.6L1561.5 62.3003Z" fill="#2084FA"/>
<path d="M1681 62.5005H1680.4L2091.5 190.201H2092.6L1681 62.5005Z" fill="#2084FA"/>
<path d="M1681.5 62.3003H1678.9L2091.3 190.6H2095.4L1681.5 62.3003Z" fill="#2084FA"/>
<path d="M1801.1 62.5005H1800.4L2280.2 190.201H2281.2L1801.1 62.5005Z" fill="#2084FA"/>
<path d="M1801.5 62.3003H1798.9L2280.2 190.6H2284.2L1801.5 62.3003Z" fill="#2084FA"/>
<path d="M1921.2 62.5005H1920.5L2468.8 190.201H2469.9L1921.2 62.5005Z" fill="#2084FA"/>
<path d="M1921.5 62.3003H1918.9L2469 190.6H2473.1L1921.5 62.3003Z" fill="#2084FA"/>
<path d="M2041.3 62.5005H2040.6L2657.4 190.201H2658.5L2041.3 62.5005Z" fill="#2084FA"/>
<path d="M2041.5 62.3003H2038.9L2657.8 190.6H2661.9L2041.5 62.3003Z" fill="#2084FA"/>
<path d="M2161.4 62.5005H2160.7L2846.1 190.201H2847.1L2161.4 62.5005Z" fill="#2084FA"/>
<path d="M2161.5 62.3003H2158.9L2846.7 190.6H2850.8L2161.5 62.3003Z" fill="#2084FA"/>
<path d="M2281.5 62.5005H2280.8L3034.7 190.201H3035.8L2281.5 62.5005Z" fill="#2084FA"/>
<path d="M2281.5 62.3003H2278.9L3035.5 190.6H3039.6L2281.5 62.3003Z" fill="#2084FA"/>
<path d="M2401.6 62.5005H2400.9L3223.3 190.201H3224.4L2401.6 62.5005Z" fill="#2084FA"/>
<path d="M2401.5 62.3003H2398.9L3224.4 190.6H3228.5L2401.5 62.3003Z" fill="#2084FA"/>
<path d="M2521.5 62.3003H2518.9L3413.2 190.6H3417.3L2521.5 62.3003Z" fill="#2084FA"/>
<path d="M1758.5 190.2L1758.1 189.9H4162.4L4158.8 189.5H1756.6L1758.2 190.6H4168.6L4164.9 190.2H1758.5Z" fill="#2084FA"/>
<path d="M1758.5 190.2H4164.9L4162.4 189.9H1758.1L1758.5 190.2Z" fill="#2084FA"/>
<path d="M1690.2 146.3L1689.9 146.1H3763.1L3760.3 145.8H1688.6L1689.9 146.6H3767.8L3765 146.3H1690.2Z" fill="#2084FA"/>
<path d="M1689.9 146.1L1690.2 146.3H3765L3763.1 146.1H1689.9Z" fill="#2084FA"/>
<path d="M1637 112.2L1636.8 112H3452.3L3450.1 111.8H1635.7L1636.7 112.4H3456L3453.8 112.2H1637Z" fill="#2084FA"/>
<path d="M1636.8 112L1637 112.2H3453.8L3452.3 112H1636.8Z" fill="#2084FA"/>
<path d="M1594.5 84.9L1594.3 84.7H3203.5L3201.8 84.5H1593.4L1594.2 85.1H3206.6L3204.8 84.9H1594.5Z" fill="#2084FA"/>
<path d="M1594.3 84.7002L1594.5 84.9002H3204.8L3203.5 84.7002H1594.3Z" fill="#2084FA"/>
<path d="M1559.7 62.5002L1559.5 62.4002H2999.9L2999 62.3002H3001.6L3002.5 62.4002H3093L3093.9 62.5002H3003.6L3005 62.7002H3095.9L3092.2 62.2002H1558.7L1559.4 62.7002H3002.4L3001 62.5002H1559.7Z" fill="#2084FA"/>
<path d="M1559.5 62.4004L1559.7 62.5004H3001L2999.9 62.4004H1559.5Z" fill="#2084FA"/>
<path d="M80.4998 2.6001H79.9998L-239.2 62.1001H-238.5L80.4998 2.6001Z" fill="#2084FA"/>
<path d="M81.6 2.5H79.7L-241 62.2H-238.4L81.6 2.5Z" fill="#2084FA"/>
<path d="M168.4 2.6001H167.9L-119.3 62.1001H-118.6L168.4 2.6001Z" fill="#2084FA"/>
<path d="M169.6 2.5H167.7L-121 62.2H-118.4L169.6 2.5Z" fill="#2084FA"/>
<path d="M256.4 2.6001H255.9L0.600098 62.1001H1.30005L256.4 2.6001Z" fill="#2084FA"/>
<path d="M257.5 2.5H255.6L-1 62.2H1.59998L257.5 2.5Z" fill="#2084FA"/>
<path d="M344.4 2.6001H343.9L120.5 62.1001H121.2L344.4 2.6001Z" fill="#2084FA"/>
<path d="M345.4 2.5H343.5L119 62.2H121.6L345.4 2.5Z" fill="#2084FA"/>
<path d="M432.4 2.6001H431.9L240.4 62.1001H241.1L432.4 2.6001Z" fill="#2084FA"/>
<path d="M433.4 2.5H431.5L238.9 62.2H241.5L433.4 2.5Z" fill="#2084FA"/>
<path d="M520.4 2.6001H519.9L360.3 62.1001H361L520.4 2.6001Z" fill="#2084FA"/>
<path d="M521.3 2.5H519.4L358.9 62.2H361.5L521.3 2.5Z" fill="#2084FA"/>
<path d="M608.4 2.6001H607.8L480.2 62.1001H480.9L608.4 2.6001Z" fill="#2084FA"/>
<path d="M609.2 2.5H607.3L478.9 62.2H481.5L609.2 2.5Z" fill="#2084FA"/>
<path d="M696.3 2.6001H695.8L600.1 62.1001H600.8L696.3 2.6001Z" fill="#2084FA"/>
<path d="M697.2 2.5H695.3L598.9 62.2H601.5L697.2 2.5Z" fill="#2084FA"/>
<path d="M784.3 2.6001H783.8L720 62.1001H720.7L784.3 2.6001Z" fill="#2084FA"/>
<path d="M785.1 2.5H783.2L718.9 62.2H721.5L785.1 2.5Z" fill="#2084FA"/>
<path d="M872.3 2.6001H871.8L839.9 62.1001H840.6L872.3 2.6001Z" fill="#2084FA"/>
<path d="M873 2.5H871.1L838.8 62.2H841.4L873 2.5Z" fill="#2084FA"/>
<path d="M960.3 2.6001H959.8V62.1001H960.5L960.3 2.6001Z" fill="#2084FA"/>
<path d="M961 2.5H959.1L958.8 62.2H961.4L961 2.5Z" fill="#2084FA"/>
<path d="M1048.3 2.6001H1047.8L1079.7 62.1001H1080.4L1048.3 2.6001Z" fill="#2084FA"/>
<path d="M1048.9 2.5H1047L1078.8 62.2H1081.4L1048.9 2.5Z" fill="#2084FA"/>
<path d="M1136.2 2.6001H1135.7L1199.6 62.1001H1200.2L1136.2 2.6001Z" fill="#2084FA"/>
<path d="M1136.8 2.5H1134.9L1198.8 62.2H1201.4L1136.8 2.5Z" fill="#2084FA"/>
<path d="M1224.2 2.6001H1223.7L1319.5 62.1001H1320.1L1224.2 2.6001Z" fill="#2084FA"/>
<path d="M1224.8 2.5H1222.9L1318.8 62.2H1321.4L1224.8 2.5Z" fill="#2084FA"/>
<path d="M1312.2 2.6001H1311.7L1439.3 62.1001H1440L1312.2 2.6001Z" fill="#2084FA"/>
<path d="M1312.7 2.5H1310.8L1438.7 62.2H1441.3L1312.7 2.5Z" fill="#2084FA"/>
<path d="M1400.2 2.6001H1399.7L1559.2 62.1001H1559.9L1400.2 2.6001Z" fill="#2084FA"/>
<path d="M1400.7 2.5H1398.8L1558.7 62.2H1561.3L1400.7 2.5Z" fill="#2084FA"/>
<path d="M1488.2 2.6001H1487.7L1679.1 62.1001H1679.8L1488.2 2.6001Z" fill="#2084FA"/>
<path d="M1488.6 2.5H1486.7L1678.7 62.2H1681.3L1488.6 2.5Z" fill="#2084FA"/>
<path d="M1576.2 2.6001H1575.6L1799 62.1001H1799.7L1576.2 2.6001Z" fill="#2084FA"/>
<path d="M1576.5 2.5H1574.6L1798.7 62.2H1801.3L1576.5 2.5Z" fill="#2084FA"/>
<path d="M1664.1 2.6001H1663.6L1918.9 62.1001H1919.6L1664.1 2.6001Z" fill="#2084FA"/>
<path d="M1664.5 2.5H1662.6L1918.7 62.2H1921.2L1664.5 2.5Z" fill="#2084FA"/>
<path d="M1752.1 2.6001H1751.6L2038.8 62.1001H2039.5L1752.1 2.6001Z" fill="#2084FA"/>
<path d="M1752.4 2.5H1750.5L2038.6 62.2H2041.2L1752.4 2.5Z" fill="#2084FA"/>
<path d="M1840.1 2.6001H1839.6L2158.7 62.1001H2159.4L1840.1 2.6001Z" fill="#2084FA"/>
<path d="M1840.3 2.5H1838.4L2158.6 62.2H2161.2L1840.3 2.5Z" fill="#2084FA"/>
<path d="M1928.1 2.6001H1927.6L2278.6 62.1001H2279.3L1928.1 2.6001Z" fill="#2084FA"/>
<path d="M1928.3 2.5H1926.4L2278.6 62.2H2281.2L1928.3 2.5Z" fill="#2084FA"/>
<path d="M2278.6 62H-358.4L-359 62.1H2279.3L2278.6 62Z" fill="#2084FA"/>
<path d="M2278.6 61.7998H-358.4L-361 62.1998H2281.2L2278.6 61.7998Z" fill="#2084FA"/>
<path d="M2169.1 43.3999H-248.9L-249.5 43.4999H2169.7L2169.1 43.3999Z" fill="#2084FA"/>
<path d="M2169.2 43.2998H-249L-251.1 43.6998H2171.3L2169.2 43.2998Z" fill="#2084FA"/>
<path d="M2076.4 27.7002H-156.2L-156.7 27.8002H2076.8L2076.4 27.7002Z" fill="#2084FA"/>
<path d="M2076.5 27.6001H-156.4L-158.2 27.9001H2078.3L2076.5 27.6001Z" fill="#2084FA"/>
<path d="M1997 14.2002H-76.9L-78.5 14.4002H1998.6L1997 14.2002Z" fill="#2084FA"/>
<path d="M1928.24 1.51005L1928.17 1.5H1928.1H-7.99988H-8.07094L-8.14129 1.51005L-9.54132 1.71005L-9.3999 3.7H1929.5L1929.64 1.71005L1928.24 1.51005Z" fill="#2084FA" stroke="#2084FA" stroke-width="2" stroke-miterlimit="10"/>
<path d="M1400.2 2.6001H1399.7L1559.2 62.1001H1559.9L1400.2 2.6001Z" fill="#2084FA"/>
<path d="M1400.7 2.5H1398.8L1558.7 62.2H1561.3L1400.7 2.5Z" fill="#2084FA"/>
<path d="M1488.2 2.6001H1487.7L1679.1 62.1001H1679.8L1488.2 2.6001Z" fill="#2084FA"/>
<path d="M1488.6 2.5H1486.7L1678.7 62.2H1681.3L1488.6 2.5Z" fill="#2084FA"/>
<path d="M1576.2 2.6001H1575.6L1799 62.1001H1799.7L1576.2 2.6001Z" fill="#2084FA"/>
<path d="M1576.5 2.5H1574.6L1798.7 62.2H1801.3L1576.5 2.5Z" fill="#2084FA"/>
<path d="M1664.1 2.6001H1663.6L1918.9 62.1001H1919.6L1664.1 2.6001Z" fill="#2084FA"/>
<path d="M1664.5 2.5H1662.6L1918.7 62.2H1921.2L1664.5 2.5Z" fill="#2084FA"/>
<path d="M1752.1 2.6001H1751.6L2038.8 62.1001H2039.5L1752.1 2.6001Z" fill="#2084FA"/>
<path d="M1752.4 2.5H1750.5L2038.6 62.2H2041.2L1752.4 2.5Z" fill="#2084FA"/>
<path d="M1840.1 2.6001H1839.6L2158.7 62.1001H2159.4L1840.1 2.6001Z" fill="#2084FA"/>
<path d="M1840.3 2.5H1838.4L2158.6 62.2H2161.2L1840.3 2.5Z" fill="#2084FA"/>
<path d="M1928.1 2.6001H1927.6L2278.6 62.1001H2279.3L1928.1 2.6001Z" fill="#2084FA"/>
<path d="M1928.3 2.5H1926.4L2278.6 62.2H2281.2L1928.3 2.5Z" fill="#2084FA"/>
<path d="M2016.1 2.6001H2015.6L2398.5 62.1001H2399.2L2016.1 2.6001Z" fill="#2084FA"/>
<path d="M2016.2 2.5H2014.3L2398.6 62.2H2401.2L2016.2 2.5Z" fill="#2084FA"/>
<path d="M2104 2.6001H2103.5L2518.4 62.1001H2519.1L2104 2.6001Z" fill="#2084FA"/>
<path d="M2104.1 2.5H2102.2L2518.5 62.2H2521.1L2104.1 2.5Z" fill="#2084FA"/>
<path d="M2192 2.6001H2191.5L2638.3 62.1001H2639L2192 2.6001Z" fill="#2084FA"/>
<path d="M2192.1 2.5H2190.2L2638.5 62.2H2641.1L2192.1 2.5Z" fill="#2084FA"/>
<path d="M2280 2.6001H2279.5L2758.2 62.1001H2758.9L2280 2.6001Z" fill="#2084FA"/>
<path d="M2280 2.5H2278.1L2758.5 62.2H2761.1L2280 2.5Z" fill="#2084FA"/>
<path d="M2368 2.6001H2367.5L2878.1 62.1001H2878.7L2368 2.6001Z" fill="#2084FA"/>
<path d="M2367.9 2.5H2366L2878.5 62.2H2881.1L2367.9 2.5Z" fill="#2084FA"/>
<path d="M2456 2.6001H2455.5L2998 62.1001H2998.6L2456 2.6001Z" fill="#2084FA"/>
<path d="M2455.9 2.5H2454L2998.5 62.2H3001.1L2455.9 2.5Z" fill="#2084FA"/>
<path d="M3816.3 62H1537.2L1537.4 62.1H3817.7L3816.3 62Z" fill="#2084FA"/>
<path d="M3815.1 61.7998H1536L1537 62.1998H3820.5L3815.1 61.7998Z" fill="#2084FA"/>
<path d="M3584 43.3999H1494.2L1494.4 43.4999H3585.2L3584 43.3999Z" fill="#2084FA"/>
<path d="M3583.1 43.2998H1493.1L1494 43.6998H3587.7L3583.1 43.2998Z" fill="#2084FA"/>
<path d="M3387.4 27.7002H1457.8L1458 27.8002H3388.4L3387.4 27.7002Z" fill="#2084FA"/>
<path d="M3386.6 27.6001H1456.8L1457.5 27.9001H3390.5L3386.6 27.6001Z" fill="#2084FA"/>
<path d="M3218.1 14.2002H1425.7L1426.3 14.4002H3221.5L3218.1 14.2002Z" fill="#2084FA"/>
<path d="M3072.07 1.50237L3072.03 1.5H3072H1398.7H1393.51L1398.33 3.42848L1398.83 3.62848L1399.01 3.7H1399.2H3074.9L3074.97 1.70237L3072.07 1.50237Z" fill="#2084FA" stroke="#2084FA" stroke-width="2" stroke-miterlimit="10"/>
<defs>
<filter id="filter0_f_310_3854" x="-1115.4" y="189.5" width="4153" height="765.4" filterUnits="userSpaceOnUse" color-interpolation-filters="sRGB">
<feFlood flood-opacity="0" result="BackgroundImageFix"/>
<feBlend mode="normal" in="SourceGraphic" in2="BackgroundImageFix" result="shape"/>
<feGaussianBlur stdDeviation="1" result="effect1_foregroundBlur_310_3854"/>
</filter>
<filter id="filter1_f_310_3854" x="-1115.4" y="951" width="4153" height="765.4" filterUnits="userSpaceOnUse" color-interpolation-filters="sRGB">
<feFlood flood-opacity="0" result="BackgroundImageFix"/>
<feBlend mode="normal" in="SourceGraphic" in2="BackgroundImageFix" result="shape"/>
<feGaussianBlur stdDeviation="1" result="effect1_foregroundBlur_310_3854"/>
</filter>
<filter id="filter2_f_310_3854" x="-1115.4" y="1326" width="4153" height="765.4" filterUnits="userSpaceOnUse" color-interpolation-filters="sRGB">
<feFlood flood-opacity="0" result="BackgroundImageFix"/>
<feBlend mode="normal" in="SourceGraphic" in2="BackgroundImageFix" result="shape"/>
<feGaussianBlur stdDeviation="1" result="effect1_foregroundBlur_310_3854"/>
</filter>
<linearGradient id="paint0_linear_310_3854" x1="1261.1" y1="2431" x2="1261.1" y2="5" gradientUnits="userSpaceOnUse">
<stop stop-color="#000022"/>
<stop offset="0.503125" stop-color="#00003E"/>
<stop offset="1" stop-color="#000025"/>
</linearGradient>
<radialGradient id="paint1_radial_310_3854" cx="0" cy="0" r="1" gradientUnits="userSpaceOnUse" gradientTransform="translate(959.6 2271.3) rotate(-90.0739) scale(381.682 2022.28)">
<stop stop-color="white"/>
<stop offset="1" stop-color="#791D1D" stop-opacity="0.41"/>
</radialGradient>
</defs>
</svg>
