<?xml version="1.0" encoding="UTF-8"?> <svg xmlns="http://www.w3.org/2000/svg" width="500" height="281" viewBox="0 0 500 281" fill="none"><path d="M185.316 153.977L267.14 103.298H309.58C310.89 103.298 312.064 104.331 312.064 105.771C312.064 106.94 311.545 107.456 310.89 107.864L270.688 131.858C268.068 133.407 267.167 136.532 267.167 138.869L267.14 153.977H318.205V66.125C318.205 64.4402 316.895 63 314.93 63H266.239L184.606 113.461V154.004H185.316V153.977Z" fill="black"></path><path d="M126.5 182.836L114 215.254H122.597L124.781 209.167H138.727L140.883 215.254H149.754L137.09 182.836H126.5ZM127.237 202.292L131.795 189.575L136.271 202.292H127.237Z" fill="black"></path><path d="M173.253 202.781C173.253 206.993 170.66 208.705 166.211 208.705C161.899 208.705 159.088 206.911 159.088 202.781V182.727H150.791V203.705C150.791 213.08 159.17 215.987 166.211 215.987C173.225 215.987 181.55 213.08 181.55 203.705V182.727H173.253V202.781Z" fill="black"></path><path d="M185.343 189.846H195.851V215.254H204.148V189.846H214.629V182.836H185.343V189.846Z" fill="black"></path><path d="M271.725 182.836H256.496V215.254H271.725C283.406 215.254 286.627 210.906 286.627 198.814C286.627 187.401 283.516 182.836 271.725 182.836ZM271.398 208.243H264.793V189.846H271.398C276.611 189.846 278.166 191.259 278.166 198.814C278.139 205.689 276.392 208.243 271.398 208.243Z" fill="black"></path><path d="M386 182.836H376.12L364.275 196.015V182.836H355.978L356.005 215.254H364.275V202.944L375.52 215.254H386L370.88 199.248L386 182.836Z" fill="black"></path><path d="M291.267 215.254H317.468V208.243H299.564V202.373H313.974V195.308H299.564V189.846H317.468V182.836H291.267V215.254Z" fill="black"></path><path d="M233.952 181.939C222.107 181.939 215.966 189.194 215.966 198.949C215.966 208.759 222.107 216.042 233.952 216.042C245.824 216.042 251.992 208.759 251.992 198.949C251.992 189.194 245.824 181.939 233.952 181.939ZM233.952 208.759C227.811 208.759 224.427 205.036 224.427 198.949C224.427 192.998 227.811 189.221 233.952 189.221C240.147 189.221 243.477 192.998 243.477 198.949C243.477 205.036 240.147 208.759 233.952 208.759Z" fill="black"></path><path d="M342.577 196.178L335.017 195.335C330.568 194.846 329.477 193.759 329.477 192.265C329.477 190.607 331.769 189.113 336.191 189.113C340.476 189.113 342.714 190.689 343.123 193.08H351.256C350.847 186.232 345.061 181.966 336.655 181.966C326.638 181.966 321.589 185.933 321.589 192.944C321.589 198.651 324.919 201.341 331.851 202.074L339.548 202.89C342.468 203.216 343.833 204.357 343.833 205.797C343.833 207.455 341.868 208.949 337.146 208.949C331.687 208.949 329.504 207.563 329.122 204.819H321.152C321.507 212.265 326.392 216.096 336.873 216.096C346.425 216.096 351.775 211.911 351.775 205.634C351.748 200.145 348.554 196.857 342.577 196.178Z" fill="black"></path></svg> 