<svg width="337" height="423" viewBox="0 0 337 423" fill="none" xmlns="http://www.w3.org/2000/svg">
<path d="M281.659 82.618C281.659 82.7877 281.574 91.1895 281.404 101.374L281.234 119.79H300.16H319V101.119V82.4482H300.329C290.06 82.4482 281.659 82.5331 281.659 82.618Z" fill="white"/>
<path d="M281.648 126.748C281.648 126.918 281.564 135.32 281.394 145.504L281.224 163.92H300.149H318.99L318.82 145.419L318.565 127.003L300.149 126.748C289.965 126.663 281.648 126.663 281.648 126.748Z" fill="white"/>
<path d="M72.3759 171.812C72.2062 172.406 72.1213 180.893 72.2062 190.653L72.4608 208.475L90.9618 208.729L109.378 208.899V189.804V170.709H91.1315C77.0436 170.709 72.7154 170.964 72.3759 171.812Z" fill="white"/>
<path d="M121.256 189.38V208.05H167.933H214.61V189.38V170.709H167.933H121.256V189.38Z" fill="white"/>
<path d="M225.645 189.38V208.05H272.321H318.998V189.38V170.709H272.321H225.645V189.38Z" fill="white"/>
<path d="M16.8682 233.512V252.183H63.5449H110.222V233.512V214.842H63.5449H16.8682V233.512Z" fill="white"/>
<path d="M121.256 233.512V252.183H167.933H214.61V233.512V214.842H167.933H121.256V233.512Z" fill="white"/>
<path d="M225.645 233.512V252.183H272.321H318.998V233.512V214.842H272.321H225.645V233.512Z" fill="white"/>
<path d="M73.4728 259.566C73.1334 259.821 72.8788 268.222 72.8788 278.237V296.313H119.556H166.232V277.643V258.972H120.15C94.7744 258.972 73.7274 259.227 73.4728 259.566Z" fill="white"/>
<path d="M177.861 259.566C177.522 259.821 177.267 268.222 177.267 278.237V296.313H223.944H270.62V277.643V258.972H224.538C199.163 258.972 178.116 259.227 177.861 259.566Z" fill="white"/>
<path d="M23.6594 278.491V297.162H42.3301H61.0008V278.491V259.82H42.3301H23.6594V278.491Z" fill="white"/>
<path d="M281.394 278.236L281.564 296.737H300.065H318.565L318.82 278.236L318.99 259.82H300.149H281.224L281.394 278.236Z" fill="white"/>
<path d="M177.267 322.198V340.444H223.944H270.62V322.198V303.951H223.944H177.267V322.198Z" fill="white"/>
<path d="M280.8 322.622V341.293H299.471H318.141V322.622V303.951H299.471H280.8V322.622Z" fill="white"/>
<path d="M188.792 411.036L188.864 422.37L195.597 422.442C202.235 422.49 202.331 422.49 203.121 421.963C203.553 421.651 204.176 420.932 204.487 420.357C205.038 419.303 205.038 419.231 205.038 411.132C205.038 402.027 204.99 401.715 203.385 400.374L202.594 399.727H195.669H188.745L188.792 411.036ZM200.51 405.214C201.085 405.669 201.085 405.693 201.085 411.06C201.085 415.254 201.013 416.524 200.749 416.811C200.486 417.171 199.863 417.218 196.508 417.218H192.578V411.156C192.578 407.802 192.65 404.998 192.746 404.926C192.818 404.83 194.495 404.758 196.436 404.758C199.551 404.758 200.03 404.806 200.51 405.214Z" fill="white"/>
<path d="M207.482 411.036L207.554 422.37H209.351H211.149L211.22 411.036L211.268 399.727H209.351H207.435L207.482 411.036Z" fill="white"/>
<path d="M213.712 411.036L213.784 422.37H215.581H217.378L217.498 415.206L217.618 408.065L220.349 411.923C221.859 414.056 223.225 415.781 223.393 415.781C223.56 415.781 224.926 414.056 226.412 411.971L229.119 408.137L229.239 415.254L229.359 422.37H231.156H232.953L233.025 411.036L233.073 399.727H231.204H229.335L226.388 403.896C223.464 408.017 223.393 408.065 223.009 407.562C222.794 407.274 221.452 405.381 220.038 403.369L217.474 399.727H215.557H213.664L213.712 411.036Z" fill="white"/>
<path d="M235.59 400.014C235.518 400.182 235.494 405.286 235.518 411.348L235.59 422.37H243.736H251.883L251.955 420.118C252.003 418.68 251.931 417.77 251.74 417.554C251.524 417.29 250.302 417.218 245.366 417.218H239.28L239.352 415.469L239.423 413.744L244.048 413.672L248.673 413.624L248.601 411.036L248.529 408.473L243.904 408.401L239.28 408.353L239.352 406.604L239.423 404.878L245.653 404.758L251.883 404.639V402.243V399.846L243.784 399.775C237.435 399.727 235.661 399.775 235.59 400.014Z" fill="white"/>
<path d="M254.28 400.014C254.208 400.182 254.184 405.286 254.208 411.348L254.28 422.37H256.197H258.113L258.233 415.325L258.353 408.281L263.385 415.397L268.417 422.514L270.214 422.442L272.011 422.37L272.083 411.036L272.131 399.727H270.214H268.297V406.843C268.297 412.546 268.225 413.912 268.009 413.672C267.842 413.504 265.541 410.318 262.906 406.604L258.113 399.846L256.244 399.774C254.903 399.727 254.351 399.798 254.28 400.014Z" fill="white"/>
<path d="M276.18 400.374C274.79 401.548 274.526 402.506 274.526 406.675C274.526 410.845 274.79 411.803 276.18 412.977L276.97 413.624H281.427C283.895 413.624 286.028 413.72 286.171 413.816C286.699 414.151 287.034 415.134 286.89 415.853C286.627 417.171 286.507 417.218 282.673 417.218C278.887 417.218 278.863 417.218 278.432 415.901C278.192 415.182 278.192 415.182 276.419 415.182H274.646L274.574 417.218C274.526 418.944 274.598 419.423 275.053 420.333C275.365 420.932 275.964 421.651 276.419 421.939C277.21 422.466 277.426 422.49 282.673 422.49C287.921 422.49 288.136 422.466 288.927 421.939C289.382 421.651 289.981 420.932 290.293 420.333C290.772 419.375 290.82 418.944 290.82 415.445C290.82 411.132 290.532 410.054 289.071 409.024C288.352 408.496 287.993 408.473 283.632 408.353L278.959 408.233L278.648 407.562C278.456 407.179 278.384 406.604 278.48 406.196C278.743 404.95 279.318 404.758 282.673 404.758C286.052 404.758 286.603 404.95 286.938 406.268L287.13 407.035H288.927H290.7L290.772 405.118C290.868 402.794 290.437 401.5 289.239 400.445L288.4 399.727H282.673H276.97L276.18 400.374Z" fill="white"/>
<path d="M293.336 400.014C293.264 400.182 293.24 405.286 293.264 411.348L293.336 422.37H295.133H296.93L297.002 411.036L297.05 399.727H295.253C294.031 399.727 293.408 399.822 293.336 400.014Z" fill="white"/>
<path d="M300.883 400.637C299.494 402.027 299.422 402.554 299.494 411.516C299.566 419.063 299.59 419.543 300.069 420.453C300.332 420.98 300.931 421.651 301.387 421.963C302.177 422.514 302.273 422.514 307.856 422.442L313.535 422.37L314.182 421.771C314.541 421.436 315.045 420.765 315.284 420.286C315.716 419.471 315.74 418.776 315.74 411.084C315.74 403.057 315.716 402.722 315.236 401.691C314.302 399.798 314.038 399.727 307.497 399.727H301.794L300.883 400.637ZM311.403 405.381C311.882 405.981 311.906 406.316 311.906 411.084C311.906 415.278 311.834 416.236 311.522 416.691C311.187 417.194 311.019 417.218 307.569 417.218H303.974L303.615 416.356C303.304 415.637 303.256 414.559 303.328 410.581C303.423 404.399 303.136 404.758 307.712 404.758C310.875 404.758 310.923 404.758 311.403 405.381Z" fill="white"/>
<path d="M318.256 400.014C318.184 400.182 318.16 405.286 318.184 411.348L318.256 422.37L319.957 422.442C321.179 422.49 321.73 422.418 321.922 422.178C322.113 421.963 322.233 419.71 322.257 415.086L322.329 408.305L327.361 415.397L332.393 422.514L334.19 422.442L335.987 422.37L336.059 411.036L336.107 399.727H334.19H332.273V406.843C332.273 412.522 332.201 413.912 331.986 413.672C331.818 413.504 329.518 410.318 326.882 406.604L322.09 399.846L320.221 399.774C318.879 399.727 318.328 399.798 318.256 400.014Z" fill="white"/>
<path d="M5.48746 400.253C5.08011 400.661 5.08011 422.274 5.48746 422.681C5.94272 423.137 21.0864 423.089 21.4698 422.634C21.6615 422.418 21.7334 421.507 21.6854 420.07L21.6135 417.817L15.4554 417.745L9.27337 417.697V415.9V414.103L13.8979 414.055L18.4986 413.983L18.5704 411.731C18.6184 410.293 18.5465 409.383 18.3548 409.167C18.1391 408.904 17.1567 408.832 13.6823 408.832H9.27337V407.035V405.237L15.4554 405.19L21.6135 405.118L21.6854 402.865C21.7334 401.428 21.6615 400.517 21.4698 400.301C21.0864 399.846 5.94272 399.798 5.48746 400.253Z" fill="white"/>
<path d="M24.2494 400.254C24.1775 400.421 24.1535 405.573 24.1775 411.707L24.2494 422.849L25.8308 422.921C26.957 422.969 27.4842 422.897 27.6759 422.657C27.8676 422.442 27.9874 420.166 28.0113 415.445L28.0832 408.544L33.187 415.757L38.3148 422.969H39.9202C40.8547 422.969 41.6454 422.849 41.8132 422.681C42.2205 422.274 42.2205 400.661 41.8132 400.254C41.4058 399.846 38.6502 399.87 38.2908 400.277C38.1231 400.493 38.0033 402.913 37.9793 407.514L37.9074 414.415L32.7797 407.178L27.6759 399.966H26.0225C24.8964 399.966 24.3213 400.062 24.2494 400.254Z" fill="white"/>
<path d="M47.0361 400.206C46.1495 400.493 45.5026 401.068 44.8796 402.242C44.4003 403.153 44.3764 403.56 44.3045 410.941C44.2326 417.386 44.3045 418.896 44.592 419.974C45.0233 421.436 46.1974 422.61 47.4195 422.849C47.8508 422.921 50.4386 422.969 53.1702 422.921C58.8251 422.849 59.0168 422.777 60.0232 420.741C60.6222 419.567 60.9577 417.218 60.6941 416.164C60.5504 415.565 60.4785 415.541 58.7532 415.541C57.0041 415.541 56.9561 415.565 56.8124 416.188C56.4769 417.626 56.2373 417.698 52.4993 417.698C49.7198 417.698 49.0249 417.626 48.7134 417.314C48.3779 417.003 48.33 416.14 48.33 411.492C48.33 406.508 48.3779 406.004 48.7613 405.645C49.1207 405.31 49.7677 405.238 52.5712 405.238C56.2133 405.238 56.3331 405.286 56.6926 406.603C56.8603 407.274 56.8842 407.274 58.7772 407.274H60.6702L60.6462 405.334C60.6222 403.057 59.9992 401.5 58.8012 400.637C58.0584 400.11 57.7948 400.086 52.8827 400.038C50.0552 400.014 47.4195 400.086 47.0361 400.206Z" fill="white"/>
<path d="M63.2587 400.229C62.8274 400.661 62.8034 422.25 63.2347 422.681C63.4025 422.849 64.1692 422.969 64.9839 422.969C65.7986 422.969 66.5654 422.849 66.7331 422.681C66.9488 422.465 67.0206 420.165 67.0206 413.815V405.237H70.8066C75.1196 405.237 75.4072 405.357 75.4072 407.01C75.4072 408.807 75.3353 408.831 71.4775 408.831C68.7459 408.831 68.0031 408.903 67.9072 409.167C67.8353 409.359 69.7762 412.33 72.5078 416.188L77.2282 422.849H79.7202C81.7809 422.849 82.2362 422.777 82.3081 422.489C82.332 422.274 81.134 420.357 79.6004 418.224C78.0909 416.068 76.8449 414.271 76.8449 414.199C76.8449 414.151 77.2762 413.72 77.8033 413.24C79.217 411.97 79.5525 410.581 79.4327 406.603C79.3608 403.799 79.2889 403.296 78.7618 402.266C77.6595 400.061 77.7554 400.085 70.1836 400.014C65.1037 399.966 63.4743 400.014 63.2587 400.229Z" fill="white"/>
<path d="M80.6065 400.134C80.1991 400.517 80.6544 401.284 84.1528 406.22L87.8668 411.444V416.931C87.8668 420.861 87.9387 422.466 88.1543 422.682C88.5377 423.065 91.2694 423.065 91.6527 422.682C91.8684 422.466 91.9403 420.885 91.9403 416.979V411.588L95.7741 406.172C98.3859 402.458 99.56 400.613 99.4642 400.35C99.3444 400.014 98.961 399.966 96.8763 400.014L94.4562 400.086L92.2997 403.129C91.1256 404.807 90.0713 406.172 89.9754 406.172C89.8796 406.196 88.8013 404.783 87.6032 403.081L85.3988 399.966H83.0745C81.8045 399.966 80.6784 400.038 80.6065 400.134Z" fill="white"/>
<path d="M100.686 400.253C100.614 400.421 100.59 405.572 100.614 411.707L100.686 422.849L102.196 422.921C103.106 422.968 103.849 422.873 104.065 422.705C104.328 422.489 104.4 421.555 104.4 418.272V414.103H109.096C114.584 414.103 115.063 413.983 116.093 412.21C116.692 411.179 116.74 410.892 116.812 407.657C116.884 405.477 116.812 403.847 116.62 403.2C116.237 401.787 115.111 400.517 114.033 400.205C112.691 399.846 100.83 399.894 100.686 400.253ZM112.547 405.884C112.93 406.387 113.026 406.77 112.93 407.346C112.715 408.807 112.643 408.831 108.33 408.831H104.4V407.034V405.237H108.21H112.044L112.547 405.884Z" fill="white"/>
<path d="M119.544 400.158C119.328 400.302 119.256 400.997 119.304 402.746L119.376 405.118L122.419 405.19L125.486 405.262L125.534 414.056L125.606 422.85L126.9 422.921C127.619 422.969 128.457 422.945 128.769 422.85L129.32 422.73V413.984V405.262L132.387 405.19L135.43 405.118L135.502 402.746C135.55 400.997 135.478 400.302 135.262 400.158C135.095 400.062 131.548 399.966 127.403 399.966C123.258 399.966 119.711 400.062 119.544 400.158Z" fill="white"/>
<path d="M138.258 400.134C138.018 400.229 137.947 402.721 137.947 411.491V422.729L138.498 422.849C138.785 422.921 142.427 422.945 146.573 422.921L154.121 422.849V420.333V417.817L147.963 417.745L141.78 417.697V415.9V414.103L146.405 414.055L151.006 413.983V411.467V408.951L146.405 408.88L141.78 408.832V407.035V405.237L147.963 405.19L154.121 405.118L154.192 402.745C154.24 400.996 154.169 400.301 153.953 400.158C153.617 399.966 138.761 399.918 138.258 400.134Z" fill="white"/>
<path d="M156.948 400.229C156.709 400.469 156.637 403.081 156.637 411.635V422.729L157.188 422.849C157.475 422.921 160.59 422.969 164.113 422.921C171.349 422.849 171.301 422.849 172.379 420.812C172.93 419.782 172.93 419.662 172.93 411.587V403.416L172.307 402.17C171.277 400.109 171.205 400.085 163.705 400.014C158.745 399.966 157.164 400.014 156.948 400.229ZM168.713 405.764C169.025 406.22 169.097 407.178 169.097 411.467C169.097 415.756 169.025 416.715 168.713 417.17C168.354 417.673 168.21 417.697 164.4 417.697H160.47V411.467V405.237H164.4C168.21 405.237 168.354 405.261 168.713 405.764Z" fill="white"/>
<path d="M232.629 0.20378C230.943 0.464707 228.575 1.26756 227.23 2.05034C226.066 2.7127 223.196 5.3019 223.196 5.68326C223.196 6.12483 225.705 8.41296 226.186 8.41296C226.467 8.41296 227.09 8.01154 227.792 7.36925C229.86 5.48255 232.91 4.45891 235.941 4.65962C238.872 4.86033 240.798 5.92412 241.742 7.87104C243.107 10.661 242.304 14.1734 239.574 17.4852C238.992 18.1877 235.299 22.1819 231.365 26.3768L224.199 34.0039V35.429C224.199 36.553 224.28 36.9143 224.561 37.1752C224.902 37.4763 226.026 37.5164 236.483 37.5164C247.402 37.5164 248.044 37.4963 248.345 37.1551C248.787 36.6734 248.827 33.4821 248.426 33.1208C248.225 32.9803 245.555 32.8799 239.815 32.8599L231.465 32.7997L237.286 26.5775C243.388 20.0543 244.612 18.5691 245.656 16.4616C247.462 12.8889 247.562 8.19218 245.917 5.12126C244.752 2.97363 242.364 1.20735 239.554 0.484779C238.049 0.0833518 234.356 -0.0571477 232.629 0.20378Z" fill="white"/>
<path d="M263.539 0.30411C260.066 1.04675 256.855 3.63595 255.068 7.1083C253.383 10.4401 252.76 12.9691 252.58 17.5454C252.158 27.5811 255.751 34.8068 262.334 37.135C264.201 37.7974 268.014 37.8175 270.062 37.1752C275.059 35.6096 278.612 30.5918 279.716 23.6069C280.157 20.8371 279.997 14.9161 279.415 12.4071C277.368 3.55567 270.985 -1.3016 263.539 0.30411ZM269.48 5.40223C273.414 7.32908 275.702 13.1096 275.32 20.1547C274.879 28.0829 271.768 32.7595 266.75 33.0606C263.96 33.2211 261.832 32.1774 260.006 29.7488C257.337 26.1962 256.393 18.8099 257.838 12.8286C258.601 9.75772 260.488 6.8273 262.495 5.66316C264.622 4.39867 267.272 4.29831 269.48 5.40223Z" fill="white"/>
<path d="M292.542 0.183872C290.977 0.444799 288.769 1.10715 287.625 1.68922C286.28 2.37165 284.373 3.877 283.51 4.92071L282.747 5.82392L284.132 7.10849C285.016 7.93141 285.698 8.39305 285.999 8.41313C286.32 8.41313 286.862 8.05184 287.545 7.40956C291.037 4.09778 297.681 3.65621 300.551 6.52642C302.678 8.65398 302.638 12.608 300.471 15.9198C299.427 17.4854 299.427 17.4854 290.395 27.1397L284.012 33.9238V35.389C284.012 36.5532 284.092 36.9144 284.373 37.1754C284.715 37.4764 285.838 37.5166 296.276 37.5166C304.987 37.5166 307.877 37.4564 308.058 37.2757C308.399 36.9345 308.379 33.422 308.037 33.121C307.837 32.9805 305.187 32.8801 299.487 32.86L291.238 32.7998L296.677 26.9791C302.598 20.6566 303.883 19.1513 304.987 17.3248C306.492 14.836 307.235 10.8819 306.713 8.11205C306.03 4.37878 303.26 1.52865 299.326 0.484942C297.901 0.083515 294.188 -0.0569844 292.542 0.183872Z" fill="white"/>
<path d="M320.241 0.183966C317.029 0.705822 314.34 1.99039 312.172 4.09788C311.369 4.86059 310.707 5.60324 310.707 5.72366C310.707 6.14516 313.316 8.41323 313.778 8.41323C314.039 8.41323 314.681 7.99173 315.303 7.40966C318.996 3.93731 325.921 3.63624 328.65 6.84766C330.638 9.15587 330.336 13.1099 327.908 16.502C327.406 17.1844 323.613 21.3593 319.458 25.775L311.931 33.8035L311.911 35.4293C311.911 36.4128 312.011 37.1353 312.152 37.2758C312.493 37.6171 335.615 37.6171 335.956 37.2758C336.117 37.1153 336.197 36.3526 336.197 35.2085C336.197 34.0644 336.117 33.3017 335.956 33.1411C335.776 32.9605 333.588 32.9003 327.326 32.9003H318.936L324.696 26.7183C327.888 23.3263 330.898 20.0145 331.42 19.332C333.648 16.4217 334.592 13.8124 334.612 10.5207C334.612 9.39672 334.511 8.05194 334.391 7.53009C333.648 4.17817 330.898 1.46853 327.266 0.505108C325.8 0.103681 321.886 -0.05689 320.241 0.183966Z" fill="white"/>
<path d="M130.667 1.30783C125.97 1.95011 122.939 3.29489 120.33 5.92424C118.965 7.28909 117.219 10.079 117.219 10.9019C117.219 11.1829 117.58 11.2231 119.928 11.2231C122.518 11.2231 122.638 11.203 122.859 10.7614C123.361 9.81808 124.725 8.39301 125.87 7.6303C128.158 6.10488 130.486 5.44253 134.28 5.26188C137.371 5.12138 139.598 5.36224 142.368 6.12495C143.392 6.40595 144.416 6.68695 144.677 6.74716C145.118 6.84752 145.118 6.82745 145.118 4.71996C145.118 2.27125 145.279 2.47197 142.81 1.8899C139.117 1.0469 134.259 0.806045 130.667 1.30783Z" fill="white"/>
<path d="M15.5972 1.52819C15.3363 1.94969 11.6432 10.8413 11.6432 11.0219C11.6432 11.1624 12.4661 11.2227 14.0718 11.1825L16.4804 11.1223L17.2431 9.21553C17.6646 8.17181 18.1062 7.28867 18.2065 7.2686C18.3269 7.22846 18.7685 8.07146 19.2301 9.15531L20.033 11.1223L22.6824 11.1825C25.1512 11.2227 25.3318 11.2026 25.2114 10.8814C25.1311 10.6807 24.2078 8.47289 23.1441 5.94389L21.1971 1.3877H18.4474C16.9219 1.3877 15.6374 1.44791 15.5972 1.52819Z" fill="white"/>
<path d="M41.9924 6.24496L42.0526 11.1223H44.5414H47.0303L46.9901 8.49295C46.95 6.34532 46.9901 5.82346 47.251 5.62275C47.6525 5.28154 58.5512 5.42204 59.5949 5.76325C60.5784 6.10446 61.6823 6.90732 62.1038 7.62989C62.3046 7.99117 62.5253 8.85424 62.6056 9.67717L62.7261 11.1223L65.4156 11.1825L68.1052 11.2427L67.9848 9.37609C67.7439 5.16111 65.7568 2.75255 61.6623 1.68877C60.6587 1.44791 58.8924 1.3877 51.2051 1.3877H41.9522L41.9924 6.24496Z" fill="white"/>
<path d="M153.428 1.64862C153.387 1.78912 153.367 3.9769 153.387 6.50589L153.448 11.1223L156.017 11.1825L158.566 11.2427V8.31231V5.40197L167.959 5.36182L177.333 5.30161L177.393 3.33462L177.453 1.3877H165.49C155.997 1.3877 153.508 1.44791 153.428 1.64862Z" fill="white"/>
<path d="M185.743 1.64862C185.703 1.78912 185.683 3.9769 185.703 6.50588L185.763 11.1223H188.272H190.781L190.841 8.27216L190.901 5.40196L200.274 5.36182L209.648 5.3016L209.708 3.33461L209.768 1.3877H197.806C188.312 1.3877 185.823 1.44791 185.743 1.64862Z" fill="white"/>
<path d="M101.905 5.12143C101.825 6.20528 101.744 7.10849 101.704 7.14864C101.644 7.18878 101.162 6.90778 100.6 6.5465C98.4126 5.06122 94.9002 3.99743 92.2307 3.99743C90.5647 3.99743 88.2365 4.47915 86.3899 5.18164C84.7441 5.82393 82.3556 7.34935 81.633 8.21242C81.1513 8.79449 81.1312 8.79449 81.0108 8.35292C80.9506 8.11206 80.8904 6.94792 80.8904 5.74364C80.8904 4.55943 80.8302 3.59601 80.7699 3.59601C80.4488 3.59601 78.5822 5.16157 77.5786 6.2655C76.5349 7.40956 74.869 10.2998 74.869 10.9421C74.869 11.1629 75.2503 11.2231 76.555 11.2231C79.0237 11.2231 78.9836 11.183 78.0804 13.0697C77.6388 13.9528 77.1972 15.1571 77.0567 15.7392L76.8159 16.823L75.4912 16.9435C74.7686 17.0037 74.026 17.084 73.8654 17.104C73.0425 17.2245 73.6245 24.8114 74.7084 27.782C75.2102 29.2071 76.3542 31.2744 77.1972 32.3382C78.0202 33.402 80.2882 35.3087 80.7097 35.3087C80.8101 35.3087 80.8904 34.4055 80.8904 33.3217C80.8904 30.5518 80.9305 30.5117 82.1348 31.5955C83.4394 32.7597 85.3061 33.8034 87.4938 34.5862C89.0995 35.1482 89.4207 35.1883 92.03 35.2084C94.4184 35.2084 95.0607 35.1482 96.3453 34.7468C98.1316 34.1848 100.62 33.0005 101.082 32.4787C101.283 32.2579 101.504 32.0973 101.584 32.0973C101.664 32.0973 101.805 32.9002 101.885 33.9038C101.945 34.8872 102.086 35.7102 102.166 35.7102C102.427 35.7102 104.053 34.4858 105.036 33.5224C108.207 30.5117 109.793 25.7749 109.793 19.3319V17.104L108.669 16.9234L107.525 16.7427L107.264 15.6388C107.104 15.0367 106.642 13.8324 106.22 12.9894C105.357 11.2231 105.337 11.2231 107.445 11.2231C108.067 11.2231 108.589 11.1629 108.589 11.0826C108.589 10.621 106.863 7.50992 106.04 6.50635C105.217 5.48271 102.527 3.19458 102.146 3.19458C102.086 3.19458 101.965 4.05765 101.905 5.12143ZM94.9002 5.92428C98.1718 6.58664 101.182 8.33285 102.266 10.1995C102.608 10.7615 103.049 11.2833 103.29 11.3435C103.792 11.464 104.815 13.3105 105.478 15.2575C105.759 16.0603 105.98 16.7427 105.98 16.7829C105.98 16.803 105.618 16.9033 105.157 16.9635L104.354 17.104L104.474 18.3284C104.635 19.8137 104.294 23.4064 103.852 25.1326C103.571 26.2766 103.17 27.1799 101.985 29.4278C101.443 30.4515 100.099 31.4751 98.1116 32.3783C92.7325 34.8471 86.3698 33.7432 82.2351 29.6085C79.9069 27.2802 79.0839 24.9319 78.9434 20.2552C78.8832 18.5492 78.7628 17.0438 78.6424 16.9033C78.3814 16.5621 78.9434 14.6754 79.8467 12.9292C80.8302 11.0023 83.4796 8.35292 85.4064 7.36942C88.658 5.7035 91.6486 5.26193 94.9002 5.92428Z" fill="white"/>
<path d="M89.5614 12.5278C86.0289 13.8325 83.821 17.8869 84.7242 21.3592C86.0489 26.5176 91.7894 28.886 96.2452 26.1162C97.4093 25.4137 98.3728 24.3097 99.0552 22.9449C100.139 20.7772 99.9584 17.7063 98.6538 15.6389C96.6868 12.568 92.8933 11.2834 89.5614 12.5278Z" fill="white"/>
<path d="M8.97427 17.1842C8.87392 17.3448 5.12057 26.1962 3.31415 30.5316C2.73208 31.9166 2.10988 33.3617 1.9493 33.7431C1.30702 35.128 0.403809 37.3559 0.403809 37.5365C0.403809 37.657 1.48766 37.6971 2.9328 37.677C4.93993 37.6369 5.522 37.5566 5.64243 37.3158C5.74279 37.1552 6.54564 35.2083 7.44885 33.0004C8.35206 30.7926 9.19506 28.7052 9.33556 28.384C9.59648 27.822 11.5835 22.9848 13.2495 18.8903L14.0122 17.0437H11.5434C10.1786 17.0437 9.01442 17.1039 8.97427 17.1842Z" fill="white"/>
<path d="M22.7832 17.7866C23.9875 20.6368 24.4893 21.9013 24.4893 22.0618C24.4893 22.1823 22.8635 22.2625 20.1338 22.2625H15.7583L15.116 24.1292C14.7547 25.1729 14.4536 26.0761 14.4536 26.1363C14.4536 26.2166 17.103 26.2768 20.3345 26.2768C23.5459 26.2768 26.2957 26.3571 26.3961 26.4374C26.5165 26.5177 26.8577 27.16 27.1789 27.8825C27.4799 28.6051 27.8613 29.4481 28.0018 29.7893C28.1423 30.1104 28.6441 31.2947 29.1057 32.3986C29.5673 33.5025 30.0491 34.6666 30.2096 35.0078C30.3501 35.329 30.6713 36.0917 30.9121 36.6537L31.3537 37.7175H33.963C36.3515 37.7175 36.5723 37.6974 36.4719 37.3562C36.4318 37.1756 34.7658 33.2616 32.8189 28.6854C30.8519 24.1091 28.9652 19.6332 28.6039 18.7501L27.9416 17.1444L25.2119 17.0841L22.4621 17.0239L22.7832 17.7866Z" fill="white"/>
<path d="M41.9924 27.3205L42.0526 37.6171L44.5213 37.6773C46.107 37.7175 46.97 37.6573 46.97 37.5168C46.97 37.4164 46.97 32.7799 46.97 27.2202V17.1444L44.4611 17.0841L41.9522 17.0239L41.9924 27.3205Z" fill="white"/>
<path d="M56.0014 17.2647C55.7204 17.3851 54.8774 17.6059 54.0946 17.7665C53.3319 17.927 52.6294 18.1277 52.5492 18.208C52.3886 18.3686 53.1312 21.8409 53.4122 22.1821C53.6129 22.4431 56.2624 21.9413 58.41 21.2388C60.658 20.5162 63.2673 19.1514 64.4314 18.0675L65.5353 17.064H61.0193C58.4903 17.064 56.2824 17.1643 56.0014 17.2647Z" fill="white"/>
<path d="M115.954 17.1842C115.512 17.6057 116.095 23.6873 116.817 26.2565C118.523 32.318 122.718 35.971 129.663 37.4161C131.71 37.8577 136.748 38.0183 139.016 37.7373C140.842 37.5165 143.532 36.9143 144.576 36.4928L145.118 36.2721V28.665V21.058H142.709H140.301V27.0593C140.301 30.6721 140.22 33.1209 140.1 33.2011C139.999 33.2614 138.855 33.4621 137.551 33.6427C135.002 33.9839 132.834 33.8434 130.064 33.1811C126.853 32.3782 123.922 30.07 122.578 27.2801C121.474 24.9518 121.213 23.7275 121.092 20.1949L120.972 17.0437H118.523C117.178 17.0437 116.014 17.1039 115.954 17.1842Z" fill="white"/>
<path d="M153.468 17.2041C153.287 17.3847 153.327 37.1951 153.508 37.4761C153.648 37.6768 156.217 37.717 165.711 37.6768L177.734 37.6166V35.6095V33.6024L168.14 33.5422L158.566 33.502L158.606 27.4204L158.666 21.3588L167.598 21.2585L176.53 21.1581L176.59 19.2915C176.63 17.9066 176.57 17.4249 176.389 17.3646C175.988 17.2241 153.588 17.0836 153.468 17.2041Z" fill="white"/>
<path d="M185.783 17.2043C185.602 17.3849 185.642 37.1953 185.823 37.4763C185.963 37.677 188.533 37.7172 198.026 37.677L210.049 37.6168V35.6097V33.6025L200.455 33.5022L190.861 33.4018V27.5209C190.861 24.2894 190.921 21.5597 190.981 21.4594C191.062 21.339 194.534 21.2587 199.933 21.2587C204.77 21.2587 208.744 21.1985 208.744 21.0981C208.825 19.4121 208.765 17.3648 208.624 17.3247C208.203 17.2243 185.883 17.1039 185.783 17.2043Z" fill="white"/>
</svg>
