<svg width="209" height="377" viewBox="0 0 209 377" fill="none" xmlns="http://www.w3.org/2000/svg">
<g opacity="0.2">
<path d="M95.0824 249.468C94.9655 248.825 94.8485 248.796 91.6325 248.796H88.2996L88.2119 253.766L88.1242 258.736H90.6385C92.9774 258.736 93.1821 258.678 93.8837 257.947C94.293 257.479 94.79 256.836 94.9655 256.485C95.2578 255.871 95.3455 250.901 95.0824 249.468ZM91.7787 254.965C91.3109 255.813 89.8199 255.725 89.3814 254.789C88.7382 253.386 90.6385 251.866 91.7202 252.947C92.1588 253.386 92.1588 254.205 91.7787 254.965Z" fill="black"/>
<path d="M94.6731 241.195C94.5562 239.675 93.913 230.728 93.2406 221.314C92.5974 211.9 91.9542 203.334 91.808 202.252C91.5156 200.206 90.7847 198.773 89.6445 198.188C89.0013 197.808 79.4704 197.224 78.4471 197.487C77.8331 197.633 77.8039 197.75 77.6285 207.047C77.5408 212.251 77.3654 228.272 77.2777 242.657L77.1022 268.852L77.8624 269.261C78.4179 269.554 78.8564 269.583 79.4411 269.378C80.3182 269.057 80.289 269.525 79.9089 262.479C79.7042 258.473 79.9966 252.597 80.3767 252.597C80.5229 252.597 80.5521 254.819 80.4644 257.509C80.3767 260.315 80.4059 262.508 80.5521 262.596C80.6983 262.683 82.277 262.216 84.0604 261.602C87.1302 260.52 87.3349 260.374 87.5103 259.555C87.598 259.058 87.6857 255.754 87.6857 252.158C87.6857 245.814 87.6857 245.668 88.3581 245.083C89.0306 244.469 91.3695 242.949 91.6326 242.949C92.1588 242.949 91.5449 243.563 90.0246 244.557C88.3289 245.668 88.2704 245.726 88.2704 246.954V248.211H91.6326H94.9947L94.9655 246.106C94.9363 244.937 94.8193 242.715 94.6731 241.195ZM88.2997 232.804L88.1243 241.224L87.3933 241.78C86.984 242.101 86.3993 242.364 86.0777 242.423C85.6099 242.481 85.4638 242.803 85.2883 244.089C85.0545 246.048 84.3236 247.071 82.8033 247.597C79.675 248.708 76.8391 245.668 78.1255 242.569C78.6517 241.37 80.1136 240.318 81.283 240.318H82.0431L82.2186 236.166C82.3355 233.857 82.4232 226.167 82.4232 219.092V206.199L81.283 205.994C79.9674 205.79 78.5056 204.328 78.184 202.925C77.9208 201.638 78.9149 199.621 80.2013 198.949C81.8677 198.042 83.4465 198.452 85.0837 200.235C85.8438 201.054 86.604 201.726 86.7794 201.726C86.984 201.726 87.4518 202.077 87.8319 202.486L88.5628 203.276L88.5336 213.83C88.5043 219.648 88.4166 228.185 88.2997 232.804ZM86.0192 258.707C85.5515 258.707 84.9375 258.59 84.6159 258.444C84.1481 258.239 84.2358 258.181 85.1422 258.181L86.2239 258.152L86.2531 255.023C86.2531 253.269 86.3701 251.34 86.487 250.697C86.6624 249.878 86.7502 250.872 86.7794 254.146L86.8086 258.736L86.0192 258.707ZM84.5574 249.381H83.5927V253.591C83.5927 256.105 83.4757 257.889 83.3003 258.006C83.0956 258.122 83.0079 256.544 83.0079 253.503V248.796H84.7036C85.8731 248.796 86.2531 248.884 85.9315 249.089C85.6977 249.235 85.0545 249.381 84.5574 249.381Z" fill="black"/>
<path d="M84.7328 200.673C84.4112 200.06 83.0371 199.095 82.4524 199.095C81.9846 199.095 82.0723 199.972 82.5986 200.995C82.8909 201.58 82.9786 202.281 82.8617 203.188C82.6863 204.679 82.9786 205.351 83.7095 205.059C84.8205 204.62 85.4052 202.106 84.7328 200.673Z" fill="black"/>
<path d="M84.2358 242.364L83.6803 241.691L83.0079 243.124C82.6278 243.913 81.8677 245.083 81.3414 245.697C80.8152 246.34 80.3766 246.983 80.3766 247.129C80.3766 247.305 80.9614 247.334 81.7507 247.246C82.8325 247.129 83.3295 246.895 83.9435 246.194C84.9375 245.083 85.0544 243.387 84.2358 242.364Z" fill="black"/>
<path d="M81.5169 240.902C80.5521 240.902 80.1428 241.078 79.3242 241.896C78.5348 242.686 78.3301 243.124 78.3301 244.06C78.3301 244.762 78.5348 245.492 78.8564 245.872L79.4119 246.545L80.0258 245.639C80.3767 245.171 80.669 244.528 80.669 244.235C80.669 243.972 81.1368 243.3 81.6923 242.744C83.0664 241.399 83.0372 240.902 81.5169 240.902Z" fill="black"/>
<path d="M81.4292 203.187C81.1368 202.72 81.0783 201.959 81.166 200.936C81.3122 199.621 81.2537 199.387 80.8444 199.387C80.5813 199.387 80.0258 199.708 79.6458 200.118C79.0903 200.673 78.9149 201.141 78.9149 202.164C78.9149 202.924 79.061 203.772 79.2072 204.094C79.4996 204.649 80.9321 205.526 81.5461 205.526C81.9554 205.526 81.8969 204.064 81.4292 203.187Z" fill="black"/>
<path d="M93.4744 62.153C92.4219 61.5098 91.7495 61.4221 84.9082 61.1297C81.3707 60.9543 77.2484 60.7204 75.7866 60.6327L73.0676 60.4573L73.0969 50.6047C73.1261 45.1961 73.2138 35.5774 73.3307 29.2331C73.5062 19.8483 73.4769 17.5972 73.1553 17.2463C72.6583 16.6908 69.0623 16.4862 67.6882 16.954L66.6357 17.3048V31.5136C66.6357 39.3488 66.548 49.026 66.431 53.0313C66.2556 59.9603 66.2264 60.2527 65.7878 59.3171C65.3785 58.4692 65.1446 58.3231 64.2091 58.2354C62.718 58.1184 62.3672 58.4692 62.1041 60.3404C61.9871 61.3052 61.7532 62.0068 61.4901 62.0945C61.1978 62.2115 61.0808 62.7377 61.0808 63.8487V65.4274L63.3612 65.5444C64.823 65.6029 65.9632 65.4859 66.6357 65.2228C67.2204 64.9889 68.7699 64.8135 70.2025 64.7842C72.4829 64.755 72.8337 64.8135 73.4185 65.4274C74.0324 66.0414 74.0909 66.3922 74.1786 69.7544C74.2955 73.5843 74.1494 74.5783 73.6231 74.0521C73.4185 73.8474 73.2723 72.1225 73.2723 69.8421L73.2138 65.9245L71.752 65.5444C70.6118 65.252 69.8516 65.2228 68.3314 65.4859L66.3725 65.8367L66.2848 69.6667L66.1971 73.5258L64.0044 73.9059C62.8057 74.0813 61.6363 74.1983 61.4609 74.1106C61.2562 74.0521 61.0808 73.6136 61.0808 73.1458C61.0808 72.1225 60.3207 71.3916 58.1864 70.3099C56.023 69.2281 55.3798 69.4328 54.795 71.3916C54.5612 72.2102 54.3565 73.2042 54.3565 73.5551C54.3565 74.4029 55.9645 75.8063 57.7187 76.4495C59.005 76.9465 59.122 76.9465 59.9406 76.4787C60.7885 75.9817 60.7885 75.9817 61.2855 76.8003L61.7532 77.6481L64.2675 77.0926C67.6297 76.391 71.8982 76.5664 75.5527 77.5897C77.0145 77.999 78.3301 78.3498 78.5348 78.3498C78.9148 78.3498 89.9369 70.1929 91.7495 68.5265C93.3282 67.1231 94.1176 65.5736 94.1176 63.9072C94.1176 62.8547 93.9714 62.5038 93.4744 62.153ZM88.095 68.0002C88.0073 68.3511 87.6272 68.7604 87.2764 68.9358C86.8963 69.1112 84.8498 70.5145 82.7155 72.064C78.564 75.0754 77.5115 75.6601 77.2776 75.0461C77.2191 74.8415 77.1899 71.9179 77.2191 68.5557L77.3069 62.4161L82.1893 62.3284L87.101 62.2699L87.6857 63.2055C88.2704 64.1703 88.4751 66.5969 88.095 68.0002ZM58.7419 74.6953C58.4203 74.8999 56.5492 74.169 56.2861 73.7305C56.1984 73.5843 56.1984 73.0288 56.2861 72.5318C56.4615 71.7717 56.5785 71.6547 57.1047 71.8009C58.3911 72.181 59.0343 72.7949 59.0343 73.672C59.0343 74.1398 58.9173 74.5783 58.7419 74.6953Z" fill="black"/>
<path d="M87.4811 64.0239C87.101 63.0007 86.4578 62.8545 81.9262 62.8545C77.6577 62.8545 77.4531 62.8837 77.4531 63.4392C77.4531 63.9362 77.6577 64.0239 78.5933 64.0239C80.5813 64.0239 82.4232 64.3748 82.4232 64.7548C82.4232 64.9595 82.6571 65.398 82.9495 65.7196C83.3295 66.1874 83.9142 66.3336 85.5807 66.4505L87.6857 66.5675L87.6565 65.515C87.6565 64.9303 87.5688 64.2578 87.4811 64.0239Z" fill="black"/>
<path d="M81.3414 160.357C80.7275 97.0605 80.4351 81.8577 79.8211 80.7467C79.6457 80.3959 79.0025 79.8989 78.3886 79.6358C77.2484 79.168 72.2782 77.7646 71.6935 77.7646C71.5181 77.7646 71.2842 78.1155 71.1965 78.5833C71.1088 79.0218 70.9041 97.3236 70.7579 119.28C70.5825 141.236 70.3779 165.736 70.2902 173.747L70.1147 188.277H72.5706C73.9447 188.277 76.0789 188.482 77.3068 188.716C79.558 189.125 80.8152 188.979 81.3122 188.189C81.5168 187.868 81.5168 177.869 81.3414 160.357Z" fill="black"/>
<path d="M78.681 195.82C78.5933 195.323 78.0378 195.294 72.1028 195.294C68.536 195.294 64.1214 195.206 62.338 195.089C59.4728 194.943 59.0343 194.972 59.0343 195.352C59.0343 195.937 59.6483 196.171 61.0808 196.171C61.7533 196.171 62.338 196.346 62.5719 196.639C62.9519 197.077 63.6828 197.107 69.8517 196.931C77.6285 196.727 78.8272 196.551 78.681 195.82Z" fill="black"/>
<path d="M78.4179 193.073L78.3009 192.166L73.7108 191.991C71.1965 191.874 67.0158 191.786 64.4138 191.786H59.7067L59.3851 192.868C59.1805 193.54 59.1513 194.067 59.3267 194.242C59.4728 194.388 63.829 194.564 69.1208 194.651C77.1022 194.768 78.6225 194.739 78.564 194.388C78.564 194.154 78.4763 193.57 78.4179 193.073Z" fill="black"/>
<path d="M77.7746 190.762C77.5992 190.674 77.453 190.265 77.453 189.914C77.453 189.33 77.2776 189.213 75.9327 189.037C73.9154 188.803 65.9925 188.803 62.9227 189.066C60.8761 189.213 60.4961 189.33 60.4961 189.768C60.4961 190.031 60.3206 190.324 60.1452 190.411C59.8821 190.499 59.8529 190.645 60.0575 190.85C60.3499 191.171 77.5992 191.435 77.9208 191.142C78.0085 191.054 77.95 190.879 77.7746 190.762Z" fill="black"/>
<path d="M70.6118 197.633H64.0921L63.9167 211.783C63.829 219.589 63.829 226.401 63.9167 226.986L64.0921 228.009L64.823 227.454C65.6416 226.81 67.4835 226.664 68.039 227.22C68.2436 227.424 68.3898 228.068 68.3898 228.682C68.3898 229.646 68.2729 229.851 67.6004 230.114C66.5479 230.523 64.9107 230.26 64.4429 229.588C64.2383 229.296 63.9752 229.149 63.8875 229.237C63.7997 229.325 63.5951 236.575 63.4782 245.317L63.215 261.221L63.9459 262.976C65.4662 266.601 66.7818 267.507 71.635 268.297C74.1786 268.706 74.6171 268.735 74.851 268.355C74.9972 268.121 75.1141 266.689 75.1141 265.168C75.1141 260.49 75.5527 260.578 75.6988 265.285C75.7866 268.15 75.962 269.7 76.1666 269.758C76.4298 269.846 76.5467 262.069 76.6929 240.405C76.7806 224.208 76.9268 207.953 76.9852 204.299L77.1314 197.633H70.6118ZM75.9035 215.818C75.348 216.169 72.8045 216.402 72.4244 216.139C72.1905 215.993 72.7168 215.847 73.7985 215.759L75.5527 215.613L75.6404 211.608L75.7281 207.573L74.0324 207.544C72.5998 207.544 72.4536 207.485 72.9799 207.222C73.4184 207.018 74.0616 206.988 74.8802 207.164C75.845 207.368 76.1374 207.573 76.2836 208.158C76.5759 209.298 76.2543 215.584 75.9035 215.818ZM73.9447 265.314C73.6523 266.425 73.5646 240.142 73.8862 235.757L74.0909 232.57L74.237 234.909C74.4709 238.593 74.237 264.35 73.9447 265.314ZM71.6935 211.871C71.1965 211.754 71.1965 211.754 71.6935 211.52C71.9566 211.403 72.4244 211.403 72.7168 211.52C73.1845 211.754 73.1845 211.754 72.7168 211.871C72.4244 211.959 71.9566 211.959 71.6935 211.871ZM69.647 266.484C68.8576 266.367 67.8051 266.075 67.3081 265.841C66.2263 265.344 64.7061 263.239 64.2675 261.572C63.9459 260.374 64.0921 259.35 64.4429 260.344C64.5599 260.666 65.0277 261.748 65.5247 262.771C66.5187 264.905 67.425 265.578 69.5885 265.87C70.3779 265.987 71.0211 266.221 71.0211 266.367C71.0211 266.601 70.5533 266.63 69.647 266.484Z" fill="black"/>
<path d="M74.4709 269.437C74.0909 269.349 72.8045 269.145 71.6058 268.94C66.9572 268.209 65.3493 267.215 63.8582 264.204L62.7765 262.04L62.8057 251.983C62.8057 246.458 62.9227 239.148 63.0104 235.757L63.215 229.588L61.8117 229.413C61.0516 229.296 59.9991 229.208 59.4728 229.208C58.3911 229.208 57.6017 228.536 58.1864 228.156C58.3911 228.039 59.5897 227.863 60.8469 227.805L63.1273 227.659V223.244C63.1273 220.817 63.215 214.005 63.332 208.1L63.5074 197.341H61.8702C60.116 197.341 60.1452 197.312 57.7771 200.118C57.1047 200.908 56.8416 200.995 54.6196 201.171C53.2747 201.288 50.8774 201.405 49.2986 201.405C46.8428 201.434 46.2873 201.346 45.6734 200.849C45.2641 200.528 44.6501 200.264 44.2993 200.264C43.7145 200.264 43.5099 200.966 41.3756 210.585C40.1185 216.227 38.7152 222.455 38.2766 224.384C37.458 227.805 37.4288 228.185 37.3118 237.921L37.1656 247.919L41.8727 247.949C44.4747 247.978 46.989 248.065 47.4568 248.182C48.5093 248.416 49.3571 249.527 49.4448 250.784C49.5325 251.837 49.5618 251.866 50.1172 251.311C50.3511 251.106 51.3159 250.843 52.31 250.726C53.2747 250.609 54.5319 250.258 55.0582 249.937C56.1107 249.323 56.7538 249.41 57.8063 250.346C58.7127 251.165 58.6542 252.451 57.6894 253.328C56.7538 254.205 56.0522 254.234 54.8243 253.503C54.3272 253.211 53.1578 252.889 52.2222 252.802C51.2867 252.714 50.3219 252.48 50.088 252.275C49.7372 251.983 49.6787 252.626 49.6495 256.807C49.6202 259.468 49.591 261.777 49.5618 261.953C49.5325 262.099 50.1172 262.537 50.8482 262.917C52.3684 263.707 53.9179 265.578 54.3565 267.157C54.5027 267.741 54.6488 268.969 54.6488 269.876C54.6488 271.484 54.6781 271.542 55.5552 271.718C58.8004 272.361 71.2842 272.127 74.0909 271.367C75.2603 271.045 75.5234 269.642 74.4709 269.437ZM62.221 227.249C61.0808 227.542 60.2329 226.84 61.2562 226.46C61.8117 226.255 62.835 226.489 62.835 226.869C62.835 226.986 62.5718 227.162 62.221 227.249ZM61.8117 230.524C61.3439 230.524 60.9346 230.348 60.8761 230.173C60.7884 229.91 61.0808 229.793 61.8117 229.793C62.5426 229.793 62.835 229.91 62.7765 230.173C62.6888 230.348 62.2795 230.524 61.8117 230.524ZM62.0748 199.826C61.4901 200.381 60.8177 200.294 60.3791 199.621C59.9991 199.007 60.4376 198.13 61.1393 197.984C61.607 197.896 62.5426 198.656 62.5426 199.095C62.5426 199.241 62.3379 199.563 62.0748 199.826ZM61.0223 261.894C60.1452 262.771 58.7419 261.894 59.3266 260.812C59.7067 260.052 60.6422 260.023 61.0516 260.725C61.4316 261.368 61.4316 261.485 61.0223 261.894ZM59.2682 207.369C58.8881 207.72 57.9818 208.538 57.2216 209.152C56.1107 210.029 55.6721 210.234 55.0874 210.088C53.9764 209.795 53.8302 209.065 54.7658 208.304C55.7598 207.515 55.4967 207.281 53.5963 207.281C52.4854 207.281 52.0468 207.164 51.9007 206.813C51.5498 205.907 51.7252 205.293 52.3977 205.118C53.4502 204.855 58.3326 204.913 59.1512 205.235C60.116 205.585 60.1452 206.492 59.2682 207.369ZM57.6309 212.924C56.5492 213.011 54.8243 213.011 53.7718 212.894C51.9007 212.69 51.8714 212.69 51.8714 211.813C51.8714 210.936 51.8714 210.936 54.0934 210.643C55.3213 210.497 56.5492 210.175 56.8123 209.942C57.1924 209.62 57.4263 209.62 58.1864 209.912C59.4728 210.468 59.8236 210.906 59.6775 211.9C59.5605 212.748 59.502 212.778 57.6309 212.924ZM58.011 248.709C57.3093 248.943 57.2216 248.709 57.1924 246.662C57.1339 244.616 57.2801 244.236 58.011 244.499C58.3326 244.645 58.4495 245.142 58.4495 246.604C58.4495 248.065 58.3326 248.563 58.011 248.709ZM58.011 258.941C57.3093 259.175 57.2216 258.941 57.1632 256.866C57.1339 254.848 57.2801 254.468 58.011 254.731C58.3326 254.878 58.4495 255.375 58.4495 256.836C58.4495 258.298 58.3326 258.795 58.011 258.941ZM57.7186 234.471C57.1339 234.968 56.403 234.617 56.403 233.886C56.403 233.214 57.0462 232.863 57.7186 233.126C58.2741 233.33 58.2741 234.003 57.7186 234.471ZM56.2861 230.202C55.7306 231.079 55.4382 231.138 54.8243 230.495C54.415 230.115 54.3565 229.15 54.3857 224.297C54.415 221.139 54.5027 218.215 54.6196 217.835C54.912 216.724 55.6721 216.403 56.4322 217.075C57.0462 217.66 57.0462 217.777 56.9293 223.566C56.8123 228.448 56.6954 229.588 56.2861 230.202ZM47.7491 239.441C45.1763 240.318 43.3637 240.143 41.6095 238.915C40.0893 237.833 39.8846 238.301 41.2879 239.645C43.1591 241.487 45.995 242.218 48.48 241.487C49.4156 241.224 49.4448 241.224 49.2402 242.014C49.1525 242.452 48.7139 243.242 48.2754 243.797C45.995 246.633 42.0188 246.574 39.4753 243.68L38.569 242.628L38.6275 235.991L38.7152 229.354L39.7384 229.208C40.2939 229.091 41.1418 228.77 41.6095 228.477C42.9544 227.571 45.4687 227.688 46.989 228.711C47.6614 229.15 48.4216 229.851 48.7139 230.261C49.2109 231.05 49.5618 233.506 49.6495 236.868L49.6787 238.798L47.7491 239.441ZM38.4228 246.253C38.2766 246.282 38.1012 246.077 38.0427 245.814C37.9843 245.493 38.1304 245.288 38.4228 245.288C38.9198 245.288 38.9491 246.165 38.4228 246.253Z" fill="black"/>
<path d="M72.0151 272.302C66.051 272.682 62.7473 272.741 58.7712 272.536C56.0522 272.419 54.5319 272.449 54.4735 272.624C54.415 272.799 53.8303 275.928 53.1871 279.611C51.4037 289.698 52.6024 285.868 39.3876 323.933C31.5231 346.621 28.0733 356.561 27.8978 357.058C27.5762 357.876 27.05 357.643 25.7928 356.152C24.3018 354.397 22.1383 353.169 21.4074 353.637C20.2672 354.397 21.349 358.257 23.1031 359.718C23.8633 360.362 25.0619 361.063 26.2021 361.502C26.2606 361.531 26.0267 362.203 25.7051 363.051C25.1496 364.455 25.1496 364.572 25.6467 364.835C26.6992 365.39 39.5631 367.261 49.9711 368.343C63.332 369.776 69.3254 370.097 71.3719 369.542L72.4244 369.249L72.5999 367.115C72.6876 365.975 72.9799 358.373 73.2138 350.246C73.4477 342.118 73.7985 331.272 73.9447 326.126C74.1201 320.981 74.3248 306.713 74.4417 294.463L74.6172 272.127L72.0151 272.302ZM24.3895 358.52C24.1264 358.432 23.7463 357.993 23.5124 357.526C22.6646 355.918 23.1324 355.567 24.1849 357.058C24.945 358.14 25.0327 358.783 24.3895 358.52Z" fill="black"/>
<path d="M73.974 3.65136C73.7401 1.51712 73.36 0.786217 72.1905 0.289203C70.7872 -0.295519 67.659 0.0553141 66.7526 0.903161C66.051 1.54636 66.051 1.63406 66.051 6.63344C66.051 9.41087 66.1094 11.6913 66.1971 11.6913C66.2849 11.6913 66.8403 11.4282 67.4251 11.1066C68.653 10.4634 70.7872 10.3464 72.5706 10.8434C73.2138 11.0189 73.7401 11.1066 73.7985 11.0481C73.974 10.8142 74.1201 5.20087 73.974 3.65136ZM73.0676 9.06004C72.6291 9.06004 72.4537 7.91983 72.5414 5.43476C72.5999 3.91448 72.746 3.06663 73.0092 2.97893C73.2723 2.89122 73.36 3.62212 73.36 5.96101C73.36 7.80288 73.243 9.06004 73.0676 9.06004ZM71.0211 7.2474C71.0211 7.83212 70.8749 8.53379 70.7287 8.76768C70.4656 9.14775 70.3779 9.11851 69.9978 8.65073C69.6762 8.24143 69.5593 7.30587 69.5593 5.37629C69.5593 3.15434 69.647 2.56962 70.1148 2.01413C70.5826 1.45865 70.7287 1.40018 70.8457 1.75101C71.0503 2.27726 71.2258 5.25934 71.1088 5.78559C71.0503 6.01948 71.0211 6.66268 71.0211 7.2474ZM67.7467 8.67997C67.4251 9.46934 67.3958 9.46934 67.1912 7.89059C67.0742 7.01351 67.0742 5.43476 67.1619 4.38226C67.3081 2.51115 67.3374 2.51115 67.6882 3.359C68.1852 4.46997 68.2144 7.59823 67.7467 8.67997Z" fill="black"/>
<path d="M73.4477 11.9253C72.8045 11.3406 70.261 10.9605 68.8576 11.2236C67.6005 11.4575 66.051 12.7147 66.051 13.4748C66.051 14.1472 66.1387 14.1472 67.3081 13.5333C68.1852 13.0655 71.255 12.8901 73.2138 13.2117C73.974 13.3286 74.1201 12.51 73.4477 11.9253Z" fill="black"/>
<path d="M73.1846 14.1184C72.1028 13.4167 68.8869 13.4167 67.5128 14.1476C66.2849 14.82 66.051 15.1124 66.051 16.1649V16.9543L67.1619 16.4865C68.4191 15.9602 71.6351 15.8725 72.863 16.3403C73.3308 16.5157 73.7108 16.6619 73.7401 16.6619C73.7693 16.6619 73.8278 16.1941 73.857 15.6386C73.9155 14.82 73.7985 14.5277 73.1846 14.1184Z" fill="black"/>
<path d="M72.5706 370.038C72.5122 369.951 71.9567 370.038 71.372 370.185C69.8517 370.623 63.2736 370.301 54.3565 369.395C43.7731 368.313 31.5231 366.764 27.8979 366.004C27.1085 365.828 26.1437 365.653 25.7929 365.565C25.2081 365.448 25.1204 365.565 25.1204 366.442C25.1204 368.723 25.9975 369.512 29.155 370.126C34.1836 371.062 46.5505 372.67 50.8482 372.904C52.5439 373.02 55.3798 373.284 57.134 373.517C65.0862 374.57 69.647 374.365 71.3427 372.816C72.1321 372.085 72.9215 370.36 72.5706 370.038Z" fill="black"/>
<path d="M70.1732 77.7943C69.647 76.9757 62.6303 78.1452 60.7592 79.3731C59.005 80.5133 58.9758 80.8933 58.4495 102.47C58.3034 108.902 57.9525 122.321 57.7186 132.29C56.7831 170.882 56.6954 175.589 56.6954 181.816C56.6954 185.354 56.8123 188.307 56.9585 188.395C57.3678 188.658 58.1864 188.658 64.0336 188.424L69.4716 188.19L69.647 176.905C69.7639 170.707 69.9101 148.575 69.9978 127.759C70.0855 106.943 70.2025 87.2668 70.2902 84.0508C70.3779 80.8349 70.3194 78.0282 70.1732 77.7943Z" fill="black"/>
<path d="M48.8893 250.521C48.6555 248.942 47.9538 248.679 43.6561 248.562C38.7152 248.416 37.3411 248.591 36.961 249.468C36.5809 250.316 33.8327 251.778 32.5756 251.778C32.0493 251.778 31.1138 251.602 30.5291 251.398C29.535 251.047 29.4181 251.047 29.038 251.573C28.8041 251.865 28.6287 252.45 28.6287 252.83C28.6287 254 27.0207 255.198 22.2845 257.654C17.7821 259.964 16.9927 260.168 15.2678 259.554C14.0984 259.116 13.4844 259.408 12.8997 260.607C12.4319 261.543 12.812 264.437 14.6246 273.325C15.7356 278.733 16.1157 280.078 16.5834 280.078C16.905 280.078 19.0685 278.733 31.6693 270.723C44.5332 262.595 45.9365 261.806 47.6322 262.04C48.597 262.157 48.7724 262.098 48.9186 261.543C49.094 260.87 49.0648 251.748 48.8893 250.521Z" fill="black"/>
<path d="M40.4986 201.902C28.5702 201.054 26.6407 200.703 14.917 197.195C10.3561 195.821 6.58467 194.739 6.58467 194.768C6.55544 194.827 6.26308 195.441 5.91224 196.171C5.53217 196.902 5.21058 198.13 5.18134 198.92C5.09363 200.615 4.30426 200.235 13.5721 203.013C20.735 205.176 25.1204 206.199 29.7982 206.813C34.242 207.398 41.4926 207.749 41.4926 207.369C41.4926 207.223 41.7265 205.966 42.0481 204.591L42.6036 202.048L40.4986 201.902Z" fill="black"/>
<path d="M39.3584 208.626C38.3643 208.538 36.2301 208.392 34.6221 208.304C27.9271 207.924 20.7057 206.374 10.59 203.188C7.49101 202.223 4.83052 201.434 4.68434 201.434C4.27503 201.434 2.49163 207.31 2.81323 207.573C3.04712 207.778 10.2977 209.883 16.3495 211.491C20.0625 212.485 25.442 213.567 29.3596 214.122C32.1371 214.531 38.3351 215.175 39.3584 215.175C39.5338 215.175 39.9723 213.947 40.3232 212.339C40.674 210.76 40.9956 209.327 41.0541 209.123C41.1418 208.889 40.5571 208.743 39.3584 208.626Z" fill="black"/>
<path d="M38.8029 216.227C38.4228 216.14 36.0255 215.877 33.4527 215.613C25.559 214.824 21.3489 213.947 9.47909 210.673C1.73151 208.538 2.02388 208.568 1.40992 210.205C1.11756 210.936 0.883667 211.988 0.883667 212.544L0.854431 213.596L6.05846 214.999C15.7649 217.631 23.5124 219.502 26.8746 219.97C32.6926 220.788 37.9843 221.227 38.2474 220.876C38.3936 220.73 38.6567 219.853 38.8614 218.976C39.0368 218.098 39.2707 217.134 39.3292 216.871C39.4461 216.52 39.2707 216.315 38.8029 216.227Z" fill="black"/>
<path d="M37.8381 222.191C37.0195 222.191 28.6287 221.285 26.7284 220.992C23.2785 220.466 17.4605 219.092 8.7774 216.782C2.43317 215.116 0.386638 214.677 0.211222 214.97C-0.256556 215.671 0.0942771 217.279 0.854416 217.835C2.17004 218.8 17.5482 223.185 23.1323 224.208C26.7576 224.881 33.7743 225.699 35.9085 225.699C37.2826 225.699 37.3996 225.641 37.575 224.91C37.6627 224.442 37.8673 223.653 37.9843 223.156C38.1597 222.425 38.1305 222.191 37.8381 222.191Z" fill="black"/>
<path d="M113.157 251.468C113.274 250.825 113.391 250.796 116.607 250.796H119.94L120.027 255.766L120.115 260.736H117.601C115.262 260.736 115.057 260.678 114.356 259.947C113.946 259.479 113.449 258.836 113.274 258.485C112.981 257.871 112.894 252.901 113.157 251.468ZM116.461 256.965C116.928 257.813 118.419 257.725 118.858 256.789C119.501 255.386 117.601 253.866 116.519 254.947C116.08 255.386 116.08 256.205 116.461 256.965Z" fill="black"/>
<path d="M113.566 243.195C113.683 241.675 114.326 232.728 114.999 223.314C115.642 213.9 116.285 205.334 116.431 204.252C116.724 202.206 117.455 200.773 118.595 200.188C119.238 199.808 128.769 199.224 129.792 199.487C130.406 199.633 130.435 199.75 130.611 209.047C130.698 214.251 130.874 230.272 130.962 244.657L131.137 270.852L130.377 271.261C129.821 271.554 129.383 271.583 128.798 271.378C127.921 271.057 127.95 271.525 128.33 264.479C128.535 260.473 128.243 254.597 127.863 254.597C127.716 254.597 127.687 256.819 127.775 259.509C127.863 262.315 127.833 264.508 127.687 264.596C127.541 264.683 125.962 264.216 124.179 263.602C121.109 262.52 120.904 262.374 120.729 261.555C120.641 261.058 120.554 257.754 120.554 254.158C120.554 247.814 120.554 247.668 119.881 247.083C119.209 246.469 116.87 244.949 116.607 244.949C116.08 244.949 116.694 245.563 118.215 246.557C119.91 247.668 119.969 247.726 119.969 248.954V250.211H116.607H113.245L113.274 248.106C113.303 246.937 113.42 244.715 113.566 243.195ZM119.94 234.804L120.115 243.224L120.846 243.78C121.255 244.101 121.84 244.364 122.162 244.423C122.629 244.481 122.775 244.803 122.951 246.089C123.185 248.048 123.916 249.071 125.436 249.597C128.564 250.708 131.4 247.668 130.114 244.569C129.588 243.37 128.126 242.318 126.956 242.318H126.196L126.021 238.166C125.904 235.857 125.816 228.167 125.816 221.092V208.199L126.956 207.994C128.272 207.79 129.734 206.328 130.055 204.925C130.318 203.638 129.324 201.621 128.038 200.949C126.372 200.042 124.793 200.452 123.156 202.235C122.395 203.054 121.635 203.726 121.46 203.726C121.255 203.726 120.787 204.077 120.407 204.486L119.676 205.276L119.706 215.83C119.735 221.648 119.823 230.185 119.94 234.804ZM122.22 260.707C122.688 260.707 123.302 260.59 123.623 260.444C124.091 260.239 124.003 260.181 123.097 260.181L122.015 260.152L121.986 257.023C121.986 255.269 121.869 253.34 121.752 252.697C121.577 251.878 121.489 252.872 121.46 256.146L121.431 260.736L122.22 260.707ZM123.682 251.381H124.647V255.591C124.647 258.105 124.764 259.889 124.939 260.006C125.144 260.122 125.231 258.544 125.231 255.503V250.796H123.536C122.366 250.796 121.986 250.884 122.308 251.089C122.542 251.235 123.185 251.381 123.682 251.381Z" fill="black"/>
<path d="M123.506 202.673C123.828 202.06 125.202 201.095 125.787 201.095C126.255 201.095 126.167 201.972 125.641 202.995C125.348 203.58 125.261 204.281 125.378 205.188C125.553 206.679 125.261 207.351 124.53 207.059C123.419 206.62 122.834 204.106 123.506 202.673Z" fill="black"/>
<path d="M124.003 244.364L124.559 243.691L125.231 245.124C125.611 245.913 126.372 247.083 126.898 247.697C127.424 248.34 127.863 248.983 127.863 249.129C127.863 249.305 127.278 249.334 126.489 249.246C125.407 249.129 124.91 248.895 124.296 248.194C123.302 247.083 123.185 245.387 124.003 244.364Z" fill="black"/>
<path d="M126.722 242.902C127.687 242.902 128.096 243.078 128.915 243.896C129.704 244.686 129.909 245.124 129.909 246.06C129.909 246.762 129.704 247.492 129.383 247.872L128.827 248.545L128.213 247.639C127.863 247.171 127.57 246.528 127.57 246.235C127.57 245.972 127.102 245.3 126.547 244.744C125.173 243.399 125.202 242.902 126.722 242.902Z" fill="black"/>
<path d="M126.81 205.187C127.102 204.72 127.161 203.959 127.073 202.936C126.927 201.621 126.986 201.387 127.395 201.387C127.658 201.387 128.213 201.708 128.593 202.118C129.149 202.673 129.324 203.141 129.324 204.164C129.324 204.924 129.178 205.772 129.032 206.094C128.74 206.649 127.307 207.526 126.693 207.526C126.284 207.526 126.342 206.064 126.81 205.187Z" fill="black"/>
<path d="M114.765 64.153C115.817 63.5098 116.49 63.4221 123.331 63.1297C126.869 62.9543 130.991 62.7204 132.453 62.6327L135.172 62.4573L135.142 52.6047C135.113 47.1961 135.025 37.5774 134.909 31.2331C134.733 21.8483 134.762 19.5972 135.084 19.2463C135.581 18.6908 139.177 18.4862 140.551 18.954L141.604 19.3048V33.5136C141.604 41.3488 141.691 51.026 141.808 55.0313C141.984 61.9603 142.013 62.2527 142.451 61.3171C142.861 60.4692 143.095 60.3231 144.03 60.2354C145.521 60.1184 145.872 60.4692 146.135 62.3404C146.252 63.3052 146.486 64.0068 146.749 64.0945C147.042 64.2115 147.158 64.7377 147.158 65.8487V67.4274L144.878 67.5444C143.416 67.6029 142.276 67.4859 141.604 67.2228C141.019 66.9889 139.469 66.8135 138.037 66.7842C135.756 66.755 135.406 66.8135 134.821 67.4274C134.207 68.0414 134.148 68.3922 134.061 71.7544C133.944 75.5843 134.09 76.5783 134.616 76.0521C134.821 75.8474 134.967 74.1225 134.967 71.8421L135.025 67.9245L136.487 67.5444C137.627 67.252 138.388 67.2228 139.908 67.4859L141.867 67.8368L141.954 71.6667L142.042 75.5258L144.235 75.9059C145.434 76.0813 146.603 76.1983 146.778 76.1106C146.983 76.0521 147.158 75.6136 147.158 75.1458C147.158 74.1225 147.919 73.3916 150.053 72.3099C152.216 71.2281 152.859 71.4328 153.444 73.3916C153.678 74.2102 153.883 75.2043 153.883 75.5551C153.883 76.4029 152.275 77.8063 150.521 78.4495C149.234 78.9465 149.117 78.9465 148.299 78.4787C147.451 77.9817 147.451 77.9817 146.954 78.8003L146.486 79.6481L143.972 79.0926C140.61 78.391 136.341 78.5664 132.687 79.5897C131.225 79.999 129.909 80.3498 129.704 80.3498C129.324 80.3498 118.302 72.1929 116.49 70.5265C114.911 69.1231 114.122 67.5736 114.122 65.9072C114.122 64.8547 114.268 64.5038 114.765 64.153ZM120.144 70.0002C120.232 70.3511 120.612 70.7604 120.963 70.9358C121.343 71.1112 123.389 72.5145 125.524 74.064C129.675 77.0754 130.728 77.6601 130.962 77.0461C131.02 76.8415 131.049 73.9179 131.02 70.5557L130.932 64.4161L126.05 64.3284L121.138 64.2699L120.554 65.2055C119.969 66.1703 119.764 68.5969 120.144 70.0002ZM149.497 76.6953C149.819 76.8999 151.69 76.169 151.953 75.7305C152.041 75.5843 152.041 75.0288 151.953 74.5318C151.778 73.7717 151.661 73.6547 151.135 73.8009C149.848 74.181 149.205 74.7949 149.205 75.672C149.205 76.1398 149.322 76.5783 149.497 76.6953Z" fill="black"/>
<path d="M120.758 66.0239C121.138 65.0007 121.781 64.8545 126.313 64.8545C130.582 64.8545 130.786 64.8837 130.786 65.4392C130.786 65.9362 130.582 66.0239 129.646 66.0239C127.658 66.0239 125.816 66.3748 125.816 66.7548C125.816 66.9595 125.582 67.398 125.29 67.7196C124.91 68.1874 124.325 68.3336 122.659 68.4505L120.554 68.5675L120.583 67.515C120.583 66.9303 120.67 66.2578 120.758 66.0239Z" fill="black"/>
<path d="M126.898 162.357C127.512 99.0605 127.804 83.8577 128.418 82.7467C128.594 82.3959 129.237 81.8989 129.851 81.6358C130.991 81.168 135.961 79.7646 136.546 79.7646C136.721 79.7646 136.955 80.1155 137.043 80.5833C137.13 81.0218 137.335 99.3236 137.481 121.28C137.657 143.236 137.861 167.736 137.949 175.747L138.125 190.277H135.669C134.295 190.277 132.16 190.482 130.932 190.716C128.681 191.125 127.424 190.979 126.927 190.189C126.722 189.868 126.722 179.869 126.898 162.357Z" fill="black"/>
<path d="M129.558 197.82C129.646 197.323 130.201 197.294 136.136 197.294C139.703 197.294 144.118 197.206 145.901 197.089C148.766 196.943 149.205 196.972 149.205 197.352C149.205 197.937 148.591 198.171 147.158 198.171C146.486 198.171 145.901 198.346 145.667 198.639C145.287 199.077 144.556 199.107 138.388 198.931C130.611 198.727 129.412 198.551 129.558 197.82Z" fill="black"/>
<path d="M129.821 195.073L129.938 194.166L134.528 193.991C137.043 193.874 141.223 193.786 143.826 193.786H148.533L148.854 194.868C149.059 195.54 149.088 196.067 148.913 196.242C148.766 196.388 144.41 196.564 139.118 196.651C131.137 196.768 129.617 196.739 129.675 196.388C129.675 196.154 129.763 195.57 129.821 195.073Z" fill="black"/>
<path d="M130.465 192.762C130.64 192.674 130.786 192.265 130.786 191.914C130.786 191.33 130.962 191.213 132.307 191.037C134.324 190.803 142.247 190.803 145.317 191.066C147.363 191.213 147.743 191.33 147.743 191.768C147.743 192.031 147.919 192.324 148.094 192.411C148.357 192.499 148.386 192.645 148.182 192.85C147.889 193.171 130.64 193.435 130.318 193.142C130.231 193.054 130.289 192.879 130.465 192.762Z" fill="black"/>
<path d="M137.627 199.633H144.147L144.323 213.783C144.41 221.589 144.41 228.401 144.323 228.986L144.147 230.009L143.416 229.454C142.598 228.81 140.756 228.664 140.2 229.22C139.996 229.424 139.849 230.068 139.849 230.682C139.849 231.646 139.966 231.851 140.639 232.114C141.691 232.523 143.329 232.26 143.796 231.588C144.001 231.296 144.264 231.149 144.352 231.237C144.44 231.325 144.644 238.575 144.761 247.317L145.024 263.221L144.293 264.976C142.773 268.601 141.457 269.507 136.604 270.297C134.061 270.706 133.622 270.735 133.388 270.355C133.242 270.121 133.125 268.689 133.125 267.168C133.125 262.49 132.687 262.578 132.54 267.285C132.453 270.15 132.277 271.7 132.073 271.758C131.81 271.846 131.693 264.069 131.546 242.405C131.459 226.208 131.312 209.953 131.254 206.299L131.108 199.633H137.627ZM132.336 217.818C132.891 218.169 135.435 218.402 135.815 218.139C136.049 217.993 135.522 217.847 134.441 217.759L132.687 217.613L132.599 213.608L132.511 209.573L134.207 209.544C135.639 209.544 135.786 209.485 135.259 209.222C134.821 209.018 134.178 208.988 133.359 209.164C132.394 209.368 132.102 209.573 131.956 210.158C131.663 211.298 131.985 217.584 132.336 217.818ZM134.295 267.314C134.587 268.425 134.675 242.142 134.353 237.757L134.148 234.57L134.002 236.909C133.768 240.593 134.002 266.35 134.295 267.314ZM136.546 213.871C137.043 213.754 137.043 213.754 136.546 213.52C136.283 213.403 135.815 213.403 135.522 213.52C135.055 213.754 135.055 213.754 135.522 213.871C135.815 213.959 136.283 213.959 136.546 213.871ZM138.592 268.484C139.382 268.367 140.434 268.075 140.931 267.841C142.013 267.344 143.533 265.239 143.972 263.572C144.293 262.374 144.147 261.35 143.796 262.344C143.679 262.666 143.212 263.748 142.715 264.771C141.721 266.905 140.814 267.578 138.651 267.87C137.861 267.987 137.218 268.221 137.218 268.367C137.218 268.601 137.686 268.63 138.592 268.484Z" fill="black"/>
<path d="M133.768 271.437C134.148 271.349 135.435 271.145 136.633 270.94C141.282 270.209 142.89 269.215 144.381 266.204L145.463 264.04L145.434 253.983C145.434 248.458 145.317 241.148 145.229 237.757L145.024 231.588L146.428 231.413C147.188 231.296 148.24 231.208 148.766 231.208C149.848 231.208 150.638 230.536 150.053 230.156C149.848 230.039 148.65 229.863 147.392 229.805L145.112 229.659V225.244C145.112 222.817 145.024 216.005 144.907 210.1L144.732 199.341H146.369C148.123 199.341 148.094 199.312 150.462 202.118C151.135 202.908 151.398 202.995 153.62 203.171C154.965 203.288 157.362 203.405 158.941 203.405C161.396 203.434 161.952 203.346 162.566 202.849C162.975 202.528 163.589 202.264 163.94 202.264C164.525 202.264 164.729 202.966 166.864 212.585C168.121 218.227 169.524 224.455 169.963 226.384C170.781 229.805 170.81 230.185 170.927 239.921L171.074 249.919L166.367 249.949C163.765 249.978 161.25 250.065 160.782 250.182C159.73 250.416 158.882 251.527 158.794 252.784C158.707 253.837 158.677 253.866 158.122 253.311C157.888 253.106 156.923 252.843 155.929 252.726C154.965 252.609 153.707 252.258 153.181 251.937C152.129 251.323 151.485 251.41 150.433 252.346C149.527 253.165 149.585 254.451 150.55 255.328C151.485 256.205 152.187 256.234 153.415 255.503C153.912 255.211 155.081 254.889 156.017 254.802C156.953 254.714 157.917 254.48 158.151 254.275C158.502 253.983 158.561 254.626 158.59 258.807C158.619 261.468 158.648 263.777 158.677 263.953C158.707 264.099 158.122 264.537 157.391 264.917C155.871 265.707 154.321 267.578 153.883 269.157C153.737 269.741 153.59 270.969 153.59 271.876C153.59 273.484 153.561 273.542 152.684 273.718C149.439 274.361 136.955 274.127 134.148 273.367C132.979 273.045 132.716 271.642 133.768 271.437ZM146.018 229.249C147.158 229.542 148.006 228.84 146.983 228.46C146.428 228.255 145.404 228.489 145.404 228.869C145.404 228.986 145.667 229.162 146.018 229.249ZM146.428 232.524C146.895 232.524 147.305 232.348 147.363 232.173C147.451 231.91 147.158 231.793 146.428 231.793C145.697 231.793 145.404 231.91 145.463 232.173C145.55 232.348 145.96 232.524 146.428 232.524ZM146.164 201.826C146.749 202.381 147.422 202.294 147.86 201.621C148.24 201.007 147.802 200.13 147.1 199.984C146.632 199.896 145.697 200.656 145.697 201.095C145.697 201.241 145.901 201.563 146.164 201.826ZM147.217 263.894C148.094 264.771 149.497 263.894 148.913 262.812C148.533 262.052 147.597 262.023 147.188 262.725C146.808 263.368 146.808 263.485 147.217 263.894ZM148.971 209.369C149.351 209.72 150.257 210.538 151.018 211.152C152.129 212.029 152.567 212.234 153.152 212.088C154.263 211.795 154.409 211.065 153.473 210.304C152.479 209.515 152.743 209.281 154.643 209.281C155.754 209.281 156.192 209.164 156.339 208.813C156.689 207.907 156.514 207.293 155.842 207.118C154.789 206.855 149.907 206.913 149.088 207.235C148.123 207.585 148.094 208.492 148.971 209.369ZM150.608 214.924C151.69 215.011 153.415 215.011 154.467 214.894C156.339 214.69 156.368 214.69 156.368 213.813C156.368 212.936 156.368 212.936 154.146 212.643C152.918 212.497 151.69 212.175 151.427 211.942C151.047 211.62 150.813 211.62 150.053 211.912C148.766 212.468 148.416 212.906 148.562 213.9C148.679 214.748 148.737 214.778 150.608 214.924ZM150.228 250.709C150.93 250.943 151.018 250.709 151.047 248.662C151.105 246.616 150.959 246.236 150.228 246.499C149.907 246.645 149.79 247.142 149.79 248.604C149.79 250.065 149.907 250.563 150.228 250.709ZM150.228 260.941C150.93 261.175 151.018 260.941 151.076 258.866C151.105 256.848 150.959 256.468 150.228 256.731C149.907 256.878 149.79 257.375 149.79 258.836C149.79 260.298 149.907 260.795 150.228 260.941ZM150.521 236.471C151.105 236.968 151.836 236.617 151.836 235.886C151.836 235.214 151.193 234.863 150.521 235.126C149.965 235.33 149.965 236.003 150.521 236.471ZM151.953 232.202C152.509 233.079 152.801 233.138 153.415 232.495C153.824 232.115 153.883 231.15 153.854 226.297C153.824 223.139 153.737 220.215 153.62 219.835C153.327 218.724 152.567 218.403 151.807 219.075C151.193 219.66 151.193 219.777 151.31 225.566C151.427 230.448 151.544 231.588 151.953 232.202ZM160.49 241.441C163.063 242.318 164.876 242.143 166.63 240.915C168.15 239.833 168.355 240.301 166.951 241.645C165.08 243.487 162.244 244.218 159.759 243.487C158.824 243.224 158.794 243.224 158.999 244.014C159.087 244.452 159.525 245.242 159.964 245.797C162.244 248.633 166.22 248.574 168.764 245.68L169.67 244.628L169.612 237.991L169.524 231.354L168.501 231.208C167.945 231.091 167.097 230.77 166.63 230.477C165.285 229.571 162.771 229.688 161.25 230.711C160.578 231.15 159.818 231.851 159.525 232.261C159.028 233.05 158.677 235.506 158.59 238.868L158.561 240.798L160.49 241.441ZM169.816 248.253C169.963 248.282 170.138 248.077 170.197 247.814C170.255 247.493 170.109 247.288 169.816 247.288C169.319 247.288 169.29 248.165 169.816 248.253Z" fill="black"/>
<path d="M136.224 274.302C142.188 274.682 145.492 274.741 149.468 274.536C152.187 274.419 153.707 274.449 153.766 274.624C153.824 274.799 154.409 277.928 155.052 281.611C156.836 291.698 155.637 287.868 168.852 325.933C176.716 348.621 180.166 358.561 180.341 359.058C180.663 359.876 181.189 359.643 182.446 358.152C183.937 356.397 186.101 355.169 186.832 355.637C187.972 356.397 186.89 360.257 185.136 361.718C184.376 362.362 183.177 363.063 182.037 363.502C181.979 363.531 182.213 364.203 182.534 365.051C183.09 366.455 183.09 366.572 182.593 366.835C181.54 367.39 168.676 369.261 158.268 370.343C144.907 371.776 138.914 372.097 136.867 371.542L135.815 371.249L135.639 369.115C135.552 367.975 135.259 360.373 135.025 352.246C134.792 344.118 134.441 333.272 134.295 328.126C134.119 322.981 133.914 308.713 133.798 296.463L133.622 274.127L136.224 274.302ZM183.85 360.52C184.113 360.432 184.493 359.993 184.727 359.526C185.575 357.918 185.107 357.567 184.054 359.058C183.294 360.14 183.207 360.783 183.85 360.52Z" fill="black"/>
<path d="M134.265 5.65136C134.499 3.51712 134.879 2.78622 136.049 2.2892C137.452 1.70448 140.58 2.05531 141.487 2.90316C142.188 3.54636 142.188 3.63406 142.188 8.63344C142.188 11.4109 142.13 13.6913 142.042 13.6913C141.954 13.6913 141.399 13.4282 140.814 13.1066C139.586 12.4634 137.452 12.3464 135.669 12.8434C135.025 13.0189 134.499 13.1066 134.441 13.0481C134.265 12.8142 134.119 7.20087 134.265 5.65136ZM135.172 11.06C135.61 11.06 135.786 9.91983 135.698 7.43476C135.639 5.91448 135.493 5.06663 135.23 4.97893C134.967 4.89122 134.879 5.62212 134.879 7.96101C134.879 9.80289 134.996 11.06 135.172 11.06ZM137.218 9.2474C137.218 9.83212 137.364 10.5338 137.511 10.7677C137.774 11.1477 137.861 11.1185 138.241 10.6507C138.563 10.2414 138.68 9.30587 138.68 7.37629C138.68 5.15434 138.592 4.56962 138.124 4.01413C137.657 3.45865 137.511 3.40018 137.394 3.75101C137.189 4.27726 137.014 7.25934 137.13 7.78559C137.189 8.01948 137.218 8.66268 137.218 9.2474ZM140.493 10.68C140.814 11.4693 140.843 11.4693 141.048 9.89059C141.165 9.01351 141.165 7.43476 141.077 6.38226C140.931 4.51115 140.902 4.51115 140.551 5.35899C140.054 6.46997 140.025 9.59823 140.493 10.68Z" fill="black"/>
<path d="M134.792 13.9253C135.435 13.3406 137.978 12.9605 139.382 13.2236C140.639 13.4575 142.188 14.7147 142.188 15.4748C142.188 16.1472 142.101 16.1472 140.931 15.5333C140.054 15.0655 136.984 14.8901 135.025 15.2117C134.265 15.3286 134.119 14.51 134.792 13.9253Z" fill="black"/>
<path d="M135.055 16.1184C136.136 15.4167 139.352 15.4167 140.726 16.1476C141.954 16.82 142.188 17.1124 142.188 18.1649V18.9543L141.077 18.4865C139.82 17.9602 136.604 17.8725 135.376 18.3403C134.909 18.5157 134.528 18.6619 134.499 18.6619C134.47 18.6619 134.411 18.1941 134.382 17.6386C134.324 16.82 134.441 16.5277 135.055 16.1184Z" fill="black"/>
<path d="M135.669 372.038C135.727 371.951 136.283 372.038 136.867 372.185C138.388 372.623 144.966 372.301 153.883 371.395C164.466 370.313 176.716 368.764 180.341 368.004C181.131 367.828 182.096 367.653 182.446 367.565C183.031 367.448 183.119 367.565 183.119 368.442C183.119 370.723 182.242 371.512 179.084 372.126C174.056 373.062 161.689 374.67 157.391 374.904C155.695 375.02 152.859 375.284 151.105 375.517C143.153 376.57 138.592 376.365 136.897 374.816C136.107 374.085 135.318 372.36 135.669 372.038Z" fill="black"/>
<path d="M138.066 79.7943C138.592 78.9757 145.609 80.1452 147.48 81.3731C149.234 82.5133 149.263 82.8933 149.79 104.47C149.936 110.902 150.287 124.321 150.521 134.29C151.456 172.882 151.544 177.589 151.544 183.816C151.544 187.354 151.427 190.307 151.281 190.395C150.871 190.658 150.053 190.658 144.206 190.424L138.768 190.19L138.592 178.905C138.475 172.707 138.329 150.575 138.241 129.759C138.154 108.943 138.037 89.2668 137.949 86.0508C137.861 82.8349 137.92 80.0282 138.066 79.7943Z" fill="black"/>
<path d="M159.35 252.521C159.584 250.942 160.285 250.679 164.583 250.562C169.524 250.416 170.898 250.591 171.278 251.468C171.658 252.316 174.407 253.778 175.664 253.778C176.19 253.778 177.125 253.602 177.71 253.398C178.704 253.047 178.821 253.047 179.201 253.573C179.435 253.865 179.611 254.45 179.611 254.83C179.611 256 181.219 257.198 185.955 259.654C190.457 261.964 191.247 262.168 192.971 261.554C194.141 261.116 194.755 261.408 195.34 262.607C195.807 263.543 195.427 266.437 193.615 275.325C192.504 280.733 192.124 282.078 191.656 282.078C191.334 282.078 189.171 280.733 176.57 272.723C163.706 264.595 162.303 263.806 160.607 264.04C159.642 264.157 159.467 264.098 159.321 263.543C159.145 262.87 159.174 253.748 159.35 252.521Z" fill="black"/>
<path d="M167.741 203.902C179.669 203.054 181.599 202.703 193.322 199.195C197.883 197.821 201.655 196.739 201.655 196.768C201.684 196.827 201.976 197.441 202.327 198.171C202.707 198.902 203.029 200.13 203.058 200.92C203.146 202.615 203.935 202.235 194.667 205.013C187.504 207.176 183.119 208.199 178.441 208.813C173.997 209.398 166.747 209.749 166.747 209.369C166.747 209.223 166.513 207.966 166.191 206.591L165.636 204.048L167.741 203.902Z" fill="black"/>
<path d="M168.881 210.626C169.875 210.538 172.009 210.392 173.617 210.304C180.312 209.924 187.534 208.374 197.649 205.188C200.748 204.223 203.409 203.434 203.555 203.434C203.964 203.434 205.748 209.31 205.426 209.573C205.192 209.778 197.942 211.883 191.89 213.491C188.177 214.485 182.797 215.567 178.88 216.122C176.102 216.531 169.904 217.175 168.881 217.175C168.705 217.175 168.267 215.947 167.916 214.339C167.565 212.76 167.244 211.327 167.185 211.123C167.097 210.889 167.682 210.743 168.881 210.626Z" fill="black"/>
<path d="M169.436 218.227C169.816 218.14 172.214 217.877 174.787 217.613C182.68 216.824 186.89 215.947 198.76 212.673C206.508 210.538 206.215 210.568 206.829 212.205C207.122 212.936 207.356 213.988 207.356 214.544L207.385 215.596L202.181 216.999C192.474 219.631 184.727 221.502 181.365 221.97C175.547 222.788 170.255 223.227 169.992 222.876C169.846 222.73 169.583 221.853 169.378 220.976C169.202 220.098 168.969 219.134 168.91 218.871C168.793 218.52 168.969 218.315 169.436 218.227Z" fill="black"/>
<path d="M170.401 224.191C171.22 224.191 179.611 223.285 181.511 222.992C184.961 222.466 190.779 221.092 199.462 218.782C205.806 217.116 207.853 216.677 208.028 216.97C208.496 217.671 208.145 219.279 207.385 219.835C206.069 220.8 190.691 225.185 185.107 226.208C181.482 226.881 174.465 227.699 172.331 227.699C170.957 227.699 170.84 227.641 170.664 226.91C170.577 226.442 170.372 225.653 170.255 225.156C170.08 224.425 170.109 224.191 170.401 224.191Z" fill="black"/>
</g>
</svg>
