<svg width="314" height="314" viewBox="0 0 314 314" fill="none" xmlns="http://www.w3.org/2000/svg">
<mask id="mask0_1737_352" style="mask-type:alpha" maskUnits="userSpaceOnUse" x="0" y="0" width="314" height="314">
<circle cx="157" cy="157" r="157" fill="#C4C4C4"/>
</mask>
<g mask="url(#mask0_1737_352)">
<path d="M164.588 29.2249C138.078 27.6508 111.736 34.3607 89.2104 48.4248C66.6847 62.489 49.0909 83.211 38.8669 107.72C28.643 132.228 26.2949 159.31 32.1482 185.213C38.0015 211.116 51.7663 234.556 71.5353 252.288C91.3044 270.019 116.099 281.162 142.483 284.174C168.868 287.186 195.536 281.917 218.792 269.097C242.048 256.277 260.742 236.541 272.282 212.624C283.822 188.707 287.638 161.793 283.2 135.61" stroke="white" stroke-width="2" stroke-linecap="round"/>
<path d="M164.588 29.2249C138.078 27.6508 111.736 34.3607 89.2104 48.4248C66.6847 62.489 49.0909 83.211 38.8669 107.72C28.643 132.228 26.2949 159.31 32.1482 185.213C38.0015 211.116 51.7663 234.556 71.5353 252.288C91.3044 270.019 116.099 281.162 142.483 284.174C168.868 287.186 195.536 281.917 218.792 269.097C242.048 256.277 260.742 236.541 272.282 212.624C283.822 188.707 287.638 161.793 283.2 135.61" stroke="white" stroke-width="2" stroke-linecap="round"/>
<path d="M195.436 34.4111C196.186 35.0633 196.706 35.8458 196.996 36.7586C197.304 37.6763 197.32 38.639 197.041 39.6467C196.624 41.1582 195.744 42.2803 194.399 43.0131C193.054 43.7458 191.617 43.9011 190.088 43.4791L181.936 41.2298L187.15 22.3359L194.707 24.4213C196.183 24.8285 197.297 25.6684 198.049 26.9411C198.802 28.2138 198.977 29.5789 198.575 31.0364C198.113 32.7099 197.067 33.8348 195.436 34.4111ZM194.059 26.7696L189.012 25.3768L187.418 31.153L192.465 32.5457C193.257 32.7642 194 32.669 194.694 32.2601C195.387 31.8512 195.846 31.2419 196.069 30.4322C196.288 29.6405 196.195 28.8887 195.791 28.177C195.41 27.4522 194.833 26.9831 194.059 26.7696ZM190.736 41.1308C191.581 41.3642 192.374 41.2634 193.114 40.8285C193.853 40.3936 194.342 39.7443 194.581 38.8805C194.814 38.0348 194.716 37.2331 194.286 36.4755C193.874 35.7228 193.254 35.2322 192.426 35.0038L186.785 33.4472L185.094 39.5742L190.736 41.1308Z" fill="white"/>
<path d="M215.062 38.0137L217.284 39.0128L211.542 51.7811L209.32 50.782L210.308 48.5859C208.443 49.7736 206.455 49.8928 204.344 48.9435C202.557 48.1396 201.324 46.8075 200.646 44.9471C199.976 43.0697 200.062 41.1946 200.904 39.3219C201.746 37.4492 203.088 36.1492 204.929 35.4219C206.779 34.6776 208.597 34.7074 210.385 35.5113C212.496 36.4606 213.726 38.0268 214.074 40.2099L215.062 38.0137ZM205.59 46.9248C206.884 47.5066 208.16 47.5586 209.419 47.0809C210.685 46.586 211.609 45.6917 212.191 44.3979C212.773 43.104 212.825 41.8277 212.347 40.569C211.877 39.2933 210.995 38.3645 209.701 37.7827C208.424 37.2085 207.153 37.1688 205.886 37.6636C204.628 38.1414 203.707 39.0272 203.125 40.321C202.544 41.6149 202.488 42.8997 202.958 44.1754C203.436 45.4341 204.313 46.3505 205.59 46.9248Z" fill="white"/>
<path d="M221.115 57.8747C219.339 56.7364 218.24 55.2002 217.817 53.266C217.403 51.3162 217.761 49.4612 218.889 47.7011C220.017 45.9409 221.549 44.8493 223.483 44.4261C225.427 43.9873 227.287 44.337 229.063 45.4752C230.226 46.2207 231.09 47.1734 231.654 48.3335C232.229 49.4779 232.442 50.6676 232.293 51.9026L229.938 51.7897C230.042 50.9697 229.901 50.1696 229.514 49.3895C229.143 48.6195 228.564 47.9826 227.778 47.479C226.6 46.7235 225.353 46.4896 224.038 46.7773C222.738 47.0752 221.706 47.8213 220.94 49.0156C220.185 50.1943 219.943 51.4362 220.215 52.7413C220.503 54.0565 221.236 55.0919 222.414 55.8474C223.2 56.3511 224.023 56.6236 224.884 56.6651C225.754 56.6909 226.556 56.4952 227.289 56.0781L228.383 58.2099C227.286 58.8148 226.085 59.0979 224.779 59.0592C223.484 59.0049 222.262 58.61 221.115 57.8747Z" fill="white"/>
<path d="M238.048 70.363L235.735 68.4144L235.129 59.2261L230.853 64.3008L228.99 62.7311L241.62 47.7427L243.483 49.3124L235.887 58.3268L244.499 57.4919L246.897 59.5126L237.414 60.3823L238.048 70.363Z" fill="white"/>
<path d="M245.844 67.5579L247.571 65.962L254.506 73.4693L252.778 75.0652L245.844 67.5579Z" fill="white"/>
<path d="M253.81 84.2513L259.085 91.6665L257.077 93.0948L250.293 83.5577L266.264 72.1964L272.967 81.6195L270.959 83.0477L265.765 75.7466L260.86 79.2361L265.648 85.9669L263.663 87.3789L258.875 80.6481L253.81 84.2513Z" fill="white"/>
<path d="M275.086 95.7344C275.85 97.1885 276 98.5966 275.535 99.9586C275.086 101.312 274.077 102.401 272.507 103.226L264.897 107.224L263.764 105.068L271.25 101.135C272.258 100.605 272.891 99.9242 273.15 99.0924C273.425 98.2519 273.311 97.3524 272.807 96.394C272.243 95.3199 271.449 94.6304 270.424 94.3254C269.415 94.0117 268.217 94.2195 266.829 94.9489L260.261 98.4003L259.128 96.2438L271.521 89.7318L272.654 91.8882L270.869 92.826C272.734 92.9637 274.14 93.9332 275.086 95.7344Z" fill="white"/>
<path d="M289.082 115.584L289.88 117.886L271.362 124.307L270.564 122.006L272.839 121.217C270.695 120.676 269.245 119.312 268.486 117.125C267.844 115.273 267.967 113.462 268.855 111.692C269.76 109.916 271.183 108.692 273.123 108.019C275.063 107.347 276.929 107.43 278.722 108.271C280.533 109.105 281.759 110.448 282.401 112.3C283.16 114.487 282.865 116.456 281.516 118.208L289.082 115.584ZM270.809 116.645C271.274 117.986 272.112 118.95 273.324 119.537C274.553 120.119 275.837 120.177 277.178 119.712C278.518 119.247 279.482 118.409 280.069 117.198C280.675 115.98 280.745 114.702 280.28 113.361C279.821 112.038 278.978 111.086 277.749 110.505C276.537 109.917 275.261 109.856 273.921 110.321C272.581 110.786 271.608 111.627 271.003 112.844C270.415 114.056 270.351 115.323 270.809 116.645Z" fill="white"/>
</g>
</svg>
