<svg width="34" height="34" viewBox="0 0 34 34" fill="none" xmlns="http://www.w3.org/2000/svg">
<path d="M31.1655 14.1666H9.65155L19.0054 4.85259C19.5392 4.31951 19.839 3.59648 19.839 2.84258C19.839 2.08868 19.5392 1.36566 19.0054 0.832574C18.4717 0.299486 17.7478 0 16.9929 0C16.2381 0 15.5142 0.299486 14.9804 0.832574L0.807874 14.9876C0.549818 15.2568 0.347533 15.5743 0.212627 15.9218C-0.0708756 16.611 -0.0708756 17.3841 0.212627 18.0734C0.347533 18.4209 0.549818 18.7384 0.807874 19.0076L14.9804 33.1626C15.2439 33.4279 15.5574 33.6386 15.9028 33.7823C16.2483 33.926 16.6187 34 16.9929 34C17.3671 34 17.7376 33.926 18.083 33.7823C18.4284 33.6386 18.7419 33.4279 19.0054 33.1626C19.2711 32.8994 19.482 32.5863 19.6259 32.2413C19.7698 31.8963 19.8439 31.5263 19.8439 31.1526C19.8439 30.7789 19.7698 30.4088 19.6259 30.0638C19.482 29.7189 19.2711 29.4058 19.0054 29.1426L9.65155 19.8286H31.1655C31.9172 19.8286 32.6382 19.5303 33.1698 18.9994C33.7014 18.4685 34 17.7484 34 16.9976C34 16.2468 33.7014 15.5267 33.1698 14.9958C32.6382 14.4649 31.9172 14.1666 31.1655 14.1666Z" fill="black"/>
</svg>
