<svg width="390" height="283" viewBox="0 0 390 283" fill="none" xmlns="http://www.w3.org/2000/svg">
<path d="M977.477 1025.59H-287.716V3.79608H977.477V1025.59Z" fill="url(#paint0_linear_489_13890)"/>
<path d="M5.47156 478.758H4.91946V98.3976H5.47156V478.758Z" fill="#2084FA"/>
<path d="M6.22431 479.511H4.16663V97.6449H6.22431V479.511Z" fill="#2084FA"/>
<path d="M100.022 478.758H99.4702V98.3976H100.022V478.758Z" fill="#2084FA"/>
<path d="M100.775 479.511H98.7174V97.6449H100.775V479.511Z" fill="#2084FA"/>
<path d="M194.573 478.758H194.021V98.3976H194.573V478.758Z" fill="#2084FA"/>
<path d="M195.326 479.511H193.268V97.6449H195.326V479.511Z" fill="#2084FA"/>
<path d="M289.124 478.758H288.571V98.3976H289.124V478.758Z" fill="#2084FA"/>
<path d="M289.876 479.511H287.819V97.6449H289.876V479.511Z" fill="#2084FA"/>
<path d="M383.674 478.758H383.122V98.3976H383.674V478.758Z" fill="#2084FA"/>
<path d="M384.427 479.511H382.369V97.6449H384.427V479.511Z" fill="#2084FA"/>
<path d="M1234.68 193.651H-846.037V193.149H1234.68V193.651Z" fill="#2084FA"/>
<path d="M1235.43 194.404H-846.79V192.396H1235.43V194.404Z" fill="#2084FA"/>
<path d="M1234.68 98.6484H-846.037V98.1466H1234.68V98.6484Z" fill="#2084FA"/>
<path d="M1235.43 99.4014H-846.79V97.3939H1235.43V99.4014Z" fill="#2084FA"/>
<path d="M13.2 32.6538H12.8488L-90.3339 96.7415H-89.7819L13.2 32.6538Z" fill="#2084FA"/>
<path d="M13.8023 32.5532H12.4974L-91.4381 96.942H-89.3805L13.8023 32.5532Z" fill="#2084FA"/>
<path d="M73.4736 32.6538H73.1223L4.31711 96.7415H4.86914L73.4736 32.6538Z" fill="#2084FA"/>
<path d="M74.0257 32.5532H72.7208L3.36359 96.942H5.42121L74.0257 32.5532Z" fill="#2084FA"/>
<path d="M133.747 32.6538H133.396L98.9681 96.7415H99.5202L133.747 32.6538Z" fill="#2084FA"/>
<path d="M134.249 32.5532H132.944L98.115 96.942H100.173L134.249 32.5532Z" fill="#2084FA"/>
<path d="M194.021 32.6538H193.669V96.7415H194.222L194.021 32.6538Z" fill="#2084FA"/>
<path d="M194.472 32.5532H193.168L192.917 96.942H194.974L194.472 32.5532Z" fill="#2084FA"/>
<path d="M254.294 32.6538H253.943L288.321 96.7415H288.873L254.294 32.6538Z" fill="#2084FA"/>
<path d="M254.696 32.5532H253.391L287.668 96.942H289.726L254.696 32.5532Z" fill="#2084FA"/>
<path d="M314.568 32.6538H314.216L382.972 96.7415H383.524L314.568 32.6538Z" fill="#2084FA"/>
<path d="M314.919 32.5532H313.614L382.47 96.942H384.477L314.919 32.5532Z" fill="#2084FA"/>
<path d="M374.841 32.6538H374.49L477.673 96.7415H478.175L374.841 32.6538Z" fill="#2084FA"/>
<path d="M375.143 32.5532H373.838L477.221 96.942H479.279L375.143 32.5532Z" fill="#2084FA"/>
<path d="M1234.68 96.5903H-846.84L-847.643 96.7409H1235.53L1234.68 96.5903Z" fill="#2084FA"/>
<path d="M1234.54 94.912L1234.41 94.8896H1234.28H-846.438H-846.568L-846.696 94.912L-849.858 95.4641L-849.6 98.4417H1237.44L1237.7 95.4641L1234.54 94.912Z" fill="#2084FA" stroke="#2084FA" stroke-width="3" stroke-miterlimit="10"/>
<path d="M1104.9 74.6084H-717.109L-717.711 74.7088H1105.5L1104.9 74.6084Z" fill="#2084FA"/>
<path d="M1104.65 74.458H-716.858L-719.267 74.8595H1107.06L1104.65 74.458Z" fill="#2084FA"/>
<path d="M1003.87 57.4956H-616.134L-616.636 57.596H1004.38L1003.87 57.4956Z" fill="#2084FA"/>
<path d="M1003.72 57.395H-615.984L-617.941 57.6961H1005.68L1003.72 57.395Z" fill="#2084FA"/>
<path d="M923.025 43.7949H-535.335L-535.736 43.8953H923.426L923.025 43.7949Z" fill="#2084FA"/>
<path d="M922.974 43.6943H-535.284L-536.84 43.9955H924.53L922.974 43.6943Z" fill="#2084FA"/>
<path d="M856.829 32.6035H-469.139L-469.49 32.6537H857.13L856.829 32.6035Z" fill="#2084FA"/>
<path d="M856.829 32.5029H-469.189L-470.444 32.7539H858.134L856.829 32.5029Z" fill="#2084FA"/>
<path d="M17.3153 2.59033H17.0141L-47.0234 32.4511H-46.672L17.3153 2.59033Z" fill="#2084FA"/>
<path d="M17.7168 2.54004H16.7632L-47.6758 32.5012H-46.3709L17.7168 2.54004Z" fill="#2084FA"/>
<path d="M61.4289 2.59033H61.178L13.1498 32.4511H13.5011L61.4289 2.59033Z" fill="#2084FA"/>
<path d="M61.8806 2.54004H60.927L12.5476 32.5012H13.8525L61.8806 2.54004Z" fill="#2084FA"/>
<path d="M105.593 2.59033H105.342L73.323 32.4511H73.6743L105.593 2.59033Z" fill="#2084FA"/>
<path d="M105.994 2.54004H105.041L72.771 32.5012H74.0758L105.994 2.54004Z" fill="#2084FA"/>
<path d="M149.756 2.59033H149.506L133.496 32.4511H133.847L149.756 2.59033Z" fill="#2084FA"/>
<path d="M150.108 2.54004H149.154L132.944 32.5012H134.249L150.108 2.54004Z" fill="#2084FA"/>
<path d="M193.92 2.59033H193.669V32.4511H194.021L193.92 2.59033Z" fill="#2084FA"/>
<path d="M194.272 2.54004H193.318L193.167 32.5012H194.472L194.272 2.54004Z" fill="#2084FA"/>
<path d="M238.084 2.59033H237.833L253.843 32.4511H254.194L238.084 2.59033Z" fill="#2084FA"/>
<path d="M238.385 2.54004H237.432L253.391 32.5012H254.696L238.385 2.54004Z" fill="#2084FA"/>
<path d="M282.198 2.59033H281.947L314.016 32.4511H314.317L282.198 2.59033Z" fill="#2084FA"/>
<path d="M282.499 2.54004H281.545L313.614 32.5012H314.919L282.499 2.54004Z" fill="#2084FA"/>
<path d="M326.362 2.59033H326.111L374.189 32.4511H374.49L326.362 2.59033Z" fill="#2084FA"/>
<path d="M326.663 2.54004H325.709L373.838 32.5012H375.143L326.663 2.54004Z" fill="#2084FA"/>
<path d="M370.525 2.59033H370.274L434.312 32.4511H434.663L370.525 2.59033Z" fill="#2084FA"/>
<path d="M370.776 2.54004H369.823L434.011 32.5012H435.316L370.776 2.54004Z" fill="#2084FA"/>
<path d="M855.524 32.4014H-467.884L-468.185 32.4516H855.875L855.524 32.4014Z" fill="#2084FA"/>
<path d="M855.524 32.3008H-467.884L-469.189 32.5015H856.829L855.524 32.3008Z" fill="#2084FA"/>
<path d="M800.571 23.0664H-412.93L-413.232 23.1166H800.872L800.571 23.0664Z" fill="#2084FA"/>
<path d="M800.621 23.0161H-412.981L-414.035 23.2169H801.675L800.621 23.0161Z" fill="#2084FA"/>
<path d="M754.048 15.1875H-366.408L-366.659 15.2377H754.249L754.048 15.1875Z" fill="#2084FA"/>
<path d="M754.098 15.1372H-366.508L-367.412 15.2878H755.001L754.098 15.1372Z" fill="#2084FA"/>
<path d="M714.2 8.41211H-326.61L-327.413 8.51248H715.003L714.2 8.41211Z" fill="#2084FA"/>
<path d="M679.763 1.55009L679.693 1.54004H679.622H-292.032H-292.103L-292.173 1.55009L-292.876 1.65046L-292.735 3.64041H680.324L680.466 1.65046L679.763 1.55009Z" fill="#2084FA" stroke="#2084FA" stroke-width="2" stroke-miterlimit="10"/>
<defs>
<linearGradient id="paint0_linear_489_13890" x1="344.88" y1="1025.59" x2="344.88" y2="3.79608" gradientUnits="userSpaceOnUse">
<stop stop-color="#000025"/>
<stop offset="0.503125" stop-color="#000044"/>
<stop offset="1" stop-color="#000025"/>
</linearGradient>
</defs>
</svg>
