<svg width="1920" height="1080" viewBox="0 0 1920 1080" fill="none" xmlns="http://www.w3.org/2000/svg">
<g filter="url(#filter0_b_1619_482)">
<path d="M1920 1080H0V-0.000976562H1920V1080Z" fill="url(#paint0_linear_1619_482)"/>
<path d="M18.4433 1017.53H17.6877V496.919H18.4433V1017.53Z" fill="#2147CD"/>
<path d="M19.4736 1018.56H16.6573V495.89H19.4736V1018.56Z" fill="#2147CD"/>
<path d="M147.858 1017.53H147.102V496.919H147.858V1017.53Z" fill="#2147CD"/>
<path d="M148.888 1018.56H146.072V495.89H148.888V1018.56Z" fill="#2147CD"/>
<path d="M277.272 1017.53H276.516V496.919H277.272V1017.53Z" fill="#2147CD"/>
<path d="M278.302 1018.56H275.486V495.89H278.302V1018.56Z" fill="#2147CD"/>
<path d="M406.686 1017.53H405.931V496.919H406.686V1017.53Z" fill="#2147CD"/>
<path d="M407.717 1018.56H404.9V495.89H407.717V1018.56Z" fill="#2147CD"/>
<path d="M536.101 1017.53H535.345V496.919H536.101V1017.53Z" fill="#2147CD"/>
<path d="M537.131 1018.56H534.315V495.89H537.131V1018.56Z" fill="#2147CD"/>
<path d="M665.515 1017.53H664.759V496.919H665.515V1017.53Z" fill="#2147CD"/>
<path d="M666.545 1018.56H663.729V495.89H666.545V1018.56Z" fill="#2147CD"/>
<path d="M794.929 1017.53H794.173V496.919H794.929V1017.53Z" fill="#2147CD"/>
<path d="M795.959 1018.56H793.143V495.89H795.959V1018.56Z" fill="#2147CD"/>
<path d="M924.343 1017.53H923.588V496.919H924.343V1017.53Z" fill="#2147CD"/>
<path d="M925.374 1018.56H922.557V495.89H925.374V1018.56Z" fill="#2147CD"/>
<path d="M1053.76 1017.53H1053V496.919H1053.76V1017.53Z" fill="#2147CD"/>
<path d="M1054.79 1018.56H1051.97V495.89H1054.79V1018.56Z" fill="#2147CD"/>
<path d="M1183.17 1017.53H1182.42V496.919H1183.17V1017.53Z" fill="#2147CD"/>
<path d="M1184.2 1018.56H1181.39V495.89H1184.2V1018.56Z" fill="#2147CD"/>
<path d="M1312.59 1017.53H1311.83V496.919H1312.59V1017.53Z" fill="#2147CD"/>
<path d="M1313.62 1018.56H1310.8V495.89H1313.62V1018.56Z" fill="#2147CD"/>
<path d="M1442.07 1017.53H1441.31V496.919H1442.07V1017.53Z" fill="#2147CD"/>
<path d="M1443.1 1018.56H1440.28V495.89H1443.1V1018.56Z" fill="#2147CD"/>
<path d="M1571.48 1017.53H1570.73V496.919H1571.48V1017.53Z" fill="#2147CD"/>
<path d="M1572.51 1018.56H1569.7V495.89H1572.51V1018.56Z" fill="#2147CD"/>
<path d="M1700.9 1017.53H1700.14V496.919H1700.9V1017.53Z" fill="#2147CD"/>
<path d="M1701.93 1018.56H1699.11V495.89H1701.93V1018.56Z" fill="#2147CD"/>
<path d="M1830.31 1017.53H1829.56V496.919H1830.31V1017.53Z" fill="#2147CD"/>
<path d="M1831.34 1018.56H1828.53V495.89H1831.34V1018.56Z" fill="#2147CD"/>
<path d="M2347.97 1017.53H-499.97V1016.84H2347.97V1017.53Z" fill="#2147CD"/>
<path d="M2349 1018.56H-501V1015.81H2349V1018.56Z" fill="#2147CD"/>
<path d="M2347.97 887.499H-499.97V886.812H2347.97V887.499Z" fill="#2147CD"/>
<path d="M2349 888.53H-501V885.783H2349V888.53Z" fill="#2147CD"/>
<path d="M2347.97 757.396H-499.97V756.709H2347.97V757.396Z" fill="#2147CD"/>
<path d="M2349 758.427H-501V755.679H2349V758.427Z" fill="#2147CD"/>
<path d="M2347.97 627.296H-499.97V626.609H2347.97V627.296Z" fill="#2147CD"/>
<path d="M2349 628.327H-501V625.579H2349V628.327Z" fill="#2147CD"/>
<path d="M2347.97 497.264H-499.97V496.577H2347.97V497.264Z" fill="#2147CD"/>
<path d="M2349 498.295H-501V495.547H2349V498.295Z" fill="#2147CD"/>
<path d="M18.4433 1147.19H17.6877V626.578H18.4433V1147.19Z" fill="#2147CD"/>
<path d="M19.4736 1148.22H16.6573V625.549H19.4736V1148.22Z" fill="#2147CD"/>
<path d="M147.858 1147.19H147.102V626.578H147.858V1147.19Z" fill="#2147CD"/>
<path d="M148.888 1148.22H146.072V625.549H148.888V1148.22Z" fill="#2147CD"/>
<path d="M277.272 1147.19H276.516V626.578H277.272V1147.19Z" fill="#2147CD"/>
<path d="M278.302 1148.22H275.486V625.549H278.302V1148.22Z" fill="#2147CD"/>
<path d="M406.686 1147.19H405.931V626.578H406.686V1147.19Z" fill="#2147CD"/>
<path d="M407.717 1148.22H404.9V625.549H407.717V1148.22Z" fill="#2147CD"/>
<path d="M536.101 1147.19H535.345V626.578H536.101V1147.19Z" fill="#2147CD"/>
<path d="M537.131 1148.22H534.315V625.549H537.131V1148.22Z" fill="#2147CD"/>
<path d="M665.515 1147.19H664.759V626.578H665.515V1147.19Z" fill="#2147CD"/>
<path d="M666.545 1148.22H663.729V625.549H666.545V1148.22Z" fill="#2147CD"/>
<path d="M794.929 1147.19H794.173V626.578H794.929V1147.19Z" fill="#2147CD"/>
<path d="M795.959 1148.22H793.143V625.549H795.959V1148.22Z" fill="#2147CD"/>
<path d="M924.343 1147.19H923.588V626.578H924.343V1147.19Z" fill="#2147CD"/>
<path d="M925.374 1148.22H922.557V625.549H925.374V1148.22Z" fill="#2147CD"/>
<path d="M1053.76 1147.19H1053V626.578H1053.76V1147.19Z" fill="#2147CD"/>
<path d="M1054.79 1148.22H1051.97V625.549H1054.79V1148.22Z" fill="#2147CD"/>
<path d="M1183.17 1147.19H1182.42V626.578H1183.17V1147.19Z" fill="#2147CD"/>
<path d="M1184.2 1148.22H1181.39V625.549H1184.2V1148.22Z" fill="#2147CD"/>
<path d="M1312.59 1147.19H1311.83V626.578H1312.59V1147.19Z" fill="#2147CD"/>
<path d="M1313.62 1148.22H1310.8V625.549H1313.62V1148.22Z" fill="#2147CD"/>
<path d="M1442.07 1147.19H1441.31V626.578H1442.07V1147.19Z" fill="#2147CD"/>
<path d="M1443.1 1148.22H1440.28V625.549H1443.1V1148.22Z" fill="#2147CD"/>
<path d="M1571.48 1147.19H1570.73V626.578H1571.48V1147.19Z" fill="#2147CD"/>
<path d="M1572.51 1148.22H1569.7V625.549H1572.51V1148.22Z" fill="#2147CD"/>
<path d="M1700.9 1147.19H1700.14V626.578H1700.9V1147.19Z" fill="#2147CD"/>
<path d="M1701.93 1148.22H1699.11V625.549H1701.93V1148.22Z" fill="#2147CD"/>
<path d="M1830.31 1147.19H1829.56V626.578H1830.31V1147.19Z" fill="#2147CD"/>
<path d="M1831.34 1148.22H1828.53V625.549H1831.34V1148.22Z" fill="#2147CD"/>
<path d="M2347.97 1017.16H-499.97V1016.47H2347.97V1017.16Z" fill="#2147CD"/>
<path d="M2349 1018.19H-501V1015.44H2349V1018.19Z" fill="#2147CD"/>
<path d="M2347.97 887.054H-499.97V886.367H2347.97V887.054Z" fill="#2147CD"/>
<path d="M2349 888.085H-501V885.337H2349V888.085Z" fill="#2147CD"/>
<path d="M2347.97 756.954H-499.97V756.267H2347.97V756.954Z" fill="#2147CD"/>
<path d="M2349 757.985H-501V755.238H2349V757.985Z" fill="#2147CD"/>
<path d="M2347.97 626.923H-499.97V626.236H2347.97V626.923Z" fill="#2147CD"/>
<path d="M2349 627.954H-501V625.206H2349V627.954Z" fill="#2147CD"/>
<path d="M18.4432 497.573H17.6877V-23.0378H18.4432V497.573Z" fill="#2147CD"/>
<path d="M19.4736 498.604H16.6573V-24.0673H19.4736V498.604Z" fill="#2147CD"/>
<path d="M147.858 497.573H147.102V-23.0378H147.858V497.573Z" fill="#2147CD"/>
<path d="M148.888 498.604H146.072V-24.0673H148.888V498.604Z" fill="#2147CD"/>
<path d="M277.272 497.573H276.516V-23.0378H277.272V497.573Z" fill="#2147CD"/>
<path d="M278.302 498.604H275.486V-24.0673H278.302V498.604Z" fill="#2147CD"/>
<path d="M406.686 497.573H405.931V-23.0378H406.686V497.573Z" fill="#2147CD"/>
<path d="M407.717 498.604H404.9V-24.0673H407.717V498.604Z" fill="#2147CD"/>
<path d="M536.101 497.573H535.345V-23.0378H536.101V497.573Z" fill="#2147CD"/>
<path d="M537.131 498.604H534.315V-24.0673H537.131V498.604Z" fill="#2147CD"/>
<path d="M665.515 497.573H664.759V-23.0378H665.515V497.573Z" fill="#2147CD"/>
<path d="M666.545 498.604H663.729V-24.0673H666.545V498.604Z" fill="#2147CD"/>
<path d="M794.929 497.573H794.173V-23.0378H794.929V497.573Z" fill="#2147CD"/>
<path d="M795.959 498.604H793.143V-24.0673H795.959V498.604Z" fill="#2147CD"/>
<path d="M924.343 497.573H923.588V-23.0378H924.343V497.573Z" fill="#2147CD"/>
<path d="M925.374 498.604H922.557V-24.0673H925.374V498.604Z" fill="#2147CD"/>
<path d="M1053.76 497.573H1053V-23.0378H1053.76V497.573Z" fill="#2147CD"/>
<path d="M1054.79 498.604H1051.97V-24.0673H1054.79V498.604Z" fill="#2147CD"/>
<path d="M1183.17 497.573H1182.42V-23.0378H1183.17V497.573Z" fill="#2147CD"/>
<path d="M1184.2 498.604H1181.39V-24.0673H1184.2V498.604Z" fill="#2147CD"/>
<path d="M1312.59 497.573H1311.83V-23.0378H1312.59V497.573Z" fill="#2147CD"/>
<path d="M1313.62 498.604H1310.8V-24.0673H1313.62V498.604Z" fill="#2147CD"/>
<path d="M1442.07 497.573H1441.31V-23.0378H1442.07V497.573Z" fill="#2147CD"/>
<path d="M1443.1 498.604H1440.28V-24.0673H1443.1V498.604Z" fill="#2147CD"/>
<path d="M1571.48 497.573H1570.73V-23.0378H1571.48V497.573Z" fill="#2147CD"/>
<path d="M1572.51 498.604H1569.7V-24.0673H1572.51V498.604Z" fill="#2147CD"/>
<path d="M1700.9 497.573H1700.14V-23.0378H1700.9V497.573Z" fill="#2147CD"/>
<path d="M1701.93 498.604H1699.11V-24.0673H1701.93V498.604Z" fill="#2147CD"/>
<path d="M1830.31 497.573H1829.56V-23.0378H1830.31V497.573Z" fill="#2147CD"/>
<path d="M1831.34 498.604H1828.53V-24.0673H1831.34V498.604Z" fill="#2147CD"/>
<path d="M2347.97 497.573H-499.97V496.886H2347.97V497.573Z" fill="#2147CD"/>
<path d="M2349 498.604H-501V495.857H2349V498.604Z" fill="#2147CD"/>
<path d="M2347.97 367.542H-499.97V366.855H2347.97V367.542Z" fill="#2147CD"/>
<path d="M2349 368.573H-501V365.826H2349V368.573Z" fill="#2147CD"/>
<path d="M2347.97 237.438H-499.97V236.752H2347.97V237.438Z" fill="#2147CD"/>
<path d="M2349 238.47H-501V235.722H2349V238.47Z" fill="#2147CD"/>
<path d="M2347.97 107.339H-499.97V106.652H2347.97V107.339Z" fill="#2147CD"/>
<path d="M2349 108.37H-501V105.622H2349V108.37Z" fill="#2147CD"/>
</g>
<defs>
<filter id="filter0_b_1619_482" x="-701" y="-224.41" width="3250" height="1572.63" filterUnits="userSpaceOnUse" color-interpolation-filters="sRGB">
<feFlood flood-opacity="0" result="BackgroundImageFix"/>
<feGaussianBlur in="BackgroundImage" stdDeviation="100"/>
<feComposite in2="SourceAlpha" operator="in" result="effect1_backgroundBlur_1619_482"/>
<feBlend mode="normal" in="SourceGraphic" in2="effect1_backgroundBlur_1619_482" result="shape"/>
</filter>
<linearGradient id="paint0_linear_1619_482" x1="960" y1="1080" x2="960" y2="-0.000976562" gradientUnits="userSpaceOnUse">
<stop stop-color="#000036"/>
<stop offset="0.503125" stop-color="#000048"/>
<stop offset="1" stop-color="#000031"/>
</linearGradient>
</defs>
</svg>
