<svg width="224" height="55" viewBox="0 0 224 55" fill="none" xmlns="http://www.w3.org/2000/svg">
<g filter="url(#filter0_b_819_78)">
<rect opacity="0.9" x="1.27734" y="1.44287" width="221.662" height="52.6451" stroke="white"/>
<g filter="url(#filter1_b_819_78)">
<rect x="6.99561" y="5.9624" width="210.674" height="43.9967" fill="white" fill-opacity="0.9"/>
</g>
<path d="M67.443 21.9894L61.989 34.5894H59.109L53.673 21.9894H56.823L60.657 30.9894L64.545 21.9894H67.443ZM68.4728 24.9054H71.2808V34.5894H68.4728V24.9054ZM69.8768 23.5554C69.3608 23.5554 68.9408 23.4054 68.6168 23.1054C68.2928 22.8054 68.1308 22.4334 68.1308 21.9894C68.1308 21.5454 68.2928 21.1734 68.6168 20.8734C68.9408 20.5734 69.3608 20.4234 69.8768 20.4234C70.3928 20.4234 70.8128 20.5674 71.1368 20.8554C71.4608 21.1434 71.6228 21.5034 71.6228 21.9354C71.6228 22.4034 71.4608 22.7934 71.1368 23.1054C70.8128 23.4054 70.3928 23.5554 69.8768 23.5554ZM83.3729 29.7834C83.3729 29.8194 83.3549 30.0714 83.3189 30.5394H75.9929C76.1249 31.1394 76.4369 31.6134 76.9289 31.9614C77.4209 32.3094 78.0329 32.4834 78.7649 32.4834C79.2689 32.4834 79.7129 32.4114 80.0969 32.2674C80.4929 32.1114 80.8589 31.8714 81.1949 31.5474L82.6889 33.1674C81.7769 34.2114 80.4449 34.7334 78.6929 34.7334C77.6009 34.7334 76.6349 34.5234 75.7949 34.1034C74.9549 33.6714 74.3069 33.0774 73.8509 32.3214C73.3949 31.5654 73.1669 30.7074 73.1669 29.7474C73.1669 28.7994 73.3889 27.9474 73.8329 27.1914C74.2889 26.4234 74.9069 25.8294 75.6869 25.4094C76.4789 24.9774 77.3609 24.7614 78.3329 24.7614C79.2809 24.7614 80.1389 24.9654 80.9069 25.3734C81.6749 25.7814 82.2749 26.3694 82.7069 27.1374C83.1509 27.8934 83.3729 28.7754 83.3729 29.7834ZM78.3509 26.8854C77.7149 26.8854 77.1809 27.0654 76.7489 27.4254C76.3169 27.7854 76.0529 28.2774 75.9569 28.9014H80.7269C80.6309 28.2894 80.3669 27.8034 79.9349 27.4434C79.5029 27.0714 78.9749 26.8854 78.3509 26.8854ZM100.619 24.9054L97.1085 34.5894H94.4085L92.2305 28.5774L89.9805 34.5894H87.2805L83.7885 24.9054H86.4345L88.7205 31.4574L91.0965 24.9054H93.4725L95.7765 31.4574L98.1345 24.9054H100.619ZM107.22 21.9894H112.944C114.312 21.9894 115.518 22.2534 116.562 22.7814C117.618 23.2974 118.434 24.0294 119.01 24.9774C119.598 25.9254 119.892 27.0294 119.892 28.2894C119.892 29.5494 119.598 30.6534 119.01 31.6014C118.434 32.5494 117.618 33.2874 116.562 33.8154C115.518 34.3314 114.312 34.5894 112.944 34.5894H107.22V21.9894ZM112.8 32.1954C114.06 32.1954 115.062 31.8474 115.806 31.1514C116.562 30.4434 116.94 29.4894 116.94 28.2894C116.94 27.0894 116.562 26.1414 115.806 25.4454C115.062 24.7374 114.06 24.3834 112.8 24.3834H110.136V32.1954H112.8ZM131.379 29.7834C131.379 29.8194 131.361 30.0714 131.325 30.5394H123.999C124.131 31.1394 124.443 31.6134 124.935 31.9614C125.427 32.3094 126.039 32.4834 126.771 32.4834C127.275 32.4834 127.719 32.4114 128.103 32.2674C128.499 32.1114 128.865 31.8714 129.201 31.5474L130.695 33.1674C129.783 34.2114 128.451 34.7334 126.699 34.7334C125.607 34.7334 124.641 34.5234 123.801 34.1034C122.961 33.6714 122.313 33.0774 121.857 32.3214C121.401 31.5654 121.173 30.7074 121.173 29.7474C121.173 28.7994 121.395 27.9474 121.839 27.1914C122.295 26.4234 122.913 25.8294 123.693 25.4094C124.485 24.9774 125.367 24.7614 126.339 24.7614C127.287 24.7614 128.145 24.9654 128.913 25.3734C129.681 25.7814 130.281 26.3694 130.713 27.1374C131.157 27.8934 131.379 28.7754 131.379 29.7834ZM126.357 26.8854C125.721 26.8854 125.187 27.0654 124.755 27.4254C124.323 27.7854 124.059 28.2774 123.963 28.9014H128.733C128.637 28.2894 128.373 27.8034 127.941 27.4434C127.509 27.0714 126.981 26.8854 126.357 26.8854ZM139.494 34.1214C139.218 34.3254 138.876 34.4814 138.468 34.5894C138.072 34.6854 137.652 34.7334 137.208 34.7334C136.056 34.7334 135.162 34.4394 134.526 33.8514C133.902 33.2634 133.59 32.3994 133.59 31.2594V27.2814H132.096V25.1214H133.59V22.7634H136.398V25.1214H138.81V27.2814H136.398V31.2234C136.398 31.6314 136.5 31.9494 136.704 32.1774C136.92 32.3934 137.22 32.5014 137.604 32.5014C138.048 32.5014 138.426 32.3814 138.738 32.1414L139.494 34.1214ZM144.976 24.7614C146.476 24.7614 147.628 25.1214 148.432 25.8414C149.236 26.5494 149.638 27.6234 149.638 29.0634V34.5894H147.01V33.3834C146.482 34.2834 145.498 34.7334 144.058 34.7334C143.314 34.7334 142.666 34.6074 142.114 34.3554C141.574 34.1034 141.16 33.7554 140.872 33.3114C140.584 32.8674 140.44 32.3634 140.44 31.7994C140.44 30.8994 140.776 30.1914 141.448 29.6754C142.132 29.1594 143.182 28.9014 144.598 28.9014H146.83C146.83 28.2894 146.644 27.8214 146.272 27.4974C145.9 27.1614 145.342 26.9934 144.598 26.9934C144.082 26.9934 143.572 27.0774 143.068 27.2454C142.576 27.4014 142.156 27.6174 141.808 27.8934L140.8 25.9314C141.328 25.5594 141.958 25.2714 142.69 25.0674C143.434 24.8634 144.196 24.7614 144.976 24.7614ZM144.76 32.8434C145.24 32.8434 145.666 32.7354 146.038 32.5194C146.41 32.2914 146.674 31.9614 146.83 31.5294V30.5394H144.904C143.752 30.5394 143.176 30.9174 143.176 31.6734C143.176 32.0334 143.314 32.3214 143.59 32.5374C143.878 32.7414 144.268 32.8434 144.76 32.8434ZM152.18 24.9054H154.988V34.5894H152.18V24.9054ZM153.584 23.5554C153.068 23.5554 152.648 23.4054 152.324 23.1054C152 22.8054 151.838 22.4334 151.838 21.9894C151.838 21.5454 152 21.1734 152.324 20.8734C152.648 20.5734 153.068 20.4234 153.584 20.4234C154.1 20.4234 154.52 20.5674 154.844 20.8554C155.168 21.1434 155.33 21.5034 155.33 21.9354C155.33 22.4034 155.168 22.7934 154.844 23.1054C154.52 23.4054 154.1 23.5554 153.584 23.5554ZM157.594 21.2334H160.402V34.5894H157.594V21.2334ZM166.266 34.7334C165.462 34.7334 164.676 34.6374 163.908 34.4454C163.14 34.2414 162.528 33.9894 162.072 33.6894L163.008 31.6734C163.44 31.9494 163.962 32.1774 164.574 32.3574C165.186 32.5254 165.786 32.6094 166.374 32.6094C167.562 32.6094 168.156 32.3154 168.156 31.7274C168.156 31.4514 167.994 31.2534 167.67 31.1334C167.346 31.0134 166.848 30.9114 166.176 30.8274C165.384 30.7074 164.73 30.5694 164.214 30.4134C163.698 30.2574 163.248 29.9814 162.864 29.5854C162.492 29.1894 162.306 28.6254 162.306 27.8934C162.306 27.2814 162.48 26.7414 162.828 26.2734C163.188 25.7934 163.704 25.4214 164.376 25.1574C165.06 24.8934 165.864 24.7614 166.788 24.7614C167.472 24.7614 168.15 24.8394 168.822 24.9954C169.506 25.1394 170.07 25.3434 170.514 25.6074L169.578 27.6054C168.726 27.1254 167.796 26.8854 166.788 26.8854C166.188 26.8854 165.738 26.9694 165.438 27.1374C165.138 27.3054 164.988 27.5214 164.988 27.7854C164.988 28.0854 165.15 28.2954 165.474 28.4154C165.798 28.5354 166.314 28.6494 167.022 28.7574C167.814 28.8894 168.462 29.0334 168.966 29.1894C169.47 29.3334 169.908 29.6034 170.28 29.9994C170.652 30.3954 170.838 30.9474 170.838 31.6554C170.838 32.2554 170.658 32.7894 170.298 33.2574C169.938 33.7254 169.41 34.0914 168.714 34.3554C168.03 34.6074 167.214 34.7334 166.266 34.7334Z" fill="black"/>
</g>
<defs>
<filter id="filter0_b_819_78" x="-3.22266" y="-3.05713" width="230.662" height="61.645" filterUnits="userSpaceOnUse" color-interpolation-filters="sRGB">
<feFlood flood-opacity="0" result="BackgroundImageFix"/>
<feGaussianBlur in="BackgroundImage" stdDeviation="2"/>
<feComposite in2="SourceAlpha" operator="in" result="effect1_backgroundBlur_819_78"/>
<feBlend mode="normal" in="SourceGraphic" in2="effect1_backgroundBlur_819_78" result="shape"/>
</filter>
<filter id="filter1_b_819_78" x="-53.0044" y="-54.0376" width="330.674" height="163.997" filterUnits="userSpaceOnUse" color-interpolation-filters="sRGB">
<feFlood flood-opacity="0" result="BackgroundImageFix"/>
<feGaussianBlur in="BackgroundImage" stdDeviation="30"/>
<feComposite in2="SourceAlpha" operator="in" result="effect1_backgroundBlur_819_78"/>
<feBlend mode="normal" in="SourceGraphic" in2="effect1_backgroundBlur_819_78" result="shape"/>
</filter>
</defs>
</svg>
