<svg width="1318" height="122" viewBox="0 0 1318 122" fill="none" xmlns="http://www.w3.org/2000/svg">
<path d="M1317.2 106.201H0.0854492V121.756H1317.2V106.201Z" fill="#00005C"/>
<path d="M1051.34 63.4633H1042.87V60.6412H1044V60.1875H1036.22V58.5269H1036.9V58.173H1033.55V56.6122H1030.37H1029.86V51.1313H1029.52H1029.07H1028.67V56.6122H1027.13V53.5451H1026.79H1026.39H1025.94V56.6122H1022.25V58.173H1018.38V58.5269H1019.58V60.1875H1011.85V60.6412H1012.93V63.4633H1004.46V63.917H1005.65V108.018H1050.14V63.917H1051.34V63.4633Z" fill="#020247"/>
<path d="M517.907 40.0236H503.613V35.2595H505.53V34.4973H492.378V31.6933H493.53V31.0945H487.865V28.4538H482.493H481.634V19.189H481.058H480.293H479.613V28.4538H477.027V23.2724H476.451H475.78H475.006V28.4538H468.765V31.0945H462.242V31.6933H464.253V34.4973H451.205V35.2595H453.027V40.0236H438.723V40.7949H440.744V115.286H515.896V40.7949H517.907V40.0236Z" fill="#000068"/>
<path d="M738.003 36.6222V20.3558H720.178V14.1309H710.662V8.98136H707.31V0H706.366V8.98136H703.014V14.1309H693.516V20.3558H675.852V36.6222H672.122V66.2319H644.743V99.9158H741.582V36.6222H738.003Z" fill="#00005C"/>
<path d="M446.837 67.3828H370.297V107.564H446.837V67.3828Z" fill="#00005C"/>
<path d="M358.73 88.0264H227.119V107.564H358.73V88.0264Z" fill="#00005C"/>
<path d="M326.63 44.1797H297.721V92.2823H326.63V44.1797Z" fill="#00005C"/>
<path d="M305.567 31.3818H304.037V57.5232H305.567V31.3818Z" fill="#00005C"/>
<path d="M310.514 33.3354H308.985V59.4769H310.514V33.3354Z" fill="#00005C"/>
<path d="M317.594 41.2568H299.929V47.7392H317.594V41.2568Z" fill="#00005C"/>
<path d="M403.887 74.5923H353.622V107.564H403.887V74.5923Z" fill="#00005C"/>
<path d="M486.594 73.2598H442.116V107.565H486.594V73.2598Z" fill="#00005C"/>
<path d="M174.569 72.0024H123.539V107.564H174.569V72.0024Z" fill="#00005C"/>
<path d="M149.049 93.7822H95.7432V107.565H149.049V93.7822Z" fill="#00005C"/>
<path d="M100.841 88.0264H75.6328V107.564H100.841V88.0264Z" fill="#00005C"/>
<path d="M88.2001 100.719H45.0913V107.565H88.2001V100.719Z" fill="#00005C"/>
<path d="M1075.85 92.3579H544.403V107.716H1075.85V92.3579Z" fill="#00005C"/>
<path d="M1130.91 67.8223H1048.77V107.565H1130.91V67.8223Z" fill="#00005C"/>
<path d="M1200.98 83.3008H1118.84V107.382H1200.98V83.3008Z" fill="#00005C"/>
<path d="M846.684 79.7417H800.583V99.9156H846.665L846.684 79.7417Z" fill="#00005C"/>
<path d="M1243.48 107.564H1166.9V62.2788H1224.93L1243.48 107.564Z" fill="#00005C"/>
<path d="M1276.99 97.25H1209.95V107.564H1276.99V97.25Z" fill="#00005C"/>
<path d="M1197.4 58.6743H1170.02V65.7776H1197.4V58.6743Z" fill="#00005C"/>
<path d="M1194.36 56.0991H1172.95V60.0976H1194.36V56.0991Z" fill="#00005C"/>
<path d="M1213.47 60.7642H1208.21V63.6116H1213.47V60.7642Z" fill="#00005C"/>
<path d="M1222.91 58.1445H1215.35V63.6575H1222.91V58.1445Z" fill="#00005C"/>
</svg>
