<svg width="767" height="312" viewBox="0 0 767 312" fill="none" xmlns="http://www.w3.org/2000/svg">
<mask id="mask0_1526_8731" style="mask-type:alpha" maskUnits="userSpaceOnUse" x="0" y="0" width="767" height="312">
<rect width="766.259" height="311.47" fill="#C4C4C4"/>
</mask>
<g mask="url(#mask0_1526_8731)">
<path d="M731.934 303.101H34.2451V311.341H731.934V303.101Z" fill="#00005C"/>
<path d="M591.105 280.462H586.619V278.967H587.219V278.727H583.098V277.847H583.458V277.66H581.683V276.833H579.998H579.727V273.93H579.547H579.307H579.097V276.833H578.282V275.209H578.102H577.892H577.652V276.833H575.697V277.66H573.646V277.847H574.281V278.727H570.185V278.967H570.76V280.462H566.274V280.703H566.905V304.064H590.47V280.703H591.105V280.462Z" fill="#020247"/>
<path d="M308.541 268.046H300.969V265.523H301.985V265.119H295.018V263.633H295.628V263.316H292.628V261.917H289.782H289.327V257.01H289.022H288.617H288.257V261.917H286.886V259.173H286.581H286.226H285.816V261.917H282.51V263.316H279.055V263.633H280.12V265.119H273.208V265.523H274.173V268.046H266.597V268.455H267.667V307.913H307.476V268.455H308.541V268.046Z" fill="#000068"/>
<path d="M425.128 266.244V257.628H415.686V254.331H410.645V251.603H408.869V246.845H408.369V251.603H406.594V254.331H401.562V257.628H392.205V266.244H390.23V281.929H375.727V299.772H427.023V266.244H425.128Z" fill="#00005C"/>
<path d="M270.894 282.539H230.35V303.823H270.894V282.539Z" fill="#00005C"/>
<path d="M224.223 293.474H154.507V303.823H224.223V293.474Z" fill="#00005C"/>
<path d="M207.22 270.248H191.906V295.728H207.22V270.248Z" fill="#00005C"/>
<path d="M196.062 263.469H195.252V277.316H196.062V263.469Z" fill="#00005C"/>
<path d="M198.682 264.503H197.872V278.351H198.682V264.503Z" fill="#00005C"/>
<path d="M202.432 268.699H193.075V272.133H202.432V268.699Z" fill="#00005C"/>
<path d="M248.143 286.358H221.517V303.823H248.143V286.358Z" fill="#00005C"/>
<path d="M291.954 285.652H268.394V303.823H291.954V285.652Z" fill="#00005C"/>
<path d="M126.671 284.986H99.6396V303.823H126.671V284.986Z" fill="#00005C"/>
<path d="M113.152 296.523H84.916V303.823H113.152V296.523Z" fill="#00005C"/>
<path d="M87.6167 293.474H74.2637V303.823H87.6167V293.474Z" fill="#00005C"/>
<path d="M80.9202 300.197H58.085V303.823H80.9202V300.197Z" fill="#00005C"/>
<path d="M604.09 295.768H322.576V303.903H604.09V295.768Z" fill="#00005C"/>
<path d="M633.256 282.771H589.746V303.823H633.256V282.771Z" fill="#00005C"/>
<path d="M670.37 290.97H626.86V303.727H670.37V290.97Z" fill="#00005C"/>
<path d="M482.698 289.085H458.277V299.772H482.688L482.698 289.085Z" fill="#00005C"/>
<path d="M692.886 303.823H652.321V279.835H683.058L692.886 303.823Z" fill="#00005C"/>
<path d="M710.633 298.36H675.125V303.823H710.633V298.36Z" fill="#00005C"/>
<path d="M668.474 277.926H653.971V281.688H668.474V277.926Z" fill="#00005C"/>
<path d="M666.864 276.562H655.526V278.68H666.864V276.562Z" fill="#00005C"/>
<path d="M676.986 279.033H674.2V280.541H676.986V279.033Z" fill="#00005C"/>
<path d="M681.987 277.645H677.986V280.565H681.987V277.645Z" fill="#00005C"/>
</g>
</svg>
