<svg width="767" height="312" viewBox="0 0 767 312" fill="none" xmlns="http://www.w3.org/2000/svg">
<mask id="mask0_1526_7990" style="mask-type:alpha" maskUnits="userSpaceOnUse" x="0" y="0" width="767" height="312">
<rect width="766.259" height="311.47" fill="#C4C4C4"/>
</mask>
<g mask="url(#mask0_1526_7990)">
<path d="M471.483 237.242H442.791V319.139H471.483V237.242Z" fill="url(#paint0_linear_1526_7990)"/>
<path d="M472.213 234.098H441.101V237.237H472.198L472.213 234.098Z" fill="#0D0030"/>
<path d="M456.664 225.58H444.056V242.173H456.664V225.58Z" fill="#0D0030"/>
<path d="M462.89 225.58H460.765V235.675H462.89V225.58Z" fill="#0D0030"/>
<path d="M467.312 225.58H464.996V235.675H467.312V225.58Z" fill="#0D0030"/>
<path d="M449.253 251.955H447.942V255.671H449.253V251.955Z" fill="#C7DBD9"/>
<path d="M449.253 259.093H447.942V262.809H449.253V259.093Z" fill="#C7DBD9"/>
<path d="M449.253 266.178H447.942V269.894H449.253V266.178Z" fill="#C7DBD9"/>
<path d="M449.253 273.278H447.942V276.993H449.253V273.278Z" fill="#C7DBD9"/>
<path d="M449.253 279.988H447.942V283.699H449.253V279.988Z" fill="#C7DBD9"/>
<path d="M449.253 287.088H447.942V290.818H449.253V287.088Z" fill="#C7DBD9"/>
<path d="M454.858 251.955H453.548V255.671H454.858V251.955Z" fill="#C7DBD9"/>
<path d="M454.858 259.093H453.548V262.809H454.858V259.093Z" fill="#C7DBD9"/>
<path d="M454.858 266.178H453.548V269.894H454.858V266.178Z" fill="#C7DBD9"/>
<path d="M454.858 273.278H453.548V276.993H454.858V273.278Z" fill="#C7DBD9"/>
<path d="M454.858 279.988H453.548V283.699H454.858V279.988Z" fill="#C7DBD9"/>
<path d="M454.858 287.088H453.548V290.818H454.858V287.088Z" fill="#C7DBD9"/>
<path d="M460.44 251.955H459.135V255.671H460.44V251.955Z" fill="#C7DBD9"/>
<path d="M460.44 259.093H459.135V262.809H460.44V259.093Z" fill="#C7DBD9"/>
<path d="M460.44 266.178H459.135V269.894H460.44V266.178Z" fill="#C7DBD9"/>
<path d="M460.44 273.278H459.135V276.993H460.44V273.278Z" fill="#C7DBD9"/>
<path d="M460.44 279.988H459.135V283.699H460.44V279.988Z" fill="#C7DBD9"/>
<path d="M460.44 287.088H459.135V290.818H460.44V287.088Z" fill="#C7DBD9"/>
<path d="M466.026 251.955H464.716V255.671H466.026V251.955Z" fill="#C7DBD9"/>
<path d="M466.026 259.093H464.716V262.809H466.026V259.093Z" fill="#C7DBD9"/>
<path d="M466.026 266.178H464.716V269.894H466.026V266.178Z" fill="#C7DBD9"/>
<path d="M466.026 273.278H464.716V276.993H466.026V273.278Z" fill="#C7DBD9"/>
<path d="M466.026 279.988H464.716V283.699H466.026V279.988Z" fill="#C7DBD9"/>
<path d="M466.026 287.088H464.716V290.818H466.026V287.088Z" fill="#C7DBD9"/>
<path d="M217.81 224.989H234.973V208.694H217.81V224.989Z" fill="#120021"/>
<path d="M225.052 213.294H234.989V204.738H227.862L225.052 213.294Z" fill="#120021"/>
<path d="M230.008 216.717H230.968V197.615H230.008V216.717Z" fill="#120021"/>
<path d="M229.617 196.605C229.607 196.846 229.691 197.083 229.853 197.267C230.015 197.451 230.243 197.57 230.493 197.6C230.746 197.579 230.98 197.463 231.144 197.277C231.308 197.09 231.389 196.849 231.368 196.605C231.387 196.484 231.379 196.361 231.343 196.243C231.308 196.125 231.247 196.016 231.164 195.923C231.081 195.83 230.978 195.756 230.862 195.705C230.746 195.653 230.62 195.627 230.493 195.627C230.365 195.627 230.239 195.653 230.123 195.705C230.008 195.756 229.905 195.83 229.821 195.923C229.738 196.016 229.677 196.125 229.642 196.243C229.607 196.361 229.598 196.484 229.617 196.605V196.605Z" fill="#120021"/>
<path d="M193.405 331.647H239.846V220.726H193.405V331.647Z" fill="url(#paint1_linear_1526_7990)"/>
<path d="M192.089 221.952H241.16V218.808H192.089V221.952Z" fill="#120021"/>
<path d="M194.984 229.724H238.289V214.823H194.984V229.724Z" fill="#120021"/>
<g opacity="0.74">
<path opacity="0.74" d="M201.561 222.98H199.57V224.893H201.561V222.98Z" fill="#E6E6E6"/>
<path opacity="0.74" d="M204.772 222.98H202.781V224.893H204.772V222.98Z" fill="white"/>
<path opacity="0.74" d="M207.988 222.98H205.997V224.893H207.988V222.98Z" fill="#CCCCCC"/>
<path opacity="0.74" d="M211.198 222.98H209.208V224.893H211.198V222.98Z" fill="#F2F2F2"/>
<path opacity="0.74" d="M214.408 222.98H212.418V224.893H214.408V222.98Z" fill="#B3B3B3"/>
<path opacity="0.74" d="M217.619 222.98H215.629V224.893H217.619V222.98Z" fill="#CCCCCC"/>
<path opacity="0.74" d="M220.834 222.98H218.844V224.893H220.834V222.98Z" fill="#B3B3B3"/>
<path opacity="0.74" d="M224.045 222.98H222.055V224.893H224.045V222.98Z" fill="#B3B3B3"/>
<path opacity="0.74" d="M227.256 222.98H225.266V224.893H227.256V222.98Z" fill="#E6E6E6"/>
<path opacity="0.74" d="M230.466 222.98H228.476V224.893H230.466V222.98Z" fill="#CCCCCC"/>
<path opacity="0.74" d="M233.685 222.98H231.694V224.893H233.685V222.98Z" fill="#E6E6E6"/>
<path opacity="0.74" d="M201.561 225.749H199.57V227.662H201.561V225.749Z" fill="#F2F2F2"/>
<path opacity="0.74" d="M204.772 225.749H202.781V227.662H204.772V225.749Z" fill="#CCCCCC"/>
<path opacity="0.74" d="M207.988 225.749H205.997V227.662H207.988V225.749Z" fill="#F2F2F2"/>
<path opacity="0.74" d="M211.198 225.749H209.208V227.662H211.198V225.749Z" fill="#B3B3B3"/>
<path opacity="0.74" d="M214.408 225.749H212.418V227.662H214.408V225.749Z" fill="#F2F2F2"/>
<path opacity="0.74" d="M217.619 225.749H215.629V227.662H217.619V225.749Z" fill="white"/>
<path opacity="0.74" d="M220.834 225.749H218.844V227.662H220.834V225.749Z" fill="#CCCCCC"/>
<path opacity="0.74" d="M224.045 225.749H222.055V227.662H224.045V225.749Z" fill="#B3B3B3"/>
<path opacity="0.74" d="M227.256 225.749H225.266V227.662H227.256V225.749Z" fill="#F2F2F2"/>
<path opacity="0.74" d="M230.466 225.749H228.476V227.662H230.466V225.749Z" fill="white"/>
<path opacity="0.74" d="M233.685 225.749H231.694V227.662H233.685V225.749Z" fill="white"/>
<path opacity="0.74" d="M201.561 228.522H199.57V230.435H201.561V228.522Z" fill="#CCCCCC"/>
<path opacity="0.74" d="M204.772 228.522H202.781V230.435H204.772V228.522Z" fill="white"/>
<path opacity="0.74" d="M207.988 228.522H205.997V230.435H207.988V228.522Z" fill="#B3B3B3"/>
<path opacity="0.74" d="M211.198 228.522H209.208V230.435H211.198V228.522Z" fill="white"/>
<path opacity="0.74" d="M214.408 228.522H212.418V230.435H214.408V228.522Z" fill="#E6E6E6"/>
<path opacity="0.74" d="M217.619 228.522H215.629V230.435H217.619V228.522Z" fill="white"/>
<path opacity="0.74" d="M220.834 228.522H218.844V230.435H220.834V228.522Z" fill="#E6E6E6"/>
<path opacity="0.74" d="M224.045 228.522H222.055V230.435H224.045V228.522Z" fill="#E6E6E6"/>
<path opacity="0.74" d="M227.256 228.522H225.266V230.435H227.256V228.522Z" fill="white"/>
<path opacity="0.74" d="M230.466 228.522H228.476V230.435H230.466V228.522Z" fill="#CCCCCC"/>
<path opacity="0.74" d="M233.685 228.522H231.694V230.435H233.685V228.522Z" fill="#B3B3B3"/>
<path opacity="0.74" d="M201.561 231.296H199.57V233.209H201.561V231.296Z" fill="#B3B3B3"/>
<path opacity="0.74" d="M204.772 231.296H202.781V233.209H204.772V231.296Z" fill="#CCCCCC"/>
<path opacity="0.74" d="M207.988 231.296H205.997V233.209H207.988V231.296Z" fill="white"/>
<path opacity="0.74" d="M211.198 231.296H209.208V233.209H211.198V231.296Z" fill="#B3B3B3"/>
<path opacity="0.74" d="M214.408 231.296H212.418V233.209H214.408V231.296Z" fill="#CCCCCC"/>
<path opacity="0.74" d="M217.619 231.296H215.629V233.209H217.619V231.296Z" fill="#E6E6E6"/>
<path opacity="0.74" d="M220.834 231.296H218.844V233.209H220.834V231.296Z" fill="#CCCCCC"/>
<path opacity="0.74" d="M224.045 231.296H222.055V233.209H224.045V231.296Z" fill="#E6E6E6"/>
<path opacity="0.74" d="M227.256 231.296H225.266V233.209H227.256V231.296Z" fill="#B3B3B3"/>
<path opacity="0.74" d="M230.466 231.296H228.476V233.209H230.466V231.296Z" fill="#E6E6E6"/>
<path opacity="0.74" d="M233.685 231.296H231.694V233.209H233.685V231.296Z" fill="#F2F2F2"/>
<path opacity="0.74" d="M201.561 234.064H199.57V235.978H201.561V234.064Z" fill="#CCCCCC"/>
<path opacity="0.74" d="M204.772 234.064H202.781V235.978H204.772V234.064Z" fill="#CCCCCC"/>
<path opacity="0.74" d="M207.988 234.064H205.997V235.978H207.988V234.064Z" fill="#E6E6E6"/>
<path opacity="0.74" d="M211.198 234.064H209.208V235.978H211.198V234.064Z" fill="#CCCCCC"/>
<path opacity="0.74" d="M214.408 234.064H212.418V235.978H214.408V234.064Z" fill="#E6E6E6"/>
<path opacity="0.74" d="M217.619 234.064H215.629V235.978H217.619V234.064Z" fill="#CCCCCC"/>
<path opacity="0.74" d="M220.834 234.064H218.844V235.978H220.834V234.064Z" fill="white"/>
<path opacity="0.74" d="M224.045 234.064H222.055V235.978H224.045V234.064Z" fill="#B3B3B3"/>
<path opacity="0.74" d="M227.256 234.064H225.266V235.978H227.256V234.064Z" fill="#B3B3B3"/>
<path opacity="0.74" d="M230.466 234.064H228.476V235.978H230.466V234.064Z" fill="#CCCCCC"/>
<path opacity="0.74" d="M233.685 234.064H231.694V235.978H233.685V234.064Z" fill="white"/>
<path opacity="0.74" d="M201.561 236.838H199.57V238.751H201.561V236.838Z" fill="#B3B3B3"/>
<path opacity="0.74" d="M204.772 236.838H202.781V238.751H204.772V236.838Z" fill="#E6E6E6"/>
<path opacity="0.74" d="M207.988 236.838H205.997V238.751H207.988V236.838Z" fill="#CCCCCC"/>
<path opacity="0.74" d="M211.198 236.838H209.208V238.751H211.198V236.838Z" fill="#B3B3B3"/>
<path opacity="0.74" d="M214.408 236.838H212.418V238.751H214.408V236.838Z" fill="#B3B3B3"/>
<path opacity="0.74" d="M217.619 236.838H215.629V238.751H217.619V236.838Z" fill="#CCCCCC"/>
<path opacity="0.74" d="M220.834 236.838H218.844V238.751H220.834V236.838Z" fill="#CCCCCC"/>
<path opacity="0.74" d="M224.045 236.838H222.055V238.751H224.045V236.838Z" fill="white"/>
<path opacity="0.74" d="M227.256 236.838H225.266V238.751H227.256V236.838Z" fill="#F2F2F2"/>
<path opacity="0.74" d="M230.466 236.838H228.476V238.751H230.466V236.838Z" fill="#CCCCCC"/>
<path opacity="0.74" d="M233.685 236.838H231.694V238.751H233.685V236.838Z" fill="#E6E6E6"/>
<path opacity="0.74" d="M201.561 239.607H199.57V241.52H201.561V239.607Z" fill="#B3B3B3"/>
<path opacity="0.74" d="M204.772 239.607H202.781V241.52H204.772V239.607Z" fill="white"/>
<path opacity="0.74" d="M207.988 239.607H205.997V241.52H207.988V239.607Z" fill="#B3B3B3"/>
<path opacity="0.74" d="M211.198 239.607H209.208V241.52H211.198V239.607Z" fill="#E6E6E6"/>
<path opacity="0.74" d="M214.408 239.607H212.418V241.52H214.408V239.607Z" fill="#E6E6E6"/>
<path opacity="0.74" d="M217.619 239.607H215.629V241.52H217.619V239.607Z" fill="#B3B3B3"/>
<path opacity="0.74" d="M220.834 239.607H218.844V241.52H220.834V239.607Z" fill="#CCCCCC"/>
<path opacity="0.74" d="M224.045 239.607H222.055V241.52H224.045V239.607Z" fill="#CCCCCC"/>
<path opacity="0.74" d="M227.256 239.607H225.266V241.52H227.256V239.607Z" fill="#B3B3B3"/>
<path opacity="0.74" d="M230.466 239.607H228.476V241.52H230.466V239.607Z" fill="#CCCCCC"/>
<path opacity="0.74" d="M233.685 239.607H231.694V241.52H233.685V239.607Z" fill="#B3B3B3"/>
<path opacity="0.74" d="M201.561 242.38H199.57V244.293H201.561V242.38Z" fill="#F2F2F2"/>
<path opacity="0.74" d="M204.772 242.38H202.781V244.293H204.772V242.38Z" fill="#F2F2F2"/>
<path opacity="0.74" d="M207.988 242.38H205.997V244.293H207.988V242.38Z" fill="#E6E6E6"/>
<path opacity="0.74" d="M211.198 242.38H209.208V244.293H211.198V242.38Z" fill="white"/>
<path opacity="0.74" d="M214.408 242.38H212.418V244.293H214.408V242.38Z" fill="#CCCCCC"/>
<path opacity="0.74" d="M217.619 242.38H215.629V244.293H217.619V242.38Z" fill="#F2F2F2"/>
<path opacity="0.74" d="M220.834 242.38H218.844V244.293H220.834V242.38Z" fill="#E6E6E6"/>
<path opacity="0.74" d="M224.045 242.38H222.055V244.293H224.045V242.38Z" fill="#E6E6E6"/>
<path opacity="0.74" d="M227.256 242.38H225.266V244.293H227.256V242.38Z" fill="#B3B3B3"/>
<path opacity="0.74" d="M230.466 242.38H228.476V244.293H230.466V242.38Z" fill="#CCCCCC"/>
<path opacity="0.74" d="M233.685 242.38H231.694V244.293H233.685V242.38Z" fill="#E6E6E6"/>
<path opacity="0.74" d="M201.561 245.154H199.57V247.067H201.561V245.154Z" fill="#E6E6E6"/>
<path opacity="0.74" d="M204.772 245.154H202.781V247.067H204.772V245.154Z" fill="#CCCCCC"/>
<path opacity="0.74" d="M207.988 245.154H205.997V247.067H207.988V245.154Z" fill="white"/>
<path opacity="0.74" d="M211.198 245.154H209.208V247.067H211.198V245.154Z" fill="#F2F2F2"/>
<path opacity="0.74" d="M214.408 245.154H212.418V247.067H214.408V245.154Z" fill="#F2F2F2"/>
<path opacity="0.74" d="M217.619 245.154H215.629V247.067H217.619V245.154Z" fill="#F2F2F2"/>
<path opacity="0.74" d="M220.834 245.154H218.844V247.067H220.834V245.154Z" fill="#CCCCCC"/>
<path opacity="0.74" d="M224.045 245.154H222.055V247.067H224.045V245.154Z" fill="#F2F2F2"/>
<path opacity="0.74" d="M227.256 245.154H225.266V247.067H227.256V245.154Z" fill="#F2F2F2"/>
<path opacity="0.74" d="M230.466 245.154H228.476V247.067H230.466V245.154Z" fill="#F2F2F2"/>
<path opacity="0.74" d="M233.685 245.154H231.694V247.067H233.685V245.154Z" fill="#E6E6E6"/>
<path opacity="0.74" d="M201.561 247.922H199.57V249.835H201.561V247.922Z" fill="#E6E6E6"/>
<path opacity="0.74" d="M204.772 247.922H202.781V249.835H204.772V247.922Z" fill="#CCCCCC"/>
<path opacity="0.74" d="M207.988 247.922H205.997V249.835H207.988V247.922Z" fill="#E6E6E6"/>
<path opacity="0.74" d="M211.198 247.922H209.208V249.835H211.198V247.922Z" fill="#F2F2F2"/>
<path opacity="0.74" d="M214.408 247.922H212.418V249.835H214.408V247.922Z" fill="#CCCCCC"/>
<path opacity="0.74" d="M217.619 247.922H215.629V249.835H217.619V247.922Z" fill="#CCCCCC"/>
<path opacity="0.74" d="M220.834 247.922H218.844V249.835H220.834V247.922Z" fill="white"/>
<path opacity="0.74" d="M224.045 247.922H222.055V249.835H224.045V247.922Z" fill="#E6E6E6"/>
<path opacity="0.74" d="M227.256 247.922H225.266V249.835H227.256V247.922Z" fill="#B3B3B3"/>
<path opacity="0.74" d="M230.466 247.922H228.476V249.835H230.466V247.922Z" fill="#E6E6E6"/>
<path opacity="0.74" d="M233.685 247.922H231.694V249.835H233.685V247.922Z" fill="#CCCCCC"/>
<path opacity="0.74" d="M201.561 250.696H199.57V252.609H201.561V250.696Z" fill="#CCCCCC"/>
<path opacity="0.74" d="M204.772 250.696H202.781V252.609H204.772V250.696Z" fill="#CCCCCC"/>
<path opacity="0.74" d="M207.988 250.696H205.997V252.609H207.988V250.696Z" fill="white"/>
<path opacity="0.74" d="M211.198 250.696H209.208V252.609H211.198V250.696Z" fill="#F2F2F2"/>
<path opacity="0.74" d="M214.408 250.696H212.418V252.609H214.408V250.696Z" fill="#B3B3B3"/>
<path opacity="0.74" d="M217.619 250.696H215.629V252.609H217.619V250.696Z" fill="white"/>
<path opacity="0.74" d="M220.834 250.696H218.844V252.609H220.834V250.696Z" fill="#E6E6E6"/>
<path opacity="0.74" d="M224.045 250.696H222.055V252.609H224.045V250.696Z" fill="#CCCCCC"/>
<path opacity="0.74" d="M227.256 250.696H225.266V252.609H227.256V250.696Z" fill="#CCCCCC"/>
<path opacity="0.74" d="M230.466 250.696H228.476V252.609H230.466V250.696Z" fill="#B3B3B3"/>
<path opacity="0.74" d="M233.685 250.696H231.694V252.609H233.685V250.696Z" fill="#B3B3B3"/>
<path opacity="0.74" d="M201.561 253.469H199.57V255.382H201.561V253.469Z" fill="#CCCCCC"/>
<path opacity="0.74" d="M204.772 253.469H202.781V255.382H204.772V253.469Z" fill="white"/>
<path opacity="0.74" d="M207.988 253.469H205.997V255.382H207.988V253.469Z" fill="#E6E6E6"/>
<path opacity="0.74" d="M211.198 253.469H209.208V255.382H211.198V253.469Z" fill="#B3B3B3"/>
<path opacity="0.74" d="M214.408 253.469H212.418V255.382H214.408V253.469Z" fill="#F2F2F2"/>
<path opacity="0.74" d="M217.619 253.469H215.629V255.382H217.619V253.469Z" fill="white"/>
<path opacity="0.74" d="M220.834 253.469H218.844V255.382H220.834V253.469Z" fill="#CCCCCC"/>
<path opacity="0.74" d="M224.045 253.469H222.055V255.382H224.045V253.469Z" fill="#CCCCCC"/>
<path opacity="0.74" d="M227.256 253.469H225.266V255.382H227.256V253.469Z" fill="#E6E6E6"/>
<path opacity="0.74" d="M230.466 253.469H228.476V255.382H230.466V253.469Z" fill="#CCCCCC"/>
<path opacity="0.74" d="M233.685 253.469H231.694V255.382H233.685V253.469Z" fill="#CCCCCC"/>
<path opacity="0.74" d="M201.561 256.238H199.57V258.151H201.561V256.238Z" fill="#B3B3B3"/>
<path opacity="0.74" d="M204.772 256.238H202.781V258.151H204.772V256.238Z" fill="#E6E6E6"/>
<path opacity="0.74" d="M207.988 256.238H205.997V258.151H207.988V256.238Z" fill="#E6E6E6"/>
<path opacity="0.74" d="M211.198 256.238H209.208V258.151H211.198V256.238Z" fill="#E6E6E6"/>
<path opacity="0.74" d="M214.408 256.238H212.418V258.151H214.408V256.238Z" fill="#CCCCCC"/>
<path opacity="0.74" d="M217.619 256.238H215.629V258.151H217.619V256.238Z" fill="#CCCCCC"/>
<path opacity="0.74" d="M220.834 256.238H218.844V258.151H220.834V256.238Z" fill="#B3B3B3"/>
<path opacity="0.74" d="M224.045 256.238H222.055V258.151H224.045V256.238Z" fill="#CCCCCC"/>
<path opacity="0.74" d="M227.256 256.238H225.266V258.151H227.256V256.238Z" fill="white"/>
<path opacity="0.74" d="M230.466 256.238H228.476V258.151H230.466V256.238Z" fill="white"/>
<path opacity="0.74" d="M233.685 256.238H231.694V258.151H233.685V256.238Z" fill="#CCCCCC"/>
<path opacity="0.74" d="M201.561 259.011H199.57V260.925H201.561V259.011Z" fill="#B3B3B3"/>
<path opacity="0.74" d="M204.772 259.011H202.781V260.925H204.772V259.011Z" fill="#E6E6E6"/>
<path opacity="0.74" d="M207.988 259.011H205.997V260.925H207.988V259.011Z" fill="#E6E6E6"/>
<path opacity="0.74" d="M211.198 259.011H209.208V260.925H211.198V259.011Z" fill="#CCCCCC"/>
<path opacity="0.74" d="M214.408 259.011H212.418V260.925H214.408V259.011Z" fill="#E6E6E6"/>
<path opacity="0.74" d="M217.619 259.011H215.629V260.925H217.619V259.011Z" fill="#B3B3B3"/>
<path opacity="0.74" d="M220.834 259.011H218.844V260.925H220.834V259.011Z" fill="#CCCCCC"/>
<path opacity="0.74" d="M224.045 259.011H222.055V260.925H224.045V259.011Z" fill="#B3B3B3"/>
<path opacity="0.74" d="M227.256 259.011H225.266V260.925H227.256V259.011Z" fill="white"/>
<path opacity="0.74" d="M230.466 259.011H228.476V260.925H230.466V259.011Z" fill="white"/>
<path opacity="0.74" d="M233.685 259.011H231.694V260.925H233.685V259.011Z" fill="#CCCCCC"/>
<path opacity="0.74" d="M201.561 261.78H199.57V263.693H201.561V261.78Z" fill="#E6E6E6"/>
<path opacity="0.74" d="M204.772 261.78H202.781V263.693H204.772V261.78Z" fill="#E6E6E6"/>
<path opacity="0.74" d="M207.988 261.78H205.997V263.693H207.988V261.78Z" fill="#CCCCCC"/>
<path opacity="0.74" d="M211.198 261.78H209.208V263.693H211.198V261.78Z" fill="white"/>
<path opacity="0.74" d="M214.408 261.78H212.418V263.693H214.408V261.78Z" fill="#B3B3B3"/>
<path opacity="0.74" d="M217.619 261.78H215.629V263.693H217.619V261.78Z" fill="white"/>
<path opacity="0.74" d="M220.834 261.78H218.844V263.693H220.834V261.78Z" fill="#CCCCCC"/>
<path opacity="0.74" d="M224.045 261.78H222.055V263.693H224.045V261.78Z" fill="#E6E6E6"/>
<path opacity="0.74" d="M227.256 261.78H225.266V263.693H227.256V261.78Z" fill="#B3B3B3"/>
<path opacity="0.74" d="M230.466 261.78H228.476V263.693H230.466V261.78Z" fill="#CCCCCC"/>
<path opacity="0.74" d="M233.685 261.78H231.694V263.693H233.685V261.78Z" fill="#B3B3B3"/>
<path opacity="0.74" d="M201.561 264.554H199.57V266.467H201.561V264.554Z" fill="#CCCCCC"/>
<path opacity="0.74" d="M204.772 264.554H202.781V266.467H204.772V264.554Z" fill="#B3B3B3"/>
<path opacity="0.74" d="M207.988 264.554H205.997V266.467H207.988V264.554Z" fill="#E6E6E6"/>
<path opacity="0.74" d="M211.198 264.554H209.208V266.467H211.198V264.554Z" fill="#CCCCCC"/>
<path opacity="0.74" d="M214.408 264.554H212.418V266.467H214.408V264.554Z" fill="#E6E6E6"/>
<path opacity="0.74" d="M217.619 264.554H215.629V266.467H217.619V264.554Z" fill="#F2F2F2"/>
<path opacity="0.74" d="M220.834 264.554H218.844V266.467H220.834V264.554Z" fill="#B3B3B3"/>
<path opacity="0.74" d="M224.045 264.554H222.055V266.467H224.045V264.554Z" fill="#CCCCCC"/>
<path opacity="0.74" d="M227.256 264.554H225.266V266.467H227.256V264.554Z" fill="#E6E6E6"/>
<path opacity="0.74" d="M230.466 264.554H228.476V266.467H230.466V264.554Z" fill="#CCCCCC"/>
<path opacity="0.74" d="M233.685 264.554H231.694V266.467H233.685V264.554Z" fill="#E6E6E6"/>
<path opacity="0.74" d="M201.561 267.327H199.57V269.24H201.561V267.327Z" fill="#CCCCCC"/>
<path opacity="0.74" d="M204.772 267.327H202.781V269.24H204.772V267.327Z" fill="#E6E6E6"/>
<path opacity="0.74" d="M207.988 267.327H205.997V269.24H207.988V267.327Z" fill="white"/>
<path opacity="0.74" d="M211.198 267.327H209.208V269.24H211.198V267.327Z" fill="#CCCCCC"/>
<path opacity="0.74" d="M214.408 267.327H212.418V269.24H214.408V267.327Z" fill="#CCCCCC"/>
<path opacity="0.74" d="M217.619 267.327H215.629V269.24H217.619V267.327Z" fill="#E6E6E6"/>
<path opacity="0.74" d="M220.834 267.327H218.844V269.24H220.834V267.327Z" fill="#B3B3B3"/>
<path opacity="0.74" d="M224.045 267.327H222.055V269.24H224.045V267.327Z" fill="#CCCCCC"/>
<path opacity="0.74" d="M227.256 267.327H225.266V269.24H227.256V267.327Z" fill="#B3B3B3"/>
<path opacity="0.74" d="M230.466 267.327H228.476V269.24H230.466V267.327Z" fill="#B3B3B3"/>
<path opacity="0.74" d="M233.685 267.327H231.694V269.24H233.685V267.327Z" fill="#B3B3B3"/>
<path opacity="0.74" d="M201.561 270.096H199.57V272.009H201.561V270.096Z" fill="#B3B3B3"/>
<path opacity="0.74" d="M204.772 270.096H202.781V272.009H204.772V270.096Z" fill="white"/>
<path opacity="0.74" d="M207.988 270.096H205.997V272.009H207.988V270.096Z" fill="#E6E6E6"/>
<path opacity="0.74" d="M211.198 270.096H209.208V272.009H211.198V270.096Z" fill="#B3B3B3"/>
<path opacity="0.74" d="M214.408 270.096H212.418V272.009H214.408V270.096Z" fill="#CCCCCC"/>
<path opacity="0.74" d="M217.619 270.096H215.629V272.009H217.619V270.096Z" fill="#E6E6E6"/>
<path opacity="0.74" d="M220.834 270.096H218.844V272.009H220.834V270.096Z" fill="white"/>
<path opacity="0.74" d="M224.045 270.096H222.055V272.009H224.045V270.096Z" fill="#F2F2F2"/>
<path opacity="0.74" d="M227.256 270.096H225.266V272.009H227.256V270.096Z" fill="#CCCCCC"/>
<path opacity="0.74" d="M230.466 270.096H228.476V272.009H230.466V270.096Z" fill="#CCCCCC"/>
<path opacity="0.74" d="M233.685 270.096H231.694V272.009H233.685V270.096Z" fill="#E6E6E6"/>
<path opacity="0.74" d="M201.561 272.87H199.57V274.783H201.561V272.87Z" fill="#B3B3B3"/>
<path opacity="0.74" d="M204.772 272.87H202.781V274.783H204.772V272.87Z" fill="#F2F2F2"/>
<path opacity="0.74" d="M207.988 272.87H205.997V274.783H207.988V272.87Z" fill="#B3B3B3"/>
<path opacity="0.74" d="M211.198 272.87H209.208V274.783H211.198V272.87Z" fill="#F2F2F2"/>
<path opacity="0.74" d="M214.408 272.87H212.418V274.783H214.408V272.87Z" fill="#E6E6E6"/>
<path opacity="0.74" d="M217.619 272.87H215.629V274.783H217.619V272.87Z" fill="#F2F2F2"/>
<path opacity="0.74" d="M220.834 272.87H218.844V274.783H220.834V272.87Z" fill="#E6E6E6"/>
<path opacity="0.74" d="M224.045 272.87H222.055V274.783H224.045V272.87Z" fill="#F2F2F2"/>
<path opacity="0.74" d="M227.256 272.87H225.266V274.783H227.256V272.87Z" fill="#CCCCCC"/>
<path opacity="0.74" d="M230.466 272.87H228.476V274.783H230.466V272.87Z" fill="#B3B3B3"/>
<path opacity="0.74" d="M233.685 272.87H231.694V274.783H233.685V272.87Z" fill="white"/>
<path opacity="0.74" d="M201.561 275.638H199.57V277.551H201.561V275.638Z" fill="#CCCCCC"/>
<path opacity="0.74" d="M204.772 275.638H202.781V277.551H204.772V275.638Z" fill="#B3B3B3"/>
<path opacity="0.74" d="M207.988 275.638H205.997V277.551H207.988V275.638Z" fill="#CCCCCC"/>
<path opacity="0.74" d="M211.198 275.638H209.208V277.551H211.198V275.638Z" fill="#CCCCCC"/>
<path opacity="0.74" d="M214.408 275.638H212.418V277.551H214.408V275.638Z" fill="#CCCCCC"/>
<path opacity="0.74" d="M217.619 275.638H215.629V277.551H217.619V275.638Z" fill="white"/>
<path opacity="0.74" d="M220.834 275.638H218.844V277.551H220.834V275.638Z" fill="#CCCCCC"/>
<path opacity="0.74" d="M224.045 275.638H222.055V277.551H224.045V275.638Z" fill="#E6E6E6"/>
<path opacity="0.74" d="M227.256 275.638H225.266V277.551H227.256V275.638Z" fill="#CCCCCC"/>
<path opacity="0.74" d="M230.466 275.638H228.476V277.551H230.466V275.638Z" fill="#E6E6E6"/>
<path opacity="0.74" d="M233.685 275.638H231.694V277.551H233.685V275.638Z" fill="#E6E6E6"/>
<path opacity="0.74" d="M201.561 278.412H199.57V280.325H201.561V278.412Z" fill="#CCCCCC"/>
<path opacity="0.74" d="M204.772 278.412H202.781V280.325H204.772V278.412Z" fill="#CCCCCC"/>
<path opacity="0.74" d="M207.988 278.412H205.997V280.325H207.988V278.412Z" fill="#CCCCCC"/>
<path opacity="0.74" d="M211.198 278.412H209.208V280.325H211.198V278.412Z" fill="white"/>
<path opacity="0.74" d="M214.408 278.412H212.418V280.325H214.408V278.412Z" fill="#E6E6E6"/>
<path opacity="0.74" d="M217.619 278.412H215.629V280.325H217.619V278.412Z" fill="#CCCCCC"/>
<path opacity="0.74" d="M220.834 278.412H218.844V280.325H220.834V278.412Z" fill="#E6E6E6"/>
<path opacity="0.74" d="M224.045 278.412H222.055V280.325H224.045V278.412Z" fill="#CCCCCC"/>
<path opacity="0.74" d="M227.256 278.412H225.266V280.325H227.256V278.412Z" fill="#B3B3B3"/>
<path opacity="0.74" d="M230.466 278.412H228.476V280.325H230.466V278.412Z" fill="#B3B3B3"/>
<path opacity="0.74" d="M233.685 278.412H231.694V280.325H233.685V278.412Z" fill="#CCCCCC"/>
<path opacity="0.74" d="M201.561 281.185H199.57V283.098H201.561V281.185Z" fill="#CCCCCC"/>
<path opacity="0.74" d="M204.772 281.185H202.781V283.098H204.772V281.185Z" fill="#E6E6E6"/>
<path opacity="0.74" d="M207.988 281.185H205.997V283.098H207.988V281.185Z" fill="#E6E6E6"/>
<path opacity="0.74" d="M211.198 281.185H209.208V283.098H211.198V281.185Z" fill="#CCCCCC"/>
<path opacity="0.74" d="M214.408 281.185H212.418V283.098H214.408V281.185Z" fill="#E6E6E6"/>
<path opacity="0.74" d="M217.619 281.185H215.629V283.098H217.619V281.185Z" fill="#F2F2F2"/>
<path opacity="0.74" d="M220.834 281.185H218.844V283.098H220.834V281.185Z" fill="#CCCCCC"/>
<path opacity="0.74" d="M224.045 281.185H222.055V283.098H224.045V281.185Z" fill="#CCCCCC"/>
<path opacity="0.74" d="M227.256 281.185H225.266V283.098H227.256V281.185Z" fill="#E6E6E6"/>
<path opacity="0.74" d="M230.466 281.185H228.476V283.098H230.466V281.185Z" fill="#CCCCCC"/>
<path opacity="0.74" d="M233.685 281.185H231.694V283.098H233.685V281.185Z" fill="#CCCCCC"/>
<path opacity="0.74" d="M201.561 283.954H199.57V285.867H201.561V283.954Z" fill="white"/>
<path opacity="0.74" d="M204.772 283.954H202.781V285.867H204.772V283.954Z" fill="#CCCCCC"/>
<path opacity="0.74" d="M207.988 283.954H205.997V285.867H207.988V283.954Z" fill="#E6E6E6"/>
<path opacity="0.74" d="M211.198 283.954H209.208V285.867H211.198V283.954Z" fill="#E6E6E6"/>
<path opacity="0.74" d="M214.408 283.954H212.418V285.867H214.408V283.954Z" fill="#B3B3B3"/>
<path opacity="0.74" d="M217.619 283.954H215.629V285.867H217.619V283.954Z" fill="#B3B3B3"/>
<path opacity="0.74" d="M220.834 283.954H218.844V285.867H220.834V283.954Z" fill="#E6E6E6"/>
<path opacity="0.74" d="M224.045 283.954H222.055V285.867H224.045V283.954Z" fill="#CCCCCC"/>
<path opacity="0.74" d="M227.256 283.954H225.266V285.867H227.256V283.954Z" fill="#B3B3B3"/>
<path opacity="0.74" d="M230.466 283.954H228.476V285.867H230.466V283.954Z" fill="#E6E6E6"/>
<path opacity="0.74" d="M233.685 283.954H231.694V285.867H233.685V283.954Z" fill="#CCCCCC"/>
<path opacity="0.74" d="M201.561 286.727H199.57V288.64H201.561V286.727Z" fill="#CCCCCC"/>
<path opacity="0.74" d="M204.772 286.727H202.781V288.64H204.772V286.727Z" fill="#CCCCCC"/>
<path opacity="0.74" d="M207.988 286.727H205.997V288.64H207.988V286.727Z" fill="#E6E6E6"/>
<path opacity="0.74" d="M211.198 286.727H209.208V288.64H211.198V286.727Z" fill="#E6E6E6"/>
<path opacity="0.74" d="M214.408 286.727H212.418V288.64H214.408V286.727Z" fill="#CCCCCC"/>
<path opacity="0.74" d="M217.619 286.727H215.629V288.64H217.619V286.727Z" fill="#E6E6E6"/>
<path opacity="0.74" d="M220.834 286.727H218.844V288.64H220.834V286.727Z" fill="#E6E6E6"/>
<path opacity="0.74" d="M224.045 286.727H222.055V288.64H224.045V286.727Z" fill="#F2F2F2"/>
<path opacity="0.74" d="M227.256 286.727H225.266V288.64H227.256V286.727Z" fill="#F2F2F2"/>
<path opacity="0.74" d="M230.466 286.727H228.476V288.64H230.466V286.727Z" fill="#B3B3B3"/>
<path opacity="0.74" d="M233.685 286.727H231.694V288.64H233.685V286.727Z" fill="#CCCCCC"/>
<path opacity="0.74" d="M201.561 289.496H199.57V291.409H201.561V289.496Z" fill="#CCCCCC"/>
<path opacity="0.74" d="M204.772 289.496H202.781V291.409H204.772V289.496Z" fill="white"/>
<path opacity="0.74" d="M207.988 289.496H205.997V291.409H207.988V289.496Z" fill="#CCCCCC"/>
<path opacity="0.74" d="M211.198 289.496H209.208V291.409H211.198V289.496Z" fill="#CCCCCC"/>
<path opacity="0.74" d="M214.408 289.496H212.418V291.409H214.408V289.496Z" fill="#B3B3B3"/>
<path opacity="0.74" d="M217.619 289.496H215.629V291.409H217.619V289.496Z" fill="#CCCCCC"/>
<path opacity="0.74" d="M220.834 289.496H218.844V291.409H220.834V289.496Z" fill="#CCCCCC"/>
<path opacity="0.74" d="M224.045 289.496H222.055V291.409H224.045V289.496Z" fill="#B3B3B3"/>
<path opacity="0.74" d="M227.256 289.496H225.266V291.409H227.256V289.496Z" fill="#CCCCCC"/>
<path opacity="0.74" d="M230.466 289.496H228.476V291.409H230.466V289.496Z" fill="#CCCCCC"/>
<path opacity="0.74" d="M233.685 289.496H231.694V291.409H233.685V289.496Z" fill="#E6E6E6"/>
</g>
<path d="M522.904 244.25H492.337V337.314H522.904V244.25Z" fill="url(#paint2_linear_1526_7990)"/>
<path d="M523.763 243.183H491.456V244.918H523.763V243.183Z" fill="#0D0030"/>
<path d="M521.879 240.972H493.372V249.201H521.879V240.972Z" fill="#0D0030"/>
<path d="M501.073 237.598L500.218 235.411H498.803V231.483H498.493H498.168V235.411H495.537V237.598V240.145V246.596H506.83V237.598H501.073Z" fill="#0D0030"/>
<path d="M499.068 230.93C499.075 230.854 499.066 230.777 499.041 230.704C499.015 230.631 498.974 230.564 498.92 230.507C498.866 230.45 498.801 230.404 498.727 230.373C498.654 230.342 498.575 230.326 498.495 230.326C498.415 230.326 498.336 230.342 498.263 230.373C498.189 230.404 498.124 230.45 498.07 230.507C498.016 230.564 497.975 230.631 497.95 230.704C497.924 230.777 497.915 230.854 497.922 230.93C497.92 231.003 497.934 231.076 497.962 231.143C497.989 231.211 498.031 231.272 498.085 231.324C498.138 231.376 498.201 231.416 498.272 231.444C498.342 231.471 498.417 231.485 498.493 231.483C498.568 231.484 498.643 231.47 498.713 231.442C498.784 231.415 498.847 231.374 498.901 231.323C498.954 231.271 498.997 231.21 499.025 231.143C499.054 231.075 499.068 231.003 499.068 230.93V230.93Z" fill="#0D0030"/>
<g opacity="0.56">
<path opacity="0.56" d="M496.481 245.779H495.011V247.192H496.481V245.779Z" fill="#E6E6E6"/>
<path opacity="0.56" d="M498.857 245.779H497.387V247.192H498.857V245.779Z" fill="white"/>
<path opacity="0.56" d="M501.232 245.779H499.762V247.192H501.232V245.779Z" fill="#CCCCCC"/>
<path opacity="0.56" d="M503.608 245.779H502.138V247.192H503.608V245.779Z" fill="#F2F2F2"/>
<path opacity="0.56" d="M505.978 245.779H504.508V247.192H505.978V245.779Z" fill="#B3B3B3"/>
<path opacity="0.56" d="M508.353 245.779H506.883V247.192H508.353V245.779Z" fill="#CCCCCC"/>
<path opacity="0.56" d="M510.729 245.779H509.259V247.192H510.729V245.779Z" fill="#B3B3B3"/>
<path opacity="0.56" d="M513.105 245.779H511.635V247.192H513.105V245.779Z" fill="#B3B3B3"/>
<path opacity="0.56" d="M515.475 245.779H514.005V247.192H515.475V245.779Z" fill="#E6E6E6"/>
<path opacity="0.56" d="M517.85 245.779H516.38V247.192H517.85V245.779Z" fill="#CCCCCC"/>
<path opacity="0.56" d="M520.226 245.779H518.756V247.192H520.226V245.779Z" fill="#E6E6E6"/>
<path opacity="0.56" d="M496.481 247.826H495.011V249.239H496.481V247.826Z" fill="#F2F2F2"/>
<path opacity="0.56" d="M498.857 247.826H497.387V249.239H498.857V247.826Z" fill="#CCCCCC"/>
<path opacity="0.56" d="M501.232 247.826H499.762V249.239H501.232V247.826Z" fill="#F2F2F2"/>
<path opacity="0.56" d="M503.608 247.826H502.138V249.239H503.608V247.826Z" fill="#B3B3B3"/>
<path opacity="0.56" d="M505.978 247.826H504.508V249.239H505.978V247.826Z" fill="#F2F2F2"/>
<path opacity="0.56" d="M508.353 247.826H506.883V249.239H508.353V247.826Z" fill="white"/>
<path opacity="0.56" d="M510.729 247.826H509.259V249.239H510.729V247.826Z" fill="#CCCCCC"/>
<path opacity="0.56" d="M513.105 247.826H511.635V249.239H513.105V247.826Z" fill="#B3B3B3"/>
<path opacity="0.56" d="M515.475 247.826H514.005V249.239H515.475V247.826Z" fill="#F2F2F2"/>
<path opacity="0.56" d="M517.85 247.826H516.38V249.239H517.85V247.826Z" fill="white"/>
<path opacity="0.56" d="M520.226 247.826H518.756V249.239H520.226V247.826Z" fill="white"/>
<path opacity="0.56" d="M496.481 249.879H495.011V251.292H496.481V249.879Z" fill="#CCCCCC"/>
<path opacity="0.56" d="M498.857 249.879H497.387V251.292H498.857V249.879Z" fill="white"/>
<path opacity="0.56" d="M501.232 249.879H499.762V251.292H501.232V249.879Z" fill="#B3B3B3"/>
<path opacity="0.56" d="M503.608 249.879H502.138V251.292H503.608V249.879Z" fill="white"/>
<path opacity="0.56" d="M505.978 249.879H504.508V251.292H505.978V249.879Z" fill="#E6E6E6"/>
<path opacity="0.56" d="M508.353 249.879H506.883V251.292H508.353V249.879Z" fill="white"/>
<path opacity="0.56" d="M510.729 249.879H509.259V251.292H510.729V249.879Z" fill="#E6E6E6"/>
<path opacity="0.56" d="M513.105 249.879H511.635V251.292H513.105V249.879Z" fill="#E6E6E6"/>
<path opacity="0.56" d="M515.475 249.879H514.005V251.292H515.475V249.879Z" fill="white"/>
<path opacity="0.56" d="M517.85 249.879H516.38V251.292H517.85V249.879Z" fill="#CCCCCC"/>
<path opacity="0.56" d="M520.226 249.879H518.756V251.292H520.226V249.879Z" fill="#B3B3B3"/>
<path opacity="0.56" d="M496.481 251.927H495.011V253.34H496.481V251.927Z" fill="#B3B3B3"/>
<path opacity="0.56" d="M498.857 251.927H497.387V253.34H498.857V251.927Z" fill="#CCCCCC"/>
<path opacity="0.56" d="M501.232 251.927H499.762V253.34H501.232V251.927Z" fill="white"/>
<path opacity="0.56" d="M503.608 251.927H502.138V253.34H503.608V251.927Z" fill="#B3B3B3"/>
<path opacity="0.56" d="M505.978 251.927H504.508V253.34H505.978V251.927Z" fill="#CCCCCC"/>
<path opacity="0.56" d="M508.353 251.927H506.883V253.34H508.353V251.927Z" fill="#E6E6E6"/>
<path opacity="0.56" d="M510.729 251.927H509.259V253.34H510.729V251.927Z" fill="#CCCCCC"/>
<path opacity="0.56" d="M513.105 251.927H511.635V253.34H513.105V251.927Z" fill="#E6E6E6"/>
<path opacity="0.56" d="M515.475 251.927H514.005V253.34H515.475V251.927Z" fill="#B3B3B3"/>
<path opacity="0.56" d="M517.85 251.927H516.38V253.34H517.85V251.927Z" fill="#E6E6E6"/>
<path opacity="0.56" d="M520.226 251.927H518.756V253.34H520.226V251.927Z" fill="#F2F2F2"/>
<path opacity="0.56" d="M496.481 253.974H495.011V255.388H496.481V253.974Z" fill="#CCCCCC"/>
<path opacity="0.56" d="M498.857 253.974H497.387V255.388H498.857V253.974Z" fill="#CCCCCC"/>
<path opacity="0.56" d="M501.232 253.974H499.762V255.388H501.232V253.974Z" fill="#E6E6E6"/>
<path opacity="0.56" d="M503.608 253.974H502.138V255.388H503.608V253.974Z" fill="#CCCCCC"/>
<path opacity="0.56" d="M505.978 253.974H504.508V255.388H505.978V253.974Z" fill="#E6E6E6"/>
<path opacity="0.56" d="M508.353 253.974H506.883V255.388H508.353V253.974Z" fill="#CCCCCC"/>
<path opacity="0.56" d="M510.729 253.974H509.259V255.388H510.729V253.974Z" fill="white"/>
<path opacity="0.56" d="M513.105 253.974H511.635V255.388H513.105V253.974Z" fill="#B3B3B3"/>
<path opacity="0.56" d="M515.475 253.974H514.005V255.388H515.475V253.974Z" fill="#B3B3B3"/>
<path opacity="0.56" d="M517.85 253.974H516.38V255.388H517.85V253.974Z" fill="#CCCCCC"/>
<path opacity="0.56" d="M520.226 253.974H518.756V255.388H520.226V253.974Z" fill="white"/>
<path opacity="0.56" d="M496.481 256.022H495.011V257.435H496.481V256.022Z" fill="#B3B3B3"/>
<path opacity="0.56" d="M498.857 256.022H497.387V257.435H498.857V256.022Z" fill="#E6E6E6"/>
<path opacity="0.56" d="M501.232 256.022H499.762V257.435H501.232V256.022Z" fill="#CCCCCC"/>
<path opacity="0.56" d="M503.608 256.022H502.138V257.435H503.608V256.022Z" fill="#B3B3B3"/>
<path opacity="0.56" d="M505.978 256.022H504.508V257.435H505.978V256.022Z" fill="#B3B3B3"/>
<path opacity="0.56" d="M508.353 256.022H506.883V257.435H508.353V256.022Z" fill="#CCCCCC"/>
<path opacity="0.56" d="M510.729 256.022H509.259V257.435H510.729V256.022Z" fill="#CCCCCC"/>
<path opacity="0.56" d="M513.105 256.022H511.635V257.435H513.105V256.022Z" fill="white"/>
<path opacity="0.56" d="M515.475 256.022H514.005V257.435H515.475V256.022Z" fill="#F2F2F2"/>
<path opacity="0.56" d="M517.85 256.022H516.38V257.435H517.85V256.022Z" fill="#CCCCCC"/>
<path opacity="0.56" d="M520.226 256.022H518.756V257.435H520.226V256.022Z" fill="#E6E6E6"/>
<path opacity="0.56" d="M496.481 258.07H495.011V259.483H496.481V258.07Z" fill="#B3B3B3"/>
<path opacity="0.56" d="M498.857 258.07H497.387V259.483H498.857V258.07Z" fill="white"/>
<path opacity="0.56" d="M501.232 258.07H499.762V259.483H501.232V258.07Z" fill="#B3B3B3"/>
<path opacity="0.56" d="M503.608 258.07H502.138V259.483H503.608V258.07Z" fill="#E6E6E6"/>
<path opacity="0.56" d="M505.978 258.07H504.508V259.483H505.978V258.07Z" fill="#E6E6E6"/>
<path opacity="0.56" d="M508.353 258.07H506.883V259.483H508.353V258.07Z" fill="#B3B3B3"/>
<path opacity="0.56" d="M510.729 258.07H509.259V259.483H510.729V258.07Z" fill="#CCCCCC"/>
<path opacity="0.56" d="M513.105 258.07H511.635V259.483H513.105V258.07Z" fill="#CCCCCC"/>
<path opacity="0.56" d="M515.475 258.07H514.005V259.483H515.475V258.07Z" fill="#B3B3B3"/>
<path opacity="0.56" d="M517.85 258.07H516.38V259.483H517.85V258.07Z" fill="#CCCCCC"/>
<path opacity="0.56" d="M520.226 258.07H518.756V259.483H520.226V258.07Z" fill="#B3B3B3"/>
<path opacity="0.56" d="M496.481 260.122H495.011V261.535H496.481V260.122Z" fill="#F2F2F2"/>
<path opacity="0.56" d="M498.857 260.122H497.387V261.535H498.857V260.122Z" fill="#F2F2F2"/>
<path opacity="0.56" d="M501.232 260.122H499.762V261.535H501.232V260.122Z" fill="#E6E6E6"/>
<path opacity="0.56" d="M503.608 260.122H502.138V261.535H503.608V260.122Z" fill="white"/>
<path opacity="0.56" d="M505.978 260.122H504.508V261.535H505.978V260.122Z" fill="#CCCCCC"/>
<path opacity="0.56" d="M508.353 260.122H506.883V261.535H508.353V260.122Z" fill="#F2F2F2"/>
<path opacity="0.56" d="M510.729 260.122H509.259V261.535H510.729V260.122Z" fill="#E6E6E6"/>
<path opacity="0.56" d="M513.105 260.122H511.635V261.535H513.105V260.122Z" fill="#E6E6E6"/>
<path opacity="0.56" d="M515.475 260.122H514.005V261.535H515.475V260.122Z" fill="#B3B3B3"/>
<path opacity="0.56" d="M517.85 260.122H516.38V261.535H517.85V260.122Z" fill="#CCCCCC"/>
<path opacity="0.56" d="M520.226 260.122H518.756V261.535H520.226V260.122Z" fill="#E6E6E6"/>
<path opacity="0.56" d="M496.481 262.17H495.011V263.583H496.481V262.17Z" fill="#E6E6E6"/>
<path opacity="0.56" d="M498.857 262.17H497.387V263.583H498.857V262.17Z" fill="#CCCCCC"/>
<path opacity="0.56" d="M501.232 262.17H499.762V263.583H501.232V262.17Z" fill="white"/>
<path opacity="0.56" d="M503.608 262.17H502.138V263.583H503.608V262.17Z" fill="#F2F2F2"/>
<path opacity="0.56" d="M505.978 262.17H504.508V263.583H505.978V262.17Z" fill="#F2F2F2"/>
<path opacity="0.56" d="M508.353 262.17H506.883V263.583H508.353V262.17Z" fill="#F2F2F2"/>
<path opacity="0.56" d="M510.729 262.17H509.259V263.583H510.729V262.17Z" fill="#CCCCCC"/>
<path opacity="0.56" d="M513.105 262.17H511.635V263.583H513.105V262.17Z" fill="#F2F2F2"/>
<path opacity="0.56" d="M515.475 262.17H514.005V263.583H515.475V262.17Z" fill="#F2F2F2"/>
<path opacity="0.56" d="M517.85 262.17H516.38V263.583H517.85V262.17Z" fill="#F2F2F2"/>
<path opacity="0.56" d="M520.226 262.17H518.756V263.583H520.226V262.17Z" fill="#E6E6E6"/>
<path opacity="0.56" d="M496.481 264.217H495.011V265.63H496.481V264.217Z" fill="#E6E6E6"/>
<path opacity="0.56" d="M498.857 264.217H497.387V265.63H498.857V264.217Z" fill="#CCCCCC"/>
<path opacity="0.56" d="M501.232 264.217H499.762V265.63H501.232V264.217Z" fill="#E6E6E6"/>
<path opacity="0.56" d="M503.608 264.217H502.138V265.63H503.608V264.217Z" fill="#F2F2F2"/>
<path opacity="0.56" d="M505.978 264.217H504.508V265.63H505.978V264.217Z" fill="#CCCCCC"/>
<path opacity="0.56" d="M508.353 264.217H506.883V265.63H508.353V264.217Z" fill="#CCCCCC"/>
<path opacity="0.56" d="M510.729 264.217H509.259V265.63H510.729V264.217Z" fill="white"/>
<path opacity="0.56" d="M513.105 264.217H511.635V265.63H513.105V264.217Z" fill="#E6E6E6"/>
<path opacity="0.56" d="M515.475 264.217H514.005V265.63H515.475V264.217Z" fill="#B3B3B3"/>
<path opacity="0.56" d="M517.85 264.217H516.38V265.63H517.85V264.217Z" fill="#E6E6E6"/>
<path opacity="0.56" d="M520.226 264.217H518.756V265.63H520.226V264.217Z" fill="#CCCCCC"/>
<path opacity="0.56" d="M496.481 266.265H495.011V267.678H496.481V266.265Z" fill="#CCCCCC"/>
<path opacity="0.56" d="M498.857 266.265H497.387V267.678H498.857V266.265Z" fill="#CCCCCC"/>
<path opacity="0.56" d="M501.232 266.265H499.762V267.678H501.232V266.265Z" fill="white"/>
<path opacity="0.56" d="M503.608 266.265H502.138V267.678H503.608V266.265Z" fill="#F2F2F2"/>
<path opacity="0.56" d="M505.978 266.265H504.508V267.678H505.978V266.265Z" fill="#B3B3B3"/>
<path opacity="0.56" d="M508.353 266.265H506.883V267.678H508.353V266.265Z" fill="white"/>
<path opacity="0.56" d="M510.729 266.265H509.259V267.678H510.729V266.265Z" fill="#E6E6E6"/>
<path opacity="0.56" d="M513.105 266.265H511.635V267.678H513.105V266.265Z" fill="#CCCCCC"/>
<path opacity="0.56" d="M515.475 266.265H514.005V267.678H515.475V266.265Z" fill="#CCCCCC"/>
<path opacity="0.56" d="M517.85 266.265H516.38V267.678H517.85V266.265Z" fill="#B3B3B3"/>
<path opacity="0.56" d="M520.226 266.265H518.756V267.678H520.226V266.265Z" fill="#B3B3B3"/>
<path opacity="0.56" d="M496.481 268.313H495.011V269.726H496.481V268.313Z" fill="#CCCCCC"/>
<path opacity="0.56" d="M498.857 268.313H497.387V269.726H498.857V268.313Z" fill="white"/>
<path opacity="0.56" d="M501.232 268.313H499.762V269.726H501.232V268.313Z" fill="#E6E6E6"/>
<path opacity="0.56" d="M503.608 268.313H502.138V269.726H503.608V268.313Z" fill="#B3B3B3"/>
<path opacity="0.56" d="M505.978 268.313H504.508V269.726H505.978V268.313Z" fill="#F2F2F2"/>
<path opacity="0.56" d="M508.353 268.313H506.883V269.726H508.353V268.313Z" fill="white"/>
<path opacity="0.56" d="M510.729 268.313H509.259V269.726H510.729V268.313Z" fill="#CCCCCC"/>
<path opacity="0.56" d="M513.105 268.313H511.635V269.726H513.105V268.313Z" fill="#CCCCCC"/>
<path opacity="0.56" d="M515.475 268.313H514.005V269.726H515.475V268.313Z" fill="#E6E6E6"/>
<path opacity="0.56" d="M517.85 268.313H516.38V269.726H517.85V268.313Z" fill="#CCCCCC"/>
<path opacity="0.56" d="M520.226 268.313H518.756V269.726H520.226V268.313Z" fill="#CCCCCC"/>
<path opacity="0.56" d="M496.481 270.36H495.011V271.773H496.481V270.36Z" fill="#B3B3B3"/>
<path opacity="0.56" d="M498.857 270.36H497.387V271.773H498.857V270.36Z" fill="#E6E6E6"/>
<path opacity="0.56" d="M501.232 270.36H499.762V271.773H501.232V270.36Z" fill="#E6E6E6"/>
<path opacity="0.56" d="M503.608 270.36H502.138V271.773H503.608V270.36Z" fill="#E6E6E6"/>
<path opacity="0.56" d="M505.978 270.36H504.508V271.773H505.978V270.36Z" fill="#CCCCCC"/>
<path opacity="0.56" d="M508.353 270.36H506.883V271.773H508.353V270.36Z" fill="#CCCCCC"/>
<path opacity="0.56" d="M510.729 270.36H509.259V271.773H510.729V270.36Z" fill="#B3B3B3"/>
<path opacity="0.56" d="M513.105 270.36H511.635V271.773H513.105V270.36Z" fill="#CCCCCC"/>
<path opacity="0.56" d="M515.475 270.36H514.005V271.773H515.475V270.36Z" fill="white"/>
<path opacity="0.56" d="M517.85 270.36H516.38V271.773H517.85V270.36Z" fill="white"/>
<path opacity="0.56" d="M520.226 270.36H518.756V271.773H520.226V270.36Z" fill="#CCCCCC"/>
<path opacity="0.56" d="M496.481 272.413H495.011V273.826H496.481V272.413Z" fill="#B3B3B3"/>
<path opacity="0.56" d="M498.857 272.413H497.387V273.826H498.857V272.413Z" fill="#E6E6E6"/>
<path opacity="0.56" d="M501.232 272.413H499.762V273.826H501.232V272.413Z" fill="#E6E6E6"/>
<path opacity="0.56" d="M503.608 272.413H502.138V273.826H503.608V272.413Z" fill="#CCCCCC"/>
<path opacity="0.56" d="M505.978 272.413H504.508V273.826H505.978V272.413Z" fill="#E6E6E6"/>
<path opacity="0.56" d="M508.353 272.413H506.883V273.826H508.353V272.413Z" fill="#B3B3B3"/>
<path opacity="0.56" d="M510.729 272.413H509.259V273.826H510.729V272.413Z" fill="#CCCCCC"/>
<path opacity="0.56" d="M513.105 272.413H511.635V273.826H513.105V272.413Z" fill="#B3B3B3"/>
<path opacity="0.56" d="M515.475 272.413H514.005V273.826H515.475V272.413Z" fill="white"/>
<path opacity="0.56" d="M517.85 272.413H516.38V273.826H517.85V272.413Z" fill="white"/>
<path opacity="0.56" d="M520.226 272.413H518.756V273.826H520.226V272.413Z" fill="#CCCCCC"/>
<path opacity="0.56" d="M496.481 274.46H495.011V275.874H496.481V274.46Z" fill="#E6E6E6"/>
<path opacity="0.56" d="M498.857 274.46H497.387V275.874H498.857V274.46Z" fill="#E6E6E6"/>
<path opacity="0.56" d="M501.232 274.46H499.762V275.874H501.232V274.46Z" fill="#CCCCCC"/>
<path opacity="0.56" d="M503.608 274.46H502.138V275.874H503.608V274.46Z" fill="white"/>
<path opacity="0.56" d="M505.978 274.46H504.508V275.874H505.978V274.46Z" fill="#B3B3B3"/>
<path opacity="0.56" d="M508.353 274.46H506.883V275.874H508.353V274.46Z" fill="white"/>
<path opacity="0.56" d="M510.729 274.46H509.259V275.874H510.729V274.46Z" fill="#CCCCCC"/>
<path opacity="0.56" d="M513.105 274.46H511.635V275.874H513.105V274.46Z" fill="#E6E6E6"/>
<path opacity="0.56" d="M515.475 274.46H514.005V275.874H515.475V274.46Z" fill="#B3B3B3"/>
<path opacity="0.56" d="M517.85 274.46H516.38V275.874H517.85V274.46Z" fill="#CCCCCC"/>
<path opacity="0.56" d="M520.226 274.46H518.756V275.874H520.226V274.46Z" fill="#B3B3B3"/>
<path opacity="0.56" d="M496.481 276.508H495.011V277.921H496.481V276.508Z" fill="#CCCCCC"/>
<path opacity="0.56" d="M498.857 276.508H497.387V277.921H498.857V276.508Z" fill="#B3B3B3"/>
<path opacity="0.56" d="M501.232 276.508H499.762V277.921H501.232V276.508Z" fill="#E6E6E6"/>
<path opacity="0.56" d="M503.608 276.508H502.138V277.921H503.608V276.508Z" fill="#CCCCCC"/>
<path opacity="0.56" d="M505.978 276.508H504.508V277.921H505.978V276.508Z" fill="#E6E6E6"/>
<path opacity="0.56" d="M508.353 276.508H506.883V277.921H508.353V276.508Z" fill="#F2F2F2"/>
<path opacity="0.56" d="M510.729 276.508H509.259V277.921H510.729V276.508Z" fill="#B3B3B3"/>
<path opacity="0.56" d="M513.105 276.508H511.635V277.921H513.105V276.508Z" fill="#CCCCCC"/>
<path opacity="0.56" d="M515.475 276.508H514.005V277.921H515.475V276.508Z" fill="#E6E6E6"/>
<path opacity="0.56" d="M517.85 276.508H516.38V277.921H517.85V276.508Z" fill="#CCCCCC"/>
<path opacity="0.56" d="M520.226 276.508H518.756V277.921H520.226V276.508Z" fill="#E6E6E6"/>
<path opacity="0.56" d="M496.481 278.556H495.011V279.969H496.481V278.556Z" fill="#CCCCCC"/>
<path opacity="0.56" d="M498.857 278.556H497.387V279.969H498.857V278.556Z" fill="#E6E6E6"/>
<path opacity="0.56" d="M501.232 278.556H499.762V279.969H501.232V278.556Z" fill="white"/>
<path opacity="0.56" d="M503.608 278.556H502.138V279.969H503.608V278.556Z" fill="#CCCCCC"/>
<path opacity="0.56" d="M505.978 278.556H504.508V279.969H505.978V278.556Z" fill="#CCCCCC"/>
<path opacity="0.56" d="M508.353 278.556H506.883V279.969H508.353V278.556Z" fill="#E6E6E6"/>
<path opacity="0.56" d="M510.729 278.556H509.259V279.969H510.729V278.556Z" fill="#B3B3B3"/>
<path opacity="0.56" d="M513.105 278.556H511.635V279.969H513.105V278.556Z" fill="#CCCCCC"/>
<path opacity="0.56" d="M515.475 278.556H514.005V279.969H515.475V278.556Z" fill="#B3B3B3"/>
<path opacity="0.56" d="M517.85 278.556H516.38V279.969H517.85V278.556Z" fill="#B3B3B3"/>
<path opacity="0.56" d="M520.226 278.556H518.756V279.969H520.226V278.556Z" fill="#B3B3B3"/>
<path opacity="0.56" d="M496.481 280.604H495.011V282.017H496.481V280.604Z" fill="#B3B3B3"/>
<path opacity="0.56" d="M498.857 280.604H497.387V282.017H498.857V280.604Z" fill="white"/>
<path opacity="0.56" d="M501.232 280.604H499.762V282.017H501.232V280.604Z" fill="#E6E6E6"/>
<path opacity="0.56" d="M503.608 280.604H502.138V282.017H503.608V280.604Z" fill="#B3B3B3"/>
<path opacity="0.56" d="M505.978 280.604H504.508V282.017H505.978V280.604Z" fill="#CCCCCC"/>
<path opacity="0.56" d="M508.353 280.604H506.883V282.017H508.353V280.604Z" fill="#E6E6E6"/>
<path opacity="0.56" d="M510.729 280.604H509.259V282.017H510.729V280.604Z" fill="white"/>
<path opacity="0.56" d="M513.105 280.604H511.635V282.017H513.105V280.604Z" fill="#F2F2F2"/>
<path opacity="0.56" d="M515.475 280.604H514.005V282.017H515.475V280.604Z" fill="#CCCCCC"/>
<path opacity="0.56" d="M517.85 280.604H516.38V282.017H517.85V280.604Z" fill="#CCCCCC"/>
<path opacity="0.56" d="M520.226 280.604H518.756V282.017H520.226V280.604Z" fill="#E6E6E6"/>
<path opacity="0.56" d="M496.481 282.656H495.011V284.069H496.481V282.656Z" fill="#B3B3B3"/>
<path opacity="0.56" d="M498.857 282.656H497.387V284.069H498.857V282.656Z" fill="#F2F2F2"/>
<path opacity="0.56" d="M501.232 282.656H499.762V284.069H501.232V282.656Z" fill="#B3B3B3"/>
<path opacity="0.56" d="M503.608 282.656H502.138V284.069H503.608V282.656Z" fill="#F2F2F2"/>
<path opacity="0.56" d="M505.978 282.656H504.508V284.069H505.978V282.656Z" fill="#E6E6E6"/>
<path opacity="0.56" d="M508.353 282.656H506.883V284.069H508.353V282.656Z" fill="#F2F2F2"/>
<path opacity="0.56" d="M510.729 282.656H509.259V284.069H510.729V282.656Z" fill="#E6E6E6"/>
<path opacity="0.56" d="M513.105 282.656H511.635V284.069H513.105V282.656Z" fill="#F2F2F2"/>
<path opacity="0.56" d="M515.475 282.656H514.005V284.069H515.475V282.656Z" fill="#CCCCCC"/>
<path opacity="0.56" d="M517.85 282.656H516.38V284.069H517.85V282.656Z" fill="#B3B3B3"/>
<path opacity="0.56" d="M520.226 282.656H518.756V284.069H520.226V282.656Z" fill="white"/>
<path opacity="0.56" d="M496.481 284.704H495.011V286.117H496.481V284.704Z" fill="#CCCCCC"/>
<path opacity="0.56" d="M498.857 284.704H497.387V286.117H498.857V284.704Z" fill="#B3B3B3"/>
<path opacity="0.56" d="M501.232 284.704H499.762V286.117H501.232V284.704Z" fill="#CCCCCC"/>
<path opacity="0.56" d="M503.608 284.704H502.138V286.117H503.608V284.704Z" fill="#CCCCCC"/>
<path opacity="0.56" d="M505.978 284.704H504.508V286.117H505.978V284.704Z" fill="#CCCCCC"/>
<path opacity="0.56" d="M508.353 284.704H506.883V286.117H508.353V284.704Z" fill="white"/>
<path opacity="0.56" d="M510.729 284.704H509.259V286.117H510.729V284.704Z" fill="#CCCCCC"/>
<path opacity="0.56" d="M513.105 284.704H511.635V286.117H513.105V284.704Z" fill="#E6E6E6"/>
<path opacity="0.56" d="M515.475 284.704H514.005V286.117H515.475V284.704Z" fill="#CCCCCC"/>
<path opacity="0.56" d="M517.85 284.704H516.38V286.117H517.85V284.704Z" fill="#E6E6E6"/>
<path opacity="0.56" d="M520.226 284.704H518.756V286.117H520.226V284.704Z" fill="#E6E6E6"/>
<path opacity="0.56" d="M496.481 286.751H495.011V288.165H496.481V286.751Z" fill="#CCCCCC"/>
<path opacity="0.56" d="M498.857 286.751H497.387V288.165H498.857V286.751Z" fill="#CCCCCC"/>
<path opacity="0.56" d="M501.232 286.751H499.762V288.165H501.232V286.751Z" fill="#CCCCCC"/>
<path opacity="0.56" d="M503.608 286.751H502.138V288.165H503.608V286.751Z" fill="white"/>
<path opacity="0.56" d="M505.978 286.751H504.508V288.165H505.978V286.751Z" fill="#E6E6E6"/>
<path opacity="0.56" d="M508.353 286.751H506.883V288.165H508.353V286.751Z" fill="#CCCCCC"/>
<path opacity="0.56" d="M510.729 286.751H509.259V288.165H510.729V286.751Z" fill="#E6E6E6"/>
<path opacity="0.56" d="M513.105 286.751H511.635V288.165H513.105V286.751Z" fill="#CCCCCC"/>
<path opacity="0.56" d="M515.475 286.751H514.005V288.165H515.475V286.751Z" fill="#B3B3B3"/>
<path opacity="0.56" d="M517.85 286.751H516.38V288.165H517.85V286.751Z" fill="#B3B3B3"/>
<path opacity="0.56" d="M520.226 286.751H518.756V288.165H520.226V286.751Z" fill="#CCCCCC"/>
<path opacity="0.56" d="M496.481 288.799H495.011V290.213H496.481V288.799Z" fill="#CCCCCC"/>
<path opacity="0.56" d="M498.857 288.799H497.387V290.213H498.857V288.799Z" fill="#E6E6E6"/>
<path opacity="0.56" d="M501.232 288.799H499.762V290.213H501.232V288.799Z" fill="#E6E6E6"/>
<path opacity="0.56" d="M503.608 288.799H502.138V290.213H503.608V288.799Z" fill="#CCCCCC"/>
<path opacity="0.56" d="M505.978 288.799H504.508V290.213H505.978V288.799Z" fill="#E6E6E6"/>
<path opacity="0.56" d="M508.353 288.799H506.883V290.213H508.353V288.799Z" fill="#F2F2F2"/>
<path opacity="0.56" d="M510.729 288.799H509.259V290.213H510.729V288.799Z" fill="#CCCCCC"/>
<path opacity="0.56" d="M513.105 288.799H511.635V290.213H513.105V288.799Z" fill="#CCCCCC"/>
<path opacity="0.56" d="M515.475 288.799H514.005V290.213H515.475V288.799Z" fill="#E6E6E6"/>
<path opacity="0.56" d="M517.85 288.799H516.38V290.213H517.85V288.799Z" fill="#CCCCCC"/>
<path opacity="0.56" d="M520.226 288.799H518.756V290.213H520.226V288.799Z" fill="#CCCCCC"/>
<path opacity="0.56" d="M496.481 290.847H495.011V292.26H496.481V290.847Z" fill="white"/>
<path opacity="0.56" d="M498.857 290.847H497.387V292.26H498.857V290.847Z" fill="#CCCCCC"/>
<path opacity="0.56" d="M501.232 290.847H499.762V292.26H501.232V290.847Z" fill="#E6E6E6"/>
<path opacity="0.56" d="M503.608 290.847H502.138V292.26H503.608V290.847Z" fill="#E6E6E6"/>
<path opacity="0.56" d="M505.978 290.847H504.508V292.26H505.978V290.847Z" fill="#B3B3B3"/>
<path opacity="0.56" d="M508.353 290.847H506.883V292.26H508.353V290.847Z" fill="#B3B3B3"/>
<path opacity="0.56" d="M510.729 290.847H509.259V292.26H510.729V290.847Z" fill="#E6E6E6"/>
<path opacity="0.56" d="M513.105 290.847H511.635V292.26H513.105V290.847Z" fill="#CCCCCC"/>
<path opacity="0.56" d="M515.475 290.847H514.005V292.26H515.475V290.847Z" fill="#B3B3B3"/>
<path opacity="0.56" d="M517.85 290.847H516.38V292.26H517.85V290.847Z" fill="#E6E6E6"/>
<path opacity="0.56" d="M520.226 290.847H518.756V292.26H520.226V290.847Z" fill="#CCCCCC"/>
<path opacity="0.56" d="M496.481 292.899H495.011V294.313H496.481V292.899Z" fill="#CCCCCC"/>
<path opacity="0.56" d="M498.857 292.899H497.387V294.313H498.857V292.899Z" fill="#CCCCCC"/>
<path opacity="0.56" d="M501.232 292.899H499.762V294.313H501.232V292.899Z" fill="#E6E6E6"/>
<path opacity="0.56" d="M503.608 292.899H502.138V294.313H503.608V292.899Z" fill="#E6E6E6"/>
<path opacity="0.56" d="M505.978 292.899H504.508V294.313H505.978V292.899Z" fill="#CCCCCC"/>
<path opacity="0.56" d="M508.353 292.899H506.883V294.313H508.353V292.899Z" fill="#E6E6E6"/>
<path opacity="0.56" d="M510.729 292.899H509.259V294.313H510.729V292.899Z" fill="#E6E6E6"/>
<path opacity="0.56" d="M513.105 292.899H511.635V294.313H513.105V292.899Z" fill="#F2F2F2"/>
<path opacity="0.56" d="M515.475 292.899H514.005V294.313H515.475V292.899Z" fill="#F2F2F2"/>
<path opacity="0.56" d="M517.85 292.899H516.38V294.313H517.85V292.899Z" fill="#B3B3B3"/>
<path opacity="0.56" d="M520.226 292.899H518.756V294.313H520.226V292.899Z" fill="#CCCCCC"/>
<path opacity="0.56" d="M496.481 294.947H495.011V296.36H496.481V294.947Z" fill="#CCCCCC"/>
<path opacity="0.56" d="M498.857 294.947H497.387V296.36H498.857V294.947Z" fill="white"/>
<path opacity="0.56" d="M501.232 294.947H499.762V296.36H501.232V294.947Z" fill="#CCCCCC"/>
<path opacity="0.56" d="M503.608 294.947H502.138V296.36H503.608V294.947Z" fill="#CCCCCC"/>
<path opacity="0.56" d="M505.978 294.947H504.508V296.36H505.978V294.947Z" fill="#B3B3B3"/>
<path opacity="0.56" d="M508.353 294.947H506.883V296.36H508.353V294.947Z" fill="#CCCCCC"/>
<path opacity="0.56" d="M510.729 294.947H509.259V296.36H510.729V294.947Z" fill="#CCCCCC"/>
<path opacity="0.56" d="M513.105 294.947H511.635V296.36H513.105V294.947Z" fill="#B3B3B3"/>
<path opacity="0.56" d="M515.475 294.947H514.005V296.36H515.475V294.947Z" fill="#CCCCCC"/>
<path opacity="0.56" d="M517.85 294.947H516.38V296.36H517.85V294.947Z" fill="#CCCCCC"/>
<path opacity="0.56" d="M520.226 294.947H518.756V296.36H520.226V294.947Z" fill="#E6E6E6"/>
</g>
<path d="M440.25 263.679V230.032H434.388V221.014H432.303V207.805H420.75V198.086H419.75V207.805H417.474V195.644H416.474V207.805H409.172V230.036H405.397V263.684H402.171V324.98H442.545V263.679H440.25Z" fill="#0D0030"/>
<path d="M413.879 224.677H413.344V320.048H413.879V224.677Z" fill="#C7DBD9"/>
<path d="M419.524 224.677H418.989V320.048H419.524V224.677Z" fill="#C7DBD9"/>
<path d="M425.152 224.677H424.597V320.048H425.132L425.152 224.677Z" fill="#C7DBD9"/>
<path d="M427.966 224.677H427.426V320.048H427.966V224.677Z" fill="#C7DBD9"/>
<path d="M430.776 224.677H430.241V320.048H430.776V224.677Z" fill="#C7DBD9"/>
<path d="M422.34 224.677H421.8V320.048H422.34V224.677Z" fill="#C7DBD9"/>
<path d="M416.714 224.677H416.174V320.048H416.714V224.677Z" fill="#C7DBD9"/>
<path d="M86.9902 232.343H83.0343V227.263H83.5644V226.445H79.9236V223.532H80.2437V222.898H78.6733V220.11H77.188H76.9479V210.232H76.7879H76.5778H76.3878V220.11H75.6726V214.597H75.5126H75.3275H75.1125V220.11H73.3871V222.898H71.5817V223.532H72.1418V226.445H68.526V227.263H69.0311V232.343H65.0752V233.184H65.6303V312.164H86.4301V233.184H86.9902V232.343Z" fill="#090223"/>
<path d="M77.0185 243.529H76.1934V245.24H77.0185V243.529Z" fill="#C7DBD9"/>
<path d="M79.9481 243.529H79.1279V245.24H79.9481V243.529Z" fill="#C7DBD9"/>
<path d="M83.4053 243.529H82.5801V245.24H83.4053V243.529Z" fill="#C7DBD9"/>
<path d="M70.5166 243.529H69.6914V245.24H70.5166V243.529Z" fill="#C7DBD9"/>
<path d="M73.4414 243.529H72.6162V245.24H73.4414V243.529Z" fill="#C7DBD9"/>
<path d="M77.0185 246.49H76.1934V248.201H77.0185V246.49Z" fill="#C7DBD9"/>
<path d="M79.9481 246.49H79.1279V248.201H79.9481V246.49Z" fill="#C7DBD9"/>
<path d="M83.4053 246.49H82.5801V248.201H83.4053V246.49Z" fill="#C7DBD9"/>
<path d="M70.5166 246.49H69.6914V248.201H70.5166V246.49Z" fill="#C7DBD9"/>
<path d="M73.4414 246.49H72.6162V248.201H73.4414V246.49Z" fill="#C7DBD9"/>
<path d="M77.0185 249.451H76.1934V251.162H77.0185V249.451Z" fill="#C7DBD9"/>
<path d="M79.9481 249.451H79.1279V251.162H79.9481V249.451Z" fill="#C7DBD9"/>
<path d="M83.4053 249.451H82.5801V251.162H83.4053V249.451Z" fill="#C7DBD9"/>
<path d="M70.5166 249.451H69.6914V251.162H70.5166V249.451Z" fill="#C7DBD9"/>
<path d="M73.4414 249.451H72.6162V251.162H73.4414V249.451Z" fill="#C7DBD9"/>
<path d="M76.9482 252.417H76.123V254.123H76.9482V252.417Z" fill="#C7DBD9"/>
<path d="M79.8994 252.417H79.0742V254.123H79.8994V252.417Z" fill="#C7DBD9"/>
<path d="M83.3247 252.417H82.5195V254.123H83.3447L83.3247 252.417Z" fill="#C7DBD9"/>
<path d="M70.4414 252.417H69.6162V254.123H70.4414V252.417Z" fill="#C7DBD9"/>
<path d="M73.3628 252.417H72.5176V254.123H73.3428L73.3628 252.417Z" fill="#C7DBD9"/>
<path d="M76.9482 255.377H76.123V257.089H76.9482V255.377Z" fill="#C7DBD9"/>
<path d="M79.8994 255.377H79.0742V257.089H79.8994V255.377Z" fill="#C7DBD9"/>
<path d="M83.3247 255.377H82.5195V257.089H83.3447L83.3247 255.377Z" fill="#C7DBD9"/>
<path d="M70.4414 255.377H69.6162V257.089H70.4414V255.377Z" fill="#C7DBD9"/>
<path d="M73.3628 255.377H72.5176V257.089H73.3428L73.3628 255.377Z" fill="#C7DBD9"/>
<path d="M76.9482 258.338H76.123V260.054H76.9482V258.338Z" fill="#C7DBD9"/>
<path d="M79.8994 258.338H79.0742V260.054H79.8994V258.338Z" fill="#C7DBD9"/>
<path d="M83.3247 258.338H82.5195V260.054H83.3447L83.3247 258.338Z" fill="#C7DBD9"/>
<path d="M73.3628 258.338H72.5176V260.054H73.3428L73.3628 258.338Z" fill="#C7DBD9"/>
<path d="M70.4414 258.338H69.6162V260.054H70.4414V258.338Z" fill="#C7DBD9"/>
<path d="M379.907 270.562V250.489H370.404V245.096H367.014V237.17H348.214V231.401H346.579V237.17H342.878V229.906H341.203V237.17H329.35V250.489H323.224V270.562H317.978V319.908H383.612V270.562H379.907Z" fill="#00000F"/>
<path d="M332.442 254.474H331.441V259.165H332.442V254.474Z" fill="#C7DBD9"/>
<path d="M335.917 254.474H334.917V259.165H335.917V254.474Z" fill="#C7DBD9"/>
<path d="M339.354 254.474H338.354V259.165H339.354V254.474Z" fill="#C7DBD9"/>
<path d="M342.829 254.474H341.829V259.165H342.829V254.474Z" fill="#C7DBD9"/>
<path d="M346.26 254.474H345.26V259.165H346.26V254.474Z" fill="#C7DBD9"/>
<path d="M349.737 254.474H348.736V259.165H349.737V254.474Z" fill="#C7DBD9"/>
<path d="M353.166 254.474H352.166V259.165H353.166V254.474Z" fill="#C7DBD9"/>
<path d="M356.642 254.474H355.642V259.165H356.642V254.474Z" fill="#C7DBD9"/>
<path d="M360.083 254.474H359.083V259.165H360.083V254.474Z" fill="#C7DBD9"/>
<path d="M363.554 254.474H362.554V259.165H363.554V254.474Z" fill="#C7DBD9"/>
<path d="M366.985 254.474H365.984V259.165H366.985V254.474Z" fill="#C7DBD9"/>
<path d="M332.442 261.016H331.441V265.707H332.442V261.016Z" fill="#C7DBD9"/>
<path d="M335.917 261.016H334.917V265.707H335.917V261.016Z" fill="#C7DBD9"/>
<path d="M339.354 261.016H338.354V265.707H339.354V261.016Z" fill="#C7DBD9"/>
<path d="M342.829 261.016H341.829V265.707H342.829V261.016Z" fill="#C7DBD9"/>
<path d="M346.26 261.016H345.26V265.707H346.26V261.016Z" fill="#C7DBD9"/>
<path d="M349.737 261.016H348.736V265.707H349.737V261.016Z" fill="#C7DBD9"/>
<path d="M353.166 261.016H352.166V265.707H353.166V261.016Z" fill="#C7DBD9"/>
<path d="M356.642 261.016H355.642V265.707H356.642V261.016Z" fill="#C7DBD9"/>
<path d="M360.083 261.016H359.083V265.707H360.083V261.016Z" fill="#C7DBD9"/>
<path d="M363.554 261.016H362.554V265.707H363.554V261.016Z" fill="#C7DBD9"/>
<path d="M366.985 261.016H365.984V265.707H366.985V261.016Z" fill="#C7DBD9"/>
<path d="M332.442 267.572H331.441V272.268H332.442V267.572Z" fill="#C7DBD9"/>
<path d="M335.917 267.572H334.917V272.268H335.917V267.572Z" fill="#C7DBD9"/>
<path d="M339.354 267.572H338.354V272.268H339.354V267.572Z" fill="#C7DBD9"/>
<path d="M342.829 267.572H341.829V272.268H342.829V267.572Z" fill="#C7DBD9"/>
<path d="M346.26 267.572H345.26V272.268H346.26V267.572Z" fill="#C7DBD9"/>
<path d="M349.737 267.572H348.736V272.268H349.737V267.572Z" fill="#C7DBD9"/>
<path d="M353.166 267.572H352.166V272.268H353.166V267.572Z" fill="#C7DBD9"/>
<path d="M356.642 267.572H355.642V272.268H356.642V267.572Z" fill="#C7DBD9"/>
<path d="M360.083 267.572H359.083V272.268H360.083V267.572Z" fill="#C7DBD9"/>
<path d="M363.554 267.572H362.554V272.268H363.554V267.572Z" fill="#C7DBD9"/>
<path d="M366.985 267.572H365.984V272.268H366.985V267.572Z" fill="#C7DBD9"/>
<path d="M342.829 274.124H341.829V278.801H342.829V274.124Z" fill="#C7DBD9"/>
<path d="M346.26 274.124H345.26V278.801H346.26V274.124Z" fill="#C7DBD9"/>
<path d="M349.737 274.124H348.736V278.801H349.737V274.124Z" fill="#C7DBD9"/>
<path d="M353.166 274.124H352.166V278.801H353.166V274.124Z" fill="#C7DBD9"/>
<path d="M356.642 274.124H355.642V278.801H356.642V274.124Z" fill="#C7DBD9"/>
<path d="M360.083 274.124H359.083V278.801H360.083V274.124Z" fill="#C7DBD9"/>
<path d="M363.554 274.124H362.554V278.801H363.554V274.124Z" fill="#C7DBD9"/>
<path d="M366.985 274.124H365.984V278.801H366.985V274.124Z" fill="#C7DBD9"/>
<path d="M346.26 281.041H345.26V285.732H346.26V281.041Z" fill="#C7DBD9"/>
<path d="M349.737 281.041H348.736V285.732H349.737V281.041Z" fill="#C7DBD9"/>
<path d="M353.166 281.041H352.166V285.732H353.166V281.041Z" fill="#C7DBD9"/>
<path d="M356.642 281.041H355.642V285.732H356.642V281.041Z" fill="#C7DBD9"/>
<path d="M360.083 281.041H359.083V285.732H360.083V281.041Z" fill="#C7DBD9"/>
<path d="M363.554 281.041H362.554V285.732H363.554V281.041Z" fill="#C7DBD9"/>
<path d="M366.985 281.041H365.984V285.732H366.985V281.041Z" fill="#C7DBD9"/>
<path d="M165.418 266.144V241.308H154.97V234.612H151.244V224.792H130.64V217.635H128.849V224.792H124.783V215.798H122.948V224.792H109.945V241.308H103.208V266.168H97.4521V311.535H169.469V266.144H165.418Z" fill="url(#paint3_linear_1526_7990)"/>
<path d="M132.677 247.465H130.451V251.465H132.677V247.465Z" fill="#C7DBD9"/>
<path d="M140.483 247.465H138.253V251.465H140.483V247.465Z" fill="#C7DBD9"/>
<path d="M149.641 247.465H147.41V251.465H149.641V247.465Z" fill="#C7DBD9"/>
<path d="M115.317 247.465H113.087V251.465H115.317V247.465Z" fill="#C7DBD9"/>
<path d="M123.125 247.465H120.895V251.465H123.125V247.465Z" fill="#C7DBD9"/>
<path d="M132.677 254.421H130.451V258.42H132.677V254.421Z" fill="#C7DBD9"/>
<path d="M140.483 254.421H138.253V258.42H140.483V254.421Z" fill="#C7DBD9"/>
<path d="M149.641 254.421H147.41V258.42H149.641V254.421Z" fill="#C7DBD9"/>
<path d="M115.317 254.421H113.087V258.42H115.317V254.421Z" fill="#C7DBD9"/>
<path d="M123.125 254.421H120.895V258.42H123.125V254.421Z" fill="#C7DBD9"/>
<path d="M132.677 261.343H130.451V265.342H132.677V261.343Z" fill="#C7DBD9"/>
<path d="M140.483 261.343H138.253V265.342H140.483V261.343Z" fill="#C7DBD9"/>
<path d="M149.641 261.343H147.41V265.342H149.641V261.343Z" fill="#C7DBD9"/>
<path d="M115.317 261.343H113.087V265.342H115.317V261.343Z" fill="#C7DBD9"/>
<path d="M123.125 261.343H120.895V265.342H123.125V261.343Z" fill="#C7DBD9"/>
<path d="M132.481 268.298H130.25V272.297H132.481V268.298Z" fill="#C7DBD9"/>
<path d="M140.282 268.298H138.031V272.297H140.262L140.282 268.298Z" fill="#C7DBD9"/>
<path d="M149.44 268.298H147.21V272.297H149.44V268.298Z" fill="#C7DBD9"/>
<path d="M115.122 268.298H112.892V272.297H115.122V268.298Z" fill="#C7DBD9"/>
<path d="M122.924 268.298H120.693V272.297H122.924V268.298Z" fill="#C7DBD9"/>
<path d="M132.48 275.219H130.249V279.219H132.48V275.219Z" fill="#C7DBD9"/>
<path d="M140.282 275.219H138.031V279.219H140.262L140.282 275.219Z" fill="#C7DBD9"/>
<path d="M149.44 275.219H147.21V279.219H149.44V275.219Z" fill="#C7DBD9"/>
<path d="M115.122 275.219H112.892V279.219H115.122V275.219Z" fill="#C7DBD9"/>
<path d="M122.924 275.219H120.693V279.219H122.924V275.219Z" fill="#C7DBD9"/>
<path d="M132.481 282.165H130.25V286.165H132.481V282.165Z" fill="#C7DBD9"/>
<path d="M140.282 282.165H138.031V286.165H140.262L140.282 282.165Z" fill="#C7DBD9"/>
<path d="M149.44 282.165H147.21V286.165H149.44V282.165Z" fill="#C7DBD9"/>
<path d="M115.122 282.165H112.892V286.165H115.122V282.165Z" fill="#C7DBD9"/>
<path d="M122.924 282.165H120.693V286.165H122.924V282.165Z" fill="#C7DBD9"/>
<path d="M643.598 222.479H611.286V316.767H643.598V222.479Z" fill="#00005C"/>
<path d="M634.992 212.697H633.941V223.857H634.992V212.697Z" fill="#00005C"/>
<path d="M638.542 215.096H637.492V226.255H638.542V215.096Z" fill="#00005C"/>
<path d="M631.721 216.604H630.676V227.764H631.721V216.604Z" fill="#00005C"/>
<path d="M616.423 228.566V313.52" stroke="#C7DBD9" stroke-width="2.88" stroke-miterlimit="10"/>
<path d="M620.259 228.566V313.52" stroke="#C7DBD9" stroke-width="2.88" stroke-miterlimit="10"/>
<path d="M624.05 228.566V313.52" stroke="#C7DBD9" stroke-width="2.88" stroke-miterlimit="10"/>
<path d="M627.886 228.566V313.52" stroke="#C7DBD9" stroke-width="2.88" stroke-miterlimit="10"/>
<path d="M631.717 228.566V313.52" stroke="#C7DBD9" stroke-width="2.88" stroke-miterlimit="10"/>
<path d="M635.508 228.566V313.52" stroke="#C7DBD9" stroke-width="2.88" stroke-miterlimit="10"/>
<path d="M639.344 228.566V313.52" stroke="#C7DBD9" stroke-width="2.88" stroke-miterlimit="10"/>
</g>
<defs>
<linearGradient id="paint0_linear_1526_7990" x1="26668.6" y1="12331.9" x2="26668.6" y2="26285.6" gradientUnits="userSpaceOnUse">
<stop stop-color="#4F044A"/>
<stop offset="1" stop-color="#0D0030"/>
</linearGradient>
<linearGradient id="paint1_linear_1526_7990" x1="216.626" y1="331.647" x2="216.626" y2="220.726" gradientUnits="userSpaceOnUse">
<stop stop-color="#3B003B"/>
<stop offset="1" stop-color="#120021"/>
</linearGradient>
<linearGradient id="paint2_linear_1526_7990" x1="507.62" y1="305.531" x2="507.62" y2="244.25" gradientUnits="userSpaceOnUse">
<stop stop-color="#5C0C4F"/>
<stop offset="1" stop-color="#0D0030"/>
</linearGradient>
<linearGradient id="paint3_linear_1526_7990" x1="133.47" y1="311.511" x2="133.47" y2="215.798" gradientUnits="userSpaceOnUse">
<stop stop-color="#10002A"/>
<stop offset="1" stop-color="#2E053D"/>
</linearGradient>
</defs>
</svg>
