<svg width="794" height="419" viewBox="0 0 794 419" fill="none" xmlns="http://www.w3.org/2000/svg">
<path d="M651.495 170.837H638.55V156.721H640.205V154.451H628.339V146.318H629.412V144.563H624.283V136.863H619.442H618.665V109.431H618.129H617.445H616.808V136.863H614.508V121.597H613.972H613.288H612.604V136.863H606.986V144.563H601.081V146.318H602.938V154.451H591.065V156.721H592.774V170.837H579.829V173.189H581.639V392.41H649.685V173.189H651.495V170.837Z" fill="#110045"/>
<path d="M241.797 198.35H192.928V337.853H241.797V198.35Z" fill="url(#paint0_linear_514_18465)"/>
<path d="M243.039 193.01H190.076V198.35H243.039V193.01Z" fill="#4F044A"/>
<path d="M216.558 178.492H195.088V206.782H216.558V178.492Z" fill="#4F044A"/>
<path d="M227.165 178.492H223.544V195.669H227.165V178.492Z" fill="#4F044A"/>
<path d="M234.701 178.492H230.746V195.669H234.701V178.492Z" fill="#4F044A"/>
<path d="M203.939 204.938H201.686V211.263H203.916L203.939 204.938Z" fill="#C7DBD9"/>
<path d="M203.939 217.066H201.686V223.392H203.916L203.939 217.066Z" fill="#C7DBD9"/>
<path d="M203.939 229.188H201.686V235.521H203.916L203.939 229.188Z" fill="#C7DBD9"/>
<path d="M203.939 241.256H201.686V247.582H203.916L203.939 241.256Z" fill="#C7DBD9"/>
<path d="M203.939 252.683H201.686V259.009H203.916L203.939 252.683Z" fill="#C7DBD9"/>
<path d="M203.939 264.774H201.686V271.1H203.916L203.939 264.774Z" fill="#C7DBD9"/>
<path d="M213.481 204.938H211.251V211.263H213.481V204.938Z" fill="#C7DBD9"/>
<path d="M213.481 217.066H211.251V223.392H213.481V217.066Z" fill="#C7DBD9"/>
<path d="M213.481 229.188H211.251V235.521H213.481V229.188Z" fill="#C7DBD9"/>
<path d="M213.481 241.256H211.251V247.582H213.481V241.256Z" fill="#C7DBD9"/>
<path d="M213.481 252.683H211.251V259.009H213.481V252.683Z" fill="#C7DBD9"/>
<path d="M213.481 264.774H211.251V271.1H213.481V264.774Z" fill="#C7DBD9"/>
<path d="M222.993 204.938H220.763V211.263H222.993V204.938Z" fill="#C7DBD9"/>
<path d="M222.993 217.066H220.763V223.392H222.993V217.066Z" fill="#C7DBD9"/>
<path d="M222.993 229.188H220.763V235.521H222.993V229.188Z" fill="#C7DBD9"/>
<path d="M222.993 241.256H220.763V247.582H222.993V241.256Z" fill="#C7DBD9"/>
<path d="M222.993 252.683H220.763V259.009H222.993V252.683Z" fill="#C7DBD9"/>
<path d="M222.993 264.774H220.763V271.1H222.993V264.774Z" fill="#C7DBD9"/>
<path d="M232.504 204.938H230.274V211.263H232.504V204.938Z" fill="#C7DBD9"/>
<path d="M232.504 217.066H230.274V223.392H232.504V217.066Z" fill="#C7DBD9"/>
<path d="M232.504 229.188H230.274V235.521H232.504V229.188Z" fill="#C7DBD9"/>
<path d="M232.504 241.256H230.274V247.582H232.504V241.256Z" fill="#C7DBD9"/>
<path d="M232.504 252.683H230.274V259.009H232.504V252.683Z" fill="#C7DBD9"/>
<path d="M232.504 264.774H230.274V271.1H232.504V264.774Z" fill="#C7DBD9"/>
<path d="M506.841 160.53V143.256H497.819V95.8687H460.63V143.256H452.114V160.53H447.646V378.579H511.309V160.53H506.841Z" fill="url(#paint1_linear_514_18465)"/>
<path d="M503.989 123.823H500.678V143.36H503.989V123.823Z" fill="#000037"/>
<path d="M477.942 70.9316H463.792V96.4214H477.942V70.9316Z" fill="#000037"/>
<path d="M477.95 59.0342H470.872V73.9486H477.95V59.0342Z" fill="#000037"/>
<path d="M474.748 26.1357H474.072V61.3569H474.748V26.1357Z" fill="#000047"/>
<path d="M502.792 88.9229H501.875V124.084H502.792V88.9229Z" fill="#000037"/>
<path d="M461.353 169.679V371.252" stroke="white" stroke-miterlimit="10"/>
<path d="M467.391 169.679V371.252" stroke="white" stroke-miterlimit="10"/>
<path d="M473.436 152.435V371.252" stroke="white" stroke-miterlimit="10"/>
<path d="M479.474 152.435V371.252" stroke="white" stroke-miterlimit="10"/>
<path d="M485.518 152.435V371.252" stroke="white" stroke-miterlimit="10"/>
<path d="M491.556 169.679V371.252" stroke="white" stroke-miterlimit="10"/>
<path d="M497.601 169.679V371.252" stroke="white" stroke-miterlimit="10"/>
<path d="M789.103 204.422V188.813H780.951V145.989H747.352V188.813H739.659V204.422H735.619V401.461H793.143V204.422H789.103Z" fill="url(#paint2_linear_514_18465)"/>
<path d="M786.529 171.254H783.538V188.91H786.529V171.254Z" fill="#000037"/>
<path d="M763 123.457H750.21V146.489H763V123.457Z" fill="#000037"/>
<path d="M763.001 112.709H756.606V126.19H763.001V112.709Z" fill="#000037"/>
<path d="M760.103 82.9775H759.497V114.801H760.103V82.9775Z" fill="#000047"/>
<path d="M785.449 139.715H784.618V171.486H785.449V139.715Z" fill="#000037"/>
<path d="M748.005 212.689V394.837" stroke="white" stroke-miterlimit="10"/>
<path d="M753.459 212.689V394.837" stroke="white" stroke-miterlimit="10"/>
<path d="M758.922 197.11V394.837" stroke="white" stroke-miterlimit="10"/>
<path d="M764.385 197.11V394.837" stroke="white" stroke-miterlimit="10"/>
<path d="M769.839 197.11V394.837" stroke="white" stroke-miterlimit="10"/>
<path d="M775.302 212.689V394.837" stroke="white" stroke-miterlimit="10"/>
<path d="M780.757 212.689V394.837" stroke="white" stroke-miterlimit="10"/>
<path d="M531.427 418.235L521.761 239.284H523.96V237.29H530.666V223.735H521.831V222.122H522.802V217.745H523.773V214.556H521.831V189.022H523.734V185.034H521.598V173.592C521.591 173.514 521.568 173.437 521.53 173.368C521.492 173.298 521.44 173.237 521.377 173.186C521.314 173.136 521.241 173.099 521.163 173.076C521.085 173.053 521.003 173.046 520.922 173.054H520.626V165.586C520.638 165.46 520.611 165.333 520.549 165.222C520.487 165.111 520.392 165.019 520.277 164.958V159.895C520.27 159.817 520.247 159.74 520.209 159.671C520.171 159.601 520.119 159.539 520.056 159.489C519.993 159.439 519.92 159.402 519.842 159.379C519.764 159.356 519.682 159.349 519.601 159.357H519.43V151.889H518.971V159.357H518.8C518.719 159.349 518.637 159.356 518.558 159.379C518.48 159.402 518.407 159.439 518.345 159.489C518.282 159.539 518.23 159.601 518.192 159.671C518.154 159.74 518.131 159.817 518.124 159.895V164.958C518.018 165.018 517.928 165.102 517.862 165.202C517.795 165.302 517.755 165.415 517.743 165.533V173.002H517.448C517.367 172.994 517.285 173.001 517.206 173.024C517.128 173.047 517.055 173.084 516.992 173.134C516.929 173.184 516.878 173.246 516.84 173.316C516.802 173.385 516.779 173.461 516.772 173.54V184.981H514.62V188.969H516.523V214.504H514.62V217.693H515.591V222.07H516.562V223.683H507.704V237.238H514.41V239.232H516.228L506.958 418.235H531.427Z" fill="#000028"/>
<path d="M73.9729 318.062L64.2443 205.378H66.4822V204.123H73.2347V195.579H64.2909V194.564H65.2622V191.845H66.2413V189.844H64.3297V173.719H66.2413V171.21H64.0733V164.003C64.0733 163.809 63.778 163.659 63.3973 163.659H63.102V158.984C63.102 158.842 62.9699 158.693 62.7213 158.618V155.429C62.7213 155.235 62.4182 155.093 62.0375 155.093H61.8665V150.403H61.4003V155.093H61.2293C60.8486 155.093 60.5533 155.235 60.5533 155.429V158.618C60.3357 158.693 60.1726 158.842 60.1726 158.984V163.697H59.8695C59.4888 163.697 59.1935 163.846 59.1935 164.04V171.247H57.0255V173.757H58.9371V189.844H57.0255V191.845H58.0046V194.608H58.9759V195.579H50.0632V204.116H56.8157V205.37H58.6418L49.3406 318.062H73.9729Z" fill="#000028"/>
<path d="M0.0136719 393.866H50.5215V194.989H0.0136719V393.866Z" fill="url(#paint3_linear_514_18465)"/>
<path d="M0.0219498 197.618H41.6016V186.557H0.0219498V197.618Z" fill="#120055"/>
<path d="M27.8166 187.864H37.6462V182.771H27.8166V187.864Z" fill="#120055"/>
<path d="M32.3857 184.646H33.186L33.186 151.172H32.3857L32.3857 184.646Z" fill="#120055"/>
<g opacity="0.62">
<path opacity="0.62" d="M6.33824 200.284H3.92163V202.607H6.33824V200.284Z" fill="#E6E6E6"/>
<path opacity="0.62" d="M10.2479 200.284H7.8313V202.607H10.2479V200.284Z" fill="white"/>
<path opacity="0.62" d="M14.1542 200.284H11.7375V202.607H14.1542V200.284Z" fill="#CCCCCC"/>
<path opacity="0.62" d="M18.0565 200.284H15.6399V202.607H18.0565V200.284Z" fill="#F2F2F2"/>
<path opacity="0.62" d="M21.9645 200.284H19.5479V202.607H21.9645V200.284Z" fill="#B3B3B3"/>
<path opacity="0.62" d="M25.8661 200.284H23.4495V202.607H25.8661V200.284Z" fill="#CCCCCC"/>
<path opacity="0.62" d="M29.7731 200.284H27.3564V202.607H29.7731V200.284Z" fill="#B3B3B3"/>
<path opacity="0.62" d="M33.6747 200.284H31.2581V202.607H33.6747V200.284Z" fill="#B3B3B3"/>
<path opacity="0.62" d="M37.5834 200.284H35.1667V202.607H37.5834V200.284Z" fill="#E6E6E6"/>
<path opacity="0.62" d="M41.4923 200.284H39.0757V202.607H41.4923V200.284Z" fill="#CCCCCC"/>
<path opacity="0.62" d="M45.3919 200.284H42.9753V202.607H45.3919V200.284Z" fill="#E6E6E6"/>
<path opacity="0.62" d="M6.33824 203.652H3.92163V205.975H6.33824V203.652Z" fill="#F2F2F2"/>
<path opacity="0.62" d="M10.2479 203.652H7.8313V205.975H10.2479V203.652Z" fill="#CCCCCC"/>
<path opacity="0.62" d="M14.1542 203.652H11.7375V205.975H14.1542V203.652Z" fill="#F2F2F2"/>
<path opacity="0.62" d="M18.0565 203.652H15.6399V205.975H18.0565V203.652Z" fill="#B3B3B3"/>
<path opacity="0.62" d="M21.9645 203.652H19.5479V205.975H21.9645V203.652Z" fill="#F2F2F2"/>
<path opacity="0.62" d="M25.8661 203.652H23.4495V205.975H25.8661V203.652Z" fill="white"/>
<path opacity="0.62" d="M29.7731 203.652H27.3564V205.975H29.7731V203.652Z" fill="#CCCCCC"/>
<path opacity="0.62" d="M33.6747 203.652H31.2581V205.975H33.6747V203.652Z" fill="#B3B3B3"/>
<path opacity="0.62" d="M37.5834 203.652H35.1667V205.975H37.5834V203.652Z" fill="#F2F2F2"/>
<path opacity="0.62" d="M41.4923 203.652H39.0757V205.975H41.4923V203.652Z" fill="white"/>
<path opacity="0.62" d="M45.3919 203.652H42.9753V205.975H45.3919V203.652Z" fill="white"/>
<path opacity="0.62" d="M6.33824 207.021H3.92163V209.343H6.33824V207.021Z" fill="#CCCCCC"/>
<path opacity="0.62" d="M10.2479 207.021H7.8313V209.343H10.2479V207.021Z" fill="white"/>
<path opacity="0.62" d="M14.1542 207.021H11.7375V209.343H14.1542V207.021Z" fill="#B3B3B3"/>
<path opacity="0.62" d="M18.0565 207.021H15.6399V209.343H18.0565V207.021Z" fill="white"/>
<path opacity="0.62" d="M21.9645 207.021H19.5479V209.343H21.9645V207.021Z" fill="#E6E6E6"/>
<path opacity="0.62" d="M25.8661 207.021H23.4495V209.343H25.8661V207.021Z" fill="white"/>
<path opacity="0.62" d="M29.7731 207.021H27.3564V209.343H29.7731V207.021Z" fill="#E6E6E6"/>
<path opacity="0.62" d="M33.6747 207.021H31.2581V209.343H33.6747V207.021Z" fill="#E6E6E6"/>
<path opacity="0.62" d="M37.5834 207.021H35.1667V209.343H37.5834V207.021Z" fill="white"/>
<path opacity="0.62" d="M41.4923 207.021H39.0757V209.343H41.4923V207.021Z" fill="#CCCCCC"/>
<path opacity="0.62" d="M45.3919 207.021H42.9753V209.343H45.3919V207.021Z" fill="#B3B3B3"/>
<path opacity="0.62" d="M6.33824 210.389H3.92163V212.712H6.33824V210.389Z" fill="#B3B3B3"/>
<path opacity="0.62" d="M10.2479 210.389H7.8313V212.712H10.2479V210.389Z" fill="#CCCCCC"/>
<path opacity="0.62" d="M14.1542 210.389H11.7375V212.712H14.1542V210.389Z" fill="white"/>
<path opacity="0.62" d="M18.0565 210.389H15.6399V212.712H18.0565V210.389Z" fill="#B3B3B3"/>
<path opacity="0.62" d="M21.9645 210.389H19.5479V212.712H21.9645V210.389Z" fill="#CCCCCC"/>
<path opacity="0.62" d="M25.8661 210.389H23.4495V212.712H25.8661V210.389Z" fill="#E6E6E6"/>
<path opacity="0.62" d="M29.7731 210.389H27.3564V212.712H29.7731V210.389Z" fill="#CCCCCC"/>
<path opacity="0.62" d="M33.6747 210.389H31.2581V212.712H33.6747V210.389Z" fill="#E6E6E6"/>
<path opacity="0.62" d="M37.5834 210.389H35.1667V212.712H37.5834V210.389Z" fill="#B3B3B3"/>
<path opacity="0.62" d="M41.4923 210.389H39.0757V212.712H41.4923V210.389Z" fill="#E6E6E6"/>
<path opacity="0.62" d="M45.3919 210.389H42.9753V212.712H45.3919V210.389Z" fill="#F2F2F2"/>
<path opacity="0.62" d="M6.33824 213.757H3.92163V216.08H6.33824V213.757Z" fill="#CCCCCC"/>
<path opacity="0.62" d="M10.2479 213.757H7.8313V216.08H10.2479V213.757Z" fill="#CCCCCC"/>
<path opacity="0.62" d="M14.1542 213.757H11.7375V216.08H14.1542V213.757Z" fill="#E6E6E6"/>
<path opacity="0.62" d="M18.0565 213.757H15.6399V216.08H18.0565V213.757Z" fill="#CCCCCC"/>
<path opacity="0.62" d="M21.9645 213.757H19.5479V216.08H21.9645V213.757Z" fill="#E6E6E6"/>
<path opacity="0.62" d="M25.8661 213.757H23.4495V216.08H25.8661V213.757Z" fill="#CCCCCC"/>
<path opacity="0.62" d="M29.7731 213.757H27.3564V216.08H29.7731V213.757Z" fill="white"/>
<path opacity="0.62" d="M33.6747 213.757H31.2581V216.08H33.6747V213.757Z" fill="#B3B3B3"/>
<path opacity="0.62" d="M37.5834 213.757H35.1667V216.08H37.5834V213.757Z" fill="#B3B3B3"/>
<path opacity="0.62" d="M41.4923 213.757H39.0757V216.08H41.4923V213.757Z" fill="#CCCCCC"/>
<path opacity="0.62" d="M45.3919 213.757H42.9753V216.08H45.3919V213.757Z" fill="white"/>
<path opacity="0.62" d="M6.33824 217.133H3.92163V219.456H6.33824V217.133Z" fill="#B3B3B3"/>
<path opacity="0.62" d="M10.2479 217.133H7.8313V219.456H10.2479V217.133Z" fill="#E6E6E6"/>
<path opacity="0.62" d="M14.1542 217.133H11.7375V219.456H14.1542V217.133Z" fill="#CCCCCC"/>
<path opacity="0.62" d="M18.0565 217.133H15.6399V219.456H18.0565V217.133Z" fill="#B3B3B3"/>
<path opacity="0.62" d="M21.9645 217.133H19.5479V219.456H21.9645V217.133Z" fill="#B3B3B3"/>
<path opacity="0.62" d="M25.8661 217.133H23.4495V219.456H25.8661V217.133Z" fill="#CCCCCC"/>
<path opacity="0.62" d="M29.7731 217.133H27.3564V219.456H29.7731V217.133Z" fill="#CCCCCC"/>
<path opacity="0.62" d="M33.6747 217.133H31.2581V219.456H33.6747V217.133Z" fill="white"/>
<path opacity="0.62" d="M37.5834 217.133H35.1667V219.456H37.5834V217.133Z" fill="#F2F2F2"/>
<path opacity="0.62" d="M41.4923 217.133H39.0757V219.456H41.4923V217.133Z" fill="#CCCCCC"/>
<path opacity="0.62" d="M45.3919 217.133H42.9753V219.456H45.3919V217.133Z" fill="#E6E6E6"/>
<path opacity="0.62" d="M6.33824 220.501H3.92163V222.824H6.33824V220.501Z" fill="#B3B3B3"/>
<path opacity="0.62" d="M10.2479 220.501H7.8313V222.824H10.2479V220.501Z" fill="white"/>
<path opacity="0.62" d="M14.1542 220.501H11.7375V222.824H14.1542V220.501Z" fill="#B3B3B3"/>
<path opacity="0.62" d="M18.0565 220.501H15.6399V222.824H18.0565V220.501Z" fill="#E6E6E6"/>
<path opacity="0.62" d="M21.9645 220.501H19.5479V222.824H21.9645V220.501Z" fill="#E6E6E6"/>
<path opacity="0.62" d="M25.8661 220.501H23.4495V222.824H25.8661V220.501Z" fill="#B3B3B3"/>
<path opacity="0.62" d="M29.7731 220.501H27.3564V222.824H29.7731V220.501Z" fill="#CCCCCC"/>
<path opacity="0.62" d="M33.6747 220.501H31.2581V222.824H33.6747V220.501Z" fill="#CCCCCC"/>
<path opacity="0.62" d="M37.5834 220.501H35.1667V222.824H37.5834V220.501Z" fill="#B3B3B3"/>
<path opacity="0.62" d="M41.4923 220.501H39.0757V222.824H41.4923V220.501Z" fill="#CCCCCC"/>
<path opacity="0.62" d="M45.3919 220.501H42.9753V222.824H45.3919V220.501Z" fill="#B3B3B3"/>
<path opacity="0.62" d="M6.33824 223.87H3.92163V226.192H6.33824V223.87Z" fill="#F2F2F2"/>
<path opacity="0.62" d="M10.2479 223.87H7.8313V226.192H10.2479V223.87Z" fill="#F2F2F2"/>
<path opacity="0.62" d="M14.1542 223.87H11.7375V226.192H14.1542V223.87Z" fill="#E6E6E6"/>
<path opacity="0.62" d="M18.0565 223.87H15.6399V226.192H18.0565V223.87Z" fill="white"/>
<path opacity="0.62" d="M21.9645 223.87H19.5479V226.192H21.9645V223.87Z" fill="#CCCCCC"/>
<path opacity="0.62" d="M25.8661 223.87H23.4495V226.192H25.8661V223.87Z" fill="#F2F2F2"/>
<path opacity="0.62" d="M29.7731 223.87H27.3564V226.192H29.7731V223.87Z" fill="#E6E6E6"/>
<path opacity="0.62" d="M33.6747 223.87H31.2581V226.192H33.6747V223.87Z" fill="#E6E6E6"/>
<path opacity="0.62" d="M37.5834 223.87H35.1667V226.192H37.5834V223.87Z" fill="#B3B3B3"/>
<path opacity="0.62" d="M41.4923 223.87H39.0757V226.192H41.4923V223.87Z" fill="#CCCCCC"/>
<path opacity="0.62" d="M45.3919 223.87H42.9753V226.192H45.3919V223.87Z" fill="#E6E6E6"/>
<path opacity="0.62" d="M6.33824 227.238H3.92163V229.56H6.33824V227.238Z" fill="#E6E6E6"/>
<path opacity="0.62" d="M10.2479 227.238H7.8313V229.56H10.2479V227.238Z" fill="#CCCCCC"/>
<path opacity="0.62" d="M14.1542 227.238H11.7375V229.56H14.1542V227.238Z" fill="white"/>
<path opacity="0.62" d="M18.0565 227.238H15.6399V229.56H18.0565V227.238Z" fill="#F2F2F2"/>
<path opacity="0.62" d="M21.9645 227.238H19.5479V229.56H21.9645V227.238Z" fill="#F2F2F2"/>
<path opacity="0.62" d="M25.8661 227.238H23.4495V229.56H25.8661V227.238Z" fill="#F2F2F2"/>
<path opacity="0.62" d="M29.7731 227.238H27.3564V229.56H29.7731V227.238Z" fill="#CCCCCC"/>
<path opacity="0.62" d="M33.6747 227.238H31.2581V229.56H33.6747V227.238Z" fill="#F2F2F2"/>
<path opacity="0.62" d="M37.5834 227.238H35.1667V229.56H37.5834V227.238Z" fill="#F2F2F2"/>
<path opacity="0.62" d="M41.4923 227.238H39.0757V229.56H41.4923V227.238Z" fill="#F2F2F2"/>
<path opacity="0.62" d="M45.3919 227.238H42.9753V229.56H45.3919V227.238Z" fill="#E6E6E6"/>
<path opacity="0.62" d="M6.33824 230.606H3.92163V232.929H6.33824V230.606Z" fill="#E6E6E6"/>
<path opacity="0.62" d="M10.2479 230.606H7.8313V232.929H10.2479V230.606Z" fill="#CCCCCC"/>
<path opacity="0.62" d="M14.1542 230.606H11.7375V232.929H14.1542V230.606Z" fill="#E6E6E6"/>
<path opacity="0.62" d="M18.0565 230.606H15.6399V232.929H18.0565V230.606Z" fill="#F2F2F2"/>
<path opacity="0.62" d="M21.9645 230.606H19.5479V232.929H21.9645V230.606Z" fill="#CCCCCC"/>
<path opacity="0.62" d="M25.8661 230.606H23.4495V232.929H25.8661V230.606Z" fill="#CCCCCC"/>
<path opacity="0.62" d="M29.7731 230.606H27.3564V232.929H29.7731V230.606Z" fill="white"/>
<path opacity="0.62" d="M33.6747 230.606H31.2581V232.929H33.6747V230.606Z" fill="#E6E6E6"/>
<path opacity="0.62" d="M37.5834 230.606H35.1667V232.929H37.5834V230.606Z" fill="#B3B3B3"/>
<path opacity="0.62" d="M41.4923 230.606H39.0757V232.929H41.4923V230.606Z" fill="#E6E6E6"/>
<path opacity="0.62" d="M45.3919 230.606H42.9753V232.929H45.3919V230.606Z" fill="#CCCCCC"/>
<path opacity="0.62" d="M6.33824 233.982H3.92163V236.305H6.33824V233.982Z" fill="#CCCCCC"/>
<path opacity="0.62" d="M10.2479 233.982H7.8313V236.305H10.2479V233.982Z" fill="#CCCCCC"/>
<path opacity="0.62" d="M14.1542 233.982H11.7375V236.305H14.1542V233.982Z" fill="white"/>
<path opacity="0.62" d="M18.0565 233.982H15.6399V236.305H18.0565V233.982Z" fill="#F2F2F2"/>
<path opacity="0.62" d="M21.9645 233.982H19.5479V236.305H21.9645V233.982Z" fill="#B3B3B3"/>
<path opacity="0.62" d="M25.8661 233.982H23.4495V236.305H25.8661V233.982Z" fill="white"/>
<path opacity="0.62" d="M29.7731 233.982H27.3564V236.305H29.7731V233.982Z" fill="#E6E6E6"/>
<path opacity="0.62" d="M33.6747 233.982H31.2581V236.305H33.6747V233.982Z" fill="#CCCCCC"/>
<path opacity="0.62" d="M37.5834 233.982H35.1667V236.305H37.5834V233.982Z" fill="#CCCCCC"/>
<path opacity="0.62" d="M41.4923 233.982H39.0757V236.305H41.4923V233.982Z" fill="#B3B3B3"/>
<path opacity="0.62" d="M45.3919 233.982H42.9753V236.305H45.3919V233.982Z" fill="#B3B3B3"/>
<path opacity="0.62" d="M6.33824 237.35H3.92163V239.673H6.33824V237.35Z" fill="#CCCCCC"/>
<path opacity="0.62" d="M10.2479 237.35H7.8313V239.673H10.2479V237.35Z" fill="white"/>
<path opacity="0.62" d="M14.1542 237.35H11.7375V239.673H14.1542V237.35Z" fill="#E6E6E6"/>
<path opacity="0.62" d="M18.0565 237.35H15.6399V239.673H18.0565V237.35Z" fill="#B3B3B3"/>
<path opacity="0.62" d="M21.9645 237.35H19.5479V239.673H21.9645V237.35Z" fill="#F2F2F2"/>
<path opacity="0.62" d="M25.8661 237.35H23.4495V239.673H25.8661V237.35Z" fill="white"/>
<path opacity="0.62" d="M29.7731 237.35H27.3564V239.673H29.7731V237.35Z" fill="#CCCCCC"/>
<path opacity="0.62" d="M33.6747 237.35H31.2581V239.673H33.6747V237.35Z" fill="#CCCCCC"/>
<path opacity="0.62" d="M37.5834 237.35H35.1667V239.673H37.5834V237.35Z" fill="#E6E6E6"/>
<path opacity="0.62" d="M41.4923 237.35H39.0757V239.673H41.4923V237.35Z" fill="#CCCCCC"/>
<path opacity="0.62" d="M45.3919 237.35H42.9753V239.673H45.3919V237.35Z" fill="#CCCCCC"/>
<path opacity="0.62" d="M6.33824 240.718H3.92163V243.041H6.33824V240.718Z" fill="#B3B3B3"/>
<path opacity="0.62" d="M10.2479 240.718H7.8313V243.041H10.2479V240.718Z" fill="#E6E6E6"/>
<path opacity="0.62" d="M14.1542 240.718H11.7375V243.041H14.1542V240.718Z" fill="#E6E6E6"/>
<path opacity="0.62" d="M18.0565 240.718H15.6399V243.041H18.0565V240.718Z" fill="#E6E6E6"/>
<path opacity="0.62" d="M21.9645 240.718H19.5479V243.041H21.9645V240.718Z" fill="#CCCCCC"/>
<path opacity="0.62" d="M25.8661 240.718H23.4495V243.041H25.8661V240.718Z" fill="#CCCCCC"/>
<path opacity="0.62" d="M29.7731 240.718H27.3564V243.041H29.7731V240.718Z" fill="#B3B3B3"/>
<path opacity="0.62" d="M33.6747 240.718H31.2581V243.041H33.6747V240.718Z" fill="#CCCCCC"/>
<path opacity="0.62" d="M37.5834 240.718H35.1667V243.041H37.5834V240.718Z" fill="white"/>
<path opacity="0.62" d="M41.4923 240.718H39.0757V243.041H41.4923V240.718Z" fill="white"/>
<path opacity="0.62" d="M45.3919 240.718H42.9753V243.041H45.3919V240.718Z" fill="#CCCCCC"/>
<path opacity="0.62" d="M6.33824 244.086H3.92163V246.409H6.33824V244.086Z" fill="#B3B3B3"/>
<path opacity="0.62" d="M10.2479 244.086H7.8313V246.409H10.2479V244.086Z" fill="#E6E6E6"/>
<path opacity="0.62" d="M14.1542 244.086H11.7375V246.409H14.1542V244.086Z" fill="#E6E6E6"/>
<path opacity="0.62" d="M18.0565 244.086H15.6399V246.409H18.0565V244.086Z" fill="#CCCCCC"/>
<path opacity="0.62" d="M21.9645 244.086H19.5479V246.409H21.9645V244.086Z" fill="#E6E6E6"/>
<path opacity="0.62" d="M25.8661 244.086H23.4495V246.409H25.8661V244.086Z" fill="#B3B3B3"/>
<path opacity="0.62" d="M29.7731 244.086H27.3564V246.409H29.7731V244.086Z" fill="#CCCCCC"/>
<path opacity="0.62" d="M33.6747 244.086H31.2581V246.409H33.6747V244.086Z" fill="#B3B3B3"/>
<path opacity="0.62" d="M37.5834 244.086H35.1667V246.409H37.5834V244.086Z" fill="white"/>
<path opacity="0.62" d="M41.4923 244.086H39.0757V246.409H41.4923V244.086Z" fill="white"/>
<path opacity="0.62" d="M45.3919 244.086H42.9753V246.409H45.3919V244.086Z" fill="#CCCCCC"/>
<path opacity="0.62" d="M6.33824 247.455H3.92163V249.777H6.33824V247.455Z" fill="#E6E6E6"/>
<path opacity="0.62" d="M10.2479 247.455H7.8313V249.777H10.2479V247.455Z" fill="#E6E6E6"/>
<path opacity="0.62" d="M14.1542 247.455H11.7375V249.777H14.1542V247.455Z" fill="#CCCCCC"/>
<path opacity="0.62" d="M18.0565 247.455H15.6399V249.777H18.0565V247.455Z" fill="white"/>
<path opacity="0.62" d="M21.9645 247.455H19.5479V249.777H21.9645V247.455Z" fill="#B3B3B3"/>
<path opacity="0.62" d="M25.8661 247.455H23.4495V249.777H25.8661V247.455Z" fill="white"/>
<path opacity="0.62" d="M29.7731 247.455H27.3564V249.777H29.7731V247.455Z" fill="#CCCCCC"/>
<path opacity="0.62" d="M33.6747 247.455H31.2581V249.777H33.6747V247.455Z" fill="#E6E6E6"/>
<path opacity="0.62" d="M37.5834 247.455H35.1667V249.777H37.5834V247.455Z" fill="#B3B3B3"/>
<path opacity="0.62" d="M41.4923 247.455H39.0757V249.777H41.4923V247.455Z" fill="#CCCCCC"/>
<path opacity="0.62" d="M45.3919 247.455H42.9753V249.777H45.3919V247.455Z" fill="#B3B3B3"/>
<path opacity="0.62" d="M6.33824 250.831H3.92163V253.153H6.33824V250.831Z" fill="#CCCCCC"/>
<path opacity="0.62" d="M10.2479 250.831H7.8313V253.153H10.2479V250.831Z" fill="#B3B3B3"/>
<path opacity="0.62" d="M14.1542 250.831H11.7375V253.153H14.1542V250.831Z" fill="#E6E6E6"/>
<path opacity="0.62" d="M18.0565 250.831H15.6399V253.153H18.0565V250.831Z" fill="#CCCCCC"/>
<path opacity="0.62" d="M21.9645 250.831H19.5479V253.153H21.9645V250.831Z" fill="#E6E6E6"/>
<path opacity="0.62" d="M25.8661 250.831H23.4495V253.153H25.8661V250.831Z" fill="#F2F2F2"/>
<path opacity="0.62" d="M29.7731 250.831H27.3564V253.153H29.7731V250.831Z" fill="#B3B3B3"/>
<path opacity="0.62" d="M33.6747 250.831H31.2581V253.153H33.6747V250.831Z" fill="#CCCCCC"/>
<path opacity="0.62" d="M37.5834 250.831H35.1667V253.153H37.5834V250.831Z" fill="#E6E6E6"/>
<path opacity="0.62" d="M41.4923 250.831H39.0757V253.153H41.4923V250.831Z" fill="#CCCCCC"/>
<path opacity="0.62" d="M45.3919 250.831H42.9753V253.153H45.3919V250.831Z" fill="#E6E6E6"/>
<path opacity="0.62" d="M6.33824 254.199H3.92163V256.521H6.33824V254.199Z" fill="#CCCCCC"/>
<path opacity="0.62" d="M10.2479 254.199H7.8313V256.521H10.2479V254.199Z" fill="#E6E6E6"/>
<path opacity="0.62" d="M14.1542 254.199H11.7375V256.521H14.1542V254.199Z" fill="white"/>
<path opacity="0.62" d="M18.0565 254.199H15.6399V256.521H18.0565V254.199Z" fill="#CCCCCC"/>
<path opacity="0.62" d="M21.9645 254.199H19.5479V256.521H21.9645V254.199Z" fill="#CCCCCC"/>
<path opacity="0.62" d="M25.8661 254.199H23.4495V256.521H25.8661V254.199Z" fill="#E6E6E6"/>
<path opacity="0.62" d="M29.7731 254.199H27.3564V256.521H29.7731V254.199Z" fill="#B3B3B3"/>
<path opacity="0.62" d="M33.6747 254.199H31.2581V256.521H33.6747V254.199Z" fill="#CCCCCC"/>
<path opacity="0.62" d="M37.5834 254.199H35.1667V256.521H37.5834V254.199Z" fill="#B3B3B3"/>
<path opacity="0.62" d="M41.4923 254.199H39.0757V256.521H41.4923V254.199Z" fill="#B3B3B3"/>
<path opacity="0.62" d="M45.3919 254.199H42.9753V256.521H45.3919V254.199Z" fill="#B3B3B3"/>
<path opacity="0.62" d="M6.33824 257.567H3.92163V259.89H6.33824V257.567Z" fill="#B3B3B3"/>
<path opacity="0.62" d="M10.2479 257.567H7.8313V259.89H10.2479V257.567Z" fill="white"/>
<path opacity="0.62" d="M14.1542 257.567H11.7375V259.89H14.1542V257.567Z" fill="#E6E6E6"/>
<path opacity="0.62" d="M18.0565 257.567H15.6399V259.89H18.0565V257.567Z" fill="#B3B3B3"/>
<path opacity="0.62" d="M21.9645 257.567H19.5479V259.89H21.9645V257.567Z" fill="#CCCCCC"/>
<path opacity="0.62" d="M25.8661 257.567H23.4495V259.89H25.8661V257.567Z" fill="#E6E6E6"/>
<path opacity="0.62" d="M29.7731 257.567H27.3564V259.89H29.7731V257.567Z" fill="white"/>
<path opacity="0.62" d="M33.6747 257.567H31.2581V259.89H33.6747V257.567Z" fill="#F2F2F2"/>
<path opacity="0.62" d="M37.5834 257.567H35.1667V259.89H37.5834V257.567Z" fill="#CCCCCC"/>
<path opacity="0.62" d="M41.4923 257.567H39.0757V259.89H41.4923V257.567Z" fill="#CCCCCC"/>
<path opacity="0.62" d="M45.3919 257.567H42.9753V259.89H45.3919V257.567Z" fill="#E6E6E6"/>
<path opacity="0.62" d="M6.33824 260.936H3.92163V263.258H6.33824V260.936Z" fill="#B3B3B3"/>
<path opacity="0.62" d="M10.2479 260.936H7.8313V263.258H10.2479V260.936Z" fill="#F2F2F2"/>
<path opacity="0.62" d="M14.1542 260.936H11.7375V263.258H14.1542V260.936Z" fill="#B3B3B3"/>
<path opacity="0.62" d="M18.0565 260.936H15.6399V263.258H18.0565V260.936Z" fill="#F2F2F2"/>
<path opacity="0.62" d="M21.9645 260.936H19.5479V263.258H21.9645V260.936Z" fill="#E6E6E6"/>
<path opacity="0.62" d="M25.8661 260.936H23.4495V263.258H25.8661V260.936Z" fill="#F2F2F2"/>
<path opacity="0.62" d="M29.7731 260.936H27.3564V263.258H29.7731V260.936Z" fill="#E6E6E6"/>
<path opacity="0.62" d="M33.6747 260.936H31.2581V263.258H33.6747V260.936Z" fill="#F2F2F2"/>
<path opacity="0.62" d="M37.5834 260.936H35.1667V263.258H37.5834V260.936Z" fill="#CCCCCC"/>
<path opacity="0.62" d="M41.4923 260.936H39.0757V263.258H41.4923V260.936Z" fill="#B3B3B3"/>
<path opacity="0.62" d="M45.3919 260.936H42.9753V263.258H45.3919V260.936Z" fill="white"/>
<path opacity="0.62" d="M6.33824 264.304H3.92163V266.626H6.33824V264.304Z" fill="#CCCCCC"/>
<path opacity="0.62" d="M10.2479 264.304H7.8313V266.626H10.2479V264.304Z" fill="#B3B3B3"/>
<path opacity="0.62" d="M14.1542 264.304H11.7375V266.626H14.1542V264.304Z" fill="#CCCCCC"/>
<path opacity="0.62" d="M18.0565 264.304H15.6399V266.626H18.0565V264.304Z" fill="#CCCCCC"/>
<path opacity="0.62" d="M21.9645 264.304H19.5479V266.626H21.9645V264.304Z" fill="#CCCCCC"/>
<path opacity="0.62" d="M25.8661 264.304H23.4495V266.626H25.8661V264.304Z" fill="white"/>
<path opacity="0.62" d="M29.7731 264.304H27.3564V266.626H29.7731V264.304Z" fill="#CCCCCC"/>
<path opacity="0.62" d="M33.6747 264.304H31.2581V266.626H33.6747V264.304Z" fill="#E6E6E6"/>
<path opacity="0.62" d="M37.5834 264.304H35.1667V266.626H37.5834V264.304Z" fill="#CCCCCC"/>
<path opacity="0.62" d="M41.4923 264.304H39.0757V266.626H41.4923V264.304Z" fill="#E6E6E6"/>
<path opacity="0.62" d="M45.3919 264.304H42.9753V266.626H45.3919V264.304Z" fill="#E6E6E6"/>
<path opacity="0.62" d="M6.33824 267.679H3.92163V270.002H6.33824V267.679Z" fill="#CCCCCC"/>
<path opacity="0.62" d="M10.2479 267.679H7.8313V270.002H10.2479V267.679Z" fill="#CCCCCC"/>
<path opacity="0.62" d="M14.1542 267.679H11.7375V270.002H14.1542V267.679Z" fill="#CCCCCC"/>
<path opacity="0.62" d="M18.0565 267.679H15.6399V270.002H18.0565V267.679Z" fill="white"/>
<path opacity="0.62" d="M21.9645 267.679H19.5479V270.002H21.9645V267.679Z" fill="#E6E6E6"/>
<path opacity="0.62" d="M25.8661 267.679H23.4495V270.002H25.8661V267.679Z" fill="#CCCCCC"/>
<path opacity="0.62" d="M29.7731 267.679H27.3564V270.002H29.7731V267.679Z" fill="#E6E6E6"/>
<path opacity="0.62" d="M33.6747 267.679H31.2581V270.002H33.6747V267.679Z" fill="#CCCCCC"/>
<path opacity="0.62" d="M37.5834 267.679H35.1667V270.002H37.5834V267.679Z" fill="#B3B3B3"/>
<path opacity="0.62" d="M41.4923 267.679H39.0757V270.002H41.4923V267.679Z" fill="#B3B3B3"/>
<path opacity="0.62" d="M45.3919 267.679H42.9753V270.002H45.3919V267.679Z" fill="#CCCCCC"/>
<path opacity="0.62" d="M6.33824 271.047H3.92163V273.37H6.33824V271.047Z" fill="#CCCCCC"/>
<path opacity="0.62" d="M10.2479 271.047H7.8313V273.37H10.2479V271.047Z" fill="#E6E6E6"/>
<path opacity="0.62" d="M14.1542 271.047H11.7375V273.37H14.1542V271.047Z" fill="#E6E6E6"/>
<path opacity="0.62" d="M18.0565 271.047H15.6399V273.37H18.0565V271.047Z" fill="#CCCCCC"/>
<path opacity="0.62" d="M21.9645 271.047H19.5479V273.37H21.9645V271.047Z" fill="#E6E6E6"/>
<path opacity="0.62" d="M25.8661 271.047H23.4495V273.37H25.8661V271.047Z" fill="#F2F2F2"/>
<path opacity="0.62" d="M29.7731 271.047H27.3564V273.37H29.7731V271.047Z" fill="#CCCCCC"/>
<path opacity="0.62" d="M33.6747 271.047H31.2581V273.37H33.6747V271.047Z" fill="#CCCCCC"/>
<path opacity="0.62" d="M37.5834 271.047H35.1667V273.37H37.5834V271.047Z" fill="#E6E6E6"/>
<path opacity="0.62" d="M41.4923 271.047H39.0757V273.37H41.4923V271.047Z" fill="#CCCCCC"/>
<path opacity="0.62" d="M45.3919 271.047H42.9753V273.37H45.3919V271.047Z" fill="#CCCCCC"/>
<path opacity="0.62" d="M6.33824 274.416H3.92163V276.739H6.33824V274.416Z" fill="white"/>
<path opacity="0.62" d="M10.2479 274.416H7.8313V276.739H10.2479V274.416Z" fill="#CCCCCC"/>
<path opacity="0.62" d="M14.1542 274.416H11.7375V276.739H14.1542V274.416Z" fill="#E6E6E6"/>
<path opacity="0.62" d="M18.0565 274.416H15.6399V276.739H18.0565V274.416Z" fill="#E6E6E6"/>
<path opacity="0.62" d="M21.9645 274.416H19.5479V276.739H21.9645V274.416Z" fill="#B3B3B3"/>
<path opacity="0.62" d="M25.8661 274.416H23.4495V276.739H25.8661V274.416Z" fill="#B3B3B3"/>
<path opacity="0.62" d="M29.7731 274.416H27.3564V276.739H29.7731V274.416Z" fill="#E6E6E6"/>
<path opacity="0.62" d="M33.6747 274.416H31.2581V276.739H33.6747V274.416Z" fill="#CCCCCC"/>
<path opacity="0.62" d="M37.5834 274.416H35.1667V276.739H37.5834V274.416Z" fill="#B3B3B3"/>
<path opacity="0.62" d="M41.4923 274.416H39.0757V276.739H41.4923V274.416Z" fill="#E6E6E6"/>
<path opacity="0.62" d="M45.3919 274.416H42.9753V276.739H45.3919V274.416Z" fill="#CCCCCC"/>
<path opacity="0.62" d="M6.33824 277.784H3.92163V280.107H6.33824V277.784Z" fill="#CCCCCC"/>
<path opacity="0.62" d="M10.2479 277.784H7.8313V280.107H10.2479V277.784Z" fill="#CCCCCC"/>
<path opacity="0.62" d="M14.1542 277.784H11.7375V280.107H14.1542V277.784Z" fill="#E6E6E6"/>
<path opacity="0.62" d="M18.0565 277.784H15.6399V280.107H18.0565V277.784Z" fill="#E6E6E6"/>
<path opacity="0.62" d="M21.9645 277.784H19.5479V280.107H21.9645V277.784Z" fill="#CCCCCC"/>
<path opacity="0.62" d="M25.8661 277.784H23.4495V280.107H25.8661V277.784Z" fill="#E6E6E6"/>
<path opacity="0.62" d="M29.7731 277.784H27.3564V280.107H29.7731V277.784Z" fill="#E6E6E6"/>
<path opacity="0.62" d="M33.6747 277.784H31.2581V280.107H33.6747V277.784Z" fill="#F2F2F2"/>
<path opacity="0.62" d="M37.5834 277.784H35.1667V280.107H37.5834V277.784Z" fill="#F2F2F2"/>
<path opacity="0.62" d="M41.4923 277.784H39.0757V280.107H41.4923V277.784Z" fill="#B3B3B3"/>
<path opacity="0.62" d="M45.3919 277.784H42.9753V280.107H45.3919V277.784Z" fill="#CCCCCC"/>
<path opacity="0.62" d="M6.33824 281.152H3.92163V283.475H6.33824V281.152Z" fill="#CCCCCC"/>
<path opacity="0.62" d="M10.2479 281.152H7.8313V283.475H10.2479V281.152Z" fill="white"/>
<path opacity="0.62" d="M14.1542 281.152H11.7375V283.475H14.1542V281.152Z" fill="#CCCCCC"/>
<path opacity="0.62" d="M18.0565 281.152H15.6399V283.475H18.0565V281.152Z" fill="#CCCCCC"/>
<path opacity="0.62" d="M21.9645 281.152H19.5479V283.475H21.9645V281.152Z" fill="#B3B3B3"/>
<path opacity="0.62" d="M25.8661 281.152H23.4495V283.475H25.8661V281.152Z" fill="#CCCCCC"/>
<path opacity="0.62" d="M29.7731 281.152H27.3564V283.475H29.7731V281.152Z" fill="#CCCCCC"/>
<path opacity="0.62" d="M33.6747 281.152H31.2581V283.475H33.6747V281.152Z" fill="#B3B3B3"/>
<path opacity="0.62" d="M37.5834 281.152H35.1667V283.475H37.5834V281.152Z" fill="#CCCCCC"/>
<path opacity="0.62" d="M41.4923 281.152H39.0757V283.475H41.4923V281.152Z" fill="#CCCCCC"/>
<path opacity="0.62" d="M45.3919 281.152H42.9753V283.475H45.3919V281.152Z" fill="#E6E6E6"/>
<path opacity="0.62" d="M6.33824 284.655H3.92163V286.977H6.33824V284.655Z" fill="#E6E6E6"/>
<path opacity="0.62" d="M10.2479 284.655H7.8313V286.977H10.2479V284.655Z" fill="white"/>
<path opacity="0.62" d="M14.1542 284.655H11.7375V286.977H14.1542V284.655Z" fill="#CCCCCC"/>
<path opacity="0.62" d="M18.0565 284.655H15.6399V286.977H18.0565V284.655Z" fill="#F2F2F2"/>
<path opacity="0.62" d="M21.9645 284.655H19.5479V286.977H21.9645V284.655Z" fill="#B3B3B3"/>
<path opacity="0.62" d="M25.8661 284.655H23.4495V286.977H25.8661V284.655Z" fill="#CCCCCC"/>
<path opacity="0.62" d="M29.7731 284.655H27.3564V286.977H29.7731V284.655Z" fill="#B3B3B3"/>
<path opacity="0.62" d="M33.6747 284.655H31.2581V286.977H33.6747V284.655Z" fill="#B3B3B3"/>
<path opacity="0.62" d="M37.5834 284.655H35.1667V286.977H37.5834V284.655Z" fill="#E6E6E6"/>
<path opacity="0.62" d="M41.4923 284.655H39.0757V286.977H41.4923V284.655Z" fill="#CCCCCC"/>
<path opacity="0.62" d="M45.3919 284.655H42.9753V286.977H45.3919V284.655Z" fill="#E6E6E6"/>
<path opacity="0.62" d="M6.33824 288.023H3.92163V290.346H6.33824V288.023Z" fill="#F2F2F2"/>
<path opacity="0.62" d="M10.2479 288.023H7.8313V290.346H10.2479V288.023Z" fill="#CCCCCC"/>
<path opacity="0.62" d="M14.1542 288.023H11.7375V290.346H14.1542V288.023Z" fill="#F2F2F2"/>
<path opacity="0.62" d="M18.0565 288.023H15.6399V290.346H18.0565V288.023Z" fill="#B3B3B3"/>
<path opacity="0.62" d="M21.9645 288.023H19.5479V290.346H21.9645V288.023Z" fill="#F2F2F2"/>
<path opacity="0.62" d="M25.8661 288.023H23.4495V290.346H25.8661V288.023Z" fill="white"/>
<path opacity="0.62" d="M29.7731 288.023H27.3564V290.346H29.7731V288.023Z" fill="#CCCCCC"/>
<path opacity="0.62" d="M33.6747 288.023H31.2581V290.346H33.6747V288.023Z" fill="#B3B3B3"/>
<path opacity="0.62" d="M37.5834 288.023H35.1667V290.346H37.5834V288.023Z" fill="#F2F2F2"/>
<path opacity="0.62" d="M41.4923 288.023H39.0757V290.346H41.4923V288.023Z" fill="white"/>
<path opacity="0.62" d="M45.3919 288.023H42.9753V290.346H45.3919V288.023Z" fill="white"/>
<path opacity="0.62" d="M6.33824 291.399H3.92163V293.722H6.33824V291.399Z" fill="#CCCCCC"/>
<path opacity="0.62" d="M10.2479 291.399H7.8313V293.722H10.2479V291.399Z" fill="white"/>
<path opacity="0.62" d="M14.1542 291.399H11.7375V293.722H14.1542V291.399Z" fill="#B3B3B3"/>
<path opacity="0.62" d="M18.0565 291.399H15.6399V293.722H18.0565V291.399Z" fill="white"/>
<path opacity="0.62" d="M21.9645 291.399H19.5479V293.722H21.9645V291.399Z" fill="#E6E6E6"/>
<path opacity="0.62" d="M25.8661 291.399H23.4495V293.722H25.8661V291.399Z" fill="white"/>
<path opacity="0.62" d="M29.7731 291.399H27.3564V293.722H29.7731V291.399Z" fill="#E6E6E6"/>
<path opacity="0.62" d="M33.6747 291.399H31.2581V293.722H33.6747V291.399Z" fill="#E6E6E6"/>
<path opacity="0.62" d="M37.5834 291.399H35.1667V293.722H37.5834V291.399Z" fill="white"/>
<path opacity="0.62" d="M41.4923 291.399H39.0757V293.722H41.4923V291.399Z" fill="#CCCCCC"/>
<path opacity="0.62" d="M45.3919 291.399H42.9753V293.722H45.3919V291.399Z" fill="#B3B3B3"/>
<path opacity="0.62" d="M6.33824 294.767H3.92163V297.09H6.33824V294.767Z" fill="#B3B3B3"/>
<path opacity="0.62" d="M10.2479 294.767H7.8313V297.09H10.2479V294.767Z" fill="#CCCCCC"/>
<path opacity="0.62" d="M14.1542 294.767H11.7375V297.09H14.1542V294.767Z" fill="white"/>
<path opacity="0.62" d="M18.0565 294.767H15.6399V297.09H18.0565V294.767Z" fill="#B3B3B3"/>
<path opacity="0.62" d="M21.9645 294.767H19.5479V297.09H21.9645V294.767Z" fill="#CCCCCC"/>
<path opacity="0.62" d="M25.8661 294.767H23.4495V297.09H25.8661V294.767Z" fill="#E6E6E6"/>
<path opacity="0.62" d="M29.7731 294.767H27.3564V297.09H29.7731V294.767Z" fill="#CCCCCC"/>
<path opacity="0.62" d="M33.6747 294.767H31.2581V297.09H33.6747V294.767Z" fill="#E6E6E6"/>
<path opacity="0.62" d="M37.5834 294.767H35.1667V297.09H37.5834V294.767Z" fill="#B3B3B3"/>
<path opacity="0.62" d="M41.4923 294.767H39.0757V297.09H41.4923V294.767Z" fill="#E6E6E6"/>
<path opacity="0.62" d="M45.3919 294.767H42.9753V297.09H45.3919V294.767Z" fill="#F2F2F2"/>
<path opacity="0.62" d="M6.33824 298.136H3.92163V300.458H6.33824V298.136Z" fill="#CCCCCC"/>
<path opacity="0.62" d="M10.2479 298.136H7.8313V300.458H10.2479V298.136Z" fill="#CCCCCC"/>
<path opacity="0.62" d="M14.1542 298.136H11.7375V300.458H14.1542V298.136Z" fill="#E6E6E6"/>
<path opacity="0.62" d="M18.0565 298.136H15.6399V300.458H18.0565V298.136Z" fill="#CCCCCC"/>
<path opacity="0.62" d="M21.9645 298.136H19.5479V300.458H21.9645V298.136Z" fill="#E6E6E6"/>
<path opacity="0.62" d="M25.8661 298.136H23.4495V300.458H25.8661V298.136Z" fill="#CCCCCC"/>
<path opacity="0.62" d="M29.7731 298.136H27.3564V300.458H29.7731V298.136Z" fill="white"/>
<path opacity="0.62" d="M33.6747 298.136H31.2581V300.458H33.6747V298.136Z" fill="#B3B3B3"/>
<path opacity="0.62" d="M37.5834 298.136H35.1667V300.458H37.5834V298.136Z" fill="#B3B3B3"/>
<path opacity="0.62" d="M41.4923 298.136H39.0757V300.458H41.4923V298.136Z" fill="#CCCCCC"/>
<path opacity="0.62" d="M45.3919 298.136H42.9753V300.458H45.3919V298.136Z" fill="white"/>
<path opacity="0.62" d="M6.33824 301.504H3.92163V303.827H6.33824V301.504Z" fill="#B3B3B3"/>
<path opacity="0.62" d="M10.2479 301.504H7.8313V303.827H10.2479V301.504Z" fill="#E6E6E6"/>
<path opacity="0.62" d="M14.1542 301.504H11.7375V303.827H14.1542V301.504Z" fill="#CCCCCC"/>
<path opacity="0.62" d="M18.0565 301.504H15.6399V303.827H18.0565V301.504Z" fill="#B3B3B3"/>
<path opacity="0.62" d="M21.9645 301.504H19.5479V303.827H21.9645V301.504Z" fill="#B3B3B3"/>
<path opacity="0.62" d="M25.8661 301.504H23.4495V303.827H25.8661V301.504Z" fill="#CCCCCC"/>
<path opacity="0.62" d="M29.7731 301.504H27.3564V303.827H29.7731V301.504Z" fill="#CCCCCC"/>
<path opacity="0.62" d="M33.6747 301.504H31.2581V303.827H33.6747V301.504Z" fill="white"/>
<path opacity="0.62" d="M37.5834 301.504H35.1667V303.827H37.5834V301.504Z" fill="#F2F2F2"/>
<path opacity="0.62" d="M41.4923 301.504H39.0757V303.827H41.4923V301.504Z" fill="#CCCCCC"/>
<path opacity="0.62" d="M45.3919 301.504H42.9753V303.827H45.3919V301.504Z" fill="#E6E6E6"/>
<path opacity="0.62" d="M6.33824 304.872H3.92163V307.195H6.33824V304.872Z" fill="#B3B3B3"/>
<path opacity="0.62" d="M10.2479 304.872H7.8313V307.195H10.2479V304.872Z" fill="white"/>
<path opacity="0.62" d="M14.1542 304.872H11.7375V307.195H14.1542V304.872Z" fill="#B3B3B3"/>
<path opacity="0.62" d="M18.0565 304.872H15.6399V307.195H18.0565V304.872Z" fill="#E6E6E6"/>
<path opacity="0.62" d="M21.9645 304.872H19.5479V307.195H21.9645V304.872Z" fill="#E6E6E6"/>
<path opacity="0.62" d="M25.8661 304.872H23.4495V307.195H25.8661V304.872Z" fill="#B3B3B3"/>
<path opacity="0.62" d="M29.7731 304.872H27.3564V307.195H29.7731V304.872Z" fill="#CCCCCC"/>
<path opacity="0.62" d="M33.6747 304.872H31.2581V307.195H33.6747V304.872Z" fill="#CCCCCC"/>
<path opacity="0.62" d="M37.5834 304.872H35.1667V307.195H37.5834V304.872Z" fill="#B3B3B3"/>
<path opacity="0.62" d="M41.4923 304.872H39.0757V307.195H41.4923V304.872Z" fill="#CCCCCC"/>
<path opacity="0.62" d="M45.3919 304.872H42.9753V307.195H45.3919V304.872Z" fill="#B3B3B3"/>
<path opacity="0.62" d="M6.33824 308.24H3.92163V310.563H6.33824V308.24Z" fill="#F2F2F2"/>
<path opacity="0.62" d="M10.2479 308.24H7.8313V310.563H10.2479V308.24Z" fill="#F2F2F2"/>
<path opacity="0.62" d="M14.1542 308.24H11.7375V310.563H14.1542V308.24Z" fill="#E6E6E6"/>
<path opacity="0.62" d="M18.0565 308.24H15.6399V310.563H18.0565V308.24Z" fill="white"/>
<path opacity="0.62" d="M21.9645 308.24H19.5479V310.563H21.9645V308.24Z" fill="#CCCCCC"/>
<path opacity="0.62" d="M25.8661 308.24H23.4495V310.563H25.8661V308.24Z" fill="#F2F2F2"/>
<path opacity="0.62" d="M29.7731 308.24H27.3564V310.563H29.7731V308.24Z" fill="#E6E6E6"/>
<path opacity="0.62" d="M33.6747 308.24H31.2581V310.563H33.6747V308.24Z" fill="#E6E6E6"/>
<path opacity="0.62" d="M37.5834 308.24H35.1667V310.563H37.5834V308.24Z" fill="#B3B3B3"/>
<path opacity="0.62" d="M41.4923 308.24H39.0757V310.563H41.4923V308.24Z" fill="#CCCCCC"/>
<path opacity="0.62" d="M45.3919 308.24H42.9753V310.563H45.3919V308.24Z" fill="#E6E6E6"/>
<path opacity="0.62" d="M6.33824 311.616H3.92163V313.939H6.33824V311.616Z" fill="#E6E6E6"/>
<path opacity="0.62" d="M10.2479 311.616H7.8313V313.939H10.2479V311.616Z" fill="#CCCCCC"/>
<path opacity="0.62" d="M14.1542 311.616H11.7375V313.939H14.1542V311.616Z" fill="white"/>
<path opacity="0.62" d="M18.0565 311.616H15.6399V313.939H18.0565V311.616Z" fill="#F2F2F2"/>
<path opacity="0.62" d="M21.9645 311.616H19.5479V313.939H21.9645V311.616Z" fill="#F2F2F2"/>
<path opacity="0.62" d="M25.8661 311.616H23.4495V313.939H25.8661V311.616Z" fill="#F2F2F2"/>
<path opacity="0.62" d="M29.7731 311.616H27.3564V313.939H29.7731V311.616Z" fill="#CCCCCC"/>
<path opacity="0.62" d="M33.6747 311.616H31.2581V313.939H33.6747V311.616Z" fill="#F2F2F2"/>
<path opacity="0.62" d="M37.5834 311.616H35.1667V313.939H37.5834V311.616Z" fill="#F2F2F2"/>
<path opacity="0.62" d="M41.4923 311.616H39.0757V313.939H41.4923V311.616Z" fill="#F2F2F2"/>
<path opacity="0.62" d="M45.3919 311.616H42.9753V313.939H45.3919V311.616Z" fill="#E6E6E6"/>
<path opacity="0.62" d="M6.33824 314.984H3.92163V317.307H6.33824V314.984Z" fill="#E6E6E6"/>
<path opacity="0.62" d="M10.2479 314.984H7.8313V317.307H10.2479V314.984Z" fill="#CCCCCC"/>
<path opacity="0.62" d="M14.1542 314.984H11.7375V317.307H14.1542V314.984Z" fill="#E6E6E6"/>
<path opacity="0.62" d="M18.0565 314.984H15.6399V317.307H18.0565V314.984Z" fill="#F2F2F2"/>
<path opacity="0.62" d="M21.9645 314.984H19.5479V317.307H21.9645V314.984Z" fill="#CCCCCC"/>
<path opacity="0.62" d="M25.8661 314.984H23.4495V317.307H25.8661V314.984Z" fill="#CCCCCC"/>
<path opacity="0.62" d="M29.7731 314.984H27.3564V317.307H29.7731V314.984Z" fill="white"/>
<path opacity="0.62" d="M33.6747 314.984H31.2581V317.307H33.6747V314.984Z" fill="#E6E6E6"/>
<path opacity="0.62" d="M37.5834 314.984H35.1667V317.307H37.5834V314.984Z" fill="#B3B3B3"/>
<path opacity="0.62" d="M41.4923 314.984H39.0757V317.307H41.4923V314.984Z" fill="#E6E6E6"/>
<path opacity="0.62" d="M45.3919 314.984H42.9753V317.307H45.3919V314.984Z" fill="#CCCCCC"/>
<path opacity="0.62" d="M6.33824 318.353H3.92163V320.675H6.33824V318.353Z" fill="#CCCCCC"/>
<path opacity="0.62" d="M10.2479 318.353H7.8313V320.675H10.2479V318.353Z" fill="#CCCCCC"/>
<path opacity="0.62" d="M14.1542 318.353H11.7375V320.675H14.1542V318.353Z" fill="white"/>
<path opacity="0.62" d="M18.0565 318.353H15.6399V320.675H18.0565V318.353Z" fill="#F2F2F2"/>
<path opacity="0.62" d="M21.9645 318.353H19.5479V320.675H21.9645V318.353Z" fill="#B3B3B3"/>
<path opacity="0.62" d="M25.8661 318.353H23.4495V320.675H25.8661V318.353Z" fill="white"/>
<path opacity="0.62" d="M29.7731 318.353H27.3564V320.675H29.7731V318.353Z" fill="#E6E6E6"/>
<path opacity="0.62" d="M33.6747 318.353H31.2581V320.675H33.6747V318.353Z" fill="#CCCCCC"/>
<path opacity="0.62" d="M37.5834 318.353H35.1667V320.675H37.5834V318.353Z" fill="#CCCCCC"/>
<path opacity="0.62" d="M41.4923 318.353H39.0757V320.675H41.4923V318.353Z" fill="#B3B3B3"/>
<path opacity="0.62" d="M45.3919 318.353H42.9753V320.675H45.3919V318.353Z" fill="#B3B3B3"/>
<path opacity="0.62" d="M6.33824 321.721H3.92163V324.043H6.33824V321.721Z" fill="#CCCCCC"/>
<path opacity="0.62" d="M10.2479 321.721H7.8313V324.043H10.2479V321.721Z" fill="white"/>
<path opacity="0.62" d="M14.1542 321.721H11.7375V324.043H14.1542V321.721Z" fill="#E6E6E6"/>
<path opacity="0.62" d="M18.0565 321.721H15.6399V324.043H18.0565V321.721Z" fill="#B3B3B3"/>
<path opacity="0.62" d="M21.9645 321.721H19.5479V324.043H21.9645V321.721Z" fill="#F2F2F2"/>
<path opacity="0.62" d="M25.8661 321.721H23.4495V324.043H25.8661V321.721Z" fill="white"/>
<path opacity="0.62" d="M29.7731 321.721H27.3564V324.043H29.7731V321.721Z" fill="#CCCCCC"/>
<path opacity="0.62" d="M33.6747 321.721H31.2581V324.043H33.6747V321.721Z" fill="#CCCCCC"/>
<path opacity="0.62" d="M37.5834 321.721H35.1667V324.043H37.5834V321.721Z" fill="#E6E6E6"/>
<path opacity="0.62" d="M41.4923 321.721H39.0757V324.043H41.4923V321.721Z" fill="#CCCCCC"/>
<path opacity="0.62" d="M45.3919 321.721H42.9753V324.043H45.3919V321.721Z" fill="#CCCCCC"/>
<path opacity="0.62" d="M6.33824 325.089H3.92163V327.412H6.33824V325.089Z" fill="#B3B3B3"/>
<path opacity="0.62" d="M10.2479 325.089H7.8313V327.412H10.2479V325.089Z" fill="#E6E6E6"/>
<path opacity="0.62" d="M14.1542 325.089H11.7375V327.412H14.1542V325.089Z" fill="#E6E6E6"/>
<path opacity="0.62" d="M18.0565 325.089H15.6399V327.412H18.0565V325.089Z" fill="#E6E6E6"/>
<path opacity="0.62" d="M21.9645 325.089H19.5479V327.412H21.9645V325.089Z" fill="#CCCCCC"/>
<path opacity="0.62" d="M25.8661 325.089H23.4495V327.412H25.8661V325.089Z" fill="#CCCCCC"/>
<path opacity="0.62" d="M29.7731 325.089H27.3564V327.412H29.7731V325.089Z" fill="#B3B3B3"/>
<path opacity="0.62" d="M33.6747 325.089H31.2581V327.412H33.6747V325.089Z" fill="#CCCCCC"/>
<path opacity="0.62" d="M37.5834 325.089H35.1667V327.412H37.5834V325.089Z" fill="white"/>
<path opacity="0.62" d="M41.4923 325.089H39.0757V327.412H41.4923V325.089Z" fill="white"/>
<path opacity="0.62" d="M45.3919 325.089H42.9753V327.412H45.3919V325.089Z" fill="#CCCCCC"/>
<path opacity="0.62" d="M6.33824 328.465H3.92163V330.788H6.33824V328.465Z" fill="#B3B3B3"/>
<path opacity="0.62" d="M10.2479 328.465H7.8313V330.788H10.2479V328.465Z" fill="#E6E6E6"/>
<path opacity="0.62" d="M14.1542 328.465H11.7375V330.788H14.1542V328.465Z" fill="#E6E6E6"/>
<path opacity="0.62" d="M18.0565 328.465H15.6399V330.788H18.0565V328.465Z" fill="#CCCCCC"/>
<path opacity="0.62" d="M21.9645 328.465H19.5479V330.788H21.9645V328.465Z" fill="#E6E6E6"/>
<path opacity="0.62" d="M25.8661 328.465H23.4495V330.788H25.8661V328.465Z" fill="#B3B3B3"/>
<path opacity="0.62" d="M29.7731 328.465H27.3564V330.788H29.7731V328.465Z" fill="#CCCCCC"/>
<path opacity="0.62" d="M33.6747 328.465H31.2581V330.788H33.6747V328.465Z" fill="#B3B3B3"/>
<path opacity="0.62" d="M37.5834 328.465H35.1667V330.788H37.5834V328.465Z" fill="white"/>
<path opacity="0.62" d="M41.4923 328.465H39.0757V330.788H41.4923V328.465Z" fill="white"/>
<path opacity="0.62" d="M45.3919 328.465H42.9753V330.788H45.3919V328.465Z" fill="#CCCCCC"/>
<path opacity="0.62" d="M6.33824 331.833H3.92163V334.156H6.33824V331.833Z" fill="#E6E6E6"/>
<path opacity="0.62" d="M10.2479 331.833H7.8313V334.156H10.2479V331.833Z" fill="#E6E6E6"/>
<path opacity="0.62" d="M14.1542 331.833H11.7375V334.156H14.1542V331.833Z" fill="#CCCCCC"/>
<path opacity="0.62" d="M18.0565 331.833H15.6399V334.156H18.0565V331.833Z" fill="white"/>
<path opacity="0.62" d="M21.9645 331.833H19.5479V334.156H21.9645V331.833Z" fill="#B3B3B3"/>
<path opacity="0.62" d="M25.8661 331.833H23.4495V334.156H25.8661V331.833Z" fill="white"/>
<path opacity="0.62" d="M29.7731 331.833H27.3564V334.156H29.7731V331.833Z" fill="#CCCCCC"/>
<path opacity="0.62" d="M33.6747 331.833H31.2581V334.156H33.6747V331.833Z" fill="#E6E6E6"/>
<path opacity="0.62" d="M37.5834 331.833H35.1667V334.156H37.5834V331.833Z" fill="#B3B3B3"/>
<path opacity="0.62" d="M41.4923 331.833H39.0757V334.156H41.4923V331.833Z" fill="#CCCCCC"/>
<path opacity="0.62" d="M45.3919 331.833H42.9753V334.156H45.3919V331.833Z" fill="#B3B3B3"/>
<path opacity="0.62" d="M6.33824 335.201H3.92163V337.524H6.33824V335.201Z" fill="#CCCCCC"/>
<path opacity="0.62" d="M10.2479 335.201H7.8313V337.524H10.2479V335.201Z" fill="#B3B3B3"/>
<path opacity="0.62" d="M14.1542 335.201H11.7375V337.524H14.1542V335.201Z" fill="#E6E6E6"/>
<path opacity="0.62" d="M18.0565 335.201H15.6399V337.524H18.0565V335.201Z" fill="#CCCCCC"/>
<path opacity="0.62" d="M21.9645 335.201H19.5479V337.524H21.9645V335.201Z" fill="#E6E6E6"/>
<path opacity="0.62" d="M25.8661 335.201H23.4495V337.524H25.8661V335.201Z" fill="#F2F2F2"/>
<path opacity="0.62" d="M29.7731 335.201H27.3564V337.524H29.7731V335.201Z" fill="#B3B3B3"/>
<path opacity="0.62" d="M33.6747 335.201H31.2581V337.524H33.6747V335.201Z" fill="#CCCCCC"/>
<path opacity="0.62" d="M37.5834 335.201H35.1667V337.524H37.5834V335.201Z" fill="#E6E6E6"/>
<path opacity="0.62" d="M41.4923 335.201H39.0757V337.524H41.4923V335.201Z" fill="#CCCCCC"/>
<path opacity="0.62" d="M45.3919 335.201H42.9753V337.524H45.3919V335.201Z" fill="#E6E6E6"/>
<path opacity="0.62" d="M6.33824 338.57H3.92163V340.892H6.33824V338.57Z" fill="#CCCCCC"/>
<path opacity="0.62" d="M10.2479 338.57H7.8313V340.892H10.2479V338.57Z" fill="#E6E6E6"/>
<path opacity="0.62" d="M14.1542 338.57H11.7375V340.892H14.1542V338.57Z" fill="white"/>
<path opacity="0.62" d="M18.0565 338.57H15.6399V340.892H18.0565V338.57Z" fill="#CCCCCC"/>
<path opacity="0.62" d="M21.9645 338.57H19.5479V340.892H21.9645V338.57Z" fill="#CCCCCC"/>
<path opacity="0.62" d="M25.8661 338.57H23.4495V340.892H25.8661V338.57Z" fill="#E6E6E6"/>
<path opacity="0.62" d="M29.7731 338.57H27.3564V340.892H29.7731V338.57Z" fill="#B3B3B3"/>
<path opacity="0.62" d="M33.6747 338.57H31.2581V340.892H33.6747V338.57Z" fill="#CCCCCC"/>
<path opacity="0.62" d="M37.5834 338.57H35.1667V340.892H37.5834V338.57Z" fill="#B3B3B3"/>
<path opacity="0.62" d="M41.4923 338.57H39.0757V340.892H41.4923V338.57Z" fill="#B3B3B3"/>
<path opacity="0.62" d="M45.3919 338.57H42.9753V340.892H45.3919V338.57Z" fill="#B3B3B3"/>
<path opacity="0.62" d="M6.33824 341.938H3.92163V344.261H6.33824V341.938Z" fill="#B3B3B3"/>
<path opacity="0.62" d="M10.2479 341.938H7.8313V344.261H10.2479V341.938Z" fill="white"/>
<path opacity="0.62" d="M14.1542 341.938H11.7375V344.261H14.1542V341.938Z" fill="#E6E6E6"/>
<path opacity="0.62" d="M18.0565 341.938H15.6399V344.261H18.0565V341.938Z" fill="#B3B3B3"/>
<path opacity="0.62" d="M21.9645 341.938H19.5479V344.261H21.9645V341.938Z" fill="#CCCCCC"/>
<path opacity="0.62" d="M25.8661 341.938H23.4495V344.261H25.8661V341.938Z" fill="#E6E6E6"/>
<path opacity="0.62" d="M29.7731 341.938H27.3564V344.261H29.7731V341.938Z" fill="white"/>
<path opacity="0.62" d="M33.6747 341.938H31.2581V344.261H33.6747V341.938Z" fill="#F2F2F2"/>
<path opacity="0.62" d="M37.5834 341.938H35.1667V344.261H37.5834V341.938Z" fill="#CCCCCC"/>
<path opacity="0.62" d="M41.4923 341.938H39.0757V344.261H41.4923V341.938Z" fill="#CCCCCC"/>
<path opacity="0.62" d="M45.3919 341.938H42.9753V344.261H45.3919V341.938Z" fill="#E6E6E6"/>
<path opacity="0.62" d="M6.33824 345.313H3.92163V347.636H6.33824V345.313Z" fill="#B3B3B3"/>
<path opacity="0.62" d="M10.2479 345.313H7.8313V347.636H10.2479V345.313Z" fill="#F2F2F2"/>
<path opacity="0.62" d="M14.1542 345.313H11.7375V347.636H14.1542V345.313Z" fill="#B3B3B3"/>
<path opacity="0.62" d="M18.0565 345.313H15.6399V347.636H18.0565V345.313Z" fill="#F2F2F2"/>
<path opacity="0.62" d="M21.9645 345.313H19.5479V347.636H21.9645V345.313Z" fill="#E6E6E6"/>
<path opacity="0.62" d="M25.8661 345.313H23.4495V347.636H25.8661V345.313Z" fill="#F2F2F2"/>
<path opacity="0.62" d="M29.7731 345.313H27.3564V347.636H29.7731V345.313Z" fill="#E6E6E6"/>
<path opacity="0.62" d="M33.6747 345.313H31.2581V347.636H33.6747V345.313Z" fill="#F2F2F2"/>
<path opacity="0.62" d="M37.5834 345.313H35.1667V347.636H37.5834V345.313Z" fill="#CCCCCC"/>
<path opacity="0.62" d="M41.4923 345.313H39.0757V347.636H41.4923V345.313Z" fill="#B3B3B3"/>
<path opacity="0.62" d="M45.3919 345.313H42.9753V347.636H45.3919V345.313Z" fill="white"/>
<path opacity="0.62" d="M6.33824 348.682H3.92163V351.005H6.33824V348.682Z" fill="#CCCCCC"/>
<path opacity="0.62" d="M10.2479 348.682H7.8313V351.005H10.2479V348.682Z" fill="#B3B3B3"/>
<path opacity="0.62" d="M14.1542 348.682H11.7375V351.005H14.1542V348.682Z" fill="#CCCCCC"/>
<path opacity="0.62" d="M18.0565 348.682H15.6399V351.005H18.0565V348.682Z" fill="#CCCCCC"/>
<path opacity="0.62" d="M21.9645 348.682H19.5479V351.005H21.9645V348.682Z" fill="#CCCCCC"/>
<path opacity="0.62" d="M25.8661 348.682H23.4495V351.005H25.8661V348.682Z" fill="white"/>
<path opacity="0.62" d="M29.7731 348.682H27.3564V351.005H29.7731V348.682Z" fill="#CCCCCC"/>
<path opacity="0.62" d="M33.6747 348.682H31.2581V351.005H33.6747V348.682Z" fill="#E6E6E6"/>
<path opacity="0.62" d="M37.5834 348.682H35.1667V351.005H37.5834V348.682Z" fill="#CCCCCC"/>
<path opacity="0.62" d="M41.4923 348.682H39.0757V351.005H41.4923V348.682Z" fill="#E6E6E6"/>
<path opacity="0.62" d="M45.3919 348.682H42.9753V351.005H45.3919V348.682Z" fill="#E6E6E6"/>
<path opacity="0.62" d="M6.33824 352.05H3.92163V354.373H6.33824V352.05Z" fill="#CCCCCC"/>
<path opacity="0.62" d="M10.2479 352.05H7.8313V354.373H10.2479V352.05Z" fill="#CCCCCC"/>
<path opacity="0.62" d="M14.1542 352.05H11.7375V354.373H14.1542V352.05Z" fill="#CCCCCC"/>
<path opacity="0.62" d="M18.0565 352.05H15.6399V354.373H18.0565V352.05Z" fill="white"/>
<path opacity="0.62" d="M21.9645 352.05H19.5479V354.373H21.9645V352.05Z" fill="#E6E6E6"/>
<path opacity="0.62" d="M25.8661 352.05H23.4495V354.373H25.8661V352.05Z" fill="#CCCCCC"/>
<path opacity="0.62" d="M29.7731 352.05H27.3564V354.373H29.7731V352.05Z" fill="#E6E6E6"/>
<path opacity="0.62" d="M33.6747 352.05H31.2581V354.373H33.6747V352.05Z" fill="#CCCCCC"/>
<path opacity="0.62" d="M37.5834 352.05H35.1667V354.373H37.5834V352.05Z" fill="#B3B3B3"/>
<path opacity="0.62" d="M41.4923 352.05H39.0757V354.373H41.4923V352.05Z" fill="#B3B3B3"/>
<path opacity="0.62" d="M45.3919 352.05H42.9753V354.373H45.3919V352.05Z" fill="#CCCCCC"/>
<path opacity="0.62" d="M6.33824 355.418H3.92163V357.741H6.33824V355.418Z" fill="#CCCCCC"/>
<path opacity="0.62" d="M10.2479 355.418H7.8313V357.741H10.2479V355.418Z" fill="#E6E6E6"/>
<path opacity="0.62" d="M14.1542 355.418H11.7375V357.741H14.1542V355.418Z" fill="#E6E6E6"/>
<path opacity="0.62" d="M18.0565 355.418H15.6399V357.741H18.0565V355.418Z" fill="#CCCCCC"/>
<path opacity="0.62" d="M21.9645 355.418H19.5479V357.741H21.9645V355.418Z" fill="#E6E6E6"/>
<path opacity="0.62" d="M25.8661 355.418H23.4495V357.741H25.8661V355.418Z" fill="#F2F2F2"/>
<path opacity="0.62" d="M29.7731 355.418H27.3564V357.741H29.7731V355.418Z" fill="#CCCCCC"/>
<path opacity="0.62" d="M33.6747 355.418H31.2581V357.741H33.6747V355.418Z" fill="#CCCCCC"/>
<path opacity="0.62" d="M37.5834 355.418H35.1667V357.741H37.5834V355.418Z" fill="#E6E6E6"/>
<path opacity="0.62" d="M41.4923 355.418H39.0757V357.741H41.4923V355.418Z" fill="#CCCCCC"/>
<path opacity="0.62" d="M45.3919 355.418H42.9753V357.741H45.3919V355.418Z" fill="#CCCCCC"/>
<path opacity="0.62" d="M6.33824 358.787H3.92163V361.109H6.33824V358.787Z" fill="white"/>
<path opacity="0.62" d="M10.2479 358.787H7.8313V361.109H10.2479V358.787Z" fill="#CCCCCC"/>
<path opacity="0.62" d="M14.1542 358.787H11.7375V361.109H14.1542V358.787Z" fill="#E6E6E6"/>
<path opacity="0.62" d="M18.0565 358.787H15.6399V361.109H18.0565V358.787Z" fill="#E6E6E6"/>
<path opacity="0.62" d="M21.9645 358.787H19.5479V361.109H21.9645V358.787Z" fill="#B3B3B3"/>
<path opacity="0.62" d="M25.8661 358.787H23.4495V361.109H25.8661V358.787Z" fill="#B3B3B3"/>
<path opacity="0.62" d="M29.7731 358.787H27.3564V361.109H29.7731V358.787Z" fill="#E6E6E6"/>
<path opacity="0.62" d="M33.6747 358.787H31.2581V361.109H33.6747V358.787Z" fill="#CCCCCC"/>
<path opacity="0.62" d="M37.5834 358.787H35.1667V361.109H37.5834V358.787Z" fill="#B3B3B3"/>
<path opacity="0.62" d="M41.4923 358.787H39.0757V361.109H41.4923V358.787Z" fill="#E6E6E6"/>
<path opacity="0.62" d="M45.3919 358.787H42.9753V361.109H45.3919V358.787Z" fill="#CCCCCC"/>
<path opacity="0.62" d="M6.33824 362.163H3.92163V364.485H6.33824V362.163Z" fill="#CCCCCC"/>
<path opacity="0.62" d="M10.2479 362.163H7.8313V364.485H10.2479V362.163Z" fill="#CCCCCC"/>
<path opacity="0.62" d="M14.1542 362.163H11.7375V364.485H14.1542V362.163Z" fill="#E6E6E6"/>
<path opacity="0.62" d="M18.0565 362.163H15.6399V364.485H18.0565V362.163Z" fill="#E6E6E6"/>
<path opacity="0.62" d="M21.9645 362.163H19.5479V364.485H21.9645V362.163Z" fill="#CCCCCC"/>
<path opacity="0.62" d="M25.8661 362.163H23.4495V364.485H25.8661V362.163Z" fill="#E6E6E6"/>
<path opacity="0.62" d="M29.7731 362.163H27.3564V364.485H29.7731V362.163Z" fill="#E6E6E6"/>
<path opacity="0.62" d="M33.6747 362.163H31.2581V364.485H33.6747V362.163Z" fill="#F2F2F2"/>
<path opacity="0.62" d="M37.5834 362.163H35.1667V364.485H37.5834V362.163Z" fill="#F2F2F2"/>
<path opacity="0.62" d="M41.4923 362.163H39.0757V364.485H41.4923V362.163Z" fill="#B3B3B3"/>
<path opacity="0.62" d="M45.3919 362.163H42.9753V364.485H45.3919V362.163Z" fill="#CCCCCC"/>
<path opacity="0.62" d="M6.33824 365.531H3.92163V367.853H6.33824V365.531Z" fill="#CCCCCC"/>
<path opacity="0.62" d="M10.2479 365.531H7.8313V367.853H10.2479V365.531Z" fill="white"/>
<path opacity="0.62" d="M14.1542 365.531H11.7375V367.853H14.1542V365.531Z" fill="#CCCCCC"/>
<path opacity="0.62" d="M18.0565 365.531H15.6399V367.853H18.0565V365.531Z" fill="#CCCCCC"/>
<path opacity="0.62" d="M21.9645 365.531H19.5479V367.853H21.9645V365.531Z" fill="#B3B3B3"/>
<path opacity="0.62" d="M25.8661 365.531H23.4495V367.853H25.8661V365.531Z" fill="#CCCCCC"/>
<path opacity="0.62" d="M29.7731 365.531H27.3564V367.853H29.7731V365.531Z" fill="#CCCCCC"/>
<path opacity="0.62" d="M33.6747 365.531H31.2581V367.853H33.6747V365.531Z" fill="#B3B3B3"/>
<path opacity="0.62" d="M37.5834 365.531H35.1667V367.853H37.5834V365.531Z" fill="#CCCCCC"/>
<path opacity="0.62" d="M41.4923 365.531H39.0757V367.853H41.4923V365.531Z" fill="#CCCCCC"/>
<path opacity="0.62" d="M45.3919 365.531H42.9753V367.853H45.3919V365.531Z" fill="#E6E6E6"/>
</g>
<path d="M351.898 237.619L351.875 184.19V136.123H351.851L351.844 108.669H351.774L351.75 41.737H349.295V37.6592H346.668V27.2482H340.576V27.2109L340.312 14.1038L340.25 10.6235H341.431V10.3696H340.25L340.087 0.966797H339.426L339.232 10.3696H338.152V10.6235H339.232L339.162 14.1038L338.906 27.2109V27.2482H332.744V37.6592H330.117V41.737H327.662L327.677 89.1167H321.974V103.172H317.856V108.669H313.986L314.009 154.398H311.235V159.947L303.348 163.913V160.933H299.082V393.732H301.235H303.348H311.235H315.501H335.456H339.722H347.609H349.722H351.875V237.619H351.898Z" fill="#0A0024"/>
<g opacity="0.88">
<path opacity="0.88" d="M310.785 181.568H309.79V372.536H310.785V181.568Z" fill="#C7DBD9"/>
<path opacity="0.88" d="M321.267 181.568H320.272V372.536H321.267V181.568Z" fill="#C7DBD9"/>
<path opacity="0.88" d="M331.702 118.654H330.676V372.581H331.671L331.702 118.654Z" fill="#C7DBD9"/>
<path opacity="0.88" d="M336.893 118.654H335.899V372.581H336.893V118.654Z" fill="#C7DBD9"/>
<path opacity="0.88" d="M342.146 118.654H341.144V372.581H342.146V118.654Z" fill="#C7DBD9"/>
<path opacity="0.88" d="M326.489 118.654H325.487V372.581H326.489V118.654Z" fill="#C7DBD9"/>
<path opacity="0.88" d="M316.006 181.568H315.011V372.536H316.006V181.568Z" fill="#C7DBD9"/>
</g>
<path d="M185.687 266.253H179.805V258.703H180.598V257.493H175.189V253.169H175.663V252.22H173.332V248.09H171.125H170.768V233.407H170.535H170.216H169.937V248.09H168.872V239.897H168.639H168.359H168.048V248.09H165.484V252.22H162.796V253.169H163.627V257.493H158.258V258.703H159.011V266.253H153.129V267.508H153.961V384.815H184.856V267.508H185.687V266.253Z" fill="#0D0030"/>
<path d="M170.885 282.863H169.665V285.403H170.885V282.863Z" fill="#C7DBD9"/>
<path d="M175.268 282.863H174.048V285.403H175.268V282.863Z" fill="#C7DBD9"/>
<path d="M180.357 282.863H179.153V285.403H180.373L180.357 282.863Z" fill="#C7DBD9"/>
<path d="M161.219 282.863H159.999V285.403H161.219V282.863Z" fill="#C7DBD9"/>
<path d="M165.563 282.863H164.335V285.403H165.563V282.863Z" fill="#C7DBD9"/>
<path d="M170.885 287.262H169.665V289.809H170.885V287.262Z" fill="#C7DBD9"/>
<path d="M175.268 287.262H174.048V289.809H175.268V287.262Z" fill="#C7DBD9"/>
<path d="M180.357 287.262H179.153V289.809H180.373L180.357 287.262Z" fill="#C7DBD9"/>
<path d="M161.219 287.262H159.999V289.809H161.219V287.262Z" fill="#C7DBD9"/>
<path d="M165.563 287.262H164.335V289.809H165.563V287.262Z" fill="#C7DBD9"/>
<path d="M170.885 291.661H169.665V294.208H170.885V291.661Z" fill="#C7DBD9"/>
<path d="M175.268 291.661H174.048V294.208H175.268V291.661Z" fill="#C7DBD9"/>
<path d="M180.357 291.661H179.153V294.208H180.373L180.357 291.661Z" fill="#C7DBD9"/>
<path d="M161.219 291.661H159.999V294.208H161.219V291.661Z" fill="#C7DBD9"/>
<path d="M165.563 291.661H164.335V294.208H165.563V291.661Z" fill="#C7DBD9"/>
<path d="M170.768 296.06H169.548V298.644H170.768V296.06Z" fill="#C7DBD9"/>
<path d="M175.151 296.06H173.923V298.644H175.151V296.06Z" fill="#C7DBD9"/>
<path d="M180.241 296.06H179.021V298.644H180.241V296.06Z" fill="#C7DBD9"/>
<path d="M161.102 296.06H159.882V298.644H161.102V296.06Z" fill="#C7DBD9"/>
<path d="M165.447 296.06H164.219V298.644H165.447V296.06Z" fill="#C7DBD9"/>
<path d="M170.768 300.466H169.548V303.006H170.768V300.466Z" fill="#C7DBD9"/>
<path d="M175.151 300.466H173.923V303.006H175.151V300.466Z" fill="#C7DBD9"/>
<path d="M180.241 300.466H179.021V303.006H180.241V300.466Z" fill="#C7DBD9"/>
<path d="M161.102 300.466H159.882V303.006H161.102V300.466Z" fill="#C7DBD9"/>
<path d="M165.447 300.466H164.219V303.006H165.447V300.466Z" fill="#C7DBD9"/>
<path d="M170.768 304.865H169.548V307.404H170.768V304.865Z" fill="#C7DBD9"/>
<path d="M175.151 304.865H173.923V307.404H175.151V304.865Z" fill="#C7DBD9"/>
<path d="M180.241 304.865H179.021V307.404H180.241V304.865Z" fill="#C7DBD9"/>
<path d="M161.102 304.865H159.882V307.404H161.102V304.865Z" fill="#C7DBD9"/>
<path d="M165.447 304.865H164.219V307.404H165.447V304.865Z" fill="#C7DBD9"/>
<defs>
<linearGradient id="paint0_linear_514_18465" x1="217.359" y1="198.35" x2="217.359" y2="337.853" gradientUnits="userSpaceOnUse">
<stop stop-color="#4F044A"/>
<stop offset="1" stop-color="#0D0030"/>
</linearGradient>
<linearGradient id="paint1_linear_514_18465" x1="479.473" y1="378.579" x2="479.473" y2="95.8687" gradientUnits="userSpaceOnUse">
<stop stop-color="#071859"/>
<stop offset="0.74" stop-color="#000037"/>
</linearGradient>
<linearGradient id="paint2_linear_514_18465" x1="66322.3" y1="164842" x2="66322.3" y2="77452" gradientUnits="userSpaceOnUse">
<stop stop-color="#071859"/>
<stop offset="0.74" stop-color="#000037"/>
</linearGradient>
<linearGradient id="paint3_linear_514_18465" x1="-14815.6" y1="-85155.1" x2="-14815.6" y2="-32196.1" gradientUnits="userSpaceOnUse">
<stop stop-color="#120055"/>
<stop offset="0.7" stop-color="#10002A"/>
</linearGradient>
</defs>
</svg>
