<svg width="995" height="508" viewBox="0 0 995 508" fill="none" xmlns="http://www.w3.org/2000/svg">
<mask id="mask0_986_228" style="mask-type:alpha" maskUnits="userSpaceOnUse" x="0" y="0" width="995" height="508">
<rect width="995" height="508" fill="#C4C4C4"/>
</mask>
<g mask="url(#mask0_986_228)">
<path d="M823.721 236.5H807.992V219.349H810.003V216.591H795.586V206.709H796.889V204.576H790.658V195.221H784.776H783.832V161.891H783.18H782.35H781.575V195.221H778.781V176.673H778.129H777.299H776.468V195.221H769.642V204.576H762.466V206.709H764.723V216.591H750.297V219.349H752.374V236.5H736.645V239.358H738.844V505.716H821.521V239.358H823.721V236.5Z" fill="#110045"/>
<path d="M325.928 269.929H266.552V439.428H325.928V269.929Z" fill="url(#paint0_linear_986_228)"/>
<path d="M327.438 263.441H263.086V269.929H327.438V263.441Z" fill="#4F044A"/>
<path d="M295.262 245.801H269.176V280.174H295.262V245.801Z" fill="#4F044A"/>
<path d="M308.15 245.801H303.75V266.672H308.15V245.801Z" fill="#4F044A"/>
<path d="M317.307 245.801H312.501V266.672H317.307V245.801Z" fill="#4F044A"/>
<path d="M279.93 277.933H277.192V285.619H279.902L279.93 277.933Z" fill="#C7DBD9"/>
<path d="M279.93 292.67H277.192V300.356H279.902L279.93 292.67Z" fill="#C7DBD9"/>
<path d="M279.93 307.397H277.192V315.092H279.902L279.93 307.397Z" fill="#C7DBD9"/>
<path d="M279.93 322.062H277.192V329.747H279.902L279.93 322.062Z" fill="#C7DBD9"/>
<path d="M279.93 335.945H277.192V343.631H279.902L279.93 335.945Z" fill="#C7DBD9"/>
<path d="M279.93 350.636H277.192V358.322H279.902L279.93 350.636Z" fill="#C7DBD9"/>
<path d="M291.524 277.933H288.814V285.619H291.524V277.933Z" fill="#C7DBD9"/>
<path d="M291.524 292.67H288.814V300.356H291.524V292.67Z" fill="#C7DBD9"/>
<path d="M291.524 307.397H288.814V315.092H291.524V307.397Z" fill="#C7DBD9"/>
<path d="M291.524 322.062H288.814V329.747H291.524V322.062Z" fill="#C7DBD9"/>
<path d="M291.524 335.945H288.814V343.631H291.524V335.945Z" fill="#C7DBD9"/>
<path d="M291.524 350.636H288.814V358.322H291.524V350.636Z" fill="#C7DBD9"/>
<path d="M303.081 277.933H300.371V285.619H303.081V277.933Z" fill="#C7DBD9"/>
<path d="M303.081 292.67H300.371V300.356H303.081V292.67Z" fill="#C7DBD9"/>
<path d="M303.081 307.397H300.371V315.092H303.081V307.397Z" fill="#C7DBD9"/>
<path d="M303.081 322.062H300.371V329.747H303.081V322.062Z" fill="#C7DBD9"/>
<path d="M303.081 335.945H300.371V343.631H303.081V335.945Z" fill="#C7DBD9"/>
<path d="M303.081 350.636H300.371V358.322H303.081V350.636Z" fill="#C7DBD9"/>
<path d="M314.637 277.933H311.927V285.619H314.637V277.933Z" fill="#C7DBD9"/>
<path d="M314.637 292.67H311.927V300.356H314.637V292.67Z" fill="#C7DBD9"/>
<path d="M314.637 307.397H311.927V315.092H314.637V307.397Z" fill="#C7DBD9"/>
<path d="M314.637 322.062H311.927V329.747H314.637V322.062Z" fill="#C7DBD9"/>
<path d="M314.637 335.945H311.927V343.631H314.637V335.945Z" fill="#C7DBD9"/>
<path d="M314.637 350.636H311.927V358.322H314.637V350.636Z" fill="#C7DBD9"/>
<path d="M647.962 223.977V202.988H637.001V145.412H591.815V202.988H581.468V223.977H576.039V488.911H653.391V223.977H647.962Z" fill="url(#paint1_linear_986_228)"/>
<path d="M644.497 179.376H640.475V203.115H644.497V179.376Z" fill="#000037"/>
<path d="M612.85 115.112H595.657V146.083H612.85V115.112Z" fill="#000037"/>
<path d="M612.86 100.657H604.259V118.778H612.86V100.657Z" fill="#000037"/>
<path d="M608.969 60.6846H608.148V103.479H608.969V60.6846Z" fill="#000047"/>
<path d="M643.043 136.972H641.929V179.694H643.043V136.972Z" fill="#000037"/>
<path d="M592.693 235.093V480.009" stroke="white" stroke-miterlimit="10"/>
<path d="M600.03 235.093V480.009" stroke="white" stroke-miterlimit="10"/>
<path d="M607.375 214.14V480.008" stroke="white" stroke-miterlimit="10"/>
<path d="M614.711 214.14V480.008" stroke="white" stroke-miterlimit="10"/>
<path d="M622.054 214.14V480.008" stroke="white" stroke-miterlimit="10"/>
<path d="M629.391 235.093V480.009" stroke="white" stroke-miterlimit="10"/>
<path d="M636.737 235.093V480.009" stroke="white" stroke-miterlimit="10"/>
<path d="M990.917 277.307V258.341H981.013V206.309H940.189V258.341H930.842V277.307H925.933V516.714H995.827V277.307H990.917Z" fill="url(#paint2_linear_986_228)"/>
<path d="M987.79 237.007H984.156V258.459H987.79V237.007Z" fill="#000037"/>
<path d="M959.202 178.932H943.662V206.917H959.202V178.932Z" fill="#000037"/>
<path d="M959.203 165.874H951.433V182.253H959.203V165.874Z" fill="#000037"/>
<path d="M955.682 129.749H954.946V168.415H955.682V129.749Z" fill="#000047"/>
<path d="M986.478 198.687H985.468V237.289H986.478V198.687Z" fill="#000037"/>
<path d="M940.983 287.353V508.666" stroke="white" stroke-miterlimit="10"/>
<path d="M947.61 287.353V508.666" stroke="white" stroke-miterlimit="10"/>
<path d="M954.248 268.423V508.666" stroke="white" stroke-miterlimit="10"/>
<path d="M960.884 268.423V508.666" stroke="white" stroke-miterlimit="10"/>
<path d="M967.512 268.423V508.666" stroke="white" stroke-miterlimit="10"/>
<path d="M974.149 287.353V508.666" stroke="white" stroke-miterlimit="10"/>
<path d="M980.777 287.353V508.666" stroke="white" stroke-miterlimit="10"/>
<path d="M677.836 537.095L666.091 319.665H668.762V317.242H676.91V300.772H666.176V298.812H667.356V293.495H668.536V289.62H666.176V258.595H668.489V253.749H665.892V239.848C665.884 239.752 665.856 239.66 665.81 239.575C665.764 239.491 665.701 239.416 665.625 239.355C665.548 239.294 665.46 239.248 665.365 239.221C665.27 239.193 665.17 239.184 665.071 239.194H664.712V230.12C664.726 229.967 664.693 229.813 664.618 229.678C664.543 229.542 664.428 229.431 664.287 229.358V223.205C664.279 223.11 664.251 223.018 664.205 222.933C664.159 222.848 664.096 222.773 664.02 222.713C663.943 222.652 663.855 222.606 663.76 222.578C663.665 222.551 663.565 222.542 663.466 222.552H663.258V213.478H662.701V222.552H662.493C662.395 222.542 662.295 222.551 662.2 222.578C662.105 222.606 662.016 222.652 661.94 222.713C661.863 222.773 661.8 222.848 661.754 222.933C661.708 223.018 661.68 223.11 661.672 223.205V229.358C661.543 229.43 661.433 229.532 661.353 229.653C661.273 229.775 661.223 229.913 661.209 230.056V239.131H660.851C660.752 239.121 660.652 239.13 660.557 239.157C660.462 239.185 660.374 239.23 660.297 239.291C660.221 239.352 660.157 239.427 660.111 239.512C660.065 239.596 660.038 239.689 660.029 239.784V253.686H657.414V258.532H659.727V289.557H657.414V293.431H658.594V298.749H659.774V300.709H649.011V317.179H657.159V319.602H659.368L648.105 537.095H677.836Z" fill="#000028"/>
<path d="M122.018 415.381L110.198 278.468H112.917V276.943H121.121V266.562H110.254V265.328H111.434V262.025H112.624V259.593H110.302V240.002H112.624V236.953H109.99V228.196C109.99 227.96 109.631 227.779 109.169 227.779H108.81V222.098C108.81 221.926 108.649 221.744 108.347 221.654V217.779C108.347 217.543 107.979 217.371 107.516 217.371H107.309V211.672H106.742V217.371H106.534C106.072 217.371 105.713 217.543 105.713 217.779V221.654C105.449 221.744 105.25 221.926 105.25 222.098V227.824H104.882C104.42 227.824 104.061 228.006 104.061 228.242V236.998H101.427V240.047H103.749V259.593H101.427V262.025H102.616V265.383H103.797V266.562H92.9674V276.934H101.172V278.459H103.391L92.0894 415.381H122.018Z" fill="#000028"/>
<path d="M32.1558 507.485H93.524V265.845H32.1558V507.485Z" fill="url(#paint3_linear_986_228)"/>
<path d="M32.1658 269.04H82.686V255.6H32.1658V269.04Z" fill="#120055"/>
<path d="M65.9369 257.188H77.8801V251H65.9369V257.188Z" fill="#120055"/>
<path d="M71.4885 253.277H72.4609V212.606H71.4885V253.277Z" fill="#120055"/>
<g opacity="0.62">
<path opacity="0.62" d="M39.84 272.279H36.9038V275.101H39.84V272.279Z" fill="#E6E6E6"/>
<path opacity="0.62" d="M44.5905 272.279H41.6543V275.101H44.5905V272.279Z" fill="white"/>
<path opacity="0.62" d="M49.3366 272.279H46.4004V275.101H49.3366V272.279Z" fill="#CCCCCC"/>
<path opacity="0.62" d="M54.0778 272.279H51.1416V275.101H54.0778V272.279Z" fill="#F2F2F2"/>
<path opacity="0.62" d="M58.8264 272.279H55.8901V275.101H58.8264V272.279Z" fill="#B3B3B3"/>
<path opacity="0.62" d="M63.5671 272.279H60.6309V275.101H63.5671V272.279Z" fill="#CCCCCC"/>
<path opacity="0.62" d="M68.3139 272.279H65.3777V275.101H68.3139V272.279Z" fill="#B3B3B3"/>
<path opacity="0.62" d="M73.0544 272.279H70.1182V275.101H73.0544V272.279Z" fill="#B3B3B3"/>
<path opacity="0.62" d="M77.8037 272.279H74.8674V275.101H77.8037V272.279Z" fill="#E6E6E6"/>
<path opacity="0.62" d="M82.5532 272.279H79.6169V275.101H82.5532V272.279Z" fill="#CCCCCC"/>
<path opacity="0.62" d="M87.2912 272.279H84.355V275.101H87.2912V272.279Z" fill="#E6E6E6"/>
<path opacity="0.62" d="M39.84 276.371H36.9038V279.193H39.84V276.371Z" fill="#F2F2F2"/>
<path opacity="0.62" d="M44.5905 276.371H41.6543V279.193H44.5905V276.371Z" fill="#CCCCCC"/>
<path opacity="0.62" d="M49.3366 276.371H46.4004V279.193H49.3366V276.371Z" fill="#F2F2F2"/>
<path opacity="0.62" d="M54.0778 276.371H51.1416V279.193H54.0778V276.371Z" fill="#B3B3B3"/>
<path opacity="0.62" d="M58.8264 276.371H55.8901V279.193H58.8264V276.371Z" fill="#F2F2F2"/>
<path opacity="0.62" d="M63.5671 276.371H60.6309V279.193H63.5671V276.371Z" fill="white"/>
<path opacity="0.62" d="M68.3139 276.371H65.3777V279.193H68.3139V276.371Z" fill="#CCCCCC"/>
<path opacity="0.62" d="M73.0544 276.371H70.1182V279.193H73.0544V276.371Z" fill="#B3B3B3"/>
<path opacity="0.62" d="M77.8037 276.371H74.8674V279.193H77.8037V276.371Z" fill="#F2F2F2"/>
<path opacity="0.62" d="M82.5532 276.371H79.6169V279.193H82.5532V276.371Z" fill="white"/>
<path opacity="0.62" d="M87.2912 276.371H84.355V279.193H87.2912V276.371Z" fill="white"/>
<path opacity="0.62" d="M39.84 280.464H36.9038V283.286H39.84V280.464Z" fill="#CCCCCC"/>
<path opacity="0.62" d="M44.5905 280.464H41.6543V283.286H44.5905V280.464Z" fill="white"/>
<path opacity="0.62" d="M49.3366 280.464H46.4004V283.286H49.3366V280.464Z" fill="#B3B3B3"/>
<path opacity="0.62" d="M54.0778 280.464H51.1416V283.286H54.0778V280.464Z" fill="white"/>
<path opacity="0.62" d="M58.8264 280.464H55.8901V283.286H58.8264V280.464Z" fill="#E6E6E6"/>
<path opacity="0.62" d="M63.5671 280.464H60.6309V283.286H63.5671V280.464Z" fill="white"/>
<path opacity="0.62" d="M68.3139 280.464H65.3777V283.286H68.3139V280.464Z" fill="#E6E6E6"/>
<path opacity="0.62" d="M73.0544 280.464H70.1182V283.286H73.0544V280.464Z" fill="#E6E6E6"/>
<path opacity="0.62" d="M77.8037 280.464H74.8674V283.286H77.8037V280.464Z" fill="white"/>
<path opacity="0.62" d="M82.5532 280.464H79.6169V283.286H82.5532V280.464Z" fill="#CCCCCC"/>
<path opacity="0.62" d="M87.2912 280.464H84.355V283.286H87.2912V280.464Z" fill="#B3B3B3"/>
<path opacity="0.62" d="M39.84 284.557H36.9038V287.379H39.84V284.557Z" fill="#B3B3B3"/>
<path opacity="0.62" d="M44.5905 284.557H41.6543V287.379H44.5905V284.557Z" fill="#CCCCCC"/>
<path opacity="0.62" d="M49.3366 284.557H46.4004V287.379H49.3366V284.557Z" fill="white"/>
<path opacity="0.62" d="M54.0778 284.557H51.1416V287.379H54.0778V284.557Z" fill="#B3B3B3"/>
<path opacity="0.62" d="M58.8264 284.557H55.8901V287.379H58.8264V284.557Z" fill="#CCCCCC"/>
<path opacity="0.62" d="M63.5671 284.557H60.6309V287.379H63.5671V284.557Z" fill="#E6E6E6"/>
<path opacity="0.62" d="M68.3139 284.557H65.3777V287.379H68.3139V284.557Z" fill="#CCCCCC"/>
<path opacity="0.62" d="M73.0544 284.557H70.1182V287.379H73.0544V284.557Z" fill="#E6E6E6"/>
<path opacity="0.62" d="M77.8037 284.557H74.8674V287.379H77.8037V284.557Z" fill="#B3B3B3"/>
<path opacity="0.62" d="M82.5532 284.557H79.6169V287.379H82.5532V284.557Z" fill="#E6E6E6"/>
<path opacity="0.62" d="M87.2912 284.557H84.355V287.379H87.2912V284.557Z" fill="#F2F2F2"/>
<path opacity="0.62" d="M39.84 288.649H36.9038V291.471H39.84V288.649Z" fill="#CCCCCC"/>
<path opacity="0.62" d="M44.5905 288.649H41.6543V291.471H44.5905V288.649Z" fill="#CCCCCC"/>
<path opacity="0.62" d="M49.3366 288.649H46.4004V291.471H49.3366V288.649Z" fill="#E6E6E6"/>
<path opacity="0.62" d="M54.0778 288.649H51.1416V291.471H54.0778V288.649Z" fill="#CCCCCC"/>
<path opacity="0.62" d="M58.8264 288.649H55.8901V291.471H58.8264V288.649Z" fill="#E6E6E6"/>
<path opacity="0.62" d="M63.5671 288.649H60.6309V291.471H63.5671V288.649Z" fill="#CCCCCC"/>
<path opacity="0.62" d="M68.3139 288.649H65.3777V291.471H68.3139V288.649Z" fill="white"/>
<path opacity="0.62" d="M73.0544 288.649H70.1182V291.471H73.0544V288.649Z" fill="#B3B3B3"/>
<path opacity="0.62" d="M77.8037 288.649H74.8674V291.471H77.8037V288.649Z" fill="#B3B3B3"/>
<path opacity="0.62" d="M82.5532 288.649H79.6169V291.471H82.5532V288.649Z" fill="#CCCCCC"/>
<path opacity="0.62" d="M87.2912 288.649H84.355V291.471H87.2912V288.649Z" fill="white"/>
<path opacity="0.62" d="M39.84 292.75H36.9038V295.573H39.84V292.75Z" fill="#B3B3B3"/>
<path opacity="0.62" d="M44.5905 292.75H41.6543V295.573H44.5905V292.75Z" fill="#E6E6E6"/>
<path opacity="0.62" d="M49.3366 292.75H46.4004V295.573H49.3366V292.75Z" fill="#CCCCCC"/>
<path opacity="0.62" d="M54.0778 292.75H51.1416V295.573H54.0778V292.75Z" fill="#B3B3B3"/>
<path opacity="0.62" d="M58.8264 292.75H55.8901V295.573H58.8264V292.75Z" fill="#B3B3B3"/>
<path opacity="0.62" d="M63.5671 292.75H60.6309V295.573H63.5671V292.75Z" fill="#CCCCCC"/>
<path opacity="0.62" d="M68.3139 292.75H65.3777V295.573H68.3139V292.75Z" fill="#CCCCCC"/>
<path opacity="0.62" d="M73.0544 292.75H70.1182V295.573H73.0544V292.75Z" fill="white"/>
<path opacity="0.62" d="M77.8037 292.75H74.8674V295.573H77.8037V292.75Z" fill="#F2F2F2"/>
<path opacity="0.62" d="M82.5532 292.75H79.6169V295.573H82.5532V292.75Z" fill="#CCCCCC"/>
<path opacity="0.62" d="M87.2912 292.75H84.355V295.573H87.2912V292.75Z" fill="#E6E6E6"/>
<path opacity="0.62" d="M39.84 296.843H36.9038V299.665H39.84V296.843Z" fill="#B3B3B3"/>
<path opacity="0.62" d="M44.5905 296.843H41.6543V299.665H44.5905V296.843Z" fill="white"/>
<path opacity="0.62" d="M49.3366 296.843H46.4004V299.665H49.3366V296.843Z" fill="#B3B3B3"/>
<path opacity="0.62" d="M54.0778 296.843H51.1416V299.665H54.0778V296.843Z" fill="#E6E6E6"/>
<path opacity="0.62" d="M58.8264 296.843H55.8901V299.665H58.8264V296.843Z" fill="#E6E6E6"/>
<path opacity="0.62" d="M63.5671 296.843H60.6309V299.665H63.5671V296.843Z" fill="#B3B3B3"/>
<path opacity="0.62" d="M68.3139 296.843H65.3777V299.665H68.3139V296.843Z" fill="#CCCCCC"/>
<path opacity="0.62" d="M73.0544 296.843H70.1182V299.665H73.0544V296.843Z" fill="#CCCCCC"/>
<path opacity="0.62" d="M77.8037 296.843H74.8674V299.665H77.8037V296.843Z" fill="#B3B3B3"/>
<path opacity="0.62" d="M82.5532 296.843H79.6169V299.665H82.5532V296.843Z" fill="#CCCCCC"/>
<path opacity="0.62" d="M87.2912 296.843H84.355V299.665H87.2912V296.843Z" fill="#B3B3B3"/>
<path opacity="0.62" d="M39.84 300.936H36.9038V303.758H39.84V300.936Z" fill="#F2F2F2"/>
<path opacity="0.62" d="M44.5905 300.936H41.6543V303.758H44.5905V300.936Z" fill="#F2F2F2"/>
<path opacity="0.62" d="M49.3366 300.936H46.4004V303.758H49.3366V300.936Z" fill="#E6E6E6"/>
<path opacity="0.62" d="M54.0778 300.936H51.1416V303.758H54.0778V300.936Z" fill="white"/>
<path opacity="0.62" d="M58.8264 300.936H55.8901V303.758H58.8264V300.936Z" fill="#CCCCCC"/>
<path opacity="0.62" d="M63.5671 300.936H60.6309V303.758H63.5671V300.936Z" fill="#F2F2F2"/>
<path opacity="0.62" d="M68.3139 300.936H65.3777V303.758H68.3139V300.936Z" fill="#E6E6E6"/>
<path opacity="0.62" d="M73.0544 300.936H70.1182V303.758H73.0544V300.936Z" fill="#E6E6E6"/>
<path opacity="0.62" d="M77.8037 300.936H74.8674V303.758H77.8037V300.936Z" fill="#B3B3B3"/>
<path opacity="0.62" d="M82.5532 300.936H79.6169V303.758H82.5532V300.936Z" fill="#CCCCCC"/>
<path opacity="0.62" d="M87.2912 300.936H84.355V303.758H87.2912V300.936Z" fill="#E6E6E6"/>
<path opacity="0.62" d="M39.84 305.028H36.9038V307.85H39.84V305.028Z" fill="#E6E6E6"/>
<path opacity="0.62" d="M44.5905 305.028H41.6543V307.85H44.5905V305.028Z" fill="#CCCCCC"/>
<path opacity="0.62" d="M49.3366 305.028H46.4004V307.85H49.3366V305.028Z" fill="white"/>
<path opacity="0.62" d="M54.0778 305.028H51.1416V307.85H54.0778V305.028Z" fill="#F2F2F2"/>
<path opacity="0.62" d="M58.8264 305.028H55.8901V307.85H58.8264V305.028Z" fill="#F2F2F2"/>
<path opacity="0.62" d="M63.5671 305.028H60.6309V307.85H63.5671V305.028Z" fill="#F2F2F2"/>
<path opacity="0.62" d="M68.3139 305.028H65.3777V307.85H68.3139V305.028Z" fill="#CCCCCC"/>
<path opacity="0.62" d="M73.0544 305.028H70.1182V307.85H73.0544V305.028Z" fill="#F2F2F2"/>
<path opacity="0.62" d="M77.8037 305.028H74.8674V307.85H77.8037V305.028Z" fill="#F2F2F2"/>
<path opacity="0.62" d="M82.5532 305.028H79.6169V307.85H82.5532V305.028Z" fill="#F2F2F2"/>
<path opacity="0.62" d="M87.2912 305.028H84.355V307.85H87.2912V305.028Z" fill="#E6E6E6"/>
<path opacity="0.62" d="M39.84 309.121H36.9038V311.943H39.84V309.121Z" fill="#E6E6E6"/>
<path opacity="0.62" d="M44.5905 309.121H41.6543V311.943H44.5905V309.121Z" fill="#CCCCCC"/>
<path opacity="0.62" d="M49.3366 309.121H46.4004V311.943H49.3366V309.121Z" fill="#E6E6E6"/>
<path opacity="0.62" d="M54.0778 309.121H51.1416V311.943H54.0778V309.121Z" fill="#F2F2F2"/>
<path opacity="0.62" d="M58.8264 309.121H55.8901V311.943H58.8264V309.121Z" fill="#CCCCCC"/>
<path opacity="0.62" d="M63.5671 309.121H60.6309V311.943H63.5671V309.121Z" fill="#CCCCCC"/>
<path opacity="0.62" d="M68.3139 309.121H65.3777V311.943H68.3139V309.121Z" fill="white"/>
<path opacity="0.62" d="M73.0544 309.121H70.1182V311.943H73.0544V309.121Z" fill="#E6E6E6"/>
<path opacity="0.62" d="M77.8037 309.121H74.8674V311.943H77.8037V309.121Z" fill="#B3B3B3"/>
<path opacity="0.62" d="M82.5532 309.121H79.6169V311.943H82.5532V309.121Z" fill="#E6E6E6"/>
<path opacity="0.62" d="M87.2912 309.121H84.355V311.943H87.2912V309.121Z" fill="#CCCCCC"/>
<path opacity="0.62" d="M39.84 313.223H36.9038V316.045H39.84V313.223Z" fill="#CCCCCC"/>
<path opacity="0.62" d="M44.5905 313.223H41.6543V316.045H44.5905V313.223Z" fill="#CCCCCC"/>
<path opacity="0.62" d="M49.3366 313.223H46.4004V316.045H49.3366V313.223Z" fill="white"/>
<path opacity="0.62" d="M54.0778 313.223H51.1416V316.045H54.0778V313.223Z" fill="#F2F2F2"/>
<path opacity="0.62" d="M58.8264 313.223H55.8901V316.045H58.8264V313.223Z" fill="#B3B3B3"/>
<path opacity="0.62" d="M63.5671 313.223H60.6309V316.045H63.5671V313.223Z" fill="white"/>
<path opacity="0.62" d="M68.3139 313.223H65.3777V316.045H68.3139V313.223Z" fill="#E6E6E6"/>
<path opacity="0.62" d="M73.0544 313.223H70.1182V316.045H73.0544V313.223Z" fill="#CCCCCC"/>
<path opacity="0.62" d="M77.8037 313.223H74.8674V316.045H77.8037V313.223Z" fill="#CCCCCC"/>
<path opacity="0.62" d="M82.5532 313.223H79.6169V316.045H82.5532V313.223Z" fill="#B3B3B3"/>
<path opacity="0.62" d="M87.2912 313.223H84.355V316.045H87.2912V313.223Z" fill="#B3B3B3"/>
<path opacity="0.62" d="M39.84 317.315H36.9038V320.137H39.84V317.315Z" fill="#CCCCCC"/>
<path opacity="0.62" d="M44.5905 317.315H41.6543V320.137H44.5905V317.315Z" fill="white"/>
<path opacity="0.62" d="M49.3366 317.315H46.4004V320.137H49.3366V317.315Z" fill="#E6E6E6"/>
<path opacity="0.62" d="M54.0778 317.315H51.1416V320.137H54.0778V317.315Z" fill="#B3B3B3"/>
<path opacity="0.62" d="M58.8264 317.315H55.8901V320.137H58.8264V317.315Z" fill="#F2F2F2"/>
<path opacity="0.62" d="M63.5671 317.315H60.6309V320.137H63.5671V317.315Z" fill="white"/>
<path opacity="0.62" d="M68.3139 317.315H65.3777V320.137H68.3139V317.315Z" fill="#CCCCCC"/>
<path opacity="0.62" d="M73.0544 317.315H70.1182V320.137H73.0544V317.315Z" fill="#CCCCCC"/>
<path opacity="0.62" d="M77.8037 317.315H74.8674V320.137H77.8037V317.315Z" fill="#E6E6E6"/>
<path opacity="0.62" d="M82.5532 317.315H79.6169V320.137H82.5532V317.315Z" fill="#CCCCCC"/>
<path opacity="0.62" d="M87.2912 317.315H84.355V320.137H87.2912V317.315Z" fill="#CCCCCC"/>
<path opacity="0.62" d="M39.84 321.407H36.9038V324.229H39.84V321.407Z" fill="#B3B3B3"/>
<path opacity="0.62" d="M44.5905 321.407H41.6543V324.229H44.5905V321.407Z" fill="#E6E6E6"/>
<path opacity="0.62" d="M49.3366 321.407H46.4004V324.229H49.3366V321.407Z" fill="#E6E6E6"/>
<path opacity="0.62" d="M54.0778 321.407H51.1416V324.229H54.0778V321.407Z" fill="#E6E6E6"/>
<path opacity="0.62" d="M58.8264 321.407H55.8901V324.229H58.8264V321.407Z" fill="#CCCCCC"/>
<path opacity="0.62" d="M63.5671 321.407H60.6309V324.229H63.5671V321.407Z" fill="#CCCCCC"/>
<path opacity="0.62" d="M68.3139 321.407H65.3777V324.229H68.3139V321.407Z" fill="#B3B3B3"/>
<path opacity="0.62" d="M73.0544 321.407H70.1182V324.229H73.0544V321.407Z" fill="#CCCCCC"/>
<path opacity="0.62" d="M77.8037 321.407H74.8674V324.229H77.8037V321.407Z" fill="white"/>
<path opacity="0.62" d="M82.5532 321.407H79.6169V324.229H82.5532V321.407Z" fill="white"/>
<path opacity="0.62" d="M87.2912 321.407H84.355V324.229H87.2912V321.407Z" fill="#CCCCCC"/>
<path opacity="0.62" d="M39.84 325.5H36.9038V328.322H39.84V325.5Z" fill="#B3B3B3"/>
<path opacity="0.62" d="M44.5905 325.5H41.6543V328.322H44.5905V325.5Z" fill="#E6E6E6"/>
<path opacity="0.62" d="M49.3366 325.5H46.4004V328.322H49.3366V325.5Z" fill="#E6E6E6"/>
<path opacity="0.62" d="M54.0778 325.5H51.1416V328.322H54.0778V325.5Z" fill="#CCCCCC"/>
<path opacity="0.62" d="M58.8264 325.5H55.8901V328.322H58.8264V325.5Z" fill="#E6E6E6"/>
<path opacity="0.62" d="M63.5671 325.5H60.6309V328.322H63.5671V325.5Z" fill="#B3B3B3"/>
<path opacity="0.62" d="M68.3139 325.5H65.3777V328.322H68.3139V325.5Z" fill="#CCCCCC"/>
<path opacity="0.62" d="M73.0544 325.5H70.1182V328.322H73.0544V325.5Z" fill="#B3B3B3"/>
<path opacity="0.62" d="M77.8037 325.5H74.8674V328.322H77.8037V325.5Z" fill="white"/>
<path opacity="0.62" d="M82.5532 325.5H79.6169V328.322H82.5532V325.5Z" fill="white"/>
<path opacity="0.62" d="M87.2912 325.5H84.355V328.322H87.2912V325.5Z" fill="#CCCCCC"/>
<path opacity="0.62" d="M39.84 329.592H36.9038V332.414H39.84V329.592Z" fill="#E6E6E6"/>
<path opacity="0.62" d="M44.5905 329.592H41.6543V332.414H44.5905V329.592Z" fill="#E6E6E6"/>
<path opacity="0.62" d="M49.3366 329.592H46.4004V332.414H49.3366V329.592Z" fill="#CCCCCC"/>
<path opacity="0.62" d="M54.0778 329.592H51.1416V332.414H54.0778V329.592Z" fill="white"/>
<path opacity="0.62" d="M58.8264 329.592H55.8901V332.414H58.8264V329.592Z" fill="#B3B3B3"/>
<path opacity="0.62" d="M63.5671 329.592H60.6309V332.414H63.5671V329.592Z" fill="white"/>
<path opacity="0.62" d="M68.3139 329.592H65.3777V332.414H68.3139V329.592Z" fill="#CCCCCC"/>
<path opacity="0.62" d="M73.0544 329.592H70.1182V332.414H73.0544V329.592Z" fill="#E6E6E6"/>
<path opacity="0.62" d="M77.8037 329.592H74.8674V332.414H77.8037V329.592Z" fill="#B3B3B3"/>
<path opacity="0.62" d="M82.5532 329.592H79.6169V332.414H82.5532V329.592Z" fill="#CCCCCC"/>
<path opacity="0.62" d="M87.2912 329.592H84.355V332.414H87.2912V329.592Z" fill="#B3B3B3"/>
<path opacity="0.62" d="M39.84 333.694H36.9038V336.516H39.84V333.694Z" fill="#CCCCCC"/>
<path opacity="0.62" d="M44.5905 333.694H41.6543V336.516H44.5905V333.694Z" fill="#B3B3B3"/>
<path opacity="0.62" d="M49.3366 333.694H46.4004V336.516H49.3366V333.694Z" fill="#E6E6E6"/>
<path opacity="0.62" d="M54.0778 333.694H51.1416V336.516H54.0778V333.694Z" fill="#CCCCCC"/>
<path opacity="0.62" d="M58.8264 333.694H55.8901V336.516H58.8264V333.694Z" fill="#E6E6E6"/>
<path opacity="0.62" d="M63.5671 333.694H60.6309V336.516H63.5671V333.694Z" fill="#F2F2F2"/>
<path opacity="0.62" d="M68.3139 333.694H65.3777V336.516H68.3139V333.694Z" fill="#B3B3B3"/>
<path opacity="0.62" d="M73.0544 333.694H70.1182V336.516H73.0544V333.694Z" fill="#CCCCCC"/>
<path opacity="0.62" d="M77.8037 333.694H74.8674V336.516H77.8037V333.694Z" fill="#E6E6E6"/>
<path opacity="0.62" d="M82.5532 333.694H79.6169V336.516H82.5532V333.694Z" fill="#CCCCCC"/>
<path opacity="0.62" d="M87.2912 333.694H84.355V336.516H87.2912V333.694Z" fill="#E6E6E6"/>
<path opacity="0.62" d="M39.84 337.786H36.9038V340.608H39.84V337.786Z" fill="#CCCCCC"/>
<path opacity="0.62" d="M44.5905 337.786H41.6543V340.608H44.5905V337.786Z" fill="#E6E6E6"/>
<path opacity="0.62" d="M49.3366 337.786H46.4004V340.608H49.3366V337.786Z" fill="white"/>
<path opacity="0.62" d="M54.0778 337.786H51.1416V340.608H54.0778V337.786Z" fill="#CCCCCC"/>
<path opacity="0.62" d="M58.8264 337.786H55.8901V340.608H58.8264V337.786Z" fill="#CCCCCC"/>
<path opacity="0.62" d="M63.5671 337.786H60.6309V340.608H63.5671V337.786Z" fill="#E6E6E6"/>
<path opacity="0.62" d="M68.3139 337.786H65.3777V340.608H68.3139V337.786Z" fill="#B3B3B3"/>
<path opacity="0.62" d="M73.0544 337.786H70.1182V340.608H73.0544V337.786Z" fill="#CCCCCC"/>
<path opacity="0.62" d="M77.8037 337.786H74.8674V340.608H77.8037V337.786Z" fill="#B3B3B3"/>
<path opacity="0.62" d="M82.5532 337.786H79.6169V340.608H82.5532V337.786Z" fill="#B3B3B3"/>
<path opacity="0.62" d="M87.2912 337.786H84.355V340.608H87.2912V337.786Z" fill="#B3B3B3"/>
<path opacity="0.62" d="M39.84 341.879H36.9038V344.701H39.84V341.879Z" fill="#B3B3B3"/>
<path opacity="0.62" d="M44.5905 341.879H41.6543V344.701H44.5905V341.879Z" fill="white"/>
<path opacity="0.62" d="M49.3366 341.879H46.4004V344.701H49.3366V341.879Z" fill="#E6E6E6"/>
<path opacity="0.62" d="M54.0778 341.879H51.1416V344.701H54.0778V341.879Z" fill="#B3B3B3"/>
<path opacity="0.62" d="M58.8264 341.879H55.8901V344.701H58.8264V341.879Z" fill="#CCCCCC"/>
<path opacity="0.62" d="M63.5671 341.879H60.6309V344.701H63.5671V341.879Z" fill="#E6E6E6"/>
<path opacity="0.62" d="M68.3139 341.879H65.3777V344.701H68.3139V341.879Z" fill="white"/>
<path opacity="0.62" d="M73.0544 341.879H70.1182V344.701H73.0544V341.879Z" fill="#F2F2F2"/>
<path opacity="0.62" d="M77.8037 341.879H74.8674V344.701H77.8037V341.879Z" fill="#CCCCCC"/>
<path opacity="0.62" d="M82.5532 341.879H79.6169V344.701H82.5532V341.879Z" fill="#CCCCCC"/>
<path opacity="0.62" d="M87.2912 341.879H84.355V344.701H87.2912V341.879Z" fill="#E6E6E6"/>
<path opacity="0.62" d="M39.84 345.972H36.9038V348.794H39.84V345.972Z" fill="#B3B3B3"/>
<path opacity="0.62" d="M44.5905 345.972H41.6543V348.794H44.5905V345.972Z" fill="#F2F2F2"/>
<path opacity="0.62" d="M49.3366 345.972H46.4004V348.794H49.3366V345.972Z" fill="#B3B3B3"/>
<path opacity="0.62" d="M54.0778 345.972H51.1416V348.794H54.0778V345.972Z" fill="#F2F2F2"/>
<path opacity="0.62" d="M58.8264 345.972H55.8901V348.794H58.8264V345.972Z" fill="#E6E6E6"/>
<path opacity="0.62" d="M63.5671 345.972H60.6309V348.794H63.5671V345.972Z" fill="#F2F2F2"/>
<path opacity="0.62" d="M68.3139 345.972H65.3777V348.794H68.3139V345.972Z" fill="#E6E6E6"/>
<path opacity="0.62" d="M73.0544 345.972H70.1182V348.794H73.0544V345.972Z" fill="#F2F2F2"/>
<path opacity="0.62" d="M77.8037 345.972H74.8674V348.794H77.8037V345.972Z" fill="#CCCCCC"/>
<path opacity="0.62" d="M82.5532 345.972H79.6169V348.794H82.5532V345.972Z" fill="#B3B3B3"/>
<path opacity="0.62" d="M87.2912 345.972H84.355V348.794H87.2912V345.972Z" fill="white"/>
<path opacity="0.62" d="M39.84 350.064H36.9038V352.886H39.84V350.064Z" fill="#CCCCCC"/>
<path opacity="0.62" d="M44.5905 350.064H41.6543V352.886H44.5905V350.064Z" fill="#B3B3B3"/>
<path opacity="0.62" d="M49.3366 350.064H46.4004V352.886H49.3366V350.064Z" fill="#CCCCCC"/>
<path opacity="0.62" d="M54.0778 350.064H51.1416V352.886H54.0778V350.064Z" fill="#CCCCCC"/>
<path opacity="0.62" d="M58.8264 350.064H55.8901V352.886H58.8264V350.064Z" fill="#CCCCCC"/>
<path opacity="0.62" d="M63.5671 350.064H60.6309V352.886H63.5671V350.064Z" fill="white"/>
<path opacity="0.62" d="M68.3139 350.064H65.3777V352.886H68.3139V350.064Z" fill="#CCCCCC"/>
<path opacity="0.62" d="M73.0544 350.064H70.1182V352.886H73.0544V350.064Z" fill="#E6E6E6"/>
<path opacity="0.62" d="M77.8037 350.064H74.8674V352.886H77.8037V350.064Z" fill="#CCCCCC"/>
<path opacity="0.62" d="M82.5532 350.064H79.6169V352.886H82.5532V350.064Z" fill="#E6E6E6"/>
<path opacity="0.62" d="M87.2912 350.064H84.355V352.886H87.2912V350.064Z" fill="#E6E6E6"/>
<path opacity="0.62" d="M39.84 354.166H36.9038V356.988H39.84V354.166Z" fill="#CCCCCC"/>
<path opacity="0.62" d="M44.5905 354.166H41.6543V356.988H44.5905V354.166Z" fill="#CCCCCC"/>
<path opacity="0.62" d="M49.3366 354.166H46.4004V356.988H49.3366V354.166Z" fill="#CCCCCC"/>
<path opacity="0.62" d="M54.0778 354.166H51.1416V356.988H54.0778V354.166Z" fill="white"/>
<path opacity="0.62" d="M58.8264 354.166H55.8901V356.988H58.8264V354.166Z" fill="#E6E6E6"/>
<path opacity="0.62" d="M63.5671 354.166H60.6309V356.988H63.5671V354.166Z" fill="#CCCCCC"/>
<path opacity="0.62" d="M68.3139 354.166H65.3777V356.988H68.3139V354.166Z" fill="#E6E6E6"/>
<path opacity="0.62" d="M73.0544 354.166H70.1182V356.988H73.0544V354.166Z" fill="#CCCCCC"/>
<path opacity="0.62" d="M77.8037 354.166H74.8674V356.988H77.8037V354.166Z" fill="#B3B3B3"/>
<path opacity="0.62" d="M82.5532 354.166H79.6169V356.988H82.5532V354.166Z" fill="#B3B3B3"/>
<path opacity="0.62" d="M87.2912 354.166H84.355V356.988H87.2912V354.166Z" fill="#CCCCCC"/>
<path opacity="0.62" d="M39.84 358.258H36.9038V361.08H39.84V358.258Z" fill="#CCCCCC"/>
<path opacity="0.62" d="M44.5905 358.258H41.6543V361.08H44.5905V358.258Z" fill="#E6E6E6"/>
<path opacity="0.62" d="M49.3366 358.258H46.4004V361.08H49.3366V358.258Z" fill="#E6E6E6"/>
<path opacity="0.62" d="M54.0778 358.258H51.1416V361.08H54.0778V358.258Z" fill="#CCCCCC"/>
<path opacity="0.62" d="M58.8264 358.258H55.8901V361.08H58.8264V358.258Z" fill="#E6E6E6"/>
<path opacity="0.62" d="M63.5671 358.258H60.6309V361.08H63.5671V358.258Z" fill="#F2F2F2"/>
<path opacity="0.62" d="M68.3139 358.258H65.3777V361.08H68.3139V358.258Z" fill="#CCCCCC"/>
<path opacity="0.62" d="M73.0544 358.258H70.1182V361.08H73.0544V358.258Z" fill="#CCCCCC"/>
<path opacity="0.62" d="M77.8037 358.258H74.8674V361.08H77.8037V358.258Z" fill="#E6E6E6"/>
<path opacity="0.62" d="M82.5532 358.258H79.6169V361.08H82.5532V358.258Z" fill="#CCCCCC"/>
<path opacity="0.62" d="M87.2912 358.258H84.355V361.08H87.2912V358.258Z" fill="#CCCCCC"/>
<path opacity="0.62" d="M39.84 362.351H36.9038V365.173H39.84V362.351Z" fill="white"/>
<path opacity="0.62" d="M44.5905 362.351H41.6543V365.173H44.5905V362.351Z" fill="#CCCCCC"/>
<path opacity="0.62" d="M49.3366 362.351H46.4004V365.173H49.3366V362.351Z" fill="#E6E6E6"/>
<path opacity="0.62" d="M54.0778 362.351H51.1416V365.173H54.0778V362.351Z" fill="#E6E6E6"/>
<path opacity="0.62" d="M58.8264 362.351H55.8901V365.173H58.8264V362.351Z" fill="#B3B3B3"/>
<path opacity="0.62" d="M63.5671 362.351H60.6309V365.173H63.5671V362.351Z" fill="#B3B3B3"/>
<path opacity="0.62" d="M68.3139 362.351H65.3777V365.173H68.3139V362.351Z" fill="#E6E6E6"/>
<path opacity="0.62" d="M73.0544 362.351H70.1182V365.173H73.0544V362.351Z" fill="#CCCCCC"/>
<path opacity="0.62" d="M77.8037 362.351H74.8674V365.173H77.8037V362.351Z" fill="#B3B3B3"/>
<path opacity="0.62" d="M82.5532 362.351H79.6169V365.173H82.5532V362.351Z" fill="#E6E6E6"/>
<path opacity="0.62" d="M87.2912 362.351H84.355V365.173H87.2912V362.351Z" fill="#CCCCCC"/>
<path opacity="0.62" d="M39.84 366.443H36.9038V369.265H39.84V366.443Z" fill="#CCCCCC"/>
<path opacity="0.62" d="M44.5905 366.443H41.6543V369.265H44.5905V366.443Z" fill="#CCCCCC"/>
<path opacity="0.62" d="M49.3366 366.443H46.4004V369.265H49.3366V366.443Z" fill="#E6E6E6"/>
<path opacity="0.62" d="M54.0778 366.443H51.1416V369.265H54.0778V366.443Z" fill="#E6E6E6"/>
<path opacity="0.62" d="M58.8264 366.443H55.8901V369.265H58.8264V366.443Z" fill="#CCCCCC"/>
<path opacity="0.62" d="M63.5671 366.443H60.6309V369.265H63.5671V366.443Z" fill="#E6E6E6"/>
<path opacity="0.62" d="M68.3139 366.443H65.3777V369.265H68.3139V366.443Z" fill="#E6E6E6"/>
<path opacity="0.62" d="M73.0544 366.443H70.1182V369.265H73.0544V366.443Z" fill="#F2F2F2"/>
<path opacity="0.62" d="M77.8037 366.443H74.8674V369.265H77.8037V366.443Z" fill="#F2F2F2"/>
<path opacity="0.62" d="M82.5532 366.443H79.6169V369.265H82.5532V366.443Z" fill="#B3B3B3"/>
<path opacity="0.62" d="M87.2912 366.443H84.355V369.265H87.2912V366.443Z" fill="#CCCCCC"/>
<path opacity="0.62" d="M39.84 370.536H36.9038V373.358H39.84V370.536Z" fill="#CCCCCC"/>
<path opacity="0.62" d="M44.5905 370.536H41.6543V373.358H44.5905V370.536Z" fill="white"/>
<path opacity="0.62" d="M49.3366 370.536H46.4004V373.358H49.3366V370.536Z" fill="#CCCCCC"/>
<path opacity="0.62" d="M54.0778 370.536H51.1416V373.358H54.0778V370.536Z" fill="#CCCCCC"/>
<path opacity="0.62" d="M58.8264 370.536H55.8901V373.358H58.8264V370.536Z" fill="#B3B3B3"/>
<path opacity="0.62" d="M63.5671 370.536H60.6309V373.358H63.5671V370.536Z" fill="#CCCCCC"/>
<path opacity="0.62" d="M68.3139 370.536H65.3777V373.358H68.3139V370.536Z" fill="#CCCCCC"/>
<path opacity="0.62" d="M73.0544 370.536H70.1182V373.358H73.0544V370.536Z" fill="#B3B3B3"/>
<path opacity="0.62" d="M77.8037 370.536H74.8674V373.358H77.8037V370.536Z" fill="#CCCCCC"/>
<path opacity="0.62" d="M82.5532 370.536H79.6169V373.358H82.5532V370.536Z" fill="#CCCCCC"/>
<path opacity="0.62" d="M87.2912 370.536H84.355V373.358H87.2912V370.536Z" fill="#E6E6E6"/>
<path opacity="0.62" d="M39.84 374.791H36.9038V377.613H39.84V374.791Z" fill="#E6E6E6"/>
<path opacity="0.62" d="M44.5905 374.791H41.6543V377.613H44.5905V374.791Z" fill="white"/>
<path opacity="0.62" d="M49.3366 374.791H46.4004V377.613H49.3366V374.791Z" fill="#CCCCCC"/>
<path opacity="0.62" d="M54.0778 374.791H51.1416V377.613H54.0778V374.791Z" fill="#F2F2F2"/>
<path opacity="0.62" d="M58.8264 374.791H55.8901V377.613H58.8264V374.791Z" fill="#B3B3B3"/>
<path opacity="0.62" d="M63.5671 374.791H60.6309V377.613H63.5671V374.791Z" fill="#CCCCCC"/>
<path opacity="0.62" d="M68.3139 374.791H65.3777V377.613H68.3139V374.791Z" fill="#B3B3B3"/>
<path opacity="0.62" d="M73.0544 374.791H70.1182V377.613H73.0544V374.791Z" fill="#B3B3B3"/>
<path opacity="0.62" d="M77.8037 374.791H74.8674V377.613H77.8037V374.791Z" fill="#E6E6E6"/>
<path opacity="0.62" d="M82.5532 374.791H79.6169V377.613H82.5532V374.791Z" fill="#CCCCCC"/>
<path opacity="0.62" d="M87.2912 374.791H84.355V377.613H87.2912V374.791Z" fill="#E6E6E6"/>
<path opacity="0.62" d="M39.84 378.884H36.9038V381.706H39.84V378.884Z" fill="#F2F2F2"/>
<path opacity="0.62" d="M44.5905 378.884H41.6543V381.706H44.5905V378.884Z" fill="#CCCCCC"/>
<path opacity="0.62" d="M49.3366 378.884H46.4004V381.706H49.3366V378.884Z" fill="#F2F2F2"/>
<path opacity="0.62" d="M54.0778 378.884H51.1416V381.706H54.0778V378.884Z" fill="#B3B3B3"/>
<path opacity="0.62" d="M58.8264 378.884H55.8901V381.706H58.8264V378.884Z" fill="#F2F2F2"/>
<path opacity="0.62" d="M63.5671 378.884H60.6309V381.706H63.5671V378.884Z" fill="white"/>
<path opacity="0.62" d="M68.3139 378.884H65.3777V381.706H68.3139V378.884Z" fill="#CCCCCC"/>
<path opacity="0.62" d="M73.0544 378.884H70.1182V381.706H73.0544V378.884Z" fill="#B3B3B3"/>
<path opacity="0.62" d="M77.8037 378.884H74.8674V381.706H77.8037V378.884Z" fill="#F2F2F2"/>
<path opacity="0.62" d="M82.5532 378.884H79.6169V381.706H82.5532V378.884Z" fill="white"/>
<path opacity="0.62" d="M87.2912 378.884H84.355V381.706H87.2912V378.884Z" fill="white"/>
<path opacity="0.62" d="M39.84 382.985H36.9038V385.807H39.84V382.985Z" fill="#CCCCCC"/>
<path opacity="0.62" d="M44.5905 382.985H41.6543V385.807H44.5905V382.985Z" fill="white"/>
<path opacity="0.62" d="M49.3366 382.985H46.4004V385.807H49.3366V382.985Z" fill="#B3B3B3"/>
<path opacity="0.62" d="M54.0778 382.985H51.1416V385.807H54.0778V382.985Z" fill="white"/>
<path opacity="0.62" d="M58.8264 382.985H55.8901V385.807H58.8264V382.985Z" fill="#E6E6E6"/>
<path opacity="0.62" d="M63.5671 382.985H60.6309V385.807H63.5671V382.985Z" fill="white"/>
<path opacity="0.62" d="M68.3139 382.985H65.3777V385.807H68.3139V382.985Z" fill="#E6E6E6"/>
<path opacity="0.62" d="M73.0544 382.985H70.1182V385.807H73.0544V382.985Z" fill="#E6E6E6"/>
<path opacity="0.62" d="M77.8037 382.985H74.8674V385.807H77.8037V382.985Z" fill="white"/>
<path opacity="0.62" d="M82.5532 382.985H79.6169V385.807H82.5532V382.985Z" fill="#CCCCCC"/>
<path opacity="0.62" d="M87.2912 382.985H84.355V385.807H87.2912V382.985Z" fill="#B3B3B3"/>
<path opacity="0.62" d="M39.84 387.078H36.9038V389.9H39.84V387.078Z" fill="#B3B3B3"/>
<path opacity="0.62" d="M44.5905 387.078H41.6543V389.9H44.5905V387.078Z" fill="#CCCCCC"/>
<path opacity="0.62" d="M49.3366 387.078H46.4004V389.9H49.3366V387.078Z" fill="white"/>
<path opacity="0.62" d="M54.0778 387.078H51.1416V389.9H54.0778V387.078Z" fill="#B3B3B3"/>
<path opacity="0.62" d="M58.8264 387.078H55.8901V389.9H58.8264V387.078Z" fill="#CCCCCC"/>
<path opacity="0.62" d="M63.5671 387.078H60.6309V389.9H63.5671V387.078Z" fill="#E6E6E6"/>
<path opacity="0.62" d="M68.3139 387.078H65.3777V389.9H68.3139V387.078Z" fill="#CCCCCC"/>
<path opacity="0.62" d="M73.0544 387.078H70.1182V389.9H73.0544V387.078Z" fill="#E6E6E6"/>
<path opacity="0.62" d="M77.8037 387.078H74.8674V389.9H77.8037V387.078Z" fill="#B3B3B3"/>
<path opacity="0.62" d="M82.5532 387.078H79.6169V389.9H82.5532V387.078Z" fill="#E6E6E6"/>
<path opacity="0.62" d="M87.2912 387.078H84.355V389.9H87.2912V387.078Z" fill="#F2F2F2"/>
<path opacity="0.62" d="M39.84 391.171H36.9038V393.993H39.84V391.171Z" fill="#CCCCCC"/>
<path opacity="0.62" d="M44.5905 391.171H41.6543V393.993H44.5905V391.171Z" fill="#CCCCCC"/>
<path opacity="0.62" d="M49.3366 391.171H46.4004V393.993H49.3366V391.171Z" fill="#E6E6E6"/>
<path opacity="0.62" d="M54.0778 391.171H51.1416V393.993H54.0778V391.171Z" fill="#CCCCCC"/>
<path opacity="0.62" d="M58.8264 391.171H55.8901V393.993H58.8264V391.171Z" fill="#E6E6E6"/>
<path opacity="0.62" d="M63.5671 391.171H60.6309V393.993H63.5671V391.171Z" fill="#CCCCCC"/>
<path opacity="0.62" d="M68.3139 391.171H65.3777V393.993H68.3139V391.171Z" fill="white"/>
<path opacity="0.62" d="M73.0544 391.171H70.1182V393.993H73.0544V391.171Z" fill="#B3B3B3"/>
<path opacity="0.62" d="M77.8037 391.171H74.8674V393.993H77.8037V391.171Z" fill="#B3B3B3"/>
<path opacity="0.62" d="M82.5532 391.171H79.6169V393.993H82.5532V391.171Z" fill="#CCCCCC"/>
<path opacity="0.62" d="M87.2912 391.171H84.355V393.993H87.2912V391.171Z" fill="white"/>
<path opacity="0.62" d="M39.84 395.263H36.9038V398.085H39.84V395.263Z" fill="#B3B3B3"/>
<path opacity="0.62" d="M44.5905 395.263H41.6543V398.085H44.5905V395.263Z" fill="#E6E6E6"/>
<path opacity="0.62" d="M49.3366 395.263H46.4004V398.085H49.3366V395.263Z" fill="#CCCCCC"/>
<path opacity="0.62" d="M54.0778 395.263H51.1416V398.085H54.0778V395.263Z" fill="#B3B3B3"/>
<path opacity="0.62" d="M58.8264 395.263H55.8901V398.085H58.8264V395.263Z" fill="#B3B3B3"/>
<path opacity="0.62" d="M63.5671 395.263H60.6309V398.085H63.5671V395.263Z" fill="#CCCCCC"/>
<path opacity="0.62" d="M68.3139 395.263H65.3777V398.085H68.3139V395.263Z" fill="#CCCCCC"/>
<path opacity="0.62" d="M73.0544 395.263H70.1182V398.085H73.0544V395.263Z" fill="white"/>
<path opacity="0.62" d="M77.8037 395.263H74.8674V398.085H77.8037V395.263Z" fill="#F2F2F2"/>
<path opacity="0.62" d="M82.5532 395.263H79.6169V398.085H82.5532V395.263Z" fill="#CCCCCC"/>
<path opacity="0.62" d="M87.2912 395.263H84.355V398.085H87.2912V395.263Z" fill="#E6E6E6"/>
<path opacity="0.62" d="M39.84 399.355H36.9038V402.178H39.84V399.355Z" fill="#B3B3B3"/>
<path opacity="0.62" d="M44.5905 399.355H41.6543V402.178H44.5905V399.355Z" fill="white"/>
<path opacity="0.62" d="M49.3366 399.355H46.4004V402.178H49.3366V399.355Z" fill="#B3B3B3"/>
<path opacity="0.62" d="M54.0778 399.355H51.1416V402.178H54.0778V399.355Z" fill="#E6E6E6"/>
<path opacity="0.62" d="M58.8264 399.355H55.8901V402.178H58.8264V399.355Z" fill="#E6E6E6"/>
<path opacity="0.62" d="M63.5671 399.355H60.6309V402.178H63.5671V399.355Z" fill="#B3B3B3"/>
<path opacity="0.62" d="M68.3139 399.355H65.3777V402.178H68.3139V399.355Z" fill="#CCCCCC"/>
<path opacity="0.62" d="M73.0544 399.355H70.1182V402.178H73.0544V399.355Z" fill="#CCCCCC"/>
<path opacity="0.62" d="M77.8037 399.355H74.8674V402.178H77.8037V399.355Z" fill="#B3B3B3"/>
<path opacity="0.62" d="M82.5532 399.355H79.6169V402.178H82.5532V399.355Z" fill="#CCCCCC"/>
<path opacity="0.62" d="M87.2912 399.355H84.355V402.178H87.2912V399.355Z" fill="#B3B3B3"/>
<path opacity="0.62" d="M39.84 403.448H36.9038V406.27H39.84V403.448Z" fill="#F2F2F2"/>
<path opacity="0.62" d="M44.5905 403.448H41.6543V406.27H44.5905V403.448Z" fill="#F2F2F2"/>
<path opacity="0.62" d="M49.3366 403.448H46.4004V406.27H49.3366V403.448Z" fill="#E6E6E6"/>
<path opacity="0.62" d="M54.0778 403.448H51.1416V406.27H54.0778V403.448Z" fill="white"/>
<path opacity="0.62" d="M58.8264 403.448H55.8901V406.27H58.8264V403.448Z" fill="#CCCCCC"/>
<path opacity="0.62" d="M63.5671 403.448H60.6309V406.27H63.5671V403.448Z" fill="#F2F2F2"/>
<path opacity="0.62" d="M68.3139 403.448H65.3777V406.27H68.3139V403.448Z" fill="#E6E6E6"/>
<path opacity="0.62" d="M73.0544 403.448H70.1182V406.27H73.0544V403.448Z" fill="#E6E6E6"/>
<path opacity="0.62" d="M77.8037 403.448H74.8674V406.27H77.8037V403.448Z" fill="#B3B3B3"/>
<path opacity="0.62" d="M82.5532 403.448H79.6169V406.27H82.5532V403.448Z" fill="#CCCCCC"/>
<path opacity="0.62" d="M87.2912 403.448H84.355V406.27H87.2912V403.448Z" fill="#E6E6E6"/>
<path opacity="0.62" d="M39.84 407.55H36.9038V410.372H39.84V407.55Z" fill="#E6E6E6"/>
<path opacity="0.62" d="M44.5905 407.55H41.6543V410.372H44.5905V407.55Z" fill="#CCCCCC"/>
<path opacity="0.62" d="M49.3366 407.55H46.4004V410.372H49.3366V407.55Z" fill="white"/>
<path opacity="0.62" d="M54.0778 407.55H51.1416V410.372H54.0778V407.55Z" fill="#F2F2F2"/>
<path opacity="0.62" d="M58.8264 407.55H55.8901V410.372H58.8264V407.55Z" fill="#F2F2F2"/>
<path opacity="0.62" d="M63.5671 407.55H60.6309V410.372H63.5671V407.55Z" fill="#F2F2F2"/>
<path opacity="0.62" d="M68.3139 407.55H65.3777V410.372H68.3139V407.55Z" fill="#CCCCCC"/>
<path opacity="0.62" d="M73.0544 407.55H70.1182V410.372H73.0544V407.55Z" fill="#F2F2F2"/>
<path opacity="0.62" d="M77.8037 407.55H74.8674V410.372H77.8037V407.55Z" fill="#F2F2F2"/>
<path opacity="0.62" d="M82.5532 407.55H79.6169V410.372H82.5532V407.55Z" fill="#F2F2F2"/>
<path opacity="0.62" d="M87.2912 407.55H84.355V410.372H87.2912V407.55Z" fill="#E6E6E6"/>
<path opacity="0.62" d="M39.84 411.642H36.9038V414.464H39.84V411.642Z" fill="#E6E6E6"/>
<path opacity="0.62" d="M44.5905 411.642H41.6543V414.464H44.5905V411.642Z" fill="#CCCCCC"/>
<path opacity="0.62" d="M49.3366 411.642H46.4004V414.464H49.3366V411.642Z" fill="#E6E6E6"/>
<path opacity="0.62" d="M54.0778 411.642H51.1416V414.464H54.0778V411.642Z" fill="#F2F2F2"/>
<path opacity="0.62" d="M58.8264 411.642H55.8901V414.464H58.8264V411.642Z" fill="#CCCCCC"/>
<path opacity="0.62" d="M63.5671 411.642H60.6309V414.464H63.5671V411.642Z" fill="#CCCCCC"/>
<path opacity="0.62" d="M68.3139 411.642H65.3777V414.464H68.3139V411.642Z" fill="white"/>
<path opacity="0.62" d="M73.0544 411.642H70.1182V414.464H73.0544V411.642Z" fill="#E6E6E6"/>
<path opacity="0.62" d="M77.8037 411.642H74.8674V414.464H77.8037V411.642Z" fill="#B3B3B3"/>
<path opacity="0.62" d="M82.5532 411.642H79.6169V414.464H82.5532V411.642Z" fill="#E6E6E6"/>
<path opacity="0.62" d="M87.2912 411.642H84.355V414.464H87.2912V411.642Z" fill="#CCCCCC"/>
<path opacity="0.62" d="M39.84 415.735H36.9038V418.557H39.84V415.735Z" fill="#CCCCCC"/>
<path opacity="0.62" d="M44.5905 415.735H41.6543V418.557H44.5905V415.735Z" fill="#CCCCCC"/>
<path opacity="0.62" d="M49.3366 415.735H46.4004V418.557H49.3366V415.735Z" fill="white"/>
<path opacity="0.62" d="M54.0778 415.735H51.1416V418.557H54.0778V415.735Z" fill="#F2F2F2"/>
<path opacity="0.62" d="M58.8264 415.735H55.8901V418.557H58.8264V415.735Z" fill="#B3B3B3"/>
<path opacity="0.62" d="M63.5671 415.735H60.6309V418.557H63.5671V415.735Z" fill="white"/>
<path opacity="0.62" d="M68.3139 415.735H65.3777V418.557H68.3139V415.735Z" fill="#E6E6E6"/>
<path opacity="0.62" d="M73.0544 415.735H70.1182V418.557H73.0544V415.735Z" fill="#CCCCCC"/>
<path opacity="0.62" d="M77.8037 415.735H74.8674V418.557H77.8037V415.735Z" fill="#CCCCCC"/>
<path opacity="0.62" d="M82.5532 415.735H79.6169V418.557H82.5532V415.735Z" fill="#B3B3B3"/>
<path opacity="0.62" d="M87.2912 415.735H84.355V418.557H87.2912V415.735Z" fill="#B3B3B3"/>
<path opacity="0.62" d="M39.84 419.827H36.9038V422.649H39.84V419.827Z" fill="#CCCCCC"/>
<path opacity="0.62" d="M44.5905 419.827H41.6543V422.649H44.5905V419.827Z" fill="white"/>
<path opacity="0.62" d="M49.3366 419.827H46.4004V422.649H49.3366V419.827Z" fill="#E6E6E6"/>
<path opacity="0.62" d="M54.0778 419.827H51.1416V422.649H54.0778V419.827Z" fill="#B3B3B3"/>
<path opacity="0.62" d="M58.8264 419.827H55.8901V422.649H58.8264V419.827Z" fill="#F2F2F2"/>
<path opacity="0.62" d="M63.5671 419.827H60.6309V422.649H63.5671V419.827Z" fill="white"/>
<path opacity="0.62" d="M68.3139 419.827H65.3777V422.649H68.3139V419.827Z" fill="#CCCCCC"/>
<path opacity="0.62" d="M73.0544 419.827H70.1182V422.649H73.0544V419.827Z" fill="#CCCCCC"/>
<path opacity="0.62" d="M77.8037 419.827H74.8674V422.649H77.8037V419.827Z" fill="#E6E6E6"/>
<path opacity="0.62" d="M82.5532 419.827H79.6169V422.649H82.5532V419.827Z" fill="#CCCCCC"/>
<path opacity="0.62" d="M87.2912 419.827H84.355V422.649H87.2912V419.827Z" fill="#CCCCCC"/>
<path opacity="0.62" d="M39.84 423.919H36.9038V426.742H39.84V423.919Z" fill="#B3B3B3"/>
<path opacity="0.62" d="M44.5905 423.919H41.6543V426.742H44.5905V423.919Z" fill="#E6E6E6"/>
<path opacity="0.62" d="M49.3366 423.919H46.4004V426.742H49.3366V423.919Z" fill="#E6E6E6"/>
<path opacity="0.62" d="M54.0778 423.919H51.1416V426.742H54.0778V423.919Z" fill="#E6E6E6"/>
<path opacity="0.62" d="M58.8264 423.919H55.8901V426.742H58.8264V423.919Z" fill="#CCCCCC"/>
<path opacity="0.62" d="M63.5671 423.919H60.6309V426.742H63.5671V423.919Z" fill="#CCCCCC"/>
<path opacity="0.62" d="M68.3139 423.919H65.3777V426.742H68.3139V423.919Z" fill="#B3B3B3"/>
<path opacity="0.62" d="M73.0544 423.919H70.1182V426.742H73.0544V423.919Z" fill="#CCCCCC"/>
<path opacity="0.62" d="M77.8037 423.919H74.8674V426.742H77.8037V423.919Z" fill="white"/>
<path opacity="0.62" d="M82.5532 423.919H79.6169V426.742H82.5532V423.919Z" fill="white"/>
<path opacity="0.62" d="M87.2912 423.919H84.355V426.742H87.2912V423.919Z" fill="#CCCCCC"/>
<path opacity="0.62" d="M39.84 428.021H36.9038V430.844H39.84V428.021Z" fill="#B3B3B3"/>
<path opacity="0.62" d="M44.5905 428.021H41.6543V430.844H44.5905V428.021Z" fill="#E6E6E6"/>
<path opacity="0.62" d="M49.3366 428.021H46.4004V430.844H49.3366V428.021Z" fill="#E6E6E6"/>
<path opacity="0.62" d="M54.0778 428.021H51.1416V430.844H54.0778V428.021Z" fill="#CCCCCC"/>
<path opacity="0.62" d="M58.8264 428.021H55.8901V430.844H58.8264V428.021Z" fill="#E6E6E6"/>
<path opacity="0.62" d="M63.5671 428.021H60.6309V430.844H63.5671V428.021Z" fill="#B3B3B3"/>
<path opacity="0.62" d="M68.3139 428.021H65.3777V430.844H68.3139V428.021Z" fill="#CCCCCC"/>
<path opacity="0.62" d="M73.0544 428.021H70.1182V430.844H73.0544V428.021Z" fill="#B3B3B3"/>
<path opacity="0.62" d="M77.8037 428.021H74.8674V430.844H77.8037V428.021Z" fill="white"/>
<path opacity="0.62" d="M82.5532 428.021H79.6169V430.844H82.5532V428.021Z" fill="white"/>
<path opacity="0.62" d="M87.2912 428.021H84.355V430.844H87.2912V428.021Z" fill="#CCCCCC"/>
<path opacity="0.62" d="M39.84 432.114H36.9038V434.936H39.84V432.114Z" fill="#E6E6E6"/>
<path opacity="0.62" d="M44.5905 432.114H41.6543V434.936H44.5905V432.114Z" fill="#E6E6E6"/>
<path opacity="0.62" d="M49.3366 432.114H46.4004V434.936H49.3366V432.114Z" fill="#CCCCCC"/>
<path opacity="0.62" d="M54.0778 432.114H51.1416V434.936H54.0778V432.114Z" fill="white"/>
<path opacity="0.62" d="M58.8264 432.114H55.8901V434.936H58.8264V432.114Z" fill="#B3B3B3"/>
<path opacity="0.62" d="M63.5671 432.114H60.6309V434.936H63.5671V432.114Z" fill="white"/>
<path opacity="0.62" d="M68.3139 432.114H65.3777V434.936H68.3139V432.114Z" fill="#CCCCCC"/>
<path opacity="0.62" d="M73.0544 432.114H70.1182V434.936H73.0544V432.114Z" fill="#E6E6E6"/>
<path opacity="0.62" d="M77.8037 432.114H74.8674V434.936H77.8037V432.114Z" fill="#B3B3B3"/>
<path opacity="0.62" d="M82.5532 432.114H79.6169V434.936H82.5532V432.114Z" fill="#CCCCCC"/>
<path opacity="0.62" d="M87.2912 432.114H84.355V434.936H87.2912V432.114Z" fill="#B3B3B3"/>
<path opacity="0.62" d="M39.84 436.206H36.9038V439.028H39.84V436.206Z" fill="#CCCCCC"/>
<path opacity="0.62" d="M44.5905 436.206H41.6543V439.028H44.5905V436.206Z" fill="#B3B3B3"/>
<path opacity="0.62" d="M49.3366 436.206H46.4004V439.028H49.3366V436.206Z" fill="#E6E6E6"/>
<path opacity="0.62" d="M54.0778 436.206H51.1416V439.028H54.0778V436.206Z" fill="#CCCCCC"/>
<path opacity="0.62" d="M58.8264 436.206H55.8901V439.028H58.8264V436.206Z" fill="#E6E6E6"/>
<path opacity="0.62" d="M63.5671 436.206H60.6309V439.028H63.5671V436.206Z" fill="#F2F2F2"/>
<path opacity="0.62" d="M68.3139 436.206H65.3777V439.028H68.3139V436.206Z" fill="#B3B3B3"/>
<path opacity="0.62" d="M73.0544 436.206H70.1182V439.028H73.0544V436.206Z" fill="#CCCCCC"/>
<path opacity="0.62" d="M77.8037 436.206H74.8674V439.028H77.8037V436.206Z" fill="#E6E6E6"/>
<path opacity="0.62" d="M82.5532 436.206H79.6169V439.028H82.5532V436.206Z" fill="#CCCCCC"/>
<path opacity="0.62" d="M87.2912 436.206H84.355V439.028H87.2912V436.206Z" fill="#E6E6E6"/>
<path opacity="0.62" d="M39.84 440.299H36.9038V443.121H39.84V440.299Z" fill="#CCCCCC"/>
<path opacity="0.62" d="M44.5905 440.299H41.6543V443.121H44.5905V440.299Z" fill="#E6E6E6"/>
<path opacity="0.62" d="M49.3366 440.299H46.4004V443.121H49.3366V440.299Z" fill="white"/>
<path opacity="0.62" d="M54.0778 440.299H51.1416V443.121H54.0778V440.299Z" fill="#CCCCCC"/>
<path opacity="0.62" d="M58.8264 440.299H55.8901V443.121H58.8264V440.299Z" fill="#CCCCCC"/>
<path opacity="0.62" d="M63.5671 440.299H60.6309V443.121H63.5671V440.299Z" fill="#E6E6E6"/>
<path opacity="0.62" d="M68.3139 440.299H65.3777V443.121H68.3139V440.299Z" fill="#B3B3B3"/>
<path opacity="0.62" d="M73.0544 440.299H70.1182V443.121H73.0544V440.299Z" fill="#CCCCCC"/>
<path opacity="0.62" d="M77.8037 440.299H74.8674V443.121H77.8037V440.299Z" fill="#B3B3B3"/>
<path opacity="0.62" d="M82.5532 440.299H79.6169V443.121H82.5532V440.299Z" fill="#B3B3B3"/>
<path opacity="0.62" d="M87.2912 440.299H84.355V443.121H87.2912V440.299Z" fill="#B3B3B3"/>
<path opacity="0.62" d="M39.84 444.392H36.9038V447.214H39.84V444.392Z" fill="#B3B3B3"/>
<path opacity="0.62" d="M44.5905 444.392H41.6543V447.214H44.5905V444.392Z" fill="white"/>
<path opacity="0.62" d="M49.3366 444.392H46.4004V447.214H49.3366V444.392Z" fill="#E6E6E6"/>
<path opacity="0.62" d="M54.0778 444.392H51.1416V447.214H54.0778V444.392Z" fill="#B3B3B3"/>
<path opacity="0.62" d="M58.8264 444.392H55.8901V447.214H58.8264V444.392Z" fill="#CCCCCC"/>
<path opacity="0.62" d="M63.5671 444.392H60.6309V447.214H63.5671V444.392Z" fill="#E6E6E6"/>
<path opacity="0.62" d="M68.3139 444.392H65.3777V447.214H68.3139V444.392Z" fill="white"/>
<path opacity="0.62" d="M73.0544 444.392H70.1182V447.214H73.0544V444.392Z" fill="#F2F2F2"/>
<path opacity="0.62" d="M77.8037 444.392H74.8674V447.214H77.8037V444.392Z" fill="#CCCCCC"/>
<path opacity="0.62" d="M82.5532 444.392H79.6169V447.214H82.5532V444.392Z" fill="#CCCCCC"/>
<path opacity="0.62" d="M87.2912 444.392H84.355V447.214H87.2912V444.392Z" fill="#E6E6E6"/>
<path opacity="0.62" d="M39.84 448.493H36.9038V451.315H39.84V448.493Z" fill="#B3B3B3"/>
<path opacity="0.62" d="M44.5905 448.493H41.6543V451.315H44.5905V448.493Z" fill="#F2F2F2"/>
<path opacity="0.62" d="M49.3366 448.493H46.4004V451.315H49.3366V448.493Z" fill="#B3B3B3"/>
<path opacity="0.62" d="M54.0778 448.493H51.1416V451.315H54.0778V448.493Z" fill="#F2F2F2"/>
<path opacity="0.62" d="M58.8264 448.493H55.8901V451.315H58.8264V448.493Z" fill="#E6E6E6"/>
<path opacity="0.62" d="M63.5671 448.493H60.6309V451.315H63.5671V448.493Z" fill="#F2F2F2"/>
<path opacity="0.62" d="M68.3139 448.493H65.3777V451.315H68.3139V448.493Z" fill="#E6E6E6"/>
<path opacity="0.62" d="M73.0544 448.493H70.1182V451.315H73.0544V448.493Z" fill="#F2F2F2"/>
<path opacity="0.62" d="M77.8037 448.493H74.8674V451.315H77.8037V448.493Z" fill="#CCCCCC"/>
<path opacity="0.62" d="M82.5532 448.493H79.6169V451.315H82.5532V448.493Z" fill="#B3B3B3"/>
<path opacity="0.62" d="M87.2912 448.493H84.355V451.315H87.2912V448.493Z" fill="white"/>
<path opacity="0.62" d="M39.84 452.586H36.9038V455.408H39.84V452.586Z" fill="#CCCCCC"/>
<path opacity="0.62" d="M44.5905 452.586H41.6543V455.408H44.5905V452.586Z" fill="#B3B3B3"/>
<path opacity="0.62" d="M49.3366 452.586H46.4004V455.408H49.3366V452.586Z" fill="#CCCCCC"/>
<path opacity="0.62" d="M54.0778 452.586H51.1416V455.408H54.0778V452.586Z" fill="#CCCCCC"/>
<path opacity="0.62" d="M58.8264 452.586H55.8901V455.408H58.8264V452.586Z" fill="#CCCCCC"/>
<path opacity="0.62" d="M63.5671 452.586H60.6309V455.408H63.5671V452.586Z" fill="white"/>
<path opacity="0.62" d="M68.3139 452.586H65.3777V455.408H68.3139V452.586Z" fill="#CCCCCC"/>
<path opacity="0.62" d="M73.0544 452.586H70.1182V455.408H73.0544V452.586Z" fill="#E6E6E6"/>
<path opacity="0.62" d="M77.8037 452.586H74.8674V455.408H77.8037V452.586Z" fill="#CCCCCC"/>
<path opacity="0.62" d="M82.5532 452.586H79.6169V455.408H82.5532V452.586Z" fill="#E6E6E6"/>
<path opacity="0.62" d="M87.2912 452.586H84.355V455.408H87.2912V452.586Z" fill="#E6E6E6"/>
<path opacity="0.62" d="M39.84 456.678H36.9038V459.5H39.84V456.678Z" fill="#CCCCCC"/>
<path opacity="0.62" d="M44.5905 456.678H41.6543V459.5H44.5905V456.678Z" fill="#CCCCCC"/>
<path opacity="0.62" d="M49.3366 456.678H46.4004V459.5H49.3366V456.678Z" fill="#CCCCCC"/>
<path opacity="0.62" d="M54.0778 456.678H51.1416V459.5H54.0778V456.678Z" fill="white"/>
<path opacity="0.62" d="M58.8264 456.678H55.8901V459.5H58.8264V456.678Z" fill="#E6E6E6"/>
<path opacity="0.62" d="M63.5671 456.678H60.6309V459.5H63.5671V456.678Z" fill="#CCCCCC"/>
<path opacity="0.62" d="M68.3139 456.678H65.3777V459.5H68.3139V456.678Z" fill="#E6E6E6"/>
<path opacity="0.62" d="M73.0544 456.678H70.1182V459.5H73.0544V456.678Z" fill="#CCCCCC"/>
<path opacity="0.62" d="M77.8037 456.678H74.8674V459.5H77.8037V456.678Z" fill="#B3B3B3"/>
<path opacity="0.62" d="M82.5532 456.678H79.6169V459.5H82.5532V456.678Z" fill="#B3B3B3"/>
<path opacity="0.62" d="M87.2912 456.678H84.355V459.5H87.2912V456.678Z" fill="#CCCCCC"/>
<path opacity="0.62" d="M39.84 460.771H36.9038V463.593H39.84V460.771Z" fill="#CCCCCC"/>
<path opacity="0.62" d="M44.5905 460.771H41.6543V463.593H44.5905V460.771Z" fill="#E6E6E6"/>
<path opacity="0.62" d="M49.3366 460.771H46.4004V463.593H49.3366V460.771Z" fill="#E6E6E6"/>
<path opacity="0.62" d="M54.0778 460.771H51.1416V463.593H54.0778V460.771Z" fill="#CCCCCC"/>
<path opacity="0.62" d="M58.8264 460.771H55.8901V463.593H58.8264V460.771Z" fill="#E6E6E6"/>
<path opacity="0.62" d="M63.5671 460.771H60.6309V463.593H63.5671V460.771Z" fill="#F2F2F2"/>
<path opacity="0.62" d="M68.3139 460.771H65.3777V463.593H68.3139V460.771Z" fill="#CCCCCC"/>
<path opacity="0.62" d="M73.0544 460.771H70.1182V463.593H73.0544V460.771Z" fill="#CCCCCC"/>
<path opacity="0.62" d="M77.8037 460.771H74.8674V463.593H77.8037V460.771Z" fill="#E6E6E6"/>
<path opacity="0.62" d="M82.5532 460.771H79.6169V463.593H82.5532V460.771Z" fill="#CCCCCC"/>
<path opacity="0.62" d="M87.2912 460.771H84.355V463.593H87.2912V460.771Z" fill="#CCCCCC"/>
<path opacity="0.62" d="M39.84 464.863H36.9038V467.685H39.84V464.863Z" fill="white"/>
<path opacity="0.62" d="M44.5905 464.863H41.6543V467.685H44.5905V464.863Z" fill="#CCCCCC"/>
<path opacity="0.62" d="M49.3366 464.863H46.4004V467.685H49.3366V464.863Z" fill="#E6E6E6"/>
<path opacity="0.62" d="M54.0778 464.863H51.1416V467.685H54.0778V464.863Z" fill="#E6E6E6"/>
<path opacity="0.62" d="M58.8264 464.863H55.8901V467.685H58.8264V464.863Z" fill="#B3B3B3"/>
<path opacity="0.62" d="M63.5671 464.863H60.6309V467.685H63.5671V464.863Z" fill="#B3B3B3"/>
<path opacity="0.62" d="M68.3139 464.863H65.3777V467.685H68.3139V464.863Z" fill="#E6E6E6"/>
<path opacity="0.62" d="M73.0544 464.863H70.1182V467.685H73.0544V464.863Z" fill="#CCCCCC"/>
<path opacity="0.62" d="M77.8037 464.863H74.8674V467.685H77.8037V464.863Z" fill="#B3B3B3"/>
<path opacity="0.62" d="M82.5532 464.863H79.6169V467.685H82.5532V464.863Z" fill="#E6E6E6"/>
<path opacity="0.62" d="M87.2912 464.863H84.355V467.685H87.2912V464.863Z" fill="#CCCCCC"/>
<path opacity="0.62" d="M39.84 468.965H36.9038V471.787H39.84V468.965Z" fill="#CCCCCC"/>
<path opacity="0.62" d="M44.5905 468.965H41.6543V471.787H44.5905V468.965Z" fill="#CCCCCC"/>
<path opacity="0.62" d="M49.3366 468.965H46.4004V471.787H49.3366V468.965Z" fill="#E6E6E6"/>
<path opacity="0.62" d="M54.0778 468.965H51.1416V471.787H54.0778V468.965Z" fill="#E6E6E6"/>
<path opacity="0.62" d="M58.8264 468.965H55.8901V471.787H58.8264V468.965Z" fill="#CCCCCC"/>
<path opacity="0.62" d="M63.5671 468.965H60.6309V471.787H63.5671V468.965Z" fill="#E6E6E6"/>
<path opacity="0.62" d="M68.3139 468.965H65.3777V471.787H68.3139V468.965Z" fill="#E6E6E6"/>
<path opacity="0.62" d="M73.0544 468.965H70.1182V471.787H73.0544V468.965Z" fill="#F2F2F2"/>
<path opacity="0.62" d="M77.8037 468.965H74.8674V471.787H77.8037V468.965Z" fill="#F2F2F2"/>
<path opacity="0.62" d="M82.5532 468.965H79.6169V471.787H82.5532V468.965Z" fill="#B3B3B3"/>
<path opacity="0.62" d="M87.2912 468.965H84.355V471.787H87.2912V468.965Z" fill="#CCCCCC"/>
<path opacity="0.62" d="M39.84 473.057H36.9038V475.879H39.84V473.057Z" fill="#CCCCCC"/>
<path opacity="0.62" d="M44.5905 473.057H41.6543V475.879H44.5905V473.057Z" fill="white"/>
<path opacity="0.62" d="M49.3366 473.057H46.4004V475.879H49.3366V473.057Z" fill="#CCCCCC"/>
<path opacity="0.62" d="M54.0778 473.057H51.1416V475.879H54.0778V473.057Z" fill="#CCCCCC"/>
<path opacity="0.62" d="M58.8264 473.057H55.8901V475.879H58.8264V473.057Z" fill="#B3B3B3"/>
<path opacity="0.62" d="M63.5671 473.057H60.6309V475.879H63.5671V473.057Z" fill="#CCCCCC"/>
<path opacity="0.62" d="M68.3139 473.057H65.3777V475.879H68.3139V473.057Z" fill="#CCCCCC"/>
<path opacity="0.62" d="M73.0544 473.057H70.1182V475.879H73.0544V473.057Z" fill="#B3B3B3"/>
<path opacity="0.62" d="M77.8037 473.057H74.8674V475.879H77.8037V473.057Z" fill="#CCCCCC"/>
<path opacity="0.62" d="M82.5532 473.057H79.6169V475.879H82.5532V473.057Z" fill="#CCCCCC"/>
<path opacity="0.62" d="M87.2912 473.057H84.355V475.879H87.2912V473.057Z" fill="#E6E6E6"/>
</g>
<path d="M459.703 317.642L459.675 252.724V194.322H459.647L459.637 160.965H459.552L459.524 79.6407H456.541V74.6861H453.35V62.0365H445.948V61.9912L445.627 46.0657L445.551 41.8371H446.986V41.5286H445.551L445.353 30.104H444.55L444.314 41.5286H443.002V41.8371H444.314L444.229 46.0657L443.918 61.9912V62.0365H436.431V74.6861H433.24V79.6407H430.256L430.275 137.208H423.345V154.286H418.341V160.965H413.64L413.668 216.527H410.297V223.269L400.714 228.087V224.467H395.531V507.322H398.146H400.714H410.297H415.481H439.726H444.909H454.492H457.06H459.675V317.642H459.703Z" fill="#0A0024"/>
<g opacity="0.88">
<path opacity="0.88" d="M409.75 249.539H408.542V481.569H409.75V249.539Z" fill="#C7DBD9"/>
<path opacity="0.88" d="M422.486 249.539H421.278V481.569H422.486V249.539Z" fill="#C7DBD9"/>
<path opacity="0.88" d="M435.165 173.097H433.919V481.624H435.127L435.165 173.097Z" fill="#C7DBD9"/>
<path opacity="0.88" d="M441.473 173.097H440.264V481.624H441.473V173.097Z" fill="#C7DBD9"/>
<path opacity="0.88" d="M447.855 173.097H446.637V481.624H447.855V173.097Z" fill="#C7DBD9"/>
<path opacity="0.88" d="M428.831 173.097H427.614V481.624H428.831V173.097Z" fill="#C7DBD9"/>
<path opacity="0.88" d="M416.093 249.539H414.885V481.569H416.093V249.539Z" fill="#C7DBD9"/>
</g>
<path d="M257.754 352.433H250.607V343.259H251.57V341.789H244.999V336.535H245.574V335.383H242.742V330.365H240.061H239.626V312.524H239.343H238.956H238.616V330.365H237.323V320.41H237.04H236.7H236.322V330.365H233.206V335.383H229.94V336.535H230.95V341.789H224.426V343.259H225.342V352.433H218.195V353.958H219.205V496.488H256.743V353.958H257.754V352.433Z" fill="#0D0030"/>
<path d="M239.768 372.615H238.286V375.7H239.768V372.615Z" fill="#C7DBD9"/>
<path d="M245.094 372.615H243.611V375.7H245.094V372.615Z" fill="#C7DBD9"/>
<path d="M251.277 372.615H249.814V375.7H251.296L251.277 372.615Z" fill="#C7DBD9"/>
<path d="M228.024 372.615H226.542V375.7H228.024V372.615Z" fill="#C7DBD9"/>
<path d="M233.302 372.615H231.81V375.7H233.302V372.615Z" fill="#C7DBD9"/>
<path d="M239.768 377.959H238.286V381.054H239.768V377.959Z" fill="#C7DBD9"/>
<path d="M245.094 377.959H243.611V381.054H245.094V377.959Z" fill="#C7DBD9"/>
<path d="M251.277 377.959H249.814V381.054H251.296L251.277 377.959Z" fill="#C7DBD9"/>
<path d="M228.024 377.959H226.542V381.054H228.024V377.959Z" fill="#C7DBD9"/>
<path d="M233.302 377.959H231.81V381.054H233.302V377.959Z" fill="#C7DBD9"/>
<path d="M239.768 383.304H238.286V386.399H239.768V383.304Z" fill="#C7DBD9"/>
<path d="M245.094 383.304H243.611V386.399H245.094V383.304Z" fill="#C7DBD9"/>
<path d="M251.277 383.304H249.814V386.399H251.296L251.277 383.304Z" fill="#C7DBD9"/>
<path d="M228.024 383.304H226.542V386.399H228.024V383.304Z" fill="#C7DBD9"/>
<path d="M233.302 383.304H231.81V386.399H233.302V383.304Z" fill="#C7DBD9"/>
<path d="M239.627 388.649H238.144V391.789H239.627V388.649Z" fill="#C7DBD9"/>
<path d="M244.951 388.649H243.46V391.789H244.951V388.649Z" fill="#C7DBD9"/>
<path d="M251.137 388.649H249.655V391.789H251.137V388.649Z" fill="#C7DBD9"/>
<path d="M227.882 388.649H226.4V391.789H227.882V388.649Z" fill="#C7DBD9"/>
<path d="M233.161 388.649H231.669V391.789H233.161V388.649Z" fill="#C7DBD9"/>
<path d="M239.627 394.003H238.144V397.088H239.627V394.003Z" fill="#C7DBD9"/>
<path d="M244.951 394.003H243.46V397.088H244.951V394.003Z" fill="#C7DBD9"/>
<path d="M251.137 394.003H249.655V397.088H251.137V394.003Z" fill="#C7DBD9"/>
<path d="M227.882 394.003H226.4V397.088H227.882V394.003Z" fill="#C7DBD9"/>
<path d="M233.161 394.003H231.669V397.088H233.161V394.003Z" fill="#C7DBD9"/>
<path d="M239.627 399.348H238.144V402.433H239.627V399.348Z" fill="#C7DBD9"/>
<path d="M244.951 399.348H243.46V402.433H244.951V399.348Z" fill="#C7DBD9"/>
<path d="M251.137 399.348H249.655V402.433H251.137V399.348Z" fill="#C7DBD9"/>
<path d="M227.882 399.348H226.4V402.433H227.882V399.348Z" fill="#C7DBD9"/>
<path d="M233.161 399.348H231.669V402.433H233.161V399.348Z" fill="#C7DBD9"/>
</g>
<defs>
<linearGradient id="paint0_linear_986_228" x1="296.235" y1="269.929" x2="296.235" y2="439.428" gradientUnits="userSpaceOnUse">
<stop stop-color="#4F044A"/>
<stop offset="1" stop-color="#0D0030"/>
</linearGradient>
<linearGradient id="paint1_linear_986_228" x1="614.71" y1="488.911" x2="614.71" y2="145.412" gradientUnits="userSpaceOnUse">
<stop stop-color="#071859"/>
<stop offset="0.74" stop-color="#000037"/>
</linearGradient>
<linearGradient id="paint2_linear_986_228" x1="80615.2" y1="200315" x2="80615.2" y2="94134.9" gradientUnits="userSpaceOnUse">
<stop stop-color="#071859"/>
<stop offset="0.74" stop-color="#000037"/>
</linearGradient>
<linearGradient id="paint3_linear_986_228" x1="-17969.2" y1="-103436" x2="-17969.2" y2="-39090.1" gradientUnits="userSpaceOnUse">
<stop stop-color="#120055"/>
<stop offset="0.7" stop-color="#10002A"/>
</linearGradient>
</defs>
</svg>
