<svg width="314" height="211" viewBox="0 0 314 211" fill="none" xmlns="http://www.w3.org/2000/svg">
<path d="M37.2357 203.493H0.7146V25.3262H28.4007L37.2357 203.493Z" fill="url(#paint0_linear_514_18467)"/>
<path d="M15.2142 10.9194H2.1521V38.9783H15.2375L15.2142 10.9194Z" fill="#0D0020"/>
<path d="M13.8084 0.911621H3.58252V16.67H13.8084V0.911621Z" fill="#0D0020"/>
<path d="M22.9146 19.1719H20.4048V30.5538H22.9146V19.1719Z" fill="#0D0020"/>
<path d="M27.4207 8.81348H23.823V30.4719H27.4207V8.81348Z" fill="#0D0020"/>
<g opacity="0.55">
<path opacity="0.55" d="M7.38954 36.312H4.89526V38.7094H7.38954V36.312Z" fill="#F2F2F2"/>
<path opacity="0.55" d="M11.4233 36.312H8.92896V38.7094H11.4233V36.312Z" fill="#E6E6E6"/>
<path opacity="0.55" d="M15.4553 36.312H12.9609V38.7094H15.4553V36.312Z" fill="white"/>
<path opacity="0.55" d="M19.488 36.312H16.9937V38.7094H19.488V36.312Z" fill="#CCCCCC"/>
<path opacity="0.55" d="M23.5209 36.312H21.0266V38.7094H23.5209V36.312Z" fill="#F2F2F2"/>
<path opacity="0.55" d="M7.38954 39.7925H4.89526V42.1898H7.38954V39.7925Z" fill="#CCCCCC"/>
<path opacity="0.55" d="M11.4233 39.7925H8.92896V42.1898H11.4233V39.7925Z" fill="#F2F2F2"/>
<path opacity="0.55" d="M15.4553 39.7925H12.9609V42.1898H15.4553V39.7925Z" fill="#CCCCCC"/>
<path opacity="0.55" d="M19.488 39.7925H16.9937V42.1898H19.488V39.7925Z" fill="#F2F2F2"/>
<path opacity="0.55" d="M23.5209 39.7925H21.0266V42.1898H23.5209V39.7925Z" fill="#B3B3B3"/>
<path opacity="0.55" d="M7.38954 43.2725H4.89526V45.6698H7.38954V43.2725Z" fill="white"/>
<path opacity="0.55" d="M11.4233 43.2725H8.92896V45.6698H11.4233V43.2725Z" fill="#CCCCCC"/>
<path opacity="0.55" d="M15.4553 43.2725H12.9609V45.6698H15.4553V43.2725Z" fill="white"/>
<path opacity="0.55" d="M19.488 43.2725H16.9937V45.6698H19.488V43.2725Z" fill="#B3B3B3"/>
<path opacity="0.55" d="M23.5209 43.2725H21.0266V45.6698H23.5209V43.2725Z" fill="white"/>
<path opacity="0.55" d="M7.38954 46.7529H4.89526V49.1503H7.38954V46.7529Z" fill="#E6E6E6"/>
<path opacity="0.55" d="M11.4233 46.7529H8.92896V49.1503H11.4233V46.7529Z" fill="#B3B3B3"/>
<path opacity="0.55" d="M15.4553 46.7529H12.9609V49.1503H15.4553V46.7529Z" fill="#CCCCCC"/>
<path opacity="0.55" d="M19.488 46.7529H16.9937V49.1503H19.488V46.7529Z" fill="white"/>
<path opacity="0.55" d="M23.5209 46.7529H21.0266V49.1503H23.5209V46.7529Z" fill="#B3B3B3"/>
<path opacity="0.55" d="M7.38954 50.2334H4.89526V52.6308H7.38954V50.2334Z" fill="#B3B3B3"/>
<path opacity="0.55" d="M11.4233 50.2334H8.92896V52.6308H11.4233V50.2334Z" fill="#CCCCCC"/>
<path opacity="0.55" d="M15.4553 50.2334H12.9609V52.6308H15.4553V50.2334Z" fill="#CCCCCC"/>
<path opacity="0.55" d="M19.488 50.2334H16.9937V52.6308H19.488V50.2334Z" fill="#E6E6E6"/>
<path opacity="0.55" d="M23.5209 50.2334H21.0266V52.6308H23.5209V50.2334Z" fill="#CCCCCC"/>
<path opacity="0.55" d="M7.38954 53.7134H4.89526V56.1107H7.38954V53.7134Z" fill="#B3B3B3"/>
<path opacity="0.55" d="M11.4233 53.7134H8.92896V56.1107H11.4233V53.7134Z" fill="#B3B3B3"/>
<path opacity="0.55" d="M15.4553 53.7134H12.9609V56.1107H15.4553V53.7134Z" fill="#E6E6E6"/>
<path opacity="0.55" d="M19.488 53.7134H16.9937V56.1107H19.488V53.7134Z" fill="#CCCCCC"/>
<path opacity="0.55" d="M23.5209 53.7134H21.0266V56.1107H23.5209V53.7134Z" fill="#B3B3B3"/>
<path opacity="0.55" d="M7.38954 57.1938H4.89526V59.5912H7.38954V57.1938Z" fill="#CCCCCC"/>
<path opacity="0.55" d="M11.4233 57.1938H8.92896V59.5912H11.4233V57.1938Z" fill="#B3B3B3"/>
<path opacity="0.55" d="M15.4553 57.1938H12.9609V59.5912H15.4553V57.1938Z" fill="white"/>
<path opacity="0.55" d="M19.488 57.1938H16.9937V59.5912H19.488V57.1938Z" fill="#B3B3B3"/>
<path opacity="0.55" d="M23.5209 57.1938H21.0266V59.5912H23.5209V57.1938Z" fill="#E6E6E6"/>
<path opacity="0.55" d="M7.38954 60.6738H4.89526V63.0712H7.38954V60.6738Z" fill="#F2F2F2"/>
<path opacity="0.55" d="M11.4233 60.6738H8.92896V63.0712H11.4233V60.6738Z" fill="#F2F2F2"/>
<path opacity="0.55" d="M15.4553 60.6738H12.9609V63.0712H15.4553V60.6738Z" fill="#F2F2F2"/>
<path opacity="0.55" d="M19.488 60.6738H16.9937V63.0712H19.488V60.6738Z" fill="#E6E6E6"/>
<path opacity="0.55" d="M23.5209 60.6738H21.0266V63.0712H23.5209V60.6738Z" fill="white"/>
<path opacity="0.55" d="M7.38954 64.1543H4.89526V66.5517H7.38954V64.1543Z" fill="#CCCCCC"/>
<path opacity="0.55" d="M11.4233 64.1543H8.92896V66.5517H11.4233V64.1543Z" fill="#E6E6E6"/>
<path opacity="0.55" d="M15.4553 64.1543H12.9609V66.5517H15.4553V64.1543Z" fill="#CCCCCC"/>
<path opacity="0.55" d="M19.488 64.1543H16.9937V66.5517H19.488V64.1543Z" fill="white"/>
<path opacity="0.55" d="M23.5209 64.1543H21.0266V66.5517H23.5209V64.1543Z" fill="#F2F2F2"/>
<path opacity="0.55" d="M7.38954 67.6348H4.89526V70.0321H7.38954V67.6348Z" fill="#B3B3B3"/>
<path opacity="0.55" d="M11.4233 67.6348H8.92896V70.0321H11.4233V67.6348Z" fill="#E6E6E6"/>
<path opacity="0.55" d="M15.4553 67.6348H12.9609V70.0321H15.4553V67.6348Z" fill="#CCCCCC"/>
<path opacity="0.55" d="M19.488 67.6348H16.9937V70.0321H19.488V67.6348Z" fill="#E6E6E6"/>
<path opacity="0.55" d="M23.5209 67.6348H21.0266V70.0321H23.5209V67.6348Z" fill="#F2F2F2"/>
<path opacity="0.55" d="M7.38954 71.1147H4.89526V73.5121H7.38954V71.1147Z" fill="#E6E6E6"/>
<path opacity="0.55" d="M11.4233 71.1147H8.92896V73.5121H11.4233V71.1147Z" fill="#CCCCCC"/>
<path opacity="0.55" d="M15.4553 71.1147H12.9609V73.5121H15.4553V71.1147Z" fill="#CCCCCC"/>
<path opacity="0.55" d="M19.488 71.1147H16.9937V73.5121H19.488V71.1147Z" fill="white"/>
<path opacity="0.55" d="M23.5209 71.1147H21.0266V73.5121H23.5209V71.1147Z" fill="#F2F2F2"/>
<path opacity="0.55" d="M7.38954 74.5952H4.89526V76.9926H7.38954V74.5952Z" fill="#B3B3B3"/>
<path opacity="0.55" d="M11.4233 74.5952H8.92896V76.9926H11.4233V74.5952Z" fill="#CCCCCC"/>
<path opacity="0.55" d="M15.4553 74.5952H12.9609V76.9926H15.4553V74.5952Z" fill="white"/>
<path opacity="0.55" d="M19.488 74.5952H16.9937V76.9926H19.488V74.5952Z" fill="#E6E6E6"/>
<path opacity="0.55" d="M23.5209 74.5952H21.0266V76.9926H23.5209V74.5952Z" fill="#B3B3B3"/>
<path opacity="0.55" d="M7.38954 78.0757H4.89526V80.473H7.38954V78.0757Z" fill="#F2F2F2"/>
<path opacity="0.55" d="M11.4233 78.0757H8.92896V80.473H11.4233V78.0757Z" fill="#B3B3B3"/>
<path opacity="0.55" d="M15.4553 78.0757H12.9609V80.473H15.4553V78.0757Z" fill="#E6E6E6"/>
<path opacity="0.55" d="M19.488 78.0757H16.9937V80.473H19.488V78.0757Z" fill="#E6E6E6"/>
<path opacity="0.55" d="M23.5209 78.0757H21.0266V80.473H23.5209V78.0757Z" fill="#E6E6E6"/>
<path opacity="0.55" d="M7.38954 81.563H4.89526V83.9604H7.38954V81.563Z" fill="#B3B3B3"/>
<path opacity="0.55" d="M11.4233 81.563H8.92896V83.9604H11.4233V81.563Z" fill="#B3B3B3"/>
<path opacity="0.55" d="M15.4553 81.563H12.9609V83.9604H15.4553V81.563Z" fill="#E6E6E6"/>
<path opacity="0.55" d="M19.488 81.563H16.9937V83.9604H19.488V81.563Z" fill="#E6E6E6"/>
<path opacity="0.55" d="M23.5209 81.563H21.0266V83.9604H23.5209V81.563Z" fill="#CCCCCC"/>
<path opacity="0.55" d="M7.38954 85.0435H4.89526V87.4408H7.38954V85.0435Z" fill="#CCCCCC"/>
<path opacity="0.55" d="M11.4233 85.0435H8.92896V87.4408H11.4233V85.0435Z" fill="#E6E6E6"/>
<path opacity="0.55" d="M15.4553 85.0435H12.9609V87.4408H15.4553V85.0435Z" fill="#E6E6E6"/>
<path opacity="0.55" d="M19.488 85.0435H16.9937V87.4408H19.488V85.0435Z" fill="#CCCCCC"/>
<path opacity="0.55" d="M23.5209 85.0435H21.0266V87.4408H23.5209V85.0435Z" fill="white"/>
<path opacity="0.55" d="M7.38954 88.5239H4.89526V90.9213H7.38954V88.5239Z" fill="#B3B3B3"/>
<path opacity="0.55" d="M11.4233 88.5239H8.92896V90.9213H11.4233V88.5239Z" fill="#CCCCCC"/>
<path opacity="0.55" d="M15.4553 88.5239H12.9609V90.9213H15.4553V88.5239Z" fill="#B3B3B3"/>
<path opacity="0.55" d="M19.488 88.5239H16.9937V90.9213H19.488V88.5239Z" fill="#E6E6E6"/>
<path opacity="0.55" d="M23.5209 88.5239H21.0266V90.9213H23.5209V88.5239Z" fill="#CCCCCC"/>
<path opacity="0.55" d="M27.5546 88.5239H25.0603V90.9213H27.5546V88.5239Z" fill="#E6E6E6"/>
<path opacity="0.55" d="M7.38954 92.0039H4.89526V94.4013H7.38954V92.0039Z" fill="#CCCCCC"/>
<path opacity="0.55" d="M11.4233 92.0039H8.92896V94.4013H11.4233V92.0039Z" fill="#CCCCCC"/>
<path opacity="0.55" d="M15.4553 92.0039H12.9609V94.4013H15.4553V92.0039Z" fill="#E6E6E6"/>
<path opacity="0.55" d="M19.488 92.0039H16.9937V94.4013H19.488V92.0039Z" fill="white"/>
<path opacity="0.55" d="M23.5209 92.0039H21.0266V94.4013H23.5209V92.0039Z" fill="#CCCCCC"/>
<path opacity="0.55" d="M27.5546 92.0039H25.0603V94.4013H27.5546V92.0039Z" fill="#CCCCCC"/>
<path opacity="0.55" d="M7.38954 95.4844H4.89526V97.8817H7.38954V95.4844Z" fill="#E6E6E6"/>
<path opacity="0.55" d="M11.4233 95.4844H8.92896V97.8817H11.4233V95.4844Z" fill="#B3B3B3"/>
<path opacity="0.55" d="M15.4553 95.4844H12.9609V97.8817H15.4553V95.4844Z" fill="white"/>
<path opacity="0.55" d="M19.488 95.4844H16.9937V97.8817H19.488V95.4844Z" fill="#E6E6E6"/>
<path opacity="0.55" d="M23.5209 95.4844H21.0266V97.8817H23.5209V95.4844Z" fill="#B3B3B3"/>
<path opacity="0.55" d="M27.5546 95.4844H25.0603V97.8817H27.5546V95.4844Z" fill="#CCCCCC"/>
<path opacity="0.55" d="M7.38954 98.9648H4.89526V101.362H7.38954V98.9648Z" fill="#CCCCCC"/>
<path opacity="0.55" d="M11.4233 98.9648H8.92896V101.362H11.4233V98.9648Z" fill="#B3B3B3"/>
<path opacity="0.55" d="M15.4553 98.9648H12.9609V101.362H15.4553V98.9648Z" fill="#F2F2F2"/>
<path opacity="0.55" d="M19.488 98.9648H16.9937V101.362H19.488V98.9648Z" fill="#B3B3B3"/>
<path opacity="0.55" d="M23.5209 98.9648H21.0266V101.362H23.5209V98.9648Z" fill="#F2F2F2"/>
<path opacity="0.55" d="M27.5546 98.9648H25.0603V101.362H27.5546V98.9648Z" fill="#E6E6E6"/>
<path opacity="0.55" d="M7.38954 102.445H4.89526V104.843H7.38954V102.445Z" fill="#B3B3B3"/>
<path opacity="0.55" d="M11.4233 102.445H8.92896V104.843H11.4233V102.445Z" fill="#CCCCCC"/>
<path opacity="0.55" d="M15.4553 102.445H12.9609V104.843H15.4553V102.445Z" fill="#B3B3B3"/>
<path opacity="0.55" d="M19.488 102.445H16.9937V104.843H19.488V102.445Z" fill="#CCCCCC"/>
<path opacity="0.55" d="M23.5209 102.445H21.0266V104.843H23.5209V102.445Z" fill="#CCCCCC"/>
<path opacity="0.55" d="M27.5546 102.445H25.0603V104.843H27.5546V102.445Z" fill="#CCCCCC"/>
<path opacity="0.55" d="M7.38954 105.925H4.89526V108.323H7.38954V105.925Z" fill="#B3B3B3"/>
<path opacity="0.55" d="M11.4233 105.925H8.92896V108.323H11.4233V105.925Z" fill="#CCCCCC"/>
<path opacity="0.55" d="M15.4553 105.925H12.9609V108.323H15.4553V105.925Z" fill="#CCCCCC"/>
<path opacity="0.55" d="M19.488 105.925H16.9937V108.323H19.488V105.925Z" fill="#CCCCCC"/>
<path opacity="0.55" d="M23.5209 105.925H21.0266V108.323H23.5209V105.925Z" fill="white"/>
<path opacity="0.55" d="M27.5546 105.925H25.0603V108.323H27.5546V105.925Z" fill="#E6E6E6"/>
<path opacity="0.55" d="M7.38954 109.406H4.89526V111.803H7.38954V109.406Z" fill="#B3B3B3"/>
<path opacity="0.55" d="M11.4233 109.406H8.92896V111.803H11.4233V109.406Z" fill="#CCCCCC"/>
<path opacity="0.55" d="M15.4553 109.406H12.9609V111.803H15.4553V109.406Z" fill="#E6E6E6"/>
<path opacity="0.55" d="M19.488 109.406H16.9937V111.803H19.488V109.406Z" fill="#E6E6E6"/>
<path opacity="0.55" d="M23.5209 109.406H21.0266V111.803H23.5209V109.406Z" fill="#CCCCCC"/>
<path opacity="0.55" d="M27.5546 109.406H25.0603V111.803H27.5546V109.406Z" fill="#E6E6E6"/>
<path opacity="0.55" d="M7.38954 112.886H4.89526V115.283H7.38954V112.886Z" fill="#E6E6E6"/>
<path opacity="0.55" d="M11.4233 112.886H8.92896V115.283H11.4233V112.886Z" fill="white"/>
<path opacity="0.55" d="M15.4553 112.886H12.9609V115.283H15.4553V112.886Z" fill="#CCCCCC"/>
<path opacity="0.55" d="M19.488 112.886H16.9937V115.283H19.488V112.886Z" fill="#E6E6E6"/>
<path opacity="0.55" d="M23.5209 112.886H21.0266V115.283H23.5209V112.886Z" fill="#E6E6E6"/>
<path opacity="0.55" d="M27.5546 112.886H25.0603V115.283H27.5546V112.886Z" fill="#B3B3B3"/>
<path opacity="0.55" d="M7.38954 116.366H4.89526V118.764H7.38954V116.366Z" fill="#B3B3B3"/>
<path opacity="0.55" d="M11.4233 116.366H8.92896V118.764H11.4233V116.366Z" fill="#CCCCCC"/>
<path opacity="0.55" d="M15.4553 116.366H12.9609V118.764H15.4553V116.366Z" fill="#CCCCCC"/>
<path opacity="0.55" d="M19.488 116.366H16.9937V118.764H19.488V116.366Z" fill="#E6E6E6"/>
<path opacity="0.55" d="M23.5209 116.366H21.0266V118.764H23.5209V116.366Z" fill="#E6E6E6"/>
<path opacity="0.55" d="M27.5546 116.366H25.0603V118.764H27.5546V116.366Z" fill="#CCCCCC"/>
<path opacity="0.55" d="M7.38954 119.846H4.89526V122.244H7.38954V119.846Z" fill="#B3B3B3"/>
<path opacity="0.55" d="M11.4233 119.846H8.92896V122.244H11.4233V119.846Z" fill="#CCCCCC"/>
<path opacity="0.55" d="M15.4553 119.846H12.9609V122.244H15.4553V119.846Z" fill="white"/>
<path opacity="0.55" d="M19.488 119.846H16.9937V122.244H19.488V119.846Z" fill="#CCCCCC"/>
<path opacity="0.55" d="M23.5209 119.846H21.0266V122.244H23.5209V119.846Z" fill="#CCCCCC"/>
<path opacity="0.55" d="M27.5546 119.846H25.0603V122.244H27.5546V119.846Z" fill="#B3B3B3"/>
</g>
<path d="M309.73 119.794V69.823H301.02V56.4321H297.911V36.8126H280.754V22.3387H279.255V36.7827H275.874V18.7539H274.375V36.8126H263.496V69.823H257.886V119.794H253.138V210.842H313.103V119.794H309.73Z" fill="#0D0030"/>
<g opacity="0.57">
<path opacity="0.57" d="M270.557 79.6665H269.78V203.516H270.557V79.6665Z" fill="#C7DBD9"/>
<path opacity="0.57" d="M278.949 79.6665H278.172V203.516H278.949V79.6665Z" fill="#C7DBD9"/>
<path opacity="0.57" d="M287.326 79.6665H286.549V203.516H287.326V79.6665Z" fill="#C7DBD9"/>
<path opacity="0.57" d="M291.482 79.6665H290.705V203.516H291.482V79.6665Z" fill="#C7DBD9"/>
<path opacity="0.57" d="M295.663 79.6665H294.886V203.516H295.663V79.6665Z" fill="#C7DBD9"/>
<path opacity="0.57" d="M283.129 79.6665H282.352V203.516H283.129V79.6665Z" fill="#C7DBD9"/>
<path opacity="0.57" d="M274.767 79.6665H273.99V203.516H274.767V79.6665Z" fill="#C7DBD9"/>
</g>
<defs>
<linearGradient id="paint0_linear_514_18467" x1="18.9751" y1="203.493" x2="18.9751" y2="25.3187" gradientUnits="userSpaceOnUse">
<stop stop-color="#3F0442"/>
<stop offset="1" stop-color="#0D0020"/>
</linearGradient>
</defs>
</svg>
