<svg width="767" height="312" viewBox="0 0 767 312" fill="none" xmlns="http://www.w3.org/2000/svg">
<mask id="mask0_1526_5962" style="mask-type:alpha" maskUnits="userSpaceOnUse" x="0" y="0" width="767" height="312">
<rect width="766.259" height="311.47" fill="#C4C4C4"/>
</mask>
<g mask="url(#mask0_1526_5962)">
<path d="M368.66 298.199L369.738 313.854L345.154 317.297V298.199V183.529H362.973L368.66 298.199Z" fill="url(#paint0_linear_1526_5962)"/>
<path d="M354.487 174.257H346.08V192.316H354.502L354.487 174.257Z" fill="#0D0020"/>
<path d="M353.581 167.815H347V177.958H353.581V167.815Z" fill="#0D0020"/>
<path d="M359.443 179.568H357.827V186.893H359.443V179.568Z" fill="#0D0020"/>
<path d="M362.343 172.901H360.027V186.841H362.343V172.901Z" fill="#0D0020"/>
<g opacity="0.55">
<path opacity="0.55" d="M349.451 190.6H347.846V192.143H349.451V190.6Z" fill="#F2F2F2"/>
<path opacity="0.55" d="M352.048 190.6H350.442V192.143H352.048V190.6Z" fill="#E6E6E6"/>
<path opacity="0.55" d="M354.642 190.6H353.037V192.143H354.642V190.6Z" fill="white"/>
<path opacity="0.55" d="M357.238 190.6H355.633V192.143H357.238V190.6Z" fill="#CCCCCC"/>
<path opacity="0.55" d="M359.833 190.6H358.228V192.143H359.833V190.6Z" fill="#F2F2F2"/>
<path opacity="0.55" d="M349.451 192.84H347.846V194.383H349.451V192.84Z" fill="#CCCCCC"/>
<path opacity="0.55" d="M352.047 192.84H350.441V194.383H352.047V192.84Z" fill="#F2F2F2"/>
<path opacity="0.55" d="M354.642 192.84H353.037V194.383H354.642V192.84Z" fill="#CCCCCC"/>
<path opacity="0.55" d="M357.237 192.84H355.632V194.383H357.237V192.84Z" fill="#F2F2F2"/>
<path opacity="0.55" d="M359.833 192.84H358.228V194.383H359.833V192.84Z" fill="#B3B3B3"/>
<path opacity="0.55" d="M349.451 195.079H347.846V196.622H349.451V195.079Z" fill="white"/>
<path opacity="0.55" d="M352.048 195.079H350.442V196.622H352.048V195.079Z" fill="#CCCCCC"/>
<path opacity="0.55" d="M354.642 195.079H353.037V196.622H354.642V195.079Z" fill="white"/>
<path opacity="0.55" d="M357.238 195.079H355.633V196.622H357.238V195.079Z" fill="#B3B3B3"/>
<path opacity="0.55" d="M359.833 195.079H358.228V196.622H359.833V195.079Z" fill="white"/>
<path opacity="0.55" d="M349.451 197.32H347.846V198.863H349.451V197.32Z" fill="#E6E6E6"/>
<path opacity="0.55" d="M352.047 197.32H350.441V198.863H352.047V197.32Z" fill="#B3B3B3"/>
<path opacity="0.55" d="M354.642 197.32H353.037V198.863H354.642V197.32Z" fill="#CCCCCC"/>
<path opacity="0.55" d="M357.237 197.32H355.632V198.863H357.237V197.32Z" fill="white"/>
<path opacity="0.55" d="M359.833 197.32H358.228V198.863H359.833V197.32Z" fill="#B3B3B3"/>
<path opacity="0.55" d="M349.451 199.559H347.846V201.102H349.451V199.559Z" fill="#B3B3B3"/>
<path opacity="0.55" d="M352.047 199.559H350.441V201.102H352.047V199.559Z" fill="#CCCCCC"/>
<path opacity="0.55" d="M354.642 199.559H353.037V201.102H354.642V199.559Z" fill="#CCCCCC"/>
<path opacity="0.55" d="M357.237 199.559H355.632V201.102H357.237V199.559Z" fill="#E6E6E6"/>
<path opacity="0.55" d="M359.833 199.559H358.228V201.102H359.833V199.559Z" fill="#CCCCCC"/>
<path opacity="0.55" d="M349.451 201.799H347.846V203.342H349.451V201.799Z" fill="#B3B3B3"/>
<path opacity="0.55" d="M352.048 201.799H350.442V203.342H352.048V201.799Z" fill="#B3B3B3"/>
<path opacity="0.55" d="M354.642 201.799H353.037V203.342H354.642V201.799Z" fill="#E6E6E6"/>
<path opacity="0.55" d="M357.238 201.799H355.633V203.342H357.238V201.799Z" fill="#CCCCCC"/>
<path opacity="0.55" d="M359.833 201.799H358.228V203.342H359.833V201.799Z" fill="#B3B3B3"/>
<path opacity="0.55" d="M349.451 204.04H347.846V205.583H349.451V204.04Z" fill="#CCCCCC"/>
<path opacity="0.55" d="M352.047 204.04H350.441V205.583H352.047V204.04Z" fill="#B3B3B3"/>
<path opacity="0.55" d="M354.642 204.04H353.037V205.583H354.642V204.04Z" fill="white"/>
<path opacity="0.55" d="M357.237 204.04H355.632V205.583H357.237V204.04Z" fill="#B3B3B3"/>
<path opacity="0.55" d="M359.833 204.04H358.228V205.583H359.833V204.04Z" fill="#E6E6E6"/>
<path opacity="0.55" d="M349.451 206.279H347.846V207.822H349.451V206.279Z" fill="#F2F2F2"/>
<path opacity="0.55" d="M352.048 206.279H350.442V207.822H352.048V206.279Z" fill="#F2F2F2"/>
<path opacity="0.55" d="M354.642 206.279H353.037V207.822H354.642V206.279Z" fill="#F2F2F2"/>
<path opacity="0.55" d="M357.238 206.279H355.633V207.822H357.238V206.279Z" fill="#E6E6E6"/>
<path opacity="0.55" d="M359.833 206.279H358.228V207.822H359.833V206.279Z" fill="white"/>
<path opacity="0.55" d="M349.451 208.519H347.846V210.062H349.451V208.519Z" fill="#CCCCCC"/>
<path opacity="0.55" d="M352.047 208.519H350.441V210.062H352.047V208.519Z" fill="#E6E6E6"/>
<path opacity="0.55" d="M354.642 208.519H353.037V210.062H354.642V208.519Z" fill="#CCCCCC"/>
<path opacity="0.55" d="M357.237 208.519H355.632V210.062H357.237V208.519Z" fill="white"/>
<path opacity="0.55" d="M359.833 208.519H358.228V210.062H359.833V208.519Z" fill="#F2F2F2"/>
<path opacity="0.55" d="M349.451 210.759H347.846V212.302H349.451V210.759Z" fill="#B3B3B3"/>
<path opacity="0.55" d="M352.047 210.759H350.441V212.302H352.047V210.759Z" fill="#E6E6E6"/>
<path opacity="0.55" d="M354.642 210.759H353.037V212.302H354.642V210.759Z" fill="#CCCCCC"/>
<path opacity="0.55" d="M357.237 210.759H355.632V212.302H357.237V210.759Z" fill="#E6E6E6"/>
<path opacity="0.55" d="M359.833 210.759H358.228V212.302H359.833V210.759Z" fill="#F2F2F2"/>
<path opacity="0.55" d="M349.451 212.999H347.846V214.542H349.451V212.999Z" fill="#E6E6E6"/>
<path opacity="0.55" d="M352.048 212.999H350.442V214.542H352.048V212.999Z" fill="#CCCCCC"/>
<path opacity="0.55" d="M354.642 212.999H353.037V214.542H354.642V212.999Z" fill="#CCCCCC"/>
<path opacity="0.55" d="M357.238 212.999H355.633V214.542H357.238V212.999Z" fill="white"/>
<path opacity="0.55" d="M359.833 212.999H358.228V214.542H359.833V212.999Z" fill="#F2F2F2"/>
<path opacity="0.55" d="M349.451 215.239H347.846V216.782H349.451V215.239Z" fill="#B3B3B3"/>
<path opacity="0.55" d="M352.047 215.239H350.441V216.782H352.047V215.239Z" fill="#CCCCCC"/>
<path opacity="0.55" d="M354.642 215.239H353.037V216.782H354.642V215.239Z" fill="white"/>
<path opacity="0.55" d="M357.237 215.239H355.632V216.782H357.237V215.239Z" fill="#E6E6E6"/>
<path opacity="0.55" d="M359.833 215.239H358.228V216.782H359.833V215.239Z" fill="#B3B3B3"/>
<path opacity="0.55" d="M349.451 217.479H347.846V219.022H349.451V217.479Z" fill="#F2F2F2"/>
<path opacity="0.55" d="M352.047 217.479H350.441V219.022H352.047V217.479Z" fill="#B3B3B3"/>
<path opacity="0.55" d="M354.642 217.479H353.037V219.022H354.642V217.479Z" fill="#E6E6E6"/>
<path opacity="0.55" d="M357.237 217.479H355.632V219.022H357.237V217.479Z" fill="#E6E6E6"/>
<path opacity="0.55" d="M359.833 217.479H358.228V219.022H359.833V217.479Z" fill="#E6E6E6"/>
<path opacity="0.55" d="M349.451 219.724H347.846V221.267H349.451V219.724Z" fill="#B3B3B3"/>
<path opacity="0.55" d="M352.048 219.724H350.442V221.267H352.048V219.724Z" fill="#B3B3B3"/>
<path opacity="0.55" d="M354.642 219.724H353.037V221.267H354.642V219.724Z" fill="#E6E6E6"/>
<path opacity="0.55" d="M357.238 219.724H355.633V221.267H357.238V219.724Z" fill="#E6E6E6"/>
<path opacity="0.55" d="M359.833 219.724H358.228V221.267H359.833V219.724Z" fill="#CCCCCC"/>
<path opacity="0.55" d="M349.451 221.964H347.846V223.507H349.451V221.964Z" fill="#CCCCCC"/>
<path opacity="0.55" d="M352.047 221.964H350.441V223.507H352.047V221.964Z" fill="#E6E6E6"/>
<path opacity="0.55" d="M354.642 221.964H353.037V223.507H354.642V221.964Z" fill="#E6E6E6"/>
<path opacity="0.55" d="M357.237 221.964H355.632V223.507H357.237V221.964Z" fill="#CCCCCC"/>
<path opacity="0.55" d="M359.833 221.964H358.228V223.507H359.833V221.964Z" fill="white"/>
<path opacity="0.55" d="M349.451 224.204H347.846V225.747H349.451V224.204Z" fill="#B3B3B3"/>
<path opacity="0.55" d="M352.047 224.204H350.441V225.747H352.047V224.204Z" fill="#CCCCCC"/>
<path opacity="0.55" d="M354.642 224.204H353.037V225.747H354.642V224.204Z" fill="#B3B3B3"/>
<path opacity="0.55" d="M357.237 224.204H355.632V225.747H357.237V224.204Z" fill="#E6E6E6"/>
<path opacity="0.55" d="M359.833 224.204H358.228V225.747H359.833V224.204Z" fill="#CCCCCC"/>
<path opacity="0.55" d="M362.43 224.204H360.824V225.747H362.43V224.204Z" fill="#E6E6E6"/>
<path opacity="0.55" d="M349.451 226.444H347.846V227.987H349.451V226.444Z" fill="#CCCCCC"/>
<path opacity="0.55" d="M352.048 226.444H350.442V227.987H352.048V226.444Z" fill="#CCCCCC"/>
<path opacity="0.55" d="M354.642 226.444H353.037V227.987H354.642V226.444Z" fill="#E6E6E6"/>
<path opacity="0.55" d="M357.238 226.444H355.633V227.987H357.238V226.444Z" fill="white"/>
<path opacity="0.55" d="M359.833 226.444H358.228V227.987H359.833V226.444Z" fill="#CCCCCC"/>
<path opacity="0.55" d="M362.43 226.444H360.824V227.987H362.43V226.444Z" fill="#CCCCCC"/>
<path opacity="0.55" d="M349.451 228.684H347.846V230.227H349.451V228.684Z" fill="#E6E6E6"/>
<path opacity="0.55" d="M352.047 228.684H350.441V230.227H352.047V228.684Z" fill="#B3B3B3"/>
<path opacity="0.55" d="M354.642 228.684H353.037V230.227H354.642V228.684Z" fill="white"/>
<path opacity="0.55" d="M357.237 228.684H355.632V230.227H357.237V228.684Z" fill="#E6E6E6"/>
<path opacity="0.55" d="M359.833 228.684H358.228V230.227H359.833V228.684Z" fill="#B3B3B3"/>
<path opacity="0.55" d="M362.43 228.684H360.824V230.227H362.43V228.684Z" fill="#CCCCCC"/>
<path opacity="0.55" d="M349.451 230.924H347.846V232.467H349.451V230.924Z" fill="#CCCCCC"/>
<path opacity="0.55" d="M352.048 230.924H350.442V232.467H352.048V230.924Z" fill="#B3B3B3"/>
<path opacity="0.55" d="M354.642 230.924H353.037V232.467H354.642V230.924Z" fill="#F2F2F2"/>
<path opacity="0.55" d="M357.238 230.924H355.633V232.467H357.238V230.924Z" fill="#B3B3B3"/>
<path opacity="0.55" d="M359.833 230.924H358.228V232.467H359.833V230.924Z" fill="#F2F2F2"/>
<path opacity="0.55" d="M362.43 230.924H360.824V232.467H362.43V230.924Z" fill="#E6E6E6"/>
<path opacity="0.55" d="M349.451 233.164H347.846V234.707H349.451V233.164Z" fill="#B3B3B3"/>
<path opacity="0.55" d="M352.048 233.164H350.442V234.707H352.048V233.164Z" fill="#CCCCCC"/>
<path opacity="0.55" d="M354.642 233.164H353.037V234.707H354.642V233.164Z" fill="#B3B3B3"/>
<path opacity="0.55" d="M357.238 233.164H355.633V234.707H357.238V233.164Z" fill="#CCCCCC"/>
<path opacity="0.55" d="M359.833 233.164H358.228V234.707H359.833V233.164Z" fill="#CCCCCC"/>
<path opacity="0.55" d="M362.43 233.164H360.824V234.707H362.43V233.164Z" fill="#CCCCCC"/>
<path opacity="0.55" d="M349.451 235.403H347.846V236.946H349.451V235.403Z" fill="#B3B3B3"/>
<path opacity="0.55" d="M352.047 235.403H350.441V236.946H352.047V235.403Z" fill="#CCCCCC"/>
<path opacity="0.55" d="M354.642 235.403H353.037V236.946H354.642V235.403Z" fill="#CCCCCC"/>
<path opacity="0.55" d="M357.237 235.403H355.632V236.946H357.237V235.403Z" fill="#CCCCCC"/>
<path opacity="0.55" d="M359.833 235.403H358.228V236.946H359.833V235.403Z" fill="white"/>
<path opacity="0.55" d="M362.43 235.403H360.824V236.946H362.43V235.403Z" fill="#E6E6E6"/>
<path opacity="0.55" d="M349.451 237.644H347.846V239.187H349.451V237.644Z" fill="#B3B3B3"/>
<path opacity="0.55" d="M352.048 237.644H350.442V239.187H352.048V237.644Z" fill="#CCCCCC"/>
<path opacity="0.55" d="M354.642 237.644H353.037V239.187H354.642V237.644Z" fill="#E6E6E6"/>
<path opacity="0.55" d="M357.238 237.644H355.633V239.187H357.238V237.644Z" fill="#E6E6E6"/>
<path opacity="0.55" d="M359.833 237.644H358.228V239.187H359.833V237.644Z" fill="#CCCCCC"/>
<path opacity="0.55" d="M362.43 237.644H360.824V239.187H362.43V237.644Z" fill="#E6E6E6"/>
<path opacity="0.55" d="M349.451 239.883H347.846V241.426H349.451V239.883Z" fill="#E6E6E6"/>
<path opacity="0.55" d="M352.047 239.883H350.441V241.426H352.047V239.883Z" fill="white"/>
<path opacity="0.55" d="M354.642 239.883H353.037V241.426H354.642V239.883Z" fill="#CCCCCC"/>
<path opacity="0.55" d="M357.237 239.883H355.632V241.426H357.237V239.883Z" fill="#E6E6E6"/>
<path opacity="0.55" d="M359.833 239.883H358.228V241.426H359.833V239.883Z" fill="#E6E6E6"/>
<path opacity="0.55" d="M362.43 239.883H360.824V241.426H362.43V239.883Z" fill="#B3B3B3"/>
<path opacity="0.55" d="M349.451 242.123H347.846V243.666H349.451V242.123Z" fill="#B3B3B3"/>
<path opacity="0.55" d="M352.048 242.123H350.442V243.666H352.048V242.123Z" fill="#CCCCCC"/>
<path opacity="0.55" d="M354.642 242.123H353.037V243.666H354.642V242.123Z" fill="#CCCCCC"/>
<path opacity="0.55" d="M357.238 242.123H355.633V243.666H357.238V242.123Z" fill="#E6E6E6"/>
<path opacity="0.55" d="M359.833 242.123H358.228V243.666H359.833V242.123Z" fill="#E6E6E6"/>
<path opacity="0.55" d="M362.43 242.123H360.824V243.666H362.43V242.123Z" fill="#CCCCCC"/>
<path opacity="0.55" d="M349.451 244.363H347.846V245.906H349.451V244.363Z" fill="#B3B3B3"/>
<path opacity="0.55" d="M352.047 244.363H350.441V245.906H352.047V244.363Z" fill="#CCCCCC"/>
<path opacity="0.55" d="M354.642 244.363H353.037V245.906H354.642V244.363Z" fill="white"/>
<path opacity="0.55" d="M357.237 244.363H355.632V245.906H357.237V244.363Z" fill="#CCCCCC"/>
<path opacity="0.55" d="M359.833 244.363H358.228V245.906H359.833V244.363Z" fill="#CCCCCC"/>
<path opacity="0.55" d="M362.43 244.363H360.824V245.906H362.43V244.363Z" fill="#B3B3B3"/>
</g>
<path d="M544.04 244.33V212.167H538.434V203.549H536.434V190.922H525.391V181.606H524.426V190.902H522.251V179.299H521.285V190.922H514.284V212.167H510.673V244.33H507.617V355.9H546.211V244.33H544.04Z" fill="#0D0030"/>
<g opacity="0.57">
<path opacity="0.57" d="M518.828 218.503H518.328V298.214H518.828V218.503Z" fill="#C7DBD9"/>
<path opacity="0.57" d="M524.23 218.503H523.729V298.214H524.23V218.503Z" fill="#C7DBD9"/>
<path opacity="0.57" d="M529.621 218.503H529.121V298.214H529.621V218.503Z" fill="#C7DBD9"/>
<path opacity="0.57" d="M532.296 218.503H531.796V298.214H532.296V218.503Z" fill="#C7DBD9"/>
<path opacity="0.57" d="M534.987 218.503H534.487V298.214H534.987V218.503Z" fill="#C7DBD9"/>
<path opacity="0.57" d="M526.92 218.503H526.42V298.214H526.92V218.503Z" fill="#C7DBD9"/>
<path opacity="0.57" d="M521.538 218.503H521.038V298.214H521.538V218.503Z" fill="#C7DBD9"/>
</g>
</g>
<defs>
<linearGradient id="paint0_linear_1526_5962" x1="356.907" y1="298.199" x2="356.907" y2="183.524" gradientUnits="userSpaceOnUse">
<stop stop-color="#3F0442"/>
<stop offset="1" stop-color="#0D0020"/>
</linearGradient>
</defs>
</svg>
