<svg width="381" height="272" viewBox="0 0 381 272" fill="none" xmlns="http://www.w3.org/2000/svg">
<path d="M45.401 246.947H1.0271V30.4697H34.6663L45.401 246.947Z" fill="url(#paint0_linear_514_18467)"/>
<path d="M18.6444 12.9653H2.77368V47.0575H18.6728L18.6444 12.9653Z" fill="#0D0020"/>
<path d="M16.9364 0.805664H4.51172V19.9525H16.9364V0.805664Z" fill="#0D0020"/>
<path d="M28.0007 22.9922H24.9512V36.8214H28.0007V22.9922Z" fill="#0D0020"/>
<path d="M33.4756 10.4067H29.1042V36.7223H33.4756V10.4067Z" fill="#0D0020"/>
<g opacity="0.55">
<path opacity="0.55" d="M9.1373 43.8179H6.10669V46.7307H9.1373V43.8179Z" fill="#F2F2F2"/>
<path opacity="0.55" d="M14.0382 43.8179H11.0076V46.7307H14.0382V43.8179Z" fill="#E6E6E6"/>
<path opacity="0.55" d="M18.9372 43.8179H15.9065V46.7307H18.9372V43.8179Z" fill="white"/>
<path opacity="0.55" d="M23.8371 43.8179H20.8064V46.7307H23.8371V43.8179Z" fill="#CCCCCC"/>
<path opacity="0.55" d="M28.7372 43.8179H25.7065V46.7307H28.7372V43.8179Z" fill="#F2F2F2"/>
<path opacity="0.55" d="M9.1373 48.0469H6.10669V50.9597H9.1373V48.0469Z" fill="#CCCCCC"/>
<path opacity="0.55" d="M14.0382 48.0469H11.0076V50.9597H14.0382V48.0469Z" fill="#F2F2F2"/>
<path opacity="0.55" d="M18.9372 48.0469H15.9065V50.9597H18.9372V48.0469Z" fill="#CCCCCC"/>
<path opacity="0.55" d="M23.8371 48.0469H20.8064V50.9597H23.8371V48.0469Z" fill="#F2F2F2"/>
<path opacity="0.55" d="M28.7372 48.0469H25.7065V50.9597H28.7372V48.0469Z" fill="#B3B3B3"/>
<path opacity="0.55" d="M9.1373 52.2749H6.10669V55.1878H9.1373V52.2749Z" fill="white"/>
<path opacity="0.55" d="M14.0382 52.2749H11.0076V55.1878H14.0382V52.2749Z" fill="#CCCCCC"/>
<path opacity="0.55" d="M18.9372 52.2749H15.9065V55.1878H18.9372V52.2749Z" fill="white"/>
<path opacity="0.55" d="M23.8371 52.2749H20.8064V55.1878H23.8371V52.2749Z" fill="#B3B3B3"/>
<path opacity="0.55" d="M28.7372 52.2749H25.7065V55.1878H28.7372V52.2749Z" fill="white"/>
<path opacity="0.55" d="M9.1373 56.5039H6.10669V59.4168H9.1373V56.5039Z" fill="#E6E6E6"/>
<path opacity="0.55" d="M14.0382 56.5039H11.0076V59.4168H14.0382V56.5039Z" fill="#B3B3B3"/>
<path opacity="0.55" d="M18.9372 56.5039H15.9065V59.4168H18.9372V56.5039Z" fill="#CCCCCC"/>
<path opacity="0.55" d="M23.8371 56.5039H20.8064V59.4168H23.8371V56.5039Z" fill="white"/>
<path opacity="0.55" d="M28.7372 56.5039H25.7065V59.4168H28.7372V56.5039Z" fill="#B3B3B3"/>
<path opacity="0.55" d="M9.1373 60.7324H6.10669V63.6453H9.1373V60.7324Z" fill="#B3B3B3"/>
<path opacity="0.55" d="M14.0382 60.7324H11.0076V63.6453H14.0382V60.7324Z" fill="#CCCCCC"/>
<path opacity="0.55" d="M18.9372 60.7324H15.9065V63.6453H18.9372V60.7324Z" fill="#CCCCCC"/>
<path opacity="0.55" d="M23.8371 60.7324H20.8064V63.6453H23.8371V60.7324Z" fill="#E6E6E6"/>
<path opacity="0.55" d="M28.7372 60.7324H25.7065V63.6453H28.7372V60.7324Z" fill="#CCCCCC"/>
<path opacity="0.55" d="M9.1373 64.9609H6.10669V67.8738H9.1373V64.9609Z" fill="#B3B3B3"/>
<path opacity="0.55" d="M14.0382 64.9609H11.0076V67.8738H14.0382V64.9609Z" fill="#B3B3B3"/>
<path opacity="0.55" d="M18.9372 64.9609H15.9065V67.8738H18.9372V64.9609Z" fill="#E6E6E6"/>
<path opacity="0.55" d="M23.8371 64.9609H20.8064V67.8738H23.8371V64.9609Z" fill="#CCCCCC"/>
<path opacity="0.55" d="M28.7372 64.9609H25.7065V67.8738H28.7372V64.9609Z" fill="#B3B3B3"/>
<path opacity="0.55" d="M9.1373 69.1899H6.10669V72.1028H9.1373V69.1899Z" fill="#CCCCCC"/>
<path opacity="0.55" d="M14.0382 69.1899H11.0076V72.1028H14.0382V69.1899Z" fill="#B3B3B3"/>
<path opacity="0.55" d="M18.9372 69.1899H15.9065V72.1028H18.9372V69.1899Z" fill="white"/>
<path opacity="0.55" d="M23.8371 69.1899H20.8064V72.1028H23.8371V69.1899Z" fill="#B3B3B3"/>
<path opacity="0.55" d="M28.7372 69.1899H25.7065V72.1028H28.7372V69.1899Z" fill="#E6E6E6"/>
<path opacity="0.55" d="M9.1373 73.418H6.10669V76.3308H9.1373V73.418Z" fill="#F2F2F2"/>
<path opacity="0.55" d="M14.0382 73.418H11.0076V76.3308H14.0382V73.418Z" fill="#F2F2F2"/>
<path opacity="0.55" d="M18.9372 73.418H15.9065V76.3308H18.9372V73.418Z" fill="#F2F2F2"/>
<path opacity="0.55" d="M23.8371 73.418H20.8064V76.3308H23.8371V73.418Z" fill="#E6E6E6"/>
<path opacity="0.55" d="M28.7372 73.418H25.7065V76.3308H28.7372V73.418Z" fill="white"/>
<path opacity="0.55" d="M9.1373 77.647H6.10669V80.5598H9.1373V77.647Z" fill="#CCCCCC"/>
<path opacity="0.55" d="M14.0382 77.647H11.0076V80.5598H14.0382V77.647Z" fill="#E6E6E6"/>
<path opacity="0.55" d="M18.9372 77.647H15.9065V80.5598H18.9372V77.647Z" fill="#CCCCCC"/>
<path opacity="0.55" d="M23.8371 77.647H20.8064V80.5598H23.8371V77.647Z" fill="white"/>
<path opacity="0.55" d="M28.7372 77.647H25.7065V80.5598H28.7372V77.647Z" fill="#F2F2F2"/>
<path opacity="0.55" d="M9.1373 81.8755H6.10669V84.7883H9.1373V81.8755Z" fill="#B3B3B3"/>
<path opacity="0.55" d="M14.0382 81.8755H11.0076V84.7883H14.0382V81.8755Z" fill="#E6E6E6"/>
<path opacity="0.55" d="M18.9372 81.8755H15.9065V84.7883H18.9372V81.8755Z" fill="#CCCCCC"/>
<path opacity="0.55" d="M23.8371 81.8755H20.8064V84.7883H23.8371V81.8755Z" fill="#E6E6E6"/>
<path opacity="0.55" d="M28.7372 81.8755H25.7065V84.7883H28.7372V81.8755Z" fill="#F2F2F2"/>
<path opacity="0.55" d="M9.1373 86.104H6.10669V89.0169H9.1373V86.104Z" fill="#E6E6E6"/>
<path opacity="0.55" d="M14.0382 86.104H11.0076V89.0169H14.0382V86.104Z" fill="#CCCCCC"/>
<path opacity="0.55" d="M18.9372 86.104H15.9065V89.0169H18.9372V86.104Z" fill="#CCCCCC"/>
<path opacity="0.55" d="M23.8371 86.104H20.8064V89.0169H23.8371V86.104Z" fill="white"/>
<path opacity="0.55" d="M28.7372 86.104H25.7065V89.0169H28.7372V86.104Z" fill="#F2F2F2"/>
<path opacity="0.55" d="M9.1373 90.333H6.10669V93.2459H9.1373V90.333Z" fill="#B3B3B3"/>
<path opacity="0.55" d="M14.0382 90.333H11.0076V93.2459H14.0382V90.333Z" fill="#CCCCCC"/>
<path opacity="0.55" d="M18.9372 90.333H15.9065V93.2459H18.9372V90.333Z" fill="white"/>
<path opacity="0.55" d="M23.8371 90.333H20.8064V93.2459H23.8371V90.333Z" fill="#E6E6E6"/>
<path opacity="0.55" d="M28.7372 90.333H25.7065V93.2459H28.7372V90.333Z" fill="#B3B3B3"/>
<path opacity="0.55" d="M9.1373 94.5615H6.10669V97.4744H9.1373V94.5615Z" fill="#F2F2F2"/>
<path opacity="0.55" d="M14.0382 94.5615H11.0076V97.4744H14.0382V94.5615Z" fill="#B3B3B3"/>
<path opacity="0.55" d="M18.9372 94.5615H15.9065V97.4744H18.9372V94.5615Z" fill="#E6E6E6"/>
<path opacity="0.55" d="M23.8371 94.5615H20.8064V97.4744H23.8371V94.5615Z" fill="#E6E6E6"/>
<path opacity="0.55" d="M28.7372 94.5615H25.7065V97.4744H28.7372V94.5615Z" fill="#E6E6E6"/>
<path opacity="0.55" d="M9.1373 98.7988H6.10669V101.712H9.1373V98.7988Z" fill="#B3B3B3"/>
<path opacity="0.55" d="M14.0382 98.7988H11.0076V101.712H14.0382V98.7988Z" fill="#B3B3B3"/>
<path opacity="0.55" d="M18.9372 98.7988H15.9065V101.712H18.9372V98.7988Z" fill="#E6E6E6"/>
<path opacity="0.55" d="M23.8371 98.7988H20.8064V101.712H23.8371V98.7988Z" fill="#E6E6E6"/>
<path opacity="0.55" d="M28.7372 98.7988H25.7065V101.712H28.7372V98.7988Z" fill="#CCCCCC"/>
<path opacity="0.55" d="M9.1373 103.028H6.10669V105.941H9.1373V103.028Z" fill="#CCCCCC"/>
<path opacity="0.55" d="M14.0382 103.028H11.0076V105.941H14.0382V103.028Z" fill="#E6E6E6"/>
<path opacity="0.55" d="M18.9372 103.028H15.9065V105.941H18.9372V103.028Z" fill="#E6E6E6"/>
<path opacity="0.55" d="M23.8371 103.028H20.8064V105.941H23.8371V103.028Z" fill="#CCCCCC"/>
<path opacity="0.55" d="M28.7372 103.028H25.7065V105.941H28.7372V103.028Z" fill="white"/>
<path opacity="0.55" d="M9.1373 107.256H6.10669V110.169H9.1373V107.256Z" fill="#B3B3B3"/>
<path opacity="0.55" d="M14.0382 107.256H11.0076V110.169H14.0382V107.256Z" fill="#CCCCCC"/>
<path opacity="0.55" d="M18.9372 107.256H15.9065V110.169H18.9372V107.256Z" fill="#B3B3B3"/>
<path opacity="0.55" d="M23.8371 107.256H20.8064V110.169H23.8371V107.256Z" fill="#E6E6E6"/>
<path opacity="0.55" d="M28.7372 107.256H25.7065V110.169H28.7372V107.256Z" fill="#CCCCCC"/>
<path opacity="0.55" d="M33.6383 107.256H30.6077V110.169H33.6383V107.256Z" fill="#E6E6E6"/>
<path opacity="0.55" d="M9.1373 111.485H6.10669V114.398H9.1373V111.485Z" fill="#CCCCCC"/>
<path opacity="0.55" d="M14.0382 111.485H11.0076V114.398H14.0382V111.485Z" fill="#CCCCCC"/>
<path opacity="0.55" d="M18.9372 111.485H15.9065V114.398H18.9372V111.485Z" fill="#E6E6E6"/>
<path opacity="0.55" d="M23.8371 111.485H20.8064V114.398H23.8371V111.485Z" fill="white"/>
<path opacity="0.55" d="M28.7372 111.485H25.7065V114.398H28.7372V111.485Z" fill="#CCCCCC"/>
<path opacity="0.55" d="M33.6383 111.485H30.6077V114.398H33.6383V111.485Z" fill="#CCCCCC"/>
<path opacity="0.55" d="M9.1373 115.714H6.10669V118.627H9.1373V115.714Z" fill="#E6E6E6"/>
<path opacity="0.55" d="M14.0382 115.714H11.0076V118.627H14.0382V115.714Z" fill="#B3B3B3"/>
<path opacity="0.55" d="M18.9372 115.714H15.9065V118.627H18.9372V115.714Z" fill="white"/>
<path opacity="0.55" d="M23.8371 115.714H20.8064V118.627H23.8371V115.714Z" fill="#E6E6E6"/>
<path opacity="0.55" d="M28.7372 115.714H25.7065V118.627H28.7372V115.714Z" fill="#B3B3B3"/>
<path opacity="0.55" d="M33.6383 115.714H30.6077V118.627H33.6383V115.714Z" fill="#CCCCCC"/>
<path opacity="0.55" d="M9.1373 119.942H6.10669V122.855H9.1373V119.942Z" fill="#CCCCCC"/>
<path opacity="0.55" d="M14.0382 119.942H11.0076V122.855H14.0382V119.942Z" fill="#B3B3B3"/>
<path opacity="0.55" d="M18.9372 119.942H15.9065V122.855H18.9372V119.942Z" fill="#F2F2F2"/>
<path opacity="0.55" d="M23.8371 119.942H20.8064V122.855H23.8371V119.942Z" fill="#B3B3B3"/>
<path opacity="0.55" d="M28.7372 119.942H25.7065V122.855H28.7372V119.942Z" fill="#F2F2F2"/>
<path opacity="0.55" d="M33.6383 119.942H30.6077V122.855H33.6383V119.942Z" fill="#E6E6E6"/>
<path opacity="0.55" d="M9.1373 124.171H6.10669V127.084H9.1373V124.171Z" fill="#B3B3B3"/>
<path opacity="0.55" d="M14.0382 124.171H11.0076V127.084H14.0382V124.171Z" fill="#CCCCCC"/>
<path opacity="0.55" d="M18.9372 124.171H15.9065V127.084H18.9372V124.171Z" fill="#B3B3B3"/>
<path opacity="0.55" d="M23.8371 124.171H20.8064V127.084H23.8371V124.171Z" fill="#CCCCCC"/>
<path opacity="0.55" d="M28.7372 124.171H25.7065V127.084H28.7372V124.171Z" fill="#CCCCCC"/>
<path opacity="0.55" d="M33.6383 124.171H30.6077V127.084H33.6383V124.171Z" fill="#CCCCCC"/>
<path opacity="0.55" d="M9.1373 128.399H6.10669V131.312H9.1373V128.399Z" fill="#B3B3B3"/>
<path opacity="0.55" d="M14.0382 128.399H11.0076V131.312H14.0382V128.399Z" fill="#CCCCCC"/>
<path opacity="0.55" d="M18.9372 128.399H15.9065V131.312H18.9372V128.399Z" fill="#CCCCCC"/>
<path opacity="0.55" d="M23.8371 128.399H20.8064V131.312H23.8371V128.399Z" fill="#CCCCCC"/>
<path opacity="0.55" d="M28.7372 128.399H25.7065V131.312H28.7372V128.399Z" fill="white"/>
<path opacity="0.55" d="M33.6383 128.399H30.6077V131.312H33.6383V128.399Z" fill="#E6E6E6"/>
<path opacity="0.55" d="M9.1373 132.628H6.10669V135.541H9.1373V132.628Z" fill="#B3B3B3"/>
<path opacity="0.55" d="M14.0382 132.628H11.0076V135.541H14.0382V132.628Z" fill="#CCCCCC"/>
<path opacity="0.55" d="M18.9372 132.628H15.9065V135.541H18.9372V132.628Z" fill="#E6E6E6"/>
<path opacity="0.55" d="M23.8371 132.628H20.8064V135.541H23.8371V132.628Z" fill="#E6E6E6"/>
<path opacity="0.55" d="M28.7372 132.628H25.7065V135.541H28.7372V132.628Z" fill="#CCCCCC"/>
<path opacity="0.55" d="M33.6383 132.628H30.6077V135.541H33.6383V132.628Z" fill="#E6E6E6"/>
<path opacity="0.55" d="M9.1373 136.856H6.10669V139.769H9.1373V136.856Z" fill="#E6E6E6"/>
<path opacity="0.55" d="M14.0382 136.856H11.0076V139.769H14.0382V136.856Z" fill="white"/>
<path opacity="0.55" d="M18.9372 136.856H15.9065V139.769H18.9372V136.856Z" fill="#CCCCCC"/>
<path opacity="0.55" d="M23.8371 136.856H20.8064V139.769H23.8371V136.856Z" fill="#E6E6E6"/>
<path opacity="0.55" d="M28.7372 136.856H25.7065V139.769H28.7372V136.856Z" fill="#E6E6E6"/>
<path opacity="0.55" d="M33.6383 136.856H30.6077V139.769H33.6383V136.856Z" fill="#B3B3B3"/>
<path opacity="0.55" d="M9.1373 141.085H6.10669V143.998H9.1373V141.085Z" fill="#B3B3B3"/>
<path opacity="0.55" d="M14.0382 141.085H11.0076V143.998H14.0382V141.085Z" fill="#CCCCCC"/>
<path opacity="0.55" d="M18.9372 141.085H15.9065V143.998H18.9372V141.085Z" fill="#CCCCCC"/>
<path opacity="0.55" d="M23.8371 141.085H20.8064V143.998H23.8371V141.085Z" fill="#E6E6E6"/>
<path opacity="0.55" d="M28.7372 141.085H25.7065V143.998H28.7372V141.085Z" fill="#E6E6E6"/>
<path opacity="0.55" d="M33.6383 141.085H30.6077V143.998H33.6383V141.085Z" fill="#CCCCCC"/>
<path opacity="0.55" d="M9.1373 145.314H6.10669V148.227H9.1373V145.314Z" fill="#B3B3B3"/>
<path opacity="0.55" d="M14.0382 145.314H11.0076V148.227H14.0382V145.314Z" fill="#CCCCCC"/>
<path opacity="0.55" d="M18.9372 145.314H15.9065V148.227H18.9372V145.314Z" fill="white"/>
<path opacity="0.55" d="M23.8371 145.314H20.8064V148.227H23.8371V145.314Z" fill="#CCCCCC"/>
<path opacity="0.55" d="M28.7372 145.314H25.7065V148.227H28.7372V145.314Z" fill="#CCCCCC"/>
<path opacity="0.55" d="M33.6383 145.314H30.6077V148.227H33.6383V145.314Z" fill="#B3B3B3"/>
</g>
<path d="M376.488 145.251V84.5345H365.905V68.2643H362.128V44.4261H341.282V26.84H339.46V44.3898H335.353V22.4844H333.53V44.4261H320.313V84.5345H313.496V145.251H307.728V255.876H380.586V145.251H376.488Z" fill="#0D0030"/>
<g opacity="0.57">
<path opacity="0.57" d="M328.891 96.4946H327.947V246.974H328.891V96.4946Z" fill="#C7DBD9"/>
<path opacity="0.57" d="M339.088 96.4946H338.144V246.974H339.088V96.4946Z" fill="#C7DBD9"/>
<path opacity="0.57" d="M349.266 96.4946H348.322V246.974H349.266V96.4946Z" fill="#C7DBD9"/>
<path opacity="0.57" d="M354.316 96.4946H353.372V246.974H354.316V96.4946Z" fill="#C7DBD9"/>
<path opacity="0.57" d="M359.397 96.4946H358.452V246.974H359.397V96.4946Z" fill="#C7DBD9"/>
<path opacity="0.57" d="M344.167 96.4946H343.223V246.974H344.167V96.4946Z" fill="#C7DBD9"/>
<path opacity="0.57" d="M334.008 96.4946H333.063V246.974H334.008V96.4946Z" fill="#C7DBD9"/>
</g>
<rect y="242" width="380" height="30" fill="#170909"/>
<defs>
<linearGradient id="paint0_linear_514_18467" x1="23.2141" y1="246.947" x2="23.2141" y2="30.4607" gradientUnits="userSpaceOnUse">
<stop stop-color="#3F0442"/>
<stop offset="1" stop-color="#0D0020"/>
</linearGradient>
</defs>
</svg>
