<svg width="898" height="212" viewBox="0 0 898 212" fill="none" xmlns="http://www.w3.org/2000/svg">
<path d="M631.996 65.1357H587.417V192.383H631.996V65.1357Z" fill="url(#paint0_linear_514_18463)"/>
<path d="M633.131 60.251H584.791V65.1279H633.108L633.131 60.251Z" fill="#0D0030"/>
<path d="M608.972 47.0171H589.383V72.7981H608.972V47.0171Z" fill="#0D0030"/>
<path d="M618.647 47.0171H615.344V62.7008H618.647V47.0171Z" fill="#0D0030"/>
<path d="M625.516 47.0171H621.919V62.7008H625.516V47.0171Z" fill="#0D0030"/>
<path d="M597.457 87.9966H595.421V93.7697H597.457V87.9966Z" fill="#C7DBD9"/>
<path d="M597.457 99.0869H595.421V104.86H597.457V99.0869Z" fill="#C7DBD9"/>
<path d="M597.457 110.096H595.421V115.869H597.457V110.096Z" fill="#C7DBD9"/>
<path d="M597.457 121.126H595.421V126.9H597.457V121.126Z" fill="#C7DBD9"/>
<path d="M597.457 131.552H595.421V137.318H597.457V131.552Z" fill="#C7DBD9"/>
<path d="M597.457 142.583H595.421V148.379H597.457V142.583Z" fill="#C7DBD9"/>
<path d="M606.167 87.9966H604.131V93.7697H606.167V87.9966Z" fill="#C7DBD9"/>
<path d="M606.167 99.0869H604.131V104.86H606.167V99.0869Z" fill="#C7DBD9"/>
<path d="M606.167 110.096H604.131V115.869H606.167V110.096Z" fill="#C7DBD9"/>
<path d="M606.167 121.126H604.131V126.9H606.167V121.126Z" fill="#C7DBD9"/>
<path d="M606.167 131.552H604.131V137.318H606.167V131.552Z" fill="#C7DBD9"/>
<path d="M606.167 142.583H604.131V148.379H606.167V142.583Z" fill="#C7DBD9"/>
<path d="M614.839 87.9966H612.811V93.7697H614.839V87.9966Z" fill="#C7DBD9"/>
<path d="M614.839 99.0869H612.811V104.86H614.839V99.0869Z" fill="#C7DBD9"/>
<path d="M614.839 110.096H612.811V115.869H614.839V110.096Z" fill="#C7DBD9"/>
<path d="M614.839 121.126H612.811V126.9H614.839V121.126Z" fill="#C7DBD9"/>
<path d="M614.839 131.552H612.811V137.318H614.839V131.552Z" fill="#C7DBD9"/>
<path d="M614.839 142.583H612.811V148.379H614.839V142.583Z" fill="#C7DBD9"/>
<path d="M623.519 87.9966H621.483V93.7697H623.519V87.9966Z" fill="#C7DBD9"/>
<path d="M623.519 99.0869H621.483V104.86H623.519V99.0869Z" fill="#C7DBD9"/>
<path d="M623.519 110.096H621.483V115.869H623.519V110.096Z" fill="#C7DBD9"/>
<path d="M623.519 121.126H621.483V126.9H623.519V121.126Z" fill="#C7DBD9"/>
<path d="M623.519 131.552H621.483V137.318H623.519V131.552Z" fill="#C7DBD9"/>
<path d="M623.519 142.583H621.483V148.379H623.519V142.583Z" fill="#C7DBD9"/>
<path d="M237.855 46.0983H264.523V20.7803H237.855V46.0983Z" fill="#120021"/>
<path d="M249.108 27.9276H264.548V14.6338H253.475L249.108 27.9276Z" fill="#120021"/>
<path d="M256.808 33.245H258.3V3.56543H256.808V33.245Z" fill="#120021"/>
<path d="M256.202 1.99713C256.185 2.37185 256.315 2.73887 256.567 3.02529C256.819 3.31171 257.174 3.49656 257.561 3.5431C257.955 3.51077 258.319 3.3299 258.574 3.04013C258.829 2.75036 258.954 2.37531 258.921 1.99713C258.951 1.80893 258.938 1.6168 258.883 1.43385C258.829 1.25091 258.733 1.08148 258.604 0.93715C258.475 0.792817 258.315 0.67698 258.135 0.597574C257.955 0.518168 257.759 0.477051 257.561 0.477051C257.363 0.477051 257.168 0.518168 256.988 0.597574C256.808 0.67698 256.648 0.792817 256.519 0.93715C256.389 1.08148 256.294 1.25091 256.24 1.43385C256.185 1.6168 256.172 1.80893 256.202 1.99713Z" fill="#120021"/>
<path d="M199.937 211.816H272.094V39.4741H199.937V211.816Z" fill="url(#paint1_linear_514_18463)"/>
<path d="M197.893 41.3785H274.136V36.4941H197.893V41.3785Z" fill="#120021"/>
<path d="M202.392 53.4549H269.676V30.3027H202.392V53.4549Z" fill="#120021"/>
<g opacity="0.74">
<path opacity="0.74" d="M212.609 42.9766H209.516V45.949H212.609V42.9766Z" fill="#E6E6E6"/>
<path opacity="0.74" d="M217.598 42.9766H214.505V45.949H217.598V42.9766Z" fill="white"/>
<path opacity="0.74" d="M222.594 42.9766H219.501V45.949H222.594V42.9766Z" fill="#CCCCCC"/>
<path opacity="0.74" d="M227.583 42.9766H224.49V45.949H227.583V42.9766Z" fill="#F2F2F2"/>
<path opacity="0.74" d="M232.572 42.9766H229.479V45.949H232.572V42.9766Z" fill="#B3B3B3"/>
<path opacity="0.74" d="M237.561 42.9766H234.468V45.949H237.561V42.9766Z" fill="#CCCCCC"/>
<path opacity="0.74" d="M242.555 42.9766H239.463V45.949H242.555V42.9766Z" fill="#B3B3B3"/>
<path opacity="0.74" d="M247.544 42.9766H244.452V45.949H247.544V42.9766Z" fill="#B3B3B3"/>
<path opacity="0.74" d="M252.533 42.9766H249.441V45.949H252.533V42.9766Z" fill="#E6E6E6"/>
<path opacity="0.74" d="M257.521 42.9766H254.428V45.949H257.521V42.9766Z" fill="#CCCCCC"/>
<path opacity="0.74" d="M262.521 42.9766H259.428V45.949H262.521V42.9766Z" fill="#E6E6E6"/>
<path opacity="0.74" d="M212.609 47.2783H209.516V50.2507H212.609V47.2783Z" fill="#F2F2F2"/>
<path opacity="0.74" d="M217.598 47.2783H214.505V50.2507H217.598V47.2783Z" fill="#CCCCCC"/>
<path opacity="0.74" d="M222.594 47.2783H219.501V50.2507H222.594V47.2783Z" fill="#F2F2F2"/>
<path opacity="0.74" d="M227.583 47.2783H224.49V50.2507H227.583V47.2783Z" fill="#B3B3B3"/>
<path opacity="0.74" d="M232.572 47.2783H229.479V50.2507H232.572V47.2783Z" fill="#F2F2F2"/>
<path opacity="0.74" d="M237.561 47.2783H234.468V50.2507H237.561V47.2783Z" fill="white"/>
<path opacity="0.74" d="M242.555 47.2783H239.463V50.2507H242.555V47.2783Z" fill="#CCCCCC"/>
<path opacity="0.74" d="M247.544 47.2783H244.452V50.2507H247.544V47.2783Z" fill="#B3B3B3"/>
<path opacity="0.74" d="M252.533 47.2783H249.441V50.2507H252.533V47.2783Z" fill="#F2F2F2"/>
<path opacity="0.74" d="M257.521 47.2783H254.428V50.2507H257.521V47.2783Z" fill="white"/>
<path opacity="0.74" d="M262.521 47.2783H259.428V50.2507H262.521V47.2783Z" fill="white"/>
<path opacity="0.74" d="M212.609 51.5879H209.516V54.5603H212.609V51.5879Z" fill="#CCCCCC"/>
<path opacity="0.74" d="M217.598 51.5879H214.505V54.5603H217.598V51.5879Z" fill="white"/>
<path opacity="0.74" d="M222.594 51.5879H219.501V54.5603H222.594V51.5879Z" fill="#B3B3B3"/>
<path opacity="0.74" d="M227.583 51.5879H224.49V54.5603H227.583V51.5879Z" fill="white"/>
<path opacity="0.74" d="M232.572 51.5879H229.479V54.5603H232.572V51.5879Z" fill="#E6E6E6"/>
<path opacity="0.74" d="M237.561 51.5879H234.468V54.5603H237.561V51.5879Z" fill="white"/>
<path opacity="0.74" d="M242.555 51.5879H239.463V54.5603H242.555V51.5879Z" fill="#E6E6E6"/>
<path opacity="0.74" d="M247.544 51.5879H244.452V54.5603H247.544V51.5879Z" fill="#E6E6E6"/>
<path opacity="0.74" d="M252.533 51.5879H249.441V54.5603H252.533V51.5879Z" fill="white"/>
<path opacity="0.74" d="M257.521 51.5879H254.428V54.5603H257.521V51.5879Z" fill="#CCCCCC"/>
<path opacity="0.74" d="M262.521 51.5879H259.428V54.5603H262.521V51.5879Z" fill="#B3B3B3"/>
<path opacity="0.74" d="M212.609 55.897H209.516V58.8694H212.609V55.897Z" fill="#B3B3B3"/>
<path opacity="0.74" d="M217.598 55.897H214.505V58.8694H217.598V55.897Z" fill="#CCCCCC"/>
<path opacity="0.74" d="M222.594 55.897H219.501V58.8694H222.594V55.897Z" fill="white"/>
<path opacity="0.74" d="M227.583 55.897H224.49V58.8694H227.583V55.897Z" fill="#B3B3B3"/>
<path opacity="0.74" d="M232.572 55.897H229.479V58.8694H232.572V55.897Z" fill="#CCCCCC"/>
<path opacity="0.74" d="M237.561 55.897H234.468V58.8694H237.561V55.897Z" fill="#E6E6E6"/>
<path opacity="0.74" d="M242.555 55.897H239.463V58.8694H242.555V55.897Z" fill="#CCCCCC"/>
<path opacity="0.74" d="M247.544 55.897H244.452V58.8694H247.544V55.897Z" fill="#E6E6E6"/>
<path opacity="0.74" d="M252.533 55.897H249.441V58.8694H252.533V55.897Z" fill="#B3B3B3"/>
<path opacity="0.74" d="M257.521 55.897H254.428V58.8694H257.521V55.897Z" fill="#E6E6E6"/>
<path opacity="0.74" d="M262.521 55.897H259.428V58.8694H262.521V55.897Z" fill="#F2F2F2"/>
<path opacity="0.74" d="M212.609 60.1987H209.516V63.1712H212.609V60.1987Z" fill="#CCCCCC"/>
<path opacity="0.74" d="M217.598 60.1987H214.505V63.1712H217.598V60.1987Z" fill="#CCCCCC"/>
<path opacity="0.74" d="M222.594 60.1987H219.501V63.1712H222.594V60.1987Z" fill="#E6E6E6"/>
<path opacity="0.74" d="M227.583 60.1987H224.49V63.1712H227.583V60.1987Z" fill="#CCCCCC"/>
<path opacity="0.74" d="M232.572 60.1987H229.479V63.1712H232.572V60.1987Z" fill="#E6E6E6"/>
<path opacity="0.74" d="M237.561 60.1987H234.468V63.1712H237.561V60.1987Z" fill="#CCCCCC"/>
<path opacity="0.74" d="M242.555 60.1987H239.463V63.1712H242.555V60.1987Z" fill="white"/>
<path opacity="0.74" d="M247.544 60.1987H244.452V63.1712H247.544V60.1987Z" fill="#B3B3B3"/>
<path opacity="0.74" d="M252.533 60.1987H249.441V63.1712H252.533V60.1987Z" fill="#B3B3B3"/>
<path opacity="0.74" d="M257.521 60.1987H254.428V63.1712H257.521V60.1987Z" fill="#CCCCCC"/>
<path opacity="0.74" d="M262.521 60.1987H259.428V63.1712H262.521V60.1987Z" fill="white"/>
<path opacity="0.74" d="M212.609 64.5083H209.516V67.4807H212.609V64.5083Z" fill="#B3B3B3"/>
<path opacity="0.74" d="M217.598 64.5083H214.505V67.4807H217.598V64.5083Z" fill="#E6E6E6"/>
<path opacity="0.74" d="M222.594 64.5083H219.501V67.4807H222.594V64.5083Z" fill="#CCCCCC"/>
<path opacity="0.74" d="M227.583 64.5083H224.49V67.4807H227.583V64.5083Z" fill="#B3B3B3"/>
<path opacity="0.74" d="M232.572 64.5083H229.479V67.4807H232.572V64.5083Z" fill="#B3B3B3"/>
<path opacity="0.74" d="M237.561 64.5083H234.468V67.4807H237.561V64.5083Z" fill="#CCCCCC"/>
<path opacity="0.74" d="M242.555 64.5083H239.463V67.4807H242.555V64.5083Z" fill="#CCCCCC"/>
<path opacity="0.74" d="M247.544 64.5083H244.452V67.4807H247.544V64.5083Z" fill="white"/>
<path opacity="0.74" d="M252.533 64.5083H249.441V67.4807H252.533V64.5083Z" fill="#F2F2F2"/>
<path opacity="0.74" d="M257.521 64.5083H254.428V67.4807H257.521V64.5083Z" fill="#CCCCCC"/>
<path opacity="0.74" d="M262.521 64.5083H259.428V67.4807H262.521V64.5083Z" fill="#E6E6E6"/>
<path opacity="0.74" d="M212.609 68.8101H209.516V71.7825H212.609V68.8101Z" fill="#B3B3B3"/>
<path opacity="0.74" d="M217.598 68.8101H214.505V71.7825H217.598V68.8101Z" fill="white"/>
<path opacity="0.74" d="M222.594 68.8101H219.501V71.7825H222.594V68.8101Z" fill="#B3B3B3"/>
<path opacity="0.74" d="M227.583 68.8101H224.49V71.7825H227.583V68.8101Z" fill="#E6E6E6"/>
<path opacity="0.74" d="M232.572 68.8101H229.479V71.7825H232.572V68.8101Z" fill="#E6E6E6"/>
<path opacity="0.74" d="M237.561 68.8101H234.468V71.7825H237.561V68.8101Z" fill="#B3B3B3"/>
<path opacity="0.74" d="M242.555 68.8101H239.463V71.7825H242.555V68.8101Z" fill="#CCCCCC"/>
<path opacity="0.74" d="M247.544 68.8101H244.452V71.7825H247.544V68.8101Z" fill="#CCCCCC"/>
<path opacity="0.74" d="M252.533 68.8101H249.441V71.7825H252.533V68.8101Z" fill="#B3B3B3"/>
<path opacity="0.74" d="M257.521 68.8101H254.428V71.7825H257.521V68.8101Z" fill="#CCCCCC"/>
<path opacity="0.74" d="M262.521 68.8101H259.428V71.7825H262.521V68.8101Z" fill="#B3B3B3"/>
<path opacity="0.74" d="M212.609 73.1191H209.516V76.0916H212.609V73.1191Z" fill="#F2F2F2"/>
<path opacity="0.74" d="M217.598 73.1191H214.505V76.0916H217.598V73.1191Z" fill="#F2F2F2"/>
<path opacity="0.74" d="M222.594 73.1191H219.501V76.0916H222.594V73.1191Z" fill="#E6E6E6"/>
<path opacity="0.74" d="M227.583 73.1191H224.49V76.0916H227.583V73.1191Z" fill="white"/>
<path opacity="0.74" d="M232.572 73.1191H229.479V76.0916H232.572V73.1191Z" fill="#CCCCCC"/>
<path opacity="0.74" d="M237.561 73.1191H234.468V76.0916H237.561V73.1191Z" fill="#F2F2F2"/>
<path opacity="0.74" d="M242.555 73.1191H239.463V76.0916H242.555V73.1191Z" fill="#E6E6E6"/>
<path opacity="0.74" d="M247.544 73.1191H244.452V76.0916H247.544V73.1191Z" fill="#E6E6E6"/>
<path opacity="0.74" d="M252.533 73.1191H249.441V76.0916H252.533V73.1191Z" fill="#B3B3B3"/>
<path opacity="0.74" d="M257.521 73.1191H254.428V76.0916H257.521V73.1191Z" fill="#CCCCCC"/>
<path opacity="0.74" d="M262.521 73.1191H259.428V76.0916H262.521V73.1191Z" fill="#E6E6E6"/>
<path opacity="0.74" d="M212.609 77.4287H209.516V80.4012H212.609V77.4287Z" fill="#E6E6E6"/>
<path opacity="0.74" d="M217.598 77.4287H214.505V80.4012H217.598V77.4287Z" fill="#CCCCCC"/>
<path opacity="0.74" d="M222.594 77.4287H219.501V80.4012H222.594V77.4287Z" fill="white"/>
<path opacity="0.74" d="M227.583 77.4287H224.49V80.4012H227.583V77.4287Z" fill="#F2F2F2"/>
<path opacity="0.74" d="M232.572 77.4287H229.479V80.4012H232.572V77.4287Z" fill="#F2F2F2"/>
<path opacity="0.74" d="M237.561 77.4287H234.468V80.4012H237.561V77.4287Z" fill="#F2F2F2"/>
<path opacity="0.74" d="M242.555 77.4287H239.463V80.4012H242.555V77.4287Z" fill="#CCCCCC"/>
<path opacity="0.74" d="M247.544 77.4287H244.452V80.4012H247.544V77.4287Z" fill="#F2F2F2"/>
<path opacity="0.74" d="M252.533 77.4287H249.441V80.4012H252.533V77.4287Z" fill="#F2F2F2"/>
<path opacity="0.74" d="M257.521 77.4287H254.428V80.4012H257.521V77.4287Z" fill="#F2F2F2"/>
<path opacity="0.74" d="M262.521 77.4287H259.428V80.4012H262.521V77.4287Z" fill="#E6E6E6"/>
<path opacity="0.74" d="M212.609 81.7305H209.516V84.7029H212.609V81.7305Z" fill="#E6E6E6"/>
<path opacity="0.74" d="M217.598 81.7305H214.505V84.7029H217.598V81.7305Z" fill="#CCCCCC"/>
<path opacity="0.74" d="M222.594 81.7305H219.501V84.7029H222.594V81.7305Z" fill="#E6E6E6"/>
<path opacity="0.74" d="M227.583 81.7305H224.49V84.7029H227.583V81.7305Z" fill="#F2F2F2"/>
<path opacity="0.74" d="M232.572 81.7305H229.479V84.7029H232.572V81.7305Z" fill="#CCCCCC"/>
<path opacity="0.74" d="M237.561 81.7305H234.468V84.7029H237.561V81.7305Z" fill="#CCCCCC"/>
<path opacity="0.74" d="M242.555 81.7305H239.463V84.7029H242.555V81.7305Z" fill="white"/>
<path opacity="0.74" d="M247.544 81.7305H244.452V84.7029H247.544V81.7305Z" fill="#E6E6E6"/>
<path opacity="0.74" d="M252.533 81.7305H249.441V84.7029H252.533V81.7305Z" fill="#B3B3B3"/>
<path opacity="0.74" d="M257.521 81.7305H254.428V84.7029H257.521V81.7305Z" fill="#E6E6E6"/>
<path opacity="0.74" d="M262.521 81.7305H259.428V84.7029H262.521V81.7305Z" fill="#CCCCCC"/>
<path opacity="0.74" d="M212.609 86.0396H209.516V89.012H212.609V86.0396Z" fill="#CCCCCC"/>
<path opacity="0.74" d="M217.598 86.0396H214.505V89.012H217.598V86.0396Z" fill="#CCCCCC"/>
<path opacity="0.74" d="M222.594 86.0396H219.501V89.012H222.594V86.0396Z" fill="white"/>
<path opacity="0.74" d="M227.583 86.0396H224.49V89.012H227.583V86.0396Z" fill="#F2F2F2"/>
<path opacity="0.74" d="M232.572 86.0396H229.479V89.012H232.572V86.0396Z" fill="#B3B3B3"/>
<path opacity="0.74" d="M237.561 86.0396H234.468V89.012H237.561V86.0396Z" fill="white"/>
<path opacity="0.74" d="M242.555 86.0396H239.463V89.012H242.555V86.0396Z" fill="#E6E6E6"/>
<path opacity="0.74" d="M247.544 86.0396H244.452V89.012H247.544V86.0396Z" fill="#CCCCCC"/>
<path opacity="0.74" d="M252.533 86.0396H249.441V89.012H252.533V86.0396Z" fill="#CCCCCC"/>
<path opacity="0.74" d="M257.521 86.0396H254.428V89.012H257.521V86.0396Z" fill="#B3B3B3"/>
<path opacity="0.74" d="M262.521 86.0396H259.428V89.012H262.521V86.0396Z" fill="#B3B3B3"/>
<path opacity="0.74" d="M212.609 90.3486H209.516V93.3211H212.609V90.3486Z" fill="#CCCCCC"/>
<path opacity="0.74" d="M217.598 90.3486H214.505V93.3211H217.598V90.3486Z" fill="white"/>
<path opacity="0.74" d="M222.594 90.3486H219.501V93.3211H222.594V90.3486Z" fill="#E6E6E6"/>
<path opacity="0.74" d="M227.583 90.3486H224.49V93.3211H227.583V90.3486Z" fill="#B3B3B3"/>
<path opacity="0.74" d="M232.572 90.3486H229.479V93.3211H232.572V90.3486Z" fill="#F2F2F2"/>
<path opacity="0.74" d="M237.561 90.3486H234.468V93.3211H237.561V90.3486Z" fill="white"/>
<path opacity="0.74" d="M242.555 90.3486H239.463V93.3211H242.555V90.3486Z" fill="#CCCCCC"/>
<path opacity="0.74" d="M247.544 90.3486H244.452V93.3211H247.544V90.3486Z" fill="#CCCCCC"/>
<path opacity="0.74" d="M252.533 90.3486H249.441V93.3211H252.533V90.3486Z" fill="#E6E6E6"/>
<path opacity="0.74" d="M257.521 90.3486H254.428V93.3211H257.521V90.3486Z" fill="#CCCCCC"/>
<path opacity="0.74" d="M262.521 90.3486H259.428V93.3211H262.521V90.3486Z" fill="#CCCCCC"/>
<path opacity="0.74" d="M212.609 94.6509H209.516V97.6233H212.609V94.6509Z" fill="#B3B3B3"/>
<path opacity="0.74" d="M217.598 94.6509H214.505V97.6233H217.598V94.6509Z" fill="#E6E6E6"/>
<path opacity="0.74" d="M222.594 94.6509H219.501V97.6233H222.594V94.6509Z" fill="#E6E6E6"/>
<path opacity="0.74" d="M227.583 94.6509H224.49V97.6233H227.583V94.6509Z" fill="#E6E6E6"/>
<path opacity="0.74" d="M232.572 94.6509H229.479V97.6233H232.572V94.6509Z" fill="#CCCCCC"/>
<path opacity="0.74" d="M237.561 94.6509H234.468V97.6233H237.561V94.6509Z" fill="#CCCCCC"/>
<path opacity="0.74" d="M242.555 94.6509H239.463V97.6233H242.555V94.6509Z" fill="#B3B3B3"/>
<path opacity="0.74" d="M247.544 94.6509H244.452V97.6233H247.544V94.6509Z" fill="#CCCCCC"/>
<path opacity="0.74" d="M252.533 94.6509H249.441V97.6233H252.533V94.6509Z" fill="white"/>
<path opacity="0.74" d="M257.521 94.6509H254.428V97.6233H257.521V94.6509Z" fill="white"/>
<path opacity="0.74" d="M262.521 94.6509H259.428V97.6233H262.521V94.6509Z" fill="#CCCCCC"/>
<path opacity="0.74" d="M212.609 98.96H209.516V101.932H212.609V98.96Z" fill="#B3B3B3"/>
<path opacity="0.74" d="M217.598 98.96H214.505V101.932H217.598V98.96Z" fill="#E6E6E6"/>
<path opacity="0.74" d="M222.594 98.96H219.501V101.932H222.594V98.96Z" fill="#E6E6E6"/>
<path opacity="0.74" d="M227.583 98.96H224.49V101.932H227.583V98.96Z" fill="#CCCCCC"/>
<path opacity="0.74" d="M232.572 98.96H229.479V101.932H232.572V98.96Z" fill="#E6E6E6"/>
<path opacity="0.74" d="M237.561 98.96H234.468V101.932H237.561V98.96Z" fill="#B3B3B3"/>
<path opacity="0.74" d="M242.555 98.96H239.463V101.932H242.555V98.96Z" fill="#CCCCCC"/>
<path opacity="0.74" d="M247.544 98.96H244.452V101.932H247.544V98.96Z" fill="#B3B3B3"/>
<path opacity="0.74" d="M252.533 98.96H249.441V101.932H252.533V98.96Z" fill="white"/>
<path opacity="0.74" d="M257.521 98.96H254.428V101.932H257.521V98.96Z" fill="white"/>
<path opacity="0.74" d="M262.521 98.96H259.428V101.932H262.521V98.96Z" fill="#CCCCCC"/>
<path opacity="0.74" d="M212.609 103.262H209.516V106.234H212.609V103.262Z" fill="#E6E6E6"/>
<path opacity="0.74" d="M217.598 103.262H214.505V106.234H217.598V103.262Z" fill="#E6E6E6"/>
<path opacity="0.74" d="M222.594 103.262H219.501V106.234H222.594V103.262Z" fill="#CCCCCC"/>
<path opacity="0.74" d="M227.583 103.262H224.49V106.234H227.583V103.262Z" fill="white"/>
<path opacity="0.74" d="M232.572 103.262H229.479V106.234H232.572V103.262Z" fill="#B3B3B3"/>
<path opacity="0.74" d="M237.561 103.262H234.468V106.234H237.561V103.262Z" fill="white"/>
<path opacity="0.74" d="M242.555 103.262H239.463V106.234H242.555V103.262Z" fill="#CCCCCC"/>
<path opacity="0.74" d="M247.544 103.262H244.452V106.234H247.544V103.262Z" fill="#E6E6E6"/>
<path opacity="0.74" d="M252.533 103.262H249.441V106.234H252.533V103.262Z" fill="#B3B3B3"/>
<path opacity="0.74" d="M257.521 103.262H254.428V106.234H257.521V103.262Z" fill="#CCCCCC"/>
<path opacity="0.74" d="M262.521 103.262H259.428V106.234H262.521V103.262Z" fill="#B3B3B3"/>
<path opacity="0.74" d="M212.609 107.571H209.516V110.544H212.609V107.571Z" fill="#CCCCCC"/>
<path opacity="0.74" d="M217.598 107.571H214.505V110.544H217.598V107.571Z" fill="#B3B3B3"/>
<path opacity="0.74" d="M222.594 107.571H219.501V110.544H222.594V107.571Z" fill="#E6E6E6"/>
<path opacity="0.74" d="M227.583 107.571H224.49V110.544H227.583V107.571Z" fill="#CCCCCC"/>
<path opacity="0.74" d="M232.572 107.571H229.479V110.544H232.572V107.571Z" fill="#E6E6E6"/>
<path opacity="0.74" d="M237.561 107.571H234.468V110.544H237.561V107.571Z" fill="#F2F2F2"/>
<path opacity="0.74" d="M242.555 107.571H239.463V110.544H242.555V107.571Z" fill="#B3B3B3"/>
<path opacity="0.74" d="M247.544 107.571H244.452V110.544H247.544V107.571Z" fill="#CCCCCC"/>
<path opacity="0.74" d="M252.533 107.571H249.441V110.544H252.533V107.571Z" fill="#E6E6E6"/>
<path opacity="0.74" d="M257.521 107.571H254.428V110.544H257.521V107.571Z" fill="#CCCCCC"/>
<path opacity="0.74" d="M262.521 107.571H259.428V110.544H262.521V107.571Z" fill="#E6E6E6"/>
<path opacity="0.74" d="M212.609 111.88H209.516V114.853H212.609V111.88Z" fill="#CCCCCC"/>
<path opacity="0.74" d="M217.598 111.88H214.505V114.853H217.598V111.88Z" fill="#E6E6E6"/>
<path opacity="0.74" d="M222.594 111.88H219.501V114.853H222.594V111.88Z" fill="white"/>
<path opacity="0.74" d="M227.583 111.88H224.49V114.853H227.583V111.88Z" fill="#CCCCCC"/>
<path opacity="0.74" d="M232.572 111.88H229.479V114.853H232.572V111.88Z" fill="#CCCCCC"/>
<path opacity="0.74" d="M237.561 111.88H234.468V114.853H237.561V111.88Z" fill="#E6E6E6"/>
<path opacity="0.74" d="M242.555 111.88H239.463V114.853H242.555V111.88Z" fill="#B3B3B3"/>
<path opacity="0.74" d="M247.544 111.88H244.452V114.853H247.544V111.88Z" fill="#CCCCCC"/>
<path opacity="0.74" d="M252.533 111.88H249.441V114.853H252.533V111.88Z" fill="#B3B3B3"/>
<path opacity="0.74" d="M257.521 111.88H254.428V114.853H257.521V111.88Z" fill="#B3B3B3"/>
<path opacity="0.74" d="M262.521 111.88H259.428V114.853H262.521V111.88Z" fill="#B3B3B3"/>
<path opacity="0.74" d="M212.609 116.182H209.516V119.155H212.609V116.182Z" fill="#B3B3B3"/>
<path opacity="0.74" d="M217.598 116.182H214.505V119.155H217.598V116.182Z" fill="white"/>
<path opacity="0.74" d="M222.594 116.182H219.501V119.155H222.594V116.182Z" fill="#E6E6E6"/>
<path opacity="0.74" d="M227.583 116.182H224.49V119.155H227.583V116.182Z" fill="#B3B3B3"/>
<path opacity="0.74" d="M232.572 116.182H229.479V119.155H232.572V116.182Z" fill="#CCCCCC"/>
<path opacity="0.74" d="M237.561 116.182H234.468V119.155H237.561V116.182Z" fill="#E6E6E6"/>
<path opacity="0.74" d="M242.555 116.182H239.463V119.155H242.555V116.182Z" fill="white"/>
<path opacity="0.74" d="M247.544 116.182H244.452V119.155H247.544V116.182Z" fill="#F2F2F2"/>
<path opacity="0.74" d="M252.533 116.182H249.441V119.155H252.533V116.182Z" fill="#CCCCCC"/>
<path opacity="0.74" d="M257.521 116.182H254.428V119.155H257.521V116.182Z" fill="#CCCCCC"/>
<path opacity="0.74" d="M262.521 116.182H259.428V119.155H262.521V116.182Z" fill="#E6E6E6"/>
<path opacity="0.74" d="M212.609 120.492H209.516V123.464H212.609V120.492Z" fill="#B3B3B3"/>
<path opacity="0.74" d="M217.598 120.492H214.505V123.464H217.598V120.492Z" fill="#F2F2F2"/>
<path opacity="0.74" d="M222.594 120.492H219.501V123.464H222.594V120.492Z" fill="#B3B3B3"/>
<path opacity="0.74" d="M227.583 120.492H224.49V123.464H227.583V120.492Z" fill="#F2F2F2"/>
<path opacity="0.74" d="M232.572 120.492H229.479V123.464H232.572V120.492Z" fill="#E6E6E6"/>
<path opacity="0.74" d="M237.561 120.492H234.468V123.464H237.561V120.492Z" fill="#F2F2F2"/>
<path opacity="0.74" d="M242.555 120.492H239.463V123.464H242.555V120.492Z" fill="#E6E6E6"/>
<path opacity="0.74" d="M247.544 120.492H244.452V123.464H247.544V120.492Z" fill="#F2F2F2"/>
<path opacity="0.74" d="M252.533 120.492H249.441V123.464H252.533V120.492Z" fill="#CCCCCC"/>
<path opacity="0.74" d="M257.521 120.492H254.428V123.464H257.521V120.492Z" fill="#B3B3B3"/>
<path opacity="0.74" d="M262.521 120.492H259.428V123.464H262.521V120.492Z" fill="white"/>
<path opacity="0.74" d="M212.609 124.793H209.516V127.766H212.609V124.793Z" fill="#CCCCCC"/>
<path opacity="0.74" d="M217.598 124.793H214.505V127.766H217.598V124.793Z" fill="#B3B3B3"/>
<path opacity="0.74" d="M222.594 124.793H219.501V127.766H222.594V124.793Z" fill="#CCCCCC"/>
<path opacity="0.74" d="M227.583 124.793H224.49V127.766H227.583V124.793Z" fill="#CCCCCC"/>
<path opacity="0.74" d="M232.572 124.793H229.479V127.766H232.572V124.793Z" fill="#CCCCCC"/>
<path opacity="0.74" d="M237.561 124.793H234.468V127.766H237.561V124.793Z" fill="white"/>
<path opacity="0.74" d="M242.555 124.793H239.463V127.766H242.555V124.793Z" fill="#CCCCCC"/>
<path opacity="0.74" d="M247.544 124.793H244.452V127.766H247.544V124.793Z" fill="#E6E6E6"/>
<path opacity="0.74" d="M252.533 124.793H249.441V127.766H252.533V124.793Z" fill="#CCCCCC"/>
<path opacity="0.74" d="M257.521 124.793H254.428V127.766H257.521V124.793Z" fill="#E6E6E6"/>
<path opacity="0.74" d="M262.521 124.793H259.428V127.766H262.521V124.793Z" fill="#E6E6E6"/>
<path opacity="0.74" d="M212.609 129.103H209.516V132.075H212.609V129.103Z" fill="#CCCCCC"/>
<path opacity="0.74" d="M217.598 129.103H214.505V132.075H217.598V129.103Z" fill="#CCCCCC"/>
<path opacity="0.74" d="M222.594 129.103H219.501V132.075H222.594V129.103Z" fill="#CCCCCC"/>
<path opacity="0.74" d="M227.583 129.103H224.49V132.075H227.583V129.103Z" fill="white"/>
<path opacity="0.74" d="M232.572 129.103H229.479V132.075H232.572V129.103Z" fill="#E6E6E6"/>
<path opacity="0.74" d="M237.561 129.103H234.468V132.075H237.561V129.103Z" fill="#CCCCCC"/>
<path opacity="0.74" d="M242.555 129.103H239.463V132.075H242.555V129.103Z" fill="#E6E6E6"/>
<path opacity="0.74" d="M247.544 129.103H244.452V132.075H247.544V129.103Z" fill="#CCCCCC"/>
<path opacity="0.74" d="M252.533 129.103H249.441V132.075H252.533V129.103Z" fill="#B3B3B3"/>
<path opacity="0.74" d="M257.521 129.103H254.428V132.075H257.521V129.103Z" fill="#B3B3B3"/>
<path opacity="0.74" d="M262.521 129.103H259.428V132.075H262.521V129.103Z" fill="#CCCCCC"/>
<path opacity="0.74" d="M212.609 133.412H209.516V136.384H212.609V133.412Z" fill="#CCCCCC"/>
<path opacity="0.74" d="M217.598 133.412H214.505V136.384H217.598V133.412Z" fill="#E6E6E6"/>
<path opacity="0.74" d="M222.594 133.412H219.501V136.384H222.594V133.412Z" fill="#E6E6E6"/>
<path opacity="0.74" d="M227.583 133.412H224.49V136.384H227.583V133.412Z" fill="#CCCCCC"/>
<path opacity="0.74" d="M232.572 133.412H229.479V136.384H232.572V133.412Z" fill="#E6E6E6"/>
<path opacity="0.74" d="M237.561 133.412H234.468V136.384H237.561V133.412Z" fill="#F2F2F2"/>
<path opacity="0.74" d="M242.555 133.412H239.463V136.384H242.555V133.412Z" fill="#CCCCCC"/>
<path opacity="0.74" d="M247.544 133.412H244.452V136.384H247.544V133.412Z" fill="#CCCCCC"/>
<path opacity="0.74" d="M252.533 133.412H249.441V136.384H252.533V133.412Z" fill="#E6E6E6"/>
<path opacity="0.74" d="M257.521 133.412H254.428V136.384H257.521V133.412Z" fill="#CCCCCC"/>
<path opacity="0.74" d="M262.521 133.412H259.428V136.384H262.521V133.412Z" fill="#CCCCCC"/>
<path opacity="0.74" d="M212.609 137.713H209.516V140.686H212.609V137.713Z" fill="white"/>
<path opacity="0.74" d="M217.598 137.713H214.505V140.686H217.598V137.713Z" fill="#CCCCCC"/>
<path opacity="0.74" d="M222.594 137.713H219.501V140.686H222.594V137.713Z" fill="#E6E6E6"/>
<path opacity="0.74" d="M227.583 137.713H224.49V140.686H227.583V137.713Z" fill="#E6E6E6"/>
<path opacity="0.74" d="M232.572 137.713H229.479V140.686H232.572V137.713Z" fill="#B3B3B3"/>
<path opacity="0.74" d="M237.561 137.713H234.468V140.686H237.561V137.713Z" fill="#B3B3B3"/>
<path opacity="0.74" d="M242.555 137.713H239.463V140.686H242.555V137.713Z" fill="#E6E6E6"/>
<path opacity="0.74" d="M247.544 137.713H244.452V140.686H247.544V137.713Z" fill="#CCCCCC"/>
<path opacity="0.74" d="M252.533 137.713H249.441V140.686H252.533V137.713Z" fill="#B3B3B3"/>
<path opacity="0.74" d="M257.521 137.713H254.428V140.686H257.521V137.713Z" fill="#E6E6E6"/>
<path opacity="0.74" d="M262.521 137.713H259.428V140.686H262.521V137.713Z" fill="#CCCCCC"/>
<path opacity="0.74" d="M212.609 142.023H209.516V144.995H212.609V142.023Z" fill="#CCCCCC"/>
<path opacity="0.74" d="M217.598 142.023H214.505V144.995H217.598V142.023Z" fill="#CCCCCC"/>
<path opacity="0.74" d="M222.594 142.023H219.501V144.995H222.594V142.023Z" fill="#E6E6E6"/>
<path opacity="0.74" d="M227.583 142.023H224.49V144.995H227.583V142.023Z" fill="#E6E6E6"/>
<path opacity="0.74" d="M232.572 142.023H229.479V144.995H232.572V142.023Z" fill="#CCCCCC"/>
<path opacity="0.74" d="M237.561 142.023H234.468V144.995H237.561V142.023Z" fill="#E6E6E6"/>
<path opacity="0.74" d="M242.555 142.023H239.463V144.995H242.555V142.023Z" fill="#E6E6E6"/>
<path opacity="0.74" d="M247.544 142.023H244.452V144.995H247.544V142.023Z" fill="#F2F2F2"/>
<path opacity="0.74" d="M252.533 142.023H249.441V144.995H252.533V142.023Z" fill="#F2F2F2"/>
<path opacity="0.74" d="M257.521 142.023H254.428V144.995H257.521V142.023Z" fill="#B3B3B3"/>
<path opacity="0.74" d="M262.521 142.023H259.428V144.995H262.521V142.023Z" fill="#CCCCCC"/>
<path opacity="0.74" d="M212.609 146.325H209.516V149.297H212.609V146.325Z" fill="#CCCCCC"/>
<path opacity="0.74" d="M217.598 146.325H214.505V149.297H217.598V146.325Z" fill="white"/>
<path opacity="0.74" d="M222.594 146.325H219.501V149.297H222.594V146.325Z" fill="#CCCCCC"/>
<path opacity="0.74" d="M227.583 146.325H224.49V149.297H227.583V146.325Z" fill="#CCCCCC"/>
<path opacity="0.74" d="M232.572 146.325H229.479V149.297H232.572V146.325Z" fill="#B3B3B3"/>
<path opacity="0.74" d="M237.561 146.325H234.468V149.297H237.561V146.325Z" fill="#CCCCCC"/>
<path opacity="0.74" d="M242.555 146.325H239.463V149.297H242.555V146.325Z" fill="#CCCCCC"/>
<path opacity="0.74" d="M247.544 146.325H244.452V149.297H247.544V146.325Z" fill="#B3B3B3"/>
<path opacity="0.74" d="M252.533 146.325H249.441V149.297H252.533V146.325Z" fill="#CCCCCC"/>
<path opacity="0.74" d="M257.521 146.325H254.428V149.297H257.521V146.325Z" fill="#CCCCCC"/>
<path opacity="0.74" d="M262.521 146.325H259.428V149.297H262.521V146.325Z" fill="#E6E6E6"/>
</g>
<path d="M711.891 76.0239H664.398V171.239H711.891V76.0239Z" fill="url(#paint2_linear_514_18463)"/>
<path d="M713.227 74.3662H663.03V77.0623H713.227V74.3662Z" fill="#0D0030"/>
<path d="M710.298 70.9307H666.007V83.7166H710.298V70.9307Z" fill="#0D0030"/>
<path d="M677.973 65.6878L676.644 62.2897H674.445V56.188H673.963H673.458V62.2897H669.371V65.6878V69.6461V79.6687H686.917V65.6878H677.973Z" fill="#0D0030"/>
<path d="M674.857 55.329C674.869 55.21 674.855 55.09 674.815 54.9766C674.776 54.8632 674.712 54.759 674.628 54.6707C674.544 54.5823 674.442 54.5117 674.329 54.4634C674.215 54.4151 674.092 54.3901 673.968 54.3901C673.843 54.3901 673.72 54.4151 673.606 54.4634C673.493 54.5117 673.391 54.5823 673.307 54.6707C673.223 54.759 673.16 54.8632 673.12 54.9766C673.081 55.09 673.066 55.21 673.078 55.329C673.075 55.442 673.095 55.5544 673.139 55.6595C673.182 55.7646 673.247 55.8601 673.33 55.9404C673.413 56.0207 673.511 56.084 673.62 56.1265C673.729 56.1691 673.846 56.1899 673.964 56.1879C674.081 56.1889 674.198 56.1673 674.307 56.1245C674.416 56.0817 674.515 56.0185 674.598 55.9385C674.681 55.8586 674.747 55.7635 674.791 55.6588C674.836 55.5542 674.858 55.4421 674.857 55.329Z" fill="#0D0030"/>
<g opacity="0.56">
<path opacity="0.56" d="M670.839 78.3989H668.554V80.5946H670.839V78.3989Z" fill="#E6E6E6"/>
<path opacity="0.56" d="M674.531 78.3989H672.246V80.5946H674.531V78.3989Z" fill="white"/>
<path opacity="0.56" d="M678.221 78.3989H675.936V80.5946H678.221V78.3989Z" fill="#CCCCCC"/>
<path opacity="0.56" d="M681.912 78.3989H679.627V80.5946H681.912V78.3989Z" fill="#F2F2F2"/>
<path opacity="0.56" d="M685.596 78.3989H683.311V80.5946H685.596V78.3989Z" fill="#B3B3B3"/>
<path opacity="0.56" d="M689.285 78.3989H687V80.5946H689.285V78.3989Z" fill="#CCCCCC"/>
<path opacity="0.56" d="M692.977 78.3989H690.692V80.5946H692.977V78.3989Z" fill="#B3B3B3"/>
<path opacity="0.56" d="M696.669 78.3989H694.384V80.5946H696.669V78.3989Z" fill="#B3B3B3"/>
<path opacity="0.56" d="M700.351 78.3989H698.067V80.5946H700.351V78.3989Z" fill="#E6E6E6"/>
<path opacity="0.56" d="M704.041 78.3989H701.757V80.5946H704.041V78.3989Z" fill="#CCCCCC"/>
<path opacity="0.56" d="M707.733 78.3989H705.449V80.5946H707.733V78.3989Z" fill="#E6E6E6"/>
<path opacity="0.56" d="M670.839 81.5806H668.554V83.7763H670.839V81.5806Z" fill="#F2F2F2"/>
<path opacity="0.56" d="M674.531 81.5806H672.246V83.7763H674.531V81.5806Z" fill="#CCCCCC"/>
<path opacity="0.56" d="M678.221 81.5806H675.936V83.7763H678.221V81.5806Z" fill="#F2F2F2"/>
<path opacity="0.56" d="M681.912 81.5806H679.627V83.7763H681.912V81.5806Z" fill="#B3B3B3"/>
<path opacity="0.56" d="M685.596 81.5806H683.311V83.7763H685.596V81.5806Z" fill="#F2F2F2"/>
<path opacity="0.56" d="M689.285 81.5806H687V83.7763H689.285V81.5806Z" fill="white"/>
<path opacity="0.56" d="M692.977 81.5806H690.692V83.7763H692.977V81.5806Z" fill="#CCCCCC"/>
<path opacity="0.56" d="M696.669 81.5806H694.384V83.7763H696.669V81.5806Z" fill="#B3B3B3"/>
<path opacity="0.56" d="M700.351 81.5806H698.067V83.7763H700.351V81.5806Z" fill="#F2F2F2"/>
<path opacity="0.56" d="M704.041 81.5806H701.757V83.7763H704.041V81.5806Z" fill="white"/>
<path opacity="0.56" d="M707.733 81.5806H705.449V83.7763H707.733V81.5806Z" fill="white"/>
<path opacity="0.56" d="M670.839 84.7695H668.554V86.9653H670.839V84.7695Z" fill="#CCCCCC"/>
<path opacity="0.56" d="M674.531 84.7695H672.246V86.9653H674.531V84.7695Z" fill="white"/>
<path opacity="0.56" d="M678.221 84.7695H675.936V86.9653H678.221V84.7695Z" fill="#B3B3B3"/>
<path opacity="0.56" d="M681.912 84.7695H679.627V86.9653H681.912V84.7695Z" fill="white"/>
<path opacity="0.56" d="M685.596 84.7695H683.311V86.9653H685.596V84.7695Z" fill="#E6E6E6"/>
<path opacity="0.56" d="M689.285 84.7695H687V86.9653H689.285V84.7695Z" fill="white"/>
<path opacity="0.56" d="M692.977 84.7695H690.692V86.9653H692.977V84.7695Z" fill="#E6E6E6"/>
<path opacity="0.56" d="M696.669 84.7695H694.384V86.9653H696.669V84.7695Z" fill="#E6E6E6"/>
<path opacity="0.56" d="M700.351 84.7695H698.067V86.9653H700.351V84.7695Z" fill="white"/>
<path opacity="0.56" d="M704.041 84.7695H701.757V86.9653H704.041V84.7695Z" fill="#CCCCCC"/>
<path opacity="0.56" d="M707.733 84.7695H705.449V86.9653H707.733V84.7695Z" fill="#B3B3B3"/>
<path opacity="0.56" d="M670.839 87.9512H668.554V90.1469H670.839V87.9512Z" fill="#B3B3B3"/>
<path opacity="0.56" d="M674.531 87.9512H672.246V90.1469H674.531V87.9512Z" fill="#CCCCCC"/>
<path opacity="0.56" d="M678.221 87.9512H675.936V90.1469H678.221V87.9512Z" fill="white"/>
<path opacity="0.56" d="M681.912 87.9512H679.627V90.1469H681.912V87.9512Z" fill="#B3B3B3"/>
<path opacity="0.56" d="M685.596 87.9512H683.311V90.1469H685.596V87.9512Z" fill="#CCCCCC"/>
<path opacity="0.56" d="M689.285 87.9512H687V90.1469H689.285V87.9512Z" fill="#E6E6E6"/>
<path opacity="0.56" d="M692.977 87.9512H690.692V90.1469H692.977V87.9512Z" fill="#CCCCCC"/>
<path opacity="0.56" d="M696.669 87.9512H694.384V90.1469H696.669V87.9512Z" fill="#E6E6E6"/>
<path opacity="0.56" d="M700.351 87.9512H698.067V90.1469H700.351V87.9512Z" fill="#B3B3B3"/>
<path opacity="0.56" d="M704.041 87.9512H701.757V90.1469H704.041V87.9512Z" fill="#E6E6E6"/>
<path opacity="0.56" d="M707.733 87.9512H705.449V90.1469H707.733V87.9512Z" fill="#F2F2F2"/>
<path opacity="0.56" d="M670.839 91.1328H668.554V93.3285H670.839V91.1328Z" fill="#CCCCCC"/>
<path opacity="0.56" d="M674.531 91.1328H672.246V93.3285H674.531V91.1328Z" fill="#CCCCCC"/>
<path opacity="0.56" d="M678.221 91.1328H675.936V93.3285H678.221V91.1328Z" fill="#E6E6E6"/>
<path opacity="0.56" d="M681.912 91.1328H679.627V93.3285H681.912V91.1328Z" fill="#CCCCCC"/>
<path opacity="0.56" d="M685.596 91.1328H683.311V93.3285H685.596V91.1328Z" fill="#E6E6E6"/>
<path opacity="0.56" d="M689.285 91.1328H687V93.3285H689.285V91.1328Z" fill="#CCCCCC"/>
<path opacity="0.56" d="M692.977 91.1328H690.692V93.3285H692.977V91.1328Z" fill="white"/>
<path opacity="0.56" d="M696.669 91.1328H694.384V93.3285H696.669V91.1328Z" fill="#B3B3B3"/>
<path opacity="0.56" d="M700.351 91.1328H698.067V93.3285H700.351V91.1328Z" fill="#B3B3B3"/>
<path opacity="0.56" d="M704.041 91.1328H701.757V93.3285H704.041V91.1328Z" fill="#CCCCCC"/>
<path opacity="0.56" d="M707.733 91.1328H705.449V93.3285H707.733V91.1328Z" fill="white"/>
<path opacity="0.56" d="M670.839 94.314H668.554V96.5097H670.839V94.314Z" fill="#B3B3B3"/>
<path opacity="0.56" d="M674.531 94.314H672.246V96.5097H674.531V94.314Z" fill="#E6E6E6"/>
<path opacity="0.56" d="M678.221 94.314H675.936V96.5097H678.221V94.314Z" fill="#CCCCCC"/>
<path opacity="0.56" d="M681.912 94.314H679.627V96.5097H681.912V94.314Z" fill="#B3B3B3"/>
<path opacity="0.56" d="M685.596 94.314H683.311V96.5097H685.596V94.314Z" fill="#B3B3B3"/>
<path opacity="0.56" d="M689.285 94.314H687V96.5097H689.285V94.314Z" fill="#CCCCCC"/>
<path opacity="0.56" d="M692.977 94.314H690.692V96.5097H692.977V94.314Z" fill="#CCCCCC"/>
<path opacity="0.56" d="M696.669 94.314H694.384V96.5097H696.669V94.314Z" fill="white"/>
<path opacity="0.56" d="M700.351 94.314H698.067V96.5097H700.351V94.314Z" fill="#F2F2F2"/>
<path opacity="0.56" d="M704.041 94.314H701.757V96.5097H704.041V94.314Z" fill="#CCCCCC"/>
<path opacity="0.56" d="M707.733 94.314H705.449V96.5097H707.733V94.314Z" fill="#E6E6E6"/>
<path opacity="0.56" d="M670.839 97.4956H668.554V99.6913H670.839V97.4956Z" fill="#B3B3B3"/>
<path opacity="0.56" d="M674.531 97.4956H672.246V99.6913H674.531V97.4956Z" fill="white"/>
<path opacity="0.56" d="M678.221 97.4956H675.936V99.6913H678.221V97.4956Z" fill="#B3B3B3"/>
<path opacity="0.56" d="M681.912 97.4956H679.627V99.6913H681.912V97.4956Z" fill="#E6E6E6"/>
<path opacity="0.56" d="M685.596 97.4956H683.311V99.6913H685.596V97.4956Z" fill="#E6E6E6"/>
<path opacity="0.56" d="M689.285 97.4956H687V99.6913H689.285V97.4956Z" fill="#B3B3B3"/>
<path opacity="0.56" d="M692.977 97.4956H690.692V99.6913H692.977V97.4956Z" fill="#CCCCCC"/>
<path opacity="0.56" d="M696.669 97.4956H694.384V99.6913H696.669V97.4956Z" fill="#CCCCCC"/>
<path opacity="0.56" d="M700.351 97.4956H698.067V99.6913H700.351V97.4956Z" fill="#B3B3B3"/>
<path opacity="0.56" d="M704.041 97.4956H701.757V99.6913H704.041V97.4956Z" fill="#CCCCCC"/>
<path opacity="0.56" d="M707.733 97.4956H705.449V99.6913H707.733V97.4956Z" fill="#B3B3B3"/>
<path opacity="0.56" d="M670.839 100.685H668.554V102.88H670.839V100.685Z" fill="#F2F2F2"/>
<path opacity="0.56" d="M674.531 100.685H672.246V102.88H674.531V100.685Z" fill="#F2F2F2"/>
<path opacity="0.56" d="M678.221 100.685H675.936V102.88H678.221V100.685Z" fill="#E6E6E6"/>
<path opacity="0.56" d="M681.912 100.685H679.627V102.88H681.912V100.685Z" fill="white"/>
<path opacity="0.56" d="M685.596 100.685H683.311V102.88H685.596V100.685Z" fill="#CCCCCC"/>
<path opacity="0.56" d="M689.285 100.685H687V102.88H689.285V100.685Z" fill="#F2F2F2"/>
<path opacity="0.56" d="M692.977 100.685H690.692V102.88H692.977V100.685Z" fill="#E6E6E6"/>
<path opacity="0.56" d="M696.669 100.685H694.384V102.88H696.669V100.685Z" fill="#E6E6E6"/>
<path opacity="0.56" d="M700.351 100.685H698.067V102.88H700.351V100.685Z" fill="#B3B3B3"/>
<path opacity="0.56" d="M704.041 100.685H701.757V102.88H704.041V100.685Z" fill="#CCCCCC"/>
<path opacity="0.56" d="M707.733 100.685H705.449V102.88H707.733V100.685Z" fill="#E6E6E6"/>
<path opacity="0.56" d="M670.839 103.866H668.554V106.062H670.839V103.866Z" fill="#E6E6E6"/>
<path opacity="0.56" d="M674.531 103.866H672.246V106.062H674.531V103.866Z" fill="#CCCCCC"/>
<path opacity="0.56" d="M678.221 103.866H675.936V106.062H678.221V103.866Z" fill="white"/>
<path opacity="0.56" d="M681.912 103.866H679.627V106.062H681.912V103.866Z" fill="#F2F2F2"/>
<path opacity="0.56" d="M685.596 103.866H683.311V106.062H685.596V103.866Z" fill="#F2F2F2"/>
<path opacity="0.56" d="M689.285 103.866H687V106.062H689.285V103.866Z" fill="#F2F2F2"/>
<path opacity="0.56" d="M692.977 103.866H690.692V106.062H692.977V103.866Z" fill="#CCCCCC"/>
<path opacity="0.56" d="M696.669 103.866H694.384V106.062H696.669V103.866Z" fill="#F2F2F2"/>
<path opacity="0.56" d="M700.351 103.866H698.067V106.062H700.351V103.866Z" fill="#F2F2F2"/>
<path opacity="0.56" d="M704.041 103.866H701.757V106.062H704.041V103.866Z" fill="#F2F2F2"/>
<path opacity="0.56" d="M707.733 103.866H705.449V106.062H707.733V103.866Z" fill="#E6E6E6"/>
<path opacity="0.56" d="M670.839 107.048H668.554V109.244H670.839V107.048Z" fill="#E6E6E6"/>
<path opacity="0.56" d="M674.531 107.048H672.246V109.244H674.531V107.048Z" fill="#CCCCCC"/>
<path opacity="0.56" d="M678.221 107.048H675.936V109.244H678.221V107.048Z" fill="#E6E6E6"/>
<path opacity="0.56" d="M681.912 107.048H679.627V109.244H681.912V107.048Z" fill="#F2F2F2"/>
<path opacity="0.56" d="M685.596 107.048H683.311V109.244H685.596V107.048Z" fill="#CCCCCC"/>
<path opacity="0.56" d="M689.285 107.048H687V109.244H689.285V107.048Z" fill="#CCCCCC"/>
<path opacity="0.56" d="M692.977 107.048H690.692V109.244H692.977V107.048Z" fill="white"/>
<path opacity="0.56" d="M696.669 107.048H694.384V109.244H696.669V107.048Z" fill="#E6E6E6"/>
<path opacity="0.56" d="M700.351 107.048H698.067V109.244H700.351V107.048Z" fill="#B3B3B3"/>
<path opacity="0.56" d="M704.041 107.048H701.757V109.244H704.041V107.048Z" fill="#E6E6E6"/>
<path opacity="0.56" d="M707.733 107.048H705.449V109.244H707.733V107.048Z" fill="#CCCCCC"/>
<path opacity="0.56" d="M670.839 110.229H668.554V112.425H670.839V110.229Z" fill="#CCCCCC"/>
<path opacity="0.56" d="M674.531 110.229H672.246V112.425H674.531V110.229Z" fill="#CCCCCC"/>
<path opacity="0.56" d="M678.221 110.229H675.936V112.425H678.221V110.229Z" fill="white"/>
<path opacity="0.56" d="M681.912 110.229H679.627V112.425H681.912V110.229Z" fill="#F2F2F2"/>
<path opacity="0.56" d="M685.596 110.229H683.311V112.425H685.596V110.229Z" fill="#B3B3B3"/>
<path opacity="0.56" d="M689.285 110.229H687V112.425H689.285V110.229Z" fill="white"/>
<path opacity="0.56" d="M692.977 110.229H690.692V112.425H692.977V110.229Z" fill="#E6E6E6"/>
<path opacity="0.56" d="M696.669 110.229H694.384V112.425H696.669V110.229Z" fill="#CCCCCC"/>
<path opacity="0.56" d="M700.351 110.229H698.067V112.425H700.351V110.229Z" fill="#CCCCCC"/>
<path opacity="0.56" d="M704.041 110.229H701.757V112.425H704.041V110.229Z" fill="#B3B3B3"/>
<path opacity="0.56" d="M707.733 110.229H705.449V112.425H707.733V110.229Z" fill="#B3B3B3"/>
<path opacity="0.56" d="M670.839 113.411H668.554V115.607H670.839V113.411Z" fill="#CCCCCC"/>
<path opacity="0.56" d="M674.531 113.411H672.246V115.607H674.531V113.411Z" fill="white"/>
<path opacity="0.56" d="M678.221 113.411H675.936V115.607H678.221V113.411Z" fill="#E6E6E6"/>
<path opacity="0.56" d="M681.912 113.411H679.627V115.607H681.912V113.411Z" fill="#B3B3B3"/>
<path opacity="0.56" d="M685.596 113.411H683.311V115.607H685.596V113.411Z" fill="#F2F2F2"/>
<path opacity="0.56" d="M689.285 113.411H687V115.607H689.285V113.411Z" fill="white"/>
<path opacity="0.56" d="M692.977 113.411H690.692V115.607H692.977V113.411Z" fill="#CCCCCC"/>
<path opacity="0.56" d="M696.669 113.411H694.384V115.607H696.669V113.411Z" fill="#CCCCCC"/>
<path opacity="0.56" d="M700.351 113.411H698.067V115.607H700.351V113.411Z" fill="#E6E6E6"/>
<path opacity="0.56" d="M704.041 113.411H701.757V115.607H704.041V113.411Z" fill="#CCCCCC"/>
<path opacity="0.56" d="M707.733 113.411H705.449V115.607H707.733V113.411Z" fill="#CCCCCC"/>
<path opacity="0.56" d="M670.839 116.592H668.554V118.788H670.839V116.592Z" fill="#B3B3B3"/>
<path opacity="0.56" d="M674.531 116.592H672.246V118.788H674.531V116.592Z" fill="#E6E6E6"/>
<path opacity="0.56" d="M678.221 116.592H675.936V118.788H678.221V116.592Z" fill="#E6E6E6"/>
<path opacity="0.56" d="M681.912 116.592H679.627V118.788H681.912V116.592Z" fill="#E6E6E6"/>
<path opacity="0.56" d="M685.596 116.592H683.311V118.788H685.596V116.592Z" fill="#CCCCCC"/>
<path opacity="0.56" d="M689.285 116.592H687V118.788H689.285V116.592Z" fill="#CCCCCC"/>
<path opacity="0.56" d="M692.977 116.592H690.692V118.788H692.977V116.592Z" fill="#B3B3B3"/>
<path opacity="0.56" d="M696.669 116.592H694.384V118.788H696.669V116.592Z" fill="#CCCCCC"/>
<path opacity="0.56" d="M700.351 116.592H698.067V118.788H700.351V116.592Z" fill="white"/>
<path opacity="0.56" d="M704.041 116.592H701.757V118.788H704.041V116.592Z" fill="white"/>
<path opacity="0.56" d="M707.733 116.592H705.449V118.788H707.733V116.592Z" fill="#CCCCCC"/>
<path opacity="0.56" d="M670.839 119.782H668.554V121.977H670.839V119.782Z" fill="#B3B3B3"/>
<path opacity="0.56" d="M674.531 119.782H672.246V121.977H674.531V119.782Z" fill="#E6E6E6"/>
<path opacity="0.56" d="M678.221 119.782H675.936V121.977H678.221V119.782Z" fill="#E6E6E6"/>
<path opacity="0.56" d="M681.912 119.782H679.627V121.977H681.912V119.782Z" fill="#CCCCCC"/>
<path opacity="0.56" d="M685.596 119.782H683.311V121.977H685.596V119.782Z" fill="#E6E6E6"/>
<path opacity="0.56" d="M689.285 119.782H687V121.977H689.285V119.782Z" fill="#B3B3B3"/>
<path opacity="0.56" d="M692.977 119.782H690.692V121.977H692.977V119.782Z" fill="#CCCCCC"/>
<path opacity="0.56" d="M696.669 119.782H694.384V121.977H696.669V119.782Z" fill="#B3B3B3"/>
<path opacity="0.56" d="M700.351 119.782H698.067V121.977H700.351V119.782Z" fill="white"/>
<path opacity="0.56" d="M704.041 119.782H701.757V121.977H704.041V119.782Z" fill="white"/>
<path opacity="0.56" d="M707.733 119.782H705.449V121.977H707.733V119.782Z" fill="#CCCCCC"/>
<path opacity="0.56" d="M670.839 122.963H668.554V125.159H670.839V122.963Z" fill="#E6E6E6"/>
<path opacity="0.56" d="M674.531 122.963H672.246V125.159H674.531V122.963Z" fill="#E6E6E6"/>
<path opacity="0.56" d="M678.221 122.963H675.936V125.159H678.221V122.963Z" fill="#CCCCCC"/>
<path opacity="0.56" d="M681.912 122.963H679.627V125.159H681.912V122.963Z" fill="white"/>
<path opacity="0.56" d="M685.596 122.963H683.311V125.159H685.596V122.963Z" fill="#B3B3B3"/>
<path opacity="0.56" d="M689.285 122.963H687V125.159H689.285V122.963Z" fill="white"/>
<path opacity="0.56" d="M692.977 122.963H690.692V125.159H692.977V122.963Z" fill="#CCCCCC"/>
<path opacity="0.56" d="M696.669 122.963H694.384V125.159H696.669V122.963Z" fill="#E6E6E6"/>
<path opacity="0.56" d="M700.351 122.963H698.067V125.159H700.351V122.963Z" fill="#B3B3B3"/>
<path opacity="0.56" d="M704.041 122.963H701.757V125.159H704.041V122.963Z" fill="#CCCCCC"/>
<path opacity="0.56" d="M707.733 122.963H705.449V125.159H707.733V122.963Z" fill="#B3B3B3"/>
<path opacity="0.56" d="M670.839 126.145H668.554V128.34H670.839V126.145Z" fill="#CCCCCC"/>
<path opacity="0.56" d="M674.531 126.145H672.246V128.34H674.531V126.145Z" fill="#B3B3B3"/>
<path opacity="0.56" d="M678.221 126.145H675.936V128.34H678.221V126.145Z" fill="#E6E6E6"/>
<path opacity="0.56" d="M681.912 126.145H679.627V128.34H681.912V126.145Z" fill="#CCCCCC"/>
<path opacity="0.56" d="M685.596 126.145H683.311V128.34H685.596V126.145Z" fill="#E6E6E6"/>
<path opacity="0.56" d="M689.285 126.145H687V128.34H689.285V126.145Z" fill="#F2F2F2"/>
<path opacity="0.56" d="M692.977 126.145H690.692V128.34H692.977V126.145Z" fill="#B3B3B3"/>
<path opacity="0.56" d="M696.669 126.145H694.384V128.34H696.669V126.145Z" fill="#CCCCCC"/>
<path opacity="0.56" d="M700.351 126.145H698.067V128.34H700.351V126.145Z" fill="#E6E6E6"/>
<path opacity="0.56" d="M704.041 126.145H701.757V128.34H704.041V126.145Z" fill="#CCCCCC"/>
<path opacity="0.56" d="M707.733 126.145H705.449V128.34H707.733V126.145Z" fill="#E6E6E6"/>
<path opacity="0.56" d="M670.839 129.326H668.554V131.522H670.839V129.326Z" fill="#CCCCCC"/>
<path opacity="0.56" d="M674.531 129.326H672.246V131.522H674.531V129.326Z" fill="#E6E6E6"/>
<path opacity="0.56" d="M678.221 129.326H675.936V131.522H678.221V129.326Z" fill="white"/>
<path opacity="0.56" d="M681.912 129.326H679.627V131.522H681.912V129.326Z" fill="#CCCCCC"/>
<path opacity="0.56" d="M685.596 129.326H683.311V131.522H685.596V129.326Z" fill="#CCCCCC"/>
<path opacity="0.56" d="M689.285 129.326H687V131.522H689.285V129.326Z" fill="#E6E6E6"/>
<path opacity="0.56" d="M692.977 129.326H690.692V131.522H692.977V129.326Z" fill="#B3B3B3"/>
<path opacity="0.56" d="M696.669 129.326H694.384V131.522H696.669V129.326Z" fill="#CCCCCC"/>
<path opacity="0.56" d="M700.351 129.326H698.067V131.522H700.351V129.326Z" fill="#B3B3B3"/>
<path opacity="0.56" d="M704.041 129.326H701.757V131.522H704.041V129.326Z" fill="#B3B3B3"/>
<path opacity="0.56" d="M707.733 129.326H705.449V131.522H707.733V129.326Z" fill="#B3B3B3"/>
<path opacity="0.56" d="M670.839 132.508H668.554V134.704H670.839V132.508Z" fill="#B3B3B3"/>
<path opacity="0.56" d="M674.531 132.508H672.246V134.704H674.531V132.508Z" fill="white"/>
<path opacity="0.56" d="M678.221 132.508H675.936V134.704H678.221V132.508Z" fill="#E6E6E6"/>
<path opacity="0.56" d="M681.912 132.508H679.627V134.704H681.912V132.508Z" fill="#B3B3B3"/>
<path opacity="0.56" d="M685.596 132.508H683.311V134.704H685.596V132.508Z" fill="#CCCCCC"/>
<path opacity="0.56" d="M689.285 132.508H687V134.704H689.285V132.508Z" fill="#E6E6E6"/>
<path opacity="0.56" d="M692.977 132.508H690.692V134.704H692.977V132.508Z" fill="white"/>
<path opacity="0.56" d="M696.669 132.508H694.384V134.704H696.669V132.508Z" fill="#F2F2F2"/>
<path opacity="0.56" d="M700.351 132.508H698.067V134.704H700.351V132.508Z" fill="#CCCCCC"/>
<path opacity="0.56" d="M704.041 132.508H701.757V134.704H704.041V132.508Z" fill="#CCCCCC"/>
<path opacity="0.56" d="M707.733 132.508H705.449V134.704H707.733V132.508Z" fill="#E6E6E6"/>
<path opacity="0.56" d="M670.839 135.697H668.554V137.892H670.839V135.697Z" fill="#B3B3B3"/>
<path opacity="0.56" d="M674.531 135.697H672.246V137.892H674.531V135.697Z" fill="#F2F2F2"/>
<path opacity="0.56" d="M678.221 135.697H675.936V137.892H678.221V135.697Z" fill="#B3B3B3"/>
<path opacity="0.56" d="M681.912 135.697H679.627V137.892H681.912V135.697Z" fill="#F2F2F2"/>
<path opacity="0.56" d="M685.596 135.697H683.311V137.892H685.596V135.697Z" fill="#E6E6E6"/>
<path opacity="0.56" d="M689.285 135.697H687V137.892H689.285V135.697Z" fill="#F2F2F2"/>
<path opacity="0.56" d="M692.977 135.697H690.692V137.892H692.977V135.697Z" fill="#E6E6E6"/>
<path opacity="0.56" d="M696.669 135.697H694.384V137.892H696.669V135.697Z" fill="#F2F2F2"/>
<path opacity="0.56" d="M700.351 135.697H698.067V137.892H700.351V135.697Z" fill="#CCCCCC"/>
<path opacity="0.56" d="M704.041 135.697H701.757V137.892H704.041V135.697Z" fill="#B3B3B3"/>
<path opacity="0.56" d="M707.733 135.697H705.449V137.892H707.733V135.697Z" fill="white"/>
<path opacity="0.56" d="M670.839 138.878H668.554V141.074H670.839V138.878Z" fill="#CCCCCC"/>
<path opacity="0.56" d="M674.531 138.878H672.246V141.074H674.531V138.878Z" fill="#B3B3B3"/>
<path opacity="0.56" d="M678.221 138.878H675.936V141.074H678.221V138.878Z" fill="#CCCCCC"/>
<path opacity="0.56" d="M681.912 138.878H679.627V141.074H681.912V138.878Z" fill="#CCCCCC"/>
<path opacity="0.56" d="M685.596 138.878H683.311V141.074H685.596V138.878Z" fill="#CCCCCC"/>
<path opacity="0.56" d="M689.285 138.878H687V141.074H689.285V138.878Z" fill="white"/>
<path opacity="0.56" d="M692.977 138.878H690.692V141.074H692.977V138.878Z" fill="#CCCCCC"/>
<path opacity="0.56" d="M696.669 138.878H694.384V141.074H696.669V138.878Z" fill="#E6E6E6"/>
<path opacity="0.56" d="M700.351 138.878H698.067V141.074H700.351V138.878Z" fill="#CCCCCC"/>
<path opacity="0.56" d="M704.041 138.878H701.757V141.074H704.041V138.878Z" fill="#E6E6E6"/>
<path opacity="0.56" d="M707.733 138.878H705.449V141.074H707.733V138.878Z" fill="#E6E6E6"/>
<path opacity="0.56" d="M670.839 142.06H668.554V144.256H670.839V142.06Z" fill="#CCCCCC"/>
<path opacity="0.56" d="M674.531 142.06H672.246V144.256H674.531V142.06Z" fill="#CCCCCC"/>
<path opacity="0.56" d="M678.221 142.06H675.936V144.256H678.221V142.06Z" fill="#CCCCCC"/>
<path opacity="0.56" d="M681.912 142.06H679.627V144.256H681.912V142.06Z" fill="white"/>
<path opacity="0.56" d="M685.596 142.06H683.311V144.256H685.596V142.06Z" fill="#E6E6E6"/>
<path opacity="0.56" d="M689.285 142.06H687V144.256H689.285V142.06Z" fill="#CCCCCC"/>
<path opacity="0.56" d="M692.977 142.06H690.692V144.256H692.977V142.06Z" fill="#E6E6E6"/>
<path opacity="0.56" d="M696.669 142.06H694.384V144.256H696.669V142.06Z" fill="#CCCCCC"/>
<path opacity="0.56" d="M700.351 142.06H698.067V144.256H700.351V142.06Z" fill="#B3B3B3"/>
<path opacity="0.56" d="M704.041 142.06H701.757V144.256H704.041V142.06Z" fill="#B3B3B3"/>
<path opacity="0.56" d="M707.733 142.06H705.449V144.256H707.733V142.06Z" fill="#CCCCCC"/>
<path opacity="0.56" d="M670.839 145.242H668.554V147.437H670.839V145.242Z" fill="#CCCCCC"/>
<path opacity="0.56" d="M674.531 145.242H672.246V147.437H674.531V145.242Z" fill="#E6E6E6"/>
<path opacity="0.56" d="M678.221 145.242H675.936V147.437H678.221V145.242Z" fill="#E6E6E6"/>
<path opacity="0.56" d="M681.912 145.242H679.627V147.437H681.912V145.242Z" fill="#CCCCCC"/>
<path opacity="0.56" d="M685.596 145.242H683.311V147.437H685.596V145.242Z" fill="#E6E6E6"/>
<path opacity="0.56" d="M689.285 145.242H687V147.437H689.285V145.242Z" fill="#F2F2F2"/>
<path opacity="0.56" d="M692.977 145.242H690.692V147.437H692.977V145.242Z" fill="#CCCCCC"/>
<path opacity="0.56" d="M696.669 145.242H694.384V147.437H696.669V145.242Z" fill="#CCCCCC"/>
<path opacity="0.56" d="M700.351 145.242H698.067V147.437H700.351V145.242Z" fill="#E6E6E6"/>
<path opacity="0.56" d="M704.041 145.242H701.757V147.437H704.041V145.242Z" fill="#CCCCCC"/>
<path opacity="0.56" d="M707.733 145.242H705.449V147.437H707.733V145.242Z" fill="#CCCCCC"/>
<path opacity="0.56" d="M670.839 148.423H668.554V150.619H670.839V148.423Z" fill="white"/>
<path opacity="0.56" d="M674.531 148.423H672.246V150.619H674.531V148.423Z" fill="#CCCCCC"/>
<path opacity="0.56" d="M678.221 148.423H675.936V150.619H678.221V148.423Z" fill="#E6E6E6"/>
<path opacity="0.56" d="M681.912 148.423H679.627V150.619H681.912V148.423Z" fill="#E6E6E6"/>
<path opacity="0.56" d="M685.596 148.423H683.311V150.619H685.596V148.423Z" fill="#B3B3B3"/>
<path opacity="0.56" d="M689.285 148.423H687V150.619H689.285V148.423Z" fill="#B3B3B3"/>
<path opacity="0.56" d="M692.977 148.423H690.692V150.619H692.977V148.423Z" fill="#E6E6E6"/>
<path opacity="0.56" d="M696.669 148.423H694.384V150.619H696.669V148.423Z" fill="#CCCCCC"/>
<path opacity="0.56" d="M700.351 148.423H698.067V150.619H700.351V148.423Z" fill="#B3B3B3"/>
<path opacity="0.56" d="M704.041 148.423H701.757V150.619H704.041V148.423Z" fill="#E6E6E6"/>
<path opacity="0.56" d="M707.733 148.423H705.449V150.619H707.733V148.423Z" fill="#CCCCCC"/>
<path opacity="0.56" d="M670.839 151.612H668.554V153.808H670.839V151.612Z" fill="#CCCCCC"/>
<path opacity="0.56" d="M674.531 151.612H672.246V153.808H674.531V151.612Z" fill="#CCCCCC"/>
<path opacity="0.56" d="M678.221 151.612H675.936V153.808H678.221V151.612Z" fill="#E6E6E6"/>
<path opacity="0.56" d="M681.912 151.612H679.627V153.808H681.912V151.612Z" fill="#E6E6E6"/>
<path opacity="0.56" d="M685.596 151.612H683.311V153.808H685.596V151.612Z" fill="#CCCCCC"/>
<path opacity="0.56" d="M689.285 151.612H687V153.808H689.285V151.612Z" fill="#E6E6E6"/>
<path opacity="0.56" d="M692.977 151.612H690.692V153.808H692.977V151.612Z" fill="#E6E6E6"/>
<path opacity="0.56" d="M696.669 151.612H694.384V153.808H696.669V151.612Z" fill="#F2F2F2"/>
<path opacity="0.56" d="M700.351 151.612H698.067V153.808H700.351V151.612Z" fill="#F2F2F2"/>
<path opacity="0.56" d="M704.041 151.612H701.757V153.808H704.041V151.612Z" fill="#B3B3B3"/>
<path opacity="0.56" d="M707.733 151.612H705.449V153.808H707.733V151.612Z" fill="#CCCCCC"/>
<path opacity="0.56" d="M670.839 154.793H668.554V156.989H670.839V154.793Z" fill="#CCCCCC"/>
<path opacity="0.56" d="M674.531 154.793H672.246V156.989H674.531V154.793Z" fill="white"/>
<path opacity="0.56" d="M678.221 154.793H675.936V156.989H678.221V154.793Z" fill="#CCCCCC"/>
<path opacity="0.56" d="M681.912 154.793H679.627V156.989H681.912V154.793Z" fill="#CCCCCC"/>
<path opacity="0.56" d="M685.596 154.793H683.311V156.989H685.596V154.793Z" fill="#B3B3B3"/>
<path opacity="0.56" d="M689.285 154.793H687V156.989H689.285V154.793Z" fill="#CCCCCC"/>
<path opacity="0.56" d="M692.977 154.793H690.692V156.989H692.977V154.793Z" fill="#CCCCCC"/>
<path opacity="0.56" d="M696.669 154.793H694.384V156.989H696.669V154.793Z" fill="#B3B3B3"/>
<path opacity="0.56" d="M700.351 154.793H698.067V156.989H700.351V154.793Z" fill="#CCCCCC"/>
<path opacity="0.56" d="M704.041 154.793H701.757V156.989H704.041V154.793Z" fill="#CCCCCC"/>
<path opacity="0.56" d="M707.733 154.793H705.449V156.989H707.733V154.793Z" fill="#E6E6E6"/>
</g>
<path d="M583.469 106.212V53.9326H574.362V39.9218H571.122V19.3985H553.172V4.29737H551.618V19.3985H548.082V0.503418H546.528V19.3985H535.183V53.94H529.317V106.219H524.305V201.457H587.035V106.212H583.469Z" fill="#0D0030"/>
<path d="M542.496 45.6128H541.665V193.794H542.496V45.6128Z" fill="#C7DBD9"/>
<path d="M551.268 45.6128H550.437V193.794H551.268V45.6128Z" fill="#C7DBD9"/>
<path d="M560.011 45.6128H559.149V193.794H559.98L560.011 45.6128Z" fill="#C7DBD9"/>
<path d="M564.385 45.6128H563.545V193.794H564.385V45.6128Z" fill="#C7DBD9"/>
<path d="M568.751 45.6128H567.919V193.794H568.751V45.6128Z" fill="#C7DBD9"/>
<path d="M555.643 45.6128H554.803V193.794H555.643V45.6128Z" fill="#C7DBD9"/>
<path d="M546.901 45.6128H546.062V193.794H546.901V45.6128Z" fill="#C7DBD9"/>
<path d="M34.5972 57.5247H28.4508V49.6306H29.2744V48.3609H23.6176V43.8351H24.1149V42.8492H21.6749V38.5175H19.3671H18.9941V23.1699H18.7455H18.4191H18.1239V38.5175H17.0127V29.9512H16.764H16.4765H16.1424V38.5175H13.4616V42.8492H10.6565V43.8351H11.5268V48.3609H5.90873V49.6306H6.69354V57.5247H0.547119V58.8317H1.40964V181.545H33.7269V58.8317H34.5972V57.5247Z" fill="#090223"/>
<path d="M19.1032 74.9038H17.821V77.5626H19.1032V74.9038Z" fill="#C7DBD9"/>
<path d="M23.6559 74.9038H22.3816V77.5626H23.6559V74.9038Z" fill="#C7DBD9"/>
<path d="M29.0258 74.9038H27.7437V77.5626H29.0258V74.9038Z" fill="#C7DBD9"/>
<path d="M9.00209 74.9038H7.71997V77.5626H9.00209V74.9038Z" fill="#C7DBD9"/>
<path d="M13.5463 74.9038H12.2642V77.5626H13.5463V74.9038Z" fill="#C7DBD9"/>
<path d="M19.1032 79.5044H17.821V82.1632H19.1032V79.5044Z" fill="#C7DBD9"/>
<path d="M23.6559 79.5044H22.3816V82.1632H23.6559V79.5044Z" fill="#C7DBD9"/>
<path d="M29.0258 79.5044H27.7437V82.1632H29.0258V79.5044Z" fill="#C7DBD9"/>
<path d="M9.00209 79.5044H7.71997V82.1632H9.00209V79.5044Z" fill="#C7DBD9"/>
<path d="M13.5463 79.5044H12.2642V82.1632H13.5463V79.5044Z" fill="#C7DBD9"/>
<path d="M19.1032 84.105H17.821V86.7637H19.1032V84.105Z" fill="#C7DBD9"/>
<path d="M23.6559 84.105H22.3816V86.7637H23.6559V84.105Z" fill="#C7DBD9"/>
<path d="M29.0258 84.105H27.7437V86.7637H29.0258V84.105Z" fill="#C7DBD9"/>
<path d="M9.00209 84.105H7.71997V86.7637H9.00209V84.105Z" fill="#C7DBD9"/>
<path d="M13.5463 84.105H12.2642V86.7637H13.5463V84.105Z" fill="#C7DBD9"/>
<path d="M18.9938 88.7129H17.7117V91.3642H18.9938V88.7129Z" fill="#C7DBD9"/>
<path d="M23.579 88.7129H22.2969V91.3642H23.579V88.7129Z" fill="#C7DBD9"/>
<path d="M28.9007 88.7129H27.6497V91.3642H28.9318L28.9007 88.7129Z" fill="#C7DBD9"/>
<path d="M8.88442 88.7129H7.60229V91.3642H8.88442V88.7129Z" fill="#C7DBD9"/>
<path d="M13.4233 88.7129H12.1101V91.3642H13.3922L13.4233 88.7129Z" fill="#C7DBD9"/>
<path d="M18.9938 93.3135H17.7117V95.9722H18.9938V93.3135Z" fill="#C7DBD9"/>
<path d="M23.579 93.3135H22.2969V95.9722H23.579V93.3135Z" fill="#C7DBD9"/>
<path d="M28.9007 93.3135H27.6497V95.9722H28.9318L28.9007 93.3135Z" fill="#C7DBD9"/>
<path d="M8.88442 93.3135H7.60229V95.9722H8.88442V93.3135Z" fill="#C7DBD9"/>
<path d="M13.4233 93.3135H12.1101V95.9722H13.3922L13.4233 93.3135Z" fill="#C7DBD9"/>
<path d="M18.9938 97.9141H17.7117V100.58H18.9938V97.9141Z" fill="#C7DBD9"/>
<path d="M23.579 97.9141H22.2969V100.58H23.579V97.9141Z" fill="#C7DBD9"/>
<path d="M28.9007 97.9141H27.6497V100.58H28.9318L28.9007 97.9141Z" fill="#C7DBD9"/>
<path d="M13.4233 97.9141H12.1101V100.58H13.3922L13.4233 97.9141Z" fill="#C7DBD9"/>
<path d="M8.88442 97.9141H7.60229V100.58H8.88442V97.9141Z" fill="#C7DBD9"/>
<path d="M489.71 116.906V85.7181H474.947V77.3385H469.678V65.0231H440.469V56.061H437.928V65.0231H432.178V53.7383H429.575V65.0231H411.159V85.7181H401.64V116.906H393.489V173.823H495.468V116.906H489.71Z" fill="#00000F"/>
<path d="M415.961 91.9097H414.407V99.1989H415.961V91.9097Z" fill="#C7DBD9"/>
<path d="M421.361 91.9097H419.807V99.1989H421.361V91.9097Z" fill="#C7DBD9"/>
<path d="M426.7 91.9097H425.146V99.1989H426.7V91.9097Z" fill="#C7DBD9"/>
<path d="M432.1 91.9097H430.546V99.1989H432.1V91.9097Z" fill="#C7DBD9"/>
<path d="M437.43 91.9097H435.876V99.1989H437.43V91.9097Z" fill="#C7DBD9"/>
<path d="M442.832 91.9097H441.278V99.1989H442.832V91.9097Z" fill="#C7DBD9"/>
<path d="M448.162 91.9097H446.607V99.1989H448.162V91.9097Z" fill="#C7DBD9"/>
<path d="M453.562 91.9097H452.008V99.1989H453.562V91.9097Z" fill="#C7DBD9"/>
<path d="M458.908 91.9097H457.354V99.1989H458.908V91.9097Z" fill="#C7DBD9"/>
<path d="M464.302 91.9097H462.748V99.1989H464.302V91.9097Z" fill="#C7DBD9"/>
<path d="M469.632 91.9097H468.078V99.1989H469.632V91.9097Z" fill="#C7DBD9"/>
<path d="M415.961 102.074H414.407V109.363H415.961V102.074Z" fill="#C7DBD9"/>
<path d="M421.361 102.074H419.807V109.363H421.361V102.074Z" fill="#C7DBD9"/>
<path d="M426.7 102.074H425.146V109.363H426.7V102.074Z" fill="#C7DBD9"/>
<path d="M432.1 102.074H430.546V109.363H432.1V102.074Z" fill="#C7DBD9"/>
<path d="M437.43 102.074H435.876V109.363H437.43V102.074Z" fill="#C7DBD9"/>
<path d="M442.832 102.074H441.278V109.363H442.832V102.074Z" fill="#C7DBD9"/>
<path d="M448.162 102.074H446.607V109.363H448.162V102.074Z" fill="#C7DBD9"/>
<path d="M453.562 102.074H452.008V109.363H453.562V102.074Z" fill="#C7DBD9"/>
<path d="M458.908 102.074H457.354V109.363H458.908V102.074Z" fill="#C7DBD9"/>
<path d="M464.302 102.074H462.748V109.363H464.302V102.074Z" fill="#C7DBD9"/>
<path d="M469.632 102.074H468.078V109.363H469.632V102.074Z" fill="#C7DBD9"/>
<path d="M415.961 112.261H414.407V119.558H415.961V112.261Z" fill="#C7DBD9"/>
<path d="M421.361 112.261H419.807V119.558H421.361V112.261Z" fill="#C7DBD9"/>
<path d="M426.7 112.261H425.146V119.558H426.7V112.261Z" fill="#C7DBD9"/>
<path d="M432.1 112.261H430.546V119.558H432.1V112.261Z" fill="#C7DBD9"/>
<path d="M437.43 112.261H435.876V119.558H437.43V112.261Z" fill="#C7DBD9"/>
<path d="M442.832 112.261H441.278V119.558H442.832V112.261Z" fill="#C7DBD9"/>
<path d="M448.162 112.261H446.607V119.558H448.162V112.261Z" fill="#C7DBD9"/>
<path d="M453.562 112.261H452.008V119.558H453.562V112.261Z" fill="#C7DBD9"/>
<path d="M458.908 112.261H457.354V119.558H458.908V112.261Z" fill="#C7DBD9"/>
<path d="M464.302 112.261H462.748V119.558H464.302V112.261Z" fill="#C7DBD9"/>
<path d="M469.632 112.261H468.078V119.558H469.632V112.261Z" fill="#C7DBD9"/>
<path d="M432.1 122.44H430.546V129.707H432.1V122.44Z" fill="#C7DBD9"/>
<path d="M437.43 122.44H435.876V129.707H437.43V122.44Z" fill="#C7DBD9"/>
<path d="M442.832 122.44H441.278V129.707H442.832V122.44Z" fill="#C7DBD9"/>
<path d="M448.162 122.44H446.607V129.707H448.162V122.44Z" fill="#C7DBD9"/>
<path d="M453.562 122.44H452.008V129.707H453.562V122.44Z" fill="#C7DBD9"/>
<path d="M458.908 122.44H457.354V129.707H458.908V122.44Z" fill="#C7DBD9"/>
<path d="M464.302 122.44H462.748V129.707H464.302V122.44Z" fill="#C7DBD9"/>
<path d="M469.632 122.44H468.078V129.707H469.632V122.44Z" fill="#C7DBD9"/>
<path d="M437.43 133.188H435.876V140.477H437.43V133.188Z" fill="#C7DBD9"/>
<path d="M442.832 133.188H441.278V140.477H442.832V133.188Z" fill="#C7DBD9"/>
<path d="M448.162 133.188H446.607V140.477H448.162V133.188Z" fill="#C7DBD9"/>
<path d="M453.562 133.188H452.008V140.477H453.562V133.188Z" fill="#C7DBD9"/>
<path d="M458.908 133.188H457.354V140.477H458.908V133.188Z" fill="#C7DBD9"/>
<path d="M464.302 133.188H462.748V140.477H464.302V133.188Z" fill="#C7DBD9"/>
<path d="M469.632 133.188H468.078V140.477H469.632V133.188Z" fill="#C7DBD9"/>
<path d="M156.452 110.043V71.4533H140.22V61.0498H134.431V45.7918H102.417V34.6713H99.6349V45.7918H93.3175V31.8184H90.4657V45.7918H70.2626V71.4533H59.7958V110.08H50.8521V180.567H162.746V110.043H156.452Z" fill="url(#paint3_linear_514_18463)"/>
<path d="M105.58 81.0205H102.122V87.2342H105.58V81.0205Z" fill="#C7DBD9"/>
<path d="M117.709 81.0205H114.243V87.2342H117.709V81.0205Z" fill="#C7DBD9"/>
<path d="M131.937 81.0205H128.471V87.2342H131.937V81.0205Z" fill="#C7DBD9"/>
<path d="M78.6084 81.0205H75.1428V87.2342H78.6084V81.0205Z" fill="#C7DBD9"/>
<path d="M90.7388 81.0205H87.2732V87.2342H90.7388V81.0205Z" fill="#C7DBD9"/>
<path d="M105.58 91.8271H102.122V98.0408H105.58V91.8271Z" fill="#C7DBD9"/>
<path d="M117.709 91.8271H114.243V98.0408H117.709V91.8271Z" fill="#C7DBD9"/>
<path d="M131.937 91.8271H128.471V98.0408H131.937V91.8271Z" fill="#C7DBD9"/>
<path d="M78.6084 91.8271H75.1428V98.0408H78.6084V91.8271Z" fill="#C7DBD9"/>
<path d="M90.7388 91.8271H87.2732V98.0408H90.7388V91.8271Z" fill="#C7DBD9"/>
<path d="M105.58 102.582H102.122V108.796H105.58V102.582Z" fill="#C7DBD9"/>
<path d="M117.709 102.582H114.243V108.796H117.709V102.582Z" fill="#C7DBD9"/>
<path d="M131.937 102.582H128.471V108.796H131.937V102.582Z" fill="#C7DBD9"/>
<path d="M78.6084 102.582H75.1428V108.796H78.6084V102.582Z" fill="#C7DBD9"/>
<path d="M90.7388 102.582H87.2732V108.796H90.7388V102.582Z" fill="#C7DBD9"/>
<path d="M105.275 113.389H101.809V119.602H105.275V113.389Z" fill="#C7DBD9"/>
<path d="M117.397 113.389H113.9V119.602H117.366L117.397 113.389Z" fill="#C7DBD9"/>
<path d="M131.626 113.389H128.16V119.602H131.626V113.389Z" fill="#C7DBD9"/>
<path d="M78.305 113.389H74.8394V119.602H78.305V113.389Z" fill="#C7DBD9"/>
<path d="M90.427 113.389H86.9614V119.602H90.427V113.389Z" fill="#C7DBD9"/>
<path d="M105.275 124.143H101.809V130.357H105.275V124.143Z" fill="#C7DBD9"/>
<path d="M117.397 124.143H113.9V130.357H117.366L117.397 124.143Z" fill="#C7DBD9"/>
<path d="M131.626 124.143H128.16V130.357H131.626V124.143Z" fill="#C7DBD9"/>
<path d="M78.305 124.143H74.8394V130.357H78.305V124.143Z" fill="#C7DBD9"/>
<path d="M90.427 124.143H86.9614V130.357H90.427V124.143Z" fill="#C7DBD9"/>
<path d="M105.275 134.935H101.809V141.149H105.275V134.935Z" fill="#C7DBD9"/>
<path d="M117.397 134.935H113.9V141.149H117.366L117.397 134.935Z" fill="#C7DBD9"/>
<path d="M131.626 134.935H128.16V141.149H131.626V134.935Z" fill="#C7DBD9"/>
<path d="M78.305 134.935H74.8394V141.149H78.305V134.935Z" fill="#C7DBD9"/>
<path d="M90.427 134.935H86.9614V141.149H90.427V134.935Z" fill="#C7DBD9"/>
<path d="M897.328 42.3696H849.563V168.269H897.328V42.3696Z" fill="#00005C"/>
<path d="M886.044 27H884.412V44.3392H886.044V27Z" fill="#00005C"/>
<path d="M891.562 30.7271H889.93V48.0664H891.562V30.7271Z" fill="#00005C"/>
<path d="M880.963 33.0708H879.339V50.4101H880.963V33.0708Z" fill="#00005C"/>
<path d="M857.193 51.6562V183.651" stroke="#C7DBD9" stroke-width="2.88" stroke-miterlimit="10"/>
<path d="M863.153 51.6562V183.651" stroke="#C7DBD9" stroke-width="2.88" stroke-miterlimit="10"/>
<path d="M869.044 51.6562V183.651" stroke="#C7DBD9" stroke-width="2.88" stroke-miterlimit="10"/>
<path d="M875.004 51.6562V183.651" stroke="#C7DBD9" stroke-width="2.88" stroke-miterlimit="10"/>
<path d="M880.955 51.6562V183.651" stroke="#C7DBD9" stroke-width="2.88" stroke-miterlimit="10"/>
<path d="M886.846 51.6562V183.651" stroke="#C7DBD9" stroke-width="2.88" stroke-miterlimit="10"/>
<path d="M892.806 51.6562V183.651" stroke="#C7DBD9" stroke-width="2.88" stroke-miterlimit="10"/>
<defs>
<linearGradient id="paint0_linear_514_18463" x1="41335.3" y1="18857" x2="41335.3" y2="40537.4" gradientUnits="userSpaceOnUse">
<stop stop-color="#4F044A"/>
<stop offset="1" stop-color="#0D0030"/>
</linearGradient>
<linearGradient id="paint1_linear_514_18463" x1="236.015" y1="211.816" x2="236.015" y2="39.4741" gradientUnits="userSpaceOnUse">
<stop stop-color="#3B003B"/>
<stop offset="1" stop-color="#120021"/>
</linearGradient>
<linearGradient id="paint2_linear_514_18463" x1="688.145" y1="171.239" x2="688.145" y2="76.0239" gradientUnits="userSpaceOnUse">
<stop stop-color="#5C0C4F"/>
<stop offset="1" stop-color="#0D0030"/>
</linearGradient>
<linearGradient id="paint3_linear_514_18463" x1="106.815" y1="180.53" x2="106.815" y2="31.8184" gradientUnits="userSpaceOnUse">
<stop stop-color="#10002A"/>
<stop offset="1" stop-color="#2E053D"/>
</linearGradient>
</defs>
</svg>
