<svg width="1191" height="36" viewBox="0 0 1191 36" fill="none" xmlns="http://www.w3.org/2000/svg">
<path d="M536.924 17.5687H499.572V26.9267H461.279V18.9653H456.516V16.3364H459.398V16.0601H446.997V15.2535H445.653V16.0601H441.697V11.8479H440.695V16.0601H435.528V16.3364H438.543V18.9653H413.265V25.0297H388.656L375.812 32.7595H349.96V7.47889H315.824V6.55281H317.767V6.24658H291.883V6.55281H293.966V7.47889V8.95015V26.2694H277.803V19.6972H283.569V19.1147H243.062V15.1714H235.283V14.3648H218.049V15.1714H204.031V29.2867H157.96V18.8085H119.201V27.0835H85.5393V32.3786H61.2645V25.7243H29.3435V31.4077H0.4375V35.4257H29.3435H39.0643H55.0248H61.2645H130.468V35.3884H136.568H157.96V35.4257H218.049H235.283H243.062H273.242H293.966H320.921H349.96V35.3884H413.265V35.4257H452.56H461.279H510.699V35.3884H593.858V32.7595H536.924V17.5687Z" fill="#000040"/>
<path d="M1151.68 31.6021L1143.49 22.64H1126.72V15.1715H1128.81V14.5143H1120.69V11.6539H1119.68V14.5143H1114.04V12.1543H1113.04V14.5143H1079.18V15.1715H1081.51V30.2428H1042.81V23.5212H1020.77V6.94131H1022.79V6.12728H1018.43V5.08916H1013.37V3.5208V2.49016H1007.23V0.623049H1006.81C1007.41 0.623049 1007.87 0.496058 1007.87 0.361626C1007.87 0.227194 1007.27 0.0927734 1006.52 0.0927734C1005.78 0.0927734 1005.19 0.2496 1005.19 0.361626C1005.19 0.473653 1005.64 0.593175 1006.24 0.623049H1005.75V2.49016H1002.51L1000.49 3.5208H987.283V5.08916H952.316V6.12728H947.895V6.94131H949.907V17.7631H920.706V28.3459L888.358 25.9933V15.7541H884.356H893.548V15.0072H884.356V12.9908H844.991V15.0072H832.185V12.9086H825.542V14.9475H818.968V12.9086H811.726V14.9475H796.441V15.6943H844.991H798.757V30.0113H783.993V29.8545H781.367V25.7991H783.985V25.4854H781.367V21.3928H783.985V21.0492H781.367V16.9938H783.985V16.6802H781.367V12.5874H783.985V12.2738H781.367V8.21843H783.985V7.90477H781.367V3.69256H785.928V3.38633H788.259V2.49759H744.846V1.48937H746.252V1.22051H722.544V1.48937H723.959V2.49759H713.158V3.38633H715.489V3.69256H720.05V7.90477H717.369V8.21843H720.05V12.2738H717.369V12.5874H720.05V16.6802H717.369V16.9938H720.05V21.0492H717.369V21.3629H720.05V25.4556H717.369V25.7692H720.05V29.8246H717.369V30.1308H720.05V33.4617H705.216V20.6608H645.563V30.0113H626.781V35.4633H705.216V35.4184H720.035V35.4633H956.893H1011.08H1191V31.6319L1151.68 31.6021Z" fill="#000040"/>
<path d="M311.132 12.834H308.645V16.6952H311.132V12.834Z" fill="#C7DBD9"/>
<path d="M317.302 12.834H314.815V16.6952H317.302V12.834Z" fill="#C7DBD9"/>
<path d="M323.471 12.834H320.992V16.6952H323.471V12.834Z" fill="#C7DBD9"/>
<path d="M329.641 12.834H327.155V16.6952H329.641V12.834Z" fill="#C7DBD9"/>
<path d="M311.132 19.2344H308.645V23.0955H311.132V19.2344Z" fill="#C7DBD9"/>
<path d="M317.302 19.2344H314.815V23.0955H317.302V19.2344Z" fill="#C7DBD9"/>
<path d="M323.471 19.2344H320.992V23.0955H323.471V19.2344Z" fill="#C7DBD9"/>
<path d="M329.641 19.2344H327.155V23.0955H329.641V19.2344Z" fill="#C7DBD9"/>
<path d="M311.132 25.6499H308.645V29.5186H311.132V25.6499Z" fill="#C7DBD9"/>
<path d="M317.302 25.6499H314.815V29.5186H317.302V25.6499Z" fill="#C7DBD9"/>
<path d="M336.68 12.834H334.201V16.6952H336.68V12.834Z" fill="#C7DBD9"/>
<path d="M737.197 9.48047H734.299V13.9167H737.197V9.48047Z" fill="#C7DBD9"/>
<path d="M744.26 9.48047H741.362V13.9167H744.26V9.48047Z" fill="#C7DBD9"/>
<path d="M751.417 9.48047H748.519V13.9167H751.417V9.48047Z" fill="#C7DBD9"/>
<path d="M758.472 9.48047H755.573V13.9167H758.472V9.48047Z" fill="#C7DBD9"/>
<path d="M737.197 16.8442H734.299V21.2805H737.197V16.8442Z" fill="#C7DBD9"/>
<path d="M744.26 16.8442H741.362V21.2805H744.26V16.8442Z" fill="#C7DBD9"/>
<path d="M751.417 16.8442H748.519V21.2805H751.417V16.8442Z" fill="#C7DBD9"/>
<path d="M758.472 16.8442H755.573V21.2805H758.472V16.8442Z" fill="#C7DBD9"/>
<path d="M737.197 24.2529H734.299V28.6892H737.197V24.2529Z" fill="#C7DBD9"/>
<path d="M744.26 24.2529H741.362V28.6892H744.26V24.2529Z" fill="#C7DBD9"/>
<path d="M766.538 9.48047H763.64V13.9167H766.538V9.48047Z" fill="#C7DBD9"/>
</svg>
