<svg width="1089" height="233" viewBox="0 0 1089 233" fill="none" xmlns="http://www.w3.org/2000/svg">
<mask id="mask0_986_226" style="mask-type:alpha" maskUnits="userSpaceOnUse" x="0" y="0" width="1089" height="233">
<rect width="1089" height="233" fill="#C4C4C4"/>
</mask>
<g mask="url(#mask0_986_226)">
<path d="M781.514 92.8701H727.35V247.478H781.514V92.8701Z" fill="url(#paint0_linear_986_226)"/>
<path d="M782.893 86.9351H724.159V92.8606H782.864L782.893 86.9351Z" fill="#0D0030"/>
<path d="M753.539 70.8555H729.738V102.18H753.539V70.8555Z" fill="#0D0030"/>
<path d="M765.294 70.8555H761.281V89.9115H765.294V70.8555Z" fill="#0D0030"/>
<path d="M773.641 70.8555H769.27V89.9115H773.641V70.8555Z" fill="#0D0030"/>
<path d="M739.548 120.646H737.074V127.661H739.548V120.646Z" fill="#C7DBD9"/>
<path d="M739.548 134.122H737.074V141.136H739.548V134.122Z" fill="#C7DBD9"/>
<path d="M739.548 147.498H737.074V154.512H739.548V147.498Z" fill="#C7DBD9"/>
<path d="M739.548 160.9H737.074V167.914H739.548V160.9Z" fill="#C7DBD9"/>
<path d="M739.548 173.568H737.074V180.573H739.548V173.568Z" fill="#C7DBD9"/>
<path d="M739.548 186.97H737.074V194.012H739.548V186.97Z" fill="#C7DBD9"/>
<path d="M750.131 120.646H747.657V127.661H750.131V120.646Z" fill="#C7DBD9"/>
<path d="M750.131 134.122H747.657V141.136H750.131V134.122Z" fill="#C7DBD9"/>
<path d="M750.131 147.498H747.657V154.512H750.131V147.498Z" fill="#C7DBD9"/>
<path d="M750.131 160.9H747.657V167.914H750.131V160.9Z" fill="#C7DBD9"/>
<path d="M750.131 173.568H747.657V180.573H750.131V173.568Z" fill="#C7DBD9"/>
<path d="M750.131 186.97H747.657V194.012H750.131V186.97Z" fill="#C7DBD9"/>
<path d="M760.668 120.646H758.204V127.661H760.668V120.646Z" fill="#C7DBD9"/>
<path d="M760.668 134.122H758.204V141.136H760.668V134.122Z" fill="#C7DBD9"/>
<path d="M760.668 147.498H758.204V154.512H760.668V147.498Z" fill="#C7DBD9"/>
<path d="M760.668 160.9H758.204V167.914H760.668V160.9Z" fill="#C7DBD9"/>
<path d="M760.668 173.568H758.204V180.573H760.668V173.568Z" fill="#C7DBD9"/>
<path d="M760.668 186.97H758.204V194.012H760.668V186.97Z" fill="#C7DBD9"/>
<path d="M771.214 120.646H768.74V127.661H771.214V120.646Z" fill="#C7DBD9"/>
<path d="M771.214 134.122H768.74V141.136H771.214V134.122Z" fill="#C7DBD9"/>
<path d="M771.214 147.498H768.74V154.512H771.214V147.498Z" fill="#C7DBD9"/>
<path d="M771.214 160.9H768.74V167.914H771.214V160.9Z" fill="#C7DBD9"/>
<path d="M771.214 173.568H768.74V180.573H771.214V173.568Z" fill="#C7DBD9"/>
<path d="M771.214 186.97H768.74V194.012H771.214V186.97Z" fill="#C7DBD9"/>
<path d="M302.623 69.7395H335.026V38.9775H302.623V69.7395Z" fill="#120021"/>
<path d="M316.296 47.6615H335.055V31.5093H321.602L316.296 47.6615Z" fill="#120021"/>
<path d="M325.651 54.1224H327.464V18.061H325.651V54.1224Z" fill="#120021"/>
<path d="M324.915 16.1555C324.895 16.6108 325.053 17.0568 325.359 17.4048C325.666 17.7528 326.097 17.9774 326.567 18.0339C327.045 17.9946 327.487 17.7749 327.797 17.4228C328.107 17.0707 328.259 16.615 328.219 16.1555C328.255 15.9269 328.24 15.6934 328.173 15.4711C328.107 15.2488 327.991 15.043 327.834 14.8676C327.677 14.6923 327.483 14.5515 327.264 14.455C327.046 14.3586 326.808 14.3086 326.567 14.3086C326.326 14.3086 326.089 14.3586 325.87 14.455C325.651 14.5515 325.457 14.6923 325.3 14.8676C325.143 15.043 325.027 15.2488 324.961 15.4711C324.895 15.6934 324.879 15.9269 324.915 16.1555Z" fill="#120021"/>
<path d="M256.552 271.09H344.224V61.6909H256.552V271.09Z" fill="url(#paint1_linear_986_226)"/>
<path d="M254.068 64.0049H346.706V58.0703H254.068V64.0049Z" fill="#120021"/>
<path d="M259.535 78.6777H341.287V50.5474H259.535V78.6777Z" fill="#120021"/>
<g opacity="0.74">
<path opacity="0.74" d="M271.949 65.9463H268.191V69.5579H271.949V65.9463Z" fill="#E6E6E6"/>
<path opacity="0.74" d="M278.011 65.9463H274.253V69.5579H278.011V65.9463Z" fill="white"/>
<path opacity="0.74" d="M284.08 65.9463H280.323V69.5579H284.08V65.9463Z" fill="#CCCCCC"/>
<path opacity="0.74" d="M290.142 65.9463H286.385V69.5579H290.142V65.9463Z" fill="#F2F2F2"/>
<path opacity="0.74" d="M296.204 65.9463H292.446V69.5579H296.204V65.9463Z" fill="#B3B3B3"/>
<path opacity="0.74" d="M302.266 65.9463H298.508V69.5579H302.266V65.9463Z" fill="#CCCCCC"/>
<path opacity="0.74" d="M308.334 65.9463H304.577V69.5579H308.334V65.9463Z" fill="#B3B3B3"/>
<path opacity="0.74" d="M314.396 65.9463H310.638V69.5579H314.396V65.9463Z" fill="#B3B3B3"/>
<path opacity="0.74" d="M320.458 65.9463H316.7V69.5579H320.458V65.9463Z" fill="#E6E6E6"/>
<path opacity="0.74" d="M326.517 65.9463H322.76V69.5579H326.517V65.9463Z" fill="#CCCCCC"/>
<path opacity="0.74" d="M332.593 65.9463H328.835V69.5579H332.593V65.9463Z" fill="#E6E6E6"/>
<path opacity="0.74" d="M271.949 71.1729H268.191V74.7844H271.949V71.1729Z" fill="#F2F2F2"/>
<path opacity="0.74" d="M278.011 71.1729H274.253V74.7844H278.011V71.1729Z" fill="#CCCCCC"/>
<path opacity="0.74" d="M284.08 71.1729H280.323V74.7844H284.08V71.1729Z" fill="#F2F2F2"/>
<path opacity="0.74" d="M290.142 71.1729H286.385V74.7844H290.142V71.1729Z" fill="#B3B3B3"/>
<path opacity="0.74" d="M296.204 71.1729H292.446V74.7844H296.204V71.1729Z" fill="#F2F2F2"/>
<path opacity="0.74" d="M302.266 71.1729H298.508V74.7844H302.266V71.1729Z" fill="white"/>
<path opacity="0.74" d="M308.334 71.1729H304.577V74.7844H308.334V71.1729Z" fill="#CCCCCC"/>
<path opacity="0.74" d="M314.396 71.1729H310.638V74.7844H314.396V71.1729Z" fill="#B3B3B3"/>
<path opacity="0.74" d="M320.458 71.1729H316.7V74.7844H320.458V71.1729Z" fill="#F2F2F2"/>
<path opacity="0.74" d="M326.517 71.1729H322.76V74.7844H326.517V71.1729Z" fill="white"/>
<path opacity="0.74" d="M332.593 71.1729H328.835V74.7844H332.593V71.1729Z" fill="white"/>
<path opacity="0.74" d="M271.949 76.4092H268.191V80.0208H271.949V76.4092Z" fill="#CCCCCC"/>
<path opacity="0.74" d="M278.011 76.4092H274.253V80.0208H278.011V76.4092Z" fill="white"/>
<path opacity="0.74" d="M284.08 76.4092H280.323V80.0208H284.08V76.4092Z" fill="#B3B3B3"/>
<path opacity="0.74" d="M290.142 76.4092H286.385V80.0208H290.142V76.4092Z" fill="white"/>
<path opacity="0.74" d="M296.204 76.4092H292.446V80.0208H296.204V76.4092Z" fill="#E6E6E6"/>
<path opacity="0.74" d="M302.266 76.4092H298.508V80.0208H302.266V76.4092Z" fill="white"/>
<path opacity="0.74" d="M308.334 76.4092H304.577V80.0208H308.334V76.4092Z" fill="#E6E6E6"/>
<path opacity="0.74" d="M314.396 76.4092H310.638V80.0208H314.396V76.4092Z" fill="#E6E6E6"/>
<path opacity="0.74" d="M320.458 76.4092H316.7V80.0208H320.458V76.4092Z" fill="white"/>
<path opacity="0.74" d="M326.517 76.4092H322.76V80.0208H326.517V76.4092Z" fill="#CCCCCC"/>
<path opacity="0.74" d="M332.593 76.4092H328.835V80.0208H332.593V76.4092Z" fill="#B3B3B3"/>
<path opacity="0.74" d="M271.949 81.645H268.191V85.2566H271.949V81.645Z" fill="#B3B3B3"/>
<path opacity="0.74" d="M278.011 81.645H274.253V85.2566H278.011V81.645Z" fill="#CCCCCC"/>
<path opacity="0.74" d="M284.08 81.645H280.323V85.2566H284.08V81.645Z" fill="white"/>
<path opacity="0.74" d="M290.142 81.645H286.385V85.2566H290.142V81.645Z" fill="#B3B3B3"/>
<path opacity="0.74" d="M296.204 81.645H292.446V85.2566H296.204V81.645Z" fill="#CCCCCC"/>
<path opacity="0.74" d="M302.266 81.645H298.508V85.2566H302.266V81.645Z" fill="#E6E6E6"/>
<path opacity="0.74" d="M308.334 81.645H304.577V85.2566H308.334V81.645Z" fill="#CCCCCC"/>
<path opacity="0.74" d="M314.396 81.645H310.638V85.2566H314.396V81.645Z" fill="#E6E6E6"/>
<path opacity="0.74" d="M320.458 81.645H316.7V85.2566H320.458V81.645Z" fill="#B3B3B3"/>
<path opacity="0.74" d="M326.517 81.645H322.76V85.2566H326.517V81.645Z" fill="#E6E6E6"/>
<path opacity="0.74" d="M332.593 81.645H328.835V85.2566H332.593V81.645Z" fill="#F2F2F2"/>
<path opacity="0.74" d="M271.949 86.8716H268.191V90.4832H271.949V86.8716Z" fill="#CCCCCC"/>
<path opacity="0.74" d="M278.011 86.8716H274.253V90.4832H278.011V86.8716Z" fill="#CCCCCC"/>
<path opacity="0.74" d="M284.08 86.8716H280.323V90.4832H284.08V86.8716Z" fill="#E6E6E6"/>
<path opacity="0.74" d="M290.142 86.8716H286.385V90.4832H290.142V86.8716Z" fill="#CCCCCC"/>
<path opacity="0.74" d="M296.204 86.8716H292.446V90.4832H296.204V86.8716Z" fill="#E6E6E6"/>
<path opacity="0.74" d="M302.266 86.8716H298.508V90.4832H302.266V86.8716Z" fill="#CCCCCC"/>
<path opacity="0.74" d="M308.334 86.8716H304.577V90.4832H308.334V86.8716Z" fill="white"/>
<path opacity="0.74" d="M314.396 86.8716H310.638V90.4832H314.396V86.8716Z" fill="#B3B3B3"/>
<path opacity="0.74" d="M320.458 86.8716H316.7V90.4832H320.458V86.8716Z" fill="#B3B3B3"/>
<path opacity="0.74" d="M326.517 86.8716H322.76V90.4832H326.517V86.8716Z" fill="#CCCCCC"/>
<path opacity="0.74" d="M332.593 86.8716H328.835V90.4832H332.593V86.8716Z" fill="white"/>
<path opacity="0.74" d="M271.949 92.1079H268.191V95.7195H271.949V92.1079Z" fill="#B3B3B3"/>
<path opacity="0.74" d="M278.011 92.1079H274.253V95.7195H278.011V92.1079Z" fill="#E6E6E6"/>
<path opacity="0.74" d="M284.08 92.1079H280.323V95.7195H284.08V92.1079Z" fill="#CCCCCC"/>
<path opacity="0.74" d="M290.142 92.1079H286.385V95.7195H290.142V92.1079Z" fill="#B3B3B3"/>
<path opacity="0.74" d="M296.204 92.1079H292.446V95.7195H296.204V92.1079Z" fill="#B3B3B3"/>
<path opacity="0.74" d="M302.266 92.1079H298.508V95.7195H302.266V92.1079Z" fill="#CCCCCC"/>
<path opacity="0.74" d="M308.334 92.1079H304.577V95.7195H308.334V92.1079Z" fill="#CCCCCC"/>
<path opacity="0.74" d="M314.396 92.1079H310.638V95.7195H314.396V92.1079Z" fill="white"/>
<path opacity="0.74" d="M320.458 92.1079H316.7V95.7195H320.458V92.1079Z" fill="#F2F2F2"/>
<path opacity="0.74" d="M326.517 92.1079H322.76V95.7195H326.517V92.1079Z" fill="#CCCCCC"/>
<path opacity="0.74" d="M332.593 92.1079H328.835V95.7195H332.593V92.1079Z" fill="#E6E6E6"/>
<path opacity="0.74" d="M271.949 97.3345H268.191V100.946H271.949V97.3345Z" fill="#B3B3B3"/>
<path opacity="0.74" d="M278.011 97.3345H274.253V100.946H278.011V97.3345Z" fill="white"/>
<path opacity="0.74" d="M284.08 97.3345H280.323V100.946H284.08V97.3345Z" fill="#B3B3B3"/>
<path opacity="0.74" d="M290.142 97.3345H286.385V100.946H290.142V97.3345Z" fill="#E6E6E6"/>
<path opacity="0.74" d="M296.204 97.3345H292.446V100.946H296.204V97.3345Z" fill="#E6E6E6"/>
<path opacity="0.74" d="M302.266 97.3345H298.508V100.946H302.266V97.3345Z" fill="#B3B3B3"/>
<path opacity="0.74" d="M308.334 97.3345H304.577V100.946H308.334V97.3345Z" fill="#CCCCCC"/>
<path opacity="0.74" d="M314.396 97.3345H310.638V100.946H314.396V97.3345Z" fill="#CCCCCC"/>
<path opacity="0.74" d="M320.458 97.3345H316.7V100.946H320.458V97.3345Z" fill="#B3B3B3"/>
<path opacity="0.74" d="M326.517 97.3345H322.76V100.946H326.517V97.3345Z" fill="#CCCCCC"/>
<path opacity="0.74" d="M332.593 97.3345H328.835V100.946H332.593V97.3345Z" fill="#B3B3B3"/>
<path opacity="0.74" d="M271.949 102.57H268.191V106.182H271.949V102.57Z" fill="#F2F2F2"/>
<path opacity="0.74" d="M278.011 102.57H274.253V106.182H278.011V102.57Z" fill="#F2F2F2"/>
<path opacity="0.74" d="M284.08 102.57H280.323V106.182H284.08V102.57Z" fill="#E6E6E6"/>
<path opacity="0.74" d="M290.142 102.57H286.385V106.182H290.142V102.57Z" fill="white"/>
<path opacity="0.74" d="M296.204 102.57H292.446V106.182H296.204V102.57Z" fill="#CCCCCC"/>
<path opacity="0.74" d="M302.266 102.57H298.508V106.182H302.266V102.57Z" fill="#F2F2F2"/>
<path opacity="0.74" d="M308.334 102.57H304.577V106.182H308.334V102.57Z" fill="#E6E6E6"/>
<path opacity="0.74" d="M314.396 102.57H310.638V106.182H314.396V102.57Z" fill="#E6E6E6"/>
<path opacity="0.74" d="M320.458 102.57H316.7V106.182H320.458V102.57Z" fill="#B3B3B3"/>
<path opacity="0.74" d="M326.517 102.57H322.76V106.182H326.517V102.57Z" fill="#CCCCCC"/>
<path opacity="0.74" d="M332.593 102.57H328.835V106.182H332.593V102.57Z" fill="#E6E6E6"/>
<path opacity="0.74" d="M271.949 107.807H268.191V111.418H271.949V107.807Z" fill="#E6E6E6"/>
<path opacity="0.74" d="M278.011 107.807H274.253V111.418H278.011V107.807Z" fill="#CCCCCC"/>
<path opacity="0.74" d="M284.08 107.807H280.323V111.418H284.08V107.807Z" fill="white"/>
<path opacity="0.74" d="M290.142 107.807H286.385V111.418H290.142V107.807Z" fill="#F2F2F2"/>
<path opacity="0.74" d="M296.204 107.807H292.446V111.418H296.204V107.807Z" fill="#F2F2F2"/>
<path opacity="0.74" d="M302.266 107.807H298.508V111.418H302.266V107.807Z" fill="#F2F2F2"/>
<path opacity="0.74" d="M308.334 107.807H304.577V111.418H308.334V107.807Z" fill="#CCCCCC"/>
<path opacity="0.74" d="M314.396 107.807H310.638V111.418H314.396V107.807Z" fill="#F2F2F2"/>
<path opacity="0.74" d="M320.458 107.807H316.7V111.418H320.458V107.807Z" fill="#F2F2F2"/>
<path opacity="0.74" d="M326.517 107.807H322.76V111.418H326.517V107.807Z" fill="#F2F2F2"/>
<path opacity="0.74" d="M332.593 107.807H328.835V111.418H332.593V107.807Z" fill="#E6E6E6"/>
<path opacity="0.74" d="M271.949 113.033H268.191V116.645H271.949V113.033Z" fill="#E6E6E6"/>
<path opacity="0.74" d="M278.011 113.033H274.253V116.645H278.011V113.033Z" fill="#CCCCCC"/>
<path opacity="0.74" d="M284.08 113.033H280.323V116.645H284.08V113.033Z" fill="#E6E6E6"/>
<path opacity="0.74" d="M290.142 113.033H286.385V116.645H290.142V113.033Z" fill="#F2F2F2"/>
<path opacity="0.74" d="M296.204 113.033H292.446V116.645H296.204V113.033Z" fill="#CCCCCC"/>
<path opacity="0.74" d="M302.266 113.033H298.508V116.645H302.266V113.033Z" fill="#CCCCCC"/>
<path opacity="0.74" d="M308.334 113.033H304.577V116.645H308.334V113.033Z" fill="white"/>
<path opacity="0.74" d="M314.396 113.033H310.638V116.645H314.396V113.033Z" fill="#E6E6E6"/>
<path opacity="0.74" d="M320.458 113.033H316.7V116.645H320.458V113.033Z" fill="#B3B3B3"/>
<path opacity="0.74" d="M326.517 113.033H322.76V116.645H326.517V113.033Z" fill="#E6E6E6"/>
<path opacity="0.74" d="M332.593 113.033H328.835V116.645H332.593V113.033Z" fill="#CCCCCC"/>
<path opacity="0.74" d="M271.949 118.269H268.191V121.881H271.949V118.269Z" fill="#CCCCCC"/>
<path opacity="0.74" d="M278.011 118.269H274.253V121.881H278.011V118.269Z" fill="#CCCCCC"/>
<path opacity="0.74" d="M284.08 118.269H280.323V121.881H284.08V118.269Z" fill="white"/>
<path opacity="0.74" d="M290.142 118.269H286.385V121.881H290.142V118.269Z" fill="#F2F2F2"/>
<path opacity="0.74" d="M296.204 118.269H292.446V121.881H296.204V118.269Z" fill="#B3B3B3"/>
<path opacity="0.74" d="M302.266 118.269H298.508V121.881H302.266V118.269Z" fill="white"/>
<path opacity="0.74" d="M308.334 118.269H304.577V121.881H308.334V118.269Z" fill="#E6E6E6"/>
<path opacity="0.74" d="M314.396 118.269H310.638V121.881H314.396V118.269Z" fill="#CCCCCC"/>
<path opacity="0.74" d="M320.458 118.269H316.7V121.881H320.458V118.269Z" fill="#CCCCCC"/>
<path opacity="0.74" d="M326.517 118.269H322.76V121.881H326.517V118.269Z" fill="#B3B3B3"/>
<path opacity="0.74" d="M332.593 118.269H328.835V121.881H332.593V118.269Z" fill="#B3B3B3"/>
<path opacity="0.74" d="M271.949 123.504H268.191V127.116H271.949V123.504Z" fill="#CCCCCC"/>
<path opacity="0.74" d="M278.011 123.504H274.253V127.116H278.011V123.504Z" fill="white"/>
<path opacity="0.74" d="M284.08 123.504H280.323V127.116H284.08V123.504Z" fill="#E6E6E6"/>
<path opacity="0.74" d="M290.142 123.504H286.385V127.116H290.142V123.504Z" fill="#B3B3B3"/>
<path opacity="0.74" d="M296.204 123.504H292.446V127.116H296.204V123.504Z" fill="#F2F2F2"/>
<path opacity="0.74" d="M302.266 123.504H298.508V127.116H302.266V123.504Z" fill="white"/>
<path opacity="0.74" d="M308.334 123.504H304.577V127.116H308.334V123.504Z" fill="#CCCCCC"/>
<path opacity="0.74" d="M314.396 123.504H310.638V127.116H314.396V123.504Z" fill="#CCCCCC"/>
<path opacity="0.74" d="M320.458 123.504H316.7V127.116H320.458V123.504Z" fill="#E6E6E6"/>
<path opacity="0.74" d="M326.517 123.504H322.76V127.116H326.517V123.504Z" fill="#CCCCCC"/>
<path opacity="0.74" d="M332.593 123.504H328.835V127.116H332.593V123.504Z" fill="#CCCCCC"/>
<path opacity="0.74" d="M271.949 128.732H268.191V132.343H271.949V128.732Z" fill="#B3B3B3"/>
<path opacity="0.74" d="M278.011 128.732H274.253V132.343H278.011V128.732Z" fill="#E6E6E6"/>
<path opacity="0.74" d="M284.08 128.732H280.323V132.343H284.08V128.732Z" fill="#E6E6E6"/>
<path opacity="0.74" d="M290.142 128.732H286.385V132.343H290.142V128.732Z" fill="#E6E6E6"/>
<path opacity="0.74" d="M296.204 128.732H292.446V132.343H296.204V128.732Z" fill="#CCCCCC"/>
<path opacity="0.74" d="M302.266 128.732H298.508V132.343H302.266V128.732Z" fill="#CCCCCC"/>
<path opacity="0.74" d="M308.334 128.732H304.577V132.343H308.334V128.732Z" fill="#B3B3B3"/>
<path opacity="0.74" d="M314.396 128.732H310.638V132.343H314.396V128.732Z" fill="#CCCCCC"/>
<path opacity="0.74" d="M320.458 128.732H316.7V132.343H320.458V128.732Z" fill="white"/>
<path opacity="0.74" d="M326.517 128.732H322.76V132.343H326.517V128.732Z" fill="white"/>
<path opacity="0.74" d="M332.593 128.732H328.835V132.343H332.593V128.732Z" fill="#CCCCCC"/>
<path opacity="0.74" d="M271.949 133.967H268.191V137.579H271.949V133.967Z" fill="#B3B3B3"/>
<path opacity="0.74" d="M278.011 133.967H274.253V137.579H278.011V133.967Z" fill="#E6E6E6"/>
<path opacity="0.74" d="M284.08 133.967H280.323V137.579H284.08V133.967Z" fill="#E6E6E6"/>
<path opacity="0.74" d="M290.142 133.967H286.385V137.579H290.142V133.967Z" fill="#CCCCCC"/>
<path opacity="0.74" d="M296.204 133.967H292.446V137.579H296.204V133.967Z" fill="#E6E6E6"/>
<path opacity="0.74" d="M302.266 133.967H298.508V137.579H302.266V133.967Z" fill="#B3B3B3"/>
<path opacity="0.74" d="M308.334 133.967H304.577V137.579H308.334V133.967Z" fill="#CCCCCC"/>
<path opacity="0.74" d="M314.396 133.967H310.638V137.579H314.396V133.967Z" fill="#B3B3B3"/>
<path opacity="0.74" d="M320.458 133.967H316.7V137.579H320.458V133.967Z" fill="white"/>
<path opacity="0.74" d="M326.517 133.967H322.76V137.579H326.517V133.967Z" fill="white"/>
<path opacity="0.74" d="M332.593 133.967H328.835V137.579H332.593V133.967Z" fill="#CCCCCC"/>
<path opacity="0.74" d="M271.949 139.194H268.191V142.806H271.949V139.194Z" fill="#E6E6E6"/>
<path opacity="0.74" d="M278.011 139.194H274.253V142.806H278.011V139.194Z" fill="#E6E6E6"/>
<path opacity="0.74" d="M284.08 139.194H280.323V142.806H284.08V139.194Z" fill="#CCCCCC"/>
<path opacity="0.74" d="M290.142 139.194H286.385V142.806H290.142V139.194Z" fill="white"/>
<path opacity="0.74" d="M296.204 139.194H292.446V142.806H296.204V139.194Z" fill="#B3B3B3"/>
<path opacity="0.74" d="M302.266 139.194H298.508V142.806H302.266V139.194Z" fill="white"/>
<path opacity="0.74" d="M308.334 139.194H304.577V142.806H308.334V139.194Z" fill="#CCCCCC"/>
<path opacity="0.74" d="M314.396 139.194H310.638V142.806H314.396V139.194Z" fill="#E6E6E6"/>
<path opacity="0.74" d="M320.458 139.194H316.7V142.806H320.458V139.194Z" fill="#B3B3B3"/>
<path opacity="0.74" d="M326.517 139.194H322.76V142.806H326.517V139.194Z" fill="#CCCCCC"/>
<path opacity="0.74" d="M332.593 139.194H328.835V142.806H332.593V139.194Z" fill="#B3B3B3"/>
<path opacity="0.74" d="M271.949 144.43H268.191V148.042H271.949V144.43Z" fill="#CCCCCC"/>
<path opacity="0.74" d="M278.011 144.43H274.253V148.042H278.011V144.43Z" fill="#B3B3B3"/>
<path opacity="0.74" d="M284.08 144.43H280.323V148.042H284.08V144.43Z" fill="#E6E6E6"/>
<path opacity="0.74" d="M290.142 144.43H286.385V148.042H290.142V144.43Z" fill="#CCCCCC"/>
<path opacity="0.74" d="M296.204 144.43H292.446V148.042H296.204V144.43Z" fill="#E6E6E6"/>
<path opacity="0.74" d="M302.266 144.43H298.508V148.042H302.266V144.43Z" fill="#F2F2F2"/>
<path opacity="0.74" d="M308.334 144.43H304.577V148.042H308.334V144.43Z" fill="#B3B3B3"/>
<path opacity="0.74" d="M314.396 144.43H310.638V148.042H314.396V144.43Z" fill="#CCCCCC"/>
<path opacity="0.74" d="M320.458 144.43H316.7V148.042H320.458V144.43Z" fill="#E6E6E6"/>
<path opacity="0.74" d="M326.517 144.43H322.76V148.042H326.517V144.43Z" fill="#CCCCCC"/>
<path opacity="0.74" d="M332.593 144.43H328.835V148.042H332.593V144.43Z" fill="#E6E6E6"/>
<path opacity="0.74" d="M271.949 149.666H268.191V153.278H271.949V149.666Z" fill="#CCCCCC"/>
<path opacity="0.74" d="M278.011 149.666H274.253V153.278H278.011V149.666Z" fill="#E6E6E6"/>
<path opacity="0.74" d="M284.08 149.666H280.323V153.278H284.08V149.666Z" fill="white"/>
<path opacity="0.74" d="M290.142 149.666H286.385V153.278H290.142V149.666Z" fill="#CCCCCC"/>
<path opacity="0.74" d="M296.204 149.666H292.446V153.278H296.204V149.666Z" fill="#CCCCCC"/>
<path opacity="0.74" d="M302.266 149.666H298.508V153.278H302.266V149.666Z" fill="#E6E6E6"/>
<path opacity="0.74" d="M308.334 149.666H304.577V153.278H308.334V149.666Z" fill="#B3B3B3"/>
<path opacity="0.74" d="M314.396 149.666H310.638V153.278H314.396V149.666Z" fill="#CCCCCC"/>
<path opacity="0.74" d="M320.458 149.666H316.7V153.278H320.458V149.666Z" fill="#B3B3B3"/>
<path opacity="0.74" d="M326.517 149.666H322.76V153.278H326.517V149.666Z" fill="#B3B3B3"/>
<path opacity="0.74" d="M332.593 149.666H328.835V153.278H332.593V149.666Z" fill="#B3B3B3"/>
<path opacity="0.74" d="M271.949 154.893H268.191V158.504H271.949V154.893Z" fill="#B3B3B3"/>
<path opacity="0.74" d="M278.011 154.893H274.253V158.504H278.011V154.893Z" fill="white"/>
<path opacity="0.74" d="M284.08 154.893H280.323V158.504H284.08V154.893Z" fill="#E6E6E6"/>
<path opacity="0.74" d="M290.142 154.893H286.385V158.504H290.142V154.893Z" fill="#B3B3B3"/>
<path opacity="0.74" d="M296.204 154.893H292.446V158.504H296.204V154.893Z" fill="#CCCCCC"/>
<path opacity="0.74" d="M302.266 154.893H298.508V158.504H302.266V154.893Z" fill="#E6E6E6"/>
<path opacity="0.74" d="M308.334 154.893H304.577V158.504H308.334V154.893Z" fill="white"/>
<path opacity="0.74" d="M314.396 154.893H310.638V158.504H314.396V154.893Z" fill="#F2F2F2"/>
<path opacity="0.74" d="M320.458 154.893H316.7V158.504H320.458V154.893Z" fill="#CCCCCC"/>
<path opacity="0.74" d="M326.517 154.893H322.76V158.504H326.517V154.893Z" fill="#CCCCCC"/>
<path opacity="0.74" d="M332.593 154.893H328.835V158.504H332.593V154.893Z" fill="#E6E6E6"/>
<path opacity="0.74" d="M271.949 160.129H268.191V163.741H271.949V160.129Z" fill="#B3B3B3"/>
<path opacity="0.74" d="M278.011 160.129H274.253V163.741H278.011V160.129Z" fill="#F2F2F2"/>
<path opacity="0.74" d="M284.08 160.129H280.323V163.741H284.08V160.129Z" fill="#B3B3B3"/>
<path opacity="0.74" d="M290.142 160.129H286.385V163.741H290.142V160.129Z" fill="#F2F2F2"/>
<path opacity="0.74" d="M296.204 160.129H292.446V163.741H296.204V160.129Z" fill="#E6E6E6"/>
<path opacity="0.74" d="M302.266 160.129H298.508V163.741H302.266V160.129Z" fill="#F2F2F2"/>
<path opacity="0.74" d="M308.334 160.129H304.577V163.741H308.334V160.129Z" fill="#E6E6E6"/>
<path opacity="0.74" d="M314.396 160.129H310.638V163.741H314.396V160.129Z" fill="#F2F2F2"/>
<path opacity="0.74" d="M320.458 160.129H316.7V163.741H320.458V160.129Z" fill="#CCCCCC"/>
<path opacity="0.74" d="M326.517 160.129H322.76V163.741H326.517V160.129Z" fill="#B3B3B3"/>
<path opacity="0.74" d="M332.593 160.129H328.835V163.741H332.593V160.129Z" fill="white"/>
<path opacity="0.74" d="M271.949 165.355H268.191V168.967H271.949V165.355Z" fill="#CCCCCC"/>
<path opacity="0.74" d="M278.011 165.355H274.253V168.967H278.011V165.355Z" fill="#B3B3B3"/>
<path opacity="0.74" d="M284.08 165.355H280.323V168.967H284.08V165.355Z" fill="#CCCCCC"/>
<path opacity="0.74" d="M290.142 165.355H286.385V168.967H290.142V165.355Z" fill="#CCCCCC"/>
<path opacity="0.74" d="M296.204 165.355H292.446V168.967H296.204V165.355Z" fill="#CCCCCC"/>
<path opacity="0.74" d="M302.266 165.355H298.508V168.967H302.266V165.355Z" fill="white"/>
<path opacity="0.74" d="M308.334 165.355H304.577V168.967H308.334V165.355Z" fill="#CCCCCC"/>
<path opacity="0.74" d="M314.396 165.355H310.638V168.967H314.396V165.355Z" fill="#E6E6E6"/>
<path opacity="0.74" d="M320.458 165.355H316.7V168.967H320.458V165.355Z" fill="#CCCCCC"/>
<path opacity="0.74" d="M326.517 165.355H322.76V168.967H326.517V165.355Z" fill="#E6E6E6"/>
<path opacity="0.74" d="M332.593 165.355H328.835V168.967H332.593V165.355Z" fill="#E6E6E6"/>
<path opacity="0.74" d="M271.949 170.591H268.191V174.203H271.949V170.591Z" fill="#CCCCCC"/>
<path opacity="0.74" d="M278.011 170.591H274.253V174.203H278.011V170.591Z" fill="#CCCCCC"/>
<path opacity="0.74" d="M284.08 170.591H280.323V174.203H284.08V170.591Z" fill="#CCCCCC"/>
<path opacity="0.74" d="M290.142 170.591H286.385V174.203H290.142V170.591Z" fill="white"/>
<path opacity="0.74" d="M296.204 170.591H292.446V174.203H296.204V170.591Z" fill="#E6E6E6"/>
<path opacity="0.74" d="M302.266 170.591H298.508V174.203H302.266V170.591Z" fill="#CCCCCC"/>
<path opacity="0.74" d="M308.334 170.591H304.577V174.203H308.334V170.591Z" fill="#E6E6E6"/>
<path opacity="0.74" d="M314.396 170.591H310.638V174.203H314.396V170.591Z" fill="#CCCCCC"/>
<path opacity="0.74" d="M320.458 170.591H316.7V174.203H320.458V170.591Z" fill="#B3B3B3"/>
<path opacity="0.74" d="M326.517 170.591H322.76V174.203H326.517V170.591Z" fill="#B3B3B3"/>
<path opacity="0.74" d="M332.593 170.591H328.835V174.203H332.593V170.591Z" fill="#CCCCCC"/>
<path opacity="0.74" d="M271.949 175.827H268.191V179.439H271.949V175.827Z" fill="#CCCCCC"/>
<path opacity="0.74" d="M278.011 175.827H274.253V179.439H278.011V175.827Z" fill="#E6E6E6"/>
<path opacity="0.74" d="M284.08 175.827H280.323V179.439H284.08V175.827Z" fill="#E6E6E6"/>
<path opacity="0.74" d="M290.142 175.827H286.385V179.439H290.142V175.827Z" fill="#CCCCCC"/>
<path opacity="0.74" d="M296.204 175.827H292.446V179.439H296.204V175.827Z" fill="#E6E6E6"/>
<path opacity="0.74" d="M302.266 175.827H298.508V179.439H302.266V175.827Z" fill="#F2F2F2"/>
<path opacity="0.74" d="M308.334 175.827H304.577V179.439H308.334V175.827Z" fill="#CCCCCC"/>
<path opacity="0.74" d="M314.396 175.827H310.638V179.439H314.396V175.827Z" fill="#CCCCCC"/>
<path opacity="0.74" d="M320.458 175.827H316.7V179.439H320.458V175.827Z" fill="#E6E6E6"/>
<path opacity="0.74" d="M326.517 175.827H322.76V179.439H326.517V175.827Z" fill="#CCCCCC"/>
<path opacity="0.74" d="M332.593 175.827H328.835V179.439H332.593V175.827Z" fill="#CCCCCC"/>
<path opacity="0.74" d="M271.949 181.054H268.191V184.665H271.949V181.054Z" fill="white"/>
<path opacity="0.74" d="M278.011 181.054H274.253V184.665H278.011V181.054Z" fill="#CCCCCC"/>
<path opacity="0.74" d="M284.08 181.054H280.323V184.665H284.08V181.054Z" fill="#E6E6E6"/>
<path opacity="0.74" d="M290.142 181.054H286.385V184.665H290.142V181.054Z" fill="#E6E6E6"/>
<path opacity="0.74" d="M296.204 181.054H292.446V184.665H296.204V181.054Z" fill="#B3B3B3"/>
<path opacity="0.74" d="M302.266 181.054H298.508V184.665H302.266V181.054Z" fill="#B3B3B3"/>
<path opacity="0.74" d="M308.334 181.054H304.577V184.665H308.334V181.054Z" fill="#E6E6E6"/>
<path opacity="0.74" d="M314.396 181.054H310.638V184.665H314.396V181.054Z" fill="#CCCCCC"/>
<path opacity="0.74" d="M320.458 181.054H316.7V184.665H320.458V181.054Z" fill="#B3B3B3"/>
<path opacity="0.74" d="M326.517 181.054H322.76V184.665H326.517V181.054Z" fill="#E6E6E6"/>
<path opacity="0.74" d="M332.593 181.054H328.835V184.665H332.593V181.054Z" fill="#CCCCCC"/>
<path opacity="0.74" d="M271.949 186.29H268.191V189.902H271.949V186.29Z" fill="#CCCCCC"/>
<path opacity="0.74" d="M278.011 186.29H274.253V189.902H278.011V186.29Z" fill="#CCCCCC"/>
<path opacity="0.74" d="M284.08 186.29H280.323V189.902H284.08V186.29Z" fill="#E6E6E6"/>
<path opacity="0.74" d="M290.142 186.29H286.385V189.902H290.142V186.29Z" fill="#E6E6E6"/>
<path opacity="0.74" d="M296.204 186.29H292.446V189.902H296.204V186.29Z" fill="#CCCCCC"/>
<path opacity="0.74" d="M302.266 186.29H298.508V189.902H302.266V186.29Z" fill="#E6E6E6"/>
<path opacity="0.74" d="M308.334 186.29H304.577V189.902H308.334V186.29Z" fill="#E6E6E6"/>
<path opacity="0.74" d="M314.396 186.29H310.638V189.902H314.396V186.29Z" fill="#F2F2F2"/>
<path opacity="0.74" d="M320.458 186.29H316.7V189.902H320.458V186.29Z" fill="#F2F2F2"/>
<path opacity="0.74" d="M326.517 186.29H322.76V189.902H326.517V186.29Z" fill="#B3B3B3"/>
<path opacity="0.74" d="M332.593 186.29H328.835V189.902H332.593V186.29Z" fill="#CCCCCC"/>
<path opacity="0.74" d="M271.949 191.517H268.191V195.128H271.949V191.517Z" fill="#CCCCCC"/>
<path opacity="0.74" d="M278.011 191.517H274.253V195.128H278.011V191.517Z" fill="white"/>
<path opacity="0.74" d="M284.08 191.517H280.323V195.128H284.08V191.517Z" fill="#CCCCCC"/>
<path opacity="0.74" d="M290.142 191.517H286.385V195.128H290.142V191.517Z" fill="#CCCCCC"/>
<path opacity="0.74" d="M296.204 191.517H292.446V195.128H296.204V191.517Z" fill="#B3B3B3"/>
<path opacity="0.74" d="M302.266 191.517H298.508V195.128H302.266V191.517Z" fill="#CCCCCC"/>
<path opacity="0.74" d="M308.334 191.517H304.577V195.128H308.334V191.517Z" fill="#CCCCCC"/>
<path opacity="0.74" d="M314.396 191.517H310.638V195.128H314.396V191.517Z" fill="#B3B3B3"/>
<path opacity="0.74" d="M320.458 191.517H316.7V195.128H320.458V191.517Z" fill="#CCCCCC"/>
<path opacity="0.74" d="M326.517 191.517H322.76V195.128H326.517V191.517Z" fill="#CCCCCC"/>
<path opacity="0.74" d="M332.593 191.517H328.835V195.128H332.593V191.517Z" fill="#E6E6E6"/>
</g>
<path d="M878.588 106.1H820.884V221.789H878.588V106.1Z" fill="url(#paint2_linear_986_226)"/>
<path d="M880.212 104.086H819.221V107.362H880.212V104.086Z" fill="#0D0030"/>
<path d="M876.653 99.9116H822.837V115.447H876.653V99.9116Z" fill="#0D0030"/>
<path d="M837.377 93.5416L835.763 89.4128H833.091V81.999H832.505H831.892V89.4128H826.926V93.5416V98.3509V110.529H848.244V93.5416H837.377Z" fill="#0D0030"/>
<path d="M833.591 80.9552C833.605 80.8106 833.588 80.6647 833.54 80.527C833.492 80.3893 833.415 80.2627 833.313 80.1553C833.211 80.0479 833.087 79.9622 832.949 79.9035C832.811 79.8448 832.661 79.8145 832.51 79.8145C832.359 79.8145 832.21 79.8448 832.072 79.9035C831.933 79.9622 831.809 80.0479 831.708 80.1553C831.606 80.2627 831.529 80.3893 831.481 80.527C831.433 80.6647 831.415 80.8106 831.429 80.9552C831.425 81.0925 831.451 81.2291 831.503 81.3568C831.556 81.4844 831.635 81.6005 831.735 81.6981C831.836 81.7956 831.956 81.8725 832.088 81.9242C832.221 81.9759 832.363 82.0012 832.506 81.9987C832.649 81.9999 832.79 81.9738 832.923 81.9218C833.055 81.8698 833.175 81.7929 833.276 81.6958C833.377 81.5986 833.457 81.4831 833.511 81.356C833.565 81.2288 833.593 81.0926 833.591 80.9552Z" fill="#0D0030"/>
<g opacity="0.56">
<path opacity="0.56" d="M828.709 108.986H825.933V111.654H828.709V108.986Z" fill="#E6E6E6"/>
<path opacity="0.56" d="M833.194 108.986H830.419V111.654H833.194V108.986Z" fill="white"/>
<path opacity="0.56" d="M837.678 108.986H834.902V111.654H837.678V108.986Z" fill="#CCCCCC"/>
<path opacity="0.56" d="M842.163 108.986H839.387V111.654H842.163V108.986Z" fill="#F2F2F2"/>
<path opacity="0.56" d="M846.638 108.986H843.863V111.654H846.638V108.986Z" fill="#B3B3B3"/>
<path opacity="0.56" d="M851.121 108.986H848.345V111.654H851.121V108.986Z" fill="#CCCCCC"/>
<path opacity="0.56" d="M855.607 108.986H852.831V111.654H855.607V108.986Z" fill="#B3B3B3"/>
<path opacity="0.56" d="M860.092 108.986H857.317V111.654H860.092V108.986Z" fill="#B3B3B3"/>
<path opacity="0.56" d="M864.567 108.986H861.791V111.654H864.567V108.986Z" fill="#E6E6E6"/>
<path opacity="0.56" d="M869.05 108.986H866.275V111.654H869.05V108.986Z" fill="#CCCCCC"/>
<path opacity="0.56" d="M873.536 108.986H870.76V111.654H873.536V108.986Z" fill="#E6E6E6"/>
<path opacity="0.56" d="M828.709 112.852H825.933V115.519H828.709V112.852Z" fill="#F2F2F2"/>
<path opacity="0.56" d="M833.194 112.852H830.419V115.519H833.194V112.852Z" fill="#CCCCCC"/>
<path opacity="0.56" d="M837.678 112.852H834.902V115.519H837.678V112.852Z" fill="#F2F2F2"/>
<path opacity="0.56" d="M842.163 112.852H839.387V115.519H842.163V112.852Z" fill="#B3B3B3"/>
<path opacity="0.56" d="M846.638 112.852H843.863V115.519H846.638V112.852Z" fill="#F2F2F2"/>
<path opacity="0.56" d="M851.121 112.852H848.345V115.519H851.121V112.852Z" fill="white"/>
<path opacity="0.56" d="M855.607 112.852H852.831V115.519H855.607V112.852Z" fill="#CCCCCC"/>
<path opacity="0.56" d="M860.092 112.852H857.317V115.519H860.092V112.852Z" fill="#B3B3B3"/>
<path opacity="0.56" d="M864.567 112.852H861.791V115.519H864.567V112.852Z" fill="#F2F2F2"/>
<path opacity="0.56" d="M869.05 112.852H866.275V115.519H869.05V112.852Z" fill="white"/>
<path opacity="0.56" d="M873.536 112.852H870.76V115.519H873.536V112.852Z" fill="white"/>
<path opacity="0.56" d="M828.709 116.726H825.933V119.394H828.709V116.726Z" fill="#CCCCCC"/>
<path opacity="0.56" d="M833.194 116.726H830.419V119.394H833.194V116.726Z" fill="white"/>
<path opacity="0.56" d="M837.678 116.726H834.902V119.394H837.678V116.726Z" fill="#B3B3B3"/>
<path opacity="0.56" d="M842.163 116.726H839.387V119.394H842.163V116.726Z" fill="white"/>
<path opacity="0.56" d="M846.638 116.726H843.863V119.394H846.638V116.726Z" fill="#E6E6E6"/>
<path opacity="0.56" d="M851.121 116.726H848.345V119.394H851.121V116.726Z" fill="white"/>
<path opacity="0.56" d="M855.607 116.726H852.831V119.394H855.607V116.726Z" fill="#E6E6E6"/>
<path opacity="0.56" d="M860.092 116.726H857.317V119.394H860.092V116.726Z" fill="#E6E6E6"/>
<path opacity="0.56" d="M864.567 116.726H861.791V119.394H864.567V116.726Z" fill="white"/>
<path opacity="0.56" d="M869.05 116.726H866.275V119.394H869.05V116.726Z" fill="#CCCCCC"/>
<path opacity="0.56" d="M873.536 116.726H870.76V119.394H873.536V116.726Z" fill="#B3B3B3"/>
<path opacity="0.56" d="M828.709 120.592H825.933V123.26H828.709V120.592Z" fill="#B3B3B3"/>
<path opacity="0.56" d="M833.194 120.592H830.419V123.26H833.194V120.592Z" fill="#CCCCCC"/>
<path opacity="0.56" d="M837.678 120.592H834.902V123.26H837.678V120.592Z" fill="white"/>
<path opacity="0.56" d="M842.163 120.592H839.387V123.26H842.163V120.592Z" fill="#B3B3B3"/>
<path opacity="0.56" d="M846.638 120.592H843.863V123.26H846.638V120.592Z" fill="#CCCCCC"/>
<path opacity="0.56" d="M851.121 120.592H848.345V123.26H851.121V120.592Z" fill="#E6E6E6"/>
<path opacity="0.56" d="M855.607 120.592H852.831V123.26H855.607V120.592Z" fill="#CCCCCC"/>
<path opacity="0.56" d="M860.092 120.592H857.317V123.26H860.092V120.592Z" fill="#E6E6E6"/>
<path opacity="0.56" d="M864.567 120.592H861.791V123.26H864.567V120.592Z" fill="#B3B3B3"/>
<path opacity="0.56" d="M869.05 120.592H866.275V123.26H869.05V120.592Z" fill="#E6E6E6"/>
<path opacity="0.56" d="M873.536 120.592H870.76V123.26H873.536V120.592Z" fill="#F2F2F2"/>
<path opacity="0.56" d="M828.709 124.458H825.933V127.126H828.709V124.458Z" fill="#CCCCCC"/>
<path opacity="0.56" d="M833.194 124.458H830.419V127.126H833.194V124.458Z" fill="#CCCCCC"/>
<path opacity="0.56" d="M837.678 124.458H834.902V127.126H837.678V124.458Z" fill="#E6E6E6"/>
<path opacity="0.56" d="M842.163 124.458H839.387V127.126H842.163V124.458Z" fill="#CCCCCC"/>
<path opacity="0.56" d="M846.638 124.458H843.863V127.126H846.638V124.458Z" fill="#E6E6E6"/>
<path opacity="0.56" d="M851.121 124.458H848.345V127.126H851.121V124.458Z" fill="#CCCCCC"/>
<path opacity="0.56" d="M855.607 124.458H852.831V127.126H855.607V124.458Z" fill="white"/>
<path opacity="0.56" d="M860.092 124.458H857.317V127.126H860.092V124.458Z" fill="#B3B3B3"/>
<path opacity="0.56" d="M864.567 124.458H861.791V127.126H864.567V124.458Z" fill="#B3B3B3"/>
<path opacity="0.56" d="M869.05 124.458H866.275V127.126H869.05V124.458Z" fill="#CCCCCC"/>
<path opacity="0.56" d="M873.536 124.458H870.76V127.126H873.536V124.458Z" fill="white"/>
<path opacity="0.56" d="M828.709 128.323H825.933V130.991H828.709V128.323Z" fill="#B3B3B3"/>
<path opacity="0.56" d="M833.194 128.323H830.419V130.991H833.194V128.323Z" fill="#E6E6E6"/>
<path opacity="0.56" d="M837.678 128.323H834.902V130.991H837.678V128.323Z" fill="#CCCCCC"/>
<path opacity="0.56" d="M842.163 128.323H839.387V130.991H842.163V128.323Z" fill="#B3B3B3"/>
<path opacity="0.56" d="M846.638 128.323H843.863V130.991H846.638V128.323Z" fill="#B3B3B3"/>
<path opacity="0.56" d="M851.121 128.323H848.345V130.991H851.121V128.323Z" fill="#CCCCCC"/>
<path opacity="0.56" d="M855.607 128.323H852.831V130.991H855.607V128.323Z" fill="#CCCCCC"/>
<path opacity="0.56" d="M860.092 128.323H857.317V130.991H860.092V128.323Z" fill="white"/>
<path opacity="0.56" d="M864.567 128.323H861.791V130.991H864.567V128.323Z" fill="#F2F2F2"/>
<path opacity="0.56" d="M869.05 128.323H866.275V130.991H869.05V128.323Z" fill="#CCCCCC"/>
<path opacity="0.56" d="M873.536 128.323H870.76V130.991H873.536V128.323Z" fill="#E6E6E6"/>
<path opacity="0.56" d="M828.709 132.189H825.933V134.857H828.709V132.189Z" fill="#B3B3B3"/>
<path opacity="0.56" d="M833.194 132.189H830.419V134.857H833.194V132.189Z" fill="white"/>
<path opacity="0.56" d="M837.678 132.189H834.902V134.857H837.678V132.189Z" fill="#B3B3B3"/>
<path opacity="0.56" d="M842.163 132.189H839.387V134.857H842.163V132.189Z" fill="#E6E6E6"/>
<path opacity="0.56" d="M846.638 132.189H843.863V134.857H846.638V132.189Z" fill="#E6E6E6"/>
<path opacity="0.56" d="M851.121 132.189H848.345V134.857H851.121V132.189Z" fill="#B3B3B3"/>
<path opacity="0.56" d="M855.607 132.189H852.831V134.857H855.607V132.189Z" fill="#CCCCCC"/>
<path opacity="0.56" d="M860.092 132.189H857.317V134.857H860.092V132.189Z" fill="#CCCCCC"/>
<path opacity="0.56" d="M864.567 132.189H861.791V134.857H864.567V132.189Z" fill="#B3B3B3"/>
<path opacity="0.56" d="M869.05 132.189H866.275V134.857H869.05V132.189Z" fill="#CCCCCC"/>
<path opacity="0.56" d="M873.536 132.189H870.76V134.857H873.536V132.189Z" fill="#B3B3B3"/>
<path opacity="0.56" d="M828.709 136.063H825.933V138.731H828.709V136.063Z" fill="#F2F2F2"/>
<path opacity="0.56" d="M833.194 136.063H830.419V138.731H833.194V136.063Z" fill="#F2F2F2"/>
<path opacity="0.56" d="M837.678 136.063H834.902V138.731H837.678V136.063Z" fill="#E6E6E6"/>
<path opacity="0.56" d="M842.163 136.063H839.387V138.731H842.163V136.063Z" fill="white"/>
<path opacity="0.56" d="M846.638 136.063H843.863V138.731H846.638V136.063Z" fill="#CCCCCC"/>
<path opacity="0.56" d="M851.121 136.063H848.345V138.731H851.121V136.063Z" fill="#F2F2F2"/>
<path opacity="0.56" d="M855.607 136.063H852.831V138.731H855.607V136.063Z" fill="#E6E6E6"/>
<path opacity="0.56" d="M860.092 136.063H857.317V138.731H860.092V136.063Z" fill="#E6E6E6"/>
<path opacity="0.56" d="M864.567 136.063H861.791V138.731H864.567V136.063Z" fill="#B3B3B3"/>
<path opacity="0.56" d="M869.05 136.063H866.275V138.731H869.05V136.063Z" fill="#CCCCCC"/>
<path opacity="0.56" d="M873.536 136.063H870.76V138.731H873.536V136.063Z" fill="#E6E6E6"/>
<path opacity="0.56" d="M828.709 139.929H825.933V142.597H828.709V139.929Z" fill="#E6E6E6"/>
<path opacity="0.56" d="M833.194 139.929H830.419V142.597H833.194V139.929Z" fill="#CCCCCC"/>
<path opacity="0.56" d="M837.678 139.929H834.902V142.597H837.678V139.929Z" fill="white"/>
<path opacity="0.56" d="M842.163 139.929H839.387V142.597H842.163V139.929Z" fill="#F2F2F2"/>
<path opacity="0.56" d="M846.638 139.929H843.863V142.597H846.638V139.929Z" fill="#F2F2F2"/>
<path opacity="0.56" d="M851.121 139.929H848.345V142.597H851.121V139.929Z" fill="#F2F2F2"/>
<path opacity="0.56" d="M855.607 139.929H852.831V142.597H855.607V139.929Z" fill="#CCCCCC"/>
<path opacity="0.56" d="M860.092 139.929H857.317V142.597H860.092V139.929Z" fill="#F2F2F2"/>
<path opacity="0.56" d="M864.567 139.929H861.791V142.597H864.567V139.929Z" fill="#F2F2F2"/>
<path opacity="0.56" d="M869.05 139.929H866.275V142.597H869.05V139.929Z" fill="#F2F2F2"/>
<path opacity="0.56" d="M873.536 139.929H870.76V142.597H873.536V139.929Z" fill="#E6E6E6"/>
<path opacity="0.56" d="M828.709 143.795H825.933V146.463H828.709V143.795Z" fill="#E6E6E6"/>
<path opacity="0.56" d="M833.194 143.795H830.419V146.463H833.194V143.795Z" fill="#CCCCCC"/>
<path opacity="0.56" d="M837.678 143.795H834.902V146.463H837.678V143.795Z" fill="#E6E6E6"/>
<path opacity="0.56" d="M842.163 143.795H839.387V146.463H842.163V143.795Z" fill="#F2F2F2"/>
<path opacity="0.56" d="M846.638 143.795H843.863V146.463H846.638V143.795Z" fill="#CCCCCC"/>
<path opacity="0.56" d="M851.121 143.795H848.345V146.463H851.121V143.795Z" fill="#CCCCCC"/>
<path opacity="0.56" d="M855.607 143.795H852.831V146.463H855.607V143.795Z" fill="white"/>
<path opacity="0.56" d="M860.092 143.795H857.317V146.463H860.092V143.795Z" fill="#E6E6E6"/>
<path opacity="0.56" d="M864.567 143.795H861.791V146.463H864.567V143.795Z" fill="#B3B3B3"/>
<path opacity="0.56" d="M869.05 143.795H866.275V146.463H869.05V143.795Z" fill="#E6E6E6"/>
<path opacity="0.56" d="M873.536 143.795H870.76V146.463H873.536V143.795Z" fill="#CCCCCC"/>
<path opacity="0.56" d="M828.709 147.661H825.933V150.328H828.709V147.661Z" fill="#CCCCCC"/>
<path opacity="0.56" d="M833.194 147.661H830.419V150.328H833.194V147.661Z" fill="#CCCCCC"/>
<path opacity="0.56" d="M837.678 147.661H834.902V150.328H837.678V147.661Z" fill="white"/>
<path opacity="0.56" d="M842.163 147.661H839.387V150.328H842.163V147.661Z" fill="#F2F2F2"/>
<path opacity="0.56" d="M846.638 147.661H843.863V150.328H846.638V147.661Z" fill="#B3B3B3"/>
<path opacity="0.56" d="M851.121 147.661H848.345V150.328H851.121V147.661Z" fill="white"/>
<path opacity="0.56" d="M855.607 147.661H852.831V150.328H855.607V147.661Z" fill="#E6E6E6"/>
<path opacity="0.56" d="M860.092 147.661H857.317V150.328H860.092V147.661Z" fill="#CCCCCC"/>
<path opacity="0.56" d="M864.567 147.661H861.791V150.328H864.567V147.661Z" fill="#CCCCCC"/>
<path opacity="0.56" d="M869.05 147.661H866.275V150.328H869.05V147.661Z" fill="#B3B3B3"/>
<path opacity="0.56" d="M873.536 147.661H870.76V150.328H873.536V147.661Z" fill="#B3B3B3"/>
<path opacity="0.56" d="M828.709 151.526H825.933V154.194H828.709V151.526Z" fill="#CCCCCC"/>
<path opacity="0.56" d="M833.194 151.526H830.419V154.194H833.194V151.526Z" fill="white"/>
<path opacity="0.56" d="M837.678 151.526H834.902V154.194H837.678V151.526Z" fill="#E6E6E6"/>
<path opacity="0.56" d="M842.163 151.526H839.387V154.194H842.163V151.526Z" fill="#B3B3B3"/>
<path opacity="0.56" d="M846.638 151.526H843.863V154.194H846.638V151.526Z" fill="#F2F2F2"/>
<path opacity="0.56" d="M851.121 151.526H848.345V154.194H851.121V151.526Z" fill="white"/>
<path opacity="0.56" d="M855.607 151.526H852.831V154.194H855.607V151.526Z" fill="#CCCCCC"/>
<path opacity="0.56" d="M860.092 151.526H857.317V154.194H860.092V151.526Z" fill="#CCCCCC"/>
<path opacity="0.56" d="M864.567 151.526H861.791V154.194H864.567V151.526Z" fill="#E6E6E6"/>
<path opacity="0.56" d="M869.05 151.526H866.275V154.194H869.05V151.526Z" fill="#CCCCCC"/>
<path opacity="0.56" d="M873.536 151.526H870.76V154.194H873.536V151.526Z" fill="#CCCCCC"/>
<path opacity="0.56" d="M828.709 155.392H825.933V158.059H828.709V155.392Z" fill="#B3B3B3"/>
<path opacity="0.56" d="M833.194 155.392H830.419V158.059H833.194V155.392Z" fill="#E6E6E6"/>
<path opacity="0.56" d="M837.678 155.392H834.902V158.059H837.678V155.392Z" fill="#E6E6E6"/>
<path opacity="0.56" d="M842.163 155.392H839.387V158.059H842.163V155.392Z" fill="#E6E6E6"/>
<path opacity="0.56" d="M846.638 155.392H843.863V158.059H846.638V155.392Z" fill="#CCCCCC"/>
<path opacity="0.56" d="M851.121 155.392H848.345V158.059H851.121V155.392Z" fill="#CCCCCC"/>
<path opacity="0.56" d="M855.607 155.392H852.831V158.059H855.607V155.392Z" fill="#B3B3B3"/>
<path opacity="0.56" d="M860.092 155.392H857.317V158.059H860.092V155.392Z" fill="#CCCCCC"/>
<path opacity="0.56" d="M864.567 155.392H861.791V158.059H864.567V155.392Z" fill="white"/>
<path opacity="0.56" d="M869.05 155.392H866.275V158.059H869.05V155.392Z" fill="white"/>
<path opacity="0.56" d="M873.536 155.392H870.76V158.059H873.536V155.392Z" fill="#CCCCCC"/>
<path opacity="0.56" d="M828.709 159.267H825.933V161.935H828.709V159.267Z" fill="#B3B3B3"/>
<path opacity="0.56" d="M833.194 159.267H830.419V161.935H833.194V159.267Z" fill="#E6E6E6"/>
<path opacity="0.56" d="M837.678 159.267H834.902V161.935H837.678V159.267Z" fill="#E6E6E6"/>
<path opacity="0.56" d="M842.163 159.267H839.387V161.935H842.163V159.267Z" fill="#CCCCCC"/>
<path opacity="0.56" d="M846.638 159.267H843.863V161.935H846.638V159.267Z" fill="#E6E6E6"/>
<path opacity="0.56" d="M851.121 159.267H848.345V161.935H851.121V159.267Z" fill="#B3B3B3"/>
<path opacity="0.56" d="M855.607 159.267H852.831V161.935H855.607V159.267Z" fill="#CCCCCC"/>
<path opacity="0.56" d="M860.092 159.267H857.317V161.935H860.092V159.267Z" fill="#B3B3B3"/>
<path opacity="0.56" d="M864.567 159.267H861.791V161.935H864.567V159.267Z" fill="white"/>
<path opacity="0.56" d="M869.05 159.267H866.275V161.935H869.05V159.267Z" fill="white"/>
<path opacity="0.56" d="M873.536 159.267H870.76V161.935H873.536V159.267Z" fill="#CCCCCC"/>
<path opacity="0.56" d="M828.709 163.132H825.933V165.8H828.709V163.132Z" fill="#E6E6E6"/>
<path opacity="0.56" d="M833.194 163.132H830.419V165.8H833.194V163.132Z" fill="#E6E6E6"/>
<path opacity="0.56" d="M837.678 163.132H834.902V165.8H837.678V163.132Z" fill="#CCCCCC"/>
<path opacity="0.56" d="M842.163 163.132H839.387V165.8H842.163V163.132Z" fill="white"/>
<path opacity="0.56" d="M846.638 163.132H843.863V165.8H846.638V163.132Z" fill="#B3B3B3"/>
<path opacity="0.56" d="M851.121 163.132H848.345V165.8H851.121V163.132Z" fill="white"/>
<path opacity="0.56" d="M855.607 163.132H852.831V165.8H855.607V163.132Z" fill="#CCCCCC"/>
<path opacity="0.56" d="M860.092 163.132H857.317V165.8H860.092V163.132Z" fill="#E6E6E6"/>
<path opacity="0.56" d="M864.567 163.132H861.791V165.8H864.567V163.132Z" fill="#B3B3B3"/>
<path opacity="0.56" d="M869.05 163.132H866.275V165.8H869.05V163.132Z" fill="#CCCCCC"/>
<path opacity="0.56" d="M873.536 163.132H870.76V165.8H873.536V163.132Z" fill="#B3B3B3"/>
<path opacity="0.56" d="M828.709 166.998H825.933V169.666H828.709V166.998Z" fill="#CCCCCC"/>
<path opacity="0.56" d="M833.194 166.998H830.419V169.666H833.194V166.998Z" fill="#B3B3B3"/>
<path opacity="0.56" d="M837.678 166.998H834.902V169.666H837.678V166.998Z" fill="#E6E6E6"/>
<path opacity="0.56" d="M842.163 166.998H839.387V169.666H842.163V166.998Z" fill="#CCCCCC"/>
<path opacity="0.56" d="M846.638 166.998H843.863V169.666H846.638V166.998Z" fill="#E6E6E6"/>
<path opacity="0.56" d="M851.121 166.998H848.345V169.666H851.121V166.998Z" fill="#F2F2F2"/>
<path opacity="0.56" d="M855.607 166.998H852.831V169.666H855.607V166.998Z" fill="#B3B3B3"/>
<path opacity="0.56" d="M860.092 166.998H857.317V169.666H860.092V166.998Z" fill="#CCCCCC"/>
<path opacity="0.56" d="M864.567 166.998H861.791V169.666H864.567V166.998Z" fill="#E6E6E6"/>
<path opacity="0.56" d="M869.05 166.998H866.275V169.666H869.05V166.998Z" fill="#CCCCCC"/>
<path opacity="0.56" d="M873.536 166.998H870.76V169.666H873.536V166.998Z" fill="#E6E6E6"/>
<path opacity="0.56" d="M828.709 170.864H825.933V173.532H828.709V170.864Z" fill="#CCCCCC"/>
<path opacity="0.56" d="M833.194 170.864H830.419V173.532H833.194V170.864Z" fill="#E6E6E6"/>
<path opacity="0.56" d="M837.678 170.864H834.902V173.532H837.678V170.864Z" fill="white"/>
<path opacity="0.56" d="M842.163 170.864H839.387V173.532H842.163V170.864Z" fill="#CCCCCC"/>
<path opacity="0.56" d="M846.638 170.864H843.863V173.532H846.638V170.864Z" fill="#CCCCCC"/>
<path opacity="0.56" d="M851.121 170.864H848.345V173.532H851.121V170.864Z" fill="#E6E6E6"/>
<path opacity="0.56" d="M855.607 170.864H852.831V173.532H855.607V170.864Z" fill="#B3B3B3"/>
<path opacity="0.56" d="M860.092 170.864H857.317V173.532H860.092V170.864Z" fill="#CCCCCC"/>
<path opacity="0.56" d="M864.567 170.864H861.791V173.532H864.567V170.864Z" fill="#B3B3B3"/>
<path opacity="0.56" d="M869.05 170.864H866.275V173.532H869.05V170.864Z" fill="#B3B3B3"/>
<path opacity="0.56" d="M873.536 170.864H870.76V173.532H873.536V170.864Z" fill="#B3B3B3"/>
<path opacity="0.56" d="M828.709 174.729H825.933V177.397H828.709V174.729Z" fill="#B3B3B3"/>
<path opacity="0.56" d="M833.194 174.729H830.419V177.397H833.194V174.729Z" fill="white"/>
<path opacity="0.56" d="M837.678 174.729H834.902V177.397H837.678V174.729Z" fill="#E6E6E6"/>
<path opacity="0.56" d="M842.163 174.729H839.387V177.397H842.163V174.729Z" fill="#B3B3B3"/>
<path opacity="0.56" d="M846.638 174.729H843.863V177.397H846.638V174.729Z" fill="#CCCCCC"/>
<path opacity="0.56" d="M851.121 174.729H848.345V177.397H851.121V174.729Z" fill="#E6E6E6"/>
<path opacity="0.56" d="M855.607 174.729H852.831V177.397H855.607V174.729Z" fill="white"/>
<path opacity="0.56" d="M860.092 174.729H857.317V177.397H860.092V174.729Z" fill="#F2F2F2"/>
<path opacity="0.56" d="M864.567 174.729H861.791V177.397H864.567V174.729Z" fill="#CCCCCC"/>
<path opacity="0.56" d="M869.05 174.729H866.275V177.397H869.05V174.729Z" fill="#CCCCCC"/>
<path opacity="0.56" d="M873.536 174.729H870.76V177.397H873.536V174.729Z" fill="#E6E6E6"/>
<path opacity="0.56" d="M828.709 178.604H825.933V181.272H828.709V178.604Z" fill="#B3B3B3"/>
<path opacity="0.56" d="M833.194 178.604H830.419V181.272H833.194V178.604Z" fill="#F2F2F2"/>
<path opacity="0.56" d="M837.678 178.604H834.902V181.272H837.678V178.604Z" fill="#B3B3B3"/>
<path opacity="0.56" d="M842.163 178.604H839.387V181.272H842.163V178.604Z" fill="#F2F2F2"/>
<path opacity="0.56" d="M846.638 178.604H843.863V181.272H846.638V178.604Z" fill="#E6E6E6"/>
<path opacity="0.56" d="M851.121 178.604H848.345V181.272H851.121V178.604Z" fill="#F2F2F2"/>
<path opacity="0.56" d="M855.607 178.604H852.831V181.272H855.607V178.604Z" fill="#E6E6E6"/>
<path opacity="0.56" d="M860.092 178.604H857.317V181.272H860.092V178.604Z" fill="#F2F2F2"/>
<path opacity="0.56" d="M864.567 178.604H861.791V181.272H864.567V178.604Z" fill="#CCCCCC"/>
<path opacity="0.56" d="M869.05 178.604H866.275V181.272H869.05V178.604Z" fill="#B3B3B3"/>
<path opacity="0.56" d="M873.536 178.604H870.76V181.272H873.536V178.604Z" fill="white"/>
<path opacity="0.56" d="M828.709 182.47H825.933V185.138H828.709V182.47Z" fill="#CCCCCC"/>
<path opacity="0.56" d="M833.194 182.47H830.419V185.138H833.194V182.47Z" fill="#B3B3B3"/>
<path opacity="0.56" d="M837.678 182.47H834.902V185.138H837.678V182.47Z" fill="#CCCCCC"/>
<path opacity="0.56" d="M842.163 182.47H839.387V185.138H842.163V182.47Z" fill="#CCCCCC"/>
<path opacity="0.56" d="M846.638 182.47H843.863V185.138H846.638V182.47Z" fill="#CCCCCC"/>
<path opacity="0.56" d="M851.121 182.47H848.345V185.138H851.121V182.47Z" fill="white"/>
<path opacity="0.56" d="M855.607 182.47H852.831V185.138H855.607V182.47Z" fill="#CCCCCC"/>
<path opacity="0.56" d="M860.092 182.47H857.317V185.138H860.092V182.47Z" fill="#E6E6E6"/>
<path opacity="0.56" d="M864.567 182.47H861.791V185.138H864.567V182.47Z" fill="#CCCCCC"/>
<path opacity="0.56" d="M869.05 182.47H866.275V185.138H869.05V182.47Z" fill="#E6E6E6"/>
<path opacity="0.56" d="M873.536 182.47H870.76V185.138H873.536V182.47Z" fill="#E6E6E6"/>
<path opacity="0.56" d="M828.709 186.335H825.933V189.003H828.709V186.335Z" fill="#CCCCCC"/>
<path opacity="0.56" d="M833.194 186.335H830.419V189.003H833.194V186.335Z" fill="#CCCCCC"/>
<path opacity="0.56" d="M837.678 186.335H834.902V189.003H837.678V186.335Z" fill="#CCCCCC"/>
<path opacity="0.56" d="M842.163 186.335H839.387V189.003H842.163V186.335Z" fill="white"/>
<path opacity="0.56" d="M846.638 186.335H843.863V189.003H846.638V186.335Z" fill="#E6E6E6"/>
<path opacity="0.56" d="M851.121 186.335H848.345V189.003H851.121V186.335Z" fill="#CCCCCC"/>
<path opacity="0.56" d="M855.607 186.335H852.831V189.003H855.607V186.335Z" fill="#E6E6E6"/>
<path opacity="0.56" d="M860.092 186.335H857.317V189.003H860.092V186.335Z" fill="#CCCCCC"/>
<path opacity="0.56" d="M864.567 186.335H861.791V189.003H864.567V186.335Z" fill="#B3B3B3"/>
<path opacity="0.56" d="M869.05 186.335H866.275V189.003H869.05V186.335Z" fill="#B3B3B3"/>
<path opacity="0.56" d="M873.536 186.335H870.76V189.003H873.536V186.335Z" fill="#CCCCCC"/>
<path opacity="0.56" d="M828.709 190.201H825.933V192.869H828.709V190.201Z" fill="#CCCCCC"/>
<path opacity="0.56" d="M833.194 190.201H830.419V192.869H833.194V190.201Z" fill="#E6E6E6"/>
<path opacity="0.56" d="M837.678 190.201H834.902V192.869H837.678V190.201Z" fill="#E6E6E6"/>
<path opacity="0.56" d="M842.163 190.201H839.387V192.869H842.163V190.201Z" fill="#CCCCCC"/>
<path opacity="0.56" d="M846.638 190.201H843.863V192.869H846.638V190.201Z" fill="#E6E6E6"/>
<path opacity="0.56" d="M851.121 190.201H848.345V192.869H851.121V190.201Z" fill="#F2F2F2"/>
<path opacity="0.56" d="M855.607 190.201H852.831V192.869H855.607V190.201Z" fill="#CCCCCC"/>
<path opacity="0.56" d="M860.092 190.201H857.317V192.869H860.092V190.201Z" fill="#CCCCCC"/>
<path opacity="0.56" d="M864.567 190.201H861.791V192.869H864.567V190.201Z" fill="#E6E6E6"/>
<path opacity="0.56" d="M869.05 190.201H866.275V192.869H869.05V190.201Z" fill="#CCCCCC"/>
<path opacity="0.56" d="M873.536 190.201H870.76V192.869H873.536V190.201Z" fill="#CCCCCC"/>
<path opacity="0.56" d="M828.709 194.066H825.933V196.734H828.709V194.066Z" fill="white"/>
<path opacity="0.56" d="M833.194 194.066H830.419V196.734H833.194V194.066Z" fill="#CCCCCC"/>
<path opacity="0.56" d="M837.678 194.066H834.902V196.734H837.678V194.066Z" fill="#E6E6E6"/>
<path opacity="0.56" d="M842.163 194.066H839.387V196.734H842.163V194.066Z" fill="#E6E6E6"/>
<path opacity="0.56" d="M846.638 194.066H843.863V196.734H846.638V194.066Z" fill="#B3B3B3"/>
<path opacity="0.56" d="M851.121 194.066H848.345V196.734H851.121V194.066Z" fill="#B3B3B3"/>
<path opacity="0.56" d="M855.607 194.066H852.831V196.734H855.607V194.066Z" fill="#E6E6E6"/>
<path opacity="0.56" d="M860.092 194.066H857.317V196.734H860.092V194.066Z" fill="#CCCCCC"/>
<path opacity="0.56" d="M864.567 194.066H861.791V196.734H864.567V194.066Z" fill="#B3B3B3"/>
<path opacity="0.56" d="M869.05 194.066H866.275V196.734H869.05V194.066Z" fill="#E6E6E6"/>
<path opacity="0.56" d="M873.536 194.066H870.76V196.734H873.536V194.066Z" fill="#CCCCCC"/>
<path opacity="0.56" d="M828.709 197.941H825.933V200.609H828.709V197.941Z" fill="#CCCCCC"/>
<path opacity="0.56" d="M833.194 197.941H830.419V200.609H833.194V197.941Z" fill="#CCCCCC"/>
<path opacity="0.56" d="M837.678 197.941H834.902V200.609H837.678V197.941Z" fill="#E6E6E6"/>
<path opacity="0.56" d="M842.163 197.941H839.387V200.609H842.163V197.941Z" fill="#E6E6E6"/>
<path opacity="0.56" d="M846.638 197.941H843.863V200.609H846.638V197.941Z" fill="#CCCCCC"/>
<path opacity="0.56" d="M851.121 197.941H848.345V200.609H851.121V197.941Z" fill="#E6E6E6"/>
<path opacity="0.56" d="M855.607 197.941H852.831V200.609H855.607V197.941Z" fill="#E6E6E6"/>
<path opacity="0.56" d="M860.092 197.941H857.317V200.609H860.092V197.941Z" fill="#F2F2F2"/>
<path opacity="0.56" d="M864.567 197.941H861.791V200.609H864.567V197.941Z" fill="#F2F2F2"/>
<path opacity="0.56" d="M869.05 197.941H866.275V200.609H869.05V197.941Z" fill="#B3B3B3"/>
<path opacity="0.56" d="M873.536 197.941H870.76V200.609H873.536V197.941Z" fill="#CCCCCC"/>
<path opacity="0.56" d="M828.709 201.807H825.933V204.475H828.709V201.807Z" fill="#CCCCCC"/>
<path opacity="0.56" d="M833.194 201.807H830.419V204.475H833.194V201.807Z" fill="white"/>
<path opacity="0.56" d="M837.678 201.807H834.902V204.475H837.678V201.807Z" fill="#CCCCCC"/>
<path opacity="0.56" d="M842.163 201.807H839.387V204.475H842.163V201.807Z" fill="#CCCCCC"/>
<path opacity="0.56" d="M846.638 201.807H843.863V204.475H846.638V201.807Z" fill="#B3B3B3"/>
<path opacity="0.56" d="M851.121 201.807H848.345V204.475H851.121V201.807Z" fill="#CCCCCC"/>
<path opacity="0.56" d="M855.607 201.807H852.831V204.475H855.607V201.807Z" fill="#CCCCCC"/>
<path opacity="0.56" d="M860.092 201.807H857.317V204.475H860.092V201.807Z" fill="#B3B3B3"/>
<path opacity="0.56" d="M864.567 201.807H861.791V204.475H864.567V201.807Z" fill="#CCCCCC"/>
<path opacity="0.56" d="M869.05 201.807H866.275V204.475H869.05V201.807Z" fill="#CCCCCC"/>
<path opacity="0.56" d="M873.536 201.807H870.76V204.475H873.536V201.807Z" fill="#E6E6E6"/>
</g>
<path d="M722.552 142.779V79.2585H711.487V62.2351H707.55V37.2988H685.741V18.9506H683.853V37.2988H679.557V14.3408H677.669V37.2988H663.884V79.2675H656.756V142.788H650.667V258.503H726.886V142.779H722.552Z" fill="#0D0030"/>
<path d="M672.77 69.1499H671.76V249.193H672.77V69.1499Z" fill="#C7DBD9"/>
<path d="M683.428 69.1499H682.418V249.193H683.428V69.1499Z" fill="#C7DBD9"/>
<path d="M694.051 69.1499H693.003V249.193H694.013L694.051 69.1499Z" fill="#C7DBD9"/>
<path d="M699.365 69.1499H698.345V249.193H699.365V69.1499Z" fill="#C7DBD9"/>
<path d="M704.669 69.1499H703.659V249.193H704.669V69.1499Z" fill="#C7DBD9"/>
<path d="M688.743 69.1499H687.723V249.193H688.743V69.1499Z" fill="#C7DBD9"/>
<path d="M678.122 69.1499H677.103V249.193H678.122V69.1499Z" fill="#C7DBD9"/>
<path d="M55.6607 83.6227H48.1926V74.0312H49.1934V72.4885H42.3202V66.9895H42.9244V65.7917H39.9599V60.5286H37.1558H36.7026V41.8809H36.4005H36.004H35.6452V60.5286H34.2951V50.1203H33.993H33.6437H33.2377V60.5286H29.9804V65.7917H26.5722V66.9895H27.6296V72.4885H20.8035V74.0312H21.7571V83.6227H14.2891V85.2107H15.337V234.311H54.6033V85.2107H55.6607V83.6227Z" fill="#090223"/>
<path d="M36.8351 104.739H35.2773V107.969H36.8351V104.739Z" fill="#C7DBD9"/>
<path d="M42.3667 104.739H40.8184V107.969H42.3667V104.739Z" fill="#C7DBD9"/>
<path d="M48.8913 104.739H47.3335V107.969H48.8913V104.739Z" fill="#C7DBD9"/>
<path d="M24.5622 104.739H23.0044V107.969H24.5622V104.739Z" fill="#C7DBD9"/>
<path d="M30.0832 104.739H28.5254V107.969H30.0832V104.739Z" fill="#C7DBD9"/>
<path d="M36.8351 110.329H35.2773V113.559H36.8351V110.329Z" fill="#C7DBD9"/>
<path d="M42.3667 110.329H40.8184V113.559H42.3667V110.329Z" fill="#C7DBD9"/>
<path d="M48.8913 110.329H47.3335V113.559H48.8913V110.329Z" fill="#C7DBD9"/>
<path d="M24.5622 110.329H23.0044V113.559H24.5622V110.329Z" fill="#C7DBD9"/>
<path d="M30.0832 110.329H28.5254V113.559H30.0832V110.329Z" fill="#C7DBD9"/>
<path d="M36.8351 115.918H35.2773V119.149H36.8351V115.918Z" fill="#C7DBD9"/>
<path d="M42.3667 115.918H40.8184V119.149H42.3667V115.918Z" fill="#C7DBD9"/>
<path d="M48.8913 115.918H47.3335V119.149H48.8913V115.918Z" fill="#C7DBD9"/>
<path d="M24.5622 115.918H23.0044V119.149H24.5622V115.918Z" fill="#C7DBD9"/>
<path d="M30.0832 115.918H28.5254V119.149H30.0832V115.918Z" fill="#C7DBD9"/>
<path d="M36.7023 121.517H35.1445V124.738H36.7023V121.517Z" fill="#C7DBD9"/>
<path d="M42.2736 121.517H40.7158V124.738H42.2736V121.517Z" fill="#C7DBD9"/>
<path d="M48.7393 121.517H47.2192V124.738H48.777L48.7393 121.517Z" fill="#C7DBD9"/>
<path d="M24.4191 121.517H22.8613V124.738H24.4191V121.517Z" fill="#C7DBD9"/>
<path d="M29.934 121.517H28.3384V124.738H29.8962L29.934 121.517Z" fill="#C7DBD9"/>
<path d="M36.7023 127.107H35.1445V130.337H36.7023V127.107Z" fill="#C7DBD9"/>
<path d="M42.2736 127.107H40.7158V130.337H42.2736V127.107Z" fill="#C7DBD9"/>
<path d="M48.7393 127.107H47.2192V130.337H48.777L48.7393 127.107Z" fill="#C7DBD9"/>
<path d="M24.4191 127.107H22.8613V130.337H24.4191V127.107Z" fill="#C7DBD9"/>
<path d="M29.934 127.107H28.3384V130.337H29.8962L29.934 127.107Z" fill="#C7DBD9"/>
<path d="M36.7023 132.697H35.1445V135.936H36.7023V132.697Z" fill="#C7DBD9"/>
<path d="M42.2736 132.697H40.7158V135.936H42.2736V132.697Z" fill="#C7DBD9"/>
<path d="M48.7393 132.697H47.2192V135.936H48.777L48.7393 132.697Z" fill="#C7DBD9"/>
<path d="M29.934 132.697H28.3384V135.936H29.8962L29.934 132.697Z" fill="#C7DBD9"/>
<path d="M24.4191 132.697H22.8613V135.936H24.4191V132.697Z" fill="#C7DBD9"/>
<path d="M608.634 155.773V117.879H590.695V107.697H584.294V92.7338H548.804V81.8446H545.717V92.7338H538.73V79.0225H535.568V92.7338H513.192V117.879H501.626V155.773H491.722V224.928H615.63V155.773H608.634Z" fill="#00000F"/>
<path d="M519.026 125.401H517.138V134.258H519.026V125.401Z" fill="#C7DBD9"/>
<path d="M525.587 125.401H523.699V134.258H525.587V125.401Z" fill="#C7DBD9"/>
<path d="M532.075 125.401H530.186V134.258H532.075V125.401Z" fill="#C7DBD9"/>
<path d="M538.636 125.401H536.748V134.258H538.636V125.401Z" fill="#C7DBD9"/>
<path d="M545.112 125.401H543.224V134.258H545.112V125.401Z" fill="#C7DBD9"/>
<path d="M551.676 125.401H549.788V134.258H551.676V125.401Z" fill="#C7DBD9"/>
<path d="M558.151 125.401H556.262V134.258H558.151V125.401Z" fill="#C7DBD9"/>
<path d="M564.712 125.401H562.824V134.258H564.712V125.401Z" fill="#C7DBD9"/>
<path d="M571.208 125.401H569.32V134.258H571.208V125.401Z" fill="#C7DBD9"/>
<path d="M577.762 125.401H575.874V134.258H577.762V125.401Z" fill="#C7DBD9"/>
<path d="M584.238 125.401H582.349V134.258H584.238V125.401Z" fill="#C7DBD9"/>
<path d="M519.026 137.751H517.138V146.608H519.026V137.751Z" fill="#C7DBD9"/>
<path d="M525.587 137.751H523.699V146.608H525.587V137.751Z" fill="#C7DBD9"/>
<path d="M532.075 137.751H530.186V146.608H532.075V137.751Z" fill="#C7DBD9"/>
<path d="M538.636 137.751H536.748V146.608H538.636V137.751Z" fill="#C7DBD9"/>
<path d="M545.112 137.751H543.224V146.608H545.112V137.751Z" fill="#C7DBD9"/>
<path d="M551.676 137.751H549.788V146.608H551.676V137.751Z" fill="#C7DBD9"/>
<path d="M558.151 137.751H556.262V146.608H558.151V137.751Z" fill="#C7DBD9"/>
<path d="M564.712 137.751H562.824V146.608H564.712V137.751Z" fill="#C7DBD9"/>
<path d="M571.208 137.751H569.32V146.608H571.208V137.751Z" fill="#C7DBD9"/>
<path d="M577.762 137.751H575.874V146.608H577.762V137.751Z" fill="#C7DBD9"/>
<path d="M584.238 137.751H582.349V146.608H584.238V137.751Z" fill="#C7DBD9"/>
<path d="M519.026 150.129H517.138V158.994H519.026V150.129Z" fill="#C7DBD9"/>
<path d="M525.587 150.129H523.699V158.994H525.587V150.129Z" fill="#C7DBD9"/>
<path d="M532.075 150.129H530.186V158.994H532.075V150.129Z" fill="#C7DBD9"/>
<path d="M538.636 150.129H536.748V158.994H538.636V150.129Z" fill="#C7DBD9"/>
<path d="M545.112 150.129H543.224V158.994H545.112V150.129Z" fill="#C7DBD9"/>
<path d="M551.676 150.129H549.788V158.994H551.676V150.129Z" fill="#C7DBD9"/>
<path d="M558.151 150.129H556.262V158.994H558.151V150.129Z" fill="#C7DBD9"/>
<path d="M564.712 150.129H562.824V158.994H564.712V150.129Z" fill="#C7DBD9"/>
<path d="M571.208 150.129H569.32V158.994H571.208V150.129Z" fill="#C7DBD9"/>
<path d="M577.762 150.129H575.874V158.994H577.762V150.129Z" fill="#C7DBD9"/>
<path d="M584.238 150.129H582.349V158.994H584.238V150.129Z" fill="#C7DBD9"/>
<path d="M538.636 162.497H536.748V171.326H538.636V162.497Z" fill="#C7DBD9"/>
<path d="M545.112 162.497H543.224V171.326H545.112V162.497Z" fill="#C7DBD9"/>
<path d="M551.676 162.497H549.788V171.326H551.676V162.497Z" fill="#C7DBD9"/>
<path d="M558.151 162.497H556.262V171.326H558.151V162.497Z" fill="#C7DBD9"/>
<path d="M564.712 162.497H562.824V171.326H564.712V162.497Z" fill="#C7DBD9"/>
<path d="M571.208 162.497H569.32V171.326H571.208V162.497Z" fill="#C7DBD9"/>
<path d="M577.762 162.497H575.874V171.326H577.762V162.497Z" fill="#C7DBD9"/>
<path d="M584.238 162.497H582.349V171.326H584.238V162.497Z" fill="#C7DBD9"/>
<path d="M545.112 175.555H543.224V184.411H545.112V175.555Z" fill="#C7DBD9"/>
<path d="M551.676 175.555H549.788V184.411H551.676V175.555Z" fill="#C7DBD9"/>
<path d="M558.151 175.555H556.262V184.411H558.151V175.555Z" fill="#C7DBD9"/>
<path d="M564.712 175.555H562.824V184.411H564.712V175.555Z" fill="#C7DBD9"/>
<path d="M571.208 175.555H569.32V184.411H571.208V175.555Z" fill="#C7DBD9"/>
<path d="M577.762 175.555H575.874V184.411H577.762V175.555Z" fill="#C7DBD9"/>
<path d="M584.238 175.555H582.349V184.411H584.238V175.555Z" fill="#C7DBD9"/>
<path d="M203.717 147.433V100.546H183.995V87.9056H176.961V69.3667H138.063V55.8551H134.683V69.3667H127.007V52.3887H123.542V69.3667H98.9949V100.546H86.2775V147.478H75.4106V233.122H211.365V147.433H203.717Z" fill="url(#paint3_linear_986_226)"/>
<path d="M141.906 112.17H137.705V119.72H141.906V112.17Z" fill="#C7DBD9"/>
<path d="M156.643 112.17H152.432V119.72H156.643V112.17Z" fill="#C7DBD9"/>
<path d="M173.931 112.17H169.72V119.72H173.931V112.17Z" fill="#C7DBD9"/>
<path d="M109.135 112.17H104.925V119.72H109.135V112.17Z" fill="#C7DBD9"/>
<path d="M123.874 112.17H119.663V119.72H123.874V112.17Z" fill="#C7DBD9"/>
<path d="M141.906 125.301H137.705V132.851H141.906V125.301Z" fill="#C7DBD9"/>
<path d="M156.643 125.301H152.432V132.851H156.643V125.301Z" fill="#C7DBD9"/>
<path d="M173.931 125.301H169.72V132.851H173.931V125.301Z" fill="#C7DBD9"/>
<path d="M109.135 125.301H104.925V132.851H109.135V125.301Z" fill="#C7DBD9"/>
<path d="M123.874 125.301H119.663V132.851H123.874V125.301Z" fill="#C7DBD9"/>
<path d="M141.906 138.368H137.705V145.918H141.906V138.368Z" fill="#C7DBD9"/>
<path d="M156.643 138.368H152.432V145.918H156.643V138.368Z" fill="#C7DBD9"/>
<path d="M173.931 138.368H169.72V145.918H173.931V138.368Z" fill="#C7DBD9"/>
<path d="M109.135 138.368H104.925V145.918H109.135V138.368Z" fill="#C7DBD9"/>
<path d="M123.874 138.368H119.663V145.918H123.874V138.368Z" fill="#C7DBD9"/>
<path d="M141.536 151.499H137.325V159.048H141.536V151.499Z" fill="#C7DBD9"/>
<path d="M156.264 151.499H152.016V159.048H156.227L156.264 151.499Z" fill="#C7DBD9"/>
<path d="M173.553 151.499H169.342V159.048H173.553V151.499Z" fill="#C7DBD9"/>
<path d="M108.767 151.499H104.556V159.048H108.767V151.499Z" fill="#C7DBD9"/>
<path d="M123.495 151.499H119.284V159.048H123.495V151.499Z" fill="#C7DBD9"/>
<path d="M141.536 164.565H137.325V172.115H141.536V164.565Z" fill="#C7DBD9"/>
<path d="M156.264 164.565H152.016V172.115H156.227L156.264 164.565Z" fill="#C7DBD9"/>
<path d="M173.553 164.565H169.342V172.115H173.553V164.565Z" fill="#C7DBD9"/>
<path d="M108.767 164.565H104.556V172.115H108.767V164.565Z" fill="#C7DBD9"/>
<path d="M123.495 164.565H119.284V172.115H123.495V164.565Z" fill="#C7DBD9"/>
<path d="M141.536 177.678H137.325V185.228H141.536V177.678Z" fill="#C7DBD9"/>
<path d="M156.264 177.678H152.016V185.228H156.227L156.264 177.678Z" fill="#C7DBD9"/>
<path d="M173.553 177.678H169.342V185.228H173.553V177.678Z" fill="#C7DBD9"/>
<path d="M108.767 177.678H104.556V185.228H108.767V177.678Z" fill="#C7DBD9"/>
<path d="M123.495 177.678H119.284V185.228H123.495V177.678Z" fill="#C7DBD9"/>
<path d="M1103.9 65.2085H1045.86V218.18H1103.9V65.2085Z" fill="#00005C"/>
<path d="M1090.19 46.5342H1088.21V67.6017H1090.19V46.5342Z" fill="#00005C"/>
<path d="M1084.01 53.9102H1082.04V74.9778H1084.01V53.9102Z" fill="#00005C"/>
<path d="M1055.13 76.4922V236.869" stroke="#C7DBD9" stroke-width="2.88" stroke-miterlimit="10"/>
<path d="M1062.38 76.4922V236.869" stroke="#C7DBD9" stroke-width="2.88" stroke-miterlimit="10"/>
<path d="M1069.53 76.4922V236.869" stroke="#C7DBD9" stroke-width="2.88" stroke-miterlimit="10"/>
<path d="M1076.77 76.4922V236.869" stroke="#C7DBD9" stroke-width="2.88" stroke-miterlimit="10"/>
<path d="M1084.01 76.4922V236.869" stroke="#C7DBD9" stroke-width="2.88" stroke-miterlimit="10"/>
</g>
<defs>
<linearGradient id="paint0_linear_986_226" x1="50237" y1="22925.4" x2="50237" y2="49267.5" gradientUnits="userSpaceOnUse">
<stop stop-color="#4F044A"/>
<stop offset="1" stop-color="#0D0030"/>
</linearGradient>
<linearGradient id="paint1_linear_986_226" x1="300.388" y1="271.09" x2="300.388" y2="61.6909" gradientUnits="userSpaceOnUse">
<stop stop-color="#3B003B"/>
<stop offset="1" stop-color="#120021"/>
</linearGradient>
<linearGradient id="paint2_linear_986_226" x1="849.736" y1="221.789" x2="849.736" y2="106.1" gradientUnits="userSpaceOnUse">
<stop stop-color="#5C0C4F"/>
<stop offset="1" stop-color="#0D0030"/>
</linearGradient>
<linearGradient id="paint3_linear_986_226" x1="143.407" y1="233.076" x2="143.407" y2="52.3887" gradientUnits="userSpaceOnUse">
<stop stop-color="#10002A"/>
<stop offset="1" stop-color="#2E053D"/>
</linearGradient>
</defs>
</svg>
