<svg width="767" height="312" viewBox="0 0 767 312" fill="none" xmlns="http://www.w3.org/2000/svg">
<mask id="mask0_1526_8760" style="mask-type:alpha" maskUnits="userSpaceOnUse" x="0" y="0" width="767" height="312">
<rect width="766.259" height="311.47" fill="#C4C4C4"/>
</mask>
<g mask="url(#mask0_1526_8760)">
<path d="M345.289 299.94H321.248V305.963H296.603V300.839H293.537V299.147H295.392V298.969H287.41V298.45H286.545V298.969H284V296.258H283.355V298.969H280.029V299.147H281.969V300.839H265.701V304.742H249.862L241.595 309.717H224.956V293.446H202.986V292.85H204.237V292.653H187.578V292.85H188.918V293.446V294.393V305.54H178.516V301.31H182.227V300.935H156.156V298.397H151.149V297.878H140.057V298.397H131.035V307.482H101.383V300.738H76.4374V306.064H54.7725V309.472H39.1489V305.189H18.6042V308.847H0V311.433H18.6042H24.8607H35.133H39.1489H83.6891V311.409H87.615H101.383V311.433H140.057H151.149H156.156H175.58H188.918H206.267H224.956V311.409H265.701V311.433H290.991H296.603H328.41V311.409H381.932V309.717H345.289V299.94Z" fill="#000040"/>
<path d="M740.954 308.972L735.683 303.204H724.89V298.397H726.231V297.974H721.009V296.133H720.359V297.974H716.728V296.455H716.083V297.974H694.288V298.397H695.789V308.097H670.883V303.771H656.7V293.1H657.995V292.576H655.189V291.908H651.934V290.899V290.235H647.983V289.034H647.713C648.098 289.034 648.393 288.952 648.393 288.865C648.393 288.779 648.008 288.692 647.528 288.692C647.048 288.692 646.668 288.793 646.668 288.865C646.668 288.938 646.963 289.014 647.348 289.034H647.033V290.235H644.942L643.647 290.899H635.145V291.908H612.64V292.576H609.794V293.1H611.089V300.065H592.295V306.876L571.475 305.362V298.772H568.9H574.816V298.291H568.9V296.994H543.564V298.291H535.322V296.941H531.046V298.253H526.815V296.941H522.154V298.253H512.317V298.734H543.564H513.807V307.948H504.305V307.847H502.615V305.237H504.3V305.035H502.615V302.401H504.3V302.18H502.615V299.57H504.3V299.368H502.615V296.734H504.3V296.532H502.615V293.922H504.3V293.72H502.615V291.009H505.55V290.812H507.051V290.24H479.109V289.591H480.015V289.418H464.756V289.591H465.666V290.24H458.715V290.812H460.215V291.009H463.151V293.72H461.425V293.922H463.151V296.532H461.425V296.734H463.151V299.368H461.425V299.57H463.151V302.18H461.425V302.382H463.151V305.016H461.425V305.218H463.151V307.828H461.425V308.025H463.151V310.169H453.604V301.93H415.21V307.948H403.122V311.457H453.604V311.428H463.141V311.457H615.585H650.458H766.26V308.991L740.954 308.972Z" fill="#000040"/>
<path d="M199.966 296.893H198.365V299.378H199.966V296.893Z" fill="#C7DBD9"/>
<path d="M203.937 296.893H202.337V299.378H203.937V296.893Z" fill="#C7DBD9"/>
<path d="M207.907 296.893H206.312V299.378H207.907V296.893Z" fill="#C7DBD9"/>
<path d="M211.879 296.893H210.278V299.378H211.879V296.893Z" fill="#C7DBD9"/>
<path d="M199.966 301.012H198.365V303.497H199.966V301.012Z" fill="#C7DBD9"/>
<path d="M203.937 301.012H202.337V303.497H203.937V301.012Z" fill="#C7DBD9"/>
<path d="M207.908 301.012H206.312V303.497H207.908V301.012Z" fill="#C7DBD9"/>
<path d="M211.879 301.012H210.278V303.497H211.879V301.012Z" fill="#C7DBD9"/>
<path d="M199.966 305.141H198.365V307.631H199.966V305.141Z" fill="#C7DBD9"/>
<path d="M203.937 305.141H202.337V307.631H203.937V305.141Z" fill="#C7DBD9"/>
<path d="M216.409 296.893H214.813V299.378H216.409V296.893Z" fill="#C7DBD9"/>
<path d="M474.186 294.735H472.32V297.59H474.186V294.735Z" fill="#C7DBD9"/>
<path d="M478.732 294.735H476.866V297.59H478.732V294.735Z" fill="#C7DBD9"/>
<path d="M483.338 294.735H481.473V297.59H483.338V294.735Z" fill="#C7DBD9"/>
<path d="M487.878 294.735H486.013V297.59H487.878V294.735Z" fill="#C7DBD9"/>
<path d="M474.186 299.474H472.32V302.329H474.186V299.474Z" fill="#C7DBD9"/>
<path d="M478.732 299.474H476.866V302.329H478.732V299.474Z" fill="#C7DBD9"/>
<path d="M483.338 299.474H481.473V302.329H483.338V299.474Z" fill="#C7DBD9"/>
<path d="M487.878 299.474H486.013V302.329H487.878V299.474Z" fill="#C7DBD9"/>
<path d="M474.186 304.242H472.32V307.097H474.186V304.242Z" fill="#C7DBD9"/>
<path d="M478.732 304.242H476.866V307.097H478.732V304.242Z" fill="#C7DBD9"/>
<path d="M493.07 294.735H491.205V297.59H493.07V294.735Z" fill="#C7DBD9"/>
</g>
</svg>
