<svg width="1447" height="43" viewBox="0 0 1447 43" fill="none" xmlns="http://www.w3.org/2000/svg">
<path d="M652.282 21.2337H606.897V32.6038H560.371V22.9306H554.583V19.7365H558.086V19.4007H543.018V18.4207H541.385V19.4007H536.579V14.2828H535.361V19.4007H529.083V19.7365H532.746V22.9306H502.033V30.299H472.133L456.526 39.6909H425.115V8.97434H383.64V7.84913H386V7.47705H354.551V7.84913H357.082V8.97434V10.7619V31.8053H337.444V23.8199H344.449V23.1121H295.232V18.3209H285.781V17.3408H264.841V18.3209H247.809V35.4714H191.831V22.7401H144.738V32.7944H103.839V39.2281H74.3442V31.1429H35.5595V38.0484H0.437988V42.9304H35.5595H47.3705H66.7629H74.3442H158.428V42.8851H165.839H191.831V42.9304H264.841H285.781H295.232H331.902H357.082H389.833H425.115V42.8851H502.033V42.9304H549.778H560.371H620.417V42.8851H721.458V39.6909H652.282V21.2337Z" fill="#000040"/>
<path d="M1399.23 38.2845L1389.28 27.3954H1368.9V18.321H1371.43V17.5225H1361.58V14.047H1360.35V17.5225H1353.49V14.655H1352.28V17.5225H1311.13V18.321H1313.96V36.633H1266.95V28.4661H1240.17V8.32113H1242.62V7.33206H1237.32V6.07072H1231.17V4.16514V2.91288H1223.71V0.644296H1223.2C1223.93 0.644296 1224.49 0.49 1224.49 0.326662C1224.49 0.163324 1223.76 0 1222.85 0C1221.95 0 1221.23 0.190547 1221.23 0.326662C1221.23 0.462777 1221.79 0.607999 1222.51 0.644296H1221.92V2.91288H1217.97L1215.53 4.16514H1199.48V6.07072H1156.99V7.33206H1151.62V8.32113H1154.07V21.4698H1118.59V34.3282L1079.28 31.4697V19.0288H1074.42H1085.59V18.1214H1074.42V15.6714H1026.59V18.1214H1011.03V15.5715H1002.96V18.0488H994.971V15.5715H986.172V18.0488H967.601V18.9563H1026.59H970.414V36.3517H952.476V36.1611H949.285V31.2338H952.467V30.8527H949.285V25.88H952.467V25.4625H949.285V20.5352H952.467V20.1541H949.285V15.1813H952.467V14.8002H949.285V9.87286H952.467V9.49176H949.285V4.37383H954.827V4.00175H957.659V2.9219H904.911V1.69689H906.62V1.37023H877.815V1.69689H879.533V2.9219H866.409V4.00175H869.242V4.37383H874.784V9.49176H871.527V9.87286H874.784V14.8002H871.527V15.1813H874.784V20.1541H871.527V20.5352H874.784V25.4625H871.527V25.8436H874.784V30.8164H871.527V31.1975H874.784V36.1249H871.527V36.4969H874.784V40.544H856.761V24.9907H784.28V36.3517H761.46V42.976H856.761V42.9215H874.765V42.976H1162.55H1228.39H1447V38.3208L1399.23 38.2845Z" fill="#000040"/>
<path d="M377.938 15.481H374.917V20.1724H377.938V15.481Z" fill="#C7DBD9"/>
<path d="M385.436 15.481H382.414V20.1724H385.436V15.481Z" fill="#C7DBD9"/>
<path d="M392.931 15.481H389.92V20.1724H392.931V15.481Z" fill="#C7DBD9"/>
<path d="M400.428 15.481H397.407V20.1724H400.428V15.481Z" fill="#C7DBD9"/>
<path d="M377.938 23.2578H374.917V27.9492H377.938V23.2578Z" fill="#C7DBD9"/>
<path d="M385.436 23.2578H382.414V27.9492H385.436V23.2578Z" fill="#C7DBD9"/>
<path d="M392.931 23.2578H389.92V27.9492H392.931V23.2578Z" fill="#C7DBD9"/>
<path d="M400.428 23.2578H397.407V27.9492H400.428V23.2578Z" fill="#C7DBD9"/>
<path d="M377.938 31.0527H374.917V35.7533H377.938V31.0527Z" fill="#C7DBD9"/>
<path d="M385.436 31.0527H382.414V35.7533H385.436V31.0527Z" fill="#C7DBD9"/>
<path d="M408.98 15.481H405.969V20.1724H408.98V15.481Z" fill="#C7DBD9"/>
<path d="M895.618 11.4062H892.097V16.7964H895.618V11.4062Z" fill="#C7DBD9"/>
<path d="M904.2 11.4062H900.678V16.7964H904.2V11.4062Z" fill="#C7DBD9"/>
<path d="M912.896 11.4062H909.374V16.7964H912.896V11.4062Z" fill="#C7DBD9"/>
<path d="M921.467 11.4062H917.946V16.7964H921.467V11.4062Z" fill="#C7DBD9"/>
<path d="M895.618 20.3535H892.097V25.7437H895.618V20.3535Z" fill="#C7DBD9"/>
<path d="M904.2 20.3535H900.678V25.7437H904.2V20.3535Z" fill="#C7DBD9"/>
<path d="M912.896 20.3535H909.374V25.7437H912.896V20.3535Z" fill="#C7DBD9"/>
<path d="M921.467 20.3535H917.946V25.7437H921.467V20.3535Z" fill="#C7DBD9"/>
<path d="M895.618 29.355H892.097V34.7451H895.618V29.355Z" fill="#C7DBD9"/>
<path d="M904.2 29.355H900.678V34.7451H904.2V29.355Z" fill="#C7DBD9"/>
<path d="M931.268 11.4062H927.747V16.7964H931.268V11.4062Z" fill="#C7DBD9"/>
</svg>
