<svg width="767" height="312" viewBox="0 0 767 312" fill="none" xmlns="http://www.w3.org/2000/svg">
<mask id="mask0_1526_7323" style="mask-type:alpha" maskUnits="userSpaceOnUse" x="0" y="0" width="767" height="312">
<rect width="766.259" height="311.47" fill="#C4C4C4"/>
</mask>
<g mask="url(#mask0_1526_7323)">
<mask id="mask1_1526_7323" style="mask-type:alpha" maskUnits="userSpaceOnUse" x="61" y="42" width="528" height="270">
<rect x="61.2148" y="42.3767" width="527.062" height="269.093" fill="#C4C4C4"/>
</mask>
<g mask="url(#mask1_1526_7323)">
<path d="M497.549 167.653H489.217V158.569H490.283V157.107H482.646V151.873H483.336V150.743H480.035V145.787H476.92H476.42V128.132H476.074H475.634H475.224V145.787H473.744V135.962H473.399H472.959H472.519V145.787H468.903V150.743H465.102V151.873H466.297V157.107H458.655V158.569H459.756V167.653H451.424V169.167H452.589V310.26H496.384V169.167H497.549V167.653Z" fill="#110045"/>
<path d="M233.863 185.361H202.411V355.133H233.863V185.361Z" fill="url(#paint0_linear_1526_7323)"/>
<path d="M234.663 181.924H200.575V185.361H234.663V181.924Z" fill="#4F044A"/>
<path d="M217.619 172.58H203.801V190.788H217.619V172.58Z" fill="#4F044A"/>
<path d="M224.446 172.58H222.115V183.636H224.446V172.58Z" fill="#4F044A"/>
<path d="M229.297 172.58H226.751V183.636H229.297V172.58Z" fill="#4F044A"/>
<path d="M209.498 189.601H208.048V193.672H209.483L209.498 189.601Z" fill="#C7DBD9"/>
<path d="M209.498 197.407H208.048V201.479H209.483L209.498 197.407Z" fill="#C7DBD9"/>
<path d="M209.498 205.208H208.048V209.285H209.483L209.498 205.208Z" fill="#C7DBD9"/>
<path d="M209.498 212.976H208.048V217.048H209.483L209.498 212.976Z" fill="#C7DBD9"/>
<path d="M209.498 220.33H208.048V224.402H209.483L209.498 220.33Z" fill="#C7DBD9"/>
<path d="M209.498 228.113H208.048V232.184H209.483L209.498 228.113Z" fill="#C7DBD9"/>
<path d="M215.639 189.601H214.204V193.672H215.639V189.601Z" fill="#C7DBD9"/>
<path d="M215.639 197.407H214.204V201.479H215.639V197.407Z" fill="#C7DBD9"/>
<path d="M215.639 205.208H214.204V209.285H215.639V205.208Z" fill="#C7DBD9"/>
<path d="M215.639 212.976H214.204V217.048H215.639V212.976Z" fill="#C7DBD9"/>
<path d="M215.639 220.33H214.204V224.402H215.639V220.33Z" fill="#C7DBD9"/>
<path d="M215.639 228.113H214.204V232.184H215.639V228.113Z" fill="#C7DBD9"/>
<path d="M221.761 189.601H220.325V193.672H221.761V189.601Z" fill="#C7DBD9"/>
<path d="M221.761 197.407H220.325V201.479H221.761V197.407Z" fill="#C7DBD9"/>
<path d="M221.761 205.208H220.325V209.285H221.761V205.208Z" fill="#C7DBD9"/>
<path d="M221.761 212.976H220.325V217.048H221.761V212.976Z" fill="#C7DBD9"/>
<path d="M221.761 220.33H220.325V224.402H221.761V220.33Z" fill="#C7DBD9"/>
<path d="M221.761 228.113H220.325V232.184H221.761V228.113Z" fill="#C7DBD9"/>
<path d="M227.882 189.601H226.446V193.672H227.882V189.601Z" fill="#C7DBD9"/>
<path d="M227.882 197.407H226.446V201.479H227.882V197.407Z" fill="#C7DBD9"/>
<path d="M227.882 205.208H226.446V209.285H227.882V205.208Z" fill="#C7DBD9"/>
<path d="M227.882 212.976H226.446V217.048H227.882V212.976Z" fill="#C7DBD9"/>
<path d="M227.882 220.33H226.446V224.402H227.882V220.33Z" fill="#C7DBD9"/>
<path d="M227.882 228.113H226.446V232.184H227.882V228.113Z" fill="#C7DBD9"/>
<path d="M404.448 161.02V149.902H398.642V119.403H374.706V149.902H369.225V161.02H366.35V322.547H407.324V161.02H404.448Z" fill="url(#paint1_linear_1526_7323)"/>
<path d="M402.613 137.394H400.482V149.969H402.613V137.394Z" fill="#000037"/>
<path d="M385.849 103.353H376.742V119.759H385.849V103.353Z" fill="#000037"/>
<path d="M385.855 95.6956H381.299V105.295H385.855V95.6956Z" fill="#000037"/>
<path d="M383.793 74.522H383.357V97.1907H383.793V74.522Z" fill="#000047"/>
<path d="M401.843 114.932H401.253V137.563H401.843V114.932Z" fill="#000037"/>
<path d="M375.172 166.908V296.642" stroke="white" stroke-miterlimit="10"/>
<path d="M379.059 166.908V296.642" stroke="white" stroke-miterlimit="10"/>
<path d="M382.948 155.809V296.642" stroke="white" stroke-miterlimit="10"/>
<path d="M386.835 155.809V296.642" stroke="white" stroke-miterlimit="10"/>
<path d="M390.725 155.809V296.642" stroke="white" stroke-miterlimit="10"/>
<path d="M394.611 166.908V296.642" stroke="white" stroke-miterlimit="10"/>
<path d="M398.502 166.908V296.642" stroke="white" stroke-miterlimit="10"/>
<path d="M586.115 189.269V179.223H580.869V151.661H559.244V179.223H554.293V189.269H551.692V316.086H588.716V189.269H586.115Z" fill="url(#paint2_linear_1526_7323)"/>
<path d="M584.459 167.922H582.533V179.285H584.459V167.922Z" fill="#000037"/>
<path d="M569.315 137.159H561.083V151.983H569.315V137.159Z" fill="#000037"/>
<path d="M569.316 130.242H565.2V138.918H569.316V130.242Z" fill="#000037"/>
<path d="M567.451 111.106H567.061V131.588H567.451V111.106Z" fill="#000047"/>
<path d="M583.764 147.623H583.229V168.071H583.764V147.623Z" fill="#000037"/>
<path d="M559.664 194.591V311.823" stroke="white" stroke-miterlimit="10"/>
<path d="M563.174 194.591V311.823" stroke="white" stroke-miterlimit="10"/>
<path d="M566.69 184.563V311.823" stroke="white" stroke-miterlimit="10"/>
<path d="M570.206 184.563V311.823" stroke="white" stroke-miterlimit="10"/>
<path d="M573.717 184.563V311.823" stroke="white" stroke-miterlimit="10"/>
<path d="M577.232 194.591V311.823" stroke="white" stroke-miterlimit="10"/>
<path d="M580.743 194.591V311.823" stroke="white" stroke-miterlimit="10"/>
<path d="M420.272 326.882L414.051 211.707H415.466V210.424H419.782V201.699H414.096V200.661H414.721V197.844H415.346V195.792H414.096V179.357H415.321V176.791H413.946V169.427C413.941 169.376 413.926 169.327 413.902 169.282C413.878 169.238 413.844 169.198 413.804 169.166C413.763 169.133 413.716 169.109 413.666 169.095C413.616 169.08 413.563 169.075 413.511 169.081H413.32V164.274C413.328 164.193 413.311 164.111 413.271 164.04C413.231 163.968 413.17 163.909 413.095 163.87V160.611C413.091 160.561 413.076 160.512 413.052 160.467C413.028 160.422 412.994 160.382 412.954 160.35C412.913 160.318 412.866 160.294 412.816 160.279C412.765 160.265 412.713 160.26 412.66 160.265H412.55V155.458H412.255V160.265H412.145C412.093 160.26 412.04 160.265 411.99 160.279C411.939 160.294 411.892 160.318 411.852 160.35C411.811 160.382 411.778 160.422 411.754 160.467C411.729 160.512 411.714 160.561 411.71 160.611V163.87C411.642 163.909 411.584 163.962 411.541 164.027C411.498 164.091 411.472 164.164 411.465 164.24V169.047H411.275C411.223 169.042 411.17 169.046 411.119 169.061C411.069 169.076 411.022 169.1 410.982 169.132C410.941 169.164 410.908 169.204 410.883 169.249C410.859 169.294 410.844 169.343 410.84 169.393V176.757H409.455V179.324H410.68V195.758H409.455V197.811H410.08V200.627H410.705V201.666H405.004V210.39H409.32V211.673H410.49L404.523 326.882H420.272Z" fill="#000028"/>
<path d="M125.85 262.938L119.588 189.884H121.029V189.077H125.375V183.578H119.618V182.924H120.243V181.174H120.874V179.886H119.643V169.508H120.874V167.893H119.478V163.255C119.478 163.13 119.288 163.034 119.043 163.034H118.853V160.025C118.853 159.933 118.768 159.837 118.608 159.789V157.737C118.608 157.612 118.413 157.52 118.168 157.52H118.058V154.502H117.758V157.52H117.648C117.403 157.52 117.213 157.612 117.213 157.737V159.789C117.073 159.837 116.968 159.933 116.968 160.025V163.058H116.773C116.528 163.058 116.338 163.154 116.338 163.279V167.917H114.942V169.532H116.172V179.886H114.942V181.174H115.572V182.953H116.198V183.578H110.461V189.072H114.807V189.879H115.982L109.996 262.938V345.901H125.85V262.938Z" fill="#000028"/>
<path d="M78.249 311.197H110.756V183.198H78.249V311.197Z" fill="url(#paint3_linear_1526_7323)"/>
<path d="M78.2545 184.89H105.016V177.771H78.2545V184.89Z" fill="#120055"/>
<path d="M96.1433 178.613H102.47V175.334H96.1433V178.613Z" fill="#120055"/>
<path d="M99.0835 176.541H99.5986V154.997H99.0835V176.541Z" fill="#120055"/>
<g opacity="0.62">
<path opacity="0.62" d="M82.319 186.606H80.7637V188.101H82.319V186.606Z" fill="#E6E6E6"/>
<path opacity="0.62" d="M84.8356 186.606H83.2803V188.101H84.8356V186.606Z" fill="white"/>
<path opacity="0.62" d="M87.3493 186.606H85.7939V188.101H87.3493V186.606Z" fill="#CCCCCC"/>
<path opacity="0.62" d="M89.861 186.606H88.3057V188.101H89.861V186.606Z" fill="#F2F2F2"/>
<path opacity="0.62" d="M92.3766 186.606H90.8213V188.101H92.3766V186.606Z" fill="#B3B3B3"/>
<path opacity="0.62" d="M94.8874 186.606H93.332V188.101H94.8874V186.606Z" fill="#CCCCCC"/>
<path opacity="0.62" d="M97.402 186.606H95.8467V188.101H97.402V186.606Z" fill="#B3B3B3"/>
<path opacity="0.62" d="M99.9138 186.606H98.3584V188.101H99.9138V186.606Z" fill="#B3B3B3"/>
<path opacity="0.62" d="M102.429 186.606H100.874V188.101H102.429V186.606Z" fill="#E6E6E6"/>
<path opacity="0.62" d="M104.944 186.606H103.389V188.101H104.944V186.606Z" fill="#CCCCCC"/>
<path opacity="0.62" d="M107.455 186.606H105.899V188.101H107.455V186.606Z" fill="#E6E6E6"/>
<path opacity="0.62" d="M82.319 188.774H80.7637V190.269H82.319V188.774Z" fill="#F2F2F2"/>
<path opacity="0.62" d="M84.8356 188.774H83.2803V190.269H84.8356V188.774Z" fill="#CCCCCC"/>
<path opacity="0.62" d="M87.3493 188.774H85.7939V190.269H87.3493V188.774Z" fill="#F2F2F2"/>
<path opacity="0.62" d="M89.861 188.774H88.3057V190.269H89.861V188.774Z" fill="#B3B3B3"/>
<path opacity="0.62" d="M92.3766 188.774H90.8213V190.269H92.3766V188.774Z" fill="#F2F2F2"/>
<path opacity="0.62" d="M94.8874 188.774H93.332V190.269H94.8874V188.774Z" fill="white"/>
<path opacity="0.62" d="M97.402 188.774H95.8467V190.269H97.402V188.774Z" fill="#CCCCCC"/>
<path opacity="0.62" d="M99.9138 188.774H98.3584V190.269H99.9138V188.774Z" fill="#B3B3B3"/>
<path opacity="0.62" d="M102.429 188.774H100.874V190.269H102.429V188.774Z" fill="#F2F2F2"/>
<path opacity="0.62" d="M104.944 188.774H103.389V190.269H104.944V188.774Z" fill="white"/>
<path opacity="0.62" d="M107.455 188.774H105.899V190.269H107.455V188.774Z" fill="white"/>
<path opacity="0.62" d="M82.319 190.942H80.7637V192.437H82.319V190.942Z" fill="#CCCCCC"/>
<path opacity="0.62" d="M84.8356 190.942H83.2803V192.437H84.8356V190.942Z" fill="white"/>
<path opacity="0.62" d="M87.3493 190.942H85.7939V192.437H87.3493V190.942Z" fill="#B3B3B3"/>
<path opacity="0.62" d="M89.861 190.942H88.3057V192.437H89.861V190.942Z" fill="white"/>
<path opacity="0.62" d="M92.3766 190.942H90.8213V192.437H92.3766V190.942Z" fill="#E6E6E6"/>
<path opacity="0.62" d="M94.8874 190.942H93.332V192.437H94.8874V190.942Z" fill="white"/>
<path opacity="0.62" d="M97.402 190.942H95.8467V192.437H97.402V190.942Z" fill="#E6E6E6"/>
<path opacity="0.62" d="M99.9138 190.942H98.3584V192.437H99.9138V190.942Z" fill="#E6E6E6"/>
<path opacity="0.62" d="M102.429 190.942H100.874V192.437H102.429V190.942Z" fill="white"/>
<path opacity="0.62" d="M104.944 190.942H103.389V192.437H104.944V190.942Z" fill="#CCCCCC"/>
<path opacity="0.62" d="M107.455 190.942H105.899V192.437H107.455V190.942Z" fill="#B3B3B3"/>
<path opacity="0.62" d="M82.319 193.11H80.7637V194.605H82.319V193.11Z" fill="#B3B3B3"/>
<path opacity="0.62" d="M84.8356 193.11H83.2803V194.605H84.8356V193.11Z" fill="#CCCCCC"/>
<path opacity="0.62" d="M87.3493 193.11H85.7939V194.605H87.3493V193.11Z" fill="white"/>
<path opacity="0.62" d="M89.861 193.11H88.3057V194.605H89.861V193.11Z" fill="#B3B3B3"/>
<path opacity="0.62" d="M92.3766 193.11H90.8213V194.605H92.3766V193.11Z" fill="#CCCCCC"/>
<path opacity="0.62" d="M94.8874 193.11H93.332V194.605H94.8874V193.11Z" fill="#E6E6E6"/>
<path opacity="0.62" d="M97.402 193.11H95.8467V194.605H97.402V193.11Z" fill="#CCCCCC"/>
<path opacity="0.62" d="M99.9138 193.11H98.3584V194.605H99.9138V193.11Z" fill="#E6E6E6"/>
<path opacity="0.62" d="M102.429 193.11H100.874V194.605H102.429V193.11Z" fill="#B3B3B3"/>
<path opacity="0.62" d="M104.944 193.11H103.389V194.605H104.944V193.11Z" fill="#E6E6E6"/>
<path opacity="0.62" d="M107.455 193.11H105.899V194.605H107.455V193.11Z" fill="#F2F2F2"/>
<path opacity="0.62" d="M82.319 195.277H80.7637V196.772H82.319V195.277Z" fill="#CCCCCC"/>
<path opacity="0.62" d="M84.8356 195.277H83.2803V196.772H84.8356V195.277Z" fill="#CCCCCC"/>
<path opacity="0.62" d="M87.3493 195.277H85.7939V196.772H87.3493V195.277Z" fill="#E6E6E6"/>
<path opacity="0.62" d="M89.861 195.277H88.3057V196.772H89.861V195.277Z" fill="#CCCCCC"/>
<path opacity="0.62" d="M92.3766 195.277H90.8213V196.772H92.3766V195.277Z" fill="#E6E6E6"/>
<path opacity="0.62" d="M94.8874 195.277H93.332V196.772H94.8874V195.277Z" fill="#CCCCCC"/>
<path opacity="0.62" d="M97.402 195.277H95.8467V196.772H97.402V195.277Z" fill="white"/>
<path opacity="0.62" d="M99.9138 195.277H98.3584V196.772H99.9138V195.277Z" fill="#B3B3B3"/>
<path opacity="0.62" d="M102.429 195.277H100.874V196.772H102.429V195.277Z" fill="#B3B3B3"/>
<path opacity="0.62" d="M104.944 195.277H103.389V196.772H104.944V195.277Z" fill="#CCCCCC"/>
<path opacity="0.62" d="M107.455 195.277H105.899V196.772H107.455V195.277Z" fill="white"/>
<path opacity="0.62" d="M82.319 197.45H80.7637V198.945H82.319V197.45Z" fill="#B3B3B3"/>
<path opacity="0.62" d="M84.8356 197.45H83.2803V198.945H84.8356V197.45Z" fill="#E6E6E6"/>
<path opacity="0.62" d="M87.3493 197.45H85.7939V198.945H87.3493V197.45Z" fill="#CCCCCC"/>
<path opacity="0.62" d="M89.861 197.45H88.3057V198.945H89.861V197.45Z" fill="#B3B3B3"/>
<path opacity="0.62" d="M92.3766 197.45H90.8213V198.945H92.3766V197.45Z" fill="#B3B3B3"/>
<path opacity="0.62" d="M94.8874 197.45H93.332V198.945H94.8874V197.45Z" fill="#CCCCCC"/>
<path opacity="0.62" d="M97.402 197.45H95.8467V198.945H97.402V197.45Z" fill="#CCCCCC"/>
<path opacity="0.62" d="M99.9138 197.45H98.3584V198.945H99.9138V197.45Z" fill="white"/>
<path opacity="0.62" d="M102.429 197.45H100.874V198.945H102.429V197.45Z" fill="#F2F2F2"/>
<path opacity="0.62" d="M104.944 197.45H103.389V198.945H104.944V197.45Z" fill="#CCCCCC"/>
<path opacity="0.62" d="M107.455 197.45H105.899V198.945H107.455V197.45Z" fill="#E6E6E6"/>
<path opacity="0.62" d="M82.319 199.618H80.7637V201.113H82.319V199.618Z" fill="#B3B3B3"/>
<path opacity="0.62" d="M84.8356 199.618H83.2803V201.113H84.8356V199.618Z" fill="white"/>
<path opacity="0.62" d="M87.3493 199.618H85.7939V201.113H87.3493V199.618Z" fill="#B3B3B3"/>
<path opacity="0.62" d="M89.861 199.618H88.3057V201.113H89.861V199.618Z" fill="#E6E6E6"/>
<path opacity="0.62" d="M92.3766 199.618H90.8213V201.113H92.3766V199.618Z" fill="#E6E6E6"/>
<path opacity="0.62" d="M94.8874 199.618H93.332V201.113H94.8874V199.618Z" fill="#B3B3B3"/>
<path opacity="0.62" d="M97.402 199.618H95.8467V201.113H97.402V199.618Z" fill="#CCCCCC"/>
<path opacity="0.62" d="M99.9138 199.618H98.3584V201.113H99.9138V199.618Z" fill="#CCCCCC"/>
<path opacity="0.62" d="M102.429 199.618H100.874V201.113H102.429V199.618Z" fill="#B3B3B3"/>
<path opacity="0.62" d="M104.944 199.618H103.389V201.113H104.944V199.618Z" fill="#CCCCCC"/>
<path opacity="0.62" d="M107.455 199.618H105.899V201.113H107.455V199.618Z" fill="#B3B3B3"/>
<path opacity="0.62" d="M82.319 201.786H80.7637V203.281H82.319V201.786Z" fill="#F2F2F2"/>
<path opacity="0.62" d="M84.8356 201.786H83.2803V203.281H84.8356V201.786Z" fill="#F2F2F2"/>
<path opacity="0.62" d="M87.3493 201.786H85.7939V203.281H87.3493V201.786Z" fill="#E6E6E6"/>
<path opacity="0.62" d="M89.861 201.786H88.3057V203.281H89.861V201.786Z" fill="white"/>
<path opacity="0.62" d="M92.3766 201.786H90.8213V203.281H92.3766V201.786Z" fill="#CCCCCC"/>
<path opacity="0.62" d="M94.8874 201.786H93.332V203.281H94.8874V201.786Z" fill="#F2F2F2"/>
<path opacity="0.62" d="M97.402 201.786H95.8467V203.281H97.402V201.786Z" fill="#E6E6E6"/>
<path opacity="0.62" d="M99.9138 201.786H98.3584V203.281H99.9138V201.786Z" fill="#E6E6E6"/>
<path opacity="0.62" d="M102.429 201.786H100.874V203.281H102.429V201.786Z" fill="#B3B3B3"/>
<path opacity="0.62" d="M104.944 201.786H103.389V203.281H104.944V201.786Z" fill="#CCCCCC"/>
<path opacity="0.62" d="M107.455 201.786H105.899V203.281H107.455V201.786Z" fill="#E6E6E6"/>
<path opacity="0.62" d="M82.319 203.954H80.7637V205.449H82.319V203.954Z" fill="#E6E6E6"/>
<path opacity="0.62" d="M84.8356 203.954H83.2803V205.449H84.8356V203.954Z" fill="#CCCCCC"/>
<path opacity="0.62" d="M87.3493 203.954H85.7939V205.449H87.3493V203.954Z" fill="white"/>
<path opacity="0.62" d="M89.861 203.954H88.3057V205.449H89.861V203.954Z" fill="#F2F2F2"/>
<path opacity="0.62" d="M92.3766 203.954H90.8213V205.449H92.3766V203.954Z" fill="#F2F2F2"/>
<path opacity="0.62" d="M94.8874 203.954H93.332V205.449H94.8874V203.954Z" fill="#F2F2F2"/>
<path opacity="0.62" d="M97.402 203.954H95.8467V205.449H97.402V203.954Z" fill="#CCCCCC"/>
<path opacity="0.62" d="M99.9138 203.954H98.3584V205.449H99.9138V203.954Z" fill="#F2F2F2"/>
<path opacity="0.62" d="M102.429 203.954H100.874V205.449H102.429V203.954Z" fill="#F2F2F2"/>
<path opacity="0.62" d="M104.944 203.954H103.389V205.449H104.944V203.954Z" fill="#F2F2F2"/>
<path opacity="0.62" d="M107.455 203.954H105.899V205.449H107.455V203.954Z" fill="#E6E6E6"/>
<path opacity="0.62" d="M82.319 206.121H80.7637V207.616H82.319V206.121Z" fill="#E6E6E6"/>
<path opacity="0.62" d="M84.8356 206.121H83.2803V207.616H84.8356V206.121Z" fill="#CCCCCC"/>
<path opacity="0.62" d="M87.3493 206.121H85.7939V207.616H87.3493V206.121Z" fill="#E6E6E6"/>
<path opacity="0.62" d="M89.861 206.121H88.3057V207.616H89.861V206.121Z" fill="#F2F2F2"/>
<path opacity="0.62" d="M92.3766 206.121H90.8213V207.616H92.3766V206.121Z" fill="#CCCCCC"/>
<path opacity="0.62" d="M94.8874 206.121H93.332V207.616H94.8874V206.121Z" fill="#CCCCCC"/>
<path opacity="0.62" d="M97.402 206.121H95.8467V207.616H97.402V206.121Z" fill="white"/>
<path opacity="0.62" d="M99.9138 206.121H98.3584V207.616H99.9138V206.121Z" fill="#E6E6E6"/>
<path opacity="0.62" d="M102.429 206.121H100.874V207.616H102.429V206.121Z" fill="#B3B3B3"/>
<path opacity="0.62" d="M104.944 206.121H103.389V207.616H104.944V206.121Z" fill="#E6E6E6"/>
<path opacity="0.62" d="M107.455 206.121H105.899V207.616H107.455V206.121Z" fill="#CCCCCC"/>
<path opacity="0.62" d="M82.319 208.294H80.7637V209.789H82.319V208.294Z" fill="#CCCCCC"/>
<path opacity="0.62" d="M84.8356 208.294H83.2803V209.789H84.8356V208.294Z" fill="#CCCCCC"/>
<path opacity="0.62" d="M87.3493 208.294H85.7939V209.789H87.3493V208.294Z" fill="white"/>
<path opacity="0.62" d="M89.861 208.294H88.3057V209.789H89.861V208.294Z" fill="#F2F2F2"/>
<path opacity="0.62" d="M92.3766 208.294H90.8213V209.789H92.3766V208.294Z" fill="#B3B3B3"/>
<path opacity="0.62" d="M94.8874 208.294H93.332V209.789H94.8874V208.294Z" fill="white"/>
<path opacity="0.62" d="M97.402 208.294H95.8467V209.789H97.402V208.294Z" fill="#E6E6E6"/>
<path opacity="0.62" d="M99.9138 208.294H98.3584V209.789H99.9138V208.294Z" fill="#CCCCCC"/>
<path opacity="0.62" d="M102.429 208.294H100.874V209.789H102.429V208.294Z" fill="#CCCCCC"/>
<path opacity="0.62" d="M104.944 208.294H103.389V209.789H104.944V208.294Z" fill="#B3B3B3"/>
<path opacity="0.62" d="M107.455 208.294H105.899V209.789H107.455V208.294Z" fill="#B3B3B3"/>
<path opacity="0.62" d="M82.319 210.462H80.7637V211.957H82.319V210.462Z" fill="#CCCCCC"/>
<path opacity="0.62" d="M84.8356 210.462H83.2803V211.957H84.8356V210.462Z" fill="white"/>
<path opacity="0.62" d="M87.3493 210.462H85.7939V211.957H87.3493V210.462Z" fill="#E6E6E6"/>
<path opacity="0.62" d="M89.861 210.462H88.3057V211.957H89.861V210.462Z" fill="#B3B3B3"/>
<path opacity="0.62" d="M92.3766 210.462H90.8213V211.957H92.3766V210.462Z" fill="#F2F2F2"/>
<path opacity="0.62" d="M94.8874 210.462H93.332V211.957H94.8874V210.462Z" fill="white"/>
<path opacity="0.62" d="M97.402 210.462H95.8467V211.957H97.402V210.462Z" fill="#CCCCCC"/>
<path opacity="0.62" d="M99.9138 210.462H98.3584V211.957H99.9138V210.462Z" fill="#CCCCCC"/>
<path opacity="0.62" d="M102.429 210.462H100.874V211.957H102.429V210.462Z" fill="#E6E6E6"/>
<path opacity="0.62" d="M104.944 210.462H103.389V211.957H104.944V210.462Z" fill="#CCCCCC"/>
<path opacity="0.62" d="M107.455 210.462H105.899V211.957H107.455V210.462Z" fill="#CCCCCC"/>
<path opacity="0.62" d="M82.319 212.63H80.7637V214.125H82.319V212.63Z" fill="#B3B3B3"/>
<path opacity="0.62" d="M84.8356 212.63H83.2803V214.125H84.8356V212.63Z" fill="#E6E6E6"/>
<path opacity="0.62" d="M87.3493 212.63H85.7939V214.125H87.3493V212.63Z" fill="#E6E6E6"/>
<path opacity="0.62" d="M89.861 212.63H88.3057V214.125H89.861V212.63Z" fill="#E6E6E6"/>
<path opacity="0.62" d="M92.3766 212.63H90.8213V214.125H92.3766V212.63Z" fill="#CCCCCC"/>
<path opacity="0.62" d="M94.8874 212.63H93.332V214.125H94.8874V212.63Z" fill="#CCCCCC"/>
<path opacity="0.62" d="M97.402 212.63H95.8467V214.125H97.402V212.63Z" fill="#B3B3B3"/>
<path opacity="0.62" d="M99.9138 212.63H98.3584V214.125H99.9138V212.63Z" fill="#CCCCCC"/>
<path opacity="0.62" d="M102.429 212.63H100.874V214.125H102.429V212.63Z" fill="white"/>
<path opacity="0.62" d="M104.944 212.63H103.389V214.125H104.944V212.63Z" fill="white"/>
<path opacity="0.62" d="M107.455 212.63H105.899V214.125H107.455V212.63Z" fill="#CCCCCC"/>
<path opacity="0.62" d="M82.319 214.798H80.7637V216.293H82.319V214.798Z" fill="#B3B3B3"/>
<path opacity="0.62" d="M84.8356 214.798H83.2803V216.293H84.8356V214.798Z" fill="#E6E6E6"/>
<path opacity="0.62" d="M87.3493 214.798H85.7939V216.293H87.3493V214.798Z" fill="#E6E6E6"/>
<path opacity="0.62" d="M89.861 214.798H88.3057V216.293H89.861V214.798Z" fill="#CCCCCC"/>
<path opacity="0.62" d="M92.3766 214.798H90.8213V216.293H92.3766V214.798Z" fill="#E6E6E6"/>
<path opacity="0.62" d="M94.8874 214.798H93.332V216.293H94.8874V214.798Z" fill="#B3B3B3"/>
<path opacity="0.62" d="M97.402 214.798H95.8467V216.293H97.402V214.798Z" fill="#CCCCCC"/>
<path opacity="0.62" d="M99.9138 214.798H98.3584V216.293H99.9138V214.798Z" fill="#B3B3B3"/>
<path opacity="0.62" d="M102.429 214.798H100.874V216.293H102.429V214.798Z" fill="white"/>
<path opacity="0.62" d="M104.944 214.798H103.389V216.293H104.944V214.798Z" fill="white"/>
<path opacity="0.62" d="M107.455 214.798H105.899V216.293H107.455V214.798Z" fill="#CCCCCC"/>
<path opacity="0.62" d="M82.319 216.965H80.7637V218.46H82.319V216.965Z" fill="#E6E6E6"/>
<path opacity="0.62" d="M84.8356 216.965H83.2803V218.46H84.8356V216.965Z" fill="#E6E6E6"/>
<path opacity="0.62" d="M87.3493 216.965H85.7939V218.46H87.3493V216.965Z" fill="#CCCCCC"/>
<path opacity="0.62" d="M89.861 216.965H88.3057V218.46H89.861V216.965Z" fill="white"/>
<path opacity="0.62" d="M92.3766 216.965H90.8213V218.46H92.3766V216.965Z" fill="#B3B3B3"/>
<path opacity="0.62" d="M94.8874 216.965H93.332V218.46H94.8874V216.965Z" fill="white"/>
<path opacity="0.62" d="M97.402 216.965H95.8467V218.46H97.402V216.965Z" fill="#CCCCCC"/>
<path opacity="0.62" d="M99.9138 216.965H98.3584V218.46H99.9138V216.965Z" fill="#E6E6E6"/>
<path opacity="0.62" d="M102.429 216.965H100.874V218.46H102.429V216.965Z" fill="#B3B3B3"/>
<path opacity="0.62" d="M104.944 216.965H103.389V218.46H104.944V216.965Z" fill="#CCCCCC"/>
<path opacity="0.62" d="M107.455 216.965H105.899V218.46H107.455V216.965Z" fill="#B3B3B3"/>
<path opacity="0.62" d="M82.319 219.138H80.7637V220.633H82.319V219.138Z" fill="#CCCCCC"/>
<path opacity="0.62" d="M84.8356 219.138H83.2803V220.633H84.8356V219.138Z" fill="#B3B3B3"/>
<path opacity="0.62" d="M87.3493 219.138H85.7939V220.633H87.3493V219.138Z" fill="#E6E6E6"/>
<path opacity="0.62" d="M89.861 219.138H88.3057V220.633H89.861V219.138Z" fill="#CCCCCC"/>
<path opacity="0.62" d="M92.3766 219.138H90.8213V220.633H92.3766V219.138Z" fill="#E6E6E6"/>
<path opacity="0.62" d="M94.8874 219.138H93.332V220.633H94.8874V219.138Z" fill="#F2F2F2"/>
<path opacity="0.62" d="M97.402 219.138H95.8467V220.633H97.402V219.138Z" fill="#B3B3B3"/>
<path opacity="0.62" d="M99.9138 219.138H98.3584V220.633H99.9138V219.138Z" fill="#CCCCCC"/>
<path opacity="0.62" d="M102.429 219.138H100.874V220.633H102.429V219.138Z" fill="#E6E6E6"/>
<path opacity="0.62" d="M104.944 219.138H103.389V220.633H104.944V219.138Z" fill="#CCCCCC"/>
<path opacity="0.62" d="M107.455 219.138H105.899V220.633H107.455V219.138Z" fill="#E6E6E6"/>
<path opacity="0.62" d="M82.319 221.306H80.7637V222.801H82.319V221.306Z" fill="#CCCCCC"/>
<path opacity="0.62" d="M84.8356 221.306H83.2803V222.801H84.8356V221.306Z" fill="#E6E6E6"/>
<path opacity="0.62" d="M87.3493 221.306H85.7939V222.801H87.3493V221.306Z" fill="white"/>
<path opacity="0.62" d="M89.861 221.306H88.3057V222.801H89.861V221.306Z" fill="#CCCCCC"/>
<path opacity="0.62" d="M92.3766 221.306H90.8213V222.801H92.3766V221.306Z" fill="#CCCCCC"/>
<path opacity="0.62" d="M94.8874 221.306H93.332V222.801H94.8874V221.306Z" fill="#E6E6E6"/>
<path opacity="0.62" d="M97.402 221.306H95.8467V222.801H97.402V221.306Z" fill="#B3B3B3"/>
<path opacity="0.62" d="M99.9138 221.306H98.3584V222.801H99.9138V221.306Z" fill="#CCCCCC"/>
<path opacity="0.62" d="M102.429 221.306H100.874V222.801H102.429V221.306Z" fill="#B3B3B3"/>
<path opacity="0.62" d="M104.944 221.306H103.389V222.801H104.944V221.306Z" fill="#B3B3B3"/>
<path opacity="0.62" d="M107.455 221.306H105.899V222.801H107.455V221.306Z" fill="#B3B3B3"/>
<path opacity="0.62" d="M82.319 223.474H80.7637V224.969H82.319V223.474Z" fill="#B3B3B3"/>
<path opacity="0.62" d="M84.8356 223.474H83.2803V224.969H84.8356V223.474Z" fill="white"/>
<path opacity="0.62" d="M87.3493 223.474H85.7939V224.969H87.3493V223.474Z" fill="#E6E6E6"/>
<path opacity="0.62" d="M89.861 223.474H88.3057V224.969H89.861V223.474Z" fill="#B3B3B3"/>
<path opacity="0.62" d="M92.3766 223.474H90.8213V224.969H92.3766V223.474Z" fill="#CCCCCC"/>
<path opacity="0.62" d="M94.8874 223.474H93.332V224.969H94.8874V223.474Z" fill="#E6E6E6"/>
<path opacity="0.62" d="M97.402 223.474H95.8467V224.969H97.402V223.474Z" fill="white"/>
<path opacity="0.62" d="M99.9138 223.474H98.3584V224.969H99.9138V223.474Z" fill="#F2F2F2"/>
<path opacity="0.62" d="M102.429 223.474H100.874V224.969H102.429V223.474Z" fill="#CCCCCC"/>
<path opacity="0.62" d="M104.944 223.474H103.389V224.969H104.944V223.474Z" fill="#CCCCCC"/>
<path opacity="0.62" d="M107.455 223.474H105.899V224.969H107.455V223.474Z" fill="#E6E6E6"/>
<path opacity="0.62" d="M82.319 225.642H80.7637V227.137H82.319V225.642Z" fill="#B3B3B3"/>
<path opacity="0.62" d="M84.8356 225.642H83.2803V227.137H84.8356V225.642Z" fill="#F2F2F2"/>
<path opacity="0.62" d="M87.3493 225.642H85.7939V227.137H87.3493V225.642Z" fill="#B3B3B3"/>
<path opacity="0.62" d="M89.861 225.642H88.3057V227.137H89.861V225.642Z" fill="#F2F2F2"/>
<path opacity="0.62" d="M92.3766 225.642H90.8213V227.137H92.3766V225.642Z" fill="#E6E6E6"/>
<path opacity="0.62" d="M94.8874 225.642H93.332V227.137H94.8874V225.642Z" fill="#F2F2F2"/>
<path opacity="0.62" d="M97.402 225.642H95.8467V227.137H97.402V225.642Z" fill="#E6E6E6"/>
<path opacity="0.62" d="M99.9138 225.642H98.3584V227.137H99.9138V225.642Z" fill="#F2F2F2"/>
<path opacity="0.62" d="M102.429 225.642H100.874V227.137H102.429V225.642Z" fill="#CCCCCC"/>
<path opacity="0.62" d="M104.944 225.642H103.389V227.137H104.944V225.642Z" fill="#B3B3B3"/>
<path opacity="0.62" d="M107.455 225.642H105.899V227.137H107.455V225.642Z" fill="white"/>
<path opacity="0.62" d="M82.319 227.81H80.7637V229.304H82.319V227.81Z" fill="#CCCCCC"/>
<path opacity="0.62" d="M84.8356 227.81H83.2803V229.304H84.8356V227.81Z" fill="#B3B3B3"/>
<path opacity="0.62" d="M87.3493 227.81H85.7939V229.304H87.3493V227.81Z" fill="#CCCCCC"/>
<path opacity="0.62" d="M89.861 227.81H88.3057V229.304H89.861V227.81Z" fill="#CCCCCC"/>
<path opacity="0.62" d="M92.3766 227.81H90.8213V229.304H92.3766V227.81Z" fill="#CCCCCC"/>
<path opacity="0.62" d="M94.8874 227.81H93.332V229.304H94.8874V227.81Z" fill="white"/>
<path opacity="0.62" d="M97.402 227.81H95.8467V229.304H97.402V227.81Z" fill="#CCCCCC"/>
<path opacity="0.62" d="M99.9138 227.81H98.3584V229.304H99.9138V227.81Z" fill="#E6E6E6"/>
<path opacity="0.62" d="M102.429 227.81H100.874V229.304H102.429V227.81Z" fill="#CCCCCC"/>
<path opacity="0.62" d="M104.944 227.81H103.389V229.304H104.944V227.81Z" fill="#E6E6E6"/>
<path opacity="0.62" d="M107.455 227.81H105.899V229.304H107.455V227.81Z" fill="#E6E6E6"/>
<path opacity="0.62" d="M82.319 229.982H80.7637V231.477H82.319V229.982Z" fill="#CCCCCC"/>
<path opacity="0.62" d="M84.8356 229.982H83.2803V231.477H84.8356V229.982Z" fill="#CCCCCC"/>
<path opacity="0.62" d="M87.3493 229.982H85.7939V231.477H87.3493V229.982Z" fill="#CCCCCC"/>
<path opacity="0.62" d="M89.861 229.982H88.3057V231.477H89.861V229.982Z" fill="white"/>
<path opacity="0.62" d="M92.3766 229.982H90.8213V231.477H92.3766V229.982Z" fill="#E6E6E6"/>
<path opacity="0.62" d="M94.8874 229.982H93.332V231.477H94.8874V229.982Z" fill="#CCCCCC"/>
<path opacity="0.62" d="M97.402 229.982H95.8467V231.477H97.402V229.982Z" fill="#E6E6E6"/>
<path opacity="0.62" d="M99.9138 229.982H98.3584V231.477H99.9138V229.982Z" fill="#CCCCCC"/>
<path opacity="0.62" d="M102.429 229.982H100.874V231.477H102.429V229.982Z" fill="#B3B3B3"/>
<path opacity="0.62" d="M104.944 229.982H103.389V231.477H104.944V229.982Z" fill="#B3B3B3"/>
<path opacity="0.62" d="M107.455 229.982H105.899V231.477H107.455V229.982Z" fill="#CCCCCC"/>
<path opacity="0.62" d="M82.319 232.15H80.7637V233.645H82.319V232.15Z" fill="#CCCCCC"/>
<path opacity="0.62" d="M84.8356 232.15H83.2803V233.645H84.8356V232.15Z" fill="#E6E6E6"/>
<path opacity="0.62" d="M87.3493 232.15H85.7939V233.645H87.3493V232.15Z" fill="#E6E6E6"/>
<path opacity="0.62" d="M89.861 232.15H88.3057V233.645H89.861V232.15Z" fill="#CCCCCC"/>
<path opacity="0.62" d="M92.3766 232.15H90.8213V233.645H92.3766V232.15Z" fill="#E6E6E6"/>
<path opacity="0.62" d="M94.8874 232.15H93.332V233.645H94.8874V232.15Z" fill="#F2F2F2"/>
<path opacity="0.62" d="M97.402 232.15H95.8467V233.645H97.402V232.15Z" fill="#CCCCCC"/>
<path opacity="0.62" d="M99.9138 232.15H98.3584V233.645H99.9138V232.15Z" fill="#CCCCCC"/>
<path opacity="0.62" d="M102.429 232.15H100.874V233.645H102.429V232.15Z" fill="#E6E6E6"/>
<path opacity="0.62" d="M104.944 232.15H103.389V233.645H104.944V232.15Z" fill="#CCCCCC"/>
<path opacity="0.62" d="M107.455 232.15H105.899V233.645H107.455V232.15Z" fill="#CCCCCC"/>
<path opacity="0.62" d="M82.319 234.318H80.7637V235.813H82.319V234.318Z" fill="white"/>
<path opacity="0.62" d="M84.8356 234.318H83.2803V235.813H84.8356V234.318Z" fill="#CCCCCC"/>
<path opacity="0.62" d="M87.3493 234.318H85.7939V235.813H87.3493V234.318Z" fill="#E6E6E6"/>
<path opacity="0.62" d="M89.861 234.318H88.3057V235.813H89.861V234.318Z" fill="#E6E6E6"/>
<path opacity="0.62" d="M92.3766 234.318H90.8213V235.813H92.3766V234.318Z" fill="#B3B3B3"/>
<path opacity="0.62" d="M94.8874 234.318H93.332V235.813H94.8874V234.318Z" fill="#B3B3B3"/>
<path opacity="0.62" d="M97.402 234.318H95.8467V235.813H97.402V234.318Z" fill="#E6E6E6"/>
<path opacity="0.62" d="M99.9138 234.318H98.3584V235.813H99.9138V234.318Z" fill="#CCCCCC"/>
<path opacity="0.62" d="M102.429 234.318H100.874V235.813H102.429V234.318Z" fill="#B3B3B3"/>
<path opacity="0.62" d="M104.944 234.318H103.389V235.813H104.944V234.318Z" fill="#E6E6E6"/>
<path opacity="0.62" d="M107.455 234.318H105.899V235.813H107.455V234.318Z" fill="#CCCCCC"/>
<path opacity="0.62" d="M82.319 236.486H80.7637V237.981H82.319V236.486Z" fill="#CCCCCC"/>
<path opacity="0.62" d="M84.8356 236.486H83.2803V237.981H84.8356V236.486Z" fill="#CCCCCC"/>
<path opacity="0.62" d="M87.3493 236.486H85.7939V237.981H87.3493V236.486Z" fill="#E6E6E6"/>
<path opacity="0.62" d="M89.861 236.486H88.3057V237.981H89.861V236.486Z" fill="#E6E6E6"/>
<path opacity="0.62" d="M92.3766 236.486H90.8213V237.981H92.3766V236.486Z" fill="#CCCCCC"/>
<path opacity="0.62" d="M94.8874 236.486H93.332V237.981H94.8874V236.486Z" fill="#E6E6E6"/>
<path opacity="0.62" d="M97.402 236.486H95.8467V237.981H97.402V236.486Z" fill="#E6E6E6"/>
<path opacity="0.62" d="M99.9138 236.486H98.3584V237.981H99.9138V236.486Z" fill="#F2F2F2"/>
<path opacity="0.62" d="M102.429 236.486H100.874V237.981H102.429V236.486Z" fill="#F2F2F2"/>
<path opacity="0.62" d="M104.944 236.486H103.389V237.981H104.944V236.486Z" fill="#B3B3B3"/>
<path opacity="0.62" d="M107.455 236.486H105.899V237.981H107.455V236.486Z" fill="#CCCCCC"/>
<path opacity="0.62" d="M82.319 238.654H80.7637V240.148H82.319V238.654Z" fill="#CCCCCC"/>
<path opacity="0.62" d="M84.8356 238.654H83.2803V240.148H84.8356V238.654Z" fill="white"/>
<path opacity="0.62" d="M87.3493 238.654H85.7939V240.148H87.3493V238.654Z" fill="#CCCCCC"/>
<path opacity="0.62" d="M89.861 238.654H88.3057V240.148H89.861V238.654Z" fill="#CCCCCC"/>
<path opacity="0.62" d="M92.3766 238.654H90.8213V240.148H92.3766V238.654Z" fill="#B3B3B3"/>
<path opacity="0.62" d="M94.8874 238.654H93.332V240.148H94.8874V238.654Z" fill="#CCCCCC"/>
<path opacity="0.62" d="M97.402 238.654H95.8467V240.148H97.402V238.654Z" fill="#CCCCCC"/>
<path opacity="0.62" d="M99.9138 238.654H98.3584V240.148H99.9138V238.654Z" fill="#B3B3B3"/>
<path opacity="0.62" d="M102.429 238.654H100.874V240.148H102.429V238.654Z" fill="#CCCCCC"/>
<path opacity="0.62" d="M104.944 238.654H103.389V240.148H104.944V238.654Z" fill="#CCCCCC"/>
<path opacity="0.62" d="M107.455 238.654H105.899V240.148H107.455V238.654Z" fill="#E6E6E6"/>
<path opacity="0.62" d="M82.319 240.908H80.7637V242.403H82.319V240.908Z" fill="#E6E6E6"/>
<path opacity="0.62" d="M84.8356 240.908H83.2803V242.403H84.8356V240.908Z" fill="white"/>
<path opacity="0.62" d="M87.3493 240.908H85.7939V242.403H87.3493V240.908Z" fill="#CCCCCC"/>
<path opacity="0.62" d="M89.861 240.908H88.3057V242.403H89.861V240.908Z" fill="#F2F2F2"/>
<path opacity="0.62" d="M92.3766 240.908H90.8213V242.403H92.3766V240.908Z" fill="#B3B3B3"/>
<path opacity="0.62" d="M94.8874 240.908H93.332V242.403H94.8874V240.908Z" fill="#CCCCCC"/>
<path opacity="0.62" d="M97.402 240.908H95.8467V242.403H97.402V240.908Z" fill="#B3B3B3"/>
<path opacity="0.62" d="M99.9138 240.908H98.3584V242.403H99.9138V240.908Z" fill="#B3B3B3"/>
<path opacity="0.62" d="M102.429 240.908H100.874V242.403H102.429V240.908Z" fill="#E6E6E6"/>
<path opacity="0.62" d="M104.944 240.908H103.389V242.403H104.944V240.908Z" fill="#CCCCCC"/>
<path opacity="0.62" d="M107.455 240.908H105.899V242.403H107.455V240.908Z" fill="#E6E6E6"/>
<path opacity="0.62" d="M82.319 243.076H80.7637V244.571H82.319V243.076Z" fill="#F2F2F2"/>
<path opacity="0.62" d="M84.8356 243.076H83.2803V244.571H84.8356V243.076Z" fill="#CCCCCC"/>
<path opacity="0.62" d="M87.3493 243.076H85.7939V244.571H87.3493V243.076Z" fill="#F2F2F2"/>
<path opacity="0.62" d="M89.861 243.076H88.3057V244.571H89.861V243.076Z" fill="#B3B3B3"/>
<path opacity="0.62" d="M92.3766 243.076H90.8213V244.571H92.3766V243.076Z" fill="#F2F2F2"/>
<path opacity="0.62" d="M94.8874 243.076H93.332V244.571H94.8874V243.076Z" fill="white"/>
<path opacity="0.62" d="M97.402 243.076H95.8467V244.571H97.402V243.076Z" fill="#CCCCCC"/>
<path opacity="0.62" d="M99.9138 243.076H98.3584V244.571H99.9138V243.076Z" fill="#B3B3B3"/>
<path opacity="0.62" d="M102.429 243.076H100.874V244.571H102.429V243.076Z" fill="#F2F2F2"/>
<path opacity="0.62" d="M104.944 243.076H103.389V244.571H104.944V243.076Z" fill="white"/>
<path opacity="0.62" d="M107.455 243.076H105.899V244.571H107.455V243.076Z" fill="white"/>
<path opacity="0.62" d="M82.319 245.249H80.7637V246.743H82.319V245.249Z" fill="#CCCCCC"/>
<path opacity="0.62" d="M84.8356 245.249H83.2803V246.743H84.8356V245.249Z" fill="white"/>
<path opacity="0.62" d="M87.3493 245.249H85.7939V246.743H87.3493V245.249Z" fill="#B3B3B3"/>
<path opacity="0.62" d="M89.861 245.249H88.3057V246.743H89.861V245.249Z" fill="white"/>
<path opacity="0.62" d="M92.3766 245.249H90.8213V246.743H92.3766V245.249Z" fill="#E6E6E6"/>
<path opacity="0.62" d="M94.8874 245.249H93.332V246.743H94.8874V245.249Z" fill="white"/>
<path opacity="0.62" d="M97.402 245.249H95.8467V246.743H97.402V245.249Z" fill="#E6E6E6"/>
<path opacity="0.62" d="M99.9138 245.249H98.3584V246.743H99.9138V245.249Z" fill="#E6E6E6"/>
<path opacity="0.62" d="M102.429 245.249H100.874V246.743H102.429V245.249Z" fill="white"/>
<path opacity="0.62" d="M104.944 245.249H103.389V246.743H104.944V245.249Z" fill="#CCCCCC"/>
<path opacity="0.62" d="M107.455 245.249H105.899V246.743H107.455V245.249Z" fill="#B3B3B3"/>
<path opacity="0.62" d="M82.319 247.416H80.7637V248.911H82.319V247.416Z" fill="#B3B3B3"/>
<path opacity="0.62" d="M84.8356 247.416H83.2803V248.911H84.8356V247.416Z" fill="#CCCCCC"/>
<path opacity="0.62" d="M87.3493 247.416H85.7939V248.911H87.3493V247.416Z" fill="white"/>
<path opacity="0.62" d="M89.861 247.416H88.3057V248.911H89.861V247.416Z" fill="#B3B3B3"/>
<path opacity="0.62" d="M92.3766 247.416H90.8213V248.911H92.3766V247.416Z" fill="#CCCCCC"/>
<path opacity="0.62" d="M94.8874 247.416H93.332V248.911H94.8874V247.416Z" fill="#E6E6E6"/>
<path opacity="0.62" d="M97.402 247.416H95.8467V248.911H97.402V247.416Z" fill="#CCCCCC"/>
<path opacity="0.62" d="M99.9138 247.416H98.3584V248.911H99.9138V247.416Z" fill="#E6E6E6"/>
<path opacity="0.62" d="M102.429 247.416H100.874V248.911H102.429V247.416Z" fill="#B3B3B3"/>
<path opacity="0.62" d="M104.944 247.416H103.389V248.911H104.944V247.416Z" fill="#E6E6E6"/>
<path opacity="0.62" d="M107.455 247.416H105.899V248.911H107.455V247.416Z" fill="#F2F2F2"/>
<path opacity="0.62" d="M82.319 249.584H80.7637V251.079H82.319V249.584Z" fill="#CCCCCC"/>
<path opacity="0.62" d="M84.8356 249.584H83.2803V251.079H84.8356V249.584Z" fill="#CCCCCC"/>
<path opacity="0.62" d="M87.3493 249.584H85.7939V251.079H87.3493V249.584Z" fill="#E6E6E6"/>
<path opacity="0.62" d="M89.861 249.584H88.3057V251.079H89.861V249.584Z" fill="#CCCCCC"/>
<path opacity="0.62" d="M92.3766 249.584H90.8213V251.079H92.3766V249.584Z" fill="#E6E6E6"/>
<path opacity="0.62" d="M94.8874 249.584H93.332V251.079H94.8874V249.584Z" fill="#CCCCCC"/>
<path opacity="0.62" d="M97.402 249.584H95.8467V251.079H97.402V249.584Z" fill="white"/>
<path opacity="0.62" d="M99.9138 249.584H98.3584V251.079H99.9138V249.584Z" fill="#B3B3B3"/>
<path opacity="0.62" d="M102.429 249.584H100.874V251.079H102.429V249.584Z" fill="#B3B3B3"/>
<path opacity="0.62" d="M104.944 249.584H103.389V251.079H104.944V249.584Z" fill="#CCCCCC"/>
<path opacity="0.62" d="M107.455 249.584H105.899V251.079H107.455V249.584Z" fill="white"/>
<path opacity="0.62" d="M82.319 251.752H80.7637V253.247H82.319V251.752Z" fill="#B3B3B3"/>
<path opacity="0.62" d="M84.8356 251.752H83.2803V253.247H84.8356V251.752Z" fill="#E6E6E6"/>
<path opacity="0.62" d="M87.3493 251.752H85.7939V253.247H87.3493V251.752Z" fill="#CCCCCC"/>
<path opacity="0.62" d="M89.861 251.752H88.3057V253.247H89.861V251.752Z" fill="#B3B3B3"/>
<path opacity="0.62" d="M92.3766 251.752H90.8213V253.247H92.3766V251.752Z" fill="#B3B3B3"/>
<path opacity="0.62" d="M94.8874 251.752H93.332V253.247H94.8874V251.752Z" fill="#CCCCCC"/>
<path opacity="0.62" d="M97.402 251.752H95.8467V253.247H97.402V251.752Z" fill="#CCCCCC"/>
<path opacity="0.62" d="M99.9138 251.752H98.3584V253.247H99.9138V251.752Z" fill="white"/>
<path opacity="0.62" d="M102.429 251.752H100.874V253.247H102.429V251.752Z" fill="#F2F2F2"/>
<path opacity="0.62" d="M104.944 251.752H103.389V253.247H104.944V251.752Z" fill="#CCCCCC"/>
<path opacity="0.62" d="M107.455 251.752H105.899V253.247H107.455V251.752Z" fill="#E6E6E6"/>
<path opacity="0.62" d="M82.319 253.92H80.7637V255.415H82.319V253.92Z" fill="#B3B3B3"/>
<path opacity="0.62" d="M84.8356 253.92H83.2803V255.415H84.8356V253.92Z" fill="white"/>
<path opacity="0.62" d="M87.3493 253.92H85.7939V255.415H87.3493V253.92Z" fill="#B3B3B3"/>
<path opacity="0.62" d="M89.861 253.92H88.3057V255.415H89.861V253.92Z" fill="#E6E6E6"/>
<path opacity="0.62" d="M92.3766 253.92H90.8213V255.415H92.3766V253.92Z" fill="#E6E6E6"/>
<path opacity="0.62" d="M94.8874 253.92H93.332V255.415H94.8874V253.92Z" fill="#B3B3B3"/>
<path opacity="0.62" d="M97.402 253.92H95.8467V255.415H97.402V253.92Z" fill="#CCCCCC"/>
<path opacity="0.62" d="M99.9138 253.92H98.3584V255.415H99.9138V253.92Z" fill="#CCCCCC"/>
<path opacity="0.62" d="M102.429 253.92H100.874V255.415H102.429V253.92Z" fill="#B3B3B3"/>
<path opacity="0.62" d="M104.944 253.92H103.389V255.415H104.944V253.92Z" fill="#CCCCCC"/>
<path opacity="0.62" d="M107.455 253.92H105.899V255.415H107.455V253.92Z" fill="#B3B3B3"/>
<path opacity="0.62" d="M82.319 256.088H80.7637V257.583H82.319V256.088Z" fill="#F2F2F2"/>
<path opacity="0.62" d="M84.8356 256.088H83.2803V257.583H84.8356V256.088Z" fill="#F2F2F2"/>
<path opacity="0.62" d="M87.3493 256.088H85.7939V257.583H87.3493V256.088Z" fill="#E6E6E6"/>
<path opacity="0.62" d="M89.861 256.088H88.3057V257.583H89.861V256.088Z" fill="white"/>
<path opacity="0.62" d="M92.3766 256.088H90.8213V257.583H92.3766V256.088Z" fill="#CCCCCC"/>
<path opacity="0.62" d="M94.8874 256.088H93.332V257.583H94.8874V256.088Z" fill="#F2F2F2"/>
<path opacity="0.62" d="M97.402 256.088H95.8467V257.583H97.402V256.088Z" fill="#E6E6E6"/>
<path opacity="0.62" d="M99.9138 256.088H98.3584V257.583H99.9138V256.088Z" fill="#E6E6E6"/>
<path opacity="0.62" d="M102.429 256.088H100.874V257.583H102.429V256.088Z" fill="#B3B3B3"/>
<path opacity="0.62" d="M104.944 256.088H103.389V257.583H104.944V256.088Z" fill="#CCCCCC"/>
<path opacity="0.62" d="M107.455 256.088H105.899V257.583H107.455V256.088Z" fill="#E6E6E6"/>
<path opacity="0.62" d="M82.319 258.26H80.7637V259.755H82.319V258.26Z" fill="#E6E6E6"/>
<path opacity="0.62" d="M84.8356 258.26H83.2803V259.755H84.8356V258.26Z" fill="#CCCCCC"/>
<path opacity="0.62" d="M87.3493 258.26H85.7939V259.755H87.3493V258.26Z" fill="white"/>
<path opacity="0.62" d="M89.861 258.26H88.3057V259.755H89.861V258.26Z" fill="#F2F2F2"/>
<path opacity="0.62" d="M92.3766 258.26H90.8213V259.755H92.3766V258.26Z" fill="#F2F2F2"/>
<path opacity="0.62" d="M94.8874 258.26H93.332V259.755H94.8874V258.26Z" fill="#F2F2F2"/>
<path opacity="0.62" d="M97.402 258.26H95.8467V259.755H97.402V258.26Z" fill="#CCCCCC"/>
<path opacity="0.62" d="M99.9138 258.26H98.3584V259.755H99.9138V258.26Z" fill="#F2F2F2"/>
<path opacity="0.62" d="M102.429 258.26H100.874V259.755H102.429V258.26Z" fill="#F2F2F2"/>
<path opacity="0.62" d="M104.944 258.26H103.389V259.755H104.944V258.26Z" fill="#F2F2F2"/>
<path opacity="0.62" d="M107.455 258.26H105.899V259.755H107.455V258.26Z" fill="#E6E6E6"/>
<path opacity="0.62" d="M82.319 260.428H80.7637V261.923H82.319V260.428Z" fill="#E6E6E6"/>
<path opacity="0.62" d="M84.8356 260.428H83.2803V261.923H84.8356V260.428Z" fill="#CCCCCC"/>
<path opacity="0.62" d="M87.3493 260.428H85.7939V261.923H87.3493V260.428Z" fill="#E6E6E6"/>
<path opacity="0.62" d="M89.861 260.428H88.3057V261.923H89.861V260.428Z" fill="#F2F2F2"/>
<path opacity="0.62" d="M92.3766 260.428H90.8213V261.923H92.3766V260.428Z" fill="#CCCCCC"/>
<path opacity="0.62" d="M94.8874 260.428H93.332V261.923H94.8874V260.428Z" fill="#CCCCCC"/>
<path opacity="0.62" d="M97.402 260.428H95.8467V261.923H97.402V260.428Z" fill="white"/>
<path opacity="0.62" d="M99.9138 260.428H98.3584V261.923H99.9138V260.428Z" fill="#E6E6E6"/>
<path opacity="0.62" d="M102.429 260.428H100.874V261.923H102.429V260.428Z" fill="#B3B3B3"/>
<path opacity="0.62" d="M104.944 260.428H103.389V261.923H104.944V260.428Z" fill="#E6E6E6"/>
<path opacity="0.62" d="M107.455 260.428H105.899V261.923H107.455V260.428Z" fill="#CCCCCC"/>
<path opacity="0.62" d="M82.319 262.596H80.7637V264.091H82.319V262.596Z" fill="#CCCCCC"/>
<path opacity="0.62" d="M84.8356 262.596H83.2803V264.091H84.8356V262.596Z" fill="#CCCCCC"/>
<path opacity="0.62" d="M87.3493 262.596H85.7939V264.091H87.3493V262.596Z" fill="white"/>
<path opacity="0.62" d="M89.861 262.596H88.3057V264.091H89.861V262.596Z" fill="#F2F2F2"/>
<path opacity="0.62" d="M92.3766 262.596H90.8213V264.091H92.3766V262.596Z" fill="#B3B3B3"/>
<path opacity="0.62" d="M94.8874 262.596H93.332V264.091H94.8874V262.596Z" fill="white"/>
<path opacity="0.62" d="M97.402 262.596H95.8467V264.091H97.402V262.596Z" fill="#E6E6E6"/>
<path opacity="0.62" d="M99.9138 262.596H98.3584V264.091H99.9138V262.596Z" fill="#CCCCCC"/>
<path opacity="0.62" d="M102.429 262.596H100.874V264.091H102.429V262.596Z" fill="#CCCCCC"/>
<path opacity="0.62" d="M104.944 262.596H103.389V264.091H104.944V262.596Z" fill="#B3B3B3"/>
<path opacity="0.62" d="M107.455 262.596H105.899V264.091H107.455V262.596Z" fill="#B3B3B3"/>
<path opacity="0.62" d="M82.319 264.764H80.7637V266.259H82.319V264.764Z" fill="#CCCCCC"/>
<path opacity="0.62" d="M84.8356 264.764H83.2803V266.259H84.8356V264.764Z" fill="white"/>
<path opacity="0.62" d="M87.3493 264.764H85.7939V266.259H87.3493V264.764Z" fill="#E6E6E6"/>
<path opacity="0.62" d="M89.861 264.764H88.3057V266.259H89.861V264.764Z" fill="#B3B3B3"/>
<path opacity="0.62" d="M92.3766 264.764H90.8213V266.259H92.3766V264.764Z" fill="#F2F2F2"/>
<path opacity="0.62" d="M94.8874 264.764H93.332V266.259H94.8874V264.764Z" fill="white"/>
<path opacity="0.62" d="M97.402 264.764H95.8467V266.259H97.402V264.764Z" fill="#CCCCCC"/>
<path opacity="0.62" d="M99.9138 264.764H98.3584V266.259H99.9138V264.764Z" fill="#CCCCCC"/>
<path opacity="0.62" d="M102.429 264.764H100.874V266.259H102.429V264.764Z" fill="#E6E6E6"/>
<path opacity="0.62" d="M104.944 264.764H103.389V266.259H104.944V264.764Z" fill="#CCCCCC"/>
<path opacity="0.62" d="M107.455 264.764H105.899V266.259H107.455V264.764Z" fill="#CCCCCC"/>
<path opacity="0.62" d="M82.319 266.932H80.7637V268.427H82.319V266.932Z" fill="#B3B3B3"/>
<path opacity="0.62" d="M84.8356 266.932H83.2803V268.427H84.8356V266.932Z" fill="#E6E6E6"/>
<path opacity="0.62" d="M87.3493 266.932H85.7939V268.427H87.3493V266.932Z" fill="#E6E6E6"/>
<path opacity="0.62" d="M89.861 266.932H88.3057V268.427H89.861V266.932Z" fill="#E6E6E6"/>
<path opacity="0.62" d="M92.3766 266.932H90.8213V268.427H92.3766V266.932Z" fill="#CCCCCC"/>
<path opacity="0.62" d="M94.8874 266.932H93.332V268.427H94.8874V266.932Z" fill="#CCCCCC"/>
<path opacity="0.62" d="M97.402 266.932H95.8467V268.427H97.402V266.932Z" fill="#B3B3B3"/>
<path opacity="0.62" d="M99.9138 266.932H98.3584V268.427H99.9138V266.932Z" fill="#CCCCCC"/>
<path opacity="0.62" d="M102.429 266.932H100.874V268.427H102.429V266.932Z" fill="white"/>
<path opacity="0.62" d="M104.944 266.932H103.389V268.427H104.944V266.932Z" fill="white"/>
<path opacity="0.62" d="M107.455 266.932H105.899V268.427H107.455V266.932Z" fill="#CCCCCC"/>
<path opacity="0.62" d="M82.319 269.104H80.7637V270.599H82.319V269.104Z" fill="#B3B3B3"/>
<path opacity="0.62" d="M84.8356 269.104H83.2803V270.599H84.8356V269.104Z" fill="#E6E6E6"/>
<path opacity="0.62" d="M87.3493 269.104H85.7939V270.599H87.3493V269.104Z" fill="#E6E6E6"/>
<path opacity="0.62" d="M89.861 269.104H88.3057V270.599H89.861V269.104Z" fill="#CCCCCC"/>
<path opacity="0.62" d="M92.3766 269.104H90.8213V270.599H92.3766V269.104Z" fill="#E6E6E6"/>
<path opacity="0.62" d="M94.8874 269.104H93.332V270.599H94.8874V269.104Z" fill="#B3B3B3"/>
<path opacity="0.62" d="M97.402 269.104H95.8467V270.599H97.402V269.104Z" fill="#CCCCCC"/>
<path opacity="0.62" d="M99.9138 269.104H98.3584V270.599H99.9138V269.104Z" fill="#B3B3B3"/>
<path opacity="0.62" d="M102.429 269.104H100.874V270.599H102.429V269.104Z" fill="white"/>
<path opacity="0.62" d="M104.944 269.104H103.389V270.599H104.944V269.104Z" fill="white"/>
<path opacity="0.62" d="M107.455 269.104H105.899V270.599H107.455V269.104Z" fill="#CCCCCC"/>
<path opacity="0.62" d="M82.319 271.272H80.7637V272.767H82.319V271.272Z" fill="#E6E6E6"/>
<path opacity="0.62" d="M84.8356 271.272H83.2803V272.767H84.8356V271.272Z" fill="#E6E6E6"/>
<path opacity="0.62" d="M87.3493 271.272H85.7939V272.767H87.3493V271.272Z" fill="#CCCCCC"/>
<path opacity="0.62" d="M89.861 271.272H88.3057V272.767H89.861V271.272Z" fill="white"/>
<path opacity="0.62" d="M92.3766 271.272H90.8213V272.767H92.3766V271.272Z" fill="#B3B3B3"/>
<path opacity="0.62" d="M94.8874 271.272H93.332V272.767H94.8874V271.272Z" fill="white"/>
<path opacity="0.62" d="M97.402 271.272H95.8467V272.767H97.402V271.272Z" fill="#CCCCCC"/>
<path opacity="0.62" d="M99.9138 271.272H98.3584V272.767H99.9138V271.272Z" fill="#E6E6E6"/>
<path opacity="0.62" d="M102.429 271.272H100.874V272.767H102.429V271.272Z" fill="#B3B3B3"/>
<path opacity="0.62" d="M104.944 271.272H103.389V272.767H104.944V271.272Z" fill="#CCCCCC"/>
<path opacity="0.62" d="M107.455 271.272H105.899V272.767H107.455V271.272Z" fill="#B3B3B3"/>
<path opacity="0.62" d="M82.319 273.44H80.7637V274.935H82.319V273.44Z" fill="#CCCCCC"/>
<path opacity="0.62" d="M84.8356 273.44H83.2803V274.935H84.8356V273.44Z" fill="#B3B3B3"/>
<path opacity="0.62" d="M87.3493 273.44H85.7939V274.935H87.3493V273.44Z" fill="#E6E6E6"/>
<path opacity="0.62" d="M89.861 273.44H88.3057V274.935H89.861V273.44Z" fill="#CCCCCC"/>
<path opacity="0.62" d="M92.3766 273.44H90.8213V274.935H92.3766V273.44Z" fill="#E6E6E6"/>
<path opacity="0.62" d="M94.8874 273.44H93.332V274.935H94.8874V273.44Z" fill="#F2F2F2"/>
<path opacity="0.62" d="M97.402 273.44H95.8467V274.935H97.402V273.44Z" fill="#B3B3B3"/>
<path opacity="0.62" d="M99.9138 273.44H98.3584V274.935H99.9138V273.44Z" fill="#CCCCCC"/>
<path opacity="0.62" d="M102.429 273.44H100.874V274.935H102.429V273.44Z" fill="#E6E6E6"/>
<path opacity="0.62" d="M104.944 273.44H103.389V274.935H104.944V273.44Z" fill="#CCCCCC"/>
<path opacity="0.62" d="M107.455 273.44H105.899V274.935H107.455V273.44Z" fill="#E6E6E6"/>
<path opacity="0.62" d="M82.319 275.608H80.7637V277.103H82.319V275.608Z" fill="#CCCCCC"/>
<path opacity="0.62" d="M84.8356 275.608H83.2803V277.103H84.8356V275.608Z" fill="#E6E6E6"/>
<path opacity="0.62" d="M87.3493 275.608H85.7939V277.103H87.3493V275.608Z" fill="white"/>
<path opacity="0.62" d="M89.861 275.608H88.3057V277.103H89.861V275.608Z" fill="#CCCCCC"/>
<path opacity="0.62" d="M92.3766 275.608H90.8213V277.103H92.3766V275.608Z" fill="#CCCCCC"/>
<path opacity="0.62" d="M94.8874 275.608H93.332V277.103H94.8874V275.608Z" fill="#E6E6E6"/>
<path opacity="0.62" d="M97.402 275.608H95.8467V277.103H97.402V275.608Z" fill="#B3B3B3"/>
<path opacity="0.62" d="M99.9138 275.608H98.3584V277.103H99.9138V275.608Z" fill="#CCCCCC"/>
<path opacity="0.62" d="M102.429 275.608H100.874V277.103H102.429V275.608Z" fill="#B3B3B3"/>
<path opacity="0.62" d="M104.944 275.608H103.389V277.103H104.944V275.608Z" fill="#B3B3B3"/>
<path opacity="0.62" d="M107.455 275.608H105.899V277.103H107.455V275.608Z" fill="#B3B3B3"/>
<path opacity="0.62" d="M82.319 277.776H80.7637V279.271H82.319V277.776Z" fill="#B3B3B3"/>
<path opacity="0.62" d="M84.8356 277.776H83.2803V279.271H84.8356V277.776Z" fill="white"/>
<path opacity="0.62" d="M87.3493 277.776H85.7939V279.271H87.3493V277.776Z" fill="#E6E6E6"/>
<path opacity="0.62" d="M89.861 277.776H88.3057V279.271H89.861V277.776Z" fill="#B3B3B3"/>
<path opacity="0.62" d="M92.3766 277.776H90.8213V279.271H92.3766V277.776Z" fill="#CCCCCC"/>
<path opacity="0.62" d="M94.8874 277.776H93.332V279.271H94.8874V277.776Z" fill="#E6E6E6"/>
<path opacity="0.62" d="M97.402 277.776H95.8467V279.271H97.402V277.776Z" fill="white"/>
<path opacity="0.62" d="M99.9138 277.776H98.3584V279.271H99.9138V277.776Z" fill="#F2F2F2"/>
<path opacity="0.62" d="M102.429 277.776H100.874V279.271H102.429V277.776Z" fill="#CCCCCC"/>
<path opacity="0.62" d="M104.944 277.776H103.389V279.271H104.944V277.776Z" fill="#CCCCCC"/>
<path opacity="0.62" d="M107.455 277.776H105.899V279.271H107.455V277.776Z" fill="#E6E6E6"/>
<path opacity="0.62" d="M82.319 279.948H80.7637V281.443H82.319V279.948Z" fill="#B3B3B3"/>
<path opacity="0.62" d="M84.8356 279.948H83.2803V281.443H84.8356V279.948Z" fill="#F2F2F2"/>
<path opacity="0.62" d="M87.3493 279.948H85.7939V281.443H87.3493V279.948Z" fill="#B3B3B3"/>
<path opacity="0.62" d="M89.861 279.948H88.3057V281.443H89.861V279.948Z" fill="#F2F2F2"/>
<path opacity="0.62" d="M92.3766 279.948H90.8213V281.443H92.3766V279.948Z" fill="#E6E6E6"/>
<path opacity="0.62" d="M94.8874 279.948H93.332V281.443H94.8874V279.948Z" fill="#F2F2F2"/>
<path opacity="0.62" d="M97.402 279.948H95.8467V281.443H97.402V279.948Z" fill="#E6E6E6"/>
<path opacity="0.62" d="M99.9138 279.948H98.3584V281.443H99.9138V279.948Z" fill="#F2F2F2"/>
<path opacity="0.62" d="M102.429 279.948H100.874V281.443H102.429V279.948Z" fill="#CCCCCC"/>
<path opacity="0.62" d="M104.944 279.948H103.389V281.443H104.944V279.948Z" fill="#B3B3B3"/>
<path opacity="0.62" d="M107.455 279.948H105.899V281.443H107.455V279.948Z" fill="white"/>
<path opacity="0.62" d="M82.319 282.117H80.7637V283.612H82.319V282.117Z" fill="#CCCCCC"/>
<path opacity="0.62" d="M84.8356 282.117H83.2803V283.612H84.8356V282.117Z" fill="#B3B3B3"/>
<path opacity="0.62" d="M87.3493 282.117H85.7939V283.612H87.3493V282.117Z" fill="#CCCCCC"/>
<path opacity="0.62" d="M89.861 282.117H88.3057V283.612H89.861V282.117Z" fill="#CCCCCC"/>
<path opacity="0.62" d="M92.3766 282.117H90.8213V283.612H92.3766V282.117Z" fill="#CCCCCC"/>
<path opacity="0.62" d="M94.8874 282.117H93.332V283.612H94.8874V282.117Z" fill="white"/>
<path opacity="0.62" d="M97.402 282.117H95.8467V283.612H97.402V282.117Z" fill="#CCCCCC"/>
<path opacity="0.62" d="M99.9138 282.117H98.3584V283.612H99.9138V282.117Z" fill="#E6E6E6"/>
<path opacity="0.62" d="M102.429 282.117H100.874V283.612H102.429V282.117Z" fill="#CCCCCC"/>
<path opacity="0.62" d="M104.944 282.117H103.389V283.612H104.944V282.117Z" fill="#E6E6E6"/>
<path opacity="0.62" d="M107.455 282.117H105.899V283.612H107.455V282.117Z" fill="#E6E6E6"/>
<path opacity="0.62" d="M82.319 284.284H80.7637V285.779H82.319V284.284Z" fill="#CCCCCC"/>
<path opacity="0.62" d="M84.8356 284.284H83.2803V285.779H84.8356V284.284Z" fill="#CCCCCC"/>
<path opacity="0.62" d="M87.3493 284.284H85.7939V285.779H87.3493V284.284Z" fill="#CCCCCC"/>
<path opacity="0.62" d="M89.861 284.284H88.3057V285.779H89.861V284.284Z" fill="white"/>
<path opacity="0.62" d="M92.3766 284.284H90.8213V285.779H92.3766V284.284Z" fill="#E6E6E6"/>
<path opacity="0.62" d="M94.8874 284.284H93.332V285.779H94.8874V284.284Z" fill="#CCCCCC"/>
<path opacity="0.62" d="M97.402 284.284H95.8467V285.779H97.402V284.284Z" fill="#E6E6E6"/>
<path opacity="0.62" d="M99.9138 284.284H98.3584V285.779H99.9138V284.284Z" fill="#CCCCCC"/>
<path opacity="0.62" d="M102.429 284.284H100.874V285.779H102.429V284.284Z" fill="#B3B3B3"/>
<path opacity="0.62" d="M104.944 284.284H103.389V285.779H104.944V284.284Z" fill="#B3B3B3"/>
<path opacity="0.62" d="M107.455 284.284H105.899V285.779H107.455V284.284Z" fill="#CCCCCC"/>
<path opacity="0.62" d="M82.319 286.452H80.7637V287.947H82.319V286.452Z" fill="#CCCCCC"/>
<path opacity="0.62" d="M84.8356 286.452H83.2803V287.947H84.8356V286.452Z" fill="#E6E6E6"/>
<path opacity="0.62" d="M87.3493 286.452H85.7939V287.947H87.3493V286.452Z" fill="#E6E6E6"/>
<path opacity="0.62" d="M89.861 286.452H88.3057V287.947H89.861V286.452Z" fill="#CCCCCC"/>
<path opacity="0.62" d="M92.3766 286.452H90.8213V287.947H92.3766V286.452Z" fill="#E6E6E6"/>
<path opacity="0.62" d="M94.8874 286.452H93.332V287.947H94.8874V286.452Z" fill="#F2F2F2"/>
<path opacity="0.62" d="M97.402 286.452H95.8467V287.947H97.402V286.452Z" fill="#CCCCCC"/>
<path opacity="0.62" d="M99.9138 286.452H98.3584V287.947H99.9138V286.452Z" fill="#CCCCCC"/>
<path opacity="0.62" d="M102.429 286.452H100.874V287.947H102.429V286.452Z" fill="#E6E6E6"/>
<path opacity="0.62" d="M104.944 286.452H103.389V287.947H104.944V286.452Z" fill="#CCCCCC"/>
<path opacity="0.62" d="M107.455 286.452H105.899V287.947H107.455V286.452Z" fill="#CCCCCC"/>
<path opacity="0.62" d="M82.319 288.62H80.7637V290.115H82.319V288.62Z" fill="white"/>
<path opacity="0.62" d="M84.8356 288.62H83.2803V290.115H84.8356V288.62Z" fill="#CCCCCC"/>
<path opacity="0.62" d="M87.3493 288.62H85.7939V290.115H87.3493V288.62Z" fill="#E6E6E6"/>
<path opacity="0.62" d="M89.861 288.62H88.3057V290.115H89.861V288.62Z" fill="#E6E6E6"/>
<path opacity="0.62" d="M92.3766 288.62H90.8213V290.115H92.3766V288.62Z" fill="#B3B3B3"/>
<path opacity="0.62" d="M94.8874 288.62H93.332V290.115H94.8874V288.62Z" fill="#B3B3B3"/>
<path opacity="0.62" d="M97.402 288.62H95.8467V290.115H97.402V288.62Z" fill="#E6E6E6"/>
<path opacity="0.62" d="M99.9138 288.62H98.3584V290.115H99.9138V288.62Z" fill="#CCCCCC"/>
<path opacity="0.62" d="M102.429 288.62H100.874V290.115H102.429V288.62Z" fill="#B3B3B3"/>
<path opacity="0.62" d="M104.944 288.62H103.389V290.115H104.944V288.62Z" fill="#E6E6E6"/>
<path opacity="0.62" d="M107.455 288.62H105.899V290.115H107.455V288.62Z" fill="#CCCCCC"/>
<path opacity="0.62" d="M82.319 290.793H80.7637V292.288H82.319V290.793Z" fill="#CCCCCC"/>
<path opacity="0.62" d="M84.8356 290.793H83.2803V292.288H84.8356V290.793Z" fill="#CCCCCC"/>
<path opacity="0.62" d="M87.3493 290.793H85.7939V292.288H87.3493V290.793Z" fill="#E6E6E6"/>
<path opacity="0.62" d="M89.861 290.793H88.3057V292.288H89.861V290.793Z" fill="#E6E6E6"/>
<path opacity="0.62" d="M92.3766 290.793H90.8213V292.288H92.3766V290.793Z" fill="#CCCCCC"/>
<path opacity="0.62" d="M94.8874 290.793H93.332V292.288H94.8874V290.793Z" fill="#E6E6E6"/>
<path opacity="0.62" d="M97.402 290.793H95.8467V292.288H97.402V290.793Z" fill="#E6E6E6"/>
<path opacity="0.62" d="M99.9138 290.793H98.3584V292.288H99.9138V290.793Z" fill="#F2F2F2"/>
<path opacity="0.62" d="M102.429 290.793H100.874V292.288H102.429V290.793Z" fill="#F2F2F2"/>
<path opacity="0.62" d="M104.944 290.793H103.389V292.288H104.944V290.793Z" fill="#B3B3B3"/>
<path opacity="0.62" d="M107.455 290.793H105.899V292.288H107.455V290.793Z" fill="#CCCCCC"/>
<path opacity="0.62" d="M82.319 292.96H80.7637V294.455H82.319V292.96Z" fill="#CCCCCC"/>
<path opacity="0.62" d="M84.8356 292.96H83.2803V294.455H84.8356V292.96Z" fill="white"/>
<path opacity="0.62" d="M87.3493 292.96H85.7939V294.455H87.3493V292.96Z" fill="#CCCCCC"/>
<path opacity="0.62" d="M89.861 292.96H88.3057V294.455H89.861V292.96Z" fill="#CCCCCC"/>
<path opacity="0.62" d="M92.3766 292.96H90.8213V294.455H92.3766V292.96Z" fill="#B3B3B3"/>
<path opacity="0.62" d="M94.8874 292.96H93.332V294.455H94.8874V292.96Z" fill="#CCCCCC"/>
<path opacity="0.62" d="M97.402 292.96H95.8467V294.455H97.402V292.96Z" fill="#CCCCCC"/>
<path opacity="0.62" d="M99.9138 292.96H98.3584V294.455H99.9138V292.96Z" fill="#B3B3B3"/>
<path opacity="0.62" d="M102.429 292.96H100.874V294.455H102.429V292.96Z" fill="#CCCCCC"/>
<path opacity="0.62" d="M104.944 292.96H103.389V294.455H104.944V292.96Z" fill="#CCCCCC"/>
<path opacity="0.62" d="M107.455 292.96H105.899V294.455H107.455V292.96Z" fill="#E6E6E6"/>
</g>
<path d="M304.726 210.635L304.711 176.248V145.311H304.696L304.691 127.642H304.646L304.631 84.5634H303.051V81.9389H301.36V75.2382H297.439V75.2142L297.269 66.7783L297.229 64.5384H297.99V64.375H297.229L297.124 58.3232H296.699L296.574 64.375H295.879V64.5384H296.574L296.529 66.7783L296.364 75.2142V75.2382H292.398V81.9389H290.708V84.5634H289.128L289.138 115.057H285.467V124.104H282.816V127.642H280.326L280.341 157.073H278.555V160.645L273.479 163.197V161.279H270.733V321.705H272.119H273.479H278.555H281.301H294.144H296.889H301.965H303.326H304.711V210.635H304.726Z" fill="#0A0024"/>
<g opacity="0.88">
<path opacity="0.88" d="M278.266 174.561H277.626V297.469H278.266V174.561Z" fill="#C7DBD9"/>
<path opacity="0.88" d="M285.012 174.561H284.372V297.469H285.012V174.561Z" fill="#C7DBD9"/>
<path opacity="0.88" d="M291.729 134.068H291.068V297.498H291.709L291.729 134.068Z" fill="#C7DBD9"/>
<path opacity="0.88" d="M295.07 134.068H294.43V297.498H295.07V134.068Z" fill="#C7DBD9"/>
<path opacity="0.88" d="M298.451 134.068H297.806V297.498H298.451V134.068Z" fill="#C7DBD9"/>
<path opacity="0.88" d="M288.374 134.068H287.729V297.498H288.374V134.068Z" fill="#C7DBD9"/>
<path opacity="0.88" d="M281.626 174.561H280.986V297.469H281.626V174.561Z" fill="#C7DBD9"/>
</g>
<path d="M197.751 229.064H193.965V224.205H194.475V223.426H190.994V220.643H191.299V220.033H189.799V217.374H188.379H188.148V207.924H187.998H187.793H187.613V217.374H186.928V212.101H186.778H186.598H186.398V217.374H184.748V220.033H183.017V220.643H183.552V223.426H180.097V224.205H180.582V229.064H176.796V229.872H177.331V326.56H197.216V229.872H197.751V229.064Z" fill="#0D0030"/>
<path d="M188.224 239.755H187.438V241.389H188.224V239.755Z" fill="#C7DBD9"/>
<path d="M191.044 239.755H190.259V241.389H191.044V239.755Z" fill="#C7DBD9"/>
<path d="M194.319 239.755H193.544V241.389H194.329L194.319 239.755Z" fill="#C7DBD9"/>
<path d="M182.002 239.755H181.217V241.389H182.002V239.755Z" fill="#C7DBD9"/>
<path d="M184.798 239.755H184.008V241.389H184.798V239.755Z" fill="#C7DBD9"/>
<path d="M188.224 242.586H187.438V244.225H188.224V242.586Z" fill="#C7DBD9"/>
<path d="M191.044 242.586H190.259V244.225H191.044V242.586Z" fill="#C7DBD9"/>
<path d="M194.319 242.586H193.544V244.225H194.329L194.319 242.586Z" fill="#C7DBD9"/>
<path d="M182.002 242.586H181.217V244.225H182.002V242.586Z" fill="#C7DBD9"/>
<path d="M184.798 242.586H184.008V244.225H184.798V242.586Z" fill="#C7DBD9"/>
<path d="M188.224 245.417H187.438V247.056H188.224V245.417Z" fill="#C7DBD9"/>
<path d="M191.044 245.417H190.259V247.056H191.044V245.417Z" fill="#C7DBD9"/>
<path d="M194.319 245.417H193.544V247.056H194.329L194.319 245.417Z" fill="#C7DBD9"/>
<path d="M182.002 245.417H181.217V247.056H182.002V245.417Z" fill="#C7DBD9"/>
<path d="M184.798 245.417H184.008V247.056H184.798V245.417Z" fill="#C7DBD9"/>
<path d="M188.147 248.248H187.362V249.911H188.147V248.248Z" fill="#C7DBD9"/>
<path d="M190.969 248.248H190.179V249.911H190.969V248.248Z" fill="#C7DBD9"/>
<path d="M194.245 248.248H193.46V249.911H194.245V248.248Z" fill="#C7DBD9"/>
<path d="M181.927 248.248H181.142V249.911H181.927V248.248Z" fill="#C7DBD9"/>
<path d="M184.723 248.248H183.933V249.911H184.723V248.248Z" fill="#C7DBD9"/>
<path d="M188.148 251.084H187.363V252.719H188.148V251.084Z" fill="#C7DBD9"/>
<path d="M190.969 251.084H190.179V252.719H190.969V251.084Z" fill="#C7DBD9"/>
<path d="M194.245 251.084H193.46V252.719H194.245V251.084Z" fill="#C7DBD9"/>
<path d="M181.927 251.084H181.142V252.719H181.927V251.084Z" fill="#C7DBD9"/>
<path d="M184.723 251.084H183.933V252.719H184.723V251.084Z" fill="#C7DBD9"/>
<path d="M188.148 253.916H187.363V255.55H188.148V253.916Z" fill="#C7DBD9"/>
<path d="M190.969 253.916H190.179V255.55H190.969V253.916Z" fill="#C7DBD9"/>
<path d="M194.245 253.916H193.46V255.55H194.245V253.916Z" fill="#C7DBD9"/>
<path d="M181.927 253.916H181.142V255.55H181.927V253.916Z" fill="#C7DBD9"/>
<path d="M184.723 253.916H183.933V255.55H184.723V253.916Z" fill="#C7DBD9"/>
</g>
</g>
<defs>
<linearGradient id="paint0_linear_1526_7323" x1="218.135" y1="185.361" x2="218.135" y2="275.147" gradientUnits="userSpaceOnUse">
<stop stop-color="#4F044A"/>
<stop offset="1" stop-color="#0D0030"/>
</linearGradient>
<linearGradient id="paint1_linear_1526_7323" x1="386.834" y1="301.358" x2="386.834" y2="119.403" gradientUnits="userSpaceOnUse">
<stop stop-color="#071859"/>
<stop offset="0.74" stop-color="#000037"/>
</linearGradient>
<linearGradient id="paint2_linear_1526_7323" x1="42764" y1="106152" x2="42764" y2="49906.7" gradientUnits="userSpaceOnUse">
<stop stop-color="#071859"/>
<stop offset="0.74" stop-color="#000037"/>
</linearGradient>
<linearGradient id="paint3_linear_1526_7323" x1="-9457.27" y1="-54749" x2="-9457.27" y2="-20664.1" gradientUnits="userSpaceOnUse">
<stop stop-color="#120055"/>
<stop offset="0.7" stop-color="#10002A"/>
</linearGradient>
</defs>
</svg>
