<svg width="1085" height="101" viewBox="0 0 1085 101" fill="none" xmlns="http://www.w3.org/2000/svg">
<path d="M1084.67 88.1602H0.644287V100.962H1084.67V88.1602Z" fill="#00005C"/>
<path d="M865.856 52.9855H858.886V50.6628H859.819V50.2894H853.416V48.9227H853.975V48.6314H851.217V47.3469H848.598H848.179V42.8359H847.899H847.526H847.2V47.3469H845.933V44.8225H845.653H845.327H844.954V47.3469H841.916V48.6314H838.73V48.9227H839.717V50.2894H833.353V50.6628H834.246V52.9855H827.276V53.3589H828.255V89.6555H864.87V53.3589H865.856V52.9855Z" fill="#020247"/>
<path d="M426.827 33.6939H415.062V29.773H416.64V29.1456H405.816V26.8379H406.764V26.345H402.101V24.1716H397.68H396.973V16.5464H396.499H395.869H395.31V24.1716H393.181V19.9072H392.707H392.155H391.518V24.1716H386.382V26.345H381.012V26.8379H382.667V29.1456H371.929V29.773H373.428V33.6939H361.656V34.3287H363.319V95.6371H425.172V34.3287H426.827V33.6939Z" fill="#000068"/>
<path d="M607.973 30.8946V17.5068H593.302V12.3836H585.47V8.14534H582.711V0.753418H581.934V8.14534H579.175V12.3836H571.358V17.5068H556.82V30.8946H553.751V55.2642H531.216V82.9871H610.918V30.8946H607.973Z" fill="#00005C"/>
<path d="M368.334 56.2114H305.339V89.282H368.334V56.2114Z" fill="#00005C"/>
<path d="M295.819 73.2017H187.5V89.282H295.819V73.2017Z" fill="#00005C"/>
<path d="M269.4 37.1147H245.607V76.7046H269.4V37.1147Z" fill="#00005C"/>
<path d="M252.064 26.5815H250.806V48.0967H252.064V26.5815Z" fill="#00005C"/>
<path d="M256.136 28.1895H254.878V49.7046H256.136V28.1895Z" fill="#00005C"/>
<path d="M261.963 34.709H247.425V40.0442H261.963V34.709Z" fill="#00005C"/>
<path d="M332.985 62.145H291.615V89.282H332.985V62.145Z" fill="#00005C"/>
<path d="M401.055 61.0483H364.448V89.2823H401.055V61.0483Z" fill="#00005C"/>
<path d="M144.25 60.0137H102.25V89.2823H144.25V60.0137Z" fill="#00005C"/>
<path d="M123.245 77.939H79.3735V89.2825H123.245V77.939Z" fill="#00005C"/>
<path d="M83.5691 73.2017H62.822V89.282H83.5691V73.2017Z" fill="#00005C"/>
<path d="M73.1651 83.6479H37.6853V89.2823H73.1651V83.6479Z" fill="#00005C"/>
<path d="M886.032 76.7666H448.634V89.4065H886.032V76.7666Z" fill="#00005C"/>
<path d="M931.348 56.5732H863.745V89.2823H931.348V56.5732Z" fill="#00005C"/>
<path d="M989.013 69.3125H921.411V89.1324H989.013V69.3125Z" fill="#00005C"/>
<path d="M697.42 66.3833H659.477V82.987H697.405L697.42 66.3833Z" fill="#00005C"/>
<path d="M1024 89.2821H960.969V52.0107H1008.73L1024 89.2821Z" fill="#00005C"/>
<path d="M1051.57 80.793H996.401V89.2818H1051.57V80.793Z" fill="#00005C"/>
<path d="M986.068 49.0439H963.534V54.8902H986.068V49.0439Z" fill="#00005C"/>
<path d="M983.566 46.9248H965.95V50.2157H983.566V46.9248Z" fill="#00005C"/>
<path d="M999.293 50.7642H994.965V53.1076H999.293V50.7642Z" fill="#00005C"/>
<path d="M1007.06 48.6079H1000.85V53.1452H1007.06V48.6079Z" fill="#00005C"/>
</svg>
