<svg width="1920" height="1707" viewBox="0 0 1920 1707" fill="none" xmlns="http://www.w3.org/2000/svg">
<g filter="url(#filter0_b_749_16223)">
<path d="M1920 1707H-64V0H1920V1707Z" fill="url(#paint0_linear_749_16223)"/>
<g opacity="0.5">
<path d="M143.4 1516.9H142.3V759H143.4V1516.9Z" fill="#2084FA"/>
<path d="M144.9 1518.4H140.8V757.5H144.9V1518.4Z" fill="#2084FA"/>
<path d="M331.8 1516.9H330.7V759H331.8V1516.9Z" fill="#2084FA"/>
<path d="M333.3 1518.4H329.2V757.5H333.3V1518.4Z" fill="#2084FA"/>
<path d="M520.2 1516.9H519.1V759H520.2V1516.9Z" fill="#2084FA"/>
<path d="M521.7 1518.4H517.6V757.5H521.7V1518.4Z" fill="#2084FA"/>
<path d="M708.6 1516.9H707.5V759H708.6V1516.9Z" fill="#2084FA"/>
<path d="M710.1 1518.4H706V757.5H710.1V1518.4Z" fill="#2084FA"/>
<path d="M897 1516.9H895.9V759H897V1516.9Z" fill="#2084FA"/>
<path d="M898.5 1518.4H894.4V757.5H898.5V1518.4Z" fill="#2084FA"/>
<path d="M1085.4 1516.9H1084.3V759H1085.4V1516.9Z" fill="#2084FA"/>
<path d="M1086.9 1518.4H1082.8V757.5H1086.9V1518.4Z" fill="#2084FA"/>
<path d="M1273.8 1516.9H1272.7V759H1273.8V1516.9Z" fill="#2084FA"/>
<path d="M1275.3 1518.4H1271.2V757.5H1275.3V1518.4Z" fill="#2084FA"/>
<path d="M1462.2 1516.9H1461.1V759H1462.2V1516.9Z" fill="#2084FA"/>
<path d="M1463.7 1518.4H1459.6V757.5H1463.7V1518.4Z" fill="#2084FA"/>
<path d="M1650.7 1516.9H1649.6V759H1650.7V1516.9Z" fill="#2084FA"/>
<path d="M1652.2 1518.4H1648.1V757.5H1652.2V1518.4Z" fill="#2084FA"/>
<path d="M1839.1 1516.9H1838V759H1839.1V1516.9Z" fill="#2084FA"/>
<path d="M1840.6 1518.4H1836.5V757.5H1840.6V1518.4Z" fill="#2084FA"/>
<path d="M2969.5 1516.9H-1176.5V1515.9H2969.5V1516.9Z" fill="#2084FA"/>
<path d="M2971 1518.4H-1178V1514.4H2971V1518.4Z" fill="#2084FA"/>
<path d="M2969.5 1327.6H-1176.5V1326.6H2969.5V1327.6Z" fill="#2084FA"/>
<path d="M2971 1329.1H-1178V1325.1H2971V1329.1Z" fill="#2084FA"/>
<path d="M2969.5 1138.2H-1176.5V1137.2H2969.5V1138.2Z" fill="#2084FA"/>
<path d="M2971 1139.7H-1178V1135.7H2971V1139.7Z" fill="#2084FA"/>
<path d="M2969.5 948.8H-1176.5V947.8H2969.5V948.8Z" fill="#2084FA"/>
<path d="M2971 950.3H-1178V946.3H2971V950.3Z" fill="#2084FA"/>
<path d="M2969.5 759.5H-1176.5V758.5H2969.5V759.5Z" fill="#2084FA"/>
<path d="M2971 761H-1178V757H2971V761Z" fill="#2084FA"/>
</g>
<g opacity="0.5">
<path d="M143.4 1706.4H142.3V948.5H143.4V1706.4Z" fill="#2084FA"/>
<path d="M144.9 1707.9H140.8V947H144.9V1707.9Z" fill="#2084FA"/>
<path d="M331.8 1706.4H330.7V948.5H331.8V1706.4Z" fill="#2084FA"/>
<path d="M333.3 1707.9H329.2V947H333.3V1707.9Z" fill="#2084FA"/>
<path d="M520.2 1706.4H519.1V948.5H520.2V1706.4Z" fill="#2084FA"/>
<path d="M521.7 1707.9H517.6V947H521.7V1707.9Z" fill="#2084FA"/>
<path d="M708.6 1706.4H707.5V948.5H708.6V1706.4Z" fill="#2084FA"/>
<path d="M710.1 1707.9H706V947H710.1V1707.9Z" fill="#2084FA"/>
<path d="M897 1706.4H895.9V948.5H897V1706.4Z" fill="#2084FA"/>
<path d="M898.5 1707.9H894.4V947H898.5V1707.9Z" fill="#2084FA"/>
<path d="M1085.4 1706.4H1084.3V948.5H1085.4V1706.4Z" fill="#2084FA"/>
<path d="M1086.9 1707.9H1082.8V947H1086.9V1707.9Z" fill="#2084FA"/>
<path d="M1273.8 1706.4H1272.7V948.5H1273.8V1706.4Z" fill="#2084FA"/>
<path d="M1275.3 1707.9H1271.2V947H1275.3V1707.9Z" fill="#2084FA"/>
<path d="M1462.2 1706.4H1461.1V948.5H1462.2V1706.4Z" fill="#2084FA"/>
<path d="M1463.7 1707.9H1459.6V947H1463.7V1707.9Z" fill="#2084FA"/>
<path d="M1650.7 1706.4H1649.6V948.5H1650.7V1706.4Z" fill="#2084FA"/>
<path d="M1652.2 1707.9H1648.1V947H1652.2V1707.9Z" fill="#2084FA"/>
<path d="M1839.1 1706.4H1838V948.5H1839.1V1706.4Z" fill="#2084FA"/>
<path d="M1840.6 1707.9H1836.5V947H1840.6V1707.9Z" fill="#2084FA"/>
<path d="M2969.5 1706.4H-1176.5V1705.4H2969.5V1706.4Z" fill="#2084FA"/>
<path d="M2971 1707.9H-1178V1703.9H2971V1707.9Z" fill="#2084FA"/>
<path d="M2969.5 1517.1H-1176.5V1516.1H2969.5V1517.1Z" fill="#2084FA"/>
<path d="M2971 1518.6H-1178V1514.6H2971V1518.6Z" fill="#2084FA"/>
<path d="M2969.5 1327.7H-1176.5V1326.7H2969.5V1327.7Z" fill="#2084FA"/>
<path d="M2971 1329.2H-1178V1325.2H2971V1329.2Z" fill="#2084FA"/>
<path d="M2969.5 1138.3H-1176.5V1137.3H2969.5V1138.3Z" fill="#2084FA"/>
<path d="M2971 1139.8H-1178V1135.8H2971V1139.8Z" fill="#2084FA"/>
<path d="M2969.5 949H-1176.5V948H2969.5V949Z" fill="#2084FA"/>
<path d="M2971 950.5H-1178V946.5H2971V950.5Z" fill="#2084FA"/>
</g>
<g opacity="0.5">
<path d="M143.4 759.9H142.3V1.99988H143.4V759.9Z" fill="#2084FA"/>
<path d="M144.9 761.4H140.8V0.499878H144.9V761.4Z" fill="#2084FA"/>
<path d="M331.8 759.9H330.7V1.99988H331.8V759.9Z" fill="#2084FA"/>
<path d="M333.3 761.4H329.2V0.499878H333.3V761.4Z" fill="#2084FA"/>
<path d="M520.2 759.9H519.1V1.99988H520.2V759.9Z" fill="#2084FA"/>
<path d="M521.7 761.4H517.6V0.499878H521.7V761.4Z" fill="#2084FA"/>
<path d="M708.6 759.9H707.5V1.99988H708.6V759.9Z" fill="#2084FA"/>
<path d="M710.1 761.4H706V0.499878H710.1V761.4Z" fill="#2084FA"/>
<path d="M897 759.9H895.9V1.99988H897V759.9Z" fill="#2084FA"/>
<path d="M898.5 761.4H894.4V0.499878H898.5V761.4Z" fill="#2084FA"/>
<path d="M1085.4 759.9H1084.3V1.99988H1085.4V759.9Z" fill="#2084FA"/>
<path d="M1086.9 761.4H1082.8V0.499878H1086.9V761.4Z" fill="#2084FA"/>
<path d="M1273.8 759.9H1272.7V1.99988H1273.8V759.9Z" fill="#2084FA"/>
<path d="M1275.3 761.4H1271.2V0.499878H1275.3V761.4Z" fill="#2084FA"/>
<path d="M1462.2 759.9H1461.1V1.99988H1462.2V759.9Z" fill="#2084FA"/>
<path d="M1463.7 761.4H1459.6V0.499878H1463.7V761.4Z" fill="#2084FA"/>
<path d="M1650.7 759.9H1649.6V1.99988H1650.7V759.9Z" fill="#2084FA"/>
<path d="M1652.2 761.4H1648.1V0.499878H1652.2V761.4Z" fill="#2084FA"/>
<path d="M1839.1 759.9H1838V1.99988H1839.1V759.9Z" fill="#2084FA"/>
<path d="M1840.6 761.4H1836.5V0.499878H1840.6V761.4Z" fill="#2084FA"/>
<path d="M2969.5 759.9H-1176.5V758.9H2969.5V759.9Z" fill="#2084FA"/>
<path d="M2971 761.4H-1178V757.4H2971V761.4Z" fill="#2084FA"/>
<path d="M2969.5 570.6H-1176.5V569.6H2969.5V570.6Z" fill="#2084FA"/>
<path d="M2971 572.1H-1178V568.1H2971V572.1Z" fill="#2084FA"/>
<path d="M2969.5 381.2H-1176.5V380.2H2969.5V381.2Z" fill="#2084FA"/>
<path d="M2971 382.7H-1178V378.7H2971V382.7Z" fill="#2084FA"/>
<path d="M2969.5 191.8H-1176.5V190.8H2969.5V191.8Z" fill="#2084FA"/>
<path d="M2971 193.3H-1178V189.3H2971V193.3Z" fill="#2084FA"/>
<path d="M2969.5 2.5H-1176.5V1.5H2969.5V2.5Z" fill="#2084FA"/>
<path d="M2971 4H-1178V0H2971V4Z" fill="#2084FA"/>
</g>
</g>
<defs>
<filter id="filter0_b_749_16223" x="-1378" y="-200" width="4549" height="2107.9" filterUnits="userSpaceOnUse" color-interpolation-filters="sRGB">
<feFlood flood-opacity="0" result="BackgroundImageFix"/>
<feGaussianBlur in="BackgroundImage" stdDeviation="100"/>
<feComposite in2="SourceAlpha" operator="in" result="effect1_backgroundBlur_749_16223"/>
<feBlend mode="normal" in="SourceGraphic" in2="effect1_backgroundBlur_749_16223" result="shape"/>
</filter>
<linearGradient id="paint0_linear_749_16223" x1="928" y1="1707" x2="928" y2="0" gradientUnits="userSpaceOnUse">
<stop stop-color="#000022"/>
<stop offset="0.503125" stop-color="#00003E"/>
<stop offset="1" stop-color="#000025"/>
</linearGradient>
</defs>
</svg>
