<svg width="314" height="314" viewBox="0 0 314 314" fill="none" xmlns="http://www.w3.org/2000/svg">
<mask id="mask0_1114_342" style="mask-type:alpha" maskUnits="userSpaceOnUse" x="0" y="0" width="314" height="314">
<circle cx="157" cy="157" r="157" fill="#C4C4C4"/>
</mask>
<g mask="url(#mask0_1114_342)">
<path d="M174.862 36.1542C148.566 32.4485 121.768 37.0133 98.1821 49.2161C74.5961 61.4188 55.3894 80.6554 43.2232 104.26C31.057 127.865 26.5338 154.67 30.2802 180.96C34.0266 207.25 45.8573 231.724 64.1328 250.991C82.4084 270.258 106.224 283.363 132.28 288.492C158.336 293.621 185.341 290.518 209.556 279.615C233.77 268.711 253.993 250.546 267.423 227.637C280.854 204.728 286.826 178.209 284.514 151.754" stroke="white" stroke-width="2" stroke-linecap="round"/>
<path d="M174.862 36.1542C148.566 32.4485 121.768 37.0133 98.1821 49.2161C74.5961 61.4188 55.3894 80.6554 43.2232 104.26C31.057 127.865 26.5338 154.67 30.2802 180.96C34.0266 207.25 45.8573 231.724 64.1328 250.991C82.4084 270.258 106.224 283.363 132.28 288.492C158.336 293.621 185.341 290.518 209.556 279.615C233.77 268.711 253.993 250.546 267.423 227.637C280.854 204.728 286.826 178.209 284.514 151.754" stroke="white" stroke-width="2" stroke-linecap="round"/>
<path d="M202.192 35.433L193.902 32.86L192.018 38.9303L199.96 41.3954L199.229 43.7487L191.287 41.2836L188.822 49.2258L186.335 48.4539L192.145 29.7349L202.922 33.0797L202.192 35.433Z" fill="white"/>
<path d="M207.897 41.4838C209.321 40.2071 211.001 39.9859 212.938 40.8205L211.93 43.1606C210.855 42.6365 209.787 42.5217 208.725 42.8163C207.663 43.1109 206.829 43.9611 206.224 45.3669L203.288 52.1814L201.051 51.2177L206.59 38.36L208.827 39.3238L207.897 41.4838Z" fill="white"/>
<path d="M221.409 59.4882C219.455 59.9979 217.589 59.7394 215.811 58.7126C214.033 57.6857 212.876 56.1987 212.341 54.2513C211.822 52.3134 212.08 50.4472 213.116 48.6529C214.152 46.8586 215.639 45.7019 217.577 45.1828C219.532 44.6731 221.398 44.9316 223.176 45.9584C224.954 46.9853 226.111 48.4723 226.646 50.4197C227.181 52.367 226.931 54.2378 225.895 56.0321C224.858 57.8264 223.363 58.9784 221.409 59.4882ZM217.001 56.6515C218.213 57.3517 219.47 57.5275 220.77 57.1792C222.071 56.8309 223.076 56.0424 223.785 54.8139C224.495 53.5854 224.675 52.3209 224.327 51.0204C223.978 49.7199 223.198 48.7196 221.986 48.0195C220.789 47.3287 219.541 47.1575 218.241 47.5058C216.94 47.8541 215.935 48.6426 215.226 49.8711C214.516 51.0996 214.336 52.3641 214.684 53.6646C215.032 54.9651 215.805 55.9608 217.001 56.6515Z" fill="white"/>
<path d="M240.073 57.2957C241.362 58.3138 242.071 59.5395 242.199 60.9731C242.339 62.3919 241.86 63.7972 240.761 65.1889L235.434 71.9351L233.522 70.4254L238.762 63.7891C239.468 62.8955 239.77 62.0161 239.668 61.1509C239.578 60.271 239.108 59.4956 238.259 58.8246C237.306 58.0727 236.3 57.7656 235.24 57.9035C234.191 58.0268 233.181 58.7037 232.209 59.9343L227.611 65.7575L225.699 64.2478L234.375 53.2606L236.287 54.7702L235.038 56.3524C236.797 55.7203 238.476 56.0348 240.073 57.2957Z" fill="white"/>
<path d="M252.709 72.4416L250.08 69.8034L244.705 75.1589C244.216 75.6463 243.957 76.088 243.93 76.484C243.929 76.88 244.12 77.2829 244.502 77.6928C244.897 78.0895 245.398 78.5656 246.004 79.1211L244.457 80.6626C242.757 79.3526 241.776 78.1298 241.514 76.9942C241.265 75.8454 241.756 74.6584 242.986 73.4332L248.361 68.0777L246.405 66.1139L248.071 64.4539L250.027 66.4177L252.289 64.1649L254.524 65.3768L251.747 68.1434L254.375 70.7816L252.709 72.4416Z" fill="white"/>
<path d="M252.754 78.6251L254.59 77.1555L260.976 85.1346L259.14 86.6042L252.754 78.6251Z" fill="white"/>
<path d="M259.651 96.0059L264.377 103.782L262.271 105.062L256.193 95.0604L272.942 84.8809L278.948 94.7629L276.842 96.0426L272.189 88.3858L267.044 91.5124L271.334 98.571L269.253 99.8362L264.963 92.7776L259.651 96.0059Z" fill="white"/>
<path d="M280.227 109.341C280.88 110.848 280.923 112.263 280.357 113.587C279.808 114.902 278.72 115.913 277.092 116.617L269.204 120.033L268.236 117.798L275.996 114.438C277.041 113.985 277.723 113.354 278.044 112.544C278.382 111.726 278.335 110.821 277.905 109.827C277.423 108.714 276.682 107.967 275.683 107.586C274.701 107.197 273.491 107.314 272.052 107.937L265.243 110.886L264.275 108.65L277.122 103.087L278.09 105.323L276.24 106.124C278.09 106.401 279.418 107.473 280.227 109.341Z" fill="white"/>
<path d="M292.792 130.338L293.418 132.692L274.476 137.728L273.85 135.374L276.177 134.755C274.079 134.057 272.733 132.59 272.138 130.353C271.635 128.459 271.891 126.662 272.907 124.963C273.942 123.258 275.451 122.142 277.435 121.615C279.42 121.087 281.275 121.309 283.001 122.279C284.745 123.245 285.868 124.675 286.372 126.569C286.967 128.806 286.527 130.748 285.053 132.396L292.792 130.338ZM274.491 130.046C274.855 131.417 275.62 132.441 276.784 133.116C277.967 133.787 279.244 133.94 280.615 133.575C281.986 133.211 283.009 132.446 283.685 131.282C284.378 130.112 284.543 128.842 284.178 127.471C283.818 126.118 283.047 125.106 281.865 124.435C280.7 123.76 279.432 123.605 278.061 123.969C276.69 124.334 275.658 125.1 274.964 126.27C274.289 127.435 274.131 128.693 274.491 130.046Z" fill="white"/>
</g>
</svg>
