<svg width="314" height="286" viewBox="0 0 314 286" fill="none" xmlns="http://www.w3.org/2000/svg">
<g style="mix-blend-mode:color-dodge">
<path d="M3.74995 144.29C3.32248 124.196 -3.37448 103.739 2.53881 84.0105C8.49025 67.5749 20.2268 53.9985 35.4537 45.9356C52.1961 36.2531 71.8596 37.8548 88.887 29.0459C96.3771 23.9962 103.518 18.4259 110.26 12.3745C117.536 7.09454 125.811 3.42476 134.555 1.59995C150.287 -0.984059 166.415 1.56326 180.65 8.88003C188.7 12.8113 196.537 17.1065 204.944 20.3098C213.351 23.513 222.043 24.8234 230.378 27.5898C244.02 32.9039 255.939 42.0063 264.789 53.8709C268.272 59.5379 270.237 66.0397 270.489 72.7263C270.633 73.9754 270.847 75.215 271.13 76.4392C279.893 90.1257 292.503 100.755 301.551 114.514C311.376 131.336 315.061 151.167 311.953 170.498C309.816 190.154 296.493 206.898 283.455 221.094C276.331 228.374 270.061 236.747 262.51 243.881C256.215 251.382 250.81 259.617 246.408 268.415C241.8 275.606 234.963 281.007 226.992 283.753C219.021 286.499 210.379 286.43 202.451 283.557C193.474 281.082 185.067 276.933 176.233 273.875C164.573 270.614 152.27 270.614 140.61 273.875C120.465 278.463 99.5631 278.314 79.4827 273.438C61.8674 269.744 45.0005 262.997 29.6117 253.491C-4.65688 230.194 4.17742 180.18 3.74995 144.29Z" fill="url(#paint0_radial_1188_22112)"/>
<g style="mix-blend-mode:multiply" opacity="0.2">
<path d="M3.75006 145.091C3.25135 125.07 -3.37437 104.613 2.25394 84.8843C8.06312 68.4184 19.7073 54.7793 34.8839 46.6639C51.6263 36.8358 71.361 38.2918 88.2459 29.4829C95.7357 24.3796 102.877 18.7609 109.619 12.6659C116.877 7.30855 125.153 3.56386 133.914 1.67303C149.586 -1.05608 165.702 1.28552 180.009 8.3707C188.131 12.2291 195.967 16.5244 204.374 19.6548C212.781 22.7852 221.473 24.0957 229.808 26.9349C243.504 32.1505 255.48 41.2095 264.362 53.0704C267.907 58.7122 269.9 65.2253 270.133 71.9258C270.133 73.1634 270.56 74.3282 270.845 75.5658C279.68 89.2523 292.219 99.8084 301.48 113.495C311.403 130.28 315.189 150.113 312.167 169.479C310.172 189.062 296.921 206.316 283.669 220.439C276.545 227.719 270.418 236.164 262.937 243.372C256.703 250.9 251.37 259.16 247.05 267.978C242.492 275.074 235.764 280.429 227.915 283.208C220.067 285.987 211.539 286.033 203.662 283.339C194.685 280.864 186.207 276.714 177.373 273.802C165.716 270.516 153.407 270.516 141.75 273.802C121.658 278.498 100.787 278.498 80.694 273.802C63.087 270.194 46.2179 263.52 30.8229 254.073C-4.22929 231.141 4.67624 181.054 3.75006 145.091ZM72.5009 80.1522C75.5549 84.1963 79.7618 87.1724 84.5412 88.6699C90.9821 91.1686 96.5074 95.6447 100.357 101.483C104.49 107.817 107.482 114.805 111.187 121.503C113.512 127.071 117.016 132.044 121.446 136.063C124.438 138.174 127.787 139.412 130.779 141.45C135.053 144.362 135.267 148.221 136.265 152.807C136.615 155.061 137.686 157.134 139.31 158.701C140.933 160.268 143.019 161.242 145.241 161.471C152.471 162.716 159.299 165.73 165.142 170.256C170.985 174.781 175.67 180.684 178.797 187.461C169.251 183.092 159.063 177.851 148.59 181.272C148.345 181.337 148.127 181.482 147.972 181.687C147.817 181.891 147.733 182.142 147.733 182.401C147.733 182.66 147.817 182.911 147.972 183.115C148.127 183.319 148.345 183.465 148.59 183.529C155.437 186.382 161.56 190.787 166.497 196.412C171.433 202.036 175.055 208.734 177.088 215.998C178.441 221.677 178.726 238.275 188.059 237.839C193.393 236.538 198.576 234.659 203.519 232.233C210.67 229.542 218.525 229.542 225.676 232.233C229.238 233.762 232.801 237.839 236.862 237.256C242.134 236.455 242.347 228.229 248.474 228.447C252.892 228.447 256.953 229.831 260.8 226.773C264.45 223.627 267.9 220.247 271.13 216.654C280.404 208.094 289.048 198.848 296.992 188.989C305.941 175.191 309.383 158.415 306.61 142.106C305.965 137.498 304.892 132.964 303.404 128.565C299.474 118.163 293.258 108.823 285.237 101.264C280.919 97.5184 276.295 94.1573 271.415 91.218C264.291 86.2675 265.431 79.7882 265.502 71.9986C265.502 71.0522 264.219 70.3241 263.578 71.1977C260.6 75.5419 258.627 80.5206 257.807 85.7579C256.098 76.1482 253.96 64.7913 244.912 60.2776C242.347 59.04 236.862 55.5456 233.941 56.7832C230.537 58.8399 227.521 61.5027 225.035 64.6457C226.602 59.4768 228.669 54.5264 230.093 49.2847C230.159 48.9764 230.108 48.6539 229.949 48.3833C229.79 48.1126 229.536 47.9142 229.238 47.8287C224.323 46.0087 222.114 39.6022 217.412 38.1462C215.481 37.6489 213.484 37.4768 211.499 37.6366C212.47 36.4738 213.518 35.3793 214.633 34.3606C214.779 34.2173 214.885 34.0369 214.94 33.838C214.995 33.6391 214.997 33.4288 214.947 33.2287C214.896 33.0286 214.794 32.8459 214.651 32.6994C214.509 32.5529 214.33 32.4478 214.135 32.3949C210.773 31.2955 207.528 29.8566 204.445 28.0997C206.486 27.991 208.532 27.991 210.572 28.0997C211.926 28.0997 211.997 26.2797 210.572 25.7701C192.334 18.0532 175.876 6.33228 155.572 5.09466C148.447 5.09466 139.969 5.09466 135.837 11.9379C133.059 16.5244 135.837 26.4981 137.405 30.8661C137.761 31.8125 139.328 32.1037 139.613 30.8661C140.145 27.4172 140.502 23.9423 140.682 20.4556C141.327 23.9771 142.405 27.4014 143.888 30.6477C143.962 30.7825 144.061 30.9008 144.18 30.9959C144.3 31.091 144.436 31.1609 144.582 31.2015C144.728 31.2422 144.88 31.2527 145.03 31.2327C145.18 31.2126 145.324 31.1622 145.455 31.0845C149.302 28.8277 153.221 26.4981 157.068 23.8045L155.928 26.4981C155.501 27.4445 156.427 28.9005 157.495 28.0997C161.414 25.1877 171.744 20.8196 176.019 25.9885C180.294 31.1573 172.314 37.491 170.676 41.6406C170.608 41.8848 170.62 42.1449 170.71 42.3814C170.8 42.6179 170.963 42.818 171.174 42.9511C178.299 46.4455 188.415 47.3191 192.548 54.7448C184.483 56.6835 176.082 56.6336 168.04 54.5992L157.21 52.5608C155.429 52.1968 153.007 51.3231 151.297 52.5608C146.88 55.2544 150.371 62.7529 152.223 65.8105C155.087 70.1675 157.703 74.6885 160.06 79.3514C160.06 79.3514 160.06 80.0794 160.06 80.4434C151.653 77.313 147.094 68.4313 139.969 63.2625C139.826 63.1634 139.661 63.1015 139.489 63.082C139.317 63.0625 139.143 63.0859 138.982 63.1504C138.82 63.2149 138.677 63.3184 138.564 63.452C138.45 63.5857 138.37 63.7455 138.331 63.9177C137.849 65.8938 137.609 67.9236 137.618 69.9601C137.606 71.4473 137.487 72.9316 137.262 74.401C136.763 76.6578 134.768 76.1482 134.127 74.401C133.203 70.0263 131.916 65.7398 130.28 61.5881C129.211 59.6224 127.502 57.5112 125.079 58.676C121.161 60.496 119.023 63.8449 114.749 64.3545C115.632 62.0158 116.937 59.8673 118.596 58.0208C118.769 57.7932 118.853 57.5082 118.832 57.221C118.811 56.9337 118.687 56.6646 118.483 56.4655C118.279 56.2664 118.011 56.1515 117.729 56.1429C117.447 56.1344 117.172 56.2328 116.957 56.4192C109.825 62.9393 101.459 67.8948 92.3781 70.9793C85.3922 72.5248 78.7015 75.2301 72.5721 78.9874C72.4536 79.1548 72.3841 79.3531 72.3714 79.5593C72.3588 79.7655 72.4037 79.9711 72.5009 80.1522V80.1522Z" fill="#576065"/>
</g>
<g style="mix-blend-mode:screen" opacity="0.6">
<path d="M264.857 88.159C270.13 92.163 274.19 97.4047 279.534 101.409C283.898 104.706 287.889 108.491 291.432 112.693C299.33 122.169 304.049 133.982 304.897 146.4C305.869 159.793 302.516 173.143 295.35 184.402C291.157 190.454 286.384 196.063 281.101 201.146C277.538 205.685 273.474 209.789 268.99 213.376C268.633 213.376 267.85 212.867 268.135 212.503C284.378 194.521 300.551 176.102 301.548 150.549C301.997 136.964 297.619 123.673 289.223 113.13C285.379 108.631 281.108 104.534 276.47 100.899C271.911 96.9679 268.705 91.9446 264.216 88.0862C264.216 88.159 264.501 87.6494 264.857 88.159Z" fill="#B3E4FA"/>
</g>
<path opacity="0.7" d="M210.359 28.3193C211.499 28.7561 215.204 28.3193 217.484 28.9017C218.268 27.0817 222.4 28.9017 223.753 28.9017C231.351 31.5066 238.658 34.9228 245.554 39.0938C248.621 41.1245 251.401 43.5738 253.819 46.3739C257.935 49.2103 260.86 53.5234 262.012 58.4588C262.119 59.3777 262.119 60.3063 262.012 61.2252C262.012 62.6084 262.012 63.9188 262.012 65.3021C262.012 66.6853 261.014 65.3021 261.014 64.7924C260.8 63.4774 260.466 62.1856 260.017 60.934C259.948 60.5734 259.948 60.2026 260.017 59.842C258.427 59.6359 256.871 59.2198 255.386 58.6044C255.419 59.0405 255.419 59.4787 255.386 59.9148C255.15 61.2883 254.983 62.6733 254.887 64.0644C254.521 65.5379 254.401 67.0638 254.531 68.5781C254.531 69.3789 253.676 68.9421 253.462 68.5781C252.855 66.5506 252.566 64.4373 252.607 62.3172C252.465 61.0595 252.465 59.7893 252.607 58.5316V57.4396C247.817 55.294 243.277 52.6079 239.071 49.4315V49.9411C238.43 51.0331 237.717 52.1251 237.147 53.2899C236.577 54.4547 236.079 53.2899 236.221 52.7075C236.622 51.5364 237.098 50.3934 237.646 49.2859L238.002 48.4851L237.219 47.9027C236.72 48.8491 236.079 49.7955 235.651 50.6691C234.64 53.0551 233.424 55.3452 232.018 57.5124C232.018 57.9492 230.949 57.5124 231.092 56.8572C231.875 54.3091 232.232 51.6883 233.158 49.1403C233.158 48.2667 233.941 46.9563 234.511 45.8643L231.59 43.5346L229.026 41.4234C226.603 39.5306 224.252 37.6378 221.901 35.5265L221.474 34.9441C220.832 34.9441 220.12 34.9441 219.55 34.9441C218.98 34.9441 216.7 35.7449 215.204 36.109C214.848 36.109 214.064 35.3081 214.563 35.0897C216.278 34.0421 218.123 33.2341 220.049 32.6873V32.6873H219.408C218.352 32.6685 217.298 32.7908 216.273 33.0513C216.273 33.0513 215.632 32.6145 215.917 32.5417C216.202 32.4689 217.769 31.8137 218.695 31.5953C215.988 31.1623 213.351 30.354 210.858 29.1929C209.861 28.9017 209.647 28.1009 210.359 28.3193ZM220.904 31.5225C220.904 31.5225 221.402 31.5225 221.26 32.0321C229.268 35.3226 236.969 39.3428 244.272 44.0442C249.362 47.2235 254.134 50.9054 258.521 55.0371C258.521 54.4547 258.521 53.7995 258.521 52.9259C251.958 44.957 243.561 38.7782 234.084 34.9441L223.825 30.9401C220.547 29.9209 220.191 30.3577 220.904 31.5225V31.5225Z" fill="#22292C"/>
<path opacity="0.7" d="M201.383 259.823C202.659 255.278 205.453 251.333 209.28 248.673C213.106 246.014 217.722 244.807 222.328 245.263V245.263C226.389 244.899 230.308 245.263 230.664 249.412C231.305 257.857 218.054 264.628 211.642 266.521C205.23 268.414 199.815 267.322 201.383 259.823Z" fill="#22292C"/>
<path opacity="0.7" d="M48.4911 115.896C60.3177 120.847 73.4266 131.839 74.7803 145.744C75.1349 145.069 75.5917 144.454 76.1339 143.924C76.1179 140.213 75.6391 136.519 74.709 132.931C74.709 132.495 75.279 132.931 75.3502 132.931C76.492 136.044 77.2111 139.302 77.4876 142.614C80.138 140.907 83.2835 140.187 86.3931 140.576C88.7796 140.401 91.1781 140.573 93.5175 141.085C94.1175 138.707 94.4286 136.261 94.4437 133.805C94.6746 129.107 93.5339 124.444 91.1665 120.41C90.8102 119.973 91.1665 119.682 91.6652 119.973C94.8212 123.737 96.6302 128.487 96.7948 133.441C97.2033 136.265 97.2033 139.135 96.7948 141.959C100.639 143.296 104.32 145.079 107.766 147.273C112.532 150.114 117.06 153.353 121.303 156.956L122.087 156.228C122.941 155.354 123.725 154.48 124.509 153.534C125.269 152.66 126.104 151.856 127.002 151.132C127.896 150.584 128.753 149.976 129.567 149.312C129.567 149.312 130.565 149.312 130.351 149.967C130.137 150.622 129.068 151.132 128.499 151.714C127.506 152.646 126.6 153.669 125.791 154.772L123.369 157.829L122.941 158.339L124.224 159.577L125.008 158.849C125.655 158.053 126.397 157.344 127.216 156.737C127.216 156.737 128.071 156.737 127.786 157.32C127.044 158.103 126.377 158.956 125.791 159.868L125.293 160.96C127.002 162.561 128.57 164.236 130.137 165.983C133.345 165.142 136.675 164.895 139.969 165.255C146.385 165.598 152.644 167.414 158.279 170.569C158.279 170.569 158.279 171.225 158.279 171.079C152.156 168.432 145.546 167.166 138.9 167.366C136.631 167.433 134.38 167.8 132.203 168.458L132.417 168.24C136.669 173.646 139.599 180.01 140.966 186.804C144.503 187.616 147.816 189.233 150.656 191.536C152.946 193.462 155.003 195.662 156.783 198.088C158.207 200.054 158.777 203.621 160.416 205.368C160.416 205.368 160.416 205.951 160.416 205.805C157.922 204.786 156.07 199.835 154.503 197.942C150.971 193.971 146.435 191.074 141.394 189.57C141.394 190.517 141.394 191.463 141.394 192.41C141.347 194.107 140.934 195.773 140.183 197.287C141.173 197.735 142.05 198.407 142.747 199.253C144.03 200.636 145.027 202.31 146.31 203.767C147.592 205.223 146.31 204.567 145.74 204.203C144.763 203.229 143.858 202.183 143.032 201.073L141.323 199.471C140.736 199.076 140.116 198.735 139.47 198.452C138.618 199.685 137.527 200.726 136.264 201.51C137.096 202.003 137.766 202.738 138.188 203.621C138.351 203.976 138.541 204.317 138.758 204.64C138.758 204.64 139.185 205.077 138.758 205.295C138.188 205.295 137.832 204.494 137.475 204.058C136.898 203.249 136.201 202.537 135.409 201.946C131.777 203.765 127.769 204.664 123.725 204.567C115.854 204.651 108.011 203.597 100.428 201.437C100.249 202.5 99.8612 203.515 99.2883 204.422C98.7144 205.896 97.9214 207.271 96.9373 208.499C96.9373 208.499 95.8686 208.499 96.0824 207.843C96.6771 206.506 97.0618 205.081 97.2223 203.621C97.4404 202.83 97.702 202.052 98.0059 201.291C98.0059 201.291 98.0059 200.854 98.0059 200.709C93.1332 199.348 88.5995 196.943 84.7057 193.655C80.812 190.366 77.6472 186.269 75.4215 181.635C73.2025 176.381 71.9468 170.755 71.7168 165.037L70.4344 164.381L68.3683 163.799C68.012 163.799 67.4421 162.853 68.3683 162.925C69.617 163.018 70.8435 163.313 72.0017 163.799C72.0017 161.979 72.0017 160.086 72.0017 158.266C70.8968 157.29 69.6134 156.548 68.2258 156.082L65.5185 154.844L64.0936 154.262C64.0936 154.262 60.8876 153.17 62.6687 154.262L61.1726 153.68C61.1726 153.68 61.1726 153.68 61.1726 153.316C63.3812 151.932 67.2284 153.971 69.3657 154.844C70.3263 155.258 71.2551 155.745 72.1442 156.3C72.1442 154.553 72.5717 152.879 72.9279 151.277C72.8873 150.89 72.8873 150.5 72.9279 150.112C71.6328 143.364 69.2236 136.889 65.8035 130.966C60.9542 125.167 55.0815 120.351 48.4911 116.77C47.9924 116.479 47.8499 115.678 48.4911 115.896ZM77.9863 179.742C83.5433 197.506 104.703 200.126 120.377 201.582C128.641 202.383 137.262 199.835 138.33 190.59C134.982 194.594 125.649 195.103 121.517 195.322C114.181 194.948 107.106 192.42 101.141 188.042C94.2521 184.515 88.1611 179.555 83.2583 173.481C80.9351 169.639 79.3175 165.396 78.485 160.96C77.7013 157.465 77.8438 153.68 77.3451 149.894C76.935 150.985 76.6017 152.104 76.3477 153.243C74.3997 162.054 74.9684 171.252 77.9863 179.742V179.742Z" fill="#22292C"/>
<path opacity="0.7" d="M17.9277 77.6767C18.606 73.9839 20.1456 70.5127 22.4161 67.5573C26.4929 60.2936 32.527 54.3804 39.7997 50.5219C43.4203 48.3954 47.669 47.6718 51.7688 48.4835C54.6285 48.774 57.4626 49.285 60.2469 50.0123C64.5062 50.2521 68.7782 50.057 72.9996 49.4299C72.9996 49.4299 73.5696 49.7939 72.9996 49.9395C70.1875 51.4632 67.0778 52.3258 63.8977 52.4643C60.7176 52.6028 57.5474 52.0139 54.6186 50.7403C55.1253 51.9996 55.1253 53.4123 54.6186 54.6716C57.4684 55.3996 60.3181 57.0012 63.1679 57.438C63.1679 57.438 63.8091 58.0204 63.1679 58.0204C59.9999 57.7737 56.8692 57.1631 53.8349 56.2004C52.7521 58.4775 51.4642 60.6467 49.9877 62.6797C48.9106 64.2057 47.7448 65.6644 46.4967 67.0477L47.2092 67.6301C47.2428 67.749 47.2428 67.8752 47.2092 67.9941C47.2092 68.4309 46.1405 67.9941 45.2855 67.1933L44.6443 67.8485C45.1513 68.2706 45.7006 68.6367 46.283 68.9406C46.6392 68.9406 46.8529 69.887 46.283 69.6686C45.5168 69.2868 44.7787 68.8488 44.0744 68.3581C43.5757 68.9406 43.0057 69.4502 42.4358 70.0326C43.7131 70.7894 44.9497 71.6157 46.1405 72.5078C47.3095 73.2765 48.4066 74.1538 49.4177 75.1286C50.4151 76.0022 51.4126 77.5311 52.5525 78.1135C53.6924 78.6959 52.5525 78.5503 52.5525 78.5503C52.5525 78.5503 51.9825 78.5503 51.5551 78.0407C51.1276 77.5311 48.7053 75.5654 47.2804 74.4006C45.419 73.0312 43.4398 71.8372 41.3671 70.8334C40.156 71.9254 38.8735 72.9446 37.5911 73.891L38.0898 74.5462C39.9095 76.6774 41.5762 78.9402 43.077 81.3167C43.077 81.7535 43.077 81.8263 42.6495 81.3167C41.1534 79.3511 39.6572 77.3855 38.0186 75.5654C37.6017 75.1154 37.1489 74.7014 36.665 74.3278C35.1689 75.4198 33.6015 76.3662 32.0341 77.3127C33.1028 78.9871 33.7439 81.0983 34.6701 82.7727C34.6701 83.2823 34.2427 83.1367 34.0289 82.7727C33.8152 82.4087 32.6753 80.4431 32.0341 79.2055L31.1079 77.7495L28.4719 79.2055C26.9752 79.9105 25.4269 80.4947 23.841 80.9527C26.0924 84.0654 27.4939 87.7335 27.9019 91.5816C27.9019 92.164 27.1182 91.5816 27.047 91.5816C26.3871 89.5796 25.5773 87.6325 24.6247 85.7576C23.7441 84.394 23.0265 82.9275 22.4873 81.3895C21.6383 81.5348 20.7716 81.5348 19.9225 81.3895C21.2165 86.1223 21.6274 91.0616 21.1337 95.9497C21.1337 96.5321 20.2787 95.9497 20.2787 95.5857C19.4119 89.5961 18.102 83.6823 16.3603 77.8951C16.332 77.6827 16.3874 77.4675 16.5143 77.2968C16.6412 77.1262 16.8293 77.014 17.0371 76.9851C17.245 76.9561 17.4556 77.0127 17.6226 77.1424C17.7896 77.2721 17.8994 77.4643 17.9277 77.6767ZM22.9148 79.1327V78.4047C22.9148 78.4047 22.9148 78.0407 22.9148 77.8951C22.9148 74.3278 34.1714 62.6069 35.3113 61.6605C36.4512 60.7141 48.5628 51.7595 51.4838 53.5068C51.4838 51.7595 50.6289 50.4491 47.5654 51.0315C43.0129 51.9828 38.7571 54.0572 35.1688 57.074C29.2866 62.1766 24.6103 68.5728 21.4899 75.7838C20.2075 78.4775 21.2049 79.2055 22.9148 79.1327V79.1327Z" fill="#22292C"/>
<path opacity="0.7" d="M101.995 54.9623C109.12 52.4143 115.318 49.5751 122.158 47.3183C122.084 46.5289 122.21 45.7335 122.521 45.0073C122.833 44.2811 123.321 43.6483 123.939 43.1686H122.799C117.669 41.931 112.326 41.2758 107.268 39.5286C107.268 39.5286 106.626 38.5822 107.268 38.7278C111.685 39.8926 116.316 40.2566 120.804 40.9846L125.862 41.931C127.175 40.9123 128.556 39.9879 129.995 39.1646L128.356 37.8542C126.535 36.7852 124.817 35.542 123.226 34.1414C122.87 33.7774 123.226 33.4134 123.226 33.7046C125.705 35.4623 128.3 37.0434 130.992 38.4366L132.417 37.927C131.776 37.1262 131.063 36.3254 130.493 35.5246C129.923 34.7238 130.493 34.7966 131.134 35.5246C131.776 36.2526 132.702 37.3446 133.485 38.291L135.124 37.199C136.757 36.5026 138.451 35.9663 140.182 35.5974C140.207 33.7456 140.35 31.8974 140.61 30.0646C140.454 26.2155 140.693 22.3604 141.322 18.5621C141.322 18.1981 142.035 18.5621 141.964 18.9989C141.572 22.4332 141.572 25.9023 141.964 29.3366C141.964 31.2294 141.964 33.195 141.964 35.1606C143.189 34.9432 144.426 34.7974 145.668 34.7238C146.138 33.2533 146.759 31.8378 147.521 30.5014C147.521 29.9918 148.447 30.5014 148.376 31.011C148.304 31.5206 147.877 32.5398 147.592 33.2678C147.395 33.7165 147.228 34.1787 147.093 34.651C149.479 34.5337 151.871 34.7048 154.218 35.1606L155.714 34.0686C157.566 32.7582 160.558 31.5934 161.556 29.4094C161.556 28.8998 162.553 29.4094 162.411 29.919C161.77 32.0302 159.276 33.8502 157.637 35.1606L156.782 35.9614C157.412 36.2596 158.01 36.6257 158.564 37.0534C159.713 36.7648 160.879 36.546 162.054 36.3982C164.477 35.8886 166.97 35.6702 169.179 35.015C169.179 35.015 169.891 35.4518 169.606 35.5246C167.761 36.1448 165.882 36.6553 163.978 37.0534C162.411 37.0534 160.843 37.9998 159.276 38.291C160.06 40.0382 158.279 42.0766 155.999 43.751H156.854C157.975 44.127 159.015 44.7202 159.917 45.4983C159.917 45.8623 159.917 46.1535 159.561 45.9351C158.035 45.2168 156.433 44.6794 154.788 44.3334L153.79 44.9158L159.775 47.4639C164.069 49.5185 168.497 51.2699 173.026 52.7055C173.026 52.7055 173.739 53.5063 173.026 53.4335C169.588 52.6516 166.226 51.5552 162.981 50.1575C159.133 48.9199 155.286 47.6095 151.51 46.0079L150.228 46.6631C147.747 47.7387 145.17 48.5676 142.534 49.1383C142.534 50.0847 143.032 50.9583 143.246 51.9047C143.951 54.4929 144.522 57.1173 144.956 59.7671C144.956 60.4224 143.958 59.7671 143.887 59.7671C142.991 56.3874 141.92 53.0582 140.681 49.7935C138.325 50.2026 135.945 50.4459 133.557 50.5215C133.129 51.1767 132.631 51.7591 132.274 52.4143C131.918 53.0695 131.419 52.4143 131.562 51.8319C131.722 51.3821 131.912 50.9443 132.132 50.5215H130.636L129.71 51.3951C128.712 52.4143 127.643 53.3607 126.575 54.3071C125.506 55.2535 125.292 53.8703 125.649 53.5063L128 50.5215C126.626 50.5215 125.259 50.3255 123.939 49.9391C121.374 50.5215 118.738 51.0311 116.173 51.6863C111.471 53.0695 106.84 54.8895 101.924 56.1271C102.209 55.8359 101.639 55.1079 101.995 54.9623Z" fill="#22292C"/>
<path opacity="0.7" d="M46.5658 240.461C51.1254 242.281 55.6138 244.319 59.9597 246.503C64.6817 248.745 69.2306 251.349 73.5674 254.293C77.0514 255.784 80.0086 258.323 82.0455 261.573C84.6815 266.524 76.6309 266.087 73.9236 265.796C65.0073 264.333 56.4325 261.199 48.6319 256.55C41.6154 253.264 35.4984 248.263 30.8208 241.99C25.5487 232.234 43.7872 239.369 46.5658 240.461Z" fill="#0F1619"/>
<g opacity="0.7">
<path opacity="0.7" d="M237.002 131.039C243.01 132.922 249.243 133.951 255.526 134.096C259.658 134.096 263.505 133.514 267.638 133.66C267.767 129.248 268.71 124.901 270.416 120.847C268.874 120.457 267.3 120.213 265.714 120.119C263.743 119.737 261.793 119.251 259.872 118.663C259.516 118.663 259.017 117.716 259.872 117.789C261.938 118.153 264.075 118.663 266.213 118.881C267.887 118.87 269.543 119.243 271.057 119.973C271.16 119.769 271.279 119.574 271.413 119.391H269.917C269.122 119.208 268.354 118.914 267.638 118.517C267.21 118.517 267.638 117.571 267.638 117.862C268.588 118.35 269.638 118.599 270.701 118.59H271.698C272.039 118.073 272.42 117.586 272.838 117.134H271.556C269.617 116.496 267.754 115.642 265.999 114.586C262.977 113.345 260.463 111.084 258.874 108.179C258.874 107.815 259.302 108.179 259.444 108.179C262.775 111.651 267.298 113.662 272.055 113.785C272.984 113.606 273.941 113.643 274.854 113.896C275.767 114.148 276.612 114.608 277.327 115.241C278.49 115.459 279.545 116.075 280.319 116.988C282.562 119.677 284.257 122.795 285.306 126.161C291.834 138.823 294.183 153.302 292.003 167.439C291.433 170.497 289.937 177.049 285.876 177.121C284.358 178.056 282.73 178.79 281.031 179.305C278.599 180.317 276.221 181.459 273.907 182.727C270.63 184.474 269.49 187.241 267.139 190.007C267.139 190.007 266.355 190.007 266.426 189.497C267.146 187.108 268.228 184.848 269.632 182.8C270.63 181.125 273.622 180.033 275.189 179.233C276.757 178.432 279.82 177.267 282.314 176.393H283.169C280.45 174.813 278.263 172.427 276.899 169.55L274.121 170.424C272.22 171.274 270.386 172.271 268.635 173.409C268.635 173.409 267.78 172.608 267.78 172.317C269.426 171.065 271.165 169.945 272.981 168.968L275.831 167.73C275.118 166.42 274.548 165.182 274.05 164.09C273.817 163.699 273.626 163.284 273.48 162.852L269.917 163.653C266.355 164.454 262.793 165.546 259.017 165.983C258.518 165.983 257.806 165.109 258.447 164.964C260.299 164.527 262.08 163.508 263.933 162.925C265.785 162.343 267.21 162.052 268.849 161.615C270.487 161.178 271.2 160.887 272.482 160.523C270.835 156.513 269.594 152.342 268.777 148.074C268.777 148.074 268.136 147.492 268.777 147.346C268.35 145.089 268.065 142.76 267.851 140.43H264.859C262.935 140.43 261.083 141.158 259.159 141.231C259.159 141.231 258.162 140.43 258.732 140.357C260.536 140.054 262.32 139.641 264.075 139.12C265.308 139.007 266.548 139.007 267.78 139.12C267.78 138.246 267.78 137.372 267.78 136.572H265.358C262.08 136.572 258.732 137.3 255.455 137.227C249.081 136.467 242.872 134.647 237.074 131.84C237.074 131.84 236.433 130.893 237.002 131.039ZM272.625 122.521C276.498 130.156 279.647 138.152 282.029 146.4C283.351 154.6 282.913 162.996 280.747 171.006C283.098 173.409 285.805 174.209 287.871 169.55C289.047 166.043 289.484 162.322 289.153 158.63C288.303 158.759 287.439 158.759 286.589 158.63C286.397 158.57 286.221 158.466 286.073 158.328C285.925 158.189 285.809 158.019 285.734 157.829V157.392C286.802 157.392 288.227 157.392 289.225 156.664H289.153C289.153 155.354 289.153 154.044 289.153 152.733C288.308 152.486 287.476 152.194 286.66 151.86C286.161 151.86 285.805 150.549 286.66 150.84C287.454 151.162 288.299 151.334 289.153 151.35C288.963 146.975 288.463 142.62 287.657 138.319C287.657 138.319 287.158 138.319 287.087 138.319C285.796 132.811 284.105 127.409 282.029 122.157C278.965 114.877 274.904 118.08 272.055 122.157L272.625 122.521Z" fill="#22292C"/>
<path opacity="0.7" d="M285.379 144.362H286.733C287.167 144.281 287.58 144.108 287.944 143.853C287.944 143.853 288.657 143.853 288.728 144.289C289.155 145.818 286.448 145.309 285.736 145.236C285.023 145.163 284.81 144.362 285.379 144.362Z" fill="#22292C"/>
</g>
<path opacity="0.7" d="M175.163 254.802C175.163 250.871 181.718 248.323 184.211 252.109C184.438 252.404 184.604 252.743 184.702 253.105C184.8 253.467 184.826 253.845 184.78 254.217C184.733 254.589 184.615 254.949 184.432 255.274C184.249 255.6 184.004 255.885 183.713 256.113C182.962 257.397 181.843 258.414 180.507 259.025C180.006 259.208 179.476 259.287 178.945 259.257C178.415 259.228 177.895 259.091 177.417 258.853C176.94 258.616 176.513 258.283 176.163 257.875C175.812 257.467 175.545 256.992 175.377 256.477C175.29 256.19 175.218 255.898 175.163 255.603C175.163 255.603 175.163 254.875 175.163 254.802Z" fill="#22292C"/>
<path opacity="0.7" d="M240.997 241.914C243.063 239.657 245.129 236.745 248.549 237.764C249.02 237.887 249.46 238.109 249.843 238.416C250.225 238.723 250.54 239.108 250.768 239.547C250.996 239.985 251.132 240.468 251.167 240.963C251.202 241.459 251.135 241.956 250.971 242.423C251.107 242.849 251.107 243.308 250.971 243.734C249.19 246.719 243.348 251.014 240.142 247.956C236.936 244.899 239.287 243.588 240.997 241.914Z" fill="#22292C"/>
<path opacity="0.7" d="M42.2232 186.367C43.5432 186.622 44.7447 187.312 45.6429 188.333C46.6638 189.202 47.3462 190.416 47.5665 191.754C47.6104 191.938 47.5829 192.131 47.4899 192.294C47.3968 192.457 47.2455 192.577 47.0678 192.628C46.5253 192.787 45.9545 192.817 45.3988 192.716C44.8432 192.615 44.3175 192.386 43.8618 192.046C43.0069 191.536 41.4395 190.08 41.6532 188.842C41.4591 188.45 41.3155 188.034 41.2258 187.605C41.0121 186.804 41.4395 186.367 42.2232 186.367Z" fill="#22292C"/>
<path opacity="0.7" d="M15.2178 144.508C15.6592 143.984 16.2059 143.564 16.8207 143.276C17.4354 142.988 18.1037 142.839 18.78 142.839C19.4562 142.839 20.1245 142.988 20.7393 143.276C21.354 143.564 21.9008 143.984 22.3422 144.508C24.0231 146.155 25.3145 148.171 26.1182 150.405C27.6913 152.878 28.7576 155.652 29.2529 158.558C29.4341 160.274 29.2643 162.009 28.7542 163.654C28.7542 163.654 28.7542 164.237 28.7542 164.455C28.6633 165.255 28.374 166.018 27.9138 166.672C27.4535 167.326 26.8374 167.85 26.124 168.192C25.4105 168.535 24.6233 168.686 23.8368 168.63C23.0503 168.575 22.2907 168.316 21.6298 167.877C19.3223 167.363 17.2588 166.052 15.7877 164.164C13.8352 161.298 12.7415 157.913 12.6403 154.423C12.539 150.932 13.4347 147.487 15.2178 144.508V144.508Z" fill="#0F1619"/>
<path opacity="0.7" d="M22.2017 126.164C22.2017 125.654 23.0566 125.727 23.4841 126.164C23.9115 126.601 25.1939 127.11 25.1227 127.984C25.157 128.274 25.157 128.568 25.1227 128.858C25.1227 129.367 24.7665 129.513 24.4103 129.44C24.1535 129.408 23.9085 129.311 23.6972 129.159C23.4859 129.007 23.3147 128.803 23.1991 128.567C22.4154 127.547 21.7742 126.746 22.2017 126.164Z" fill="#22292C"/>
<path opacity="0.7" d="M81.8363 58.6017C82.1504 58.2226 82.5356 57.9117 82.9694 57.6875C83.4031 57.4632 83.8765 57.3302 84.3614 57.2963C84.8464 57.2623 85.3331 57.3282 85.7927 57.4899C86.2523 57.6516 86.6755 57.9059 87.0372 58.2377C87.0372 58.2377 87.6784 58.6017 87.6071 58.8201C87.7229 58.9783 87.8042 59.1599 87.8456 59.3528C87.887 59.5458 87.8874 59.7455 87.8469 59.9386C87.8064 60.1318 87.7259 60.3138 87.6108 60.4725C87.4957 60.6311 87.3487 60.7628 87.1797 60.8585H86.3247C85.6277 61.6445 84.6541 62.1158 83.6174 62.1689C83.2319 62.124 82.8632 61.9822 82.5443 61.7562C82.2254 61.5302 81.9662 61.2271 81.7898 60.8739C81.6134 60.5206 81.5254 60.1283 81.5335 59.7318C81.5416 59.3354 81.6457 58.9471 81.8363 58.6017Z" fill="#22292C"/>
<g style="mix-blend-mode:screen" opacity="0.6">
<path d="M142.464 9.31535C162.483 4.43778 183.144 13.9017 200.599 23.5113C200.955 23.5113 201.098 24.4577 200.599 24.2393C191.48 21.1817 182.717 16.9593 173.526 13.6833C163.679 10.28 153.244 9.01545 142.891 9.97055C142.891 9.97055 142.036 9.38815 142.464 9.31535Z" fill="#B3E4FA"/>
</g>
</g>
<defs>
<radialGradient id="paint0_radial_1188_22112" cx="0" cy="0" r="1" gradientUnits="userSpaceOnUse" gradientTransform="translate(188.13 -115.828) rotate(180) scale(373.748 381.913)">
<stop stop-color="#E3F3FC"/>
<stop offset="0.22" stop-color="#AEB7BD"/>
<stop offset="0.61" stop-color="#8CA4AF"/>
<stop offset="1" stop-color="#393B3D"/>
</radialGradient>
</defs>
</svg>
