<svg width="546" height="556" viewBox="0 0 546 556" fill="none" xmlns="http://www.w3.org/2000/svg">
<g style="mix-blend-mode:color-dodge">
<path d="M451.161 96.9127C428.679 69.8273 413.901 34.7454 383.462 15.6567C356.716 0.915082 325.526 -3.04309 296.06 4.56461C262.716 11.9163 238.339 37.5829 205.753 46.3534C189.979 48.6556 174.07 49.8621 158.136 49.9648C142.34 51.6558 127.066 56.7085 113.299 64.7972C89.4341 80.0843 70.8774 102.643 60.2512 129.286C53.936 144.119 48.505 159.338 41.0531 173.654C33.6011 187.971 23.6232 199.45 15.7923 214.282C3.79787 237.727 -1.53934 264.13 0.383288 290.508C2.34008 302.227 7.35822 313.188 14.9082 322.237C16.0449 324.171 17.1817 325.977 18.1921 327.912C22.2338 356.674 18.1921 385.823 21.6023 415.101C27.8668 449.187 45.7688 479.899 72.1237 501.774C97.3845 525.248 135.276 531.955 167.988 534.792C186.05 536.211 203.732 539.435 221.92 539.951C238.881 542.153 255.51 546.485 271.431 552.849C285.817 556.819 301.09 555.764 314.821 549.851C328.552 543.938 339.954 533.508 347.213 520.218C356.181 506.03 362.622 490.424 370.832 475.849C382.671 457.519 399.117 442.774 418.448 433.158C450.406 415.02 477.949 389.759 499.03 359.253C517.955 333.298 532.433 304.253 541.847 273.354C561.171 200.869 491.578 145.408 451.161 96.9127Z" fill="url(#paint0_radial_1188_22068)"/>
<g style="mix-blend-mode:multiply" opacity="0.2">
<path d="M452.172 98.0734C429.816 70.8591 415.165 35.6482 384.852 16.4305C358.214 1.52297 327.064 -2.62012 297.576 4.82253C264.106 11.9163 239.603 37.5829 207.016 46.0954C191.201 48.3759 175.246 49.4966 159.274 49.4488C143.366 51.0072 127.958 55.9734 114.057 64.0233C90.0908 79.2954 71.4082 101.846 60.6305 128.512C54.3153 143.345 48.758 158.435 41.3061 172.752C33.8541 187.068 23.6236 199.192 16.0453 213.251C4.03292 236.556 -1.39001 262.815 0.383697 289.089C2.23354 300.831 7.16592 311.84 14.656 320.947C15.7927 322.882 16.9295 324.687 17.9399 326.622C21.8553 355.384 17.9399 384.533 20.8449 413.811C27.0847 447.979 44.9857 478.78 71.3663 500.742C96.627 524.345 134.518 531.439 166.978 534.276C185.04 535.953 202.722 539.177 220.91 539.822C237.817 542.09 254.397 546.421 270.294 552.72C284.638 556.77 299.897 555.794 313.633 549.949C327.37 544.105 338.793 533.727 346.077 520.476C355.17 506.417 361.738 490.811 370.074 476.236C381.917 458.328 398.164 443.916 417.186 434.447C449.261 416.553 476.942 391.46 498.146 361.059C517.204 335.158 531.85 306.162 541.468 275.289C561.677 202.545 492.968 146.827 452.172 98.0734ZM286.335 94.462C286.92 103.523 284.712 112.544 280.02 120.258C274.37 131.314 272.166 143.87 273.705 156.242C275.599 169.14 279.388 182.683 282.42 195.71C285.778 205.912 286.857 216.754 285.577 227.438C284.062 233.887 281.03 239.562 279.388 245.753C276.989 254.781 281.157 260.069 285.198 267.421C287.328 270.844 288.285 274.892 287.92 278.93C287.554 282.968 285.886 286.768 283.177 289.734C275.042 300.066 269.464 312.246 266.914 325.245C264.363 338.243 264.916 351.678 268.526 364.412C276.104 347.258 283.683 328.041 301.491 320.044C301.889 319.818 302.35 319.735 302.799 319.81C303.249 319.885 303.66 320.112 303.967 320.455C304.274 320.799 304.459 321.238 304.491 321.702C304.523 322.165 304.401 322.627 304.144 323.011C298.375 335.059 295.377 348.293 295.377 361.704C295.377 375.115 298.375 388.349 304.144 400.397C308.817 409.555 327.51 431.997 314.374 442.186C305.674 446.626 296.526 450.086 287.093 452.504C274.553 457.3 264.052 466.426 257.411 478.3C254.507 484.491 254.38 494.293 248.318 498.291C242.255 502.29 230.635 493.003 223.057 500.613C217.373 506.159 213.458 512.608 204.869 513.511C196.436 513.741 187.997 513.397 179.608 512.479C157.688 512.603 135.785 511.181 114.057 508.223C86.2955 500.662 62.4286 482.521 47.3686 457.534C42.8915 450.711 39.0839 443.453 36.0013 435.866C28.9925 417.363 26.3111 397.445 28.1705 377.697C29.6197 367.588 31.9013 357.621 34.9909 347.903C38.5274 332.813 29.8124 325.461 20.7186 315.272C20.434 314.968 20.2469 314.583 20.1824 314.168C20.1179 313.753 20.1789 313.328 20.3575 312.95C20.536 312.571 20.8234 312.257 21.1814 312.05C21.5393 311.842 21.9507 311.752 22.3605 311.79C31.2693 314.229 39.5467 318.631 46.6108 324.687C37.8959 309.726 27.6653 292.314 33.9805 275.418C36.0013 270.646 39.2852 259.425 44.4636 257.619C51.4318 256.263 58.5882 256.263 65.5563 257.619C57.5992 252.589 49.1369 248.461 41.1798 243.173C40.8504 242.777 40.6697 242.274 40.6697 241.755C40.6697 241.235 40.8504 240.732 41.1798 240.336C45.6004 231.952 41.1798 221.247 45.7267 213.251C47.7243 210.31 50.1524 207.7 52.926 205.512C50.2771 205.315 47.6177 205.315 44.9689 205.512C43.3269 205.512 42.8217 203.577 43.4532 202.287C46.6319 196.366 49.1323 190.091 50.9051 183.586C48.1265 185.778 45.6004 188.487 42.8217 190.937C40.043 193.388 38.9063 190.293 39.7904 188.358C55.5784 155.855 63.5355 120.774 89.554 94.849C98.269 86.0785 110.647 76.5341 123.53 80.2745C132.497 82.8541 140.328 99.1052 143.233 107.231C143.233 108.908 142.096 111.229 140.328 109.81C135.647 105.754 131.178 101.449 126.94 96.9126C130.115 102.382 132.618 108.23 134.392 114.325C134.505 114.855 134.41 115.409 134.126 115.867C133.843 116.326 133.393 116.652 132.876 116.775C125.045 118.452 117.341 120 109.51 121.418L114.057 124.127C115.699 124.772 116.078 127.867 114.057 127.996C105.468 128.899 86.5227 135.993 87.028 147.472C87.5332 158.951 105.089 158.306 112.289 161.788C112.66 162.059 112.942 162.438 113.1 162.875C113.258 163.312 113.283 163.787 113.173 164.239C107.994 177.137 95.364 190.035 98.3953 205.383C111.21 198.173 122.13 187.907 130.224 175.46C134.265 170.172 138.307 165.013 142.223 159.725C144.117 157.145 146.517 153.147 149.927 152.373C158.768 150.567 162.557 165.271 163.821 171.075C165.114 180.279 166.885 189.406 169.125 198.418C169.421 198.993 169.804 199.515 170.262 199.966C177.714 185.778 173.672 168.366 177.082 153.018C177.184 152.721 177.352 152.451 177.572 152.23C177.791 152.009 178.058 151.843 178.35 151.743C178.643 151.644 178.954 151.614 179.26 151.656C179.565 151.698 179.857 151.811 180.114 151.986C183.009 154.001 185.64 156.385 187.945 159.08C189.639 161.048 191.498 162.86 193.502 164.497C196.786 166.948 198.807 163.852 197.417 160.499C193.605 153.62 190.393 146.413 187.818 138.959C186.934 134.961 186.808 130.189 191.355 128.77C198.68 126.578 205.374 128.77 211.563 123.869C207.628 121.826 203.335 120.599 198.933 120.258C198.397 120.258 197.883 120.04 197.504 119.653C197.125 119.266 196.912 118.741 196.912 118.194C196.912 117.647 197.125 117.122 197.504 116.735C197.883 116.348 198.397 116.13 198.933 116.13C215.948 116.252 232.804 112.783 248.444 105.941C259.534 99.7564 271.512 95.4032 283.935 93.0433C284.435 92.9519 284.95 93.0443 285.389 93.304C285.829 93.5638 286.164 93.974 286.335 94.462V94.462Z" fill="#576065"/>
</g>
<g style="mix-blend-mode:screen" opacity="0.6">
<path d="M39.7895 335.651C37.516 347.259 38.1476 359.125 35.6215 370.862C33.6426 380.489 32.6688 390.303 32.7165 400.14C33.1885 422.436 40.7219 443.976 54.1881 461.533C68.3603 480.385 88.1911 493.976 110.646 500.226C123.072 503.315 135.761 505.172 148.537 505.772C158.506 507.487 168.632 508.049 178.723 507.449C179.481 507.449 179.608 505.386 178.723 505.257C136.285 501.129 93.8474 496.357 63.5346 463.468C47.308 445.98 37.8784 423.054 37.0108 398.979C36.8012 388.374 37.733 377.777 39.7895 367.38C41.3052 356.803 39.7895 346.227 41.3052 335.78C40.7999 334.877 40.0421 334.877 39.7895 335.651Z" fill="#B3E4FA"/>
</g>
<path opacity="0.7" d="M43.5791 191.066C42.5687 193.001 37.2639 196.87 34.4853 200.74C31.3277 199.45 27.5386 206.415 26.4018 208.736C19.2567 221.261 13.4553 234.537 9.09823 248.332C7.34655 254.585 6.41223 261.047 6.31956 267.55C4.18565 276.236 5.26499 285.421 9.35084 293.345V293.345C10.3409 294.993 11.5767 296.473 13.0136 297.731C14.7819 299.407 15.666 301.729 17.5606 303.148C19.4551 304.567 18.8236 301.729 18.4447 301.213C17.1441 299.246 16.0837 297.123 15.2871 294.893C14.9918 294.318 14.608 293.796 14.1504 293.345C16.0902 291.193 17.7076 288.759 18.9499 286.123L20.8445 287.541C22.739 289.089 24.5073 290.766 26.2755 292.443C28.4647 293.948 30.3868 295.824 31.9592 297.989C31.9592 299.278 33.6011 297.989 33.3485 296.699C31.7934 293.242 29.7037 290.063 27.1597 287.284C25.9335 285.474 24.4909 283.827 22.8653 282.382L21.6023 280.835C25.446 272.239 28.3679 263.244 30.3172 254.007H31.2014C33.3907 254.602 35.5419 255.334 37.6429 256.2C38.527 256.2 38.9059 254.652 37.6429 254.394C35.7987 253.227 33.854 252.234 31.8329 251.428L30.3172 250.783V249.106L35.7483 250.912C39.8114 252.882 44.0382 254.479 48.3787 255.684C49.2628 255.684 49.3891 254.007 48.3787 253.62C44.3369 251.17 40.8004 248.203 36.6324 245.882C34.8408 244.854 32.9843 243.949 31.0751 243.173C31.0751 240.981 31.9592 238.788 32.3381 236.595C32.717 234.403 32.9696 232.726 33.2222 230.791C34.3714 225.429 35.2149 220.003 35.7483 214.54V213.25L38.527 211.187C40.8004 209.897 43.2002 208.736 45.6 207.575C47.9997 206.415 45.6 205.125 45.6 205.383C42.0941 206.075 38.6955 207.247 35.4957 208.865V207.446H37.2639C38.7123 206.153 40.3271 205.068 42.0635 204.222C42.0635 204.222 42.0635 202.803 42.0635 203.061C40.4203 203.639 38.8169 204.328 37.2639 205.125C40.4164 201.219 43.0104 196.877 44.9685 192.227C44.9685 191.324 44.2106 190.034 43.5791 191.066ZM33.3485 207.446C33.3485 207.446 33.3485 208.478 33.3485 208.607C26.5495 222.745 20.971 237.461 16.6765 252.589C13.7226 262.856 11.7764 273.398 10.8665 284.059C9.981 283.146 9.17783 282.153 8.46672 281.093V281.093C8.04829 262.663 12.0826 244.413 20.213 227.954C23.1179 222.021 26.2755 216.217 29.3068 210.413C32.3381 204.609 32.9696 205.512 33.3485 207.446Z" fill="#22292C"/>
<path opacity="0.7" d="M321.826 487.458C314.893 483.023 306.665 481.19 298.554 482.272C290.442 483.355 282.952 487.286 277.367 493.391C271.557 497.647 267.137 503.322 271.179 508.868C279.893 520.863 305.28 513.898 315.89 508.868C326.499 503.838 332.562 495.454 321.826 487.458Z" fill="#22292C"/>
<path opacity="0.7" d="M359.212 113.035C349.234 133.8 344.434 164.626 359.212 184.102C357.89 183.72 356.537 183.461 355.17 183.328C350.978 178.36 347.375 172.906 344.434 167.077C344.434 166.303 343.55 167.077 343.803 167.979C345.859 173.445 348.62 178.607 352.012 183.328C346.566 184.339 341.596 187.148 337.866 191.324C334.364 194.042 331.259 197.256 328.646 200.869C325.32 198.526 322.268 195.799 319.552 192.743C313.826 186.805 309.958 179.263 308.438 171.075C308.438 170.043 307.427 170.301 307.301 171.075C307.313 179.609 310.163 187.885 315.384 194.549C318.054 198.844 321.331 202.712 325.11 206.028C321.361 212.217 318.351 218.842 316.142 225.762C313.127 235.281 310.846 245.027 309.322 254.911H307.427H301.238C299.183 254.652 297.105 254.652 295.049 254.911C293.256 255.252 291.441 255.468 289.618 255.555C288.86 255.555 288.608 257.232 289.618 257.361C290.629 257.49 292.523 257.361 294.039 257.361C296.413 257.427 298.778 257.686 301.112 258.135L307.932 259.296H309.069C309.069 260.328 309.069 261.359 309.069 262.391H307.175C305.369 262.192 303.549 262.192 301.743 262.391C301.743 262.391 301.112 263.939 301.743 263.939C303.613 264.114 305.47 264.415 307.301 264.842H308.816C308.816 269.098 308.816 273.225 308.816 277.74C303.56 280.543 298.817 284.252 294.797 288.703C286.686 296.791 280.506 306.676 276.735 317.594C276.735 317.594 276.735 318.884 277.367 318.239C282.398 307.358 289.68 297.721 298.712 289.993C301.869 287.413 305.301 285.207 308.943 283.415V284.189C309.499 296.484 312.92 308.467 318.921 319.142C315.107 324.284 312.357 330.164 310.837 336.425C310.27 341.783 310.27 347.188 310.837 352.547C310.837 356.674 314.5 362.22 314.121 366.218C314.121 366.218 314.121 367.25 314.753 366.218C316.774 361.962 313.616 353.321 313.616 348.806C313.65 339.3 316.321 329.998 321.32 321.979C322.305 323.284 323.359 324.533 324.478 325.719C326.482 327.921 328.942 329.639 331.677 330.75C330.899 332.58 330.512 334.558 330.541 336.554C330.541 339.907 330.541 343.26 330.541 346.743C330.541 347.904 331.677 347.646 331.804 346.743C331.93 345.84 331.804 341.842 331.804 339.391C331.679 337.975 331.679 336.551 331.804 335.135C332.135 333.924 332.602 332.755 333.193 331.652C335.736 332.17 338.354 332.17 340.898 331.652C340.665 333.261 340.839 334.904 341.403 336.425V338.488C341.403 338.488 341.403 339.52 341.403 339.649C341.78 338.609 341.78 337.465 341.403 336.425C341.215 334.667 341.215 332.894 341.403 331.136C348.32 329.22 354.687 325.637 359.969 320.689C370.477 311.327 379.659 300.518 387.251 288.574C388.739 289.71 390.405 290.582 392.177 291.153C394.673 292.34 397.303 293.206 400.008 293.733C400.765 293.733 401.018 292.056 400.008 291.798C397.686 290.748 395.551 289.309 393.692 287.542L389.903 285.349H389.019C394.209 277.885 397.783 269.377 399.503 260.393C401.223 251.409 401.051 242.153 398.997 233.242C395.795 223.839 390.96 215.101 384.725 207.447C385.008 206.608 385.345 205.789 385.735 204.996L387.882 201.772C387.882 201.772 387.882 199.45 387.125 200.353C385.6 201.952 384.323 203.779 383.336 205.77C381.315 203.319 379.167 200.869 376.894 198.547C377.236 195.906 378.095 193.362 379.42 191.067C380.178 189.519 380.809 187.842 381.567 186.165C381.894 185.324 382.274 184.506 382.704 183.715C382.704 183.715 385.735 178.427 384.472 181.78C384.883 181.042 385.222 180.264 385.483 179.459C385.483 179.459 385.483 178.685 385.483 178.814C380.809 179.587 378.157 187.068 376.263 190.68C376.263 191.969 374.873 193.904 374.242 195.968C372.084 193.895 369.807 191.957 367.421 190.164L365.779 189.003C359.618 178.372 355.342 166.714 353.149 154.566C352.924 141.108 355.151 127.725 359.717 115.099C360.475 113.164 359.717 111.874 359.212 113.035ZM393.566 233.242C406.196 263.552 380.936 292.314 362.243 312.951C352.139 323.914 337.74 331.007 325.741 319.915H326.499C335.719 321.205 348.602 310.629 354.412 305.986C363.549 296.654 369.863 284.833 372.6 271.936C377.849 259.209 380.43 245.501 380.178 231.695C378.548 223.821 375.554 216.309 371.337 209.51C368.432 203.964 363.632 198.934 360.222 193.517L365.274 196.742C377.847 205.983 387.645 218.624 393.566 233.242V233.242Z" fill="#22292C"/>
<path opacity="0.7" d="M355.802 25.588C350.621 21.5377 344.552 18.8373 338.119 17.7203C324.522 12.7925 309.803 12.0746 295.808 15.6567C288.558 17.2126 282.076 21.3215 277.494 27.2647C274.112 31.2202 270.989 35.3996 268.147 39.7756C262.765 45.2342 256.886 50.1576 250.591 54.4791C250.591 54.4791 250.591 55.6399 250.591 55.511C261.2 55.511 269.915 44.0319 275.852 34.4875C276.1 35.6523 276.59 36.7494 277.287 37.7058C277.983 38.6622 278.872 39.4557 279.893 40.0336C277.485 44.8706 274.742 49.5257 271.684 53.9632C271.684 53.9632 271.684 55.511 271.684 55.124C275.587 50.9422 279.057 46.3608 282.04 41.4523C286.108 43.2148 290.34 44.5543 294.671 45.4507C297.832 46.2192 301.038 46.7792 304.27 47.1274C304.27 47.1274 304.27 48.1592 304.27 48.8041C304.282 49.0189 304.282 49.2342 304.27 49.449C304.27 49.449 304.27 50.2229 304.27 49.449C304.203 49.5666 304.168 49.7001 304.168 49.8359C304.168 49.9718 304.203 50.1052 304.27 50.2229C304.901 50.2229 305.533 48.6751 305.912 46.7404H307.68C307.46 47.9334 307.122 49.1003 306.67 50.2229C306.67 50.8678 306.67 52.2865 307.427 51.1257C308.083 49.7676 308.591 48.3404 308.943 46.8694H312.985C312.227 49.449 311.595 52.1575 310.838 54.6081C310.294 57.0785 309.873 59.5753 309.575 62.0889C309.893 64.6582 309.893 67.2582 309.575 69.8276C309.575 69.8276 309.575 70.7304 309.575 70.4725C309.575 70.2145 310.206 69.5696 310.332 68.6668C310.652 65.2869 311.158 61.9281 311.848 58.6064C312.685 54.5799 313.912 50.6483 315.511 46.8694H324.1V48.2882C324.138 53.3013 324.561 58.3037 325.363 63.2497C325.363 64.1525 326.247 63.2497 326.12 63.2497C326.12 58.8644 326.12 54.4791 326.12 50.3518C326.058 49.278 326.058 48.2013 326.12 47.1274C329.404 47.1274 332.562 46.2245 335.719 45.5796C335.719 49.0621 337.867 52.6734 338.624 55.8979C338.624 56.9297 339.509 55.8979 339.509 55.253C339.509 54.6081 338.498 50.4808 337.993 48.1592C337.932 47.1283 337.932 46.0946 337.993 45.0637L343.298 43.7739C345.801 42.7301 348.175 41.388 350.371 39.7756C350.883 46.6395 353.292 53.2141 357.317 58.7354C357.317 59.6383 358.328 57.9616 358.075 57.4456C356.618 54.0364 355.477 50.4956 354.665 46.8694C354.278 43.9977 353.557 41.1834 352.518 38.4858C353.756 37.6254 354.863 36.5822 355.802 35.3904C359.543 43.1439 364.637 50.1368 370.832 56.0269C371.463 56.8008 371.969 54.9951 371.59 54.4791C365.833 45.7013 360.765 36.472 356.433 26.8778L355.802 25.588ZM350.876 33.5847L350.244 32.4239C350.244 32.4239 350.244 31.779 349.487 32.4239C345.697 27.3937 317.027 25.588 314.374 25.717C311.722 25.846 285.703 28.4255 283.935 34.2296C281.788 31.908 281.409 29.1994 286.208 26.2329C293.357 21.9864 301.434 19.6363 309.701 19.3971C323.133 18.9095 336.504 21.4642 348.855 26.8778C354.033 29.4574 353.276 31.521 350.876 33.5847Z" fill="#22292C"/>
<path opacity="0.7" d="M218.005 96.3968C206.132 101.169 194.133 105.296 182.513 110.455C181.679 109.331 180.585 108.436 179.328 107.851C178.071 107.265 176.692 107.008 175.314 107.102L176.577 105.296C182.008 97.4286 188.323 90.2059 192.996 81.9513C192.996 81.9513 192.996 79.8877 192.239 80.7905C187.818 87.4974 182.008 93.6883 176.956 99.8792L171.399 107.231C168.429 107.476 165.476 107.907 162.557 108.521C162.557 107.102 162.557 105.683 163.315 104.78C164.456 101.161 165.3 97.4505 165.841 93.6883C165.841 92.7854 165.083 92.6565 164.957 93.6883C164.199 99.1053 161.421 104.006 160.158 109.295C159.274 109.459 158.422 109.763 157.631 110.197C157.631 110.197 157.631 110.197 157.631 109.295C157.631 108.392 157.631 105.683 157.631 103.877C157.631 102.072 156.368 103.877 156.495 103.877V110.326C155.486 110.808 154.514 111.368 153.59 112.003C150.555 112.964 147.633 114.261 144.875 115.872C142.73 113.423 140.453 111.098 138.054 108.908C133.73 103.738 128.906 99.0284 123.656 94.8491C123.656 94.8491 122.898 95.8809 123.656 96.2678C128.055 100.438 131.917 105.162 135.149 110.326C137.17 113.035 139.57 115.485 141.717 118.194C139.788 119.364 137.932 120.657 136.16 122.063C133.887 120.647 131.473 119.48 128.961 118.581C128.076 118.581 127.824 120 128.329 120.258L131.992 122.321L134.265 123.611C131.004 126.33 128.04 129.4 125.424 132.768H122.266C118.173 134.029 113.848 134.294 109.636 133.542C108.752 133.542 108.499 134.961 109.636 135.219C113.652 136.818 118.02 137.264 122.266 136.509H124.414C123.862 137.649 123.479 138.866 123.277 140.12C121.382 141.023 119.614 142.313 117.846 143.345C114.057 145.666 110.52 148.375 106.479 150.438C106.479 150.438 106.479 151.857 106.479 151.599C109.091 150.299 111.622 148.834 114.057 147.214C116.457 145.795 119.235 144.763 121.635 143.216C122.772 146.569 127.319 147.085 132.244 146.569C132.197 147.041 132.197 147.516 132.244 147.988C131.106 149.825 130.373 151.894 130.097 154.05C130.097 154.824 130.855 154.824 131.108 154.05C132.283 151.224 133.766 148.541 135.528 146.053H137.676C135.907 149.664 134.392 153.276 132.623 156.629C129.308 164.522 125.424 172.153 121.003 179.458C121.003 179.458 121.003 181.522 121.635 180.748C125.252 175.579 128.422 170.098 131.108 164.368C134.771 158.048 138.433 151.47 141.591 145.15L144.117 144.376C148.488 142.776 152.714 140.791 156.747 138.443C157.379 139.991 158.137 141.41 158.895 142.958C160.949 147.398 163.269 151.706 165.841 155.855C165.841 156.758 167.231 154.824 166.852 154.179C164.091 148.67 161.686 142.983 159.652 137.154C163.364 134.74 166.909 132.068 170.262 129.157L174.177 130.189C174.177 130.189 174.935 128.77 174.177 128.512L171.904 127.48L172.662 126.706L173.798 125.675H183.65C184.66 125.675 184.913 123.611 183.65 123.482L177.209 121.805C179.109 120.202 180.731 118.283 182.008 116.13C186.05 113.809 190.092 111.358 194.638 109.295C202.469 105.425 210.805 102.201 218.51 98.0735C218.762 97.8156 218.762 96.1388 218.005 96.3968Z" fill="#22292C"/>
<path opacity="0.7" d="M505.598 275.933C501.683 283.801 498.146 291.927 494.862 300.052C491.116 308.681 488.074 317.611 485.768 326.751C482.836 332.821 481.779 339.658 482.737 346.355C484.884 356.028 495.367 346.355 498.399 342.228C508.556 329.623 516.31 315.187 521.26 299.665C526.556 286.843 528.765 272.911 527.701 259.037C523.659 239.562 507.366 271.161 505.598 275.933Z" fill="#0F1619"/>
<g opacity="0.7">
<path opacity="0.7" d="M126.686 359.382C120.821 368.945 113.679 377.627 105.467 385.178C99.9101 389.95 94.2264 393.948 89.048 399.108C83.781 393.426 77.5286 388.791 70.6077 385.436C72.2985 383.227 74.1566 381.157 76.165 379.245C78.4103 376.46 80.4776 373.531 82.3539 370.474C82.3539 369.83 82.3539 368.024 82.3539 369.056C82.3539 370.087 77.6807 375.118 75.1546 377.955C72.8512 379.952 71.035 382.469 69.8498 385.307H68.7131L70.4814 383.114C71.2624 381.907 71.8985 380.608 72.3759 379.245C72.3759 378.342 71.7444 377.568 71.3655 379.245C70.6543 381.004 69.5258 382.556 68.0816 383.759C67.6654 384.2 67.2852 384.674 66.9449 385.178C65.9201 384.84 64.8606 384.623 63.7873 384.533L65.3029 382.985C67.2615 379.831 68.7512 376.397 69.7235 372.796C72.2794 367.612 72.9508 361.671 71.6181 356.029C71.6181 355.384 70.734 356.029 70.8603 356.674C70.3761 365.277 66.6674 373.36 60.5034 379.245C59.0486 380.101 57.8108 381.294 56.8895 382.728C55.9682 384.162 55.3891 385.796 55.1986 387.5C53.8282 389.102 53.1057 391.177 53.1778 393.304C53.232 399.619 54.5651 405.855 57.0932 411.619C62.9871 436.205 76.4983 458.19 95.6158 474.302C99.9101 477.784 109.509 484.62 115.067 479.848C118.122 479.234 121.091 478.238 123.908 476.882C128.202 475.463 132.496 474.302 136.538 473.27C142.299 472.571 148.139 473.053 153.715 474.689C154.473 474.689 154.6 473.399 153.715 473.012C150.395 470.897 146.831 469.207 143.106 467.982C139.179 467.704 135.244 468.366 131.612 469.917C127.192 471.207 123.15 472.883 118.982 474.56L117.593 475.334C119.126 469.898 119.126 464.131 117.593 458.696L122.266 456.632C125.735 455.472 129.28 454.567 132.875 453.923C133.633 453.923 133.633 451.989 132.875 452.118C129.251 452.394 125.659 452.998 122.14 453.923L116.835 455.6C116.835 453.15 115.698 450.828 115.067 448.764C114.845 447.655 114.506 446.574 114.056 445.54L119.613 442.315C125.507 439.27 131.241 435.912 136.791 432.255C137.549 432.255 137.422 429.675 136.791 430.32C133.665 431.756 130.46 433.005 127.192 434.061C124.413 435.351 121.887 436.898 119.108 438.317L113.046 441.155C110.511 433.934 107.384 426.944 103.699 420.26C103.699 420.26 103.699 418.712 103.699 418.97C101.678 415.488 99.4049 412.005 97.0051 408.652C98.3387 407.464 99.7298 406.345 101.173 405.299C103.952 403.235 106.983 401.687 109.635 399.495C109.635 399.495 109.635 397.302 109.635 397.818C106.983 399.753 103.826 400.913 100.921 402.719C99.1261 403.851 97.4352 405.146 95.8684 406.588L92.9634 403.106C93.9738 402.461 94.9843 401.429 96.4999 400.268C101.047 396.657 106.099 393.304 110.267 389.305C117.229 380.689 122.774 370.975 126.686 360.543C126.686 360.543 126.686 358.479 126.686 359.382ZM69.8498 390.337C73.1378 405.203 77.9206 419.682 84.1222 433.545C91.8183 445.965 102.024 456.563 114.056 464.629C114.056 470.691 111.025 474.947 103.068 471.207C97.5345 468.17 92.6755 463.998 88.7954 458.954V458.954C89.9536 457.898 91.0109 456.732 91.953 455.471C92.1437 455.162 92.2449 454.805 92.2449 454.439C92.2449 454.074 92.1437 453.716 91.953 453.408H91.1952C89.4269 454.31 87.785 456.374 85.6378 456.761C84.1222 455.084 82.7328 453.279 81.2172 451.473C82.0975 450.126 82.8583 448.702 83.4906 447.217C83.4906 446.443 83.4906 444.637 82.4802 445.927C81.7408 447.307 80.8043 448.568 79.7015 449.667C75.0796 443.554 70.8602 437.134 67.0712 430.449C67.0712 430.449 67.0712 429.804 67.0712 429.547C62.9084 420.876 59.3627 411.91 56.4617 402.719C52.1673 389.821 61.5138 388.402 69.092 390.853C69.8498 389.95 69.7235 390.208 69.8498 390.337Z" fill="#22292C"/>
<path opacity="0.7" d="M77.5541 435.093L76.1647 436.769C75.4069 436.769 74.7754 436.769 74.0176 437.543C73.2598 438.317 73.2598 438.704 74.0176 439.091C75.1543 441.671 78.0593 437.801 79.0697 436.769C80.0801 435.737 78.3119 434.448 77.5541 435.093Z" fill="#22292C"/>
</g>
<path opacity="0.7" d="M350.749 449.279C349.404 448.124 347.764 447.385 346.021 447.15C344.279 446.914 342.507 447.193 340.914 447.952C339.321 448.711 337.974 449.919 337.031 451.434C336.088 452.949 335.589 454.707 335.593 456.502C335.641 457.164 335.816 457.809 336.109 458.401C336.402 458.992 336.807 459.519 337.3 459.951C337.793 460.382 338.364 460.71 338.982 460.915C339.599 461.12 340.25 461.198 340.898 461.146C343.364 461.938 346.009 461.938 348.476 461.146C349.35 460.806 350.148 460.289 350.822 459.626C351.495 458.963 352.031 458.169 352.397 457.289C352.762 456.41 352.95 455.464 352.949 454.509C352.948 453.554 352.759 452.609 352.391 451.73C352.165 451.041 351.774 450.421 351.254 449.924C351.254 449.924 351.128 449.151 350.749 449.279Z" fill="#22292C"/>
<path opacity="0.7" d="M248.696 511.189C243.265 511.189 237.203 509.384 233.793 514.801C233.319 515.527 232.998 516.346 232.849 517.206C232.7 518.065 232.728 518.947 232.93 519.795C233.131 520.643 233.503 521.44 234.021 522.134C234.539 522.828 235.192 523.405 235.94 523.829C236.369 524.533 237.048 525.041 237.834 525.248C243.644 527.182 255.896 525.248 257.032 517.896C257.79 512.737 252.991 511.576 248.696 511.189Z" fill="#22292C"/>
<path opacity="0.7" d="M448.635 198.934C447.157 200.852 446.317 203.202 446.235 205.641C445.938 208.055 446.426 210.503 447.625 212.606C447.894 212.764 448.198 212.848 448.509 212.848C448.819 212.848 449.124 212.764 449.393 212.606C450.278 212.142 451.054 211.486 451.665 210.684C452.276 209.882 452.707 208.953 452.93 207.962C452.93 206.286 453.814 202.416 452.172 201.127C451.976 200.317 451.679 199.537 451.288 198.805C451.146 198.569 450.944 198.376 450.704 198.247C450.464 198.117 450.195 198.056 449.924 198.069C449.653 198.082 449.391 198.17 449.164 198.322C448.937 198.474 448.755 198.685 448.635 198.934V198.934Z" fill="#22292C"/>
<path opacity="0.7" d="M436.257 111.1C435.056 110.834 433.812 110.842 432.615 111.124C431.417 111.406 430.295 111.955 429.329 112.731C428.364 113.508 427.578 114.493 427.029 115.615C426.48 116.738 426.181 117.971 426.153 119.226C425.755 123.607 426.36 128.023 427.921 132.124C428.685 137.304 430.491 142.267 433.226 146.698C434.923 149.201 437.118 151.311 439.667 152.889L440.804 153.792C441.823 154.578 443.007 155.109 444.263 155.346C445.518 155.582 446.811 155.516 448.037 155.153C449.263 154.79 450.389 154.139 451.326 153.254C452.263 152.368 452.985 151.272 453.435 150.052C455.869 146.617 457.032 142.413 456.718 138.186C456.198 132.147 453.995 126.386 450.368 121.586C446.742 116.786 441.845 113.147 436.257 111.1V111.1Z" fill="#0F1619"/>
<path opacity="0.7" d="M405.818 95.1069C404.934 95.1069 404.302 95.1069 403.671 96.1387C403.2 96.7684 402.944 97.5389 402.944 98.3313C402.944 99.1238 403.2 99.8942 403.671 100.524C403.823 101.046 404.081 101.529 404.429 101.943C404.429 101.943 405.692 101.943 406.07 101.943C406.255 101.516 406.35 101.055 406.35 100.588C406.35 100.122 406.255 99.6608 406.07 99.2341V99.2341C406.07 99.2341 407.081 95.3649 405.818 95.1069Z" fill="#22292C"/>
<path opacity="0.7" d="M249.075 77.0498C248.211 76.9229 247.332 76.973 246.487 77.1972C245.643 77.4214 244.851 77.8152 244.157 78.3555C243.463 78.8958 242.882 79.5719 242.447 80.3442C242.012 81.1165 241.732 81.9696 241.623 82.8536C241.623 82.8536 241.623 84.0144 241.623 84.2723C241.633 84.615 241.718 84.9511 241.87 85.2565C242.023 85.5619 242.24 85.829 242.505 86.0387C242.771 86.2483 243.079 86.3952 243.407 86.4689C243.735 86.5426 244.074 86.5412 244.402 86.4649H246.044C246.953 86.5447 247.868 86.4375 248.736 86.1495C249.604 85.8615 250.406 85.3986 251.096 84.7882C251.885 84.3427 252.505 83.6405 252.859 82.7933C253.212 81.9461 253.278 81.0027 253.045 80.113C252.813 79.2233 252.296 78.4385 251.577 77.8835C250.857 77.3284 249.977 77.0349 249.075 77.0498V77.0498Z" fill="#22292C"/>
<g style="mix-blend-mode:screen" opacity="0.6">
<path d="M111.909 84.4017C79.7015 102.072 63.5346 139.346 50.9043 173.01C50.9043 173.784 50.9043 174.815 51.9147 173.913C60.6297 158.822 67.0711 142.958 76.165 127.48C85.1709 111.134 97.4336 96.8981 112.161 85.6915C112.161 85.6915 112.54 84.0148 111.909 84.4017Z" fill="#B3E4FA"/>
</g>
</g>
<defs>
<radialGradient id="paint0_radial_1188_22068" cx="0" cy="0" r="1" gradientUnits="userSpaceOnUse" gradientTransform="translate(-93.4804 -29.7739) rotate(-42.1265) scale(668.792 670.342)">
<stop stop-color="#E3F3FC"/>
<stop offset="0.22" stop-color="#AEB7BD"/>
<stop offset="0.61" stop-color="#8CA4AF"/>
<stop offset="1" stop-color="#393B3D"/>
</radialGradient>
</defs>
</svg>
