<svg width="314" height="286" viewBox="0 0 314 286" fill="none" xmlns="http://www.w3.org/2000/svg">
<g style="mix-blend-mode:color-dodge">
<path d="M309.431 141.862C309.858 161.955 316.555 182.412 310.642 202.141C304.69 218.577 292.954 232.153 277.727 240.216C260.984 249.899 241.321 248.297 224.294 257.106C216.803 262.156 209.662 267.726 202.92 273.777C195.644 279.057 187.37 282.727 178.626 284.552C162.894 287.136 146.765 284.589 132.531 277.272C124.48 273.341 116.643 269.045 108.237 265.842C99.8297 262.639 91.1379 261.328 82.8023 258.562C69.1602 253.248 57.2421 244.146 48.3913 232.281C44.9089 226.614 42.9436 220.112 42.6918 213.426C42.5473 212.176 42.3333 210.937 42.0506 209.713C33.2875 196.026 20.6773 185.397 11.6292 171.638C1.80463 154.816 -1.87993 134.985 1.22755 115.654C3.36489 95.9978 16.6876 79.2537 29.7253 65.0575C36.8497 57.7774 43.1192 49.4053 50.6711 42.2708C56.9657 34.7699 62.3702 26.5348 66.7724 17.737C71.3804 10.5461 78.2181 5.14475 86.1889 2.39895C94.1598 -0.346853 102.802 -0.278022 110.73 2.5944C119.707 5.06963 128.114 9.21929 136.948 12.2769C148.608 15.5379 160.911 15.5379 172.57 12.2769C192.715 7.68854 213.618 7.83788 233.698 12.7137C251.313 16.408 268.18 23.1545 283.569 32.6611C317.837 55.9574 309.003 105.972 309.431 141.862Z" fill="url(#paint0_radial_1188_22134)"/>
<g style="mix-blend-mode:multiply" opacity="0.2">
<path d="M309.431 141.061C309.929 161.081 316.555 181.538 310.927 201.268C305.118 217.733 293.473 231.373 278.297 239.488C261.554 249.316 241.82 247.86 224.935 256.669C217.445 261.772 210.304 267.391 203.561 273.486C196.303 278.843 188.028 282.588 179.267 284.479C163.594 287.208 147.479 284.866 133.172 277.781C125.05 273.923 117.213 269.627 108.806 266.497C100.4 263.367 91.7078 262.056 83.3722 259.217C69.677 254.001 57.7002 244.942 48.8187 233.081C45.2736 227.44 43.2803 220.927 43.0479 214.226C43.0479 212.988 42.6204 211.824 42.3354 210.586C33.5011 196.899 20.9621 186.343 11.7004 172.657C1.77734 155.872 -2.00862 136.038 1.01372 116.673C3.00857 97.0896 16.26 79.8358 29.5115 65.7124C36.6359 58.4323 42.7629 49.9874 50.2436 42.7801C56.4772 35.2519 61.8106 26.9915 66.1311 18.1735C70.6886 11.0773 77.4165 5.72216 85.2652 2.94342C93.1139 0.164682 101.642 0.11863 109.519 2.81248C118.496 5.2877 126.974 9.43736 135.808 12.3494C147.464 15.6356 159.774 15.6356 171.43 12.3494C191.523 7.65377 212.394 7.65377 232.487 12.3494C250.094 15.9579 266.963 22.6313 282.358 32.0784C317.41 55.0107 308.504 105.098 309.431 141.061ZM240.68 206C237.626 201.955 233.419 198.979 228.639 197.482C222.199 194.983 216.673 190.507 212.823 184.669C208.691 178.335 205.699 171.346 201.994 164.649C199.669 159.081 196.165 154.108 191.735 150.089C188.743 147.977 185.394 146.74 182.402 144.701C178.127 141.789 177.913 137.931 176.916 133.344C176.566 131.09 175.495 129.018 173.871 127.451C172.247 125.884 170.162 124.91 167.939 124.681C160.709 123.436 153.882 120.422 148.039 115.896C142.195 111.37 137.51 105.468 134.383 98.6912C143.93 103.059 154.118 108.301 164.591 104.879C164.836 104.815 165.053 104.669 165.208 104.465C165.364 104.261 165.448 104.009 165.448 103.751C165.448 103.492 165.364 103.241 165.208 103.037C165.053 102.832 164.836 102.687 164.591 102.622C157.744 99.7699 151.621 95.3649 146.684 89.7401C141.747 84.1153 138.126 77.4177 136.093 70.1532C134.739 64.4748 134.454 47.8762 125.121 48.313C119.787 49.6132 114.605 51.4925 109.661 53.9187C102.51 56.6094 94.6553 56.6094 87.5044 53.9187C83.9422 52.3898 80.3799 48.313 76.319 48.8954C71.0469 49.6962 70.8332 57.9227 64.7062 57.7043C60.289 57.7043 56.2281 56.3211 52.3809 59.3787C48.731 62.5247 45.2806 65.9046 42.0505 69.498C32.7763 78.0575 24.1323 87.304 16.1888 97.1624C7.23938 110.961 3.79796 127.736 6.57078 144.046C7.21551 148.654 8.28905 153.188 9.77678 157.587C13.7067 167.989 19.9223 177.329 27.9441 184.887C32.262 188.633 36.886 191.994 41.7655 194.934C48.8899 199.884 47.75 206.364 47.6788 214.153C47.6788 215.1 48.9612 215.828 49.6024 214.954C52.5803 210.61 54.5535 205.631 55.3732 200.394C57.083 210.004 59.2204 221.361 68.2684 225.874C70.8332 227.112 76.319 230.606 79.24 229.369C82.644 227.312 85.6601 224.649 88.1456 221.506C86.5782 226.675 84.5121 231.625 83.0872 236.867C83.0212 237.175 83.0729 237.498 83.2318 237.769C83.3907 238.039 83.6448 238.238 83.9422 238.323C88.858 240.143 91.0666 246.55 95.7687 248.006C97.6996 248.503 99.6969 248.675 101.682 248.515C100.71 249.678 99.6631 250.773 98.5472 251.791C98.4014 251.935 98.2956 252.115 98.2405 252.314C98.1855 252.513 98.1832 252.723 98.234 252.923C98.2848 253.123 98.3867 253.306 98.5294 253.452C98.6721 253.599 98.8504 253.704 99.046 253.757C102.407 254.856 105.653 256.295 108.735 258.052C106.694 258.161 104.649 258.161 102.608 258.052C101.255 258.052 101.183 259.872 102.608 260.382C120.847 268.099 137.304 279.82 157.609 281.057C164.733 281.057 173.211 281.057 177.344 274.214C180.122 269.627 177.344 259.654 175.776 255.286C175.42 254.339 173.853 254.048 173.568 255.286C173.035 258.735 172.679 262.209 172.499 265.696C171.853 262.175 170.776 258.75 169.293 255.504C169.219 255.369 169.119 255.251 169 255.156C168.881 255.061 168.745 254.991 168.599 254.95C168.453 254.91 168.301 254.899 168.151 254.919C168.001 254.939 167.856 254.99 167.726 255.067C163.878 257.324 159.96 259.654 156.113 262.347L157.253 259.654C157.68 258.707 156.754 257.251 155.685 258.052C151.767 260.964 141.436 265.332 137.162 260.163C132.887 254.994 140.866 248.661 142.505 244.511C142.573 244.267 142.561 244.007 142.471 243.77C142.381 243.534 142.218 243.334 142.006 243.201C134.882 239.706 124.765 238.833 120.633 231.407C128.698 229.468 137.099 229.518 145.141 231.553L155.97 233.591C157.751 233.955 160.174 234.829 161.883 233.591C166.301 230.897 162.81 223.399 160.957 220.341C158.094 215.984 155.477 211.463 153.12 206.8C153.12 206.8 153.12 206.072 153.12 205.708C161.527 208.839 166.087 217.72 173.211 222.889C173.355 222.988 173.52 223.05 173.692 223.07C173.864 223.089 174.038 223.066 174.199 223.001C174.36 222.937 174.504 222.833 174.617 222.7C174.73 222.566 174.81 222.406 174.85 222.234C175.332 220.258 175.571 218.228 175.562 216.192C175.575 214.704 175.694 213.22 175.919 211.751C176.417 209.494 178.412 210.004 179.053 211.751C179.978 216.126 181.265 220.412 182.901 224.564C183.969 226.529 185.679 228.641 188.101 227.476C192.02 225.656 194.157 222.307 198.432 221.797C197.549 224.136 196.244 226.285 194.585 228.131C194.412 228.359 194.328 228.644 194.349 228.931C194.37 229.218 194.494 229.487 194.698 229.686C194.901 229.885 195.17 230 195.452 230.009C195.734 230.017 196.008 229.919 196.223 229.733C203.356 223.213 211.721 218.257 220.803 215.172C227.788 213.627 234.479 210.922 240.609 207.164C240.727 206.997 240.797 206.799 240.809 206.592C240.822 206.386 240.777 206.181 240.68 206V206Z" fill="#576065"/>
</g>
<g style="mix-blend-mode:screen" opacity="0.6">
<path d="M48.3232 197.993C43.0511 193.989 38.9902 188.748 33.6468 184.744C29.2825 181.446 25.2919 177.661 21.7491 173.459C13.851 163.983 9.132 152.17 8.28391 139.753C7.31118 126.359 10.6649 113.009 17.8306 101.751C22.0234 95.6987 26.7966 90.0895 32.0795 85.0063C35.6428 80.467 39.7068 76.363 44.191 72.7758C44.5472 72.7758 45.3309 73.2854 45.0459 73.6494C28.8022 91.6312 12.6298 110.05 11.6324 135.603C11.1834 149.188 15.5615 162.48 23.9576 173.023C27.8012 177.522 32.0731 181.619 36.7104 185.253C41.27 189.184 44.476 194.208 48.9644 198.066C48.9644 197.993 48.6794 198.503 48.3232 197.993Z" fill="#B3E4FA"/>
</g>
<path opacity="0.7" d="M102.821 257.833C101.681 257.396 97.9766 257.833 95.6968 257.25C94.9131 259.07 90.7809 257.25 89.4273 257.25C81.8299 254.645 74.5226 251.229 67.6265 247.058C64.56 245.027 61.7795 242.578 59.3621 239.778C55.2452 236.942 52.3211 232.628 51.169 227.693C51.0621 226.774 51.0621 225.846 51.169 224.927C51.169 223.543 51.169 222.233 51.169 220.85C51.169 219.467 52.1664 220.85 52.1664 221.359C52.3806 222.674 52.7145 223.966 53.1639 225.218C53.233 225.578 53.233 225.949 53.1639 226.31C54.7534 226.516 56.31 226.932 57.7947 227.547C57.7615 227.111 57.7615 226.673 57.7947 226.237C58.0311 224.864 58.1975 223.479 58.2935 222.087C58.6593 220.614 58.7797 219.088 58.6497 217.574C58.6497 216.773 59.5046 217.21 59.7183 217.574C60.326 219.601 60.6146 221.715 60.5733 223.835C60.7158 225.092 60.7158 226.363 60.5733 227.62V228.712C65.3634 230.858 69.9037 233.544 74.1097 236.72V236.211C74.7509 235.119 75.4634 234.027 76.0333 232.862C76.6033 231.697 77.102 232.862 76.9595 233.444C76.5582 234.615 76.0822 235.758 75.5346 236.866L75.1784 237.667L75.9621 238.249C76.4608 237.303 77.102 236.356 77.5294 235.483C78.5409 233.097 79.7568 230.807 81.1629 228.639C81.1629 228.203 82.2316 228.639 82.0891 229.295C81.3054 231.843 80.9492 234.464 80.023 237.012C80.023 237.885 79.2393 239.196 78.6694 240.288L81.5904 242.617L84.1552 244.728C86.5775 246.621 88.9285 248.514 91.2796 250.625L91.7071 251.208C92.3483 251.208 93.0607 251.208 93.6307 251.208C94.2006 251.208 96.4805 250.407 97.9766 250.043C98.3328 250.043 99.1165 250.844 98.6178 251.062C96.9024 252.11 95.0574 252.918 93.132 253.465V253.465H93.7732C94.8291 253.483 95.883 253.361 96.9079 253.101C96.9079 253.101 97.5491 253.537 97.2642 253.61C96.9792 253.683 95.4118 254.338 94.4856 254.557C97.1926 254.99 99.8292 255.798 102.322 256.959C103.32 257.25 103.534 258.051 102.821 257.833ZM92.277 254.629C92.277 254.629 91.7783 254.629 91.9208 254.12C83.913 250.829 76.2113 246.809 68.9089 242.108C63.8188 238.928 59.0463 235.246 54.66 231.115C54.66 231.697 54.66 232.352 54.66 233.226C61.223 241.195 69.6199 247.374 79.0968 251.208L89.356 255.212C92.6333 256.231 92.9895 255.794 92.277 254.629V254.629Z" fill="#22292C"/>
<path opacity="0.7" d="M111.798 26.3289C110.521 30.874 107.727 34.8187 103.901 37.4784C100.075 40.1381 95.4582 41.3448 90.8522 40.8891V40.8891C86.7913 41.2531 82.8728 40.8891 82.5166 36.7394C81.8754 28.2945 95.1268 21.5241 101.539 19.6312C107.951 17.7384 113.365 18.8304 111.798 26.3289Z" fill="#22292C"/>
<path opacity="0.7" d="M264.69 170.256C252.863 165.305 239.754 154.312 238.4 140.407C238.046 141.083 237.589 141.697 237.047 142.227C237.063 145.939 237.542 149.633 238.472 153.22C238.472 153.657 237.902 153.22 237.83 153.22C236.689 150.108 235.97 146.85 235.693 143.538C233.043 145.245 229.897 145.965 226.788 145.576C224.401 145.751 222.003 145.579 219.663 145.067C219.063 147.445 218.752 149.89 218.737 152.347C218.506 157.045 219.647 161.708 222.014 165.742C222.37 166.179 222.014 166.47 221.515 166.179C218.359 162.414 216.55 157.665 216.386 152.711C215.977 149.887 215.977 147.017 216.386 144.193C212.542 142.856 208.86 141.073 205.414 138.879C200.649 136.038 196.121 132.799 191.878 129.196L191.094 129.924C190.239 130.798 189.455 131.671 188.672 132.618C187.911 133.492 187.077 134.296 186.178 135.02C185.284 135.568 184.428 136.176 183.613 136.84C183.613 136.84 182.616 136.84 182.83 136.185C183.044 135.53 184.112 135.02 184.682 134.438C185.675 133.506 186.581 132.482 187.389 131.38L189.812 128.323L190.239 127.813L188.957 126.575L188.173 127.303C187.526 128.099 186.784 128.808 185.965 129.415C185.965 129.415 185.11 129.415 185.395 128.832C186.136 128.049 186.804 127.195 187.389 126.284L187.888 125.192C186.178 123.591 184.611 121.916 183.044 120.169C179.835 121.01 176.505 121.257 173.212 120.897C166.795 120.554 160.537 118.738 154.902 115.582C154.902 115.582 154.902 114.927 154.902 115.073C161.025 117.72 167.635 118.986 174.28 118.786C176.55 118.719 178.801 118.352 180.977 117.694L180.764 117.912C176.512 112.505 173.581 106.142 172.214 99.3479C168.677 98.536 165.365 96.9184 162.525 94.6159C160.234 92.6894 158.177 90.4897 156.398 88.0638C154.973 86.0982 154.403 82.531 152.765 80.7838C152.765 80.7838 152.765 80.2013 152.765 80.3469C155.258 81.3661 157.111 86.3166 158.678 88.2094C162.209 92.181 166.746 95.0783 171.787 96.5815C171.787 95.6351 171.787 94.6887 171.787 93.7423C171.833 92.045 172.247 90.3792 172.998 88.8646C172.008 88.417 171.131 87.7448 170.433 86.899C169.151 85.5158 168.153 83.8414 166.871 82.3853C165.589 80.9293 166.871 81.5846 167.441 81.9486C168.418 82.9225 169.323 83.9688 170.148 85.079L171.858 86.6806C172.445 87.0762 173.064 87.4173 173.71 87.6998C174.562 86.4665 175.654 85.4256 176.916 84.6422C176.084 84.1492 175.415 83.4142 174.993 82.531C174.83 82.1761 174.639 81.8353 174.423 81.5117C174.423 81.5117 173.995 81.0749 174.423 80.8565C174.993 80.8565 175.349 81.6574 175.705 82.0942C176.283 82.9028 176.98 83.615 177.771 84.2054C181.404 82.3869 185.411 81.488 189.455 81.5845C197.327 81.5007 205.17 82.5546 212.752 84.715C212.932 83.6517 213.319 82.6365 213.892 81.7301C214.466 80.2558 215.259 78.8807 216.243 77.6533C216.243 77.6533 217.312 77.6533 217.098 78.3085C216.504 79.646 216.119 81.071 215.958 82.531C215.74 83.3219 215.479 84.0997 215.175 84.8606C215.175 84.8606 215.175 85.2974 215.175 85.443C220.047 86.8042 224.581 89.2088 228.475 92.4973C232.369 95.7858 235.533 99.8829 237.759 104.517C239.978 109.771 241.234 115.397 241.464 121.115L242.746 121.77L244.812 122.353C245.169 122.353 245.739 123.299 244.812 123.227C243.564 123.134 242.337 122.839 241.179 122.353C241.179 124.173 241.179 126.066 241.179 127.886C242.284 128.862 243.567 129.604 244.955 130.07L247.662 131.307L249.087 131.89C249.087 131.89 252.293 132.982 250.512 131.89L252.008 132.472C252.008 132.472 252.008 132.472 252.008 132.836C249.799 134.219 245.952 132.181 243.815 131.307C242.854 130.894 241.926 130.407 241.036 129.851C241.036 131.599 240.609 133.273 240.253 134.875C240.293 135.262 240.293 135.652 240.253 136.039C241.548 142.788 243.957 149.263 247.377 155.186C252.226 160.985 258.099 165.8 264.69 169.382C265.188 169.673 265.331 170.474 264.69 170.256ZM235.194 106.41C229.637 88.6462 208.478 86.0254 192.804 84.5694C184.54 83.7686 175.919 86.3166 174.85 95.5623C178.199 91.5582 187.532 91.0486 191.664 90.8302C199 91.204 206.074 93.7317 212.04 98.1103C218.929 101.637 225.02 106.597 229.922 112.67C232.246 116.513 233.863 120.756 234.696 125.192C235.479 128.687 235.337 132.472 235.836 136.258C236.246 135.167 236.579 134.048 236.833 132.909C238.781 124.098 238.212 114.9 235.194 106.41V106.41Z" fill="#22292C"/>
<path opacity="0.7" d="M295.253 208.475C294.575 212.168 293.035 215.639 290.764 218.595C286.688 225.858 280.654 231.771 273.381 235.63C269.76 237.756 265.512 238.48 261.412 237.668C258.552 237.378 255.718 236.867 252.934 236.14C248.674 235.9 244.402 236.095 240.181 236.722C240.181 236.722 239.611 236.358 240.181 236.212C242.993 234.689 246.103 233.826 249.283 233.688C252.463 233.549 255.633 234.138 258.562 235.412C258.055 234.152 258.055 232.74 258.562 231.48C255.712 230.752 252.863 229.151 250.013 228.714C250.013 228.714 249.372 228.131 250.013 228.131C253.181 228.378 256.311 228.989 259.346 229.951C260.428 227.674 261.716 225.505 263.193 223.472C264.27 221.946 265.436 220.488 266.684 219.104L265.971 218.522C265.938 218.403 265.938 218.277 265.971 218.158C265.971 217.721 267.04 218.158 267.895 218.959L268.536 218.303C268.029 217.881 267.48 217.515 266.898 217.211C266.541 217.211 266.328 216.265 266.898 216.483C267.664 216.865 268.402 217.303 269.106 217.794C269.605 217.211 270.175 216.702 270.745 216.119C269.468 215.362 268.231 214.536 267.04 213.644C265.871 212.875 264.774 211.998 263.763 211.023C262.765 210.15 261.768 208.621 260.628 208.038C259.488 207.456 260.628 207.602 260.628 207.602C260.628 207.602 261.198 207.602 261.626 208.111C262.053 208.621 264.475 210.586 265.9 211.751C267.762 213.121 269.741 214.315 271.813 215.319C273.025 214.227 274.307 213.207 275.589 212.261L275.091 211.606C273.271 209.474 271.604 207.212 270.104 204.835C270.104 204.398 270.104 204.326 270.531 204.835C272.027 206.801 273.523 208.766 275.162 210.586C275.579 211.037 276.032 211.45 276.516 211.824C278.012 210.732 279.579 209.786 281.147 208.839C280.078 207.165 279.437 205.054 278.51 203.379C278.51 202.87 278.938 203.015 279.152 203.379C279.365 203.743 280.505 205.709 281.147 206.946L282.073 208.402L284.709 206.946C286.205 206.241 287.754 205.657 289.34 205.199C287.088 202.087 285.687 198.418 285.279 194.57C285.279 193.988 286.062 194.57 286.134 194.57C286.793 196.572 287.603 198.519 288.556 200.394C289.436 201.758 290.154 203.224 290.693 204.762C291.542 204.617 292.409 204.617 293.258 204.762C291.964 200.03 291.553 195.09 292.047 190.202C292.047 189.62 292.902 190.202 292.902 190.566C293.769 196.556 295.079 202.47 296.82 208.257C296.849 208.469 296.793 208.684 296.666 208.855C296.539 209.026 296.351 209.138 296.143 209.167C295.936 209.196 295.725 209.139 295.558 209.01C295.391 208.88 295.281 208.688 295.253 208.475ZM290.266 207.019V207.747C290.266 207.747 290.266 208.111 290.266 208.257C290.266 211.824 279.009 223.545 277.869 224.491C276.729 225.438 264.618 234.392 261.697 232.645C261.697 234.392 262.552 235.703 265.615 235.12C270.168 234.169 274.423 232.095 278.012 229.078C283.894 223.975 288.57 217.579 291.691 210.368C292.973 207.674 291.976 206.946 290.266 207.019V207.019Z" fill="#22292C"/>
<path opacity="0.7" d="M211.185 231.189C204.061 233.737 197.863 236.576 191.023 238.833C191.096 239.622 190.971 240.418 190.659 241.144C190.348 241.87 189.86 242.503 189.242 242.983H190.382C195.511 244.22 200.855 244.876 205.913 246.623C205.913 246.623 206.554 247.569 205.913 247.424C201.496 246.259 196.865 245.895 192.377 245.167L187.318 244.22C186.005 245.239 184.625 246.163 183.186 246.987L184.825 248.297C186.646 249.366 188.363 250.609 189.954 252.01C190.311 252.374 189.954 252.738 189.954 252.447C187.475 250.689 184.881 249.108 182.189 247.715L180.764 248.224C181.405 249.025 182.118 249.826 182.687 250.627C183.257 251.428 182.687 251.355 182.046 250.627C181.405 249.899 180.479 248.807 179.695 247.86L178.057 248.952C176.424 249.649 174.73 250.185 172.998 250.554C172.973 252.406 172.831 254.254 172.571 256.087C172.726 259.936 172.488 263.791 171.858 267.589C171.858 267.953 171.146 267.589 171.217 267.152C171.608 263.718 171.608 260.249 171.217 256.815C171.217 254.922 171.217 252.956 171.217 250.991C169.991 251.208 168.754 251.354 167.512 251.428C167.043 252.898 166.422 254.314 165.66 255.65C165.66 256.16 164.734 255.65 164.805 255.14C164.876 254.631 165.304 253.612 165.589 252.884C165.786 252.435 165.953 251.973 166.088 251.5C163.701 251.618 161.31 251.447 158.963 250.991L157.467 252.083C155.615 253.393 152.622 254.558 151.625 256.742C151.625 257.252 150.627 256.742 150.77 256.232C151.411 254.121 153.905 252.301 155.543 250.991L156.398 250.19C155.768 249.892 155.171 249.526 154.617 249.098C153.467 249.387 152.301 249.605 151.126 249.753C148.704 250.263 146.21 250.481 144.002 251.136C144.002 251.136 143.289 250.7 143.574 250.627C145.42 250.007 147.299 249.496 149.203 249.098C150.77 249.098 152.337 248.152 153.905 247.86C153.121 246.113 154.902 244.075 157.182 242.4H156.327C155.206 242.024 154.165 241.431 153.264 240.653C153.264 240.289 153.264 239.998 153.62 240.216C155.146 240.935 156.747 241.472 158.393 241.818L159.391 241.236L153.406 238.687C149.111 236.633 144.684 234.882 140.155 233.446C140.155 233.446 139.442 232.645 140.155 232.718C143.592 233.5 146.954 234.596 150.2 235.994C154.047 237.231 157.894 238.542 161.67 240.144L162.953 239.488C165.434 238.413 168.011 237.584 170.647 237.013C170.647 236.067 170.148 235.193 169.935 234.247C169.229 231.659 168.659 229.034 168.225 226.384C168.225 225.729 169.222 226.384 169.294 226.384C170.19 229.764 171.26 233.093 172.5 236.358C174.855 235.949 177.236 235.705 179.624 235.63C180.051 234.975 180.55 234.392 180.906 233.737C181.263 233.082 181.761 233.737 181.619 234.319C181.459 234.769 181.268 235.207 181.049 235.63H182.545L183.471 234.756C184.469 233.737 185.537 232.791 186.606 231.844C187.675 230.898 187.888 232.281 187.532 232.645L185.181 235.63C186.555 235.63 187.921 235.826 189.242 236.212C191.807 235.63 194.443 235.12 197.008 234.465C201.71 233.082 206.341 231.262 211.257 230.024C210.972 230.315 211.541 231.043 211.185 231.189Z" fill="#22292C"/>
<path opacity="0.7" d="M266.615 45.6907C262.055 43.8707 257.567 41.8322 253.221 39.6482C248.499 37.4068 243.95 34.8028 239.613 31.8586C236.129 30.3681 233.172 27.8288 231.135 24.5785C228.499 19.6281 236.55 20.0649 239.257 20.3561C248.173 21.8183 256.748 24.9529 264.549 29.6018C271.565 32.8878 277.682 37.8883 282.36 44.1618C287.632 53.9171 269.393 46.7827 266.615 45.6907Z" fill="#0F1619"/>
<g opacity="0.7">
<path opacity="0.7" d="M76.1782 155.114C70.1703 153.23 63.9373 152.202 57.6547 152.056C53.5225 152.056 49.6753 152.638 45.5431 152.493C45.4138 156.904 44.4711 161.251 42.7646 165.306C44.3068 165.695 45.8808 165.939 47.4667 166.034C49.4374 166.416 51.3873 166.902 53.3088 167.49C53.665 167.49 54.1637 168.436 53.3088 168.363C51.2427 167.999 49.1054 167.49 46.968 167.271C45.2935 167.282 43.6379 166.909 42.1234 166.179C42.0209 166.383 41.9017 166.578 41.7672 166.762H43.2633C44.0591 166.944 44.8263 167.238 45.5431 167.635C45.9706 167.635 45.5431 168.582 45.5431 168.29C44.593 167.803 43.5429 167.553 42.4796 167.562H41.4822C41.1419 168.079 40.7607 168.566 40.3423 169.018H41.6247C43.5633 169.656 45.4269 170.511 47.1818 171.567C50.2032 172.807 52.7176 175.068 54.3062 177.973C54.3062 178.337 53.8787 177.973 53.7362 177.973C50.4053 174.501 45.8825 172.491 41.126 172.367C40.1967 172.547 39.2397 172.509 38.3266 172.257C37.4136 172.005 36.5683 171.545 35.8539 170.911C34.6911 170.693 33.6357 170.077 32.8616 169.164C30.6191 166.476 28.9237 163.357 27.8745 159.991C21.3468 147.329 18.9978 132.85 21.1776 118.713C21.7475 115.656 23.2436 109.103 27.3046 109.031C28.8225 108.096 30.4504 107.362 32.1492 106.847C34.5812 105.835 36.9594 104.693 39.2736 103.425C42.5509 101.678 43.6908 98.9113 46.0419 96.1449C46.0419 96.1449 46.8255 96.1449 46.7543 96.6545C46.0343 99.0444 44.9526 101.304 43.5483 103.352C42.5509 105.027 39.5586 106.119 37.9912 106.919C36.4239 107.72 33.3603 108.885 30.8668 109.759H30.0119C32.7311 111.339 34.9172 113.725 36.2814 116.602L39.0599 115.728C40.9607 114.879 42.7947 113.881 44.5457 112.743C44.5457 112.743 45.4006 113.544 45.4006 113.835C43.7542 115.087 42.0154 116.207 40.1998 117.184L37.35 118.422C38.0625 119.732 38.6324 120.97 39.1311 122.062C39.3633 122.453 39.5544 122.868 39.7011 123.3L43.2633 122.499C46.8255 121.698 50.3878 120.606 54.1637 120.169C54.6624 120.169 55.3749 121.043 54.7337 121.188C52.8813 121.625 51.1002 122.644 49.2478 123.227C47.3955 123.809 45.9706 124.1 44.332 124.537C42.6934 124.974 41.9809 125.265 40.6985 125.629C42.3456 129.639 43.5869 133.81 44.4032 138.078C44.4032 138.078 45.0444 138.661 44.4032 138.806C44.8307 141.063 45.1157 143.393 45.3294 145.722H48.3217C50.2453 145.722 52.0976 144.994 54.0212 144.921C54.0212 144.921 55.0186 145.722 54.4487 145.795C52.645 146.098 50.8607 146.512 49.1054 147.033C47.8729 147.145 46.6331 147.145 45.4006 147.033C45.4006 147.906 45.4006 148.78 45.4006 149.581H47.823C51.1002 149.581 54.4487 148.853 57.7259 148.925C64.0994 149.685 70.3084 151.505 76.107 154.313C76.107 154.313 76.7482 155.259 76.1782 155.114ZM40.556 163.631C36.6824 155.997 33.5333 148.001 31.1518 139.753C29.8299 131.552 30.2675 123.156 32.4342 115.146C30.0831 112.743 27.3758 111.943 25.3097 116.602C24.1333 120.109 23.6963 123.83 24.0273 127.522C24.8776 127.394 25.7418 127.394 26.5921 127.522C26.7838 127.582 26.9599 127.686 27.1078 127.824C27.2556 127.963 27.3715 128.133 27.4471 128.323V128.76C26.3784 128.76 24.9535 128.76 23.9561 129.488H24.0273C24.0273 130.798 24.0273 132.109 24.0273 133.419C24.8727 133.666 25.7049 133.958 26.5209 134.293C27.0196 134.293 27.3758 135.603 26.5209 135.312C25.7263 134.99 24.8817 134.818 24.0273 134.802C24.2173 139.177 24.7173 143.532 25.5235 147.833C25.5235 147.833 26.0222 147.833 26.0934 147.833C27.3848 153.341 29.0756 158.744 31.1518 163.995C34.2153 171.275 38.2762 168.072 41.126 163.995L40.556 163.631Z" fill="#22292C"/>
<path opacity="0.7" d="M27.8013 141.79H26.4476C26.0133 141.871 25.6005 142.045 25.2364 142.3C25.2364 142.3 24.524 142.3 24.4527 141.863C24.0253 140.334 26.7326 140.844 27.445 140.917C28.1575 140.989 28.3712 141.79 27.8013 141.79Z" fill="#22292C"/>
</g>
<path opacity="0.7" d="M138.017 31.3494C138.017 35.2806 131.463 37.8286 128.969 34.043C128.743 33.7474 128.576 33.4089 128.479 33.047C128.381 32.6851 128.355 32.307 128.401 31.9347C128.448 31.5623 128.566 31.203 128.749 30.8776C128.932 30.5522 129.176 30.2672 129.468 30.039C130.219 28.7548 131.338 27.738 132.674 27.1269C133.174 26.9439 133.705 26.8648 134.236 26.8943C134.766 26.9238 135.285 27.0612 135.763 27.2986C136.241 27.5359 136.668 27.8684 137.018 28.2764C137.368 28.6845 137.635 29.16 137.804 29.675C137.891 29.9618 137.962 30.2535 138.017 30.5486C138.017 30.5486 138.017 31.2766 138.017 31.3494Z" fill="#22292C"/>
<path opacity="0.7" d="M72.1836 44.2375C70.1175 46.4943 68.0514 49.4064 64.6317 48.3872C64.1608 48.2642 63.7202 48.0422 63.3381 47.7352C62.9561 47.4282 62.6409 47.0431 62.4129 46.6045C62.1849 46.1659 62.049 45.6835 62.014 45.1881C61.9789 44.6928 62.0455 44.1954 62.2094 43.7279C62.0734 43.3021 62.0734 42.8432 62.2094 42.4175C63.9905 39.4326 69.8325 35.1373 73.0385 38.195C76.2445 41.2526 73.8935 42.5631 72.1836 44.2375Z" fill="#22292C"/>
<path opacity="0.7" d="M270.958 99.7852C269.638 99.5307 268.436 98.8401 267.538 97.8195C266.517 96.9506 265.834 95.7367 265.614 94.3979C265.57 94.2146 265.598 94.0211 265.691 93.8581C265.784 93.6952 265.935 93.5755 266.113 93.5243C266.655 93.3654 267.226 93.3353 267.782 93.4362C268.337 93.5372 268.863 93.7665 269.319 94.1067C270.174 94.6163 271.741 96.0723 271.527 97.3099C271.722 97.7019 271.865 98.1179 271.955 98.5476C272.169 99.3484 271.741 99.7852 270.958 99.7852Z" fill="#22292C"/>
<path opacity="0.7" d="M297.963 141.644C297.522 142.168 296.975 142.588 296.36 142.876C295.745 143.163 295.077 143.312 294.401 143.312C293.724 143.313 293.056 143.163 292.441 142.876C291.827 142.588 291.28 142.168 290.839 141.644C289.158 139.997 287.866 137.98 287.063 135.747C285.489 133.273 284.423 130.5 283.928 127.593C283.747 125.878 283.916 124.142 284.426 122.497C284.426 122.497 284.426 121.915 284.426 121.697C284.517 120.896 284.807 120.133 285.267 119.479C285.727 118.825 286.343 118.302 287.057 117.959C287.77 117.617 288.557 117.466 289.344 117.521C290.13 117.576 290.89 117.836 291.551 118.275C293.858 118.789 295.922 120.1 297.393 121.988C299.346 124.854 300.439 128.239 300.54 131.729C300.642 135.22 299.746 138.665 297.963 141.644V141.644Z" fill="#0F1619"/>
<path opacity="0.7" d="M290.979 159.988C290.979 160.497 290.124 160.425 289.697 159.988C289.269 159.551 287.987 159.041 288.058 158.168C288.024 157.878 288.024 157.584 288.058 157.294C288.058 156.785 288.414 156.639 288.77 156.712C289.027 156.744 289.272 156.841 289.483 156.993C289.695 157.145 289.866 157.349 289.982 157.585C290.765 158.605 291.406 159.405 290.979 159.988Z" fill="#22292C"/>
<path opacity="0.7" d="M231.344 227.55C231.03 227.929 230.645 228.24 230.211 228.464C229.778 228.689 229.304 228.822 228.819 228.856C228.334 228.89 227.848 228.824 227.388 228.662C226.928 228.5 226.505 228.246 226.143 227.914C226.143 227.914 225.502 227.55 225.574 227.332C225.458 227.174 225.376 226.992 225.335 226.799C225.294 226.606 225.293 226.406 225.334 226.213C225.374 226.02 225.455 225.838 225.57 225.679C225.685 225.521 225.832 225.389 226.001 225.293H226.856C227.553 224.507 228.527 224.036 229.563 223.983C229.949 224.028 230.318 224.169 230.636 224.395C230.955 224.621 231.215 224.925 231.391 225.278C231.567 225.631 231.655 226.023 231.647 226.42C231.639 226.816 231.535 227.205 231.344 227.55Z" fill="#22292C"/>
<g style="mix-blend-mode:screen" opacity="0.6">
<path d="M170.717 276.836C150.697 281.714 130.036 272.25 112.582 262.64C112.225 262.64 112.083 261.694 112.582 261.912C121.701 264.97 130.464 269.192 139.654 272.468C149.502 275.872 159.936 277.136 170.29 276.181C170.29 276.181 171.144 276.764 170.717 276.836Z" fill="#B3E4FA"/>
</g>
</g>
<defs>
<radialGradient id="paint0_radial_1188_22134" cx="0" cy="0" r="1" gradientUnits="userSpaceOnUse" gradientTransform="translate(125.05 401.98) scale(373.748 381.913)">
<stop stop-color="#E3F3FC"/>
<stop offset="0.22" stop-color="#AEB7BD"/>
<stop offset="0.61" stop-color="#8CA4AF"/>
<stop offset="1" stop-color="#393B3D"/>
</radialGradient>
</defs>
</svg>
