<svg width="320" height="301" viewBox="0 0 320 301" fill="none" xmlns="http://www.w3.org/2000/svg">
<g style="mix-blend-mode:color-dodge">
<path d="M309.911 120.679C306.926 100.506 309.911 78.8078 300.728 60.0421C292.15 44.2725 278.041 32.4117 261.245 26.8502C242.88 20.1649 223.368 25.3254 204.888 19.5784C196.383 15.9949 188.137 11.8013 180.211 7.02885C171.983 3.03559 163.032 0.838623 153.927 0.578125C137.729 0.676506 121.979 6.01408 108.934 15.8253C101.588 21.1032 94.4715 26.8502 85.9779 31.5416C77.4843 36.233 69.6794 39.1652 61.8745 43.2702C49.0975 51.0573 38.7177 62.3548 31.9173 75.8757C29.3597 82.1341 28.4878 88.978 29.3922 95.697C29.5069 96.9845 29.5069 98.2799 29.3922 99.5674C22.9646 114.815 12.1754 127.716 5.40347 143.198C-1.51392 161.815 -1.79836 182.327 4.60002 201.137C11.9958 220.295 25.2906 236.473 42.4769 247.23C50.8557 253.446 58.5459 260.484 67.269 266.348C75.1463 272.631 82.2391 279.879 88.3883 287.928C94.217 294.326 101.983 298.533 110.435 299.874C118.888 301.214 127.536 299.609 134.988 295.318C143.597 291.213 151.287 285.466 159.666 280.891C170.843 275.582 183.21 273.435 195.477 274.675C216.439 275.569 237.325 271.557 256.539 262.947C273.346 256.086 288.876 246.327 302.45 234.094C333.096 204.656 315.42 155.865 309.911 120.679Z" fill="url(#paint0_radial_1188_22156)"/>
<g style="mix-blend-mode:multiply" opacity="0.2">
<path d="M310.024 120.678C307.155 100.505 310.024 78.8071 301.186 60.0413C292.531 44.5829 278.528 32.9936 261.932 27.5531C243.453 20.7505 224.055 25.7938 205.576 19.9295C197.155 16.2231 189.021 11.8711 181.243 6.91079C173.068 2.86657 164.151 0.628577 155.073 0.342773C138.898 0.351439 123.13 5.51757 109.965 15.1208C102.505 20.516 95.3883 26.1457 87.0095 30.8371C78.6307 35.5286 70.5962 38.3434 62.6765 42.5657C49.8537 50.2269 39.4249 61.4531 32.6045 74.9367C30.2306 81.4969 29.6745 88.5993 30.9976 95.4617C30.9976 96.7519 30.9976 98.042 30.9976 99.3321C24.4552 114.579 13.6661 127.481 6.77936 142.845C-0.271787 161.423 -0.637868 181.956 5.74636 200.785C12.9122 219.638 25.7795 235.663 42.4755 246.526C50.8543 252.859 58.5444 259.897 67.1528 265.761C74.689 272.21 81.4679 279.531 87.3538 287.576C93.1539 294.012 100.906 298.263 109.36 299.647C117.814 301.03 126.478 299.463 133.954 295.2C142.562 291.095 150.367 285.465 158.631 280.891C169.865 275.641 182.273 273.575 194.557 274.909C215.508 275.92 236.414 272.112 255.734 263.767C272.513 256.953 288.038 247.276 301.645 235.149C332.75 205.711 315.304 157.037 310.024 120.678ZM229.679 67.8995C227.328 72.4901 223.637 76.2199 219.12 78.5725C213.063 82.2484 208.256 87.7338 205.346 94.2888C202.362 101.326 200.411 108.95 198 116.221C196.658 122.267 193.989 127.921 190.195 132.759C187.67 135.339 184.456 137.216 181.817 139.796C179.177 142.376 178.488 147.302 178.258 152.111C178.31 154.45 177.592 156.739 176.218 158.61C174.844 160.482 172.895 161.828 170.683 162.432C163.665 164.964 157.356 169.202 152.297 174.78C147.238 180.358 143.582 187.109 141.644 194.451C149.581 186.948 159.985 182.762 170.798 182.722C171.027 182.8 171.227 182.949 171.369 183.149C171.511 183.349 171.587 183.59 171.587 183.837C171.587 184.084 171.511 184.324 171.369 184.524C171.227 184.725 171.027 184.874 170.798 184.951C164.451 189.062 159.091 194.582 155.117 201.099C151.143 207.617 148.656 214.966 147.842 222.6C147.842 228.581 150.023 245.236 140.611 246.057C135.015 245.759 129.471 244.814 124.083 243.242C116.474 241.709 108.579 242.998 101.816 246.878C98.4874 248.989 95.6179 253.798 91.4859 253.915C87.3539 254.032 84.4844 245.822 78.4011 247.112C72.3179 248.403 70.1371 250.045 65.7755 247.112C61.5405 244.664 57.4754 241.921 53.609 238.902C42.8921 232.08 32.6172 224.558 22.8483 216.384C11.5119 204.155 5.18705 187.955 5.17247 171.111C5.03616 166.405 5.30501 161.695 5.97592 157.037C8.12782 145.848 12.8046 135.326 19.6346 126.308C23.2985 121.821 27.3304 117.662 31.6863 113.876C37.8843 107.542 35.8183 101.326 34.3262 93.4678C34.3262 92.5296 35.3592 91.5913 36.1626 92.295C39.8695 96.1486 42.6922 100.796 44.4267 105.9C44.4267 95.9308 44.4267 84.2023 52.9203 78.1034C55.3307 76.3441 60.2661 71.8872 63.3651 72.5909C67.1927 73.9655 70.7071 76.1202 73.6952 78.9244C71.2849 73.9984 68.4154 69.3069 66.1198 64.3809C65.9332 64.1498 65.8312 63.8595 65.8312 63.5599C65.8312 63.2603 65.9332 62.97 66.1198 62.7389C70.8258 60.0413 71.5144 53.2387 76.3351 51.0103C78.1799 50.1243 80.1599 49.5689 82.1888 49.3683L78.5159 46.6707C78.3501 46.5517 78.2148 46.3936 78.1214 46.2099C78.028 46.0262 77.9793 45.8222 77.9793 45.6152C77.9793 45.4081 78.028 45.2041 78.1214 45.0204C78.2148 44.8367 78.3501 44.6786 78.5159 44.5596C81.7288 42.8846 84.7669 40.8805 87.5834 38.578C85.4983 38.8554 83.4294 39.2469 81.3854 39.7509C81.105 39.8147 80.8115 39.7688 80.5626 39.6222C80.3138 39.4757 80.1278 39.2391 80.0413 38.9592C79.9548 38.6794 79.9742 38.3766 80.0955 38.1106C80.2168 37.8446 80.4313 37.6347 80.6967 37.5224C97.6839 26.4975 112.146 11.7195 132.347 6.91079C135.806 5.54671 139.555 5.13212 143.22 5.70828C146.885 6.28443 150.338 7.83125 153.237 10.1948C156.042 16.19 156.653 23.0139 154.958 29.4297C154.958 30.4853 153.122 31.0717 152.778 29.4297C151.58 26.1041 150.621 22.6938 149.908 19.2258C149.758 22.8638 149.258 26.478 148.416 30.0161C148.365 30.1636 148.285 30.2992 148.182 30.4148C148.079 30.5304 147.954 30.6238 147.815 30.6894C147.676 30.7549 147.526 30.7914 147.372 30.7967C147.219 30.8019 147.067 30.7758 146.924 30.7198L135.561 26.8494L137.168 29.3124C137.742 30.1334 137.168 31.7754 135.905 31.189C131.429 28.9606 120.066 26.6148 116.967 32.3619C113.868 38.1089 122.591 43.1522 125.001 47.0226C125.132 47.2544 125.201 47.5173 125.201 47.785C125.201 48.0526 125.132 48.3155 125.001 48.5473C118.688 53.2388 108.473 55.9363 105.718 64.0291C114.089 64.4353 122.433 62.7864 130.051 59.2203L140.496 55.2326C142.218 54.5289 144.514 53.2387 146.465 54.0597C151.285 55.819 149.105 64.0291 147.727 67.4303C145.622 72.3271 143.783 77.339 142.218 82.443C142.274 82.7925 142.274 83.149 142.218 83.4985C150.138 78.8071 153.696 69.0723 159.435 62.6216C159.553 62.4938 159.695 62.392 159.853 62.3225C160.011 62.2529 160.181 62.217 160.353 62.217C160.525 62.217 160.695 62.2529 160.853 62.3225C161.011 62.392 161.153 62.4938 161.271 62.6216C162.085 64.4943 162.663 66.4647 162.993 68.4859C163.199 69.9752 163.585 71.4327 164.141 72.8255C164.944 75.0539 166.895 74.2329 167.125 72.1218C167.305 67.899 167.842 63.7001 168.732 59.5722C169.42 57.3438 170.798 54.998 173.438 55.7017C176.078 56.4055 180.439 59.8068 184.916 59.4549C183.605 57.2945 181.889 55.4209 179.865 53.9425C179.607 53.7558 179.431 53.4718 179.377 53.1529C179.323 52.8339 179.396 52.5062 179.578 52.2418C179.761 51.9774 180.039 51.798 180.351 51.743C180.663 51.688 180.984 51.762 181.243 51.9486C189.518 57.2448 198.782 60.7201 208.445 62.1525C215.67 62.4956 222.797 63.9997 229.564 66.6093C229.797 66.7741 229.969 67.014 230.052 67.2905C230.135 67.567 230.125 67.8641 230.023 68.1341L229.679 67.8995Z" fill="#576065"/>
</g>
<g style="mix-blend-mode:screen" opacity="0.6">
<path d="M38.5702 110.359C34.0938 115.402 30.88 121.384 26.1741 126.31C22.3706 130.417 19.0218 134.94 16.1884 139.797C9.82218 150.823 7.16168 163.675 8.61304 176.391C9.91457 189.985 15.5619 202.763 24.682 212.749C29.7826 218.083 35.3969 222.877 41.4397 227.058C45.7871 230.97 50.563 234.355 55.6722 237.145C55.6722 237.145 56.7052 236.441 56.3608 236.089C37.0781 220.959 17.6805 205.595 12.2859 180.026C9.43773 166.474 11.5618 152.324 18.2544 140.267C21.3073 135.052 24.8849 130.178 28.9288 125.723C32.8313 121.032 35.1268 115.402 39.0293 110.71C39.2589 110.359 38.9145 110.007 38.5702 110.359Z" fill="#B3E4FA"/>
</g>
<path opacity="0.7" d="M82.9897 40.9246C81.9567 41.5111 78.1691 41.7456 75.6439 42.8012C74.4961 41.1592 70.7085 43.5049 69.4459 44.2086C62.281 48.1589 55.5477 52.8769 49.3597 58.283C46.6401 60.8153 44.2486 63.6926 42.2434 66.8448C38.6224 70.4433 36.4521 75.2973 36.1602 80.45C36.2291 81.41 36.422 82.3566 36.7341 83.2649C36.8519 84.6503 37.0823 86.0234 37.4227 87.3699C37.4227 87.9563 38.341 87.3699 38.341 86.6662C38.1705 85.3034 38.1705 83.9239 38.341 82.5611C38.3967 82.2116 38.3967 81.8551 38.341 81.5056C39.9144 80.9981 41.4185 80.2887 42.8173 79.3944C42.8173 79.3944 42.8173 80.2154 42.8173 80.6846C43.3414 81.9773 43.7636 83.3108 44.0799 84.6723C44.6891 86.1281 45.0762 87.6707 45.2276 89.2464C45.2276 90.0674 46.1459 89.2464 46.2607 89.2464C46.6017 87.071 46.6017 84.8539 46.2607 82.6784C46.2083 81.4383 45.9762 80.2131 45.572 79.0426C45.572 79.0426 45.572 78.2216 45.572 77.8697C49.9881 74.8544 54.0679 71.354 57.7385 67.4312V67.4312C58.6402 68.3529 59.4836 69.3323 60.2636 70.3634C60.2636 70.3634 61.2966 70.3634 61.0671 69.6597C60.8375 68.956 59.8045 67.5485 59.1158 66.493V65.672L59.8045 64.9683L61.8705 67.5485C63.3133 69.7481 64.9253 71.8268 66.6912 73.7647C66.6912 73.7647 67.7242 73.7647 67.4947 72.9437C66.2321 70.4807 65.4287 67.9004 64.0513 65.5547L62.2149 62.5053L64.74 59.6904C65.4286 58.7521 66.2321 57.9311 66.9208 57.1101C67.6094 56.2891 71.0528 52.4187 72.8892 49.9557V49.2519H74.8405H79.4316C79.4316 49.2519 80.4646 48.3136 79.4316 48.1964C77.5546 47.4269 75.5864 46.9142 73.5779 46.6716V46.6716H74.2666C75.331 46.4964 76.416 46.4964 77.4804 46.6716C77.4804 46.6716 77.4804 46.6716 77.4804 46.6716C76.4867 46.6055 75.4898 46.6055 74.4961 46.6716C77.1507 45.8037 79.6648 44.5389 81.9567 42.9185C81.9567 42.9185 83.6784 40.5728 82.9897 40.9246ZM73.004 46.0852C65.5848 50.8366 58.594 56.2531 52.1144 62.2707C47.6505 66.3633 43.5767 70.8795 39.9478 75.7586C39.8788 75.0566 39.8788 74.3494 39.9478 73.6474V73.6474C45.12 64.4743 52.46 56.7724 61.2966 51.2458L70.938 45.3815C73.004 44.2086 73.5779 44.6778 73.004 46.0852V46.0852Z" fill="#22292C"/>
<path opacity="0.7" d="M131.656 271.272C129.599 267.082 126.199 263.737 122.022 261.796C117.846 259.854 113.145 259.432 108.701 260.599V260.599C104.569 260.599 100.781 262.359 101.125 266.229C101.814 274.791 116.276 279.248 123.048 279.952C129.82 280.655 134.296 278.544 131.656 271.272Z" fill="#22292C"/>
<path opacity="0.7" d="M260.56 99.6841C254.417 103.11 249.239 108.092 245.521 114.15C241.803 120.208 239.67 127.141 239.326 134.283C238.827 133.591 238.249 132.961 237.604 132.407C236.91 128.54 236.717 124.597 237.03 120.678C237.03 120.678 237.03 120.678 236.457 120.678C236.053 124.028 236.053 127.415 236.457 130.765C233.446 129.692 230.17 129.692 227.16 130.765C224.673 131.028 222.237 131.66 219.928 132.641C218.933 130.484 218.237 128.194 217.862 125.839C216.748 121.162 217.069 116.249 218.781 111.765C218.781 111.765 218.781 111.178 218.207 111.765C215.464 115.894 214.206 120.868 214.649 125.839C214.695 128.785 215.159 131.708 216.026 134.518C212.418 136.527 209.032 138.925 205.926 141.672C201.81 145.275 197.973 149.196 194.448 153.401H193.529L190.66 151.173C189.766 150.362 188.761 149.69 187.676 149.179C186.758 149.179 185.724 148.358 184.806 147.771C183.888 147.185 183.888 147.771 184.232 148.592C184.875 149.128 185.567 149.599 186.298 150L189.512 152.58L192.496 155.16H193.07C193.07 155.16 192.382 156.216 191.923 156.685L190.89 155.864C190.122 155.206 189.273 154.654 188.364 154.222C188.364 154.222 187.561 154.222 188.364 154.926C189.248 155.572 190.057 156.32 190.775 157.154L191.463 157.741C190.058 159.621 188.756 161.579 187.561 163.605C184.159 163.338 180.739 163.695 177.46 164.661C171.113 166.105 165.18 169.036 160.129 173.222C160.129 173.222 160.129 173.926 160.129 173.809C165.749 170.427 172.009 168.308 178.493 167.593C180.818 167.299 183.17 167.299 185.495 167.593C182.245 173.688 180.436 180.476 180.215 187.414C176.846 188.937 173.833 191.176 171.377 193.982C169.459 196.327 167.803 198.884 166.442 201.606C165.294 203.834 165.294 207.47 163.917 209.346C162.539 211.223 163.917 209.933 163.917 209.346C166.212 207.822 167.245 202.544 168.508 200.315C171.264 195.716 175.245 192.013 179.986 189.642C179.93 190.58 179.93 191.52 179.986 192.457C180.368 194.144 181.07 195.738 182.052 197.149C181.144 197.818 180.366 198.653 179.756 199.612C178.723 201.254 178.034 203.13 177.001 204.772C175.968 206.414 177.001 205.476 177.69 204.772C178.379 204.069 179.182 202.309 179.871 201.136L181.248 199.143C181.773 198.648 182.35 198.215 182.97 197.852C184.028 198.907 185.275 199.744 186.643 200.315C185.959 201.002 185.447 201.847 185.151 202.778C185.196 203.168 185.196 203.562 185.151 203.951C185.151 203.951 185.151 203.951 185.151 204.655C185.682 204.337 186.088 203.839 186.298 203.248C186.766 202.354 187.344 201.526 188.02 200.785C191.97 201.978 196.144 202.179 200.187 201.371C208.153 200.079 215.889 197.589 223.142 193.982C223.562 195.01 224.144 195.961 224.864 196.797C225.697 198.138 226.7 199.361 227.848 200.433C227.848 200.433 228.881 200.433 228.652 199.612C227.812 198.405 227.19 197.054 226.815 195.624C226.463 194.843 226.04 194.097 225.553 193.396V192.809C230.239 190.543 234.395 187.277 237.741 183.23C241.087 179.184 243.545 174.451 244.95 169.352C246.19 163.656 246.461 157.784 245.754 151.994L246.901 151.173L248.967 150.234C248.967 150.234 249.656 149.061 248.967 149.296C247.737 149.58 246.569 150.097 245.524 150.821C245.292 148.924 244.947 147.044 244.491 145.191V145.191C245.425 144.008 246.6 143.047 247.934 142.376L250.46 140.617L251.722 139.796C251.722 139.796 254.821 138.154 253.214 139.796C251.607 141.438 253.214 139.796 253.214 139.796L254.477 138.858C251.952 137.802 248.508 140.617 246.557 141.907C245.609 142.426 244.723 143.056 243.917 143.784C243.485 142.108 242.949 140.463 242.31 138.858C242.353 138.507 242.353 138.153 242.31 137.802C242.571 130.763 244.007 123.821 246.557 117.277C250.214 110.848 254.955 105.13 260.56 100.388C260.56 100.388 260.56 99.3323 260.56 99.6841ZM241.966 169C239.441 187.766 219.01 194.099 203.286 198.322C195.136 200.55 185.954 199.612 183.314 190.463C187.331 193.982 196.858 192.809 200.99 192.223C208.347 190.35 214.984 186.264 220.043 180.494C226.327 175.865 231.604 169.955 235.538 163.136C237.106 158.822 237.884 154.25 237.834 149.648C237.834 146.012 237.145 142.024 237.03 137.919C237.631 138.899 238.167 139.918 238.637 140.969C242.304 149.811 243.341 159.56 241.622 169H241.966Z" fill="#22292C"/>
<path opacity="0.7" d="M284.31 55.9358C284.31 52.5345 279.833 48.7814 277.997 46.5529C272.769 40.0066 265.79 35.1569 257.91 32.5959C253.912 31.0774 249.513 31.0774 245.514 32.5959C242.722 33.3852 239.996 34.405 237.365 35.6454C233.15 36.6605 228.84 37.211 224.51 37.2874C224.51 37.2874 223.936 37.2874 224.51 37.2874C227.597 38.2911 230.862 38.5908 234.075 38.1652C237.287 37.7397 240.369 36.5993 243.104 34.8244C242.606 36.1048 242.606 37.5316 243.104 38.8121C240.496 40.4278 237.772 41.8393 234.955 43.0344C234.955 43.0344 234.955 43.7381 234.955 43.7381C238.096 42.9152 241.138 41.735 244.022 40.2195C245.439 42.3277 247.096 44.2568 248.958 45.9665C250.265 47.3405 251.686 48.5962 253.205 49.7196L252.631 50.5407C252.631 50.5407 253.664 50.5407 254.467 49.3678L255.271 49.9542C254.827 50.4456 254.326 50.8789 253.778 51.2444C253.778 51.2444 253.778 52.4172 253.778 52.0654L255.73 50.4234L257.681 51.7135L254.352 54.8802C253.337 55.8787 252.379 56.936 251.483 58.0469C250.774 59.35 249.928 60.5693 248.958 61.6828C248.958 61.6828 248.958 61.6828 248.958 61.6828C248.958 61.6828 249.532 61.6828 249.761 60.9791L253.549 56.5222C255.147 54.8129 256.917 53.2798 258.829 51.9481L263.19 54.2938V54.9975C261.769 57.453 260.504 59.9995 259.403 62.6211C259.403 63.2075 259.403 63.2075 259.403 62.6211C260.515 60.3683 261.741 58.176 263.076 56.0531L264.109 54.5284C265.789 55.3326 267.514 56.0375 269.274 56.6395C268.47 58.6334 268.241 60.8618 267.667 62.6211C267.093 64.3803 267.667 62.6211 268.241 62.6211C268.814 62.6211 269.159 60.0408 269.618 58.7506L270.307 56.9914L273.291 58.0469C274.908 58.4723 276.56 58.7471 278.226 58.8679C276.339 62.4579 275.539 66.5408 275.931 70.5965C275.931 70.5965 276.734 70.5965 276.734 70.5965C277.029 68.4899 277.489 66.4111 278.112 64.3804C278.814 62.8926 279.316 61.3144 279.604 59.6889H282.129C281.672 64.6136 282.1 69.5822 283.391 74.3496C283.391 74.9361 284.195 74.3496 284.195 73.7632C284.04 67.6103 284.346 61.4543 285.113 55.3494C285.113 55.3494 284.31 56.0531 284.31 55.9358ZM279.489 58.2815C279.489 58.2815 279.489 57.6951 279.489 57.4605C279.489 53.8247 265.601 44.0899 264.338 43.3862C263.076 42.6825 249.417 35.88 246.892 38.2257C246.892 36.4664 246.892 34.9417 250.335 34.9417C255.09 35.0878 259.739 36.4163 263.879 38.8121C270.606 42.9151 276.366 48.4811 280.751 55.1148C282.129 57.1086 281.325 58.0469 279.489 58.2815Z" fill="#22292C"/>
<path opacity="0.7" d="M196.169 48.1939C188.937 46.9037 181.821 45.1444 174.705 44.2062C174.627 43.3836 174.344 42.5953 173.881 41.9174C173.419 41.2395 172.793 40.6947 172.065 40.3357L173.213 39.7493C178.148 37.6382 183.428 35.9962 188.134 33.4159C188.134 33.4159 188.134 32.3604 188.134 32.5949C183.853 34.3849 179.486 35.9507 175.049 37.2863L170.114 39.1629C168.392 38.2246 166.556 37.5209 165.523 37.0518L166.9 35.4098C168.559 34.0659 170.061 32.5311 171.376 30.8357C171.376 30.8357 171.376 30.0147 171.376 30.8357C169.204 33.0542 166.863 35.0935 164.375 36.9345H162.883L164.375 34.2369C164.375 33.5332 164.375 33.5332 163.801 34.2369C163.227 34.9406 162.538 36.348 161.85 37.4036H159.899C158.178 36.9236 156.402 36.6869 154.619 36.6999C154.619 34.8233 153.586 32.8295 153.241 31.1875C152.795 27.1891 151.91 23.2548 150.601 19.459C150.601 19.459 149.913 19.459 150.028 20.0454C150.933 23.4511 151.434 26.9558 151.52 30.4838C151.52 32.3604 152.094 34.3542 152.323 36.2308H148.535C147.745 34.5924 146.823 33.0233 145.781 31.5394C145.781 31.5394 144.748 31.5394 144.977 32.2431L146.125 34.3542C146.459 34.7377 146.73 35.1733 146.929 35.6443C144.502 35.9707 142.116 36.5604 139.812 37.4036L138.205 36.5826C136.139 35.6443 132.926 34.9406 131.548 32.9468C130.171 30.9529 130.63 32.9468 130.745 33.6505C132.24 35.5996 134.223 37.0991 136.484 37.99L137.517 38.6938C136.911 39.0723 136.369 39.5475 135.91 40.1012H132.237C129.712 40.1012 127.187 40.1012 124.662 40.1012C124.662 40.1012 123.973 40.6876 124.662 40.6876C126.647 40.8641 128.644 40.8641 130.63 40.6876C132.237 40.6876 133.844 40.6876 135.451 40.6876C135.451 42.5642 137.172 44.3234 139.698 45.4963L138.894 46.0827C137.811 46.5828 136.864 47.3482 136.139 48.3111C136.139 48.3111 136.139 48.3111 136.139 48.3111C137.542 47.3312 139.043 46.5056 140.616 45.8482H141.764L136.139 49.484C132.21 52.3198 128.065 54.8299 123.743 56.9902C123.743 56.9902 123.169 57.9285 123.743 57.8112C127.006 56.3869 130.153 54.7005 133.155 52.768C136.828 50.7741 140.501 48.7803 143.944 46.5519H145.436C148.105 47.237 150.836 47.6301 153.586 47.7247C153.523 48.701 153.523 49.6805 153.586 50.6569C153.412 53.3906 153.412 56.133 153.586 58.8668C153.586 59.4532 154.619 58.8668 154.619 58.8668C154.892 55.3189 155.39 51.7929 156.111 48.3111C158.633 48.4855 161.164 48.4855 163.686 48.3111L165.293 49.9531C165.293 49.9531 166.097 49.9531 165.867 49.2494C165.638 48.832 165.369 48.4391 165.064 48.0766H165.637H166.556L167.703 48.7803L171.376 51.2433C171.376 51.2433 172.524 50.5396 172.18 50.1877L168.736 48.0766C170.142 47.9034 171.504 47.466 172.754 46.7864C175.394 46.7864 178.148 46.7864 180.788 46.7864C185.838 46.7864 190.774 48.1939 195.709 48.663C196.054 49.1321 196.513 48.3111 196.169 48.1939Z" fill="#22292C"/>
<path opacity="0.7" d="M283.514 224.125C279.268 226.705 275.136 229.638 271.118 232.57C266.764 235.673 262.658 239.124 258.837 242.891C255.573 244.91 253.036 247.955 251.606 251.57C249.77 256.965 257.804 255.088 260.444 254.267C269.129 251.24 277.186 246.587 284.203 240.545C290.63 235.969 295.901 229.899 299.583 222.835C303.256 212.045 286.154 222.483 283.514 224.125Z" fill="#0F1619"/>
<g opacity="0.7">
<path opacity="0.7" d="M73.9214 148.592C68.2309 151.547 62.1661 153.678 55.9011 154.926C51.6543 155.629 47.7519 155.864 43.7346 156.685C42.8213 152.22 41.1092 147.965 38.6844 144.135C40.1765 143.432 41.6686 143.08 43.2755 142.493C44.8824 141.907 47.0632 140.851 48.8997 140.148C50.7361 139.444 49.5883 138.975 48.8997 139.209L42.4721 141.672C40.7865 141.933 39.1789 142.574 37.7662 143.549V143.549L39.2583 142.963C40.0093 142.647 40.7066 142.211 41.3243 141.672C41.3243 141.672 41.3243 140.617 41.3243 141.086C40.4842 141.747 39.4995 142.19 38.4548 142.376H37.4218C37.0473 141.86 36.5798 141.423 36.0445 141.086H37.307C39.2117 139.977 40.9511 138.594 42.4721 136.981C45.2586 135.244 47.3373 132.536 48.3258 129.357C48.3258 129.357 48.3258 129.357 47.7519 129.357C45.0689 133.377 40.9462 136.158 36.274 137.098C35.3077 137.11 34.3555 137.336 33.4833 137.761C32.6112 138.187 31.8402 138.801 31.2238 139.561C30.0753 139.957 29.1264 140.8 28.5839 141.907C26.7311 144.973 25.556 148.415 25.1405 151.994C20.6589 165.776 20.6589 180.669 25.1405 194.451C26.1735 197.501 28.8134 203.717 32.9455 203.13C34.6438 203.791 36.4183 204.224 38.2253 204.42C40.6356 205.007 43.1607 205.828 45.5711 206.649C48.6034 208.034 51.3055 210.075 53.4908 212.63C53.4908 212.63 54.2943 212.63 54.1795 211.927C53.1996 209.859 51.9653 207.928 50.5066 206.18C48.6868 204.799 46.5545 203.911 44.3085 203.599C41.7834 202.896 39.2583 202.427 36.7331 201.957H35.4706C37.9098 199.913 39.7062 197.18 40.6356 194.099H43.5051C45.5472 194.586 47.5442 195.253 49.4735 196.093C49.4735 196.093 50.5066 195.389 50.0474 195.155C48.1767 194.235 46.2612 193.413 44.3085 192.692L41.2095 191.988C41.2095 190.581 42.013 189.173 42.3573 188V186.71H46.0302C49.8179 186.71 53.7204 187.414 57.508 186.71C57.508 186.71 58.5411 185.537 57.508 185.537C56.475 185.537 53.6056 184.716 51.7691 184.482H46.6041H42.7016C43.6597 180.208 44.198 175.846 44.3085 171.463C44.3085 171.463 44.3085 170.642 44.3085 170.642C44.4809 168.3 44.4809 165.947 44.3085 163.605H47.4075C49.244 163.605 51.31 163.605 53.1465 163.605C54.9829 163.605 54.0647 162.549 53.1465 162.667C52.2282 162.784 49.3588 162.667 47.5223 162.667C46.3006 162.551 45.0711 162.551 43.8494 162.667V160.086H46.3745C49.7205 159.869 53.0534 159.478 56.3603 158.913C62.5279 157.065 68.3478 154.171 73.577 150.352C73.577 150.352 74.4952 148.358 73.9214 148.592ZM37.1923 146.364C34.2186 154.63 32.1402 163.204 30.9942 171.932C31.0442 180.342 32.9262 188.636 36.5036 196.21C34.5524 199.143 31.9125 200.433 29.1578 196.21C27.2499 193.043 26.0723 189.473 25.7144 185.772V185.772C26.5832 185.654 27.4326 185.418 28.2395 185.068C28.4306 184.978 28.6009 184.848 28.7394 184.687C28.8779 184.525 28.9813 184.335 29.043 184.13C29.043 184.13 29.043 184.13 29.043 184.13C27.8952 184.13 26.5179 184.13 25.4849 184.13L25.0257 179.321C25.8764 178.99 26.6855 178.557 27.4361 178.031C27.4361 178.031 28.1248 176.624 27.4361 176.975C26.7059 177.457 25.8847 177.777 25.0257 177.914C24.4045 173.486 24.1358 169.015 24.2223 164.543C24.2223 164.543 24.2223 164.543 24.2223 164.543C24.7395 159.007 25.6603 153.519 26.977 148.123C28.6987 140.265 33.6341 142.728 36.9627 146.364C37.307 146.129 37.1923 146.247 37.1923 146.364V146.364Z" fill="#22292C"/>
<path opacity="0.7" d="M27.7759 170.645H26.3985C26.3985 170.645 25.5951 170.645 25.1359 170.645C24.6768 170.645 24.4473 170.645 24.4473 170.645C24.4473 170.645 26.8576 171.231 27.5463 170.645C28.235 170.058 28.3498 170.527 27.7759 170.645Z" fill="#22292C"/>
</g>
<path opacity="0.7" d="M157.254 261.418C156.221 257.431 149.564 256.023 147.728 260.246C147.546 260.584 147.431 260.956 147.391 261.34C147.35 261.724 147.384 262.113 147.491 262.483C147.597 262.854 147.775 263.199 148.012 263.499C148.25 263.8 148.543 264.049 148.875 264.233C149.852 265.337 151.132 266.114 152.548 266.462C153.078 266.58 153.626 266.584 154.158 266.474C154.69 266.364 155.193 266.142 155.636 265.822C156.078 265.502 156.451 265.091 156.73 264.615C157.008 264.14 157.187 263.61 157.254 263.06C157.369 262.678 157.369 262.27 157.254 261.888C157.254 261.888 157.254 261.418 157.254 261.418Z" fill="#22292C"/>
<path opacity="0.7" d="M88.9634 260.484C86.4383 258.608 83.9132 256.028 80.6994 257.67C80.259 257.881 79.8656 258.182 79.5436 258.554C79.2216 258.927 78.9777 259.363 78.8271 259.836C78.6766 260.308 78.6224 260.807 78.668 261.302C78.7137 261.797 78.8581 262.277 79.0925 262.713C78.9525 263.131 78.9525 263.585 79.0925 264.003C81.388 266.7 87.9304 269.515 90.5703 266.231C93.2102 262.947 90.7999 261.423 88.9634 260.484Z" fill="#22292C"/>
<path opacity="0.7" d="M278.577 169.118C277.31 169.634 276.228 170.534 275.478 171.698C274.576 172.776 274.087 174.151 274.101 175.569C274.101 175.569 274.101 176.273 274.79 176.273C275.362 176.382 275.952 176.331 276.498 176.124C277.044 175.918 277.524 175.564 277.889 175.1C278.692 174.396 279.955 172.754 279.495 171.581C279.599 171.118 279.599 170.637 279.495 170.174C279.84 169.353 279.381 169.001 278.577 169.118Z" fill="#22292C"/>
<path opacity="0.7" d="M298.432 122.44C297.934 121.921 297.327 121.525 296.657 121.281C295.987 121.037 295.272 120.951 294.565 121.03C293.858 121.109 293.178 121.351 292.575 121.738C291.973 122.124 291.464 122.645 291.087 123.261C289.768 125.251 288.833 127.48 288.332 129.829C287.21 132.62 286.625 135.607 286.61 138.625C286.759 140.379 287.226 142.089 287.988 143.668C287.95 143.941 287.95 144.217 287.988 144.489C288.231 145.245 288.653 145.926 289.217 146.474C289.781 147.021 290.469 147.417 291.22 147.626C291.97 147.836 292.76 147.851 293.518 147.672C294.276 147.493 294.978 147.125 295.563 146.601C297.739 145.7 299.529 144.037 300.613 141.909C302.136 138.797 302.741 135.3 302.353 131.843C301.966 128.387 300.604 125.12 298.432 122.44V122.44Z" fill="#0F1619"/>
<path opacity="0.7" d="M288.328 105.196C288.328 105.196 287.41 105.196 286.951 105.196C286.529 105.373 286.177 105.688 285.949 106.091C285.72 106.494 285.629 106.963 285.688 107.424C285.633 107.695 285.633 107.975 285.688 108.245C285.815 108.361 285.978 108.425 286.147 108.425C286.317 108.425 286.48 108.361 286.607 108.245C286.607 108.245 287.41 108.245 287.64 107.072C287.64 107.072 288.787 105.782 288.328 105.196Z" fill="#22292C"/>
<path opacity="0.7" d="M217.057 48.1967C216.33 47.4869 215.364 47.0908 214.359 47.0908C213.354 47.0908 212.388 47.4869 211.662 48.1967C211.662 48.1967 211.662 48.1967 211.662 48.9004C211.567 49.066 211.509 49.2513 211.493 49.4426C211.477 49.634 211.503 49.8266 211.569 50.0064C211.635 50.1862 211.739 50.3487 211.874 50.482C212.01 50.6153 212.172 50.7161 212.351 50.777H213.269C213.674 51.1343 214.152 51.3937 214.669 51.5359C215.186 51.678 215.727 51.6993 216.253 51.598C216.525 51.4296 216.763 51.2078 216.951 50.9452C217.139 50.6827 217.274 50.3847 217.349 50.0685C217.423 49.7522 217.436 49.424 217.386 49.1027C217.336 48.7814 217.224 48.4735 217.057 48.1967V48.1967Z" fill="#22292C"/>
<g style="mix-blend-mode:screen" opacity="0.6">
<path d="M147.728 9.72631C126.838 8.43615 107.785 21.455 91.9453 34.3566C91.9453 34.3566 91.9453 35.4121 91.9453 35.0603C100.554 30.3688 108.588 24.3872 117.197 19.6957C126.482 14.507 136.724 11.3515 147.269 10.43C147.269 10.43 148.187 9.72631 147.728 9.72631Z" fill="#B3E4FA"/>
</g>
</g>
<defs>
<radialGradient id="paint0_radial_1188_22156" cx="0" cy="0" r="1" gradientUnits="userSpaceOnUse" gradientTransform="translate(35.752 -129.25) rotate(-10.0518) scale(378.465 386.235)">
<stop stop-color="#E3F3FC"/>
<stop offset="0.22" stop-color="#AEB7BD"/>
<stop offset="0.61" stop-color="#8CA4AF"/>
<stop offset="1" stop-color="#393B3D"/>
</radialGradient>
</defs>
</svg>
