<svg width="305" height="193" viewBox="0 0 305 193" fill="none" xmlns="http://www.w3.org/2000/svg">
<g style="mix-blend-mode:color-dodge">
<path d="M290.019 103.912C291.828 105.144 293.637 106.553 295.36 107.961C298.482 110.933 300.974 114.528 302.681 118.523C303.738 121.555 304.139 124.786 303.857 127.992C303.574 131.198 302.615 134.304 301.045 137.095C297.559 142.924 295.001 149.282 293.465 155.93C293.401 163.223 291.503 170.376 287.952 176.702C283.577 181.268 278.233 184.745 272.334 186.867C266.435 188.988 260.138 189.696 253.929 188.936C241.925 188.047 229.987 186.401 218.183 184.008C205.151 182.086 191.971 181.437 178.819 182.071C164.737 182.871 150.707 184.429 136.785 186.736C122.307 189.542 107.659 191.336 92.9423 192.105C77.8953 192.966 62.9291 189.326 49.8747 181.631C38.9626 173.954 28.6526 165.42 19.0384 156.106C14.9559 152.895 11.099 149.395 7.49628 145.632C6.29039 143.432 5.0845 141.231 4.05088 139.119C2.88394 136.84 1.93215 134.453 1.20842 131.99C0.880466 130.365 0.678849 128.717 0.605469 127.061C0.605469 120.371 0.605469 113.77 0.605469 107.169C1.34032 103.274 2.28931 99.4244 3.44793 95.6386C6.03198 86.837 9.30511 78.4754 12.0614 70.1138C18.0909 50.1339 21.7086 40.2761 46.5155 32.6186C58.964 28.6151 71.0182 23.4288 82.5199 17.1276C91.6578 10.748 101.595 5.65587 112.064 1.98875C124.031 -0.00239969 136.216 -0.209929 148.241 1.37263C160.593 2.31165 172.858 4.1946 184.935 7.0057C195.601 9.37809 205.994 12.8887 215.943 17.4797C225.739 22.3913 234.838 28.6388 242.99 36.0513C254.273 45.5571 254.704 58.4075 258.666 70.6419C262.973 85.1646 276.496 94.4064 290.019 103.912Z" fill="url(#paint0_radial_1188_21976)"/>
<g style="mix-blend-mode:multiply" opacity="0.2">
<path d="M0 107.609C0.734852 103.714 1.68384 99.8645 2.84246 96.0787C5.42651 87.277 8.69964 78.9154 11.456 70.5539C17.4854 50.574 21.1031 40.7162 45.91 33.0587C58.3586 29.0552 70.4127 23.8689 81.9145 17.5677C91.2156 10.9845 101.36 5.7422 112.062 1.98875C124.028 -0.00239969 136.214 -0.209929 148.239 1.37263C160.59 2.31165 172.856 4.1946 184.932 7.0057C195.599 9.37809 205.992 12.8887 215.941 17.4797C225.737 22.3913 234.835 28.6388 242.987 36.0513C254.271 45.5571 254.701 58.4075 258.664 70.6419C263.315 85.1646 276.838 94.4064 290.361 103.912C292.17 105.144 293.979 106.553 295.702 107.961C298.824 110.933 301.316 114.528 303.023 118.523C304.08 121.555 304.481 124.786 304.199 127.992C303.916 131.198 302.957 134.304 301.387 137.095C297.901 142.924 295.343 149.282 293.807 155.93C293.743 163.223 291.845 170.376 288.294 176.702C283.919 181.268 278.575 184.745 272.676 186.867C266.777 188.988 260.48 189.696 254.271 188.936C242.267 188.047 230.329 186.401 218.525 184.008C205.493 182.086 192.313 181.437 179.161 182.071C165.079 182.871 151.049 184.429 137.127 186.736C122.649 189.542 108.001 191.336 93.2843 192.105C78.2373 192.966 63.2711 189.326 50.2168 181.631C39.1858 173.969 28.7601 165.435 19.0359 156.106C14.9534 152.895 11.0965 149.395 7.49375 145.632C6.28786 143.432 5.08197 141.231 4.04835 139.119C2.88142 136.84 1.92963 134.453 1.20589 131.99C0.877941 130.365 0.676323 128.717 0.602943 127.061C-0.172273 120.371 0.34454 113.77 0 107.609ZM18.1745 90.0056C20.414 90.0056 26.788 88.7733 27.391 91.6779C27.5637 93.4338 27.5637 95.203 27.391 96.9589C27.4093 101.692 27.9 106.41 28.8553 111.042C28.9561 111.205 29.0959 111.34 29.2616 111.434C29.4273 111.527 29.6135 111.576 29.8027 111.576C29.992 111.576 30.1782 111.527 30.3439 111.434C30.5096 111.34 30.6494 111.205 30.7502 111.042C32.8805 108.491 34.8649 105.817 36.6935 103.032C35.8341 105.72 35.1153 108.452 34.5402 111.218C34.5824 111.459 34.7126 111.675 34.9044 111.822C35.0962 111.969 35.3354 112.036 35.5738 112.01C42.0496 110.649 48.6128 109.767 55.2126 109.369C60.2084 109.369 56.6769 119.755 56.6769 122.396C56.6769 131.197 68.5635 135.158 72.698 142.64C72.7989 142.803 72.9387 142.938 73.1044 143.032C73.2701 143.125 73.4563 143.174 73.6455 143.174C73.8348 143.174 74.0209 143.125 74.1866 143.032C74.3523 142.938 74.4921 142.803 74.593 142.64C73.8921 134.84 70.8882 127.443 65.9795 121.428C71.6996 124.021 76.832 127.797 81.0531 132.518C81.1925 132.612 81.3494 132.675 81.514 132.703C81.6785 132.732 81.8471 132.726 82.009 132.684C82.171 132.643 82.3227 132.568 82.4547 132.463C82.5867 132.359 82.6961 132.227 82.7758 132.078C83.897 129.469 84.4833 126.653 84.4985 123.804C86.2308 126.885 88.1888 129.827 90.3557 132.606C90.4689 132.737 90.6081 132.842 90.764 132.914C90.9199 132.986 91.0891 133.023 91.2601 133.023C91.4312 133.023 91.6004 132.986 91.7563 132.914C91.9122 132.842 92.0514 132.737 92.1646 132.606C93.4833 130.89 94.5031 128.954 95.1793 126.885C96.9334 128.595 98.7734 130.211 100.692 131.726C102.673 133.134 101.209 134.718 100.692 136.39C100.175 138.063 103.621 140.703 106.118 142.024C107.621 143.121 109.358 143.838 111.185 144.113C113.013 144.389 114.878 144.216 116.627 143.608C118.529 142.916 120.242 141.769 121.623 140.263C121.58 140.614 121.58 140.969 121.623 141.319C121.685 141.608 121.854 141.861 122.095 142.025C122.336 142.19 122.63 142.252 122.915 142.2C123.67 141.94 124.449 141.763 125.24 141.671C124.366 144.938 123.704 148.261 123.259 151.617C123.259 152.057 123.69 152.497 124.207 152.497C128.427 152.497 132.82 151.353 136.61 150.825C131.528 153.114 125.068 156.37 126.877 160.507C127.652 162.267 129.461 163.588 130.495 165.26C131.217 166.846 132.144 168.326 133.251 169.661C134.577 170.645 136.088 171.34 137.688 171.703C139.288 172.067 140.944 172.091 142.554 171.773C154.06 170.399 165.438 168.073 176.577 164.82C183.037 163.148 189.497 161.387 196.043 160.067C198.369 160.067 201.987 159.363 203.02 157.25C204.054 155.138 203.71 151.177 203.02 147.657C202.504 145.632 201.728 142.552 205.346 141.759C206.255 141.608 207.149 141.372 208.016 141.055C209.386 140.512 210.687 139.802 211.892 138.943C216.199 135.51 206.983 132.166 206.466 129.261C205.777 124.948 213.96 122.484 214.563 118.171C214.735 117.24 214.735 116.285 214.563 115.354C214.563 113.946 213.357 112.45 214.563 112.538H219.989C221.798 112.538 226.277 113.33 227.827 112.01C229.378 110.69 228.947 108.577 229.292 106.817C230.921 106.6 232.572 106.6 234.201 106.817C243.354 108.09 251.663 112.951 257.372 120.371C258.355 121.936 259.725 123.207 261.343 124.057C262.962 124.907 264.771 125.306 266.588 125.212C266.069 129.608 264.938 133.906 263.229 137.975C263.108 138.106 263.04 138.279 263.04 138.459C263.04 138.639 263.108 138.812 263.229 138.943C264.607 140.087 266.244 141.055 267.536 142.288C268.828 143.52 268.828 143.96 268.742 144.576C266.043 146.013 263.134 146.994 260.128 147.481L258.578 148.097C257.307 148.344 256.065 148.727 254.874 149.241C253.668 149.241 252.634 148.801 251.428 148.625C250.222 148.449 250.05 148.625 250.136 149.417C250.22 150.089 250.22 150.769 250.136 151.441C247.38 151.441 244.538 151.441 241.523 150.561C240.748 150.561 240.145 150.561 240.317 151.617C241.448 156.891 244.267 161.629 248.327 165.084C251.849 169.066 255.842 172.585 260.214 175.558C260.731 175.558 261.592 175.558 261.678 175.558C262.445 167.975 265.247 160.756 269.775 154.698C272.531 151.617 279.595 144.84 284.332 149.505C286.109 151.529 287.669 153.742 288.983 156.106C289.088 156.235 289.22 156.339 289.369 156.411C289.518 156.482 289.68 156.519 289.845 156.519C290.009 156.519 290.171 156.482 290.32 156.411C290.469 156.339 290.601 156.235 290.706 156.106C292.152 153.373 293.087 150.388 293.462 147.304C294.151 142.728 295.443 138.503 296.563 133.926C298.019 130.939 298.613 127.59 298.278 124.271C297.942 120.952 296.69 117.798 294.668 115.178C293.371 113.827 291.99 112.563 290.534 111.394C288.041 109.24 285.359 107.325 282.523 105.673L279.853 103.912C277.861 102.479 275.758 101.213 273.565 100.127C268.695 96.6731 264.417 92.4203 260.903 87.5411C258.01 82.3052 255.698 76.755 254.012 70.9939C252.157 61.2925 248.407 52.0727 242.987 43.8848C238.431 37.956 232.709 33.0687 226.191 29.538C215.468 23.0319 203.856 18.1965 191.737 15.1913C179.009 11.1796 165.778 9.07465 152.459 8.94208C151.253 8.94208 151.081 10.2623 152.459 10.6144C159.38 12.5608 166.194 14.8819 172.873 17.5677C179.853 20.7846 185.948 25.7127 190.617 31.9145C192.684 34.555 194.235 37.2835 196.043 40.012C196.56 40.8042 197.68 42.9166 198.972 43.2686C200.021 43.313 201.049 43.5874 201.985 44.0734C202.922 44.5594 203.745 45.2455 204.399 46.0852C204.92 46.8606 205.495 47.596 206.121 48.2856C208.619 50.9261 214.735 56.3831 207.586 58.4955C204.571 59.3757 200.609 60.5199 200.523 63.6885C200.695 65.9336 201.129 68.1496 201.815 70.2898C202.29 72.6414 202.29 75.0676 201.815 77.4192C201.815 80.9398 201.384 84.3725 205.174 86.2208C210.021 87.8543 214.672 90.0391 219.042 92.7341C214.907 94.1423 210.428 94.9345 206.38 95.9907C200.781 96.7829 195.01 97.2229 189.153 98.1031C188.636 98.1031 188.205 98.7192 188.377 99.1593C189.583 101.888 182.865 101.624 181.659 104C180.453 106.377 181.659 107.521 182.348 109.369C176.663 108.313 169.772 106.993 168.997 113.594C168.997 115.794 168.997 117.995 168.997 120.195C168.997 120.723 168.997 125.124 166.758 123.012C166.123 122.451 165.571 121.799 165.121 121.076C164.291 118.473 162.77 116.158 160.728 114.386C157.985 113.279 154.968 113.094 152.115 113.858C150.133 113.858 147.119 113.858 145.482 114.914C139.883 119.403 143.846 128.469 143.329 134.366C137.127 129.877 134.715 122.836 130.753 117.203C128.85 113.594 125.817 110.743 122.14 109.105C116.69 105.334 110.745 102.371 104.482 100.304C99.0825 99.6214 93.6164 100.832 88.9776 103.736C88.9776 101.536 89.8389 99.3353 90.0112 97.1349C89.9812 96.9939 89.9234 96.8607 89.8411 96.7435C89.7588 96.6262 89.6539 96.5275 89.5329 96.4532C89.4118 96.379 89.2772 96.3309 89.1372 96.3119C88.9973 96.2929 88.855 96.3034 88.7192 96.3428C85.446 97.1349 71.4921 101.096 70.3724 96.3428C69.9417 93.8783 69.3387 89.3894 71.8367 87.5411C74.3346 85.6927 75.9712 85.5167 77.8661 84.1965C84.154 79.5316 74.7653 69.2336 72.8703 64.2166C72.7873 64.0315 72.6537 63.8749 72.4856 63.7656C72.3175 63.6563 72.122 63.599 71.9228 63.6005C69.9691 63.9355 67.9646 63.7734 66.0868 63.1286C64.2089 62.4839 62.5154 61.3763 61.1559 59.9038C59.4332 57.6154 57.8828 55.3269 55.9878 53.2145C54.9481 52.2841 53.9698 51.2843 53.0592 50.222C51.7672 48.3736 56.5908 47.9335 57.7105 47.6695C60.4714 47.1171 63.1803 46.322 65.8072 45.293C77.0048 40.4521 60.2084 35.4351 54.2651 35.6992C52.3963 35.8899 50.6117 36.589 49.097 37.7236C46.3386 39.6956 43.4618 41.4888 40.4835 43.0926C35.2355 45.1729 30.3714 48.1492 26.0989 51.8943C22.2229 56.0311 23.4288 62.1042 22.8258 66.8571C21.9645 74.2506 18.0884 81.0278 17.3993 88.5093C17.1409 89.2134 17.6577 90.0056 18.1745 90.0056V90.0056Z" fill="#576065"/>
</g>
<path d="M209.485 127.413C210.92 126.506 212.452 125.768 214.05 125.213L216.806 124.244C217.581 124.244 217.926 121.868 218.27 121.252C218.686 120.701 219.216 120.25 219.821 119.932C221.199 118.875 219.821 116.675 218.701 115.795C218.036 115.256 217.554 114.517 217.323 113.682C217.323 113.682 217.323 113.682 217.323 113.682C219.218 114.298 222.405 117.203 224.386 116.323C225.678 115.696 227.036 115.223 228.434 114.915C229.899 114.915 231.363 114.915 231.707 113.066C232.052 111.218 233.172 113.066 233.516 113.066L234.033 114.034C234.257 113.586 234.43 113.114 234.55 112.626C234.55 112.01 234.55 111.13 235.325 110.778C235.812 111.118 236.176 111.613 236.359 112.186C236.582 112.665 236.756 113.166 236.875 113.682C237.044 113.736 237.224 113.736 237.392 113.682C239.01 113.795 240.621 114 242.216 114.298V114.298C243.279 113.942 244.426 113.942 245.489 114.298C246.264 114.739 246.781 113.594 247.642 113.418C248.112 114.006 248.437 114.7 248.59 115.443H249.279L251.605 116.411L253.069 115.443C253.069 115.443 253.758 115.443 253.672 115.443C253.491 116.202 253.231 116.94 252.897 117.643C255.26 118.792 257.238 120.629 258.582 122.924C259.241 124.1 259.707 125.378 259.96 126.709C261.704 126.483 263.469 126.483 265.214 126.709C265.214 126.709 261.941 128.469 260.476 129.525C260.476 129.525 260.476 131.286 260.476 132.166C260.678 132.915 260.678 133.705 260.476 134.454C260.476 135.07 259.012 135.334 260.476 136.127C261.941 136.919 261.338 136.743 261.424 137.095C261.51 137.447 260.821 138.415 259.96 138.679C261.769 139.823 264.353 140.439 265.558 141.936C266.764 143.432 256.945 143.432 255.567 143.256C254.189 143.08 254.619 143.784 254.447 144.488C254.275 145.192 253.413 144.488 253.155 144.488C252.897 144.488 253.155 145.984 253.672 146.249C252.853 146.465 251.993 146.465 251.174 146.249C249.882 146.249 249.882 146.249 249.537 147.393C249.435 148.018 249.291 148.636 249.107 149.241C249.107 149.241 249.107 149.241 248.504 149.241C247.386 148.684 246.367 147.94 245.489 147.041C243.176 147.393 240.825 147.393 238.512 147.041C238.512 147.657 238.512 148.185 238.512 148.449C238.512 148.713 238.512 150.297 238.512 151.265C238.512 152.234 237.737 151.265 237.651 151.265C237.031 150.195 236.567 149.039 236.273 147.833C236.054 147.327 235.694 146.899 235.239 146.601L232.052 145.808C231.136 145.564 230.243 145.24 229.382 144.84V144.84C228.19 144.667 227.063 144.182 226.109 143.432L225.333 142.552L222.663 142.816C221.78 143.147 220.94 143.591 220.165 144.136C220.165 144.136 219.304 144.136 219.39 143.608C219.476 143.08 220.165 141.848 220.424 141.056C218.098 141.76 215.945 142.728 213.791 143.52C213.791 143.52 212.844 143.52 213.016 142.992C213.874 141.858 214.961 140.928 216.203 140.263C216.985 139.868 217.709 139.365 218.356 138.767C218.356 138.767 218.356 138.767 218.356 138.767C218.123 138.405 217.921 138.022 217.753 137.623C217.341 136.956 216.994 136.248 216.72 135.511C216.031 134.63 214.911 133.662 215.083 132.606C215.256 131.55 215.6 132.606 215.945 131.99V131.55C214.855 131.462 213.761 131.462 212.672 131.55C212.672 131.55 211.896 131.55 212.155 130.934C213.264 130.166 214.447 129.517 215.686 128.997C213.877 128.997 212.069 128.997 210.174 128.997C209.829 128.029 209.14 127.589 209.485 127.413Z" fill="url(#paint1_radial_1188_21976)"/>
<g style="mix-blend-mode:screen" opacity="0.5">
<path d="M218.269 136.478C221.55 135.068 224.953 133.978 228.433 133.221C230.743 132.663 233.015 131.958 235.238 131.109C235.172 130.909 235.172 130.693 235.238 130.493H221.456H235.324L232.137 129.701L224.816 127.148C228.15 128.377 231.542 129.434 234.98 130.317V130.317C234.98 130.317 234.98 130.317 234.98 129.877C230.144 127.058 225.535 123.85 221.198 120.283C221.198 120.283 221.198 120.283 221.198 120.283C223.954 122.307 227.141 124.067 229.812 126.004C231.362 127.06 232.999 127.94 234.635 128.908L234.377 127.06C231.879 124.596 229.381 122.131 227.055 119.579L235.238 126.708L234.377 124.596C232.999 122.307 231.19 120.283 229.898 118.082C231.276 120.019 232.999 121.867 234.549 123.803C234.729 124.111 234.931 124.405 235.152 124.684L234.377 120.899C233.257 117.994 231.707 115.178 230.759 112.097C232.912 116.85 235.583 120.899 237.478 126.092V123.715C237.478 121.163 237.478 118.61 237.478 116.058C237.478 118.698 238.081 121.339 238.253 123.979C238.253 124.948 238.253 126.004 238.253 126.972H238.684L239.459 124.948C240.32 122.131 240.923 119.403 241.957 116.674C241.268 119.227 240.837 121.779 240.32 124.42C240.32 124.948 240.32 125.476 240.32 126.004C242.286 122.727 244.413 119.554 246.694 116.498C246.694 116.498 247.125 116.498 246.694 116.498C244.455 119.843 242.646 123.451 240.578 126.884L244.368 124.332C246.866 122.395 249.192 120.371 251.69 118.522C249.364 120.547 247.125 122.659 244.713 124.596L240.923 127.324C244.799 124.948 249.537 123.011 253.24 120.811L241.957 127.588L243.593 127.06C246.167 126.202 248.673 125.143 251.087 123.891C251.087 123.891 251.087 123.891 251.087 123.891C249.337 124.976 247.492 125.889 245.574 126.62L241.354 128.116C241.391 128.32 241.391 128.529 241.354 128.732C245.919 128.028 249.967 127.412 254.877 126.532C250.503 127.669 246.076 128.58 241.612 129.26C243.593 129.26 245.66 129.877 247.555 130.141L258.925 131.813L242.99 131.725L246.177 132.781C248.187 133.427 250.168 134.131 252.121 134.894C253.539 135.709 255.083 136.275 256.686 136.566C256.686 136.566 256.686 136.566 256.686 136.566C255.92 136.74 255.126 136.74 254.36 136.566L248.417 134.013L242.99 132.693C248.589 135.774 253.843 139.294 259.614 142.023C253.585 139.382 248.072 135.95 242.387 133.221L244.196 134.806C245.779 136.423 247.447 137.95 249.192 139.382C249.192 139.382 249.192 139.382 249.192 139.382C247.444 138.18 245.802 136.825 244.282 135.334L241.698 134.013V134.453L244.455 139.03C246.005 141.495 247.039 144.223 248.675 146.6C246.952 144.399 245.747 141.935 244.196 139.734C242.646 137.534 241.698 136.302 240.492 134.629C241.864 139.108 242.986 143.663 243.852 148.272C243.852 148.272 243.852 148.272 243.852 148.272C242.387 143.255 240.837 138.238 239.286 133.309C238.232 138.222 237.427 143.187 236.875 148.184C236.875 148.184 236.875 148.184 236.875 148.184C237.006 144.762 237.351 141.351 237.908 137.974C237.908 136.566 237.908 135.246 238.511 133.837C238.553 133.634 238.553 133.424 238.511 133.221C238.26 133.528 238.03 133.851 237.822 134.189L234.377 138.414C234.377 138.414 236.186 135.686 237.047 134.365C237.345 133.862 237.691 133.39 238.081 132.957V132.957L235.927 134.982C234.262 136.783 232.446 138.432 230.501 139.911C230.501 139.911 230.501 139.911 230.501 139.911C232.107 138.445 233.632 136.887 235.066 135.246L237.219 132.957C234.894 134.541 232.223 135.862 229.812 137.182C231.793 135.774 233.774 134.365 235.841 133.045C230.587 134.453 225.074 135.246 219.992 137.182C218.356 136.83 218.097 136.566 218.269 136.478Z" fill="#8F9194"/>
</g>
<path d="M9.56374 123.188C10.7307 123.412 11.9283 123.412 13.0953 123.188C12.6205 121.911 12.4434 120.538 12.5779 119.178C12.7125 117.818 13.155 116.509 13.8705 115.355C13.4398 114.739 13.0953 114.035 12.5785 113.419C11.7308 112.484 10.7765 111.656 9.73601 110.954C9.2192 110.954 9.73601 110.162 10.1667 110.514C11.4704 111.28 12.6842 112.195 13.7844 113.242C14.1211 113.605 14.4375 113.987 14.7318 114.387C15.6853 113.565 16.8021 112.964 18.005 112.626C18.0749 112.248 18.0749 111.86 18.005 111.482C18.005 110.778 17.1436 110.162 17.0575 109.458L16.11 102.152C16.11 102.152 16.8852 102.152 16.9714 102.152C17.2552 105.189 18.0112 108.16 19.2109 110.954L19.9 112.362C21.0129 112.184 22.1462 112.184 23.2592 112.362V111.658C24.0938 109.666 24.6449 107.561 24.8958 105.409C24.8958 104.881 26.0155 105.409 26.0155 105.409C25.8876 107.092 25.54 108.749 24.9819 110.338C24.7698 110.972 24.5971 111.618 24.4651 112.274C27.6592 113.415 30.3881 115.615 32.2173 118.523L33.0786 118.083C33.5209 117.749 33.9254 117.365 34.2845 116.939C34.2845 116.939 34.8875 116.939 34.8013 116.939C34.474 117.391 34.0985 117.804 33.6816 118.171L32.6479 118.876C33.2006 119.717 33.6901 120.599 34.1122 121.516C34.43 121.965 34.7178 122.436 34.9736 122.924C35.9769 122.954 36.9566 122.61 37.7299 121.956C37.7299 121.956 38.6774 121.956 38.5051 122.396C37.9785 123.026 37.2419 123.434 36.4379 123.54H35.4904L36.524 126.005H38.3329C39.9694 126.005 41.606 126.709 43.3287 126.885C43.3287 126.885 44.0178 127.413 43.3287 127.413C41.5199 127.413 39.7972 126.973 37.9883 126.973H36.6102C37.037 128.647 37.037 130.404 36.6102 132.078C36.6102 132.078 36.6102 132.606 36.6102 132.782C37.4823 133.043 38.3762 133.219 39.2804 133.31C39.2804 133.31 39.9694 133.838 39.2804 133.838C38.1974 133.836 37.1217 133.657 36.0933 133.31C35.8554 133.728 35.5659 134.112 35.232 134.455C36.5612 134.732 37.8597 135.144 39.1081 135.687C41.2941 136.858 43.3454 138.275 45.2237 139.912C45.2237 139.912 45.2237 140.44 45.2237 139.912C43.4148 138.767 41.5199 137.799 39.6249 136.743C37.7299 135.687 35.9211 135.951 34.2845 135.159L33.1648 135.687C35.7575 136.484 38.0446 138.083 39.711 140.264C39.711 140.264 39.711 140.264 39.2804 140.264C37.0292 138.245 34.3437 136.797 31.4421 136.039C30.1921 136.305 28.902 136.305 27.6521 136.039C24.5898 135.429 21.6676 134.235 19.0386 132.518L17.5743 133.75C16.8761 134.259 16.2141 134.818 15.5932 135.423C15.4296 135.75 15.1986 136.038 14.9162 136.266C14.6337 136.494 14.3064 136.656 13.9566 136.743C13.526 136.743 12.7507 136.127 13.2675 135.863C13.7844 135.599 13.8705 134.543 14.0428 134.191C14.3354 133.656 14.6819 133.155 15.0764 132.694L16.8852 130.758C16.4655 130.329 16.0902 129.857 15.7655 129.35C14.8101 128.085 14.0277 126.693 13.4398 125.213C11.953 125.133 10.4932 124.775 9.13307 124.157C8.9608 123.805 8.70238 122.836 9.56374 123.188ZM16.5407 123.188C16.8762 124.617 17.4284 125.983 18.1772 127.237L18.9525 126.533C18.9525 126.533 19.8999 126.533 19.5554 127.061C19.2658 127.393 18.9144 127.662 18.5218 127.853C19.5924 129.564 20.9653 131.056 22.5701 132.254C22.9948 131.803 23.3181 131.262 23.5176 130.67C23.5176 130.67 24.2928 130.67 24.2067 130.67C23.9785 131.294 23.6266 131.863 23.1731 132.342C23.8878 132.885 24.6698 133.329 25.4987 133.662L26.0155 132.606C26.4462 131.902 26.7908 131.022 27.3076 130.318C27.8244 129.614 27.7382 130.318 27.7382 130.318C27.5032 131.157 27.2155 131.981 26.8769 132.782L26.4462 133.75C27.6888 134.212 29.0002 134.45 30.3223 134.455C31.2949 134.579 32.2792 134.347 33.0995 133.799C33.9199 133.251 34.5231 132.422 34.8013 131.462L33.5093 130.67C30.3605 129.743 27.5877 127.804 25.6018 125.141C23.6159 122.478 22.5226 119.231 22.484 115.883C22.1721 115.708 21.9288 115.428 21.7949 115.091C21.7949 115.091 21.7949 115.091 21.7949 114.563C20.3586 114.716 18.9895 115.264 17.8327 116.147C16.8742 117.078 16.2318 118.297 15.9994 119.627C15.767 120.957 15.9566 122.328 16.5407 123.54V123.188Z" fill="#22292C"/>
<path d="M268.309 159.537C268.902 158.505 269.626 157.558 270.462 156.72C273.218 153.992 278.387 151.263 281.832 154.696C285.277 158.129 280.798 162.617 278.042 164.994C275.286 167.37 271.065 169.395 268.136 166.666C267.249 165.69 266.77 164.398 266.802 163.066C266.834 161.734 267.375 160.467 268.309 159.537V159.537Z" fill="#323A3D"/>
<g style="mix-blend-mode:screen" opacity="0.6">
<path d="M217.149 27.3393C226.37 31.8196 234.605 38.1679 241.353 45.9989C247.173 56.1811 251.004 67.42 252.636 79.0932C254.069 86.0799 257.885 92.319 263.403 96.6966C268.485 100.481 273.998 103.826 279.338 107.347C281.525 108.705 283.625 110.204 285.626 111.835C288.864 113.78 291.562 116.537 293.464 119.845C294.673 123.536 295.067 127.454 294.621 131.319C294.174 135.184 292.897 138.9 290.88 142.201C290.88 142.201 290.105 142.201 290.105 142.201C290.966 136.514 290.966 130.725 290.105 125.038C289.379 122.34 288.137 119.816 286.452 117.61C284.767 115.405 282.671 113.562 280.286 112.188C269.174 104.09 256.082 96.7846 251 84.6383C246.779 74.3403 246.521 63.2502 242.386 52.9522C236.602 42.1458 227.822 33.3269 217.149 27.6034C217.149 27.6034 216.632 27.2513 217.149 27.3393Z" fill="#B3E4FA"/>
</g>
<g style="mix-blend-mode:screen" opacity="0.6">
<path d="M53.4924 76.1854C53.4442 75.8941 53.4442 75.5966 53.4924 75.3052V75.3052C53.4924 74.6011 52.9756 73.1048 53.4924 72.5767C53.7767 72.2424 54.1387 71.9866 54.5451 71.8328C54.9515 71.679 55.3893 71.6321 55.818 71.6965C56.6724 71.7755 57.4785 72.1357 58.1153 72.723C58.7521 73.3103 59.1853 74.0929 59.3496 74.9532C59.4396 75.5214 59.4174 76.1023 59.2842 76.6616C59.1511 77.2209 58.9097 77.7474 58.5744 78.2099C57.5408 79.7062 55.3012 78.65 54.2676 77.6818L53.4924 76.7135V76.1854Z" fill="#668392"/>
</g>
<g style="mix-blend-mode:screen" opacity="0.6">
<path d="M49.4404 83.0537C49.4404 83.0537 50.0434 83.0537 50.3018 83.0537C50.9832 83.1923 51.6112 83.5284 52.1106 84.0219C52.5881 84.1887 53.0073 84.4947 53.3165 84.9021C53.4247 85.1606 53.4738 85.4408 53.4601 85.7216C53.4464 86.0023 53.3702 86.2762 53.2373 86.5223C53.1044 86.7684 52.9184 86.9803 52.6933 87.1419C52.4682 87.3035 52.21 87.4104 51.9383 87.4547C51.3517 87.5239 50.7589 87.3987 50.2472 87.0976C49.7355 86.7965 49.3319 86.3355 49.0959 85.7823C48.8561 85.3508 48.76 84.8514 48.8221 84.3592C48.8843 83.8671 49.1013 83.4089 49.4404 83.0537Z" fill="#668392"/>
</g>
<g style="mix-blend-mode:screen" opacity="0.6">
<path d="M39.1928 73.0186C39.1928 73.0186 39.6235 73.0186 39.968 73.0186C40.1345 73.0611 40.2866 73.1491 40.408 73.2732C40.5293 73.3972 40.6155 73.5525 40.6571 73.7227C40.997 73.8878 41.2707 74.1676 41.4323 74.5148V74.5148C41.4323 75.219 40.9155 75.571 40.2264 75.307C39.824 75.1246 39.4474 74.8878 39.1067 74.6029C39.1067 74.6029 38.8483 73.3706 39.1928 73.0186Z" fill="#668392"/>
</g>
<g style="mix-blend-mode:screen" opacity="0.6">
<path d="M234.373 83.7562C235.579 81.2037 239.283 82.6119 240.833 83.7562C241.853 84.7191 242.55 85.9844 242.828 87.374C243.107 88.7635 242.951 90.2072 242.384 91.5017C241.984 91.9895 241.434 92.3247 240.824 92.4526C240.214 92.5804 239.58 92.4934 239.025 92.2058C237.59 91.8048 236.321 90.9402 235.407 89.7413C234.75 88.916 234.311 87.9332 234.13 86.8858C233.949 85.8384 234.033 84.7612 234.373 83.7562V83.7562Z" fill="#668392"/>
</g>
<g style="mix-blend-mode:screen" opacity="0.6">
<path d="M225.756 82.4341C225.922 82.3656 226.107 82.3656 226.273 82.4341C226.273 82.4341 226.273 83.0502 226.273 83.1383C226.273 83.2263 225.842 83.7544 225.498 83.1383C225.3 83.0427 225.131 82.8939 225.01 82.7078C224.888 82.5217 224.819 82.3054 224.809 82.082C224.809 82.082 225.756 82.4341 225.756 82.4341Z" fill="#668392"/>
</g>
<g style="mix-blend-mode:screen" opacity="0.6">
<path d="M226.448 94.1439C226.581 94.0743 226.729 94.0381 226.878 94.0381C227.028 94.0381 227.176 94.0743 227.309 94.1439C227.769 94.2063 228.213 94.3632 228.613 94.6052C229.012 94.8472 229.36 95.1693 229.635 95.5522C231.185 96.9604 231.96 99.5129 230.151 100.393C228.343 101.273 227.223 99.0729 226.792 98.1047C226.428 97.5212 226.206 96.8566 226.146 96.1673C226.086 95.4779 226.19 94.7839 226.448 94.1439V94.1439Z" fill="#668392"/>
</g>
<path d="M228.255 170.188C230.839 171.156 233.595 173.621 233.509 176.085C233.411 176.701 233.11 177.264 232.656 177.68C232.201 178.097 231.621 178.341 231.011 178.374C230.217 178.553 229.394 178.553 228.599 178.374V178.374C227.254 178.148 226.001 177.529 224.993 176.592C223.984 175.655 223.262 174.44 222.914 173.093C222.139 169.924 225.757 169.22 228.255 170.188Z" fill="#22292C"/>
<path d="M215.255 164.555C215.255 164.555 217.752 165.171 218.183 165.699C218.614 166.227 219.131 167.635 218.183 167.811C217.816 167.808 217.454 167.719 217.126 167.551C216.798 167.383 216.511 167.141 216.288 166.843C215.873 166.488 215.548 166.035 215.341 165.523C215.341 165.523 215.082 164.643 215.255 164.555Z" fill="#22292C"/>
<path d="M221.021 158.658C222.399 157.338 224.811 158.658 225.931 159.538C227.07 160.582 227.778 162.029 227.912 163.587C227.96 163.866 227.919 164.154 227.795 164.408C227.671 164.661 227.47 164.867 227.223 164.995C227.05 165.088 226.858 165.136 226.663 165.136C226.468 165.136 226.276 165.088 226.103 164.995C225.365 164.889 224.66 164.619 224.036 164.203H223.519C222.899 163.796 222.347 163.291 221.882 162.707C220.849 161.739 219.643 159.89 221.021 158.658Z" fill="#22292C"/>
<path d="M65.3792 176.438C66.6713 173.357 73.3898 174.765 75.7155 175.91C78.0411 177.054 80.9697 179.694 80.1084 181.807C80.185 182.125 80.185 182.457 80.1084 182.775C78.6441 185.855 73.6482 184.535 71.4948 183.391C69.3415 182.247 64.1733 179.43 65.3792 176.438Z" fill="#22292C"/>
<path d="M55.2124 166.933C55.2124 166.933 55.2124 166.493 55.9015 166.493C56.7294 166.508 57.5407 166.733 58.2624 167.148C58.9841 167.563 59.5936 168.154 60.036 168.87C60.036 168.87 60.036 170.014 60.036 170.19C59.2816 170.438 58.4685 170.425 57.7215 170.155C56.9746 169.885 56.3352 169.371 55.9015 168.694C55.8409 168.571 55.8094 168.435 55.8094 168.297C55.8094 168.16 55.8409 168.024 55.9015 167.901V167.901C54.954 167.725 54.4372 166.845 55.2124 166.933Z" fill="#22292C"/>
</g>
<defs>
<radialGradient id="paint0_radial_1188_21976" cx="0" cy="0" r="1" gradientUnits="userSpaceOnUse" gradientTransform="translate(221.75 -110.673) rotate(180) scale(371.341 308.499)">
<stop stop-color="#E3F3FC"/>
<stop offset="0.22" stop-color="#AEB7BD"/>
<stop offset="0.61" stop-color="#8CA4AF"/>
<stop offset="1" stop-color="#393B3D"/>
</radialGradient>
<radialGradient id="paint1_radial_1188_21976" cx="0" cy="0" r="1" gradientUnits="userSpaceOnUse" gradientTransform="translate(-299620 1559.27) scale(350.001 254.51)">
<stop stop-color="#E3F3FC"/>
<stop offset="0.22" stop-color="#AEB7BD"/>
<stop offset="0.61" stop-color="#8CA4AF"/>
<stop offset="1" stop-color="#393B3D"/>
</radialGradient>
</defs>
</svg>
