<svg width="314" height="286" viewBox="0 0 314 286" fill="none" xmlns="http://www.w3.org/2000/svg">
<g style="mix-blend-mode:color-dodge">
<path d="M309.431 143.846C309.858 123.753 316.555 103.296 310.642 83.5672C304.69 67.1316 292.954 53.5552 277.727 45.4923C260.984 35.8098 241.321 37.4114 224.294 28.6025C216.803 23.5528 209.662 17.9826 202.92 11.9311C195.644 6.65119 187.37 2.98141 178.626 1.15659C162.894 -1.42742 146.765 1.1199 132.531 8.43668C124.48 12.3679 116.643 16.6632 108.237 19.8664C99.8297 23.0697 91.1379 24.3801 82.8023 27.1465C69.1602 32.4605 57.2421 41.5629 48.3913 53.4276C44.9089 59.0946 42.9436 65.5964 42.6918 72.283C42.5473 73.5321 42.3333 74.7717 42.0506 75.9959C33.2875 89.6824 20.6773 100.311 11.6292 114.071C1.80463 130.893 -1.87993 150.724 1.22755 170.055C3.36489 189.711 16.6876 206.455 29.7253 220.651C36.8497 227.931 43.1192 236.303 50.6711 243.438C56.9657 250.939 62.3702 259.174 66.7724 267.972C71.3804 275.163 78.2181 280.564 86.1889 283.31C94.1598 286.056 102.802 285.987 110.73 283.114C119.707 280.639 128.114 276.489 136.948 273.432C148.608 270.171 160.911 270.171 172.57 273.432C192.715 278.02 213.618 277.871 233.698 272.995C251.313 269.301 268.18 262.554 283.569 253.048C317.837 229.751 309.003 179.737 309.431 143.846Z" fill="url(#paint0_radial_1188_22090)"/>
<g style="mix-blend-mode:multiply" opacity="0.2">
<path d="M309.431 144.647C309.929 124.627 316.555 104.17 310.927 84.4409C305.118 67.975 293.473 54.3359 278.297 46.2205C261.554 36.3924 241.82 37.8484 224.935 29.0396C217.445 23.9362 210.304 18.3175 203.561 12.2226C196.303 6.86519 188.028 3.1205 179.267 1.22967C163.594 -1.49944 147.479 0.842158 133.172 7.92734C125.05 11.7858 117.213 16.081 108.806 19.2115C100.4 22.3419 91.7078 23.6523 83.3722 26.4915C69.677 31.7071 57.7002 40.7661 48.8187 52.627C45.2736 58.2689 43.2803 64.7819 43.0479 71.4824C43.0479 72.72 42.6204 73.8848 42.3354 75.1224C33.5011 88.809 20.9621 99.3651 11.7004 113.052C1.77734 129.837 -2.00862 149.67 1.01372 169.035C3.00857 188.619 16.26 205.873 29.5115 219.996C36.6359 227.276 42.7629 235.721 50.2436 242.928C56.4772 250.456 61.8106 258.717 66.1311 267.535C70.6886 274.631 77.4165 279.986 85.2652 282.765C93.1139 285.544 101.642 285.59 109.519 282.896C118.496 280.421 126.974 276.271 135.808 273.359C147.464 270.073 159.774 270.073 171.43 273.359C191.523 278.054 212.394 278.054 232.487 273.359C250.094 269.75 266.963 263.077 282.358 253.63C317.41 230.698 308.504 180.611 309.431 144.647ZM240.68 79.7089C237.626 83.753 233.419 86.729 228.639 88.2266C222.199 90.7252 216.673 95.2014 212.823 101.039C208.691 107.373 205.699 114.362 201.994 121.06C199.669 126.628 196.165 131.6 191.735 135.62C188.743 137.731 185.394 138.969 182.402 141.007C178.127 143.919 177.913 147.778 176.916 152.364C176.566 154.618 175.495 156.69 173.871 158.257C172.247 159.824 170.162 160.798 167.939 161.027C160.709 162.273 153.882 165.287 148.039 169.812C142.195 174.338 137.51 180.241 134.383 187.017C143.93 182.649 154.118 177.407 164.591 180.829C164.836 180.893 165.053 181.039 165.208 181.243C165.364 181.448 165.448 181.699 165.448 181.958C165.448 182.216 165.364 182.467 165.208 182.672C165.053 182.876 164.836 183.022 164.591 183.086C157.744 185.938 151.621 190.343 146.684 195.968C141.747 201.593 138.126 208.291 136.093 215.555C134.739 221.234 134.454 237.832 125.121 237.395C119.787 236.095 114.605 234.216 109.661 231.79C102.51 229.099 94.6553 229.099 87.5044 231.79C83.9422 233.318 80.3799 237.395 76.319 236.813C71.0469 236.012 70.8332 227.786 64.7062 228.004C60.289 228.004 56.2281 229.387 52.3809 226.33C48.731 223.184 45.2806 219.804 42.0505 216.21C32.7763 207.651 24.1323 198.404 16.1888 188.546C7.23938 174.747 3.79796 157.972 6.57078 141.662C7.21551 137.055 8.28905 132.521 9.77678 128.121C13.7067 117.72 19.9223 108.379 27.9441 100.821C32.262 97.0751 36.886 93.714 41.7655 90.7746C48.8899 85.8241 47.75 79.3449 47.6788 71.5552C47.6788 70.6088 48.9612 69.8808 49.6024 70.7544C52.5803 75.0986 54.5535 80.0772 55.3732 85.3145C57.083 75.7048 59.2204 64.3479 68.2684 59.8343C70.8332 58.5967 76.319 55.1022 79.24 56.3398C82.644 58.3965 85.6601 61.0594 88.1456 64.2023C86.5782 59.0335 84.5121 54.083 83.0872 48.8414C83.0212 48.533 83.0729 48.2106 83.2318 47.9399C83.3907 47.6692 83.6448 47.4709 83.9422 47.3853C88.858 45.5653 91.0666 39.1589 95.7687 37.7028C97.6996 37.2055 99.6969 37.0334 101.682 37.1932C100.71 36.0304 99.6631 34.9359 98.5472 33.9172C98.4014 33.7739 98.2956 33.5936 98.2405 33.3947C98.1855 33.1957 98.1832 32.9854 98.234 32.7853C98.2848 32.5853 98.3867 32.4026 98.5294 32.256C98.6721 32.1095 98.8504 32.0044 99.046 31.9516C102.407 30.8521 105.653 29.4133 108.735 27.6563C106.694 27.5476 104.649 27.5476 102.608 27.6563C101.255 27.6563 101.183 25.8363 102.608 25.3267C120.847 17.6098 137.304 5.88892 157.609 4.65131C164.733 4.65131 173.211 4.6513 177.344 11.4946C180.122 16.081 177.344 26.0547 175.776 30.4228C175.42 31.3692 173.853 31.6604 173.568 30.4228C173.035 26.9738 172.679 23.499 172.499 20.0123C171.853 23.5337 170.776 26.958 169.293 30.2044C169.219 30.3391 169.119 30.4575 169 30.5525C168.881 30.6476 168.745 30.7175 168.599 30.7581C168.453 30.7988 168.301 30.8094 168.151 30.7893C168.001 30.7692 167.856 30.7189 167.726 30.6412C163.878 28.3843 159.96 26.0547 156.113 23.3611L157.253 26.0547C157.68 27.0011 156.754 28.4571 155.685 27.6563C151.767 24.7443 141.436 20.3763 137.162 25.5451C132.887 30.714 140.866 37.0476 142.505 41.1973C142.573 41.4414 142.561 41.7015 142.471 41.938C142.381 42.1746 142.218 42.3746 142.006 42.5077C134.882 46.0021 124.765 46.8757 120.633 54.3014C128.698 56.2402 137.099 56.1903 145.141 54.1558L155.97 52.1174C157.751 51.7534 160.174 50.8798 161.883 52.1174C166.301 54.811 162.81 62.3095 160.957 65.3671C158.094 69.7241 155.477 74.2452 153.12 78.9081C153.12 78.9081 153.12 79.6361 153.12 80.0001C161.527 76.8697 166.087 67.988 173.211 62.8191C173.355 62.7201 173.52 62.6581 173.692 62.6386C173.864 62.6191 174.038 62.6426 174.199 62.707C174.36 62.7715 174.504 62.875 174.617 63.0087C174.73 63.1423 174.81 63.3021 174.85 63.4743C175.332 65.4504 175.571 67.4802 175.562 69.5168C175.575 71.004 175.694 72.4882 175.919 73.9576C176.417 76.2144 178.412 75.7048 179.053 73.9576C179.978 69.5829 181.265 65.2965 182.901 61.1447C183.969 59.1791 185.679 57.0678 188.101 58.2327C192.02 60.0527 194.157 63.4015 198.432 63.9111C197.549 61.5724 196.244 59.4239 194.585 57.5775C194.412 57.3498 194.328 57.0648 194.349 56.7776C194.37 56.4904 194.494 56.2212 194.698 56.0221C194.901 55.823 195.17 55.7081 195.452 55.6996C195.734 55.691 196.008 55.7894 196.223 55.9758C203.356 62.4959 211.721 67.4515 220.803 70.536C227.788 72.0815 234.479 74.7867 240.609 78.5441C240.727 78.7115 240.797 78.9098 240.809 79.1159C240.822 79.3221 240.777 79.5277 240.68 79.7089V79.7089Z" fill="#576065"/>
</g>
<g style="mix-blend-mode:screen" opacity="0.6">
<path d="M48.3232 87.7156C43.0511 91.7197 38.9902 96.9613 33.6468 100.965C29.2825 104.263 25.2919 108.048 21.7491 112.25C13.851 121.726 9.132 133.539 8.28391 145.956C7.31118 159.35 10.6649 172.7 17.8306 183.958C22.0234 190.01 26.7966 195.619 32.0795 200.703C35.6428 205.242 39.7068 209.346 44.191 212.933C44.5472 212.933 45.3309 212.424 45.0459 212.06C28.8022 194.078 12.6298 175.659 11.6324 150.106C11.1834 136.521 15.5615 123.229 23.9576 112.686C27.8012 108.187 32.0731 104.09 36.7104 100.456C41.27 96.5245 44.476 91.5013 48.9644 87.6428C48.9644 87.7156 48.6794 87.206 48.3232 87.7156Z" fill="#B3E4FA"/>
</g>
<path opacity="0.7" d="M102.821 27.8759C101.681 28.3127 97.9766 27.8759 95.6968 28.4583C94.9131 26.6383 90.7809 28.4583 89.4273 28.4583C81.8299 31.0632 74.5226 34.4795 67.6265 38.6504C64.56 40.6811 61.7795 43.1305 59.3621 45.9305C55.2452 48.767 52.3211 53.0801 51.169 58.0154C51.0621 58.9343 51.0621 59.8629 51.169 60.7818C51.169 62.1651 51.169 63.4755 51.169 64.8587C51.169 66.2419 52.1664 64.8587 52.1664 64.3491C52.3806 63.034 52.7145 61.7422 53.1639 60.4906C53.233 60.1301 53.233 59.7592 53.1639 59.3986C54.7534 59.1925 56.31 58.7765 57.7947 58.161C57.7615 58.5972 57.7615 59.0353 57.7947 59.4714C58.0311 60.8449 58.1975 62.23 58.2935 63.6211C58.6593 65.0945 58.7797 66.6204 58.6497 68.1347C58.6497 68.9355 59.5046 68.4987 59.7183 68.1347C60.326 66.1072 60.6146 63.9939 60.5733 61.8739C60.7158 60.6162 60.7158 59.3459 60.5733 58.0882V56.9962C65.3634 54.8506 69.9037 52.1646 74.1097 48.9881V49.4977C74.7509 50.5897 75.4634 51.6817 76.0333 52.8466C76.6033 54.0114 77.102 52.8466 76.9595 52.2642C76.5582 51.093 76.0822 49.95 75.5346 48.8425L75.1784 48.0417L75.9621 47.4593C76.4608 48.4057 77.102 49.3521 77.5294 50.2257C78.5409 52.6118 79.7568 54.9018 81.1629 57.069C81.1629 57.5058 82.2316 57.069 82.0891 56.4138C81.3054 53.8658 80.9492 51.2449 80.023 48.6969C80.023 47.8233 79.2393 46.5129 78.6694 45.4209L81.5904 43.0913L84.1552 40.98C86.5775 39.0872 88.9285 37.1944 91.2796 35.0832L91.7071 34.5008C92.3483 34.5008 93.0607 34.5008 93.6307 34.5008C94.2006 34.5008 96.4805 35.3016 97.9766 35.6656C98.3328 35.6656 99.1165 34.8648 98.6178 34.6464C96.9024 33.5988 95.0574 32.7908 93.132 32.2439V32.2439H93.7732C94.8291 32.2251 95.883 32.3475 96.9079 32.608C96.9079 32.608 97.5491 32.1712 97.2642 32.0984C96.9792 32.0256 95.4118 31.3703 94.4856 31.1519C97.1926 30.7189 99.8292 29.9106 102.322 28.7495C103.32 28.4583 103.534 27.6575 102.821 27.8759ZM92.277 31.0791C92.277 31.0791 91.7783 31.0791 91.9208 31.5888C83.913 34.8792 76.2113 38.8995 68.9089 43.6009C63.8188 46.7801 59.0463 50.4621 54.66 54.5938C54.66 54.0114 54.66 53.3562 54.66 52.4826C61.223 44.5137 69.6199 38.3349 79.0968 34.5008L89.356 30.4967C92.6333 29.4775 92.9895 29.9143 92.277 31.0791V31.0791Z" fill="#22292C"/>
<path opacity="0.7" d="M111.798 259.38C110.521 254.835 107.727 250.89 103.901 248.23C100.075 245.57 95.4582 244.364 90.8522 244.819V244.819C86.7913 244.455 82.8728 244.819 82.5166 248.969C81.8754 257.414 95.1268 264.185 101.539 266.077C107.951 267.97 113.365 266.878 111.798 259.38Z" fill="#22292C"/>
<path opacity="0.7" d="M264.69 115.453C252.863 120.403 239.754 131.396 238.4 145.301C238.046 144.625 237.589 144.011 237.047 143.481C237.063 139.77 237.542 136.076 238.472 132.488C238.472 132.051 237.902 132.488 237.83 132.488C236.689 135.601 235.97 138.859 235.693 142.171C233.043 140.464 229.897 139.744 226.788 140.132C224.401 139.958 222.003 140.129 219.663 140.642C219.063 138.263 218.752 135.818 218.737 133.362C218.506 128.663 219.647 124.001 222.014 119.966C222.37 119.53 222.014 119.238 221.515 119.53C218.359 123.294 216.55 128.044 216.386 132.998C215.977 135.822 215.977 138.692 216.386 141.515C212.542 142.852 208.86 144.635 205.414 146.83C200.649 149.671 196.121 152.909 191.878 156.512L191.094 155.784C190.239 154.911 189.455 154.037 188.672 153.091C187.911 152.216 187.077 151.413 186.178 150.688C185.284 150.141 184.428 149.533 183.613 148.868C183.613 148.868 182.616 148.868 182.83 149.523C183.044 150.179 184.112 150.688 184.682 151.271C185.675 152.202 186.581 153.226 187.389 154.328L189.812 157.386L190.239 157.896L188.957 159.133L188.173 158.405C187.526 157.61 186.784 156.901 185.965 156.294C185.965 156.294 185.11 156.294 185.395 156.876C186.136 157.66 186.804 158.513 187.389 159.424L187.888 160.516C186.178 162.118 184.611 163.792 183.044 165.54C179.835 164.699 176.505 164.452 173.212 164.812C166.795 165.154 160.537 166.971 154.902 170.126C154.902 170.126 154.902 170.781 154.902 170.636C161.025 167.989 167.635 166.722 174.28 166.923C176.55 166.99 178.801 167.357 180.977 168.015L180.764 167.796C176.512 173.203 173.581 179.567 172.214 186.361C168.677 187.173 165.365 188.79 162.525 191.093C160.234 193.019 158.177 195.219 156.398 197.645C154.973 199.61 154.403 203.178 152.765 204.925C152.765 204.925 152.765 205.507 152.765 205.362C155.258 204.342 157.111 199.392 158.678 197.499C162.209 193.528 166.746 190.63 171.787 189.127C171.787 190.073 171.787 191.02 171.787 191.966C171.833 193.664 172.247 195.329 172.998 196.844C172.008 197.291 171.131 197.964 170.433 198.809C169.151 200.193 168.153 201.867 166.871 203.323C165.589 204.779 166.871 204.124 167.441 203.76C168.418 202.786 169.323 201.74 170.148 200.63L171.858 199.028C172.445 198.632 173.064 198.291 173.71 198.009C174.562 199.242 175.654 200.283 176.916 201.066C176.084 201.559 175.415 202.294 174.993 203.178C174.83 203.532 174.639 203.873 174.423 204.197C174.423 204.197 173.995 204.634 174.423 204.852C174.993 204.852 175.349 204.051 175.705 203.614C176.283 202.806 176.98 202.093 177.771 201.503C181.404 203.322 185.411 204.22 189.455 204.124C197.327 204.208 205.17 203.154 212.752 200.994C212.932 202.057 213.319 203.072 213.892 203.978C214.466 205.453 215.259 206.828 216.243 208.055C216.243 208.055 217.312 208.055 217.098 207.4C216.504 206.062 216.119 204.637 215.958 203.178C215.74 202.387 215.479 201.609 215.175 200.848C215.175 200.848 215.175 200.411 215.175 200.266C220.047 198.904 224.581 196.5 228.475 193.211C232.369 189.923 235.533 185.826 237.759 181.192C239.978 175.937 241.234 170.311 241.464 164.593L242.746 163.938L244.812 163.356C245.169 163.356 245.739 162.409 244.812 162.482C243.564 162.575 242.337 162.87 241.179 163.356C241.179 161.536 241.179 159.643 241.179 157.823C242.284 156.847 243.567 156.104 244.955 155.639L247.662 154.401L249.087 153.819C249.087 153.819 252.293 152.727 250.512 153.819L252.008 153.236C252.008 153.236 252.008 153.236 252.008 152.872C249.799 151.489 245.952 153.528 243.815 154.401C242.854 154.815 241.926 155.301 241.036 155.857C241.036 154.11 240.609 152.435 240.253 150.834C240.293 150.447 240.293 150.056 240.253 149.669C241.548 142.92 243.957 136.446 247.377 130.523C252.226 124.724 258.099 119.908 264.69 116.326C265.188 116.035 265.331 115.234 264.69 115.453ZM235.194 179.299C229.637 197.062 208.478 199.683 192.804 201.139C184.54 201.94 175.919 199.392 174.85 190.146C178.199 194.15 187.532 194.66 191.664 194.878C199 194.504 206.074 191.977 212.04 187.598C218.929 184.071 225.02 179.112 229.922 173.038C232.246 169.196 233.863 164.952 234.696 160.516C235.479 157.022 235.337 153.236 235.836 149.451C236.246 150.541 236.579 151.66 236.833 152.799C238.781 161.611 238.212 170.808 235.194 179.299V179.299Z" fill="#22292C"/>
<path opacity="0.7" d="M295.253 77.2332C294.575 73.5404 293.035 70.0692 290.764 67.1139C286.688 59.8502 280.654 53.937 273.381 50.0785C269.76 47.9521 265.512 47.2285 261.412 48.0401C258.552 48.3306 255.718 48.8417 252.934 49.5689C248.674 49.8088 244.402 49.6137 240.181 48.9865C240.181 48.9865 239.611 49.3505 240.181 49.4961C242.993 51.0198 246.103 51.8824 249.283 52.0209C252.463 52.1595 255.633 51.5705 258.562 50.297C258.055 51.5562 258.055 52.9689 258.562 54.2282C255.712 54.9562 252.863 56.5578 250.013 56.9946C250.013 56.9946 249.372 57.577 250.013 57.577C253.181 57.3303 256.311 56.7197 259.346 55.757C260.428 58.0341 261.716 60.2032 263.193 62.2362C264.27 63.7623 265.436 65.2209 266.684 66.6043L265.971 67.1867C265.938 67.3056 265.938 67.4318 265.971 67.5507C265.971 67.9875 267.04 67.5507 267.895 66.7499L268.536 67.4051C268.029 67.8272 267.48 68.1932 266.898 68.4971C266.541 68.4971 266.328 69.4435 266.898 69.2251C267.664 68.8433 268.402 68.4054 269.106 67.9147C269.605 68.4971 270.175 69.0067 270.745 69.5891C269.468 70.3459 268.231 71.1722 267.04 72.0643C265.871 72.833 264.774 73.7103 263.763 74.6851C262.765 75.5587 261.768 77.0876 260.628 77.67C259.488 78.2524 260.628 78.1068 260.628 78.1068C260.628 78.1068 261.198 78.1068 261.626 77.5972C262.053 77.0876 264.475 75.1219 265.9 73.9571C267.762 72.5877 269.741 71.3937 271.813 70.3899C273.025 71.4819 274.307 72.5011 275.589 73.4475L275.091 74.1027C273.271 76.2339 271.604 78.4966 270.104 80.8732C270.104 81.31 270.104 81.3828 270.531 80.8732C272.027 78.9076 273.523 76.942 275.162 75.1219C275.579 74.6719 276.032 74.2579 276.516 73.8843C278.012 74.9763 279.579 75.9227 281.147 76.8692C280.078 78.5436 279.437 80.6548 278.51 82.3292C278.51 82.8388 278.938 82.6932 279.152 82.3292C279.365 81.9652 280.505 79.9996 281.147 78.762L282.073 77.306L284.709 78.762C286.205 79.467 287.754 80.0512 289.34 80.5092C287.088 83.6218 285.687 87.29 285.279 91.1381C285.279 91.7205 286.062 91.1381 286.134 91.1381C286.793 89.136 287.603 87.1889 288.556 85.314C289.436 83.9504 290.154 82.484 290.693 80.946C291.542 81.0912 292.409 81.0912 293.258 80.946C291.964 85.6787 291.553 90.6181 292.047 95.5061C292.047 96.0885 292.902 95.5061 292.902 95.1421C293.769 89.1526 295.079 83.2388 296.82 77.4516C296.849 77.2392 296.793 77.024 296.666 76.8533C296.539 76.6827 296.351 76.5705 296.143 76.5416C295.936 76.5126 295.725 76.5692 295.558 76.6989C295.391 76.8286 295.281 77.0208 295.253 77.2332ZM290.266 78.6892V77.9612C290.266 77.9612 290.266 77.5972 290.266 77.4516C290.266 73.8843 279.009 62.1634 277.869 61.217C276.729 60.2706 264.618 51.3162 261.697 53.0634C261.697 51.3162 262.552 50.0057 265.615 50.5881C270.168 51.5394 274.423 53.6138 278.012 56.6306C283.894 61.7332 288.57 68.1294 291.691 75.3403C292.973 78.034 291.976 78.762 290.266 78.6892V78.6892Z" fill="#22292C"/>
<path opacity="0.7" d="M211.185 54.519C204.061 51.9709 197.863 49.1317 191.023 46.8749C191.096 46.0855 190.971 45.2901 190.659 44.5639C190.348 43.8378 189.86 43.2049 189.242 42.7253H190.382C195.511 41.4877 200.855 40.8325 205.913 39.0853C205.913 39.0853 206.554 38.1388 205.913 38.2844C201.496 39.4493 196.865 39.8133 192.377 40.5413L187.318 41.4877C186.005 40.4689 184.625 39.5446 183.186 38.7213L184.825 37.4109C186.646 36.3418 188.363 35.0986 189.954 33.698C190.311 33.334 189.954 32.97 189.954 33.2612C187.475 35.019 184.881 36.6 182.189 37.9933L180.764 37.4837C181.405 36.6828 182.118 35.882 182.687 35.0812C183.257 34.2804 182.687 34.3532 182.046 35.0812C181.405 35.8092 180.479 36.9012 179.695 37.8476L178.057 36.7556C176.424 36.0593 174.73 35.523 172.998 35.154C172.973 33.3022 172.831 31.454 172.571 29.6212C172.726 25.7722 172.488 21.917 171.858 18.1187C171.858 17.7547 171.146 18.1187 171.217 18.5555C171.608 21.9898 171.608 25.4589 171.217 28.8932C171.217 30.786 171.217 32.7516 171.217 34.7172C169.991 34.4999 168.754 34.3541 167.512 34.2804C167.043 32.8099 166.422 31.3945 165.66 30.058C165.66 29.5484 164.734 30.058 164.805 30.5676C164.876 31.0772 165.304 32.0964 165.589 32.8244C165.786 33.2731 165.953 33.7353 166.088 34.2076C163.701 34.0904 161.31 34.2614 158.963 34.7172L157.467 33.6252C155.615 32.3148 152.622 31.15 151.625 28.966C151.625 28.4564 150.627 28.966 150.77 29.4756C151.411 31.5868 153.905 33.4068 155.543 34.7172L156.398 35.518C155.768 35.8163 155.171 36.1823 154.617 36.61C153.467 36.3214 152.301 36.1026 151.126 35.9548C148.704 35.4452 146.21 35.2268 144.002 34.5716C144.002 34.5716 143.289 35.0084 143.574 35.0812C145.42 35.7015 147.299 36.2119 149.203 36.61C150.77 36.61 152.337 37.5564 153.905 37.8476C153.121 39.5949 154.902 41.6333 157.182 43.3077H156.327C155.206 43.6837 154.165 44.2769 153.264 45.0549C153.264 45.4189 153.264 45.7101 153.62 45.4917C155.146 44.7734 156.747 44.2361 158.393 43.8901L159.391 44.4725L153.406 47.0205C149.111 49.0752 144.684 50.8265 140.155 52.2621C140.155 52.2621 139.442 53.0629 140.155 52.9901C143.592 52.2083 146.954 51.1118 150.2 49.7141C154.047 48.4765 157.894 47.1661 161.67 45.5645L162.953 46.2197C165.434 47.2953 168.011 48.1242 170.647 48.6949C170.647 49.6413 170.148 50.5149 169.935 51.4613C169.229 54.0495 168.659 56.674 168.225 59.3238C168.225 59.979 169.222 59.3238 169.294 59.3238C170.19 55.944 171.26 52.6149 172.5 49.3501C174.855 49.7593 177.236 50.0025 179.624 50.0781C180.051 50.7333 180.55 51.3157 180.906 51.9709C181.263 52.6261 181.761 51.9709 181.619 51.3885C181.459 50.9388 181.268 50.5009 181.049 50.0781H182.545L183.471 50.9517C184.469 51.9709 185.537 52.9173 186.606 53.8638C187.675 54.8102 187.888 53.4269 187.532 53.0629L185.181 50.0781C186.555 50.0782 187.921 49.8822 189.242 49.4957C191.807 50.0781 194.443 50.5877 197.008 51.2429C201.71 52.6261 206.341 54.4462 211.257 55.6838C210.972 55.3926 211.541 54.6646 211.185 54.519Z" fill="#22292C"/>
<path opacity="0.7" d="M266.615 240.018C262.055 241.838 257.567 243.876 253.221 246.06C248.499 248.302 243.95 250.906 239.613 253.85C236.129 255.341 233.172 257.88 231.135 261.13C228.499 266.081 236.55 265.644 239.257 265.353C248.173 263.89 256.748 260.756 264.549 256.107C271.565 252.821 277.682 247.82 282.36 241.547C287.632 231.791 269.393 238.926 266.615 240.018Z" fill="#0F1619"/>
<g opacity="0.7">
<path opacity="0.7" d="M76.1782 130.595C70.1703 132.478 63.9373 133.507 57.6547 133.653C53.5225 133.653 49.6753 133.071 45.5431 133.216C45.4138 128.805 44.4711 124.458 42.7646 120.403C44.3068 120.014 45.8808 119.77 47.4667 119.675C49.4374 119.293 51.3873 118.807 53.3088 118.219C53.665 118.219 54.1637 117.273 53.3088 117.346C51.2427 117.71 49.1054 118.219 46.968 118.438C45.2935 118.427 43.6379 118.8 42.1234 119.53C42.0209 119.326 41.9017 119.131 41.7672 118.947H43.2633C44.0591 118.765 44.8263 118.471 45.5431 118.074C45.9706 118.074 45.5431 117.127 45.5431 117.418C44.593 117.906 43.5429 118.156 42.4796 118.146H41.4822C41.1419 117.63 40.7607 117.143 40.3423 116.69H41.6247C43.5633 116.053 45.4269 115.198 47.1818 114.142C50.2032 112.902 52.7176 110.641 54.3062 107.736C54.3062 107.372 53.8787 107.736 53.7362 107.736C50.4053 111.208 45.8825 113.218 41.126 113.342C40.1967 113.162 39.2397 113.2 38.3266 113.452C37.4136 113.704 36.5683 114.164 35.8539 114.798C34.6911 115.016 33.6357 115.632 32.8616 116.545C30.6191 119.233 28.9237 122.352 27.8745 125.718C21.3468 138.38 18.9978 152.858 21.1776 166.996C21.7475 170.053 23.2436 176.605 27.3046 176.678C28.8225 177.613 30.4504 178.346 32.1492 178.862C34.5812 179.874 36.9594 181.016 39.2736 182.284C42.5509 184.031 43.6908 186.797 46.0419 189.564C46.0419 189.564 46.8255 189.564 46.7543 189.054C46.0343 186.664 44.9526 184.404 43.5483 182.356C42.5509 180.682 39.5586 179.59 37.9912 178.789C36.4239 177.988 33.3603 176.824 30.8668 175.95H30.0119C32.7311 174.37 34.9172 171.983 36.2814 169.107L39.0599 169.98C40.9607 170.83 42.7947 171.828 44.5457 172.965C44.5457 172.965 45.4006 172.164 45.4006 171.873C43.7542 170.621 42.0154 169.502 40.1998 168.524L37.35 167.287C38.0625 165.976 38.6324 164.739 39.1311 163.647C39.3633 163.256 39.5544 162.841 39.7011 162.409L43.2633 163.21C46.8255 164.011 50.3878 165.103 54.1637 165.54C54.6624 165.54 55.3749 164.666 54.7337 164.52C52.8813 164.084 51.1002 163.064 49.2478 162.482C47.3955 161.9 45.9706 161.608 44.332 161.172C42.6934 160.735 41.9809 160.444 40.6985 160.08C42.3456 156.07 43.5869 151.898 44.4032 147.631C44.4032 147.631 45.0444 147.048 44.4032 146.903C44.8307 144.646 45.1157 142.316 45.3294 139.987H48.3217C50.2453 139.987 52.0976 140.715 54.0212 140.787C54.0212 140.787 55.0186 139.987 54.4487 139.914C52.645 139.611 50.8607 139.197 49.1054 138.676C47.8729 138.564 46.6331 138.564 45.4006 138.676C45.4006 137.803 45.4006 136.929 45.4006 136.128H47.823C51.1002 136.128 54.4487 136.856 57.7259 136.783C64.0994 136.024 70.3084 134.204 76.107 131.396C76.107 131.396 76.7482 130.45 76.1782 130.595ZM40.556 122.078C36.6824 129.712 33.5333 137.708 31.1518 145.956C29.8299 154.157 30.2675 162.552 32.4342 170.563C30.0831 172.965 27.3758 173.766 25.3097 169.107C24.1333 165.6 23.6963 161.878 24.0273 158.187C24.8776 158.315 25.7418 158.315 26.5921 158.187C26.7838 158.126 26.9599 158.023 27.1078 157.885C27.2556 157.746 27.3715 157.576 27.4471 157.386V156.949C26.3784 156.949 24.9535 156.949 23.9561 156.221H24.0273C24.0273 154.911 24.0273 153.6 24.0273 152.29C24.8727 152.043 25.7049 151.751 26.5209 151.416C27.0196 151.416 27.3758 150.106 26.5209 150.397C25.7263 150.718 24.8817 150.891 24.0273 150.907C24.2173 146.532 24.7173 142.177 25.5235 137.875C25.5235 137.875 26.0222 137.875 26.0934 137.875C27.3848 132.367 29.0756 126.965 31.1518 121.714C34.2153 114.434 38.2762 117.637 41.126 121.714L40.556 122.078Z" fill="#22292C"/>
<path opacity="0.7" d="M27.8013 143.919H26.4476C26.0133 143.838 25.6005 143.664 25.2364 143.409C25.2364 143.409 24.524 143.409 24.4527 143.846C24.0253 145.375 26.7326 144.865 27.445 144.793C28.1575 144.72 28.3712 143.919 27.8013 143.919Z" fill="#22292C"/>
</g>
<path opacity="0.7" d="M138.017 254.359C138.017 250.428 131.463 247.88 128.969 251.665C128.743 251.961 128.576 252.3 128.479 252.661C128.381 253.023 128.355 253.401 128.401 253.774C128.448 254.146 128.566 254.505 128.749 254.831C128.932 255.156 129.176 255.441 129.468 255.669C130.219 256.954 131.338 257.97 132.674 258.581C133.174 258.764 133.705 258.844 134.236 258.814C134.766 258.785 135.285 258.647 135.763 258.41C136.241 258.172 136.668 257.84 137.018 257.432C137.368 257.024 137.635 256.548 137.804 256.033C137.891 255.747 137.962 255.455 138.017 255.16C138.017 255.16 138.017 254.432 138.017 254.359Z" fill="#22292C"/>
<path opacity="0.7" d="M72.1836 241.47C70.1175 239.214 68.0514 236.302 64.6317 237.321C64.1608 237.444 63.7202 237.666 63.3381 237.973C62.9561 238.28 62.6409 238.665 62.4129 239.103C62.1849 239.542 62.049 240.024 62.014 240.52C61.9789 241.015 62.0455 241.513 62.2094 241.98C62.0734 242.406 62.0734 242.865 62.2094 243.29C63.9905 246.275 69.8325 250.571 73.0385 247.513C76.2445 244.455 73.8935 243.145 72.1836 241.47Z" fill="#22292C"/>
<path opacity="0.7" d="M270.958 185.923C269.638 186.178 268.436 186.868 267.538 187.889C266.517 188.758 265.834 189.972 265.614 191.311C265.57 191.494 265.598 191.688 265.691 191.851C265.784 192.014 265.935 192.133 266.113 192.185C266.655 192.343 267.226 192.374 267.782 192.273C268.337 192.172 268.863 191.942 269.319 191.602C270.174 191.093 271.741 189.636 271.527 188.399C271.722 188.007 271.865 187.591 271.955 187.161C272.169 186.36 271.741 185.923 270.958 185.923Z" fill="#22292C"/>
<path opacity="0.7" d="M297.963 144.064C297.522 143.541 296.975 143.121 296.36 142.833C295.745 142.545 295.077 142.396 294.401 142.396C293.724 142.396 293.056 142.545 292.441 142.833C291.827 143.121 291.28 143.541 290.839 144.064C289.158 145.711 287.866 147.728 287.063 149.961C285.489 152.435 284.423 155.209 283.928 158.115C283.747 159.831 283.916 161.566 284.426 163.211C284.426 163.211 284.426 163.793 284.426 164.012C284.517 164.812 284.807 165.575 285.267 166.229C285.727 166.883 286.343 167.406 287.057 167.749C287.77 168.091 288.557 168.242 289.344 168.187C290.13 168.132 290.89 167.872 291.551 167.433C293.858 166.92 295.922 165.608 297.393 163.721C299.346 160.855 300.439 157.47 300.54 153.979C300.642 150.489 299.746 147.044 297.963 144.064V144.064Z" fill="#0F1619"/>
<path opacity="0.7" d="M290.979 125.721C290.979 125.211 290.124 125.284 289.697 125.721C289.269 126.157 287.987 126.667 288.058 127.541C288.024 127.831 288.024 128.124 288.058 128.414C288.058 128.924 288.414 129.07 288.77 128.997C289.027 128.965 289.272 128.868 289.483 128.716C289.695 128.563 289.866 128.36 289.982 128.123C290.765 127.104 291.406 126.303 290.979 125.721Z" fill="#22292C"/>
<path opacity="0.7" d="M231.344 58.1584C231.03 57.7793 230.645 57.4684 230.211 57.2441C229.778 57.0199 229.304 56.8869 228.819 56.8529C228.334 56.819 227.848 56.8848 227.388 57.0465C226.928 57.2083 226.505 57.4626 226.143 57.7944C226.143 57.7944 225.502 58.1584 225.574 58.3768C225.458 58.535 225.376 58.7167 225.335 58.9096C225.294 59.1025 225.293 59.3023 225.334 59.4954C225.374 59.6885 225.455 59.8706 225.57 60.0293C225.685 60.1879 225.832 60.3196 226.001 60.4154H226.856C227.553 61.2014 228.527 61.6727 229.563 61.7258C229.949 61.6809 230.318 61.539 230.636 61.313C230.955 61.0871 231.215 60.7839 231.391 60.4307C231.567 60.0774 231.655 59.6851 231.647 59.2886C231.639 58.8921 231.535 58.5039 231.344 58.1584Z" fill="#22292C"/>
<g style="mix-blend-mode:screen" opacity="0.6">
<path d="M170.717 8.87248C150.697 3.99491 130.036 13.4588 112.582 23.0684C112.225 23.0684 112.083 24.0148 112.582 23.7964C121.701 20.7388 130.464 16.5164 139.654 13.2405C149.502 9.83716 159.936 8.57258 170.29 9.52768C170.29 9.52768 171.144 8.94528 170.717 8.87248Z" fill="#B3E4FA"/>
</g>
</g>
<defs>
<radialGradient id="paint0_radial_1188_22090" cx="0" cy="0" r="1" gradientUnits="userSpaceOnUse" gradientTransform="translate(125.05 -116.271) scale(373.748 381.913)">
<stop stop-color="#E3F3FC"/>
<stop offset="0.22" stop-color="#AEB7BD"/>
<stop offset="0.61" stop-color="#8CA4AF"/>
<stop offset="1" stop-color="#393B3D"/>
</radialGradient>
</defs>
</svg>
