<svg width="248" height="253" viewBox="0 0 248 253" fill="none" xmlns="http://www.w3.org/2000/svg">
<g style="mix-blend-mode:color-dodge">
<path d="M204.865 43.941C194.657 31.6344 187.66 15.6943 174.068 7.0211C161.925 0.317467 147.761 -1.48126 134.382 1.98123C119.242 5.3216 108.23 16.9836 93.3767 20.9686C86.2145 22.0168 78.9908 22.565 71.7557 22.6095C64.6048 23.396 57.6916 25.6908 51.4537 29.3489C40.6142 36.3065 32.1728 46.551 27.3093 58.6504C24.4991 65.3897 22.0331 72.3049 18.6494 78.8099C15.2657 85.3148 10.6777 90.8821 7.17935 97.2698C1.70969 107.914 -0.715151 119.917 0.182627 131.904C1.19432 137.17 3.52612 142.076 6.94995 146.145C7.50113 146.95 7.99927 147.792 8.44106 148.665C10.3336 161.733 8.44106 174.977 10.0469 188.28C12.8914 203.768 21.02 217.723 32.9869 227.662C44.457 238.327 61.662 241.433 76.4584 242.664C84.6595 243.309 92.7458 244.774 100.947 245.008C108.644 246.029 116.193 247.996 123.428 250.868C129.96 252.683 136.899 252.208 143.136 249.521C149.374 246.833 154.55 242.088 157.838 236.042C161.795 230.006 164.663 222.915 168.448 216.468C173.804 208.144 181.252 201.444 190.012 197.071C204.534 188.846 217.044 177.366 226.601 163.491C235.194 151.698 241.768 138.501 246.043 124.462C254.817 91.1751 223.218 65.9758 204.865 43.941Z" fill="url(#paint0_radial_1188_22024)"/>
<g style="mix-blend-mode:multiply" opacity="0.2">
<path d="M205.326 44.4696C195.118 32.1043 188.522 16.1057 174.701 7.37379C162.608 0.594746 148.461 -1.28801 135.072 2.09951C119.874 5.32268 108.806 16.9847 93.9518 20.8525C86.7898 21.8887 79.5642 22.3979 72.3308 22.3762C65.1709 23.0903 58.2362 25.326 51.9715 28.9397C41.0857 35.8905 32.5871 46.1314 27.655 58.2413C24.7875 64.9807 22.3214 71.8372 18.8804 78.3422C15.4394 84.8471 10.8514 90.0628 7.41039 96.7436C1.94095 107.371 -0.540401 119.339 0.24161 131.319C1.10926 136.641 3.30138 141.646 6.60748 145.853C7.15902 146.678 7.65712 147.54 8.09859 148.432C9.93379 161.5 8.09859 174.686 9.47499 187.989C12.3036 203.515 20.4327 217.512 32.4151 227.487C43.8851 238.212 61.0902 241.435 75.8292 242.724C84.0303 243.486 92.0593 245.009 100.318 245.244C107.961 246.443 115.433 248.588 122.57 251.632C129.083 253.461 136.007 253.013 142.242 250.358C148.477 247.704 153.665 242.995 156.98 236.981C161.109 230.593 164.034 223.502 167.876 216.939C173.261 208.61 180.752 201.927 189.555 197.6C204.204 189.315 216.814 177.732 226.431 163.727C235.076 151.984 241.708 138.826 246.045 124.814C254.991 91.9381 223.506 66.6216 205.326 44.4696ZM129.968 42.8287C130.228 46.9375 129.247 51.0287 127.158 54.5493C124.572 59.5666 123.552 65.2722 124.233 70.8996C125.093 76.7599 126.871 82.9132 128.19 88.8907C129.748 93.5191 130.239 98.453 129.624 103.307C128.993 106.179 127.559 108.757 126.814 111.57C125.781 115.672 127.674 118.075 129.452 121.415C130.419 122.971 130.853 124.81 130.687 126.645C130.521 128.48 129.764 130.206 128.534 131.554C124.833 136.244 122.299 141.781 121.151 147.69C120.002 153.6 120.272 159.706 121.939 165.485C125.38 157.691 128.763 148.959 136.907 145.326C137.086 145.247 137.284 145.229 137.474 145.273C137.664 145.317 137.835 145.422 137.962 145.572C138.09 145.722 138.167 145.909 138.184 146.107C138.201 146.305 138.155 146.504 138.054 146.673C135.464 152.156 134.118 158.166 134.118 164.254C134.118 170.343 135.464 176.353 138.054 181.835C140.176 185.996 148.664 196.193 142.699 200.823C138.802 202.957 134.686 204.647 130.427 205.863C124.706 208.021 119.914 212.171 116.892 217.583C115.573 220.455 115.573 224.85 112.82 226.725C110.067 228.601 104.791 224.264 101.35 227.722C98.7692 230.241 96.9914 233.172 93.0342 233.582C89.2049 233.689 85.3729 233.532 81.5642 233.113C71.5487 233.144 61.544 232.439 51.6274 231.003C39.0379 227.565 28.2196 219.322 21.4038 207.972C19.3625 204.867 17.615 201.571 16.185 198.127C12.991 189.662 11.7925 180.547 12.6866 171.521C13.3635 166.888 14.4186 162.32 15.8409 157.867C17.504 151.01 13.4895 147.67 9.36029 143.04C9.23107 142.902 9.14613 142.727 9.11683 142.539C9.08753 142.35 9.11526 142.157 9.19632 141.985C9.27737 141.813 9.4079 141.67 9.57043 141.576C9.73296 141.482 9.91976 141.441 10.1058 141.458C14.1713 142.558 17.9501 144.559 21.1744 147.318C17.2173 140.579 12.5719 132.609 15.4394 124.932C16.2997 122.763 17.7908 117.665 20.1995 116.844C23.4007 116.213 26.6905 116.213 29.8917 116.844C26.2213 114.559 22.3788 112.684 18.8231 110.281C18.6183 110.148 18.4732 109.938 18.4195 109.697C18.3657 109.455 18.4078 109.202 18.5363 108.992C20.6009 105.182 18.5363 100.318 20.6583 96.7436C21.5323 95.3637 22.6392 94.1533 23.9272 93.1688C22.7312 92.9839 21.5238 92.886 20.3142 92.8758C20.1573 92.8673 20.0052 92.8178 19.8724 92.7321C19.7396 92.6463 19.6305 92.5271 19.5557 92.386C19.4809 92.2448 19.4428 92.0864 19.445 91.9259C19.4473 91.7654 19.4899 91.6082 19.5686 91.4693C21.0562 88.9687 22.2862 86.3174 23.239 83.5579C21.92 84.6127 20.773 85.7848 19.5686 86.8982C18.3643 88.0117 17.7334 86.6052 18.1922 85.7262C25.1316 71.134 28.9167 55.0181 40.5588 43.2389C42.3663 40.8848 44.7318 39.0411 47.4315 37.8823C50.1311 36.7235 53.0756 36.2879 55.986 36.6167C60.0579 37.8474 63.6136 45.1728 64.9326 48.8648C65.2194 49.6266 64.4165 50.6815 63.6136 50.0369C61.4746 48.2091 59.4447 46.2521 57.5345 44.1766C58.9521 46.6741 60.0873 49.3283 60.9181 52.088C60.9532 52.3353 60.896 52.587 60.7579 52.7933C60.6198 52.9995 60.4109 53.1452 60.1726 53.2014C56.6742 53.9633 53.1185 54.6665 49.5628 55.3112L51.6274 56.366C52.3729 56.7176 52.545 58.0655 51.6274 58.1827C47.6702 58.5343 39.0677 61.7575 39.3544 66.9732C39.6412 72.1889 47.5555 71.8958 50.8245 73.4781C50.9966 73.5966 51.1244 73.7712 51.1868 73.9734C51.2493 74.1757 51.2429 74.3936 51.1686 74.5916C48.8172 80.4519 43.0822 86.6638 44.516 93.286C50.3127 89.9785 55.2642 85.3204 58.9682 79.6901C60.8034 77.3459 62.5813 74.9432 64.7032 72.5405C65.5635 71.3684 66.5958 69.5517 68.1442 69.2001C72.1588 68.4383 73.8793 75.0604 74.5101 77.6975C75.0731 81.8793 75.858 86.0267 76.8615 90.1214L77.3776 90.8246C80.8186 84.3783 78.9261 76.5255 80.4745 69.4931C80.5209 69.3581 80.5969 69.2357 80.6967 69.1353C80.7965 69.0349 80.9174 68.9591 81.0503 68.9139C81.1831 68.8686 81.3243 68.8551 81.4631 68.8742C81.6019 68.8933 81.7346 68.9447 81.8509 69.0243C83.1865 69.9574 84.4006 71.0602 85.464 72.3061C86.2488 73.1666 87.0921 73.9695 87.9874 74.7088C89.4212 75.8222 90.3388 74.7088 89.7079 72.8921C88.0003 69.7547 86.5427 66.4819 85.3493 63.1054C84.9479 61.3473 84.8905 59.179 87.0125 58.4757C90.2814 57.4795 93.321 58.4757 96.1885 56.2488C94.3982 55.3292 92.4508 54.772 90.4535 54.6079C90.2101 54.6079 89.9767 54.5091 89.8046 54.3333C89.6325 54.1574 89.5359 53.9189 89.5359 53.6703C89.5359 53.4216 89.6325 53.1831 89.8046 53.0072C89.9767 52.8314 90.2101 52.7326 90.4535 52.7326C98.1793 52.7881 105.833 51.2119 112.935 48.103C117.961 45.3187 123.377 43.3421 128.993 42.2427C129.195 42.2246 129.397 42.2714 129.572 42.3764C129.747 42.4815 129.885 42.6395 129.968 42.8287V42.8287Z" fill="#576065"/>
</g>
<g style="mix-blend-mode:screen" opacity="0.6">
<path d="M18.0738 152.416C16.9842 157.691 17.2709 163.082 16.1813 168.415C15.2546 172.785 14.8122 177.247 14.8622 181.718C15.0765 191.849 18.4972 201.636 24.6117 209.613C31.0084 218.194 40.0006 224.375 50.1899 227.194C55.833 228.593 61.5944 229.437 67.395 229.714C71.8988 230.523 76.4811 230.779 81.0443 230.476C81.3884 230.476 81.5031 229.538 81.0443 229.479C61.8894 227.487 42.5623 225.319 28.5116 210.375C21.179 202.406 16.9032 192.003 16.468 181.073C16.4037 176.256 16.8265 171.444 17.7297 166.716C18.4753 161.91 17.7297 157.105 18.4179 152.358C18.4179 152.006 18.4179 152.006 18.0738 152.416Z" fill="#B3E4FA"/>
</g>
<path opacity="0.7" d="M19.7977 86.7198C19.3389 87.5988 16.8728 89.4155 15.6111 91.115C14.1774 90.529 12.5142 93.6935 11.9407 94.7484C8.72517 100.447 6.11064 106.477 4.1411 112.74C3.32827 115.578 2.88477 118.514 2.82204 121.471C1.84263 125.424 2.35447 129.608 4.25579 133.192C4.68118 133.821 5.2042 134.376 5.80425 134.833C6.44401 135.713 7.13338 136.555 7.86886 137.353C8.27031 137.353 8.38501 136.65 8.21296 136.415C7.6224 135.521 7.14091 134.557 6.7792 133.544L6.3204 132.84C7.18263 131.847 7.91517 130.744 8.49971 129.559L9.30261 130.262C10.1762 130.921 11.0005 131.646 11.7687 132.43C12.7627 133.114 13.6355 133.967 14.3494 134.95C14.6362 135.536 15.095 134.95 14.9803 134.364C14.2943 132.796 13.3647 131.351 12.2275 130.086C11.6391 129.29 10.9868 128.545 10.2776 127.859L9.64671 127.156C11.4108 123.252 12.7568 119.166 13.6612 114.966H14.0627C15.0376 115.318 16.0126 115.553 16.9875 115.963C17.9625 116.373 17.561 115.318 16.9875 115.142L14.4068 113.794H13.7186V113.033L16.1273 113.853C17.9632 114.77 19.8845 115.496 21.8623 116.021C22.2064 116.021 22.3211 115.26 21.8623 115.084C20.0845 113.97 18.4786 112.622 16.5861 111.626C15.7545 111.139 14.8924 110.708 14.0053 110.337C14.0053 109.341 14.4068 108.344 14.5788 107.348C14.7509 106.352 14.9229 105.59 15.0376 104.711C15.5594 102.274 15.9424 99.8089 16.1846 97.3269C16.2129 97.1327 16.2129 96.9352 16.1846 96.7409L17.4463 95.8619C18.4786 95.2172 19.6257 94.7484 20.658 94.1624C21.6903 93.5763 20.658 93.0489 20.658 93.2247C19.08 93.4914 17.5518 94.0053 16.1273 94.7484V94.3968L16.4714 94.0452C17.1182 93.4711 17.8307 92.9791 18.5933 92.5801C18.5933 92.5801 18.5933 91.9355 18.5933 92.0527L16.414 92.9903C17.8493 91.2294 19.01 89.2527 19.855 87.13C20.3712 86.837 20.0844 86.251 19.7977 86.7198ZM15.1523 94.4554C15.1523 94.4554 15.1523 94.8656 15.1523 94.9242C12.052 101.261 9.51829 107.871 7.5821 114.673C6.22218 119.337 5.31926 124.127 4.88665 128.973C4.50121 128.579 4.15538 128.147 3.85434 127.683V127.683C3.63569 119.288 5.46883 110.97 9.18791 103.48C10.507 100.785 11.8834 98.1474 13.2598 95.5103C14.6362 92.8731 14.9229 93.4005 15.1523 94.4554Z" fill="#22292C"/>
<path opacity="0.7" d="M146.08 221.391C142.929 219.372 139.187 218.542 135.5 219.045C131.814 219.548 128.415 221.352 125.893 224.145V224.145C123.198 226.079 121.19 228.658 123.026 231.178C126.983 236.628 138.568 233.463 143.385 231.178C148.202 228.892 150.955 225.083 146.08 221.391Z" fill="#22292C"/>
<path opacity="0.7" d="M163.111 51.2653C158.523 60.7004 156.402 74.7065 163.111 83.5556L161.334 83.204C159.257 80.9967 157.483 78.5129 156.057 75.82C156.057 75.4684 155.656 75.82 155.713 76.2302C156.647 78.7137 157.901 81.0589 159.441 83.204C156.968 83.6633 154.712 84.9399 153.018 86.8374C151.432 88.0576 150.039 89.5203 148.889 91.174C147.311 90.1521 145.866 88.9314 144.587 87.5406C142.009 84.8261 140.257 81.4064 139.541 77.6953C139.541 77.2265 139.139 77.3437 139.082 77.6953C139.183 81.514 140.536 85.1875 142.924 88.1267C144.173 90.0505 145.657 91.8032 147.34 93.3423C145.728 96.2326 144.439 99.2993 143.498 102.484C142.102 106.802 141.066 111.233 140.401 115.729H139.541H136.673C135.757 115.641 134.836 115.641 133.92 115.729C133.08 115.786 132.237 115.786 131.397 115.729C131.053 115.729 130.995 116.491 131.397 116.549C131.798 116.608 132.716 116.549 133.404 116.549C134.463 116.576 135.518 116.694 136.558 116.901L139.655 117.428H140.229C140.2 117.897 140.2 118.366 140.229 118.835H139.311C138.511 118.748 137.703 118.748 136.902 118.835C136.616 118.835 136.616 119.538 136.902 119.538C137.757 119.604 138.603 119.761 139.426 120.007H140.171C140.171 121.882 140.171 123.757 140.171 125.867C137.8 127.138 135.665 128.824 133.863 130.848C130.183 134.537 127.36 139.023 125.604 143.975C125.604 143.975 125.604 144.561 125.891 143.975C128.183 139.037 131.512 134.675 135.641 131.2C136.983 130.142 138.446 129.256 139.999 128.563V128.563C140.219 134.129 141.754 139.557 144.473 144.386C142.8 146.823 141.665 149.602 141.146 152.531C140.86 154.964 140.86 157.424 141.146 159.857C141.146 161.791 142.81 164.252 142.637 166.069C142.637 166.069 142.637 166.538 142.924 166.069C143.842 164.135 142.408 160.208 142.351 158.157C142.35 153.915 143.501 149.756 145.677 146.144C146.104 146.736 146.564 147.303 147.053 147.843C147.975 148.857 149.113 149.639 150.38 150.129C150.038 150.966 149.843 151.859 149.806 152.766C149.806 154.29 150.093 155.813 149.806 157.395C149.806 157.923 150.38 157.806 150.38 157.395C150.437 156.283 150.437 155.168 150.38 154.055C150.38 153.41 150.38 152.766 150.38 152.121C150.555 151.58 150.766 151.051 151.011 150.539C152.166 150.773 153.354 150.773 154.509 150.539C154.309 151.287 154.309 152.076 154.509 152.824C154.564 153.134 154.564 153.452 154.509 153.762C154.509 153.762 154.509 154.231 154.509 154.348C154.509 154.348 154.509 153.352 154.509 152.942C154.424 152.123 154.424 151.298 154.509 150.48C157.67 149.66 160.572 148.025 162.939 145.733C167.741 141.511 171.914 136.595 175.327 131.141C175.989 131.68 176.749 132.078 177.564 132.313C178.7 132.844 179.894 133.237 181.119 133.485C181.464 133.485 181.636 132.724 181.119 132.606C180.078 132.131 179.111 131.498 178.252 130.731C177.736 130.321 177.105 130.028 176.589 129.676H176.187C178.421 126.183 179.898 122.243 180.522 118.12C181.145 113.997 180.899 109.785 179.8 105.766C178.327 101.49 176.112 97.5202 173.262 94.0456C173.262 93.6939 173.262 93.2837 173.721 92.9321C174.18 92.5805 174.409 91.9945 174.696 91.467C174.983 90.9396 174.696 90.4122 174.409 90.8224C173.699 91.5335 173.117 92.3666 172.689 93.2837C171.771 92.1703 170.739 91.0568 169.707 90.0019C169.854 88.8181 170.245 87.6796 170.854 86.6616L171.829 84.3761L172.402 83.2626C172.402 83.2626 173.779 80.9185 173.205 82.3836C173.364 82.0223 173.498 81.6503 173.607 81.2701C173.607 81.2701 173.607 80.9771 173.607 80.9771C171.542 81.3287 170.338 84.7277 169.477 86.4272C169.08 87.175 168.754 87.96 168.502 88.7713C167.527 87.8336 166.495 86.9546 165.463 86.1341L164.66 85.6067C161.888 80.7851 159.948 75.5121 158.925 70.0183C158.838 63.8806 159.869 57.7799 161.964 52.0272C163.628 51.3239 163.341 50.7379 163.111 51.2653ZM178.653 105.825C184.388 119.596 172.918 132.665 164.488 142.041C159.9 147.023 153.362 150.246 147.856 145.265H148.258C152.387 145.851 158.294 141.045 160.875 138.936C165.07 134.629 167.958 129.175 169.191 123.23C171.507 117.49 172.658 111.33 172.574 105.122C171.864 101.544 170.523 98.129 168.617 95.0418C167.241 92.4633 165.061 90.1778 163.513 87.7164L165.864 89.1815C171.554 93.4111 175.982 99.1732 178.653 105.825V105.825Z" fill="#22292C"/>
<path opacity="0.7" d="M161.795 11.358C160.132 9.24833 156.06 8.42788 153.823 7.72464C147.637 5.5523 140.972 5.22704 134.611 6.78698C131.308 7.46491 128.356 9.33764 126.295 12.0613C124.748 13.8014 123.311 15.6415 121.994 17.57C119.575 20.0776 116.903 22.317 114.022 24.2508C114.022 24.2508 114.022 24.7782 114.022 24.7782C118.84 24.7782 122.797 19.5625 125.492 15.1673C125.619 15.6988 125.852 16.1976 126.178 16.6315C126.504 17.0655 126.915 17.4251 127.385 17.6872C126.27 19.8728 125.025 21.9865 123.657 24.0164C123.657 24.0164 123.657 24.7196 123.657 24.5438C125.491 22.6982 127.072 20.6088 128.36 18.3319C130.213 19.1162 132.133 19.7244 134.095 20.1486C135.531 20.4925 136.987 20.7469 138.454 20.9104C138.454 20.9104 138.454 21.3792 138.454 21.6723C138.454 21.9653 138.454 21.6722 138.454 22.0239C138.454 22.3755 138.454 22.3169 138.454 22.0239C138.454 21.7309 138.454 22.3169 138.454 22.3755C138.454 22.4341 139.027 21.6723 139.199 20.8518H139.945C139.845 21.3938 139.691 21.924 139.486 22.4341C139.486 22.7271 139.486 23.3717 139.887 22.9029C140.158 22.2601 140.369 21.5931 140.518 20.9104H142.411C142.009 22.0825 141.723 23.3131 141.436 24.4852C141.157 25.581 140.965 26.6981 140.862 27.8256C140.95 28.996 140.95 30.1714 140.862 31.3418C140.862 31.3418 140.862 31.752 140.862 31.6348C140.862 31.5176 140.862 31.2246 140.862 30.8144C140.862 29.2907 141.321 27.767 141.551 26.2433C141.95 24.412 142.527 22.6256 143.271 20.9104C144.533 20.9104 145.852 20.9104 147.171 20.9104C147.202 21.1241 147.202 21.3414 147.171 21.555C147.217 23.8314 147.409 26.1022 147.744 28.353C147.744 28.7633 148.146 28.353 148.146 28.353C148.036 26.4012 148.036 24.4445 148.146 22.4927C148.146 22.0239 148.146 21.4964 148.146 21.0276C149.637 21.0276 151.128 20.6174 152.504 20.3244C152.504 21.9067 153.479 23.5476 153.823 25.0126C153.823 25.4815 154.282 25.0126 154.225 24.7196C154.168 24.4266 153.823 22.6099 153.537 21.4964V20.1486L155.888 19.5039C157.182 19.1651 158.433 18.6734 159.616 18.0388C159.836 21.1685 160.909 24.1728 162.713 26.7121C162.713 27.0638 163.229 26.3019 163.114 26.0675C162.434 24.5201 161.896 22.9113 161.508 21.262C161.333 19.9572 161.005 18.6785 160.533 17.4528C161.012 17.0422 161.436 16.5694 161.795 16.0463C163.47 19.552 165.764 22.711 168.562 25.3643C168.907 25.7159 169.136 24.8954 168.907 24.661C166.222 20.5729 163.845 16.2825 161.795 11.8269C161.842 11.7581 161.867 11.6763 161.867 11.5925C161.867 11.5086 161.842 11.4268 161.795 11.358V11.358ZM159.558 14.9329C159.546 14.7573 159.546 14.581 159.558 14.4054C159.496 14.3743 159.427 14.3582 159.358 14.3582C159.288 14.3582 159.22 14.3743 159.157 14.4054V14.4054C157.437 12.1199 144.361 11.2994 143.214 11.358C142.067 11.4167 130.138 12.5887 129.335 15.2259C128.36 14.171 128.245 12.9403 130.425 11.5925C133.647 9.65607 137.298 8.58736 141.034 8.48648C147.239 8.37279 153.391 9.67409 159.042 12.2957C160.533 13.292 160.361 14.2882 159.272 15.1673L159.558 14.9329Z" fill="#22292C"/>
<path opacity="0.7" d="M98.9958 43.7646C93.6048 45.8743 88.1566 47.7496 82.8803 50.0937C82.4949 49.5906 81.9967 49.1895 81.4278 48.9243C80.8589 48.6591 80.2359 48.5376 79.6114 48.5701L80.1275 47.7496C82.5936 44.2334 85.4611 40.9517 87.6404 37.1425C87.6404 37.1425 87.6404 36.2048 87.2963 36.6151C85.1072 39.6236 82.772 42.5183 80.2996 45.2883L77.7762 48.6287C76.4464 48.7395 75.1248 48.9352 73.819 49.2147C73.819 48.5701 73.819 47.9254 74.1057 47.5152C74.6896 45.8899 75.0748 44.1971 75.2528 42.4754C75.2528 42.0651 74.9087 42.0065 74.8513 42.4754C74.2643 44.8814 73.5365 47.2493 72.672 49.5663L71.525 49.9765V49.6249C71.525 48.8045 71.525 47.9254 71.525 47.105C71.525 46.2845 71.0088 47.105 71.0088 47.105C71.0088 47.105 71.0088 49.0975 71.0088 50.0351L69.6324 50.797C68.2729 51.2338 66.9649 51.8235 65.7326 52.5551C64.7577 51.383 63.496 50.3281 62.5783 49.3905C60.6868 46.9792 58.5317 44.7967 56.1551 42.8856C56.1551 42.8856 55.811 43.3544 56.1551 43.5302C58.1525 45.425 59.9061 47.5714 61.374 49.9179C62.3489 51.1486 63.3812 52.262 64.3562 53.4927C63.4987 54.025 62.6751 54.6122 61.8901 55.2508C60.8385 54.606 59.7237 54.0757 58.5638 53.6685C58.2197 53.6685 58.0477 54.3131 58.5638 54.489L60.227 55.368L61.2019 55.954C59.7217 57.1928 58.3931 58.6095 57.2448 60.1734H55.811C53.8607 60.7841 51.7949 60.9047 49.7892 60.525C49.4451 60.525 49.2731 61.1697 49.7892 61.3455C51.62 62.0436 53.6009 62.2258 55.5243 61.8729H56.4992C56.2414 62.367 56.0669 62.9019 55.9831 63.4552C55.1228 63.8654 54.3199 64.4514 53.517 64.9203C51.7965 65.9751 50.1907 67.2058 48.3555 68.1434C48.3555 68.1434 48.3555 68.7881 48.3555 68.6709C49.812 68.0783 51.2133 67.3526 52.542 66.5025C53.6317 65.8579 54.8934 65.3891 56.0404 64.6859C56.4992 66.2095 58.6212 66.4439 60.8578 66.2095L60.5137 66.8542C59.5534 67.6479 58.8695 68.7372 58.5638 69.9601C58.5638 70.3117 58.8506 70.3117 58.9653 69.9601C59.5414 68.686 60.2326 67.4696 61.0299 66.3267H61.9475C61.2019 67.9676 60.4564 69.6085 59.6535 71.1322C58.1677 74.7171 56.4233 78.1842 54.4346 81.5049C54.4346 81.5049 54.4346 82.4425 54.4346 82.0909C56.0978 79.7562 57.5382 77.2639 58.7359 74.6483C60.399 71.7768 62.0622 68.788 63.5533 65.9165L64.6429 65.5649C66.6357 64.8585 68.5564 63.9557 70.378 62.8692C70.6683 63.5695 70.9937 64.2541 71.3529 64.9203C72.2661 66.937 73.3003 68.8942 74.4499 70.7805C74.7366 71.2494 75.0807 70.3117 74.9087 70.0187C73.5896 67.5574 72.7293 64.8617 71.6397 62.2831C73.347 61.1919 74.9761 59.9777 76.5145 58.6498L78.235 59.1186C78.5217 59.1186 78.6364 58.4739 78.235 58.3567L77.1453 57.8879L77.4894 57.5363L78.0629 57.0675H82.5362C82.9377 57.0675 83.0524 56.1298 82.5362 56.0712C82.0201 56.0126 80.529 56.0712 79.554 55.5438C80.3995 54.8136 81.1171 53.9416 81.676 52.9653C83.5685 51.9104 85.4038 50.797 87.411 49.8593C90.9667 48.1012 94.6945 46.6362 98.2502 44.7609C99.3399 44.3507 99.2825 43.5888 98.9958 43.7646Z" fill="#22292C"/>
<path opacity="0.7" d="M229.297 125.282C227.462 128.857 225.856 132.549 224.365 136.241C222.664 140.162 221.283 144.219 220.236 148.372C219.002 151.161 218.622 154.266 219.146 157.28C220.178 161.734 224.881 157.28 226.258 155.405C230.764 149.652 234.187 143.094 236.351 136.065C238.836 130.26 239.918 123.928 239.505 117.605C237.728 108.815 230.616 123.114 229.297 125.282Z" fill="#0F1619"/>
<g opacity="0.7">
<path opacity="0.7" d="M57.4169 163.199C54.7205 167.52 51.4813 171.46 47.782 174.92C45.2013 177.088 42.6779 178.905 40.2692 181.249C37.8537 178.802 35.0145 176.835 31.896 175.447C32.6551 174.38 33.4787 173.362 34.3621 172.4C35.3444 171.12 36.2632 169.79 37.1149 168.415C37.1149 168.122 37.1149 167.36 36.8281 167.77C35.7385 169.118 34.7062 170.525 33.5592 171.873C32.5358 172.778 31.7145 173.897 31.1505 175.154H30.6917L31.4372 174.158C31.8241 173.651 32.1158 173.075 32.2975 172.459C32.2975 171.99 32.2975 171.638 31.8387 172.459C31.5363 173.254 31.0433 173.96 30.4049 174.51C30.1998 174.695 30.0255 174.912 29.8888 175.154L28.3977 174.861L29.0859 174.158C29.9805 172.72 30.6754 171.162 31.1505 169.529C32.2686 167.18 32.5524 164.508 31.9534 161.969C31.9534 161.617 31.6093 161.969 31.6093 161.969C31.4132 165.884 29.7252 169.565 26.9066 172.224C26.26 172.63 25.7089 173.177 25.2925 173.825C24.8762 174.473 24.6049 175.207 24.4979 175.975C23.9067 176.74 23.6017 177.696 23.6376 178.671C23.6685 181.521 24.2737 184.333 25.4155 186.934C28.0071 198.086 34.0389 208.092 42.6205 215.473C44.5704 216.997 48.8717 220.103 51.3951 217.935C52.7926 217.651 54.1573 217.219 55.467 216.646C57.3453 215.968 59.2601 215.4 61.202 214.946C63.818 214.633 66.4688 214.852 69.0016 215.591C69.2883 215.591 69.3457 215.005 69.0016 214.887C67.5145 213.873 65.892 213.084 64.1842 212.543C62.3959 212.419 60.605 212.741 58.9653 213.481C57.0071 214.044 55.0906 214.749 53.2303 215.591H52.5994C53.3236 213.145 53.3236 210.535 52.5994 208.089L54.7214 207.093C56.3098 206.558 57.9409 206.166 59.5962 205.921C59.8829 205.921 59.9403 205.042 59.5962 205.101C57.9524 205.207 56.321 205.462 54.7214 205.863L52.37 206.683L51.5671 203.518L51.223 202.464L53.8038 200.998C56.3272 199.533 59.1947 198.186 61.6034 196.486C61.8902 196.486 61.8902 195.255 61.6034 195.548C61.3167 195.841 58.6786 196.662 57.2448 197.306C55.8111 197.951 54.8361 198.537 53.6317 199.182L50.8216 200.471C49.8805 197.154 48.6323 193.936 47.0938 190.86C47.0938 190.86 47.0938 190.157 47.0938 190.274C46.1189 188.692 45.1439 187.11 44.0543 185.586L45.8895 184.062C47.0991 183.203 48.2666 182.284 49.3878 181.308C49.3878 181.308 49.3878 180.312 49.3878 180.546C49.3878 180.78 46.7497 182.011 45.488 182.773C44.6548 183.286 43.8679 183.875 43.1367 184.531L41.875 182.949C42.4128 182.547 42.9297 182.117 43.4234 181.659C45.6258 180.135 47.7327 178.471 49.7319 176.678C53.0653 172.836 55.7583 168.461 57.7036 163.727C57.7036 163.727 57.6463 162.789 57.4169 163.199ZM31.6666 177.323C33.1857 184.051 35.3566 190.608 38.1472 196.896C41.6418 202.54 46.2759 207.355 51.7392 211.02C51.7392 213.774 50.3628 215.708 46.7497 214.008C44.224 212.624 41.9997 210.73 40.2118 208.441C40.2471 208.347 40.2471 208.242 40.2118 208.148V208.148C40.7369 207.685 41.1998 207.153 41.5882 206.566C41.659 206.42 41.6958 206.26 41.6958 206.097C41.6958 205.934 41.659 205.774 41.5882 205.628C41.5882 205.628 41.5882 205.628 41.2441 205.628C40.3839 206.097 39.6957 207.035 38.7207 207.152L36.8281 204.749C37.2541 204.164 37.6193 203.536 37.9178 202.874C37.9178 202.464 37.9178 201.643 37.4017 202.229C37.1035 202.865 36.6955 203.441 36.1973 203.929C34.0679 201.174 32.1504 198.254 30.4623 195.197C30.4623 195.197 30.4623 195.197 30.4623 194.787C28.5965 190.836 26.9872 186.764 25.6449 182.597C23.695 176.737 27.9962 176.092 31.6666 177.206V177.323Z" fill="#22292C"/>
<path opacity="0.7" d="M35.2206 197.599L34.3604 198.361C34.0163 198.654 33.7869 198.361 33.3854 198.713C32.984 199.064 33.3854 199.24 33.3854 199.416C33.9016 200.588 35.2779 198.83 35.6794 198.42C36.0808 198.009 35.622 197.306 35.2206 197.599Z" fill="#22292C"/>
</g>
<path opacity="0.7" d="M159.275 204.045C158.664 203.52 157.919 203.184 157.128 203.077C156.337 202.971 155.532 203.097 154.809 203.442C154.085 203.787 153.474 204.336 153.046 205.024C152.618 205.712 152.391 206.511 152.393 207.327C152.451 207.939 152.742 208.503 153.203 208.897C153.664 209.292 154.259 209.486 154.859 209.437C155.956 209.816 157.145 209.816 158.242 209.437C158.641 209.276 159.005 209.035 159.311 208.729C159.618 208.422 159.861 208.056 160.027 207.652C160.192 207.247 160.277 206.813 160.276 206.375C160.275 205.937 160.188 205.503 160.02 205.1C159.915 204.802 159.759 204.524 159.561 204.28C159.561 204.28 159.447 203.987 159.275 204.045Z" fill="#22292C"/>
<path opacity="0.7" d="M112.931 232.173C110.465 232.173 107.712 231.353 106.164 233.814C105.94 234.141 105.787 234.514 105.715 234.906C105.642 235.298 105.653 235.702 105.745 236.09C105.837 236.478 106.009 236.842 106.249 237.157C106.49 237.471 106.793 237.73 107.139 237.916C107.324 238.221 107.608 238.449 107.942 238.561C110.58 239.44 116.143 238.561 116.659 235.221C117.003 232.876 114.709 232.349 112.931 232.173Z" fill="#22292C"/>
<path opacity="0.7" d="M203.66 90.3547C203.04 91.2408 202.674 92.2861 202.604 93.373C202.533 94.46 202.76 95.5456 203.259 96.508C203.37 96.5812 203.499 96.6201 203.632 96.6201C203.764 96.6201 203.893 96.5812 204.005 96.508C204.413 96.2976 204.772 96.0005 205.059 95.6367C205.346 95.2729 205.553 94.8507 205.668 94.3983C205.668 93.6365 206.012 91.8783 205.266 91.2923C205.169 90.935 205.054 90.583 204.922 90.2375C204.578 89.8858 204.119 89.8858 203.66 90.3547Z" fill="#22292C"/>
<path opacity="0.7" d="M198.04 50.3863C197.495 50.2652 196.93 50.2688 196.386 50.3969C195.842 50.525 195.333 50.7744 194.895 51.1272C194.456 51.48 194.099 51.9276 193.85 52.4378C193.601 52.948 193.465 53.5082 193.452 54.0783C193.321 56.0723 193.615 58.0717 194.313 59.9386C194.632 62.2905 195.433 64.547 196.664 66.5608C197.45 67.6841 198.444 68.6396 199.589 69.3737L200.105 69.8426C200.571 70.1982 201.113 70.4373 201.686 70.5407C202.259 70.6441 202.848 70.609 203.405 70.4381C203.963 70.2672 204.473 69.9653 204.896 69.5566C205.319 69.1479 205.642 68.6438 205.84 68.0845C206.966 66.5319 207.514 64.6209 207.388 62.693C207.154 59.94 206.148 57.3144 204.49 55.1314C202.832 52.9485 200.592 51.3009 198.04 50.3863V50.3863Z" fill="#0F1619"/>
<path opacity="0.7" d="M184.275 43.121C184.085 43.0841 183.889 43.1095 183.714 43.1937C183.538 43.2779 183.394 43.4165 183.301 43.5898C183.077 43.8715 182.955 44.2232 182.955 44.5859C182.955 44.9487 183.077 45.3004 183.301 45.5821L183.645 46.2267C183.687 46.2872 183.743 46.3365 183.808 46.3705C183.873 46.4045 183.945 46.4222 184.017 46.4222C184.09 46.4222 184.162 46.4045 184.227 46.3705C184.292 46.3365 184.348 46.2872 184.39 46.2267C184.518 46.0528 184.61 45.8537 184.659 45.642C184.709 45.4303 184.715 45.2104 184.677 44.9961V44.9961C184.677 44.9961 184.734 43.2382 184.275 43.121Z" fill="#22292C"/>
<path opacity="0.7" d="M113.049 34.7993C112.66 34.7419 112.264 34.7651 111.884 34.8676C111.504 34.9701 111.148 35.1498 110.838 35.3959C110.527 35.6421 110.269 35.9496 110.077 36.3002C109.885 36.6508 109.765 37.0372 109.723 37.4364C109.653 37.5288 109.615 37.6421 109.615 37.7587C109.615 37.8754 109.653 37.9887 109.723 38.0811V38.0811C109.723 38.7257 110.239 39.1945 111.042 39.0773H111.787C112.621 39.144 113.446 38.87 114.082 38.3155C114.407 38.0821 114.652 37.7498 114.783 37.3659C114.913 36.982 114.922 36.5659 114.807 36.1767C114.693 35.7875 114.462 35.4449 114.146 35.1977C113.83 34.9504 113.447 34.811 113.049 34.7993Z" fill="#22292C"/>
<g style="mix-blend-mode:screen" opacity="0.6">
<path d="M50.7661 38.2575C36.1418 46.2861 28.6289 63.2224 23.1807 78.5764C23.1807 78.8694 23.1807 79.3382 23.5821 78.928C27.4819 72.0715 30.4641 64.6875 34.364 57.8309C38.5213 50.3998 44.1461 43.9336 50.8808 38.8436C50.8808 38.8436 51.0529 38.0817 50.7661 38.2575Z" fill="#B3E4FA"/>
</g>
</g>
<defs>
<radialGradient id="paint0_radial_1188_22024" cx="0" cy="0" r="1" gradientUnits="userSpaceOnUse" gradientTransform="translate(-42.5461 -13.7185) rotate(-42.1453) scale(303.766 304.49)">
<stop stop-color="#E3F3FC"/>
<stop offset="0.22" stop-color="#AEB7BD"/>
<stop offset="0.61" stop-color="#8CA4AF"/>
<stop offset="1" stop-color="#393B3D"/>
</radialGradient>
</defs>
</svg>
