<svg width="1920" height="2281" viewBox="0 0 1920 2281" fill="none" xmlns="http://www.w3.org/2000/svg">
<g filter="url(#filter0_f_930_9672)">
<path d="M19.6 761.9H18.5V4.00037H19.6V761.9Z" fill="#1C63B7"/>
<path d="M21.1 763.4H17V2.50037H21.1V763.4Z" fill="#1C63B7"/>
<path d="M208 761.9H206.9V4.00037H208V761.9Z" fill="#1C63B7"/>
<path d="M209.5 763.4H205.4V2.50037H209.5V763.4Z" fill="#1C63B7"/>
<path d="M396.4 761.9H395.3V4.00037H396.4V761.9Z" fill="#1C63B7"/>
<path d="M397.9 763.4H393.8V2.50037H397.9V763.4Z" fill="#1C63B7"/>
<path d="M584.8 761.9H583.7V4.00037H584.8V761.9Z" fill="#1C63B7"/>
<path d="M586.3 763.4H582.2V2.50037H586.3V763.4Z" fill="#1C63B7"/>
<path d="M773.2 761.9H772.1V4.00037H773.2V761.9Z" fill="#1C63B7"/>
<path d="M774.7 763.4H770.6V2.50037H774.7V763.4Z" fill="#1C63B7"/>
<path d="M961.6 761.9H960.5V4.00037H961.6V761.9Z" fill="#1C63B7"/>
<path d="M963.1 763.4H959V2.50037H963.1V763.4Z" fill="#1C63B7"/>
<path d="M1150 761.9H1148.9V4.00037H1150V761.9Z" fill="#1C63B7"/>
<path d="M1151.5 763.4H1147.4V2.50037H1151.5V763.4Z" fill="#1C63B7"/>
<path d="M1338.4 761.9H1337.3V4.00037H1338.4V761.9Z" fill="#1C63B7"/>
<path d="M1339.9 763.4H1335.8V2.50037H1339.9V763.4Z" fill="#1C63B7"/>
<path d="M1526.8 761.9H1525.7V4.00037H1526.8V761.9Z" fill="#1C63B7"/>
<path d="M1528.3 763.4H1524.2V2.50037H1528.3V763.4Z" fill="#1C63B7"/>
<path d="M1715.3 761.9H1714.2V4.00037H1715.3V761.9Z" fill="#1C63B7"/>
<path d="M1716.8 763.4H1712.7V2.50037H1716.8V763.4Z" fill="#1C63B7"/>
<path d="M1903.7 761.9H1902.6V4.00037H1903.7V761.9Z" fill="#1C63B7"/>
<path d="M1905.2 763.4H1901.1V2.50037H1905.2V763.4Z" fill="#1C63B7"/>
<path d="M3034.1 761.9H-1111.9V760.9H3034.1V761.9Z" fill="#1C63B7"/>
<path d="M3035.6 763.4H-1113.4V759.4H3035.6V763.4Z" fill="#1C63B7"/>
<path d="M3034.1 572.601H-1111.9V571.601H3034.1V572.601Z" fill="#1C63B7"/>
<path d="M3035.6 574.101H-1113.4V570.101H3035.6V574.101Z" fill="#1C63B7"/>
<path d="M3034.1 383.2H-1111.9V382.2H3034.1V383.2Z" fill="#1C63B7"/>
<path d="M3035.6 384.7H-1113.4V380.7H3035.6V384.7Z" fill="#1C63B7"/>
<path d="M3034.1 193.8H-1111.9V192.8H3034.1V193.8Z" fill="#1C63B7"/>
<path d="M3035.6 195.3H-1113.4V191.3H3035.6V195.3Z" fill="#1C63B7"/>
<path d="M3034.1 4.50049H-1111.9V3.50049H3034.1V4.50049Z" fill="#1C63B7"/>
<path d="M3035.6 6.00049H-1113.4V2.00049H3035.6V6.00049Z" fill="#1C63B7"/>
</g>
<g filter="url(#filter1_f_930_9672)">
<path d="M19.6 1519.4H18.5V761.501H19.6V1519.4Z" fill="#1C63B7"/>
<path d="M21.1 1520.9H17V760.001H21.1V1520.9Z" fill="#1C63B7"/>
<path d="M208 1519.4H206.9V761.501H208V1519.4Z" fill="#1C63B7"/>
<path d="M209.5 1520.9H205.4V760.001H209.5V1520.9Z" fill="#1C63B7"/>
<path d="M396.4 1519.4H395.3V761.501H396.4V1519.4Z" fill="#1C63B7"/>
<path d="M397.9 1520.9H393.8V760.001H397.9V1520.9Z" fill="#1C63B7"/>
<path d="M584.8 1519.4H583.7V761.501H584.8V1519.4Z" fill="#1C63B7"/>
<path d="M586.3 1520.9H582.2V760.001H586.3V1520.9Z" fill="#1C63B7"/>
<path d="M773.2 1519.4H772.1V761.501H773.2V1519.4Z" fill="#1C63B7"/>
<path d="M774.7 1520.9H770.6V760.001H774.7V1520.9Z" fill="#1C63B7"/>
<path d="M961.6 1519.4H960.5V761.501H961.6V1519.4Z" fill="#1C63B7"/>
<path d="M963.1 1520.9H959V760.001H963.1V1520.9Z" fill="#1C63B7"/>
<path d="M1150 1519.4H1148.9V761.501H1150V1519.4Z" fill="#1C63B7"/>
<path d="M1151.5 1520.9H1147.4V760.001H1151.5V1520.9Z" fill="#1C63B7"/>
<path d="M1338.4 1519.4H1337.3V761.501H1338.4V1519.4Z" fill="#1C63B7"/>
<path d="M1339.9 1520.9H1335.8V760.001H1339.9V1520.9Z" fill="#1C63B7"/>
<path d="M1526.8 1519.4H1525.7V761.501H1526.8V1519.4Z" fill="#1C63B7"/>
<path d="M1528.3 1520.9H1524.2V760.001H1528.3V1520.9Z" fill="#1C63B7"/>
<path d="M1715.3 1519.4H1714.2V761.501H1715.3V1519.4Z" fill="#1C63B7"/>
<path d="M1716.8 1520.9H1712.7V760.001H1716.8V1520.9Z" fill="#1C63B7"/>
<path d="M1903.7 1519.4H1902.6V761.501H1903.7V1519.4Z" fill="#1C63B7"/>
<path d="M1905.2 1520.9H1901.1V760.001H1905.2V1520.9Z" fill="#1C63B7"/>
<path d="M3034.1 1519.4H-1111.9V1518.4H3034.1V1519.4Z" fill="#1C63B7"/>
<path d="M3035.6 1520.9H-1113.4V1516.9H3035.6V1520.9Z" fill="#1C63B7"/>
<path d="M3034.1 1330.1H-1111.9V1329.1H3034.1V1330.1Z" fill="#1C63B7"/>
<path d="M3035.6 1331.6H-1113.4V1327.6H3035.6V1331.6Z" fill="#1C63B7"/>
<path d="M3034.1 1140.7H-1111.9V1139.7H3034.1V1140.7Z" fill="#1C63B7"/>
<path d="M3035.6 1142.2H-1113.4V1138.2H3035.6V1142.2Z" fill="#1C63B7"/>
<path d="M3034.1 951.301H-1111.9V950.301H3034.1V951.301Z" fill="#1C63B7"/>
<path d="M3035.6 952.801H-1113.4V948.801H3035.6V952.801Z" fill="#1C63B7"/>
<path d="M3034.1 762.001H-1111.9V761.001H3034.1V762.001Z" fill="#1C63B7"/>
<path d="M3035.6 763.501H-1113.4V759.501H3035.6V763.501Z" fill="#1C63B7"/>
</g>
<g filter="url(#filter2_f_930_9672)">
<path d="M19.6 2276.9H18.5V1519H19.6V2276.9Z" fill="#1C63B7"/>
<path d="M21.1 2278.4H17V1517.5H21.1V2278.4Z" fill="#1C63B7"/>
<path d="M208 2276.9H206.9V1519H208V2276.9Z" fill="#1C63B7"/>
<path d="M209.5 2278.4H205.4V1517.5H209.5V2278.4Z" fill="#1C63B7"/>
<path d="M396.4 2276.9H395.3V1519H396.4V2276.9Z" fill="#1C63B7"/>
<path d="M397.9 2278.4H393.8V1517.5H397.9V2278.4Z" fill="#1C63B7"/>
<path d="M584.8 2276.9H583.7V1519H584.8V2276.9Z" fill="#1C63B7"/>
<path d="M586.3 2278.4H582.2V1517.5H586.3V2278.4Z" fill="#1C63B7"/>
<path d="M773.2 2276.9H772.1V1519H773.2V2276.9Z" fill="#1C63B7"/>
<path d="M774.7 2278.4H770.6V1517.5H774.7V2278.4Z" fill="#1C63B7"/>
<path d="M961.6 2276.9H960.5V1519H961.6V2276.9Z" fill="#1C63B7"/>
<path d="M963.1 2278.4H959V1517.5H963.1V2278.4Z" fill="#1C63B7"/>
<path d="M1150 2276.9H1148.9V1519H1150V2276.9Z" fill="#1C63B7"/>
<path d="M1151.5 2278.4H1147.4V1517.5H1151.5V2278.4Z" fill="#1C63B7"/>
<path d="M1338.4 2276.9H1337.3V1519H1338.4V2276.9Z" fill="#1C63B7"/>
<path d="M1339.9 2278.4H1335.8V1517.5H1339.9V2278.4Z" fill="#1C63B7"/>
<path d="M1526.8 2276.9H1525.7V1519H1526.8V2276.9Z" fill="#1C63B7"/>
<path d="M1528.3 2278.4H1524.2V1517.5H1528.3V2278.4Z" fill="#1C63B7"/>
<path d="M1715.3 2276.9H1714.2V1519H1715.3V2276.9Z" fill="#1C63B7"/>
<path d="M1716.8 2278.4H1712.7V1517.5H1716.8V2278.4Z" fill="#1C63B7"/>
<path d="M1903.7 2276.9H1902.6V1519H1903.7V2276.9Z" fill="#1C63B7"/>
<path d="M1905.2 2278.4H1901.1V1517.5H1905.2V2278.4Z" fill="#1C63B7"/>
<path d="M3034.1 2276.9H-1111.9V2275.9H3034.1V2276.9Z" fill="#1C63B7"/>
<path d="M3035.6 2278.4H-1113.4V2274.4H3035.6V2278.4Z" fill="#1C63B7"/>
<path d="M3034.1 2087.6H-1111.9V2086.6H3034.1V2087.6Z" fill="#1C63B7"/>
<path d="M3035.6 2089.1H-1113.4V2085.1H3035.6V2089.1Z" fill="#1C63B7"/>
<path d="M3034.1 1898.2H-1111.9V1897.2H3034.1V1898.2Z" fill="#1C63B7"/>
<path d="M3035.6 1899.7H-1113.4V1895.7H3035.6V1899.7Z" fill="#1C63B7"/>
<path d="M3034.1 1708.8H-1111.9V1707.8H3034.1V1708.8Z" fill="#1C63B7"/>
<path d="M3035.6 1710.3H-1113.4V1706.3H3035.6V1710.3Z" fill="#1C63B7"/>
<path d="M3034.1 1519.5H-1111.9V1518.5H3034.1V1519.5Z" fill="#1C63B7"/>
<path d="M3035.6 1521H-1113.4V1517H3035.6V1521Z" fill="#1C63B7"/>
</g>
<defs>
<filter id="filter0_f_930_9672" x="-1115.4" y="0.000488281" width="4153" height="765.4" filterUnits="userSpaceOnUse" color-interpolation-filters="sRGB">
<feFlood flood-opacity="0" result="BackgroundImageFix"/>
<feBlend mode="normal" in="SourceGraphic" in2="BackgroundImageFix" result="shape"/>
<feGaussianBlur stdDeviation="1" result="effect1_foregroundBlur_930_9672"/>
</filter>
<filter id="filter1_f_930_9672" x="-1115.4" y="757.501" width="4153" height="765.4" filterUnits="userSpaceOnUse" color-interpolation-filters="sRGB">
<feFlood flood-opacity="0" result="BackgroundImageFix"/>
<feBlend mode="normal" in="SourceGraphic" in2="BackgroundImageFix" result="shape"/>
<feGaussianBlur stdDeviation="1" result="effect1_foregroundBlur_930_9672"/>
</filter>
<filter id="filter2_f_930_9672" x="-1115.4" y="1515" width="4153" height="765.4" filterUnits="userSpaceOnUse" color-interpolation-filters="sRGB">
<feFlood flood-opacity="0" result="BackgroundImageFix"/>
<feBlend mode="normal" in="SourceGraphic" in2="BackgroundImageFix" result="shape"/>
<feGaussianBlur stdDeviation="1" result="effect1_foregroundBlur_930_9672"/>
</filter>
</defs>
</svg>
