<svg width="1920" height="2271" viewBox="0 0 1920 2271" fill="none" xmlns="http://www.w3.org/2000/svg">
<g clip-path="url(#clip0_471_5)">
<g filter="url(#filter0_f_471_5)">
<path d="M19.6 754.9H18.5V-2.99963H19.6V754.9Z" fill="#1C63B7"/>
<path d="M21.1 756.4H17V-4.49963H21.1V756.4Z" fill="#1C63B7"/>
<path d="M208 754.9H206.9V-2.99963H208V754.9Z" fill="#1C63B7"/>
<path d="M209.5 756.4H205.4V-4.49963H209.5V756.4Z" fill="#1C63B7"/>
<path d="M396.4 754.9H395.3V-2.99963H396.4V754.9Z" fill="#1C63B7"/>
<path d="M397.9 756.4H393.8V-4.49963H397.9V756.4Z" fill="#1C63B7"/>
<path d="M584.8 754.9H583.7V-2.99963H584.8V754.9Z" fill="#1C63B7"/>
<path d="M586.3 756.4H582.2V-4.49963H586.3V756.4Z" fill="#1C63B7"/>
<path d="M773.2 754.9H772.1V-2.99963H773.2V754.9Z" fill="#1C63B7"/>
<path d="M774.7 756.4H770.6V-4.49963H774.7V756.4Z" fill="#1C63B7"/>
<path d="M961.6 754.9H960.5V-2.99963H961.6V754.9Z" fill="#1C63B7"/>
<path d="M963.1 756.4H959V-4.49963H963.1V756.4Z" fill="#1C63B7"/>
<path d="M1150 754.9H1148.9V-2.99963H1150V754.9Z" fill="#1C63B7"/>
<path d="M1151.5 756.4H1147.4V-4.49963H1151.5V756.4Z" fill="#1C63B7"/>
<path d="M1338.4 754.9H1337.3V-2.99963H1338.4V754.9Z" fill="#1C63B7"/>
<path d="M1339.9 756.4H1335.8V-4.49963H1339.9V756.4Z" fill="#1C63B7"/>
<path d="M1526.8 754.9H1525.7V-2.99963H1526.8V754.9Z" fill="#1C63B7"/>
<path d="M1528.3 756.4H1524.2V-4.49963H1528.3V756.4Z" fill="#1C63B7"/>
<path d="M1715.3 754.9H1714.2V-2.99963H1715.3V754.9Z" fill="#1C63B7"/>
<path d="M1716.8 756.4H1712.7V-4.49963H1716.8V756.4Z" fill="#1C63B7"/>
<path d="M1903.7 754.9H1902.6V-2.99963H1903.7V754.9Z" fill="#1C63B7"/>
<path d="M1905.2 756.4H1901.1V-4.49963H1905.2V756.4Z" fill="#1C63B7"/>
<path d="M3034.1 754.9H-1111.9V753.9H3034.1V754.9Z" fill="#1C63B7"/>
<path d="M3035.6 756.4H-1113.4V752.4H3035.6V756.4Z" fill="#1C63B7"/>
<path d="M3034.1 565.601H-1111.9V564.601H3034.1V565.601Z" fill="#1C63B7"/>
<path d="M3035.6 567.101H-1113.4V563.101H3035.6V567.101Z" fill="#1C63B7"/>
<path d="M3034.1 376.2H-1111.9V375.2H3034.1V376.2Z" fill="#1C63B7"/>
<path d="M3035.6 377.7H-1113.4V373.7H3035.6V377.7Z" fill="#1C63B7"/>
<path d="M3034.1 186.8H-1111.9V185.8H3034.1V186.8Z" fill="#1C63B7"/>
<path d="M3035.6 188.3H-1113.4V184.3H3035.6V188.3Z" fill="#1C63B7"/>
</g>
<g filter="url(#filter1_f_471_5)">
<path d="M19.6 1512.4H18.5V754.501H19.6V1512.4Z" fill="#1C63B7"/>
<path d="M21.1 1513.9H17V753.001H21.1V1513.9Z" fill="#1C63B7"/>
<path d="M208 1512.4H206.9V754.501H208V1512.4Z" fill="#1C63B7"/>
<path d="M209.5 1513.9H205.4V753.001H209.5V1513.9Z" fill="#1C63B7"/>
<path d="M396.4 1512.4H395.3V754.501H396.4V1512.4Z" fill="#1C63B7"/>
<path d="M397.9 1513.9H393.8V753.001H397.9V1513.9Z" fill="#1C63B7"/>
<path d="M584.8 1512.4H583.7V754.501H584.8V1512.4Z" fill="#1C63B7"/>
<path d="M586.3 1513.9H582.2V753.001H586.3V1513.9Z" fill="#1C63B7"/>
<path d="M773.2 1512.4H772.1V754.501H773.2V1512.4Z" fill="#1C63B7"/>
<path d="M774.7 1513.9H770.6V753.001H774.7V1513.9Z" fill="#1C63B7"/>
<path d="M961.6 1512.4H960.5V754.501H961.6V1512.4Z" fill="#1C63B7"/>
<path d="M963.1 1513.9H959V753.001H963.1V1513.9Z" fill="#1C63B7"/>
<path d="M1150 1512.4H1148.9V754.501H1150V1512.4Z" fill="#1C63B7"/>
<path d="M1151.5 1513.9H1147.4V753.001H1151.5V1513.9Z" fill="#1C63B7"/>
<path d="M1338.4 1512.4H1337.3V754.501H1338.4V1512.4Z" fill="#1C63B7"/>
<path d="M1339.9 1513.9H1335.8V753.001H1339.9V1513.9Z" fill="#1C63B7"/>
<path d="M1526.8 1512.4H1525.7V754.501H1526.8V1512.4Z" fill="#1C63B7"/>
<path d="M1528.3 1513.9H1524.2V753.001H1528.3V1513.9Z" fill="#1C63B7"/>
<path d="M1715.3 1512.4H1714.2V754.501H1715.3V1512.4Z" fill="#1C63B7"/>
<path d="M1716.8 1513.9H1712.7V753.001H1716.8V1513.9Z" fill="#1C63B7"/>
<path d="M1903.7 1512.4H1902.6V754.501H1903.7V1512.4Z" fill="#1C63B7"/>
<path d="M1905.2 1513.9H1901.1V753.001H1905.2V1513.9Z" fill="#1C63B7"/>
<path d="M3034.1 1512.4H-1111.9V1511.4H3034.1V1512.4Z" fill="#1C63B7"/>
<path d="M3035.6 1513.9H-1113.4V1509.9H3035.6V1513.9Z" fill="#1C63B7"/>
<path d="M3034.1 1323.1H-1111.9V1322.1H3034.1V1323.1Z" fill="#1C63B7"/>
<path d="M3035.6 1324.6H-1113.4V1320.6H3035.6V1324.6Z" fill="#1C63B7"/>
<path d="M3034.1 1133.7H-1111.9V1132.7H3034.1V1133.7Z" fill="#1C63B7"/>
<path d="M3035.6 1135.2H-1113.4V1131.2H3035.6V1135.2Z" fill="#1C63B7"/>
<path d="M3034.1 944.301H-1111.9V943.301H3034.1V944.301Z" fill="#1C63B7"/>
<path d="M3035.6 945.801H-1113.4V941.801H3035.6V945.801Z" fill="#1C63B7"/>
<path d="M3034.1 755.001H-1111.9V754.001H3034.1V755.001Z" fill="#1C63B7"/>
<path d="M3035.6 756.501H-1113.4V752.501H3035.6V756.501Z" fill="#1C63B7"/>
</g>
<g filter="url(#filter2_f_471_5)">
<path d="M19.6 2269.9H18.5V1512H19.6V2269.9Z" fill="#1C63B7"/>
<path d="M21.1 2271.4H17V1510.5H21.1V2271.4Z" fill="#1C63B7"/>
<path d="M208 2269.9H206.9V1512H208V2269.9Z" fill="#1C63B7"/>
<path d="M209.5 2271.4H205.4V1510.5H209.5V2271.4Z" fill="#1C63B7"/>
<path d="M396.4 2269.9H395.3V1512H396.4V2269.9Z" fill="#1C63B7"/>
<path d="M397.9 2271.4H393.8V1510.5H397.9V2271.4Z" fill="#1C63B7"/>
<path d="M584.8 2269.9H583.7V1512H584.8V2269.9Z" fill="#1C63B7"/>
<path d="M586.3 2271.4H582.2V1510.5H586.3V2271.4Z" fill="#1C63B7"/>
<path d="M773.2 2269.9H772.1V1512H773.2V2269.9Z" fill="#1C63B7"/>
<path d="M774.7 2271.4H770.6V1510.5H774.7V2271.4Z" fill="#1C63B7"/>
<path d="M961.6 2269.9H960.5V1512H961.6V2269.9Z" fill="#1C63B7"/>
<path d="M963.1 2271.4H959V1510.5H963.1V2271.4Z" fill="#1C63B7"/>
<path d="M1150 2269.9H1148.9V1512H1150V2269.9Z" fill="#1C63B7"/>
<path d="M1151.5 2271.4H1147.4V1510.5H1151.5V2271.4Z" fill="#1C63B7"/>
<path d="M1338.4 2269.9H1337.3V1512H1338.4V2269.9Z" fill="#1C63B7"/>
<path d="M1339.9 2271.4H1335.8V1510.5H1339.9V2271.4Z" fill="#1C63B7"/>
<path d="M1526.8 2269.9H1525.7V1512H1526.8V2269.9Z" fill="#1C63B7"/>
<path d="M1528.3 2271.4H1524.2V1510.5H1528.3V2271.4Z" fill="#1C63B7"/>
<path d="M1715.3 2269.9H1714.2V1512H1715.3V2269.9Z" fill="#1C63B7"/>
<path d="M1716.8 2271.4H1712.7V1510.5H1716.8V2271.4Z" fill="#1C63B7"/>
<path d="M1903.7 2269.9H1902.6V1512H1903.7V2269.9Z" fill="#1C63B7"/>
<path d="M1905.2 2271.4H1901.1V1510.5H1905.2V2271.4Z" fill="#1C63B7"/>
<path d="M3034.1 2269.9H-1111.9V2268.9H3034.1V2269.9Z" fill="#1C63B7"/>
<path d="M3035.6 2271.4H-1113.4V2267.4H3035.6V2271.4Z" fill="#1C63B7"/>
<path d="M3034.1 2080.6H-1111.9V2079.6H3034.1V2080.6Z" fill="#1C63B7"/>
<path d="M3035.6 2082.1H-1113.4V2078.1H3035.6V2082.1Z" fill="#1C63B7"/>
<path d="M3034.1 1891.2H-1111.9V1890.2H3034.1V1891.2Z" fill="#1C63B7"/>
<path d="M3035.6 1892.7H-1113.4V1888.7H3035.6V1892.7Z" fill="#1C63B7"/>
<path d="M3034.1 1701.8H-1111.9V1700.8H3034.1V1701.8Z" fill="#1C63B7"/>
<path d="M3035.6 1703.3H-1113.4V1699.3H3035.6V1703.3Z" fill="#1C63B7"/>
<path d="M3034.1 1512.5H-1111.9V1511.5H3034.1V1512.5Z" fill="#1C63B7"/>
<path d="M3035.6 1514H-1113.4V1510H3035.6V1514Z" fill="#1C63B7"/>
</g>
</g>
<defs>
<filter id="filter0_f_471_5" x="-1115.4" y="-6.99951" width="4153" height="765.399" filterUnits="userSpaceOnUse" color-interpolation-filters="sRGB">
<feFlood flood-opacity="0" result="BackgroundImageFix"/>
<feBlend mode="normal" in="SourceGraphic" in2="BackgroundImageFix" result="shape"/>
<feGaussianBlur stdDeviation="1" result="effect1_foregroundBlur_471_5"/>
</filter>
<filter id="filter1_f_471_5" x="-1115.4" y="750.501" width="4153" height="765.399" filterUnits="userSpaceOnUse" color-interpolation-filters="sRGB">
<feFlood flood-opacity="0" result="BackgroundImageFix"/>
<feBlend mode="normal" in="SourceGraphic" in2="BackgroundImageFix" result="shape"/>
<feGaussianBlur stdDeviation="1" result="effect1_foregroundBlur_471_5"/>
</filter>
<filter id="filter2_f_471_5" x="-1115.4" y="1508" width="4153" height="765.4" filterUnits="userSpaceOnUse" color-interpolation-filters="sRGB">
<feFlood flood-opacity="0" result="BackgroundImageFix"/>
<feBlend mode="normal" in="SourceGraphic" in2="BackgroundImageFix" result="shape"/>
<feGaussianBlur stdDeviation="1" result="effect1_foregroundBlur_471_5"/>
</filter>
<clipPath id="clip0_471_5">
<rect width="1920" height="2271" fill="white"/>
</clipPath>
</defs>
</svg>
