<svg width="333" height="388" viewBox="0 0 333 388" fill="none" xmlns="http://www.w3.org/2000/svg">
<g style="mix-blend-mode:color-dodge">
<path d="M-142.973 209.073C-146.096 211.733 -148.872 214.392 -151.648 217.229C-156.963 223.548 -161.082 230.823 -163.793 238.681C-167.317 251.128 -166.395 264.45 -161.191 276.266C-155.331 288.262 -151.127 301.03 -148.699 314.206C-148.722 328.602 -145.641 342.827 -139.677 355.869C-133.369 364.667 -124.892 371.6 -115.108 375.96C-105.325 380.32 -94.5855 381.952 -83.9838 380.69C-64.2303 378.808 -44.6331 375.49 -25.3412 370.762C-4.22426 366.897 17.2509 365.469 38.6799 366.507C61.9692 368.286 85.1401 371.424 108.079 375.903C131.669 381.667 155.701 385.345 179.908 386.895C204.998 388.242 229.786 380.799 250.175 365.797C268.791 350.051 286.193 332.862 302.225 314.384C308.709 307.983 314.793 301.174 320.442 293.995L326.168 281.053C328.087 276.352 329.597 271.487 330.679 266.515C331.197 263.286 331.544 260.031 331.72 256.764C331.72 243.29 331.72 229.994 331.72 216.52C330.505 208.896 328.944 201.095 327.035 193.472C322.871 175.743 317.319 158.014 313.329 142.058C303.439 101.813 297.54 81.9569 257.288 66.3554C236.583 58.2283 216.804 47.8253 198.299 35.3297C183.202 22.4782 166.223 12.1285 147.984 4.65863C128.644 0.877764 108.818 0.458206 89.3416 3.41761C68.9855 5.47482 48.8421 9.33052 29.1375 14.9414C11.4502 19.8597 -5.61146 26.881 -21.6977 35.8616C-37.836 45.9372 -52.5468 58.2255 -65.4194 72.3832C-83.9838 91.7078 -84.6778 117.592 -91.0973 142.058C-98.7312 171.311 -120.939 189.926 -142.973 209.073Z" fill="url(#paint0_radial_1188_22200)"/>
<g style="mix-blend-mode:multiply" opacity="0.2">
<path d="M332.071 215.636C330.857 208.013 329.295 200.212 327.387 192.589C323.223 174.86 317.671 157.131 313.68 141.175C303.791 100.93 297.892 81.0739 257.64 65.4725C236.935 57.3454 217.155 46.9424 198.651 34.4468C183.553 21.5954 166.575 11.2457 148.336 3.77582C128.996 -0.00504252 109.17 -0.424609 89.6932 2.53479C69.3371 4.592 49.1938 8.44769 29.4891 14.0586C11.8018 18.9768 -5.25981 25.9982 -21.3461 34.9787C-37.6616 45.3004 -52.4932 57.8903 -65.4148 72.3868C-83.9792 91.7113 -84.6732 117.596 -91.0926 142.061C-98.7266 171.314 -120.934 189.93 -143.142 209.077C-146.265 211.736 -149.041 214.395 -151.817 217.232C-157.132 223.551 -161.251 230.826 -163.962 238.684C-167.432 251.152 -166.448 264.475 -161.186 276.269C-155.326 288.265 -151.122 301.033 -148.694 314.209C-148.717 328.605 -145.637 342.83 -139.672 355.872C-133.365 364.67 -124.887 371.603 -115.104 375.963C-105.32 380.323 -94.5808 381.955 -83.9792 380.693C-64.2256 378.811 -44.6285 375.493 -25.3365 370.765C-4.2196 366.899 17.2556 365.472 38.6846 366.51C61.9739 368.289 85.1448 371.427 108.084 375.906C131.674 381.67 155.705 385.348 179.913 386.898C205.002 388.245 229.791 380.802 250.18 365.8C268.796 350.054 286.197 332.865 302.229 314.387C308.713 307.987 314.798 301.177 320.447 293.998L326.172 281.056C328.092 276.355 329.601 271.491 330.683 266.519C331.201 263.29 331.549 260.035 331.724 256.768C332.245 242.407 331.377 229.11 332.071 215.636ZM302.229 180.179C298.586 180.179 288.176 177.519 287.135 183.547C286.703 187.079 286.703 190.652 287.135 194.184C286.878 203.88 285.892 213.541 284.186 223.083C284.186 224.856 282.104 225.387 281.063 223.969C277.559 218.702 274.316 213.258 271.347 207.658C271.347 213.154 274.47 218.473 274.817 224.146C274.777 224.603 274.582 225.031 274.265 225.355C273.948 225.68 273.529 225.879 273.082 225.919C262.593 223.01 251.835 221.227 240.984 220.601C232.83 221.487 238.729 241.521 238.555 246.662C238.555 264.391 219.123 272.369 212.357 287.616C212.357 289.212 209.234 287.616 209.234 286.729C210.393 271.439 215.415 256.717 223.808 244.003C214.067 249.4 205.645 256.975 199.171 266.164C199.009 266.384 198.8 266.563 198.559 266.686C198.318 266.809 198.052 266.873 197.783 266.873C197.514 266.873 197.248 266.809 197.007 266.686C196.766 266.563 196.557 266.384 196.395 266.164C194.368 260.794 193.366 255.077 193.446 249.321C190.759 255.53 187.506 261.465 183.73 267.05C183.598 267.311 183.399 267.529 183.154 267.682C182.91 267.834 182.628 267.915 182.342 267.915C182.055 267.915 181.774 267.834 181.529 267.682C181.284 267.529 181.085 267.311 180.954 267.05C178.687 263.571 176.988 259.739 175.922 255.704C173.092 259.065 170.08 262.261 166.9 265.277C163.777 268.291 166.033 271.483 166.9 274.851C167.768 278.22 162.216 283.538 158.225 286.198C155.953 288.403 153.089 289.867 149.999 290.404C146.91 290.941 143.733 290.526 140.875 289.212C137.602 287.862 134.774 285.586 132.721 282.652V284.779C132.721 285.843 131.68 286.907 130.639 286.375L126.822 285.311C127.689 292.048 129.771 298.608 130.118 305.522C130.075 305.961 129.874 306.368 129.553 306.663C129.232 306.958 128.815 307.12 128.383 307.118C121.509 306.131 114.721 304.59 108.084 302.508C116.412 307.295 126.995 313.677 124.046 322.187C122.225 325.451 120.196 328.59 117.974 331.584C116.821 334.767 115.307 337.802 113.463 340.625C111.43 342.521 108.986 343.895 106.331 344.635C103.676 345.375 100.887 345.459 98.1947 344.88C79.2476 341.975 60.6039 337.287 42.5015 330.874C31.9181 327.329 21.3347 323.96 10.5777 321.301C6.93424 320.237 1.03528 319.705 -0.873203 315.45C-2.87276 309.231 -2.87276 302.522 -0.873203 296.303C-0.873203 292.048 1.2088 286.02 -4.69017 284.425C-6.21966 283.972 -7.72532 283.44 -9.20114 282.829C-11.4776 281.809 -13.5849 280.434 -15.4471 278.751C-22.5606 271.837 -7.46616 264.923 -6.59867 259.25C-5.38417 250.385 -18.9171 245.421 -19.7846 236.911C-20.0411 235.029 -20.0411 233.12 -19.7846 231.238C-19.7846 228.224 -17.5291 225.387 -19.7846 225.387H-28.633C-31.756 225.387 -38.8694 226.983 -41.4719 224.324C-44.0744 221.664 -43.3804 217.232 -43.9009 213.864C-46.595 213.341 -49.3613 213.341 -52.0554 213.864C-59.8656 215.431 -67.2673 218.655 -73.7823 223.327C-80.2973 227.999 -85.7806 234.016 -89.8781 240.989C-91.269 243.893 -93.4106 246.353 -96.0711 248.103C-98.7316 249.853 -101.81 250.826 -104.973 250.917C-104.388 259.889 -102.757 268.757 -100.115 277.333C-99.8893 277.64 -99.7676 278.013 -99.7676 278.397C-99.7676 278.78 -99.8893 279.154 -100.115 279.461C-102.37 281.588 -105.146 283.716 -107.228 286.02C-107.864 286.631 -108.364 287.375 -108.693 288.201C-109.023 289.027 -109.174 289.916 -109.137 290.807C-104.659 293.631 -99.7234 295.612 -94.5626 296.658L-92.1336 297.899C-90.0024 298.447 -87.9146 299.158 -85.8877 300.026C-83.9938 299.85 -82.1287 299.433 -80.3357 298.785C-80.0807 298.732 -79.8172 298.738 -79.5648 298.803C-79.3124 298.868 -79.0776 298.99 -78.8776 299.16C-78.6777 299.33 -78.5178 299.544 -78.4098 299.786C-78.3018 300.028 -78.2484 300.292 -78.2537 300.558C-78.3443 301.916 -78.3443 303.278 -78.2537 304.636C-73.6438 304.334 -69.0623 303.683 -64.5473 302.685C-64.2603 302.618 -63.9612 302.625 -63.678 302.708C-63.3948 302.791 -63.1369 302.946 -62.9286 303.159C-62.7204 303.372 -62.5685 303.635 -62.4875 303.925C-62.4064 304.214 -62.3988 304.52 -62.4653 304.813C-64.0428 315.02 -68.6449 324.487 -75.6512 331.938C-81.0045 339.907 -87.2979 347.171 -94.3891 353.568C-94.6142 353.682 -94.8609 353.745 -95.1121 353.752C-95.3634 353.759 -95.6131 353.71 -95.8441 353.609C-96.0751 353.508 -96.2819 353.357 -96.45 353.166C-96.6182 352.975 -96.7438 352.749 -96.8181 352.504C-98.0544 337.635 -102.626 323.258 -110.177 310.486C-114.688 304.281 -126.313 290.807 -133.947 300.203C-136.92 304.301 -139.477 308.697 -141.581 313.323C-141.712 313.583 -141.911 313.802 -142.156 313.954C-142.401 314.107 -142.682 314.187 -142.969 314.187C-143.256 314.187 -143.537 314.107 -143.782 313.954C-144.026 313.802 -144.225 313.583 -144.357 313.323C-146.887 307.737 -148.415 301.732 -148.868 295.594C-150.082 286.375 -152.164 277.865 -154.073 268.646C-156.174 262.637 -156.938 256.225 -156.308 249.876C-155.677 243.527 -153.669 237.402 -150.429 231.947C-148.363 229.237 -146.101 226.689 -143.663 224.324C-139.723 219.969 -135.298 216.101 -130.477 212.8C-129.109 211.522 -127.66 210.337 -126.139 209.254C-123.021 206.325 -119.587 203.767 -115.903 201.631C-107.727 194.325 -100.704 185.774 -95.0831 176.278C-90.4217 165.509 -86.6495 154.36 -83.8057 142.948C-81.1166 123.867 -75.2484 105.398 -66.4558 88.3428C-59.3877 76.8057 -49.9808 66.9515 -38.8695 59.4446C-21.837 46.5328 -2.7653 36.6987 17.5177 30.3692C38.0658 22.2999 59.8729 18.0954 81.8858 17.959C82.2329 18.0755 82.5351 18.3011 82.7494 18.6036C82.9637 18.906 83.079 19.2698 83.079 19.6432C83.079 20.0166 82.9637 20.3804 82.7494 20.6828C82.5351 20.9853 82.2329 21.2109 81.8858 21.3274C70.4003 25.2302 59.1597 29.8484 48.227 35.156C36.6227 42.1639 26.8115 51.8857 19.5997 63.5223C16.3032 69.0183 13.7007 74.3369 10.7512 80.0102C9.88373 81.6058 7.97526 85.8607 5.89328 86.3926C4.09472 86.5935 2.36412 87.2084 0.831546 88.191C-0.701024 89.1736 -1.9957 90.4984 -2.95517 92.0659C-3.77777 93.6645 -4.70521 95.2046 -5.73115 96.6754C-9.72163 101.817 -20.1316 112.986 -8.16016 117.241C-3.12869 119.014 3.29077 121.319 3.29077 127.701C3.12079 132.202 2.4218 136.667 1.2088 140.998C0.429063 145.751 0.429063 150.604 1.2088 155.358C1.98277 158.549 1.87345 161.896 0.893031 165.027C-0.0873867 168.158 -1.90029 170.948 -4.34316 173.087C-11.2831 177.874 -21.6931 179.647 -27.0715 186.206C-20.3051 189.043 -13.1916 190.639 -6.25166 192.766C0.688296 194.894 12.3127 195.071 21.5082 196.844C21.9192 197.002 22.2644 197.299 22.4857 197.687C22.7069 198.074 22.7906 198.528 22.7227 198.971C20.8142 204.467 31.7446 204.113 33.6531 208.722C34.6131 212.395 34.2435 216.298 32.6121 219.714C41.981 217.587 53.085 214.75 54.473 228.224C54.473 232.656 54.473 236.911 54.473 241.521C54.473 242.584 54.473 251.449 58.1164 247.194C59.1416 245.947 60.0154 244.578 60.7189 243.116C62.0612 238.095 64.5597 233.475 68.0059 229.642C71.8229 226.451 77.8953 228.047 82.2328 228.756C86.5703 229.465 90.5607 228.756 93.3367 230.883C102.532 239.925 95.9392 258.009 96.8067 270.064C105.237 259.617 112.133 247.971 117.28 235.493C120 228.461 125.113 222.669 131.68 219.182C140.412 211.82 150.18 205.843 160.654 201.453C169.681 200.334 178.777 202.881 185.985 208.545C185.985 204.113 184.597 199.68 184.25 195.248C184.264 194.978 184.339 194.715 184.468 194.479C184.597 194.242 184.777 194.039 184.995 193.885C185.213 193.731 185.462 193.63 185.724 193.59C185.986 193.55 186.253 193.571 186.506 193.653C191.884 195.248 214.959 203.226 216.521 193.653C216.521 188.689 218.256 179.647 214.092 175.924C209.928 172.201 207.325 171.846 204.203 169.009C193.793 159.79 209.234 138.87 212.357 128.942C212.357 128.942 213.224 127.524 213.918 127.701C217.222 128.278 220.618 127.866 223.697 126.513C226.776 125.16 229.406 122.925 231.268 120.078C234.044 115.645 236.647 111.036 239.77 106.781C242.893 102.526 243.24 102.881 244.454 100.576C245.669 98.271 238.729 95.9662 236.82 95.4344C232.285 94.3538 227.867 92.8095 223.634 90.8248C205.243 81.0739 232.83 70.9684 242.546 71.5003C245.713 71.9681 248.672 73.3875 251.047 75.578C255.483 79.5325 260.243 83.0913 265.274 86.2153C274.095 90.6669 282.082 96.6678 288.87 103.944C295.116 112.1 293.207 124.333 294.075 134.083C295.636 148.798 301.882 162.627 302.923 177.519C303.964 179.647 303.097 180.179 302.229 180.356V180.179Z" fill="#576065"/>
</g>
<path d="M224.499 106.426C218.389 101.824 211.746 98.013 204.72 95.0794L192.922 89.9381C189.626 88.5197 188.238 77.1732 186.676 73.982C184.943 71.2088 182.705 68.8014 180.083 66.8905C174.184 61.2172 181.298 49.1615 184.768 44.9066C187.698 41.9185 189.794 38.185 190.84 34.092C190.84 33.0282 189.799 33.0282 189.105 33.2055C181.124 36.3967 167.244 50.9344 159.09 47.0341C153.643 43.8015 147.812 41.2989 141.74 39.5879C135.494 37.815 129.074 36.9286 127.513 29.6597C125.951 22.3909 121.267 27.7096 119.879 30.9008L117.45 36.0421C116.351 33.4838 115.537 30.8078 115.021 28.0641C115.021 24.6956 115.021 20.0861 111.551 18.1359C111.309 18.0112 111.042 17.9463 110.77 17.9463C110.499 17.9463 110.232 18.0112 109.99 18.1359C107.761 19.9261 106.175 22.4196 105.479 25.2275C104.602 27.7733 103.906 30.3803 103.397 33.0282C103.002 34.1752 102.196 35.1259 101.141 35.6876C94.1448 36.232 87.1903 37.2388 80.3213 38.7015V38.7015C74.9428 38.7015 71.1258 37.1059 66.6149 40.2971C62.1039 43.4883 60.8894 36.574 57.2459 35.8649C56.9822 35.7092 56.683 35.6273 56.3784 35.6273C56.0739 35.6273 55.7747 35.7092 55.5109 35.8649C53.3948 38.935 51.9725 42.4472 51.3469 46.1476L48.571 47.566L45.101 45.7931C43.0934 43.9136 40.9472 42.1947 38.6815 40.6517V40.6517C37.6405 39.7652 35.9056 40.6517 36.2526 42.4246C37.0306 46.3541 38.1334 50.2092 39.549 53.9484C28.9917 60.3987 20.5399 69.8989 15.2592 81.2509C12.3792 87.6259 10.3373 94.3622 9.18671 101.285C1.68147 100.727 -5.86318 101.324 -13.1946 103.057C-14.0621 103.057 0.858785 112.631 7.27824 118.127V119.013C7.39664 123.77 7.86058 128.511 8.66623 133.197C7.33269 136.938 6.80021 140.928 7.10474 144.898C7.10474 148.266 13.5242 149.862 8.49273 153.939C6.80415 155.256 5.43807 156.955 4.50226 158.904C3.28777 163.336 7.10473 165.995 10.7482 167.413C3.11425 173.264 -7.98966 176.633 -13.0211 185.142C-18.0526 193.652 21.6786 192.766 29.6596 191.879C37.6405 190.993 33.9971 194.716 34.6911 198.262C35.3851 201.808 39.0285 199.68 40.0695 199.68C41.1105 199.68 38.3345 207.658 37.9875 209.254C37.8525 209.595 37.8525 209.976 37.9875 210.317C41.284 211.913 45.2745 210.317 48.7445 208.899C52.2144 207.481 54.2964 209.786 55.5109 215.104C56.7254 220.423 56.5519 221.841 57.5929 225.032C58.6339 228.224 59.3279 225.032 60.0219 225.032C65.0931 222.081 69.5681 218.17 73.2078 213.509C83.0184 215.666 93.133 215.967 103.05 214.395C103.05 217.586 103.05 220.778 103.05 221.664C103.05 226.805 104.091 231.947 104.958 237.088C104.958 239.038 108.081 237.088 108.602 236.024C111.154 230.336 113.131 224.395 114.501 218.295C115.23 215.694 116.748 213.397 118.838 211.736L132.371 207.658C136.358 206.293 140.243 204.634 143.995 202.694H145.904C151.19 201.534 156.055 198.894 159.957 195.071C161.155 193.588 162.202 191.984 163.08 190.284L165.856 187.624C169.754 189.355 173.333 191.753 176.44 194.716C177.828 195.602 180.257 193.12 179.736 191.702C178.522 187.093 176.613 182.66 175.572 178.228C185.288 181.951 194.484 187.093 204.026 191.525C205.24 191.525 208.016 189.929 207.322 188.511C203.862 182.785 199.176 177.936 193.616 174.328C190.203 171.907 187.009 169.177 184.074 166.172V164.931L185.115 163.158C186.156 161.031 187.023 158.904 187.891 156.776C189.718 153.26 191.227 149.58 192.402 145.784C195.004 141.352 200.209 135.856 199.168 130.537C199.168 130.537 197.086 128.41 195.525 127.169C195.61 126.462 195.61 125.748 195.525 125.041C200.041 124.14 204.629 123.665 209.231 123.623C210.272 123.623 212.701 121.496 211.486 120.255C206.925 116.204 201.848 112.804 196.392 110.149C204.373 110.149 212.18 110.149 220.335 110.149C222.937 109.794 225.887 107.667 224.499 106.426Z" fill="url(#paint1_radial_1188_22200)"/>
<g style="mix-blend-mode:screen">
<path d="M181.99 153.41C169.5 146.932 156.351 141.878 142.779 138.341C134.023 135.588 125.447 132.272 117.101 128.412C117.599 127.532 117.95 126.574 118.142 125.576C135.492 125.576 152.842 124.512 170.192 124.158C170.192 124.158 171.58 123.094 170.192 122.916H118.142C118.223 122.567 118.223 122.202 118.142 121.853C122.653 120.612 127.164 119.371 130.287 118.13C139.482 114.229 148.678 110.329 157.873 106.074C157.873 106.074 157.873 104.833 157.873 106.074C145.362 111.684 132.562 116.597 119.53 120.789H117.795C117.867 120.141 117.867 119.487 117.795 118.839C136.288 105.461 153.695 90.5793 169.845 74.3393C169.845 74.3393 169.845 73.2755 169.845 74.3393C159.782 83.9129 147.463 92.0682 136.533 101.11C130.807 105.719 124.388 109.974 118.315 114.407C118.969 113.329 119.724 112.319 120.571 111.393C129.766 99.6916 139.309 88.3451 148.157 75.9349C148.157 75.9349 148.157 75.0484 148.157 75.9349C137.747 87.1041 127.164 98.096 116.927 109.265L115.713 110.684C117.448 106.96 119.183 103.237 121.091 99.5143C126.296 89.2315 133.236 79.8352 138.441 69.3752C138.441 69.3752 138.441 69.3752 137.4 69.3752C132.195 78.5942 125.602 87.1041 120.05 96.3231L117.621 100.223C119.356 94.3729 121.091 88.5224 123 82.4946C127.164 69.0206 132.889 55.9012 136.706 42.2499C136.706 41.3635 135.665 42.2499 135.318 42.2499C125.429 63.5246 115.366 83.9129 108.079 106.074C108.079 102.351 108.079 98.6279 108.079 95.0821C108.079 83.0264 109.12 71.1481 108.079 59.6243C108.079 59.6243 107.038 59.6243 106.865 59.6243C106.865 71.8572 104.783 84.0902 103.915 96.3231C103.915 101.11 103.915 105.719 103.915 110.506H102.18C101.313 107.138 100.272 103.947 99.5776 100.933C96.4546 88.1678 94.0256 75.0484 90.0351 62.4609C90.0351 62.4609 88.8206 62.4609 88.9941 62.4609C91.7701 74.3393 93.3316 86.3949 95.2401 97.9187C95.2401 100.223 95.2401 102.706 96.6281 105.188C88.9941 90.2953 81.1867 75.5803 72.5118 61.2199C72.5118 61.2199 70.9503 61.2199 71.1238 62.2836C79.4517 77.8851 86.2182 94.5502 94.1991 110.506C89.3411 106.606 84.4831 102.706 79.9722 98.6279C70.4297 89.9407 61.5813 80.899 52.3859 71.6799C52.3859 71.6799 50.9979 71.6799 51.3449 71.6799C60.0198 81.2535 68.6948 91.1817 77.5432 100.223L92.1171 112.811C77.1962 101.996 60.3668 92.9546 45.2724 82.8491C45.2724 82.8491 44.0579 82.8492 44.4049 83.7356C58.2848 94.7275 72.6852 105.01 87.2591 115.293C85.0772 114.584 82.9343 113.756 80.8397 112.811C71.0887 108.848 61.6857 104.044 52.7329 98.4506C52.7329 98.4506 51.1714 98.4506 51.6919 98.4506C58.1824 103.571 65.2262 107.913 72.6852 111.393C77.3697 113.875 83.0952 116.002 88.3001 118.307V120.966C70.9503 117.775 53.6004 114.938 37.118 111.038C37.118 111.038 36.077 111.038 37.118 111.038C53.6605 116.09 70.4561 120.233 87.4326 123.448C79.7987 124.512 71.9912 126.462 64.8778 127.703C50.4774 130.008 36.077 132.667 21.6766 135.149C21.6766 135.149 20.8091 135.149 21.6766 135.149C44.0579 132.313 66.6128 128.767 88.9941 125.753L77.1962 130.54C69.5622 133.731 62.1018 137.1 54.6414 140.645C49.3418 144.249 43.4718 146.888 37.2915 148.446C37.2915 148.446 36.077 149.333 37.2915 149.333C39.2724 150.736 41.5178 151.702 43.8844 152.169L67.8273 143.482L90.7291 135.681L92.1171 136.922C71.1237 151.283 51.3449 167.593 29.484 180.535C29.484 180.535 29.484 181.599 29.484 180.535C52.3859 168.303 73.0322 152.169 94.8931 138.163C92.6376 140.468 90.2086 142.773 87.9531 145.255C82.1709 152.815 75.9116 159.981 69.2153 166.707C69.2153 166.707 69.2153 167.948 69.2153 167.593C75.7715 161.78 81.9171 155.5 87.6061 148.801L93.6786 143.127V144.9C90.2086 151.992 86.9121 159.083 83.2687 166.175C77.1962 177.699 73.2057 190.286 67.1333 201.633C67.1333 202.519 67.1333 201.633 68.1743 201.633C74.5937 191.527 79.1047 180.181 85.5242 169.721C89.8616 161.92 95.0666 153.942 99.5776 145.787C94.0256 166.707 90.5556 188.513 86.9122 209.434H87.9531C93.3316 186.031 99.2306 162.629 105.303 139.404C108.773 162.452 112.763 185.5 114.498 208.724C114.498 208.724 115.539 208.724 115.366 208.724C114.877 192.772 113.603 176.855 111.549 161.034C111.549 154.651 110.161 148.269 109.12 141.886C109.12 140.823 109.12 139.759 109.12 138.695L111.896 143.305L124.908 162.984C124.908 162.984 125.949 162.984 125.776 162.984C122.653 156.601 119.009 150.396 115.713 144.014C114.568 141.809 113.293 139.678 111.896 137.631V137.631C114.672 140.823 117.621 143.659 120.224 146.851C126.369 155.136 133.283 162.795 140.87 169.721C140.87 169.721 142.085 169.721 141.738 169.721C135.474 162.865 129.677 155.58 124.388 147.914L116.407 137.454C124.836 144.015 133.642 150.054 142.779 155.538C142.779 155.538 143.993 155.538 143.646 155.538L120.571 136.213C140.523 143.127 161.517 146.673 180.602 155.538C181.643 155.006 182.684 153.765 181.99 153.41Z" fill="#8F9194"/>
</g>
<path d="M214.962 254.644C214.962 254.644 214.962 253.403 214.095 254.644C205.921 262.717 200.559 273.302 198.827 284.783C196.055 283.182 192.977 282.215 189.805 281.946C189.805 281.946 189.805 281.946 189.805 281.946C189.891 280.884 189.891 279.817 189.805 278.755C190.271 271.42 191.973 264.223 194.836 257.48C194.836 257.48 194.836 257.48 194.836 257.48V258.544C192.76 261.591 191.014 264.861 189.631 268.295C189.631 268.295 189.631 268.295 189.631 269.359C188.808 271.774 188.227 274.269 187.896 276.805C187.896 276.805 187.896 276.805 187.896 276.805C187.896 277.869 187.896 278.932 187.896 279.996H187.029C187.115 278.757 187.115 277.512 187.029 276.273C186.684 273.269 186.684 270.235 187.029 267.231H186.162C184.529 270.315 183.47 273.681 183.039 277.159C182.954 278.103 182.954 279.052 183.039 279.996H178.528C178.528 278.4 177.313 276.805 176.619 275.032C175.512 271.965 174.925 268.727 174.884 265.458C174.884 264.572 173.496 265.458 173.496 265.458C173.259 270.387 174.15 275.304 176.099 279.819V279.819C166.147 282.181 157.096 287.484 150.074 295.066L147.471 292.406C144.695 289.215 141.919 286.201 139.49 282.833C139.49 282.833 137.929 282.833 138.276 283.896C140.531 287.442 143.307 290.456 145.91 293.825L148.512 296.838C147.074 298.524 145.741 300.3 144.522 302.157C143.497 303.567 142.569 305.048 141.746 306.589C136.179 304.066 130.362 302.164 124.396 300.916C124.396 300.916 123.008 301.803 124.396 301.98C130.367 303.454 136.179 305.533 141.746 308.185C140.133 311.122 138.797 314.209 137.755 317.404H136.367L132.377 316.163C132.377 316.163 130.989 316.163 131.509 317.227C133.357 318.172 135.354 318.772 137.408 319C137.327 319.825 137.327 320.656 137.408 321.482C131.911 320.732 126.319 321.34 121.099 323.254C121.099 323.254 120.232 324.673 121.099 324.318C126.255 322.637 131.736 322.272 137.061 323.254C136.545 326.898 137.151 330.616 138.796 333.892C133.492 335.376 128.575 338.039 124.396 341.692C124.396 341.692 124.396 342.933 124.396 341.692C128.747 338.295 133.785 335.932 139.143 334.778C141.326 337.771 144.265 340.099 147.645 341.515C167.944 350.911 199.694 332.473 206.461 312.085C208.872 307.57 210.004 302.457 209.728 297.321C209.452 292.184 207.78 287.229 204.899 283.01C206.114 278.223 206.461 273.259 208.022 268.472C209.661 263.54 211.999 258.881 214.962 254.644V254.644ZM202.123 304.285C200.139 315.645 194.118 325.856 185.216 332.957C176.313 340.058 165.158 343.548 153.891 342.756C150.173 342.654 146.562 341.464 143.487 339.327C140.411 337.19 138.001 334.196 136.541 330.701V329.814C136.541 329.814 136.541 328.928 136.541 328.396C141.399 331.232 149.206 326.623 153.891 324.318C164.705 318.345 173.707 309.453 179.916 298.611C182.027 294.458 183.044 289.814 182.865 285.137C185.42 284.839 188.008 285.124 190.442 285.972C192.876 286.821 195.094 288.212 196.938 290.044C198.781 291.877 200.202 294.105 201.099 296.568C201.996 299.031 202.346 301.667 202.123 304.285V304.285Z" fill="#22292C"/>
<path d="M316.279 248.078C314.336 248.516 312.323 248.516 310.38 248.078V248.078C311.846 242.9 311.414 237.353 309.166 232.477C309.755 231.064 310.451 229.701 311.248 228.399C312.584 226.589 314.161 224.978 315.932 223.612C315.932 222.726 315.932 222.017 315.065 222.726C312.898 224.32 310.918 226.164 309.166 228.222L307.604 230.349C306.113 228.787 304.265 227.629 302.226 226.981V224.676C302.821 223.348 303.342 221.987 303.787 220.598L305.175 205.883H303.961C303.512 211.931 302.287 217.891 300.317 223.612C300.317 224.499 300.317 225.385 299.103 226.449C297.268 226.094 295.385 226.094 293.551 226.449C293.475 226.039 293.475 225.618 293.551 225.208C292.129 221.143 291.197 216.916 290.775 212.62C290.775 211.379 289.04 212.62 289.04 212.62C289.18 216.052 289.763 219.45 290.775 222.726C290.775 223.967 290.775 225.208 290.775 226.626C285.229 229.159 280.741 233.619 278.109 239.214L276.721 238.15C275.943 237.532 275.244 236.818 274.639 236.022C274.639 236.022 273.772 236.022 274.639 236.022C275.126 236.908 275.774 237.69 276.548 238.327C276.977 238.945 277.505 239.484 278.109 239.923C278.109 241.696 276.374 243.469 275.68 245.241C274.986 247.014 275.68 247.014 274.292 248.078C272.904 249.142 270.649 248.078 269.781 246.128C268.914 244.178 268.22 246.128 268.567 247.014C268.914 247.901 270.649 248.787 271.863 249.319H273.598C272.869 250.853 272.288 252.456 271.863 254.106H268.914C266.138 254.106 263.535 255.701 260.759 255.879C257.983 256.056 259.545 257.12 260.759 257.12C261.974 257.12 266.485 256.056 269.434 256.056H271.69C270.998 259.507 270.998 263.065 271.69 266.516C271.63 266.987 271.63 267.464 271.69 267.934C270.249 268.501 268.722 268.801 267.179 268.821C267.179 268.821 266.138 269.885 267.179 269.885C268.955 269.95 270.725 269.649 272.384 268.998C272.743 269.826 273.21 270.602 273.772 271.303C271.583 271.725 269.474 272.503 267.526 273.608C263.871 276.051 260.496 278.906 257.463 282.117C257.463 282.117 257.463 283.359 257.463 282.117C257.463 280.876 263.535 277.863 266.658 275.735C269.781 273.608 272.731 273.962 275.333 272.544L277.242 273.608C272.775 275.411 269.001 278.646 266.485 282.827C266.485 282.827 266.485 282.827 266.485 282.827C269.924 278.845 274.364 275.902 279.324 274.317C281.373 274.85 283.52 274.85 285.57 274.317C291.299 272.187 296.466 268.728 300.664 264.211L303.093 266.871C304.263 267.861 305.311 268.992 306.216 270.239C306.216 271.126 307.778 272.544 308.992 272.721C310.207 272.898 310.901 271.657 310.033 271.126C309.422 270.028 309.011 268.827 308.819 267.58C308.303 266.595 307.724 265.648 307.084 264.743C306.198 263.369 305.212 262.065 304.134 260.843C304.772 259.998 305.352 259.11 305.869 258.183C307.541 255.528 308.881 252.669 309.86 249.674C312.27 249.463 314.622 248.802 316.799 247.723C316.799 247.723 317.667 247.369 316.279 248.078ZM304.655 248.078C304.184 250.912 303.307 253.66 302.052 256.233L300.838 254.992C300.838 254.992 299.276 254.992 299.623 255.879L301.358 257.652C299.732 261.008 297.495 264.017 294.765 266.516C294.072 265.486 293.545 264.348 293.204 263.148C293.204 263.148 291.989 263.148 292.163 263.148C292.38 264.481 292.984 265.716 293.898 266.693C292.692 267.623 291.415 268.453 290.081 269.175C290.016 268.527 290.016 267.874 290.081 267.225L287.999 262.616C287.999 262.616 288.866 265.807 289.387 267.58V269.53C287.43 270.459 285.299 270.943 283.141 270.948C281.408 271.057 279.699 270.498 278.351 269.382C277.002 268.266 276.111 266.674 275.854 264.92L277.936 263.148C283.386 260.541 287.95 256.33 291.041 251.055C294.133 245.78 295.611 239.68 295.286 233.54C295.747 233.096 296.103 232.551 296.327 231.945C296.402 231.594 296.402 231.231 296.327 230.881C298.728 231.274 300.961 232.384 302.746 234.072C304.309 236.097 305.324 238.505 305.69 241.057C306.055 243.608 305.758 246.213 304.828 248.61L304.655 248.078Z" fill="#22292C"/>
<g style="mix-blend-mode:screen" opacity="0.6">
<path d="M244.285 153.411C244.354 152.822 244.354 152.227 244.285 151.638V151.638C244.285 150.397 245.326 147.383 244.285 146.142C243.9 145.494 243.321 144.989 242.634 144.702C241.947 144.415 241.188 144.36 240.468 144.546C238.912 144.816 237.488 145.607 236.42 146.795C235.352 147.982 234.701 149.499 234.569 151.106C234.242 153.392 234.735 155.722 235.957 157.665C237.692 160.679 241.336 158.552 242.897 156.602C243.248 156.171 243.54 155.694 243.765 155.183V155.183L244.285 153.411Z" fill="#668392"/>
</g>
<g style="mix-blend-mode:screen" opacity="0.6">
<path d="M251.043 167.239C250.832 167.115 250.592 167.049 250.349 167.049C250.105 167.049 249.866 167.115 249.655 167.239C248.48 167.542 247.404 168.153 246.532 169.012C245.734 169.472 245.074 170.147 244.623 170.962C244.402 171.446 244.285 171.974 244.281 172.508C244.277 173.043 244.386 173.572 244.6 174.06C244.814 174.548 245.128 174.983 245.522 175.335C245.915 175.688 246.378 175.95 246.879 176.103C249.134 176.103 250.869 174.508 251.563 172.735C251.926 171.846 252.068 170.879 251.977 169.92C251.887 168.962 251.566 168.041 251.043 167.239V167.239Z" fill="#668392"/>
</g>
<g style="mix-blend-mode:screen" opacity="0.6">
<path d="M267.697 147.022C267.697 147.022 267.697 146.135 266.483 147.022C266.192 147.103 265.928 147.26 265.715 147.478C265.502 147.696 265.348 147.966 265.268 148.263C264.749 148.763 264.335 149.366 264.054 150.036V150.036C264.054 151.454 264.054 152.163 265.962 151.632C266.741 151.309 267.407 150.752 267.871 150.036C267.871 150.036 268.391 147.731 267.697 147.022Z" fill="#668392"/>
</g>
<path d="M224.841 355.339C222.759 349.134 211.828 351.971 207.491 354.098C203.154 356.226 198.816 361.722 200.204 365.977C200.035 366.675 200.035 367.405 200.204 368.104C202.633 374.132 210.787 371.65 214.778 369.345C218.768 367.04 226.749 361.19 224.841 355.339Z" fill="#22292C"/>
<path d="M241.51 336.192C241.51 336.192 241.51 335.305 240.469 335.128C238.992 335.197 237.566 335.703 236.365 336.584C235.164 337.465 234.239 338.684 233.703 340.092C233.518 340.258 233.37 340.463 233.269 340.692C233.168 340.921 233.115 341.17 233.115 341.421C233.115 341.673 233.168 341.921 233.269 342.151C233.37 342.38 233.518 342.584 233.703 342.751C234.997 343.145 236.386 343.058 237.625 342.507C238.863 341.955 239.87 340.974 240.469 339.737C240.55 339.209 240.55 338.67 240.469 338.142V338.142C240.469 338.142 242.725 335.837 241.51 336.192Z" fill="#22292C"/>
</g>
<defs>
<radialGradient id="paint0_radial_1188_22200" cx="0" cy="0" r="1" gradientUnits="userSpaceOnUse" gradientTransform="translate(-16.3193 -223.158) scale(608.114 621.4)">
<stop stop-color="#E3F3FC"/>
<stop offset="0.22" stop-color="#AEB7BD"/>
<stop offset="0.61" stop-color="#8CA4AF"/>
<stop offset="1" stop-color="#393B3D"/>
</radialGradient>
<radialGradient id="paint1_radial_1188_22200" cx="0" cy="0" r="1" gradientUnits="userSpaceOnUse" gradientTransform="translate(7135.96 5000.35) scale(4344.47 4010.12)">
<stop stop-color="#E3F3FC"/>
<stop offset="0.22" stop-color="#AEB7BD"/>
<stop offset="0.61" stop-color="#8CA4AF"/>
<stop offset="1" stop-color="#393B3D"/>
</radialGradient>
</defs>
</svg>
