<svg width="46" height="46" viewBox="0 0 46 46" fill="none" xmlns="http://www.w3.org/2000/svg">
<circle cx="23" cy="23" r="23" fill="#00002C"/>
<path d="M20.3652 19.0569C21.145 18.5355 22.0619 18.257 23 18.2566C24.258 18.2571 25.4644 18.7569 26.3542 19.6463C27.2439 20.5357 27.7442 21.742 27.7451 23C27.7451 23.9381 27.467 24.8551 26.9459 25.6351C26.4247 26.4151 25.684 27.0231 24.8174 27.3821C23.9508 27.7412 22.9971 27.8352 22.077 27.6524C21.157 27.4695 20.3118 27.0179 19.6483 26.3547C18.9849 25.6915 18.533 24.8465 18.3498 23.9265C18.1665 23.0065 18.2602 22.0528 18.619 21.186C18.9777 20.3193 19.5854 19.5783 20.3652 19.0569Z" fill="white"/>
<path fill-rule="evenodd" clip-rule="evenodd" d="M33.0188 12.9777C33.484 13.4429 33.8486 13.9987 34.0901 14.6106L34.0936 14.6115C34.7308 16.2192 34.6955 19.7196 34.6727 21.9888C34.6689 22.3643 34.6654 22.7061 34.6654 23C34.6654 23.2939 34.6689 23.6357 34.6727 24.0113C34.6955 26.2817 34.7308 29.7861 34.0936 31.3885C33.8522 32.0004 33.4875 32.5563 33.0223 33.0214C32.5571 33.4866 32.0013 33.8513 31.3894 34.0928C29.7833 34.7303 26.2889 34.6949 24.0189 34.6719C23.6419 34.668 23.2987 34.6646 23.0036 34.6646C22.7139 34.6646 22.3779 34.6678 22.0091 34.6713C19.7384 34.6932 16.2234 34.7269 14.6169 34.0928C14.0049 33.8513 13.4491 33.4866 12.9839 33.0214C12.5187 32.5563 12.1541 32.0004 11.9126 31.3885C11.2755 29.775 11.309 26.2545 11.3306 23.9858C11.3341 23.6199 11.3372 23.2866 11.3372 22.9991C11.3372 22.7107 11.334 22.3762 11.3305 22.0088C11.3089 19.7391 11.2753 16.218 11.909 14.6106C12.1505 13.9987 12.5151 13.4429 12.9803 12.9777C13.4455 12.5125 14.0013 12.1478 14.6133 11.9064C16.2194 11.2688 19.7152 11.3042 21.9851 11.3273C22.3619 11.3311 22.705 11.3346 23 11.3346C23.2895 11.3346 23.6254 11.3313 23.9941 11.3278C26.2642 11.306 29.7793 11.2722 31.3858 11.9064C31.9978 12.1478 32.5536 12.5125 33.0188 12.9777ZM18.9488 29.0631C20.1479 29.8643 21.5578 30.292 23 30.292C23.9579 30.2932 24.9067 30.1054 25.7919 29.7393C26.6772 29.3733 27.4815 28.8362 28.1588 28.1588C28.8362 27.4815 29.3733 26.6772 29.7393 25.7919C30.1054 24.9067 30.2932 23.9579 30.292 23C30.292 21.5578 29.8643 20.1479 29.0631 18.9488C28.2618 17.7496 27.123 16.815 25.7905 16.2631C24.4581 15.7111 22.9919 15.5667 21.5774 15.8481C20.1629 16.1295 18.8636 16.824 17.8438 17.8438C16.824 18.8636 16.1295 20.1629 15.8481 21.5774C15.5667 22.9919 15.7111 24.4581 16.2631 25.7905C16.815 27.123 17.7496 28.2618 18.9488 29.0631ZM29.6467 16.8177C29.9267 17.0046 30.2559 17.1043 30.5926 17.1041L30.5961 17.1077C30.8197 17.1076 31.0411 17.0633 31.2475 16.9775C31.4539 16.8916 31.6414 16.7659 31.7991 16.6074C31.9568 16.4489 32.0817 16.2609 32.1666 16.054C32.2515 15.8472 32.2947 15.6257 32.2938 15.4021C32.2938 15.0654 32.1939 14.7363 32.0068 14.4564C31.8198 14.1764 31.5539 13.9583 31.2428 13.8295C30.9318 13.7007 30.5895 13.667 30.2593 13.7328C29.9291 13.7985 29.6258 13.9607 29.3878 14.1989C29.1498 14.437 28.9878 14.7403 28.9222 15.0706C28.8567 15.4008 28.8905 15.7431 29.0195 16.054C29.1484 16.365 29.3667 16.6308 29.6467 16.8177Z" fill="white"/>
<path fill-rule="evenodd" clip-rule="evenodd" d="M42.9196 14.0942V31.9058C40.7306 36.7946 36.7946 40.7306 31.9058 42.9196H14.0942C9.20538 40.7306 5.26942 36.7946 3.08036 31.9058V14.0942C5.26942 9.20538 9.20538 5.26942 14.0942 3.08036H31.9058C36.7946 5.26942 40.7306 9.20538 42.9196 14.0942ZM34.83 34.8273C36.4938 33.1679 37.014 31.1484 37.1287 28.8692C37.2612 26.518 37.2612 19.482 37.1287 17.1415C37.0202 14.8623 36.4902 12.8419 34.83 11.1789C33.1697 9.516 31.151 8.99489 28.8719 8.88017C26.5233 8.74767 19.482 8.74767 17.1335 8.88017C14.8632 8.98867 12.8454 9.51333 11.1754 11.1727C9.50533 12.8321 8.99133 14.8516 8.87662 17.1308C8.74412 19.4776 8.74412 26.5197 8.87662 28.8692C8.98511 31.1439 9.50889 33.1644 11.1754 34.8273C12.8419 36.4902 14.8543 37.0113 17.1335 37.126C19.482 37.2586 26.5233 37.2586 28.8719 37.126C31.1484 37.0176 33.1661 36.4867 34.83 34.8273Z" fill="white"/>
<path fill-rule="evenodd" clip-rule="evenodd" d="M23 46C35.7026 46 46 35.7026 46 23C46 10.2975 35.7026 0 23 0C10.2975 0 0 10.2975 0 23C0 35.7026 10.2975 46 23 46ZM23 40.6607C32.7537 40.6607 40.6607 32.7537 40.6607 23C40.6607 13.2463 32.7537 5.33929 23 5.33929C13.2463 5.33929 5.33929 13.2463 5.33929 23C5.33929 32.7537 13.2463 40.6607 23 40.6607Z" fill="white"/>
</svg>
