<svg width="1920" height="2470" viewBox="0 0 1920 2470" fill="none" xmlns="http://www.w3.org/2000/svg">
<path d="M1923 2426H3V0H1923V2426Z" fill="url(#paint0_linear_1046_226)"/>
<g filter="url(#filter0_f_1046_226)">
<path d="M19.6 1708.4H18.5V950.501H19.6V1708.4Z" fill="#1C63B7"/>
<path d="M21.1 1709.9H17V949.001H21.1V1709.9Z" fill="#1C63B7"/>
<path d="M208 1708.4H206.9V950.501H208V1708.4Z" fill="#1C63B7"/>
<path d="M209.5 1709.9H205.4V949.001H209.5V1709.9Z" fill="#1C63B7"/>
<path d="M396.4 1708.4H395.3V950.501H396.4V1708.4Z" fill="#1C63B7"/>
<path d="M397.9 1709.9H393.8V949.001H397.9V1709.9Z" fill="#1C63B7"/>
<path d="M584.8 1708.4H583.7V950.501H584.8V1708.4Z" fill="#1C63B7"/>
<path d="M586.3 1709.9H582.2V949.001H586.3V1709.9Z" fill="#1C63B7"/>
<path d="M773.2 1708.4H772.1V950.501H773.2V1708.4Z" fill="#1C63B7"/>
<path d="M774.7 1709.9H770.6V949.001H774.7V1709.9Z" fill="#1C63B7"/>
<path d="M961.6 1708.4H960.5V950.501H961.6V1708.4Z" fill="#1C63B7"/>
<path d="M963.1 1709.9H959V949.001H963.1V1709.9Z" fill="#1C63B7"/>
<path d="M1150 1708.4H1148.9V950.501H1150V1708.4Z" fill="#1C63B7"/>
<path d="M1151.5 1709.9H1147.4V949.001H1151.5V1709.9Z" fill="#1C63B7"/>
<path d="M1338.4 1708.4H1337.3V950.501H1338.4V1708.4Z" fill="#1C63B7"/>
<path d="M1339.9 1709.9H1335.8V949.001H1339.9V1709.9Z" fill="#1C63B7"/>
<path d="M1526.8 1708.4H1525.7V950.501H1526.8V1708.4Z" fill="#1C63B7"/>
<path d="M1528.3 1709.9H1524.2V949.001H1528.3V1709.9Z" fill="#1C63B7"/>
<path d="M1715.3 1708.4H1714.2V950.501H1715.3V1708.4Z" fill="#1C63B7"/>
<path d="M1716.8 1709.9H1712.7V949.001H1716.8V1709.9Z" fill="#1C63B7"/>
<path d="M1903.7 1708.4H1902.6V950.501H1903.7V1708.4Z" fill="#1C63B7"/>
<path d="M1905.2 1709.9H1901.1V949.001H1905.2V1709.9Z" fill="#1C63B7"/>
<path d="M3034.1 1708.4H-1111.9V1707.4H3034.1V1708.4Z" fill="#1C63B7"/>
<path d="M3035.6 1709.9H-1113.4V1705.9H3035.6V1709.9Z" fill="#1C63B7"/>
<path d="M3034.1 1519.1H-1111.9V1518.1H3034.1V1519.1Z" fill="#1C63B7"/>
<path d="M3035.6 1520.6H-1113.4V1516.6H3035.6V1520.6Z" fill="#1C63B7"/>
<path d="M3034.1 1329.7H-1111.9V1328.7H3034.1V1329.7Z" fill="#1C63B7"/>
<path d="M3035.6 1331.2H-1113.4V1327.2H3035.6V1331.2Z" fill="#1C63B7"/>
<path d="M3034.1 1140.3H-1111.9V1139.3H3034.1V1140.3Z" fill="#1C63B7"/>
<path d="M3035.6 1141.8H-1113.4V1137.8H3035.6V1141.8Z" fill="#1C63B7"/>
<path d="M3034.1 951.001H-1111.9V950.001H3034.1V951.001Z" fill="#1C63B7"/>
<path d="M3035.6 952.501H-1113.4V948.501H3035.6V952.501Z" fill="#1C63B7"/>
</g>
<g filter="url(#filter1_f_1046_226)">
<path d="M19.6 2465.9H18.5V1708H19.6V2465.9Z" fill="#1C63B7"/>
<path d="M21.1 2467.4H17V1706.5H21.1V2467.4Z" fill="#1C63B7"/>
<path d="M208 2465.9H206.9V1708H208V2465.9Z" fill="#1C63B7"/>
<path d="M209.5 2467.4H205.4V1706.5H209.5V2467.4Z" fill="#1C63B7"/>
<path d="M396.4 2465.9H395.3V1708H396.4V2465.9Z" fill="#1C63B7"/>
<path d="M397.9 2467.4H393.8V1706.5H397.9V2467.4Z" fill="#1C63B7"/>
<path d="M584.8 2465.9H583.7V1708H584.8V2465.9Z" fill="#1C63B7"/>
<path d="M586.3 2467.4H582.2V1706.5H586.3V2467.4Z" fill="#1C63B7"/>
<path d="M773.2 2465.9H772.1V1708H773.2V2465.9Z" fill="#1C63B7"/>
<path d="M774.7 2467.4H770.6V1706.5H774.7V2467.4Z" fill="#1C63B7"/>
<path d="M961.6 2465.9H960.5V1708H961.6V2465.9Z" fill="#1C63B7"/>
<path d="M963.1 2467.4H959V1706.5H963.1V2467.4Z" fill="#1C63B7"/>
<path d="M1150 2465.9H1148.9V1708H1150V2465.9Z" fill="#1C63B7"/>
<path d="M1151.5 2467.4H1147.4V1706.5H1151.5V2467.4Z" fill="#1C63B7"/>
<path d="M1338.4 2465.9H1337.3V1708H1338.4V2465.9Z" fill="#1C63B7"/>
<path d="M1339.9 2467.4H1335.8V1706.5H1339.9V2467.4Z" fill="#1C63B7"/>
<path d="M1526.8 2465.9H1525.7V1708H1526.8V2465.9Z" fill="#1C63B7"/>
<path d="M1528.3 2467.4H1524.2V1706.5H1528.3V2467.4Z" fill="#1C63B7"/>
<path d="M1715.3 2465.9H1714.2V1708H1715.3V2465.9Z" fill="#1C63B7"/>
<path d="M1716.8 2467.4H1712.7V1706.5H1716.8V2467.4Z" fill="#1C63B7"/>
<path d="M1903.7 2465.9H1902.6V1708H1903.7V2465.9Z" fill="#1C63B7"/>
<path d="M1905.2 2467.4H1901.1V1706.5H1905.2V2467.4Z" fill="#1C63B7"/>
<path d="M3034.1 2465.9H-1111.9V2464.9H3034.1V2465.9Z" fill="#1C63B7"/>
<path d="M3035.6 2467.4H-1113.4V2463.4H3035.6V2467.4Z" fill="#1C63B7"/>
<path d="M3034.1 2276.6H-1111.9V2275.6H3034.1V2276.6Z" fill="#1C63B7"/>
<path d="M3035.6 2278.1H-1113.4V2274.1H3035.6V2278.1Z" fill="#1C63B7"/>
<path d="M3034.1 2087.2H-1111.9V2086.2H3034.1V2087.2Z" fill="#1C63B7"/>
<path d="M3035.6 2088.7H-1113.4V2084.7H3035.6V2088.7Z" fill="#1C63B7"/>
<path d="M3034.1 1897.8H-1111.9V1896.8H3034.1V1897.8Z" fill="#1C63B7"/>
<path d="M3035.6 1899.3H-1113.4V1895.3H3035.6V1899.3Z" fill="#1C63B7"/>
<path d="M3034.1 1708.5H-1111.9V1707.5H3034.1V1708.5Z" fill="#1C63B7"/>
<path d="M3035.6 1710H-1113.4V1706H3035.6V1710Z" fill="#1C63B7"/>
</g>
<g filter="url(#filter2_f_1046_226)">
<path d="M19.6 950.9H18.5V193H19.6V950.9Z" fill="#1C63B7"/>
<path d="M21.1 952.4H17V191.5H21.1V952.4Z" fill="#1C63B7"/>
<path d="M208 950.9H206.9V193H208V950.9Z" fill="#1C63B7"/>
<path d="M209.5 952.4H205.4V191.5H209.5V952.4Z" fill="#1C63B7"/>
<path d="M396.4 950.9H395.3V193H396.4V950.9Z" fill="#1C63B7"/>
<path d="M397.9 952.4H393.8V191.5H397.9V952.4Z" fill="#1C63B7"/>
<path d="M584.8 950.9H583.7V193H584.8V950.9Z" fill="#1C63B7"/>
<path d="M586.3 952.4H582.2V191.5H586.3V952.4Z" fill="#1C63B7"/>
<path d="M773.2 950.9H772.1V193H773.2V950.9Z" fill="#1C63B7"/>
<path d="M774.7 952.4H770.6V191.5H774.7V952.4Z" fill="#1C63B7"/>
<path d="M961.6 950.9H960.5V193H961.6V950.9Z" fill="#1C63B7"/>
<path d="M963.1 952.4H959V191.5H963.1V952.4Z" fill="#1C63B7"/>
<path d="M1150 950.9H1148.9V193H1150V950.9Z" fill="#1C63B7"/>
<path d="M1151.5 952.4H1147.4V191.5H1151.5V952.4Z" fill="#1C63B7"/>
<path d="M1338.4 950.9H1337.3V193H1338.4V950.9Z" fill="#1C63B7"/>
<path d="M1339.9 952.4H1335.8V191.5H1339.9V952.4Z" fill="#1C63B7"/>
<path d="M1526.8 950.9H1525.7V193H1526.8V950.9Z" fill="#1C63B7"/>
<path d="M1528.3 952.4H1524.2V191.5H1528.3V952.4Z" fill="#1C63B7"/>
<path d="M1715.3 950.9H1714.2V193H1715.3V950.9Z" fill="#1C63B7"/>
<path d="M1716.8 952.4H1712.7V191.5H1716.8V952.4Z" fill="#1C63B7"/>
<path d="M1903.7 950.9H1902.6V193H1903.7V950.9Z" fill="#1C63B7"/>
<path d="M1905.2 952.4H1901.1V191.5H1905.2V952.4Z" fill="#1C63B7"/>
<path d="M3034.1 950.9H-1111.9V949.9H3034.1V950.9Z" fill="#1C63B7"/>
<path d="M3035.6 952.4H-1113.4V948.4H3035.6V952.4Z" fill="#1C63B7"/>
<path d="M3034.1 761.601H-1111.9V760.601H3034.1V761.601Z" fill="#1C63B7"/>
<path d="M3035.6 763.101H-1113.4V759.101H3035.6V763.101Z" fill="#1C63B7"/>
<path d="M3034.1 572.2H-1111.9V571.2H3034.1V572.2Z" fill="#1C63B7"/>
<path d="M3035.6 573.7H-1113.4V569.7H3035.6V573.7Z" fill="#1C63B7"/>
<path d="M3034.1 382.8H-1111.9V381.8H3034.1V382.8Z" fill="#1C63B7"/>
<path d="M3035.6 384.3H-1113.4V380.3H3035.6V384.3Z" fill="#1C63B7"/>
<path d="M3034.1 193.5H-1111.9V192.5H3034.1V193.5Z" fill="#1C63B7"/>
<path d="M3035.6 195H-1113.4V191H3035.6V195Z" fill="#1C63B7"/>
</g>
<defs>
<filter id="filter0_f_1046_226" x="-1115.4" y="946.501" width="4153" height="765.4" filterUnits="userSpaceOnUse" color-interpolation-filters="sRGB">
<feFlood flood-opacity="0" result="BackgroundImageFix"/>
<feBlend mode="normal" in="SourceGraphic" in2="BackgroundImageFix" result="shape"/>
<feGaussianBlur stdDeviation="1" result="effect1_foregroundBlur_1046_226"/>
</filter>
<filter id="filter1_f_1046_226" x="-1115.4" y="1704" width="4153" height="765.4" filterUnits="userSpaceOnUse" color-interpolation-filters="sRGB">
<feFlood flood-opacity="0" result="BackgroundImageFix"/>
<feBlend mode="normal" in="SourceGraphic" in2="BackgroundImageFix" result="shape"/>
<feGaussianBlur stdDeviation="1" result="effect1_foregroundBlur_1046_226"/>
</filter>
<filter id="filter2_f_1046_226" x="-1115.4" y="189" width="4153" height="765.4" filterUnits="userSpaceOnUse" color-interpolation-filters="sRGB">
<feFlood flood-opacity="0" result="BackgroundImageFix"/>
<feBlend mode="normal" in="SourceGraphic" in2="BackgroundImageFix" result="shape"/>
<feGaussianBlur stdDeviation="1" result="effect1_foregroundBlur_1046_226"/>
</filter>
<linearGradient id="paint0_linear_1046_226" x1="963" y1="2426" x2="963" y2="0" gradientUnits="userSpaceOnUse">
<stop stop-color="#000022"/>
</linearGradient>
</defs>
</svg>
