<svg width="303" height="260" viewBox="0 0 303 260" fill="none" xmlns="http://www.w3.org/2000/svg">
<path d="M265.659 0.617976C265.659 0.787709 265.574 9.18953 265.404 19.3735L265.234 37.7896H284.16H303V19.1189V0.448242H284.329C274.06 0.448242 265.659 0.533109 265.659 0.617976Z" fill="white"/>
<path d="M265.648 44.7482C265.648 44.918 265.564 53.3198 265.394 63.5038L265.224 81.9199H284.149H302.99L302.82 63.4189L302.565 45.0028L284.149 44.7482C273.965 44.6634 265.648 44.6634 265.648 44.7482Z" fill="white"/>
<path d="M56.3759 89.8123C56.2062 90.4063 56.1213 98.893 56.2062 108.653L56.4608 126.475L74.9618 126.729L93.3779 126.899V107.804V88.709H75.1315C61.0436 88.709 56.7154 88.9636 56.3759 89.8123Z" fill="white"/>
<path d="M105.256 107.38V126.05H151.933H198.61V107.38V88.709H151.933H105.256V107.38Z" fill="white"/>
<path d="M209.645 107.38V126.05H256.321H302.998V107.38V88.709H256.321H209.645V107.38Z" fill="white"/>
<path d="M0.868164 151.512V170.183H47.5449H94.2216V151.512V132.842H47.5449H0.868164V151.512Z" fill="white"/>
<path d="M105.256 151.512V170.183H151.933H198.61V151.512V132.842H151.933H105.256V151.512Z" fill="white"/>
<path d="M209.645 151.512V170.183H256.321H302.998V151.512V132.842H256.321H209.645V151.512Z" fill="white"/>
<path d="M57.4728 177.566C57.1334 177.821 56.8788 186.222 56.8788 196.237V214.313H103.556H150.232V195.643V176.972H104.15C78.7744 176.972 57.7274 177.227 57.4728 177.566Z" fill="white"/>
<path d="M161.861 177.566C161.522 177.821 161.267 186.222 161.267 196.237V214.313H207.944H254.62V195.643V176.972H208.538C183.163 176.972 162.116 177.227 161.861 177.566Z" fill="white"/>
<path d="M7.65942 196.491V215.162H26.3301H45.0008V196.491V177.82H26.3301H7.65942V196.491Z" fill="white"/>
<path d="M265.394 196.236L265.564 214.737H284.065H302.565L302.82 196.236L302.99 177.82H284.149H265.224L265.394 196.236Z" fill="white"/>
<path d="M161.267 240.198V258.444H207.944H254.62V240.198V221.951H207.944H161.267V240.198Z" fill="white"/>
<path d="M264.8 240.622V259.293H283.471H302.141V240.622V221.951H283.471H264.8V240.622Z" fill="white"/>
</svg>
