<svg width="1920" height="275" viewBox="0 0 1920 275" fill="none" xmlns="http://www.w3.org/2000/svg">
<path d="M2518 2041H-3V4.99988H2518V2041Z" fill="url(#paint0_linear_476_41704)"/>
<path d="M16 951.4H14.9V193.5H16V951.4Z" fill="#2084FA"/>
<path d="M17.5 952.9H13.4V192H17.5V952.9Z" fill="#2084FA"/>
<path d="M204.4 951.4H203.3V193.5H204.4V951.4Z" fill="#2084FA"/>
<path d="M205.9 952.9H201.8V192H205.9V952.9Z" fill="#2084FA"/>
<path d="M392.8 951.4H391.7V193.5H392.8V951.4Z" fill="#2084FA"/>
<path d="M394.3 952.9H390.2V192H394.3V952.9Z" fill="#2084FA"/>
<path d="M581.2 951.4H580.1V193.5H581.2V951.4Z" fill="#2084FA"/>
<path d="M582.7 952.9H578.6V192H582.7V952.9Z" fill="#2084FA"/>
<path d="M769.6 951.4H768.5V193.5H769.6V951.4Z" fill="#2084FA"/>
<path d="M771.1 952.9H767V192H771.1V952.9Z" fill="#2084FA"/>
<path d="M958 951.4H956.9V193.5H958V951.4Z" fill="#2084FA"/>
<path d="M959.5 952.9H955.4V192H959.5V952.9Z" fill="#2084FA"/>
<path d="M1146.4 951.4H1145.3V193.5H1146.4V951.4Z" fill="#2084FA"/>
<path d="M1147.9 952.9H1143.8V192H1147.9V952.9Z" fill="#2084FA"/>
<path d="M1334.8 951.4H1333.7V193.5H1334.8V951.4Z" fill="#2084FA"/>
<path d="M1336.3 952.9H1332.2V192H1336.3V952.9Z" fill="#2084FA"/>
<path d="M1523.2 951.4H1522.1V193.5H1523.2V951.4Z" fill="#2084FA"/>
<path d="M1524.7 952.9H1520.6V192H1524.7V952.9Z" fill="#2084FA"/>
<path d="M1711.7 951.4H1710.6V193.5H1711.7V951.4Z" fill="#2084FA"/>
<path d="M1713.2 952.9H1709.1V192H1713.2V952.9Z" fill="#2084FA"/>
<path d="M1900.1 951.4H1899V193.5H1900.1V951.4Z" fill="#2084FA"/>
<path d="M1901.6 952.9H1897.5V192H1901.6V952.9Z" fill="#2084FA"/>
<path d="M3030.5 194H-1115.5V193H3030.5V194Z" fill="#2084FA"/>
<path d="M3032 195.5H-1117V191.5H3032V195.5Z" fill="#2084FA"/>
<path d="M116.2 62.5005H115.5L-364.2 190.201H-363.1L116.2 62.5005Z" fill="#2084FA"/>
<path d="M117.7 62.3003H115.1L-367.2 190.6H-363.1L117.7 62.3003Z" fill="#2084FA"/>
<path d="M236.3 62.5005H235.6L-175.6 190.201H-174.5L236.3 62.5005Z" fill="#2084FA"/>
<path d="M237.8 62.3003H235.2L-178.4 190.6H-174.3L237.8 62.3003Z" fill="#2084FA"/>
<path d="M356.4 62.5005H355.7L12.9999 190.201H14.0999L356.4 62.5005Z" fill="#2084FA"/>
<path d="M357.8 62.3003H355.2L10.4999 190.6H14.5999L357.8 62.3003Z" fill="#2084FA"/>
<path d="M476.5 62.5005H475.8L201.7 190.201H202.7L476.5 62.5005Z" fill="#2084FA"/>
<path d="M477.8 62.3003H475.2L199.3 190.6H203.4L477.8 62.3003Z" fill="#2084FA"/>
<path d="M596.6 62.5005H595.9L390.3 190.201H391.4L596.6 62.5005Z" fill="#2084FA"/>
<path d="M597.8 62.3003H595.2L388.1 190.6H392.2L597.8 62.3003Z" fill="#2084FA"/>
<path d="M716.7 62.5005H716L578.9 190.201H580L716.7 62.5005Z" fill="#2084FA"/>
<path d="M717.8 62.3003H715.2L577 190.6H581.1L717.8 62.3003Z" fill="#2084FA"/>
<path d="M836.8 62.5005H836.1L767.5 190.201H768.6L836.8 62.5005Z" fill="#2084FA"/>
<path d="M837.8 62.3003H835.2L765.8 190.6H769.9L837.8 62.3003Z" fill="#2084FA"/>
<path d="M956.9 62.5005H956.2V190.201H957.3L956.9 62.5005Z" fill="#2084FA"/>
<path d="M957.8 62.3003H955.2L954.7 190.6H958.8L957.8 62.3003Z" fill="#2084FA"/>
<path d="M1077 62.5005H1076.3L1144.8 190.201H1145.9L1077 62.5005Z" fill="#2084FA"/>
<path d="M1077.8 62.3003H1075.2L1143.5 190.6H1147.6L1077.8 62.3003Z" fill="#2084FA"/>
<path d="M1197.1 62.5005H1196.4L1333.4 190.201H1334.5L1197.1 62.5005Z" fill="#2084FA"/>
<path d="M1197.8 62.3003H1195.2L1332.4 190.6H1336.4L1197.8 62.3003Z" fill="#2084FA"/>
<path d="M1317.2 62.5005H1316.5L1522.1 190.201H1523.1L1317.2 62.5005Z" fill="#2084FA"/>
<path d="M1317.8 62.3003H1315.2L1521.2 190.6H1525.3L1317.8 62.3003Z" fill="#2084FA"/>
<path d="M1437.2 62.5005H1436.6L1710.7 190.201H1711.8L1437.2 62.5005Z" fill="#2084FA"/>
<path d="M1437.9 62.3003H1435.3L1710 190.6H1714.1L1437.9 62.3003Z" fill="#2084FA"/>
<path d="M1557.3 62.5005H1556.7L1899.3 190.201H1900.4L1557.3 62.5005Z" fill="#2084FA"/>
<path d="M1557.9 62.3003H1555.3L1898.9 190.6H1903L1557.9 62.3003Z" fill="#2084FA"/>
<path d="M1677.4 62.5005H1676.8L2087.9 190.201H2089L1677.4 62.5005Z" fill="#2084FA"/>
<path d="M1677.9 62.3003H1675.3L2087.7 190.6H2091.8L1677.9 62.3003Z" fill="#2084FA"/>
<path d="M1797.5 62.5005H1796.8L2276.6 190.201H2277.6L1797.5 62.5005Z" fill="#2084FA"/>
<path d="M1797.9 62.3003H1795.3L2276.6 190.6H2280.6L1797.9 62.3003Z" fill="#2084FA"/>
<path d="M1917.6 62.5005H1916.9L2465.2 190.201H2466.3L1917.6 62.5005Z" fill="#2084FA"/>
<path d="M1917.9 62.3003H1915.3L2465.4 190.6H2469.5L1917.9 62.3003Z" fill="#2084FA"/>
<path d="M3030.5 189.9H-1117.1L-1118.7 190.2H3032.2L3030.5 189.9Z" fill="#2084FA"/>
<path d="M3029.96 188.022L3029.83 188H3029.7H-1116.3H-1116.43L-1116.56 188.022L-1122.86 189.122L-1122.6 192.1H3036L3036.26 189.122L3029.96 188.022Z" fill="#2084FA" stroke="#2084FA" stroke-width="3" stroke-miterlimit="10"/>
<path d="M2771.9 146.1H-858.6L-859.8 146.3H2773.1L2771.9 146.1Z" fill="#2084FA"/>
<path d="M2771.4 145.8H-858.1L-862.9 146.6H2776.2L2771.4 145.8Z" fill="#2084FA"/>
<path d="M2570.6 112H-657.4L-658.4 112.201H2571.6L2570.6 112Z" fill="#2084FA"/>
<path d="M2570.3 111.8H-657.1L-661 112.4H2574.2L2570.3 111.8Z" fill="#2084FA"/>
<path d="M2409.5 84.7002H-496.4L-497.2 84.9002H2410.3L2409.5 84.7002Z" fill="#2084FA"/>
<path d="M2409.4 84.5H-496.3L-499.4 85.1H2412.5L2409.4 84.5Z" fill="#2084FA"/>
<path d="M2277.6 62.4004H-364.5L-365.2 62.5004H2278.2L2277.6 62.4004Z" fill="#2084FA"/>
<path d="M2277.6 62.2002H-364.6L-367.1 62.7002H2280.2L2277.6 62.2002Z" fill="#2084FA"/>
<path d="M1557.3 62.5005H1556.7L1899.3 190.201H1900.4L1557.3 62.5005Z" fill="#2084FA"/>
<path d="M1557.9 62.3003H1555.3L1898.9 190.6H1903L1557.9 62.3003Z" fill="#2084FA"/>
<path d="M1677.4 62.5005H1676.8L2087.9 190.201H2089L1677.4 62.5005Z" fill="#2084FA"/>
<path d="M1677.9 62.3003H1675.3L2087.7 190.6H2091.8L1677.9 62.3003Z" fill="#2084FA"/>
<path d="M1797.5 62.5005H1796.8L2276.6 190.201H2277.6L1797.5 62.5005Z" fill="#2084FA"/>
<path d="M1797.9 62.3003H1795.3L2276.6 190.6H2280.6L1797.9 62.3003Z" fill="#2084FA"/>
<path d="M1917.6 62.5005H1916.9L2465.2 190.201H2466.3L1917.6 62.5005Z" fill="#2084FA"/>
<path d="M1917.9 62.3003H1915.3L2465.4 190.6H2469.5L1917.9 62.3003Z" fill="#2084FA"/>
<path d="M1754.9 190.2L1754.5 189.9H4158.8L4155.2 189.5H1753L1754.6 190.6H4165L4161.3 190.2H1754.9Z" fill="#2084FA"/>
<path d="M1754.9 190.2H4161.3L4158.8 189.9H1754.5L1754.9 190.2Z" fill="#2084FA"/>
<path d="M1686.6 146.3L1686.3 146.1H3759.5L3756.7 145.8H1685L1686.3 146.6H3764.2L3761.4 146.3H1686.6Z" fill="#2084FA"/>
<path d="M1686.3 146.1L1686.6 146.3H3761.4L3759.5 146.1H1686.3Z" fill="#2084FA"/>
<path d="M1633.4 112.2L1633.2 112H3448.7L3446.5 111.8H1632.1L1633.1 112.4H3452.4L3450.2 112.2H1633.4Z" fill="#2084FA"/>
<path d="M1633.2 112L1633.4 112.2H3450.2L3448.7 112H1633.2Z" fill="#2084FA"/>
<path d="M1590.9 84.9L1590.7 84.7H3199.9L3198.2 84.5H1589.8L1590.6 85.1H3203L3201.2 84.9H1590.9Z" fill="#2084FA"/>
<path d="M1590.7 84.7002L1590.9 84.9002H3201.2L3199.9 84.7002H1590.7Z" fill="#2084FA"/>
<path d="M1556.1 62.5002L1555.9 62.4002H2996.3L2995.4 62.3002H2998L2998.9 62.4002H3089.4L3090.3 62.5002H3000L3001.4 62.7002H3092.3L3088.6 62.2002H1555.1L1555.8 62.7002H2998.8L2997.4 62.5002H1556.1Z" fill="#2084FA"/>
<path d="M1555.9 62.4004L1556.1 62.5004H2997.4L2996.3 62.4004H1555.9Z" fill="#2084FA"/>
<path d="M76.8999 2.6001H76.3999L-242.8 62.1001H-242.1L76.8999 2.6001Z" fill="#2084FA"/>
<path d="M77.9999 2.5H76.0999L-244.6 62.2H-242L77.9999 2.5Z" fill="#2084FA"/>
<path d="M164.8 2.6001H164.3L-122.9 62.1001H-122.2L164.8 2.6001Z" fill="#2084FA"/>
<path d="M166 2.5H164.1L-124.6 62.2H-122L166 2.5Z" fill="#2084FA"/>
<path d="M252.8 2.6001H252.3L-3.00012 62.1001H-2.30017L252.8 2.6001Z" fill="#2084FA"/>
<path d="M253.9 2.5H252L-4.6001 62.2H-2.00012L253.9 2.5Z" fill="#2084FA"/>
<path d="M340.8 2.6001H340.3L116.9 62.1001H117.6L340.8 2.6001Z" fill="#2084FA"/>
<path d="M341.8 2.5H339.9L115.4 62.2H118L341.8 2.5Z" fill="#2084FA"/>
<path d="M428.8 2.6001H428.3L236.8 62.1001H237.5L428.8 2.6001Z" fill="#2084FA"/>
<path d="M429.8 2.5H427.9L235.3 62.2H237.9L429.8 2.5Z" fill="#2084FA"/>
<path d="M516.8 2.6001H516.3L356.7 62.1001H357.4L516.8 2.6001Z" fill="#2084FA"/>
<path d="M517.7 2.5H515.8L355.3 62.2H357.9L517.7 2.5Z" fill="#2084FA"/>
<path d="M604.8 2.6001H604.2L476.6 62.1001H477.3L604.8 2.6001Z" fill="#2084FA"/>
<path d="M605.6 2.5H603.7L475.3 62.2H477.9L605.6 2.5Z" fill="#2084FA"/>
<path d="M692.7 2.6001H692.2L596.5 62.1001H597.2L692.7 2.6001Z" fill="#2084FA"/>
<path d="M693.6 2.5H691.7L595.3 62.2H597.9L693.6 2.5Z" fill="#2084FA"/>
<path d="M780.7 2.6001H780.2L716.4 62.1001H717.1L780.7 2.6001Z" fill="#2084FA"/>
<path d="M781.5 2.5H779.6L715.3 62.2H717.9L781.5 2.5Z" fill="#2084FA"/>
<path d="M868.7 2.6001H868.2L836.3 62.1001H837L868.7 2.6001Z" fill="#2084FA"/>
<path d="M869.4 2.5H867.5L835.2 62.2H837.8L869.4 2.5Z" fill="#2084FA"/>
<path d="M956.7 2.6001H956.2V62.1001H956.9L956.7 2.6001Z" fill="#2084FA"/>
<path d="M957.4 2.5H955.5L955.2 62.2H957.8L957.4 2.5Z" fill="#2084FA"/>
<path d="M1044.7 2.6001H1044.2L1076.1 62.1001H1076.8L1044.7 2.6001Z" fill="#2084FA"/>
<path d="M1045.3 2.5H1043.4L1075.2 62.2H1077.8L1045.3 2.5Z" fill="#2084FA"/>
<path d="M1132.6 2.6001H1132.1L1196 62.1001H1196.6L1132.6 2.6001Z" fill="#2084FA"/>
<path d="M1133.2 2.5H1131.3L1195.2 62.2H1197.8L1133.2 2.5Z" fill="#2084FA"/>
<path d="M1220.6 2.6001H1220.1L1315.9 62.1001H1316.5L1220.6 2.6001Z" fill="#2084FA"/>
<path d="M1221.2 2.5H1219.3L1315.2 62.2H1317.8L1221.2 2.5Z" fill="#2084FA"/>
<path d="M1308.6 2.6001H1308.1L1435.7 62.1001H1436.4L1308.6 2.6001Z" fill="#2084FA"/>
<path d="M1309.1 2.5H1307.2L1435.1 62.2H1437.7L1309.1 2.5Z" fill="#2084FA"/>
<path d="M1396.6 2.6001H1396.1L1555.6 62.1001H1556.3L1396.6 2.6001Z" fill="#2084FA"/>
<path d="M1397.1 2.5H1395.2L1555.1 62.2H1557.7L1397.1 2.5Z" fill="#2084FA"/>
<path d="M1484.6 2.6001H1484.1L1675.5 62.1001H1676.2L1484.6 2.6001Z" fill="#2084FA"/>
<path d="M1485 2.5H1483.1L1675.1 62.2H1677.7L1485 2.5Z" fill="#2084FA"/>
<path d="M1572.6 2.6001H1572L1795.4 62.1001H1796.1L1572.6 2.6001Z" fill="#2084FA"/>
<path d="M1572.9 2.5H1571L1795.1 62.2H1797.7L1572.9 2.5Z" fill="#2084FA"/>
<path d="M1660.5 2.6001H1660L1915.3 62.1001H1916L1660.5 2.6001Z" fill="#2084FA"/>
<path d="M1660.9 2.5H1659L1915.1 62.2H1917.6L1660.9 2.5Z" fill="#2084FA"/>
<path d="M1748.5 2.6001H1748L2035.2 62.1001H2035.9L1748.5 2.6001Z" fill="#2084FA"/>
<path d="M1748.8 2.5H1746.9L2035 62.2H2037.6L1748.8 2.5Z" fill="#2084FA"/>
<path d="M1836.5 2.6001H1836L2155.1 62.1001H2155.8L1836.5 2.6001Z" fill="#2084FA"/>
<path d="M1836.7 2.5H1834.8L2155 62.2H2157.6L1836.7 2.5Z" fill="#2084FA"/>
<path d="M2275 62H-362L-362.6 62.1H2275.7L2275 62Z" fill="#2084FA"/>
<path d="M2275 61.7998H-362L-364.6 62.1998H2277.6L2275 61.7998Z" fill="#2084FA"/>
<path d="M2165.5 43.3999H-252.5L-253.1 43.4999H2166.1L2165.5 43.3999Z" fill="#2084FA"/>
<path d="M2165.6 43.2998H-252.6L-254.7 43.6998H2167.7L2165.6 43.2998Z" fill="#2084FA"/>
<path d="M2072.8 27.7002H-159.8L-160.3 27.8002H2073.2L2072.8 27.7002Z" fill="#2084FA"/>
<path d="M2072.9 27.6001H-160L-161.8 27.9001H2074.7L2072.9 27.6001Z" fill="#2084FA"/>
<path d="M1993.4 14.2002H-80.5001L-82.1001 14.4002H1995L1993.4 14.2002Z" fill="#2084FA"/>
<path d="M1924.64 1.51005L1924.57 1.5H1924.5H-11.6001H-11.6712L-11.7415 1.51005L-13.1415 1.71005L-13.0001 3.7H1925.9L1926.04 1.71005L1924.64 1.51005Z" fill="#2084FA" stroke="#2084FA" stroke-width="2" stroke-miterlimit="10"/>
<path d="M1396.6 2.6001H1396.1L1555.6 62.1001H1556.3L1396.6 2.6001Z" fill="#2084FA"/>
<path d="M1397.1 2.5H1395.2L1555.1 62.2H1557.7L1397.1 2.5Z" fill="#2084FA"/>
<path d="M1484.6 2.6001H1484.1L1675.5 62.1001H1676.2L1484.6 2.6001Z" fill="#2084FA"/>
<path d="M1485 2.5H1483.1L1675.1 62.2H1677.7L1485 2.5Z" fill="#2084FA"/>
<path d="M1572.6 2.6001H1572L1795.4 62.1001H1796.1L1572.6 2.6001Z" fill="#2084FA"/>
<path d="M1572.9 2.5H1571L1795.1 62.2H1797.7L1572.9 2.5Z" fill="#2084FA"/>
<path d="M1660.5 2.6001H1660L1915.3 62.1001H1916L1660.5 2.6001Z" fill="#2084FA"/>
<path d="M1660.9 2.5H1659L1915.1 62.2H1917.6L1660.9 2.5Z" fill="#2084FA"/>
<path d="M1748.5 2.6001H1748L2035.2 62.1001H2035.9L1748.5 2.6001Z" fill="#2084FA"/>
<path d="M1748.8 2.5H1746.9L2035 62.2H2037.6L1748.8 2.5Z" fill="#2084FA"/>
<path d="M1836.5 2.6001H1836L2155.1 62.1001H2155.8L1836.5 2.6001Z" fill="#2084FA"/>
<path d="M1836.7 2.5H1834.8L2155 62.2H2157.6L1836.7 2.5Z" fill="#2084FA"/>
<path d="M3812.7 62H1533.6L1533.8 62.1H3814.1L3812.7 62Z" fill="#2084FA"/>
<path d="M3811.5 61.7998H1532.4L1533.4 62.1998H3816.9L3811.5 61.7998Z" fill="#2084FA"/>
<path d="M3580.4 43.3999H1490.6L1490.8 43.4999H3581.6L3580.4 43.3999Z" fill="#2084FA"/>
<path d="M3579.5 43.2998H1489.5L1490.4 43.6998H3584.1L3579.5 43.2998Z" fill="#2084FA"/>
<path d="M3383.8 27.7002H1454.2L1454.4 27.8002H3384.8L3383.8 27.7002Z" fill="#2084FA"/>
<path d="M3383 27.6001H1453.2L1453.9 27.9001H3386.9L3383 27.6001Z" fill="#2084FA"/>
<path d="M3214.5 14.2002H1422.1L1422.7 14.4002H3217.9L3214.5 14.2002Z" fill="#2084FA"/>
<path d="M3068.47 1.50237L3068.43 1.5H3068.4H1395.1H1389.91L1394.73 3.42848L1395.23 3.62848L1395.41 3.7H1395.6H3071.3L3071.37 1.70237L3068.47 1.50237Z" fill="#2084FA" stroke="#2084FA" stroke-width="2" stroke-miterlimit="10"/>
<defs>
<linearGradient id="paint0_linear_476_41704" x1="1257.5" y1="2041" x2="1257.5" y2="5" gradientUnits="userSpaceOnUse">
<stop stop-color="#000025"/>
<stop offset="0.503125" stop-color="#000044"/>
<stop offset="1" stop-color="#000025"/>
</linearGradient>
</defs>
</svg>
